#VRML V2.0 utf8
# 3D model generated by Easy ECAD Downloader

Shape{
    appearance Appearance {
        material  Material {
            diffuseColor 0.25098039215686274 0.25098039215686274 0.25098039215686274
            specularColor 0.12549019607843137 0.12549019607843137 0.12549019607843137
            ambientIntensity 0.2
            transparency 0
            shininess 0.5
        }
    }
    geometry IndexedFaceSet {
        ccw TRUE
        solid FALSE
        coord DEF co Coordinate {
            point [
                1.0661 -1.0551 0.5984, 1.0627 -1.0555 0.5984, 1.0827 -1.0555 0.5984, 1.0041 -0.8478 0.5984, 1.0103 -0.8470 0.5984, 0.9784 -0.8470 0.5984, 1.0248 -0.9280 0.5984, 1.0197 -0.9284 0.5984, 1.0461 -0.9284 0.5984, 0.5007 -0.9583 0.5984, 0.5020 -0.9519 0.5984, -0.3490 -0.9519 0.5984, 0.8273 -0.9103 0.5984, 0.8427 -0.9234 0.5984, 0.8965 -0.8470 0.5984, 0.8965 -0.9284 0.5984, 0.7512 -0.8387 0.5984, 0.7636 -0.8470 0.5984, 0.7766 -0.8558 0.5984, 0.7952 -0.8772 0.5984, 0.8074 -0.9008 0.5984, 0.8104 -0.9018 0.5984, 0.6447 -0.8399 0.5984, 0.6709 -0.8297 0.5984, -0.3490 1.2008 0.5984, 0.8965 1.2008 0.5984, 0.6992 -0.8262 0.5984, 0.7227 -0.8287 0.5984, 0.5273 -0.8997 0.5984, 0.5321 -0.8952 0.5984, -0.3490 -0.8470 0.5984, 0.6331 -0.8470 0.5984, 0.6309 -0.8484 0.5984, 0.5511 -0.8823 0.5984, 0.5724 -0.8746 0.5984, 0.5928 -0.8723 0.5984, 0.6175 -0.8599 0.5984, 0.5993 -0.8727 0.5984, 0.6058 -0.8735 0.5984, -0.3490 -0.9284 0.5984, 0.5051 -0.9358 0.5984, 0.5086 -0.9284 0.5984, 0.5146 -0.9155 0.5984, 0.5605 -1.0510 0.5984, 0.5402 -1.0404 0.5984, -0.3490 -1.0555 0.5984, 0.5244 -1.0266 0.5984, 0.5225 -1.0244 0.5984, 0.5105 -1.0061 0.5984, 0.5028 -0.9848 0.5984, 0.5005 -0.9646 0.5984, 0.5700 -1.0539 0.5984, 0.5707 -1.0555 0.5984, 0.5757 -1.0661 0.5984, 0.5841 -1.0766 0.5984, 0.6476 -1.0872 0.5984, 0.6378 -1.0910 0.5984, 0.8965 -1.2008 0.5984, 0.6241 -1.0926 0.5984, 0.6218 -1.0926 0.5984, -0.3490 -1.2008 0.5984, 0.6084 -1.0905 0.5984, -0.3490 -1.0872 0.5984, 0.6005 -1.0872 0.5984, 0.5953 -1.0850 0.5984, 0.6774 -1.0555 0.5984, 0.6774 -1.0556 0.5984, 0.8965 -1.0872 0.5984, 0.6707 -1.0683 0.5984, 0.6619 -1.0782 0.5984, 0.6505 -1.0861 0.5984, 0.8427 -1.0295 0.5984, 0.8268 -1.0428 0.5984, 0.8965 -1.0555 0.5984, 0.8537 -1.0141 0.5984, 0.7502 -1.0218 0.5984, 0.7542 -1.0203 0.5984, 0.7607 -0.9879 0.5984, 0.6668 -0.9976 0.5984, 0.7430 -0.9577 0.5984, 0.6568 -0.9885 0.5984, 0.6448 -0.9820 0.5984, 0.8282 -0.9710 0.5984, 0.8255 -0.9601 0.5984, 0.8211 -0.9519 0.5984, 0.5378 -0.9519 0.5984, 0.7467 -1.0243 0.5984, 0.7584 -1.0198 0.5984, 0.7590 -1.0198 0.5984, 0.7607 -1.0202 0.5984, 0.5411 -0.9861 0.5984, 0.5480 -0.9977 0.5984, 0.5769 -1.0035 0.5984, 0.5582 -1.0082 0.5984, 0.5706 -1.0158 0.5984, 0.5979 -0.9847 0.5984, 0.5863 -0.9928 0.5984, 0.5364 -0.9634 0.5984, 0.5371 -0.9721 0.5984, 0.8094 -1.0512 0.5984, 0.7909 -1.0551 0.5984, 0.7573 -1.0551 0.5984, 0.7543 -1.0546 0.5984, 0.7505 -1.0532 0.5984, 0.7468 -1.0506 0.5984, 0.7452 -1.0490 0.5984, 0.6105 -0.9799 0.5984, 0.6241 -0.9782 0.5984, 0.6310 -0.9786 0.5984, 0.8612 -0.9570 0.5984, 0.8637 -0.9754 0.5984, 0.8965 -0.9519 0.5984, 0.8637 -0.9775 0.5984, 0.8610 -0.9962 0.5984, 0.8169 -1.0060 0.5984, 0.8232 -0.9972 0.5984, 0.8271 -0.9870 0.5984, 0.8284 -0.9759 0.5984, 0.7408 -1.0374 0.5984, 0.7409 -1.0357 0.5984, 0.6810 -1.0300 0.5984, 0.7419 -1.0313 0.5984, 0.7440 -1.0274 0.5984, 0.7428 -1.0455 0.5984, 0.7413 -1.0416 0.5984, 0.6807 -1.0416 0.5984, 0.6810 -1.0357 0.5984, 0.7618 -1.0203 0.5984, 0.7874 -1.0203 0.5984, 0.7976 -1.0184 0.5984, 0.8077 -1.0138 0.5984, 0.8161 -1.0069 0.5984, 0.7795 -0.9315 0.5984, 0.5430 -0.9370 0.5984, 0.5381 -0.9497 0.5984, 0.7840 -0.9315 0.5984, 0.8202 -0.9502 0.5984, 0.8136 -0.9429 0.5984, 0.8048 -0.9367 0.5984, 0.7948 -0.9329 0.5984, 0.7557 -0.8833 0.5984, 0.7525 -0.8803 0.5984, 0.6235 -0.9150 0.5984, 0.7682 -0.8990 0.5984, 0.5489 -0.9284 0.5984, 0.6193 -0.9128 0.5984, 0.7788 -0.9284 0.5984, 0.7766 -0.9175 0.5984, 0.7364 -0.8693 0.5984, 0.7185 -0.8626 0.5984, 0.6318 -0.8977 0.5984, 0.6998 -0.8604 0.5984, 0.6066 -0.9081 0.5984, 0.5933 -0.9065 0.5984, 0.5875 -0.9068 0.5984, 0.6788 -0.8631 0.5984, 0.6602 -0.8706 0.5984, 0.6444 -0.8823 0.5984, 0.5734 -0.9101 0.5984, 0.5607 -0.9168 0.5984, 0.5508 -0.9256 0.5984, 0.8463 -0.9284 0.5984, 0.8543 -0.9396 0.5984, 0.8592 -0.9519 0.5984, 1.2311 -0.9059 0.5984, 1.2017 -0.9059 0.5984, 1.2392 -0.9278 0.5984, 1.2017 -0.9284 0.5984, 1.2507 -0.9278 0.5984, 1.4370 -0.9284 0.5984, 1.4370 -0.8470 0.5984, 1.2202 -0.8477 0.5984, 1.2017 -0.8470 0.5984, 1.1977 -0.9059 0.5984, 1.1900 -0.9278 0.5984, 1.1764 -0.9284 0.5984, 1.1786 -0.9278 0.5984, 1.1764 -0.8470 0.5984, 1.2017 -0.8672 0.5984, 1.2091 -0.8477 0.5984, 1.0827 -0.8917 0.5984, 1.0611 -0.8917 0.5984, 1.0827 -0.9186 0.5984, 1.0611 -0.9186 0.5984, 1.1014 -0.8470 0.5984, 1.0827 -0.8470 0.5984, 1.0920 -0.8477 0.5984, 1.0827 -0.8477 0.5984, 1.0920 -0.8569 0.5984, 1.0938 -0.9186 0.5984, 1.1014 -0.9284 0.5984, 1.0938 -0.9278 0.5984, 1.0827 -0.9284 0.5984, 1.0898 -0.8917 0.5984, 1.0898 -0.8825 0.5984, 1.0827 -0.8825 0.5984, 1.0827 -0.8569 0.5984, 1.0611 -0.8569 0.5984, 1.0611 -0.8825 0.5984, 1.0508 -0.8477 0.5984, 1.0461 -0.8470 0.5984, 1.0508 -0.9278 0.5984, 1.0348 -0.8496 0.5984, 1.0264 -0.8472 0.5984, 1.0243 -0.8470 0.5984, 1.0827 -0.9278 0.5984, 1.0348 -0.8604 0.5984, 1.0334 -0.9251 0.5984, 1.0178 -0.9198 0.5984, 1.0269 -0.9181 0.5984, 1.0348 -0.9145 0.5984, 1.0348 -0.9245 0.5984, 1.0257 -0.8569 0.5984, 1.0159 -0.8557 0.5984, 0.9857 -0.8886 0.5984, 0.9896 -0.9061 0.5984, 0.9935 -0.9115 0.5984, 0.9951 -0.9130 0.5984, 1.0003 -0.9167 0.5984, 1.0060 -0.9189 0.5984, 1.0141 -0.9199 0.5984, 0.9941 -0.8646 0.5984, 0.9897 -0.8706 0.5984, 0.9995 -0.8601 0.5984, 1.0058 -0.8572 0.5984, 1.0128 -0.8558 0.5984, 0.9870 -0.8775 0.5984, 1.0339 -0.8600 0.5984, 0.9857 -0.8916 0.5984, 0.9870 -0.8996 0.5984, 0.9784 1.2008 0.5984, 1.0158 -0.8464 0.5984, 1.0461 1.2008 0.5984, 1.0159 -0.8464 0.5984, 0.9806 -0.8657 0.5984, 0.9864 -0.8581 0.5984, 0.9883 -0.8563 0.5984, 0.9958 -0.8510 0.5984, 0.9784 -0.9074 0.5984, 0.9764 -0.9024 0.5984, 0.9736 -0.9284 0.5984, 0.9748 -0.8893 0.5984, 0.9750 -0.8851 0.5984, 0.9736 -0.8470 0.5984, 0.9768 -0.8746 0.5984, 0.9784 -0.8708 0.5984, 0.9991 -0.9271 0.5984, 0.9915 -0.9235 0.5984, 0.9784 -0.9284 0.5984, 0.9851 -0.9182 0.5984, 0.9797 -0.9107 0.5984, 1.0056 -0.9284 0.5984, 0.9784 -0.9519 0.5984, 1.0078 -0.9289 0.5984, 1.0126 -0.9291 0.5984, 1.0461 -0.9519 0.5984, 1.1720 -0.9012 0.5984, 1.1680 -0.9095 0.5984, 1.1457 -0.8470 0.5984, 1.1457 -0.8496 0.5984, 1.1537 -0.8526 0.5984, 1.1457 -0.9257 0.5984, 1.1457 -0.9284 0.5984, 1.1538 -0.9225 0.5984, 1.1621 -0.9166 0.5984, 1.1621 -0.8583 0.5984, 1.1649 -0.8610 0.5984, 1.1698 -0.8680 0.5984, 1.1728 -0.8756 0.5984, 1.1742 -0.8867 0.5984, 1.1739 -0.8918 0.5984, 1.1318 -0.8477 0.5984, 1.1440 -0.8491 0.5984, 1.1447 -0.9261 0.5984, 1.1310 -0.9278 0.5984, 1.1090 -0.9278 0.5984, 1.1090 -0.8477 0.5984, 1.0093 -1.0541 0.5984, 1.0055 -1.0555 0.5984, 1.0179 -1.0548 0.5984, 0.9857 -1.0279 0.5984, 0.9876 -1.0114 0.5984, 0.9836 -1.0312 0.5984, 0.9824 -1.0349 0.5984, 1.0097 -1.0048 0.5984, 1.0063 -1.0044 0.5984, 1.0009 -1.0208 0.5984, 1.0129 -1.0517 0.5984, 0.9941 -1.0554 0.5984, 0.9903 -1.0540 0.5984, 0.9784 -1.0555 0.5984, 0.9886 -1.0252 0.5984, 0.9926 -1.0230 0.5984, 0.9945 -1.0070 0.5984, 1.0008 -1.0050 0.5984, 0.9876 -1.0016 0.5984, 0.9896 -1.0004 0.5984, 0.9869 -1.0516 0.5984, 0.9859 -1.0507 0.5984, 0.9838 -1.0476 0.5984, 1.0179 -1.0460 0.5984, 1.0176 -1.0460 0.5984, 1.0161 -1.0483 0.5984, 0.9825 -1.0443 0.5984, 0.9820 -1.0395 0.5984, 1.0444 -1.0221 0.5984, 1.0431 -1.0200 0.5984, 1.0279 -1.0180 0.5984, 1.0420 -1.0170 0.5984, 1.0269 -1.0095 0.5984, 1.0416 -1.0130 0.5984, 1.0179 -1.0184 0.5984, 1.0176 -1.0141 0.5984, 1.0165 -1.0105 0.5984, 1.0153 -1.0084 0.5984, 0.9970 -0.9975 0.5984, 1.0073 -0.9963 0.5984, 1.0143 -0.9971 0.5984, 1.0461 -1.0238 0.5984, 1.0415 -1.0424 0.5984, 1.0461 -1.0239 0.5984, 1.0451 -1.0447 0.5984, 1.0461 -1.0451 0.5984, 1.0138 -1.0068 0.5984, 1.0121 -1.0056 0.5984, 1.0183 -0.9985 0.5984, 1.0215 -1.0005 0.5984, 1.0450 -1.0035 0.5984, 1.0420 -1.0095 0.5984, 1.0432 -1.0062 0.5984, 1.0253 -1.0052 0.5984, 1.0232 -1.0021 0.5984, 1.0052 -1.0556 0.5984, 1.0461 -1.0872 0.5984, 0.9784 -1.0872 0.5984, 1.0001 -1.0561 0.5984, 0.9943 -1.0555 0.5984, 1.0415 -1.0528 0.5984, 1.0279 -1.0548 0.5984, 1.0461 -1.0544 0.5984, 1.0461 -1.0555 0.5984, 1.0486 -1.0553 0.5984, 1.0505 -1.0555 0.5984, 1.0570 -1.0561 0.5984, 1.0774 -0.9988 0.5984, 1.0774 -1.0086 0.5984, 1.0480 -1.0008 0.5984, 1.0505 -0.9993 0.5984, 1.0461 -1.0025 0.5984, 1.0797 -1.0433 0.5984, 1.0784 -1.0464 0.5984, 1.0766 -1.0491 0.5984, 1.0558 -0.9973 0.5984, 1.0638 -0.9963 0.5984, 1.0827 -0.9519 0.5984, 1.0709 -0.9969 0.5984, 1.0768 -1.0298 0.5984, 1.0786 -1.0325 0.5984, 1.0797 -1.0355 0.5984, 1.0801 -1.0392 0.5984, 1.0737 -1.0516 0.5984, 1.0714 -1.0530 0.5984, 1.0629 -1.0044 0.5984, 1.0599 -1.0047 0.5984, 1.0519 -1.0121 0.5984, 1.0572 -1.0054 0.5984, 1.0550 -1.0066 0.5984, 1.0520 -1.0135 0.5984, 1.0524 -1.0150 0.5984, 1.0531 -1.0164 0.5984, 1.0541 -1.0175 0.5984, 1.0576 -1.0197 0.5984, 1.0699 -1.0053 0.5984, 1.0638 -1.0224 0.5984, 1.0755 -1.0075 0.5984, 1.0677 -1.0239 0.5984, 1.0744 -1.0276 0.5984, 1.0534 -1.0079 0.5984, 1.0526 -1.0092 0.5984, 1.0521 -1.0105 0.5984, 1.0514 -1.0471 0.5984, 1.0568 -1.0297 0.5984, 1.0508 -1.0269 0.5984, 1.0580 -1.0480 0.5984, 1.0585 -1.0480 0.5984, 1.0633 -1.0324 0.5984, 1.0636 -1.0474 0.5984, 1.0698 -1.0402 0.5984, 1.0697 -1.0390 0.5984, 1.0662 -1.0464 0.5984, 1.0671 -1.0459 0.5984, 1.0682 -1.0449 0.5984, 1.0691 -1.0436 0.5984, 1.0696 -1.0421 0.5984, 1.0693 -1.0374 0.5984, 1.0685 -1.0361 0.5984, 1.0673 -1.0348 0.5984, 1.1299 -0.9976 0.5984, 1.1402 -0.9976 0.5984, 1.1457 -0.9519 0.5984, 1.1115 -1.0406 0.5984, 1.1127 -1.0453 0.5984, 1.1130 -1.0453 0.5984, 1.1014 -0.9519 0.5984, 1.1014 -1.0115 0.5984, 1.1142 -1.0407 0.5984, 1.1135 -1.0433 0.5984, 1.1014 -1.0555 0.5984, 1.1014 -1.0385 0.5984, 1.0854 -0.9976 0.5984, 1.0966 -0.9976 0.5984, 1.1078 -1.0547 0.5984, 1.1075 -1.0555 0.5984, 1.1034 -1.0651 0.5984, 1.0827 -1.0872 0.5984, 1.0874 -1.0809 0.5984, 1.0874 -1.0720 0.5984, 1.0895 -1.0727 0.5984, 1.0931 -1.0731 0.5984, 1.0934 -1.0731 0.5984, 1.0958 -1.0728 0.5984, 1.0980 -1.0719 0.5984, 1.0995 -1.0708 0.5984, 1.1013 -1.0688 0.5984, 1.1014 -1.0687 0.5984, 1.1014 -1.0799 0.5984, 1.0983 -1.0812 0.5984, 1.1014 -1.0872 0.5984, 1.0939 -1.0817 0.5984, 1.0917 -1.0816 0.5984, 1.1457 -1.0872 0.5984, 1.1056 -1.0772 0.5984, 1.1022 -1.0796 0.5984, 1.1174 -1.0555 0.5984, 1.1143 -1.0634 0.5984, 1.1097 -1.0724 0.5984, 1.1764 -1.0187 0.5984, 1.1614 -1.0187 0.5984, 1.1764 -1.0457 0.5984, 1.1614 -1.0457 0.5984, 1.1923 -0.9747 0.5984, 1.1923 -0.9839 0.5984, 1.2017 -0.9519 0.5984, 1.1941 -1.0457 0.5984, 1.2017 -1.0555 0.5984, 1.1941 -1.0548 0.5984, 1.1764 -1.0555 0.5984, 1.1900 -1.0187 0.5984, 1.1900 -1.0096 0.5984, 1.1764 -1.0096 0.5984, 1.1764 -0.9839 0.5984, 1.1614 -0.9839 0.5984, 1.1614 -1.0096 0.5984, 1.1764 -1.0548 0.5984, 1.1511 -1.0548 0.5984, 1.1457 -1.0555 0.5984, 1.1511 -0.9747 0.5984, 1.1764 -0.9747 0.5984, 1.1764 -0.9519 0.5984, 1.0827 1.2008 0.5984, 1.1014 1.2008 0.5984, 1.1457 1.2008 0.5984, 1.1764 1.2008 0.5984, 1.2017 1.2008 0.5984, 1.4370 1.2008 0.5984, 0.9736 1.2008 0.5984, 0.9715 -0.9186 0.5984, 0.9715 -0.9278 0.5984, 0.9293 -0.9278 0.5984, 0.9293 -0.8477 0.5984, 0.9396 -0.8477 0.5984, 0.9396 -0.9186 0.5984, 0.9736 -0.9519 0.5984, 1.3313 -1.0329 0.5984, 1.2980 -1.0329 0.5984, 1.3395 -1.0548 0.5984, 1.2903 -1.0548 0.5984, 1.4370 -1.0555 0.5984, 1.2789 -1.0548 0.5984, 1.4370 -0.9519 0.5984, 1.3204 -0.9747 0.5984, 1.3509 -1.0548 0.5984, 1.2723 -1.0282 0.5984, 1.2742 -1.0188 0.5984, 1.3094 -0.9747 0.5984, 1.2744 -1.0137 0.5984, 1.2731 -1.0026 0.5984, 1.2683 -1.0365 0.5984, 1.2624 -1.0436 0.5984, 1.2541 -1.0495 0.5984, 1.2092 -0.9747 0.5984, 1.2092 -1.0548 0.5984, 1.2313 -1.0548 0.5984, 1.2450 -1.0531 0.5984, 1.2624 -0.9853 0.5984, 1.2651 -0.9880 0.5984, 1.2701 -0.9950 0.5984, 1.2321 -0.9747 0.5984, 1.2443 -0.9761 0.5984, 1.2540 -0.9796 0.5984, 0.9736 -1.0555 0.5984, 0.9293 -1.0548 0.5984, 0.9724 -1.0548 0.5984, 0.9724 -1.0457 0.5984, 0.9706 -0.9839 0.5984, 0.9293 -0.9747 0.5984, 0.9706 -0.9747 0.5984, 0.9396 -1.0187 0.5984, 0.9396 -1.0457 0.5984, 0.9683 -1.0187 0.5984, 0.9683 -1.0096 0.5984, 0.9396 -1.0096 0.5984, 0.9396 -0.9839 0.5984, 1.1764 -1.0872 0.5984, 1.2017 -1.0872 0.5984, 1.4370 -1.0872 0.5984, 0.9736 -1.0872 0.5984, 0.9736 -1.2008 0.5984, 0.9784 -1.2008 0.5984, 1.0461 -1.2008 0.5984, 1.0827 -1.2008 0.5984, 1.1014 -1.2008 0.5984, 1.1457 -1.2008 0.5984, 1.1764 -1.2008 0.5984, 1.2017 -1.2008 0.5984, 1.4370 -1.2008 0.5984, -1.1986 1.2008 0.5984, -1.1986 -0.8470 0.5984, -1.1986 -0.9284 0.5984, -1.1986 -0.9519 0.5984, -1.1986 -1.0555 0.5984, -1.1986 -1.0872 0.5984, -1.1986 -1.2008 0.5984, -1.4370 -0.6398 0.0079, -1.4370 -1.2008 0.0079, -1.4370 -0.6398 0.1260, -1.4370 -1.2008 0.5945, -1.4370 0.6398 0.1260, -1.4370 1.2008 0.5945, -1.4370 0.6398 0.0079, -1.4370 1.2008 0.0079, 1.4370 0.6398 0.0079, 1.4370 1.2008 0.0079, 1.4370 0.6398 0.1260, 1.4370 -0.6398 0.1260, 1.4370 -0.6398 0.0079, 1.4370 -1.2008 0.0079, 0.6575 -0.6398 0.0079, 0.6575 0.6398 0.0079, -0.6575 -0.6398 0.0079, -0.6575 0.6398 0.0079, -1.1986 1.2008 0.5945, -1.1986 -1.2008 0.5945, -1.1986 -1.2008 0.5945
            ]
        }
        coordIndex [
            0 1 2 -1,3 4 5 -1,6 7 8 -1,9 10 11 -1,12 13 14 -1,14 13 15 -1,16 17 14 -1,14 17 18 -1,14 18 19 -1,19 20 14 -1,14 20 21 -1,14 21 12 -1,22 23 24 -1,24 23 25 -1,25 23 26 -1,25 26 27 -1,28 29 30 -1,22 24 31 -1,31 24 30 -1,31 30 32 -1,29 33 30 -1,30 33 34 -1,30 34 32 -1,32 34 35 -1,32 35 36 -1,36 35 37 -1,36 37 38 -1,11 10 39 -1,10 40 39 -1,39 40 41 -1,39 41 30 -1,30 41 42 -1,30 42 28 -1,43 44 45 -1,45 44 46 -1,45 46 47 -1,47 48 45 -1,45 48 49 -1,45 49 11 -1,11 49 50 -1,11 50 9 -1,51 43 52 -1,52 43 45 -1,52 45 53 -1,53 45 54 -1,55 56 57 -1,56 58 57 -1,57 58 59 -1,57 59 60 -1,60 59 61 -1,60 61 62 -1,62 61 63 -1,62 63 45 -1,45 63 64 -1,45 64 54 -1,65 66 67 -1,67 66 68 -1,68 69 67 -1,67 69 70 -1,67 70 55 -1,71 72 73 -1,71 73 74 -1,75 76 77 -1,78 79 80 -1,80 79 81 -1,82 83 79 -1,79 83 84 -1,79 84 85 -1,75 77 86 -1,76 87 77 -1,77 87 88 -1,77 88 89 -1,90 91 92 -1,92 91 93 -1,92 93 94 -1,95 85 96 -1,96 85 97 -1,96 97 92 -1,92 97 98 -1,92 98 90 -1,72 99 73 -1,73 99 100 -1,73 100 65 -1,65 100 101 -1,65 101 102 -1,102 103 65 -1,65 103 104 -1,65 104 105 -1,95 106 85 -1,85 106 107 -1,85 107 79 -1,79 107 108 -1,79 108 81 -1,109 110 111 -1,111 110 112 -1,111 112 73 -1,73 112 113 -1,73 113 74 -1,114 115 77 -1,77 115 116 -1,77 116 79 -1,79 116 117 -1,79 117 82 -1,118 119 120 -1,120 119 121 -1,120 121 77 -1,77 121 122 -1,77 122 86 -1,105 123 65 -1,65 123 124 -1,65 124 125 -1,125 124 118 -1,125 118 126 -1,126 118 120 -1,89 127 77 -1,77 127 128 -1,77 128 129 -1,129 130 77 -1,77 130 131 -1,77 131 114 -1,132 133 134 -1,134 85 132 -1,132 85 84 -1,132 84 135 -1,135 84 136 -1,136 137 135 -1,135 137 138 -1,135 138 139 -1,140 141 142 -1,140 142 143 -1,144 142 145 -1,133 132 144 -1,144 132 146 -1,144 146 142 -1,142 146 147 -1,142 147 143 -1,141 148 142 -1,142 148 149 -1,142 149 150 -1,150 149 151 -1,145 152 144 -1,144 152 153 -1,144 153 154 -1,155 156 151 -1,151 156 157 -1,151 157 150 -1,158 159 154 -1,154 159 160 -1,154 160 144 -1,13 161 15 -1,15 161 162 -1,15 162 111 -1,111 162 163 -1,111 163 109 -1,164 165 166 -1,166 165 167 -1,166 167 168 -1,169 170 171 -1,171 170 172 -1,165 173 167 -1,167 173 174 -1,167 174 175 -1,175 174 176 -1,175 176 177 -1,177 176 178 -1,177 178 172 -1,172 178 179 -1,172 179 171 -1,180 181 182 -1,182 181 183 -1,184 185 186 -1,186 185 187 -1,186 188 184 -1,184 188 189 -1,184 189 190 -1,190 189 191 -1,190 191 192 -1,180 182 193 -1,193 182 189 -1,193 189 194 -1,194 189 188 -1,194 188 195 -1,188 196 195 -1,195 196 197 -1,195 197 198 -1,187 185 199 -1,199 185 200 -1,199 200 201 -1,202 200 203 -1,203 200 204 -1,191 205 192 -1,192 205 201 -1,192 201 8 -1,8 201 200 -1,8 200 206 -1,206 200 202 -1,6 8 207 -1,208 209 206 -1,206 209 210 -1,206 210 8 -1,8 210 211 -1,8 211 207 -1,212 213 214 -1,215 216 206 -1,206 216 217 -1,206 217 218 -1,218 219 206 -1,206 219 220 -1,206 220 208 -1,221 222 223 -1,223 222 224 -1,213 225 214 -1,214 225 224 -1,214 224 226 -1,226 224 222 -1,212 214 227 -1,227 214 228 -1,227 228 206 -1,206 228 229 -1,206 229 215 -1,230 231 232 -1,232 231 233 -1,232 233 204 -1,5 234 235 -1,235 236 5 -1,5 236 237 -1,5 237 3 -1,238 239 240 -1,240 239 241 -1,241 242 243 -1,243 242 244 -1,243 244 5 -1,5 244 245 -1,5 245 234 -1,246 247 248 -1,248 247 249 -1,248 249 250 -1,246 248 251 -1,251 248 252 -1,251 252 253 -1,253 252 254 -1,254 252 255 -1,254 255 7 -1,256 257 175 -1,258 259 177 -1,177 259 260 -1,261 262 263 -1,263 262 175 -1,263 175 264 -1,264 175 257 -1,260 265 177 -1,177 265 266 -1,177 266 267 -1,267 268 177 -1,177 268 269 -1,177 269 175 -1,175 269 270 -1,175 270 256 -1,184 271 258 -1,258 271 272 -1,258 272 259 -1,261 273 262 -1,262 273 274 -1,262 274 190 -1,190 274 275 -1,190 275 184 -1,184 275 276 -1,184 276 271 -1,277 278 279 -1,280 281 282 -1,282 281 283 -1,284 285 286 -1,277 279 287 -1,288 289 290 -1,280 291 281 -1,281 291 292 -1,281 292 293 -1,293 292 286 -1,293 286 294 -1,294 286 285 -1,252 295 296 -1,289 297 290 -1,290 297 298 -1,290 298 299 -1,300 301 279 -1,279 301 302 -1,279 302 287 -1,299 303 290 -1,290 303 304 -1,290 304 252 -1,252 304 283 -1,252 283 295 -1,295 283 281 -1,305 306 307 -1,307 306 308 -1,307 308 309 -1,309 308 310 -1,311 312 286 -1,286 312 313 -1,286 313 314 -1,296 315 252 -1,252 315 316 -1,252 316 317 -1,318 319 320 -1,320 319 321 -1,320 321 322 -1,314 323 286 -1,286 323 324 -1,286 324 284 -1,325 326 327 -1,310 328 309 -1,309 328 329 -1,309 329 330 -1,330 329 327 -1,330 327 331 -1,331 327 326 -1,278 332 333 -1,333 332 334 -1,334 332 335 -1,334 335 336 -1,318 305 319 -1,319 305 307 -1,319 307 337 -1,337 307 338 -1,337 338 339 -1,339 338 340 -1,339 340 341 -1,341 340 342 -1,343 342 333 -1,333 342 340 -1,333 340 278 -1,278 340 338 -1,278 338 279 -1,344 345 2 -1,346 347 255 -1,317 325 252 -1,252 325 327 -1,252 327 255 -1,255 327 348 -1,255 348 346 -1,349 350 2 -1,2 350 351 -1,347 352 255 -1,255 352 353 -1,255 353 354 -1,354 353 355 -1,354 355 344 -1,356 357 345 -1,345 357 358 -1,345 358 2 -1,2 358 359 -1,2 359 349 -1,351 360 2 -1,2 360 361 -1,2 361 0 -1,362 363 364 -1,364 363 365 -1,364 365 366 -1,364 367 362 -1,362 367 368 -1,362 368 369 -1,369 370 362 -1,362 370 371 -1,362 371 372 -1,372 371 373 -1,372 373 374 -1,374 373 375 -1,374 375 345 -1,345 375 376 -1,345 376 356 -1,377 378 366 -1,366 378 379 -1,366 379 364 -1,380 381 322 -1,322 381 382 -1,322 382 320 -1,380 383 381 -1,381 383 384 -1,381 384 385 -1,385 384 386 -1,385 387 388 -1,386 389 385 -1,385 389 390 -1,385 390 391 -1,391 392 385 -1,385 392 393 -1,385 393 387 -1,388 394 385 -1,385 394 395 -1,385 395 396 -1,397 398 399 -1,400 401 402 -1,399 403 397 -1,397 403 404 -1,397 404 405 -1,405 404 400 -1,405 400 406 -1,406 400 402 -1,407 408 2 -1,2 408 409 -1,344 2 354 -1,354 2 409 -1,354 409 403 -1,403 409 410 -1,403 410 404 -1,411 408 412 -1,412 408 407 -1,412 407 413 -1,414 415 416 -1,417 418 2 -1,343 333 1 -1,1 333 414 -1,1 414 2 -1,2 414 416 -1,2 416 417 -1,418 419 2 -1,2 419 420 -1,2 420 421 -1,421 422 2 -1,2 422 423 -1,2 423 407 -1,407 423 424 -1,407 424 413 -1,425 426 427 -1,427 426 428 -1,427 428 414 -1,414 428 429 -1,414 429 415 -1,430 431 427 -1,427 431 432 -1,427 432 425 -1,433 434 430 -1,430 434 435 -1,430 435 431 -1,436 437 438 -1,438 437 439 -1,440 441 442 -1,442 441 443 -1,442 443 444 -1,444 443 445 -1,444 445 446 -1,436 438 447 -1,447 438 443 -1,447 443 448 -1,448 443 441 -1,448 441 449 -1,441 450 449 -1,449 450 451 -1,449 451 452 -1,445 453 446 -1,446 453 454 -1,446 454 455 -1,455 454 456 -1,440 442 457 -1,457 442 458 -1,457 458 456 -1,456 458 399 -1,456 399 455 -1,455 399 398 -1,455 398 433 -1,204 200 232 -1,232 200 185 -1,232 185 459 -1,459 185 184 -1,459 184 460 -1,460 184 258 -1,460 258 461 -1,461 258 177 -1,461 177 462 -1,462 177 172 -1,462 172 463 -1,463 172 170 -1,463 170 464 -1,25 243 465 -1,465 243 5 -1,465 5 230 -1,230 5 4 -1,230 4 231 -1,241 243 240 -1,240 243 466 -1,240 466 467 -1,15 468 14 -1,14 468 469 -1,14 469 470 -1,471 466 470 -1,470 466 243 -1,470 243 14 -1,14 243 25 -1,14 25 16 -1,16 25 27 -1,7 255 8 -1,8 255 354 -1,8 354 192 -1,192 354 403 -1,192 403 190 -1,190 403 399 -1,190 399 262 -1,262 399 458 -1,262 458 175 -1,175 458 442 -1,175 442 167 -1,467 468 240 -1,240 468 15 -1,240 15 472 -1,472 15 111 -1,473 474 475 -1,475 474 476 -1,477 475 444 -1,444 475 476 -1,444 476 478 -1,479 480 477 -1,477 480 481 -1,477 481 475 -1,482 478 483 -1,483 478 484 -1,483 484 485 -1,485 484 486 -1,482 487 478 -1,478 487 488 -1,478 488 489 -1,490 442 491 -1,491 442 444 -1,491 444 492 -1,492 444 478 -1,492 478 493 -1,493 478 489 -1,171 168 169 -1,169 168 167 -1,169 167 479 -1,479 167 442 -1,479 442 480 -1,480 442 484 -1,494 495 484 -1,484 495 496 -1,484 496 486 -1,490 497 442 -1,442 497 498 -1,442 498 484 -1,484 498 499 -1,484 499 494 -1,250 238 248 -1,248 238 240 -1,248 240 252 -1,252 240 472 -1,252 472 290 -1,290 472 500 -1,73 500 501 -1,501 500 502 -1,502 500 503 -1,503 500 472 -1,503 472 504 -1,73 501 111 -1,111 501 505 -1,111 505 472 -1,472 505 506 -1,472 506 504 -1,507 508 509 -1,509 508 503 -1,509 503 510 -1,510 503 504 -1,510 504 511 -1,511 504 512 -1,433 430 455 -1,455 430 513 -1,455 513 446 -1,446 513 514 -1,446 514 444 -1,444 514 515 -1,444 515 477 -1,65 67 73 -1,73 67 516 -1,73 516 500 -1,500 516 334 -1,500 334 290 -1,290 334 336 -1,290 336 288 -1,55 57 67 -1,67 57 517 -1,67 517 516 -1,516 517 518 -1,516 518 334 -1,334 518 519 -1,334 519 333 -1,333 519 520 -1,333 520 414 -1,414 520 521 -1,414 521 427 -1,427 521 522 -1,427 522 430 -1,430 522 523 -1,430 523 513 -1,513 523 524 -1,513 524 514 -1,514 524 525 -1,514 525 515 -1,24 526 30 -1,30 526 527 -1,30 527 39 -1,39 527 528 -1,39 528 11 -1,11 528 529 -1,11 529 45 -1,45 529 530 -1,45 530 62 -1,62 530 531 -1,62 531 60 -1,60 531 532 -1,533 534 535 -1,535 534 536 -1,535 536 537 -1,537 536 538 -1,537 538 539 -1,539 538 540 -1,541 542 543 -1,543 542 464 -1,543 464 544 -1,544 464 525 -1,544 525 545 -1,545 525 546 -1,547 545 546 -1,540 542 548 -1,548 542 541 -1,534 533 549 -1,539 540 550 -1,550 540 548 -1,550 548 549 -1,549 548 547 -1,549 547 534 -1,534 547 546 -1,540 538 551 -1,526 464 551 -1,551 464 542 -1,551 542 540 -1,536 534 552 -1,552 534 546 -1,552 546 532 -1,532 546 525 -1,
        ]
    }
}
Shape{
    appearance Appearance {
        material  Material {
            diffuseColor 0.7529411764705882 0.7529411764705882 0.7529411764705882
            specularColor 0.3764705882352941 0.3764705882352941 0.3764705882352941
            ambientIntensity 0.2
            transparency 0
            shininess 0.5
        }
    }
    geometry IndexedFaceSet {
        ccw TRUE
        solid FALSE
        coord DEF co Coordinate {
            point [
                -1.4449 0.6398 0.1260, -1.4449 -0.6398 0.1260, -1.4370 0.6398 0.1260, -1.4370 -0.6398 0.1260, -1.4370 -0.6398 0.0079, -1.4449 -0.6398 0.0000, -0.6575 -0.6398 0.0079, -0.6575 -0.6398 0.0000, -0.6575 0.6398 0.0000, -0.6575 0.6398 0.0079, -1.4370 0.6398 0.0079, -1.4449 0.6398 0.0000, 1.4449 -0.6398 0.1260, 1.4449 0.6398 0.1260, 1.4370 -0.6398 0.1260, 1.4370 0.6398 0.1260, 1.4370 0.6398 0.0079, 1.4449 0.6398 0.0000, 0.6575 0.6398 0.0079, 0.6575 0.6398 0.0000, 0.6575 -0.6398 0.0079, 0.6575 -0.6398 0.0000, 1.4370 -0.6398 0.0079, 1.4449 -0.6398 0.0000, 1.4449 -0.6398 0.0000
            ]
        }
        coordIndex [
            0 1 2 -1,2 1 3 -1,3 1 4 -1,4 1 5 -1,4 5 6 -1,6 5 7 -1,7 8 6 -1,6 8 9 -1,9 8 10 -1,10 8 11 -1,10 11 2 -1,2 11 0 -1,5 1 11 -1,11 1 0 -1,8 7 11 -1,11 7 5 -1,12 13 14 -1,14 13 15 -1,15 13 16 -1,16 13 17 -1,16 17 18 -1,18 17 19 -1,18 19 20 -1,20 19 21 -1,20 21 22 -1,22 21 23 -1,22 23 14 -1,14 23 12 -1,17 13 23 -1,23 13 12 -1,21 19 23 -1,23 19 17 -1,
        ]
    }
}
Shape{
    appearance Appearance {
        material  Material {
            diffuseColor 1.0 1.0 1.0
            specularColor 0.5019607843137255 0.5019607843137255 0.5019607843137255
            ambientIntensity 0.2
            transparency 0
            shininess 0.5
        }
    }
    geometry IndexedFaceSet {
        ccw TRUE
        solid FALSE
        coord DEF co Coordinate {
            point [
                -1.1986 1.2008 0.5945, -1.1986 -1.2008 0.5945, -1.1986 1.2008 0.5984, -1.1986 -1.2008 0.5984, -1.4370 -1.2008 0.5945, -1.4370 1.2008 0.5945, 0.9715 -0.9186 0.6024, 0.9715 -0.9278 0.6024, 0.9715 -0.9186 0.5984, 0.9715 -0.9278 0.5984, 0.9396 -0.9186 0.6024, 0.9396 -0.9186 0.5984, 0.9396 -0.8477 0.6024, 0.9396 -0.8477 0.5984, 0.9293 -0.8477 0.6024, 0.9293 -0.8477 0.5984, 0.9293 -0.9278 0.6024, 0.9293 -0.9278 0.5984, 1.0126 -0.9291 0.6024, 1.0126 -0.9291 0.5984, 1.0248 -0.9280 0.6024, 1.0197 -0.9284 0.5984, 1.0248 -0.9280 0.5984, 1.0334 -0.9251 0.5984, 1.0334 -0.9251 0.6024, 1.0348 -0.9245 0.5984, 1.0348 -0.9245 0.6024, 1.0348 -0.9145 0.6024, 1.0348 -0.9145 0.5984, 1.0269 -0.9181 0.5984, 1.0269 -0.9181 0.6024, 1.0178 -0.9198 0.5984, 1.0178 -0.9198 0.6024, 1.0141 -0.9199 0.5984, 1.0141 -0.9199 0.6024, 1.0060 -0.9189 0.5984, 1.0060 -0.9189 0.6024, 1.0003 -0.9167 0.5984, 1.0003 -0.9167 0.6024, 0.9951 -0.9130 0.5984, 0.9951 -0.9130 0.6024, 0.9935 -0.9115 0.5984, 0.9935 -0.9115 0.6024, 0.9896 -0.9061 0.5984, 0.9896 -0.9061 0.6024, 0.9870 -0.8996 0.5984, 0.9870 -0.8996 0.6024, 0.9857 -0.8916 0.5984, 0.9857 -0.8916 0.6024, 0.9857 -0.8886 0.5984, 0.9857 -0.8886 0.6024, 0.9870 -0.8775 0.5984, 0.9870 -0.8775 0.6024, 0.9897 -0.8706 0.5984, 0.9897 -0.8706 0.6024, 0.9941 -0.8646 0.5984, 0.9941 -0.8646 0.6024, 0.9995 -0.8601 0.5984, 0.9995 -0.8601 0.6024, 1.0058 -0.8572 0.5984, 1.0058 -0.8572 0.6024, 1.0128 -0.8558 0.5984, 1.0128 -0.8558 0.6024, 1.0159 -0.8557 0.5984, 1.0159 -0.8557 0.6024, 1.0257 -0.8569 0.5984, 1.0257 -0.8569 0.6024, 1.0339 -0.8600 0.5984, 1.0339 -0.8600 0.6024, 1.0348 -0.8604 0.5984, 1.0348 -0.8604 0.6024, 1.0348 -0.8496 0.6024, 1.0348 -0.8496 0.5984, 1.0158 -0.8464 0.5984, 1.0158 -0.8464 0.6024, 1.0159 -0.8464 0.6024, 1.0264 -0.8472 0.5984, 1.0264 -0.8472 0.6024, 1.0243 -0.8470 0.5984, 1.0159 -0.8464 0.5984, 1.0103 -0.8470 0.5984, 1.0041 -0.8478 0.6024, 1.0041 -0.8478 0.5984, 0.9958 -0.8510 0.5984, 0.9958 -0.8510 0.6024, 0.9883 -0.8563 0.5984, 0.9883 -0.8563 0.6024, 0.9864 -0.8581 0.5984, 0.9864 -0.8581 0.6024, 0.9806 -0.8657 0.5984, 0.9784 -0.8708 0.5984, 0.9768 -0.8746 0.6024, 0.9806 -0.8657 0.6024, 0.9768 -0.8746 0.5984, 0.9750 -0.8851 0.5984, 0.9750 -0.8851 0.6024, 0.9748 -0.8893 0.5984, 0.9748 -0.8893 0.6024, 0.9764 -0.9024 0.5984, 0.9784 -0.9074 0.5984, 0.9797 -0.9107 0.6024, 0.9764 -0.9024 0.6024, 0.9797 -0.9107 0.5984, 0.9851 -0.9182 0.5984, 0.9851 -0.9182 0.6024, 1.0078 -0.9289 0.6024, 0.9915 -0.9235 0.5984, 0.9915 -0.9235 0.6024, 0.9991 -0.9271 0.5984, 0.9991 -0.9271 0.6024, 1.0056 -0.9284 0.5984, 1.0078 -0.9289 0.5984, 1.0938 -0.9186 0.6024, 1.0938 -0.9278 0.6024, 1.0938 -0.9186 0.5984, 1.0938 -0.9278 0.5984, 1.0611 -0.9186 0.5984, 1.0611 -0.9186 0.6024, 1.0827 -0.9186 0.5984, 1.0611 -0.8917 0.6024, 1.0611 -0.8917 0.5984, 1.0898 -0.8917 0.6024, 1.0827 -0.8917 0.5984, 1.0898 -0.8917 0.5984, 1.0898 -0.8825 0.6024, 1.0898 -0.8825 0.5984, 1.0611 -0.8825 0.5984, 1.0611 -0.8825 0.6024, 1.0827 -0.8825 0.5984, 1.0611 -0.8569 0.6024, 1.0611 -0.8569 0.5984, 1.0920 -0.8569 0.6024, 1.0827 -0.8569 0.5984, 1.0920 -0.8569 0.5984, 1.0920 -0.8477 0.6024, 1.0920 -0.8477 0.5984, 1.0508 -0.8477 0.5984, 1.0508 -0.8477 0.6024, 1.0827 -0.8477 0.5984, 1.0508 -0.9278 0.6024, 1.0508 -0.9278 0.5984, 1.0827 -0.9278 0.5984, 1.1621 -0.9166 0.6024, 1.1539 -0.9111 0.6024, 1.1538 -0.9225 0.6024, 1.1487 -0.9147 0.6024, 1.1447 -0.9261 0.6024, 1.1421 -0.9173 0.6024, 1.1310 -0.9278 0.6024, 1.1309 -0.9186 0.6024, 1.1090 -0.9278 0.6024, 1.1193 -0.9186 0.6024, 1.1090 -0.8477 0.6024, 1.1193 -0.8569 0.6024, 1.1318 -0.8477 0.6024, 1.1314 -0.8569 0.6024, 1.1440 -0.8491 0.6024, 1.1417 -0.8580 0.6024, 1.1537 -0.8526 0.6024, 1.1487 -0.8606 0.6024, 1.1621 -0.8583 0.6024, 1.1545 -0.8644 0.6024, 1.1649 -0.8610 0.6024, 1.1567 -0.8666 0.6024, 1.1698 -0.8680 0.6024, 1.1598 -0.8711 0.6024, 1.1728 -0.8756 0.6024, 1.1621 -0.8769 0.6024, 1.1742 -0.8867 0.6024, 1.1633 -0.8870 0.6024, 1.1739 -0.8918 0.6024, 1.1629 -0.8933 0.6024, 1.1720 -0.9012 0.6024, 1.1611 -0.9004 0.6024, 1.1680 -0.9095 0.6024, 1.1582 -0.9062 0.6024, 1.1547 -0.9103 0.6024, 1.1310 -0.9278 0.5984, 1.1090 -0.9278 0.5984, 1.1621 -0.9166 0.5984, 1.1447 -0.9261 0.5984, 1.1457 -0.9257 0.5984, 1.1538 -0.9225 0.5984, 1.1680 -0.9095 0.5984, 1.1720 -0.9012 0.5984, 1.1739 -0.8918 0.5984, 1.1742 -0.8867 0.5984, 1.1728 -0.8756 0.5984, 1.1698 -0.8680 0.5984, 1.1649 -0.8610 0.5984, 1.1621 -0.8583 0.5984, 1.1318 -0.8477 0.5984, 1.1537 -0.8526 0.5984, 1.1457 -0.8496 0.5984, 1.1440 -0.8491 0.5984, 1.1090 -0.8477 0.5984, 1.1314 -0.8569 0.5984, 1.1193 -0.8569 0.5984, 1.1193 -0.9186 0.5984, 1.1309 -0.9186 0.5984, 1.1547 -0.9103 0.5984, 1.1539 -0.9111 0.5984, 1.1487 -0.9147 0.5984, 1.1421 -0.9173 0.5984, 1.1633 -0.8870 0.5984, 1.1629 -0.8933 0.5984, 1.1611 -0.9004 0.5984, 1.1582 -0.9062 0.5984, 1.1545 -0.8644 0.5984, 1.1567 -0.8666 0.5984, 1.1598 -0.8711 0.5984, 1.1621 -0.8769 0.5984, 1.1417 -0.8580 0.5984, 1.1487 -0.8606 0.5984, 1.1487 -0.8606 0.5984
            ]
        }
        coordIndex [
            0 1 2 -1,2 1 3 -1,1 0 4 -1,4 0 5 -1,6 7 8 -1,8 7 9 -1,10 6 11 -1,11 6 8 -1,12 10 13 -1,13 10 11 -1,14 12 15 -1,15 12 13 -1,16 14 17 -1,17 14 15 -1,7 16 9 -1,9 16 17 -1,12 14 10 -1,10 14 16 -1,10 16 6 -1,6 16 7 -1,18 19 20 -1,20 19 21 -1,21 22 20 -1,20 22 23 -1,20 23 24 -1,24 23 25 -1,24 25 26 -1,27 26 28 -1,28 26 25 -1,27 28 29 -1,27 29 30 -1,30 29 31 -1,30 31 32 -1,32 31 33 -1,32 33 34 -1,34 33 35 -1,34 35 36 -1,36 35 37 -1,36 37 38 -1,38 37 39 -1,38 39 40 -1,40 39 41 -1,40 41 42 -1,42 41 43 -1,42 43 44 -1,44 43 45 -1,44 45 46 -1,46 45 47 -1,46 47 48 -1,48 47 49 -1,48 49 50 -1,50 49 51 -1,50 51 52 -1,52 51 53 -1,52 53 54 -1,54 53 55 -1,54 55 56 -1,56 55 57 -1,56 57 58 -1,58 57 59 -1,58 59 60 -1,60 59 61 -1,60 61 62 -1,62 61 63 -1,62 63 64 -1,64 63 65 -1,64 65 66 -1,66 65 67 -1,66 67 68 -1,68 67 69 -1,68 69 70 -1,71 70 72 -1,72 70 69 -1,73 74 75 -1,71 72 76 -1,71 76 77 -1,77 76 78 -1,77 78 75 -1,75 78 79 -1,75 79 73 -1,74 73 80 -1,74 80 81 -1,80 82 81 -1,81 82 83 -1,81 83 84 -1,84 83 85 -1,84 85 86 -1,86 85 87 -1,86 87 88 -1,88 87 89 -1,90 91 89 -1,89 91 92 -1,89 92 88 -1,90 93 91 -1,91 93 94 -1,91 94 95 -1,95 94 96 -1,95 96 97 -1,97 96 98 -1,99 100 98 -1,98 100 101 -1,98 101 97 -1,99 102 100 -1,100 102 103 -1,100 103 104 -1,19 18 105 -1,104 103 106 -1,104 106 107 -1,107 106 108 -1,107 108 109 -1,109 108 110 -1,109 110 105 -1,105 110 111 -1,105 111 19 -1,68 70 71 -1,58 86 56 -1,56 86 88 -1,56 88 54 -1,54 88 92 -1,54 92 52 -1,68 71 66 -1,66 71 77 -1,66 77 64 -1,64 77 75 -1,64 75 62 -1,62 75 74 -1,62 74 60 -1,60 74 81 -1,60 81 58 -1,58 81 84 -1,58 84 86 -1,97 50 95 -1,95 50 52 -1,95 52 91 -1,91 52 92 -1,26 27 24 -1,24 27 30 -1,24 30 20 -1,20 30 32 -1,20 32 18 -1,18 32 34 -1,18 34 105 -1,105 34 36 -1,105 36 109 -1,109 36 38 -1,109 38 107 -1,107 38 40 -1,107 40 104 -1,104 40 42 -1,104 42 100 -1,100 42 44 -1,100 44 101 -1,101 44 46 -1,101 46 97 -1,97 46 48 -1,97 48 50 -1,112 113 114 -1,114 113 115 -1,116 117 118 -1,118 117 112 -1,118 112 114 -1,119 117 120 -1,120 117 116 -1,119 120 121 -1,121 120 122 -1,121 122 123 -1,124 121 125 -1,125 121 123 -1,126 127 128 -1,128 127 124 -1,128 124 125 -1,129 127 130 -1,130 127 126 -1,129 130 131 -1,131 130 132 -1,131 132 133 -1,134 131 135 -1,135 131 133 -1,136 137 138 -1,138 137 134 -1,138 134 135 -1,139 137 140 -1,140 137 136 -1,139 140 113 -1,113 140 141 -1,113 141 115 -1,139 113 112 -1,112 117 139 -1,139 117 119 -1,139 119 137 -1,131 134 129 -1,129 134 137 -1,129 137 127 -1,127 137 119 -1,127 119 124 -1,124 119 121 -1,142 143 144 -1,144 143 145 -1,144 145 146 -1,146 145 147 -1,146 147 148 -1,148 147 149 -1,148 149 150 -1,150 149 151 -1,150 151 152 -1,152 151 153 -1,152 153 154 -1,154 153 155 -1,154 155 156 -1,156 155 157 -1,156 157 158 -1,158 157 159 -1,158 159 160 -1,160 159 161 -1,160 161 162 -1,162 161 163 -1,162 163 164 -1,164 163 165 -1,164 165 166 -1,166 165 167 -1,166 167 168 -1,168 167 169 -1,168 169 170 -1,170 169 171 -1,170 171 172 -1,172 171 173 -1,172 173 174 -1,174 173 175 -1,174 175 142 -1,142 175 176 -1,142 176 143 -1,148 150 177 -1,177 150 178 -1,179 142 144 -1,148 177 180 -1,148 180 146 -1,146 180 181 -1,146 181 144 -1,144 181 182 -1,144 182 179 -1,142 179 183 -1,142 183 174 -1,174 183 184 -1,174 184 172 -1,172 184 185 -1,172 185 170 -1,170 185 186 -1,170 186 168 -1,168 186 187 -1,168 187 166 -1,166 187 188 -1,166 188 164 -1,164 188 189 -1,164 189 162 -1,162 189 190 -1,162 190 160 -1,191 154 156 -1,160 190 192 -1,160 192 158 -1,158 192 193 -1,158 193 156 -1,156 193 194 -1,156 194 191 -1,152 154 195 -1,195 154 191 -1,150 152 178 -1,178 152 195 -1,155 153 196 -1,196 153 197 -1,153 151 197 -1,197 151 198 -1,151 149 198 -1,198 149 199 -1,176 200 201 -1,176 201 143 -1,143 201 202 -1,143 202 145 -1,145 202 203 -1,145 203 147 -1,147 203 199 -1,147 199 149 -1,169 204 205 -1,169 205 171 -1,171 205 206 -1,171 206 173 -1,173 206 207 -1,173 207 175 -1,175 207 200 -1,175 200 176 -1,161 208 209 -1,161 209 163 -1,163 209 210 -1,163 210 165 -1,165 210 211 -1,165 211 167 -1,167 211 204 -1,167 204 169 -1,155 196 212 -1,155 212 157 -1,157 212 213 -1,157 213 159 -1,159 213 208 -1,159 208 161 -1,
        ]
    }
}
Shape{
    appearance Appearance {
        material  Material {
            diffuseColor 0.25098039215686274 0.25098039215686274 0.25098039215686274
            specularColor 0.12549019607843137 0.12549019607843137 0.12549019607843137
            ambientIntensity 0.2
            transparency 0
            shininess 0.5
        }
    }
    geometry IndexedFaceSet {
        ccw TRUE
        solid FALSE
        coord DEF co Coordinate {
            point [
                1.1193 -0.8569 0.5984, 1.1193 -0.9186 0.5984, 1.1314 -0.8569 0.5984, 1.1309 -0.9186 0.5984, 1.1539 -0.9111 0.5984, 1.1547 -0.9103 0.5984, 1.1582 -0.9062 0.5984, 1.1421 -0.9173 0.5984, 1.1487 -0.9147 0.5984, 1.1611 -0.9004 0.5984, 1.1629 -0.8933 0.5984, 1.1633 -0.8870 0.5984, 1.1487 -0.8606 0.5984, 1.1417 -0.8580 0.5984, 1.1545 -0.8644 0.5984, 1.1567 -0.8666 0.5984, 1.1621 -0.8769 0.5984, 1.1598 -0.8711 0.5984, 1.1598 -0.8711 0.5984
            ]
        }
        coordIndex [
            0 1 2 -1,2 1 3 -1,4 5 2 -1,2 5 6 -1,3 7 2 -1,2 7 8 -1,2 8 4 -1,6 9 2 -1,2 9 10 -1,2 10 11 -1,12 13 14 -1,14 13 2 -1,14 2 15 -1,11 16 2 -1,2 16 17 -1,2 17 15 -1,
        ]
    }
}
Shape{
    appearance Appearance {
        material  Material {
            diffuseColor 1.0 1.0 1.0
            specularColor 0.5019607843137255 0.5019607843137255 0.5019607843137255
            ambientIntensity 0.2
            transparency 0
            shininess 0.5
        }
    }
    geometry IndexedFaceSet {
        ccw TRUE
        solid FALSE
        coord DEF co Coordinate {
            point [
                1.2010 -0.8968 0.6024, 1.1977 -0.9059 0.6024, 1.2279 -0.8968 0.6024, 1.2311 -0.9059 0.6024, 1.2130 -0.8635 0.6024, 1.2091 -0.8477 0.6024, 1.1786 -0.9278 0.6024, 1.1900 -0.9278 0.6024, 1.2137 -0.8612 0.6024, 1.2143 -0.8579 0.6024, 1.2202 -0.8477 0.6024, 1.2145 -0.8579 0.6024, 1.2152 -0.8613 0.6024, 1.2158 -0.8635 0.6024, 1.2507 -0.9278 0.6024, 1.2392 -0.9278 0.6024, 1.2202 -0.8477 0.5984, 1.2507 -0.9278 0.5984, 1.2091 -0.8477 0.5984, 1.1786 -0.9278 0.5984, 1.2017 -0.8672 0.5984, 1.1900 -0.9278 0.5984, 1.1977 -0.9059 0.5984, 1.2311 -0.9059 0.5984, 1.2017 -0.9059 0.5984, 1.2392 -0.9278 0.5984, 1.2010 -0.8968 0.5984, 1.2279 -0.8968 0.5984, 1.2158 -0.8635 0.5984, 1.2145 -0.8579 0.5984, 1.2152 -0.8613 0.5984, 1.2143 -0.8579 0.5984, 1.2130 -0.8635 0.5984, 1.2137 -0.8612 0.5984, 1.2137 -0.8612 0.5984
            ]
        }
        coordIndex [
            0 1 2 -1,2 1 3 -1,4 5 0 -1,0 5 6 -1,0 6 1 -1,1 6 7 -1,4 8 5 -1,5 8 9 -1,5 9 10 -1,10 9 11 -1,10 11 12 -1,12 13 10 -1,10 13 2 -1,10 2 14 -1,14 2 3 -1,14 3 15 -1,10 14 16 -1,16 14 17 -1,5 10 18 -1,18 10 16 -1,19 6 20 -1,20 6 5 -1,20 5 18 -1,7 6 21 -1,21 6 19 -1,1 7 22 -1,22 7 21 -1,23 3 24 -1,24 3 1 -1,24 1 22 -1,15 3 25 -1,25 3 23 -1,14 15 17 -1,17 15 25 -1,0 2 26 -1,26 2 27 -1,2 13 27 -1,27 13 28 -1,11 29 30 -1,11 30 12 -1,12 30 28 -1,12 28 13 -1,11 9 29 -1,29 9 31 -1,4 32 33 -1,4 33 8 -1,8 33 31 -1,8 31 9 -1,4 0 32 -1,32 0 26 -1,
        ]
    }
}
Shape{
    appearance Appearance {
        material  Material {
            diffuseColor 0.25098039215686274 0.25098039215686274 0.25098039215686274
            specularColor 0.12549019607843137 0.12549019607843137 0.12549019607843137
            ambientIntensity 0.2
            transparency 0
            shininess 0.5
        }
    }
    geometry IndexedFaceSet {
        ccw TRUE
        solid FALSE
        coord DEF co Coordinate {
            point [
                1.2145 -0.8579 0.5984, 1.2143 -0.8579 0.5984, 1.2152 -0.8613 0.5984, 1.2137 -0.8612 0.5984, 1.2158 -0.8635 0.5984, 1.2130 -0.8635 0.5984, 1.2279 -0.8968 0.5984, 1.2010 -0.8968 0.5984, 1.2010 -0.8968 0.5984
            ]
        }
        coordIndex [
            0 1 2 -1,2 1 3 -1,2 3 4 -1,4 3 5 -1,4 5 6 -1,6 5 7 -1,
        ]
    }
}
Shape{
    appearance Appearance {
        material  Material {
            diffuseColor 1.0 1.0 1.0
            specularColor 0.5019607843137255 0.5019607843137255 0.5019607843137255
            ambientIntensity 0.2
            transparency 0
            shininess 0.5
        }
    }
    geometry IndexedFaceSet {
        ccw TRUE
        solid FALSE
        coord DEF co Coordinate {
            point [
                0.9724 -1.0457 0.6024, 0.9724 -1.0548 0.6024, 0.9724 -1.0457 0.5984, 0.9724 -1.0548 0.5984, 0.9396 -1.0457 0.6024, 0.9396 -1.0457 0.5984, 0.9396 -1.0187 0.6024, 0.9396 -1.0187 0.5984, 0.9683 -1.0187 0.6024, 0.9683 -1.0187 0.5984, 0.9683 -1.0096 0.6024, 0.9683 -1.0096 0.5984, 0.9396 -1.0096 0.6024, 0.9396 -1.0096 0.5984, 0.9396 -0.9839 0.6024, 0.9396 -0.9839 0.5984, 0.9706 -0.9839 0.6024, 0.9706 -0.9839 0.5984, 0.9706 -0.9747 0.6024, 0.9706 -0.9747 0.5984, 0.9293 -0.9747 0.6024, 0.9293 -0.9747 0.5984, 0.9293 -1.0548 0.6024, 0.9293 -1.0548 0.5984, 1.0179 -1.0548 0.6024, 1.0279 -1.0548 0.6024, 1.0179 -1.0460 0.6024, 1.0279 -1.0180 0.6024, 1.0179 -1.0184 0.6024, 0.9960 -1.0305 0.6024, 0.9983 -1.0294 0.6024, 1.0045 -1.0279 0.6024, 1.0179 -1.0261 0.6024, 1.0179 -1.0316 0.6024, 1.0143 -0.9971 0.6024, 1.0121 -1.0056 0.6024, 1.0183 -0.9985 0.6024, 1.0138 -1.0068 0.6024, 1.0176 -1.0141 0.6024, 1.0269 -1.0095 0.6024, 1.0165 -1.0105 0.6024, 1.0253 -1.0052 0.6024, 1.0153 -1.0084 0.6024, 1.0232 -1.0021 0.6024, 1.0215 -1.0005 0.6024, 0.9876 -1.0016 0.6024, 0.9876 -1.0114 0.6024, 0.9896 -1.0004 0.6024, 0.9945 -1.0070 0.6024, 0.9970 -0.9975 0.6024, 1.0008 -1.0050 0.6024, 1.0073 -0.9963 0.6024, 1.0063 -1.0044 0.6024, 1.0097 -1.0048 0.6024, 1.0179 -1.0322 0.6024, 1.0172 -1.0367 0.6024, 1.0158 -1.0403 0.6024, 1.0176 -1.0460 0.6024, 1.0136 -1.0433 0.6024, 1.0161 -1.0483 0.6024, 1.0123 -1.0445 0.6024, 1.0129 -1.0517 0.6024, 1.0095 -1.0464 0.6024, 1.0093 -1.0541 0.6024, 1.0065 -1.0475 0.6024, 1.0052 -1.0556 0.6024, 1.0027 -1.0479 0.6024, 1.0001 -1.0561 0.6024, 0.9993 -1.0475 0.6024, 0.9941 -1.0554 0.6024, 0.9971 -1.0467 0.6024, 0.9903 -1.0540 0.6024, 0.9951 -1.0453 0.6024, 0.9869 -1.0516 0.6024, 0.9942 -1.0445 0.6024, 1.0009 -1.0208 0.6024, 0.9926 -1.0230 0.6024, 0.9948 -1.0314 0.6024, 0.9886 -1.0252 0.6024, 0.9936 -1.0329 0.6024, 0.9857 -1.0279 0.6024, 0.9927 -1.0348 0.6024, 0.9836 -1.0312 0.6024, 0.9922 -1.0371 0.6024, 0.9824 -1.0349 0.6024, 0.9921 -1.0387 0.6024, 0.9820 -1.0395 0.6024, 0.9924 -1.0410 0.6024, 0.9825 -1.0443 0.6024, 0.9931 -1.0428 0.6024, 0.9838 -1.0476 0.6024, 0.9859 -1.0507 0.6024, 1.0073 -0.9963 0.5984, 0.9970 -0.9975 0.5984, 0.9896 -1.0004 0.5984, 0.9876 -1.0016 0.5984, 0.9876 -1.0114 0.5984, 0.9945 -1.0070 0.5984, 1.0008 -1.0050 0.5984, 1.0063 -1.0044 0.5984, 1.0097 -1.0048 0.5984, 1.0121 -1.0056 0.5984, 1.0138 -1.0068 0.5984, 1.0153 -1.0084 0.5984, 1.0165 -1.0105 0.5984, 1.0176 -1.0141 0.5984, 1.0179 -1.0184 0.5984, 1.0009 -1.0208 0.5984, 0.9926 -1.0230 0.5984, 0.9886 -1.0252 0.5984, 0.9857 -1.0279 0.5984, 0.9836 -1.0312 0.5984, 0.9824 -1.0349 0.5984, 0.9820 -1.0395 0.5984, 0.9825 -1.0443 0.5984, 0.9838 -1.0476 0.5984, 0.9859 -1.0507 0.5984, 0.9869 -1.0516 0.5984, 1.0001 -1.0561 0.5984, 0.9943 -1.0555 0.5984, 0.9941 -1.0554 0.5984, 0.9903 -1.0540 0.5984, 1.0052 -1.0556 0.5984, 1.0055 -1.0555 0.5984, 1.0093 -1.0541 0.5984, 1.0129 -1.0517 0.5984, 1.0161 -1.0483 0.5984, 1.0176 -1.0460 0.5984, 1.0179 -1.0460 0.5984, 1.0179 -1.0548 0.5984, 1.0279 -1.0548 0.5984, 1.0279 -1.0180 0.5984, 1.0269 -1.0095 0.5984, 1.0253 -1.0052 0.5984, 1.0232 -1.0021 0.5984, 1.0215 -1.0005 0.5984, 1.0183 -0.9985 0.5984, 1.0143 -0.9971 0.5984, 0.9948 -1.0314 0.5984, 0.9960 -1.0305 0.5984, 0.9983 -1.0294 0.5984, 1.0045 -1.0279 0.5984, 0.9921 -1.0387 0.5984, 0.9922 -1.0371 0.5984, 0.9927 -1.0348 0.5984, 0.9936 -1.0329 0.5984, 0.9951 -1.0453 0.5984, 0.9942 -1.0445 0.5984, 0.9931 -1.0428 0.5984, 0.9924 -1.0410 0.5984, 1.0027 -1.0479 0.5984, 0.9993 -1.0475 0.5984, 0.9971 -1.0467 0.5984, 1.0136 -1.0433 0.5984, 1.0123 -1.0445 0.5984, 1.0095 -1.0464 0.5984, 1.0065 -1.0475 0.5984, 1.0179 -1.0316 0.5984, 1.0179 -1.0322 0.5984, 1.0172 -1.0367 0.5984, 1.0158 -1.0403 0.5984, 1.0179 -1.0261 0.5984, 1.0179 -1.0261 0.5984
            ]
        }
        coordIndex [
            0 1 2 -1,2 1 3 -1,4 0 5 -1,5 0 2 -1,6 4 7 -1,7 4 5 -1,8 6 9 -1,9 6 7 -1,10 8 11 -1,11 8 9 -1,12 10 13 -1,13 10 11 -1,14 12 15 -1,15 12 13 -1,16 14 17 -1,17 14 15 -1,18 16 19 -1,19 16 17 -1,20 18 21 -1,21 18 19 -1,22 20 23 -1,23 20 21 -1,1 22 3 -1,3 22 23 -1,22 1 0 -1,0 4 22 -1,22 4 6 -1,22 6 20 -1,16 18 14 -1,14 18 20 -1,14 20 12 -1,12 20 6 -1,12 6 10 -1,10 6 8 -1,24 25 26 -1,26 25 27 -1,28 29 30 -1,31 32 27 -1,27 32 33 -1,34 35 36 -1,36 35 37 -1,30 31 28 -1,28 31 27 -1,28 27 38 -1,38 27 39 -1,38 39 40 -1,40 39 41 -1,40 41 42 -1,42 41 43 -1,42 43 37 -1,37 43 44 -1,37 44 36 -1,45 46 47 -1,47 46 48 -1,47 48 49 -1,49 48 50 -1,49 50 51 -1,51 50 52 -1,51 52 34 -1,34 52 53 -1,34 53 35 -1,33 54 27 -1,27 54 55 -1,27 55 26 -1,26 55 56 -1,26 56 57 -1,57 56 58 -1,57 58 59 -1,59 58 60 -1,59 60 61 -1,61 60 62 -1,61 62 63 -1,63 62 64 -1,63 64 65 -1,65 64 66 -1,65 66 67 -1,67 66 68 -1,67 68 69 -1,69 68 70 -1,69 70 71 -1,71 70 72 -1,71 72 73 -1,73 72 74 -1,28 75 29 -1,29 75 76 -1,29 76 77 -1,77 76 78 -1,77 78 79 -1,79 78 80 -1,79 80 81 -1,81 80 82 -1,81 82 83 -1,83 82 84 -1,83 84 85 -1,85 84 86 -1,85 86 87 -1,87 86 88 -1,87 88 89 -1,89 88 90 -1,89 90 74 -1,74 90 91 -1,74 91 73 -1,51 92 93 -1,51 93 49 -1,49 93 94 -1,49 94 47 -1,47 94 95 -1,47 95 45 -1,46 45 96 -1,96 45 95 -1,46 96 97 -1,46 97 48 -1,48 97 98 -1,48 98 50 -1,50 98 99 -1,50 99 52 -1,52 99 100 -1,52 100 53 -1,53 100 101 -1,53 101 35 -1,35 101 102 -1,35 102 37 -1,37 102 103 -1,37 103 42 -1,42 103 104 -1,42 104 40 -1,40 104 105 -1,40 105 38 -1,38 105 106 -1,38 106 28 -1,75 28 107 -1,107 28 106 -1,75 107 108 -1,75 108 76 -1,76 108 109 -1,76 109 78 -1,78 109 110 -1,78 110 80 -1,80 110 111 -1,80 111 82 -1,82 111 112 -1,82 112 84 -1,84 112 113 -1,84 113 86 -1,86 113 114 -1,86 114 88 -1,88 114 115 -1,88 115 90 -1,90 115 116 -1,90 116 91 -1,91 116 117 -1,91 117 73 -1,118 67 119 -1,119 67 69 -1,119 69 120 -1,120 69 71 -1,120 71 121 -1,121 71 73 -1,121 73 117 -1,67 118 122 -1,67 122 65 -1,65 122 123 -1,65 123 63 -1,123 124 63 -1,63 124 125 -1,63 125 61 -1,61 125 126 -1,61 126 59 -1,59 126 127 -1,59 127 57 -1,26 57 128 -1,128 57 127 -1,24 26 129 -1,129 26 128 -1,25 24 130 -1,130 24 129 -1,27 25 131 -1,131 25 130 -1,27 131 132 -1,27 132 39 -1,39 132 133 -1,39 133 41 -1,41 133 134 -1,41 134 43 -1,43 134 135 -1,43 135 44 -1,44 135 136 -1,44 136 36 -1,36 136 137 -1,36 137 34 -1,34 137 92 -1,34 92 51 -1,77 138 139 -1,77 139 29 -1,29 139 140 -1,29 140 30 -1,30 140 141 -1,30 141 31 -1,85 142 143 -1,85 143 83 -1,83 143 144 -1,83 144 81 -1,81 144 145 -1,81 145 79 -1,79 145 138 -1,79 138 77 -1,72 146 147 -1,72 147 74 -1,74 147 148 -1,74 148 89 -1,89 148 149 -1,89 149 87 -1,87 149 142 -1,87 142 85 -1,66 150 151 -1,66 151 68 -1,68 151 152 -1,68 152 70 -1,70 152 146 -1,70 146 72 -1,58 153 154 -1,58 154 60 -1,60 154 155 -1,60 155 62 -1,62 155 156 -1,62 156 64 -1,64 156 150 -1,64 150 66 -1,33 157 158 -1,33 158 54 -1,54 158 159 -1,54 159 55 -1,55 159 160 -1,55 160 56 -1,56 160 153 -1,56 153 58 -1,33 32 157 -1,157 32 161 -1,32 31 161 -1,161 31 141 -1,
        ]
    }
}
Shape{
    appearance Appearance {
        material  Material {
            diffuseColor 0.25098039215686274 0.25098039215686274 0.25098039215686274
            specularColor 0.12549019607843137 0.12549019607843137 0.12549019607843137
            ambientIntensity 0.2
            transparency 0
            shininess 0.5
        }
    }
    geometry IndexedFaceSet {
        ccw TRUE
        solid FALSE
        coord DEF co Coordinate {
            point [
                1.0179 -1.0322 0.5984, 1.0179 -1.0316 0.5984, 0.9948 -1.0314 0.5984, 1.0179 -1.0261 0.5984, 1.0045 -1.0279 0.5984, 0.9983 -1.0294 0.5984, 0.9960 -1.0305 0.5984, 1.0172 -1.0367 0.5984, 0.9936 -1.0329 0.5984, 1.0158 -1.0403 0.5984, 0.9942 -1.0445 0.5984, 0.9951 -1.0453 0.5984, 1.0123 -1.0445 0.5984, 0.9931 -1.0428 0.5984, 1.0095 -1.0464 0.5984, 1.0065 -1.0475 0.5984, 1.0027 -1.0479 0.5984, 0.9927 -1.0348 0.5984, 0.9922 -1.0371 0.5984, 1.0136 -1.0433 0.5984, 0.9921 -1.0387 0.5984, 0.9924 -1.0410 0.5984, 0.9971 -1.0467 0.5984, 0.9993 -1.0475 0.5984, 0.9993 -1.0475 0.5984
            ]
        }
        coordIndex [
            0 1 2 -1,1 3 4 -1,4 5 1 -1,1 5 6 -1,1 6 2 -1,0 2 7 -1,7 2 8 -1,7 8 9 -1,10 11 12 -1,10 12 13 -1,14 12 15 -1,15 12 16 -1,8 17 9 -1,9 17 18 -1,9 18 19 -1,19 18 20 -1,19 20 12 -1,12 20 21 -1,12 21 13 -1,11 22 12 -1,12 22 23 -1,12 23 16 -1,
        ]
    }
}
Shape{
    appearance Appearance {
        material  Material {
            diffuseColor 1.0 1.0 1.0
            specularColor 0.5019607843137255 0.5019607843137255 0.5019607843137255
            ambientIntensity 0.2
            transparency 0
            shininess 0.5
        }
    }
    geometry IndexedFaceSet {
        ccw TRUE
        solid FALSE
        coord DEF co Coordinate {
            point [
                1.0415 -1.0424 0.5984, 1.0415 -1.0424 0.6024, 1.0451 -1.0447 0.6024, 1.0580 -1.0480 0.6024, 1.0580 -1.0480 0.5984, 1.0514 -1.0471 0.5984, 1.0514 -1.0471 0.6024, 1.0461 -1.0451 0.5984, 1.0451 -1.0447 0.5984, 1.0415 -1.0528 0.6024, 1.0415 -1.0528 0.5984, 1.0486 -1.0553 0.6024, 1.0461 -1.0544 0.5984, 1.0570 -1.0561 0.5984, 1.0570 -1.0561 0.6024, 1.0505 -1.0555 0.5984, 1.0486 -1.0553 0.5984, 1.0661 -1.0551 0.6024, 1.0627 -1.0555 0.5984, 1.0661 -1.0551 0.5984, 1.0714 -1.0530 0.5984, 1.0714 -1.0530 0.6024, 1.0737 -1.0516 0.5984, 1.0737 -1.0516 0.6024, 1.0766 -1.0491 0.5984, 1.0766 -1.0491 0.6024, 1.0784 -1.0464 0.5984, 1.0784 -1.0464 0.6024, 1.0797 -1.0433 0.5984, 1.0797 -1.0433 0.6024, 1.0801 -1.0392 0.5984, 1.0801 -1.0392 0.6024, 1.0797 -1.0355 0.5984, 1.0797 -1.0355 0.6024, 1.0786 -1.0325 0.5984, 1.0786 -1.0325 0.6024, 1.0768 -1.0298 0.5984, 1.0768 -1.0298 0.6024, 1.0744 -1.0276 0.5984, 1.0744 -1.0276 0.6024, 1.0677 -1.0239 0.5984, 1.0677 -1.0239 0.6024, 1.0638 -1.0224 0.5984, 1.0638 -1.0224 0.6024, 1.0576 -1.0197 0.5984, 1.0576 -1.0197 0.6024, 1.0541 -1.0175 0.5984, 1.0541 -1.0175 0.6024, 1.0531 -1.0164 0.5984, 1.0531 -1.0164 0.6024, 1.0524 -1.0150 0.5984, 1.0524 -1.0150 0.6024, 1.0520 -1.0135 0.5984, 1.0520 -1.0135 0.6024, 1.0519 -1.0121 0.5984, 1.0519 -1.0121 0.6024, 1.0521 -1.0105 0.5984, 1.0521 -1.0105 0.6024, 1.0526 -1.0092 0.5984, 1.0526 -1.0092 0.6024, 1.0534 -1.0079 0.5984, 1.0534 -1.0079 0.6024, 1.0550 -1.0066 0.5984, 1.0550 -1.0066 0.6024, 1.0572 -1.0054 0.5984, 1.0572 -1.0054 0.6024, 1.0599 -1.0047 0.5984, 1.0599 -1.0047 0.6024, 1.0629 -1.0044 0.5984, 1.0629 -1.0044 0.6024, 1.0699 -1.0053 0.5984, 1.0699 -1.0053 0.6024, 1.0755 -1.0075 0.5984, 1.0755 -1.0075 0.6024, 1.0774 -1.0086 0.5984, 1.0774 -1.0086 0.6024, 1.0774 -0.9988 0.6024, 1.0774 -0.9988 0.5984, 1.0709 -0.9969 0.5984, 1.0709 -0.9969 0.6024, 1.0638 -0.9963 0.5984, 1.0638 -0.9963 0.6024, 1.0558 -0.9973 0.5984, 1.0558 -0.9973 0.6024, 1.0505 -0.9993 0.5984, 1.0505 -0.9993 0.6024, 1.0480 -1.0008 0.5984, 1.0480 -1.0008 0.6024, 1.0461 -1.0025 0.5984, 1.0450 -1.0035 0.6024, 1.0450 -1.0035 0.5984, 1.0432 -1.0062 0.5984, 1.0432 -1.0062 0.6024, 1.0420 -1.0095 0.5984, 1.0420 -1.0095 0.6024, 1.0416 -1.0130 0.5984, 1.0416 -1.0130 0.6024, 1.0420 -1.0170 0.5984, 1.0420 -1.0170 0.6024, 1.0431 -1.0200 0.5984, 1.0431 -1.0200 0.6024, 1.0444 -1.0221 0.5984, 1.0444 -1.0221 0.6024, 1.0568 -1.0297 0.5984, 1.0568 -1.0297 0.6024, 1.0508 -1.0269 0.6024, 1.0461 -1.0238 0.5984, 1.0461 -1.0238 0.6024, 1.0461 -1.0239 0.5984, 1.0508 -1.0269 0.5984, 1.0633 -1.0324 0.5984, 1.0633 -1.0324 0.6024, 1.0673 -1.0348 0.5984, 1.0673 -1.0348 0.6024, 1.0685 -1.0361 0.5984, 1.0685 -1.0361 0.6024, 1.0693 -1.0374 0.5984, 1.0693 -1.0374 0.6024, 1.0697 -1.0390 0.5984, 1.0697 -1.0390 0.6024, 1.0698 -1.0402 0.5984, 1.0698 -1.0402 0.6024, 1.0696 -1.0421 0.5984, 1.0696 -1.0421 0.6024, 1.0691 -1.0436 0.5984, 1.0691 -1.0436 0.6024, 1.0682 -1.0449 0.5984, 1.0682 -1.0449 0.6024, 1.0671 -1.0459 0.5984, 1.0671 -1.0459 0.6024, 1.0662 -1.0464 0.5984, 1.0662 -1.0464 0.6024, 1.0636 -1.0474 0.5984, 1.0636 -1.0474 0.6024, 1.0585 -1.0480 0.5984, 1.0585 -1.0480 0.6024, 1.1299 -0.9976 0.6024, 1.1402 -0.9976 0.6024, 1.1299 -0.9976 0.5984, 1.1402 -0.9976 0.5984, 1.1142 -1.0407 0.6024, 1.1142 -1.0407 0.5984, 1.1135 -1.0433 0.5984, 1.1135 -1.0433 0.6024, 1.1130 -1.0453 0.5984, 1.1130 -1.0453 0.6024, 1.1127 -1.0453 0.6024, 1.1127 -1.0453 0.5984, 1.1115 -1.0406 0.6024, 1.1115 -1.0406 0.5984, 1.0966 -0.9976 0.5984, 1.0966 -0.9976 0.6024, 1.1014 -1.0115 0.5984, 1.0854 -0.9976 0.6024, 1.0854 -0.9976 0.5984, 1.1078 -1.0547 0.5984, 1.1078 -1.0547 0.6024, 1.1014 -1.0385 0.5984, 1.1034 -1.0651 0.5984, 1.1034 -1.0651 0.6024, 1.1075 -1.0555 0.5984, 1.1014 -1.0687 0.5984, 1.1013 -1.0688 0.6024, 1.1013 -1.0688 0.5984, 1.0995 -1.0708 0.5984, 1.0995 -1.0708 0.6024, 1.0980 -1.0719 0.5984, 1.0980 -1.0719 0.6024, 1.0958 -1.0728 0.5984, 1.0958 -1.0728 0.6024, 1.0934 -1.0731 0.5984, 1.0934 -1.0731 0.6024, 1.0931 -1.0731 0.5984, 1.0931 -1.0731 0.6024, 1.0895 -1.0727 0.5984, 1.0895 -1.0727 0.6024, 1.0874 -1.0720 0.5984, 1.0874 -1.0720 0.6024, 1.0874 -1.0809 0.6024, 1.0874 -1.0809 0.5984, 1.0917 -1.0816 0.5984, 1.0917 -1.0816 0.6024, 1.0939 -1.0817 0.5984, 1.0939 -1.0817 0.6024, 1.0983 -1.0812 0.5984, 1.0983 -1.0812 0.6024, 1.1014 -1.0799 0.5984, 1.1022 -1.0796 0.6024, 1.1022 -1.0796 0.5984, 1.1056 -1.0772 0.5984, 1.1056 -1.0772 0.6024, 1.1097 -1.0724 0.5984, 1.1097 -1.0724 0.6024, 1.1143 -1.0634 0.5984, 1.1143 -1.0634 0.6024, 1.1174 -1.0555 0.5984, 1.1941 -1.0457 0.6024, 1.1941 -1.0548 0.6024, 1.1941 -1.0457 0.5984, 1.1941 -1.0548 0.5984, 1.1614 -1.0457 0.5984, 1.1614 -1.0457 0.6024, 1.1764 -1.0457 0.5984, 1.1614 -1.0187 0.6024, 1.1614 -1.0187 0.5984, 1.1900 -1.0187 0.5984, 1.1900 -1.0187 0.6024, 1.1764 -1.0187 0.5984, 1.1900 -1.0096 0.6024, 1.1900 -1.0096 0.5984, 1.1614 -1.0096 0.5984, 1.1614 -1.0096 0.6024, 1.1764 -1.0096 0.5984, 1.1614 -0.9839 0.6024, 1.1614 -0.9839 0.5984, 1.1923 -0.9839 0.5984, 1.1923 -0.9839 0.6024, 1.1764 -0.9839 0.5984, 1.1923 -0.9747 0.6024, 1.1923 -0.9747 0.5984, 1.1511 -0.9747 0.5984, 1.1511 -0.9747 0.6024, 1.1764 -0.9747 0.5984, 1.1511 -1.0548 0.6024, 1.1511 -1.0548 0.5984, 1.1764 -1.0548 0.5984, 1.2624 -1.0436 0.6024, 1.2541 -1.0381 0.6024, 1.2541 -1.0495 0.6024, 1.2490 -1.0417 0.6024, 1.2450 -1.0531 0.6024, 1.2424 -1.0443 0.6024, 1.2313 -1.0548 0.6024, 1.2312 -1.0457 0.6024, 1.2092 -1.0548 0.6024, 1.2196 -1.0457 0.6024, 1.2092 -0.9747 0.6024, 1.2196 -0.9839 0.6024, 1.2321 -0.9747 0.6024, 1.2317 -0.9839 0.6024, 1.2443 -0.9761 0.6024, 1.2420 -0.9851 0.6024, 1.2540 -0.9796 0.6024, 1.2489 -0.9876 0.6024, 1.2624 -0.9853 0.6024, 1.2548 -0.9915 0.6024, 1.2651 -0.9880 0.6024, 1.2570 -0.9936 0.6024, 1.2701 -0.9950 0.6024, 1.2601 -0.9981 0.6024, 1.2731 -1.0026 0.6024, 1.2624 -1.0039 0.6024, 1.2744 -1.0137 0.6024, 1.2636 -1.0140 0.6024, 1.2742 -1.0188 0.6024, 1.2631 -1.0204 0.6024, 1.2723 -1.0282 0.6024, 1.2614 -1.0274 0.6024, 1.2683 -1.0365 0.6024, 1.2585 -1.0332 0.6024, 1.2550 -1.0373 0.6024, 1.2313 -1.0548 0.5984, 1.2092 -1.0548 0.5984, 1.2450 -1.0531 0.5984, 1.2541 -1.0495 0.5984, 1.2624 -1.0436 0.5984, 1.2683 -1.0365 0.5984, 1.2723 -1.0282 0.5984, 1.2742 -1.0188 0.5984, 1.2744 -1.0137 0.5984, 1.2731 -1.0026 0.5984, 1.2701 -0.9950 0.5984, 1.2651 -0.9880 0.5984, 1.2624 -0.9853 0.5984, 1.2540 -0.9796 0.5984, 1.2443 -0.9761 0.5984, 1.2321 -0.9747 0.5984, 1.2092 -0.9747 0.5984, 1.2317 -0.9839 0.5984, 1.2196 -0.9839 0.5984, 1.2196 -1.0457 0.5984, 1.2312 -1.0457 0.5984, 1.2550 -1.0373 0.5984, 1.2541 -1.0381 0.5984, 1.2490 -1.0417 0.5984, 1.2424 -1.0443 0.5984, 1.2636 -1.0140 0.5984, 1.2631 -1.0204 0.5984, 1.2614 -1.0274 0.5984, 1.2585 -1.0332 0.5984, 1.2548 -0.9915 0.5984, 1.2570 -0.9936 0.5984, 1.2601 -0.9981 0.5984, 1.2624 -1.0039 0.5984, 1.2420 -0.9851 0.5984, 1.2489 -0.9876 0.5984, 1.2489 -0.9876 0.5984
            ]
        }
        coordIndex [
            0 1 2 -1,3 4 5 -1,3 5 6 -1,6 5 7 -1,6 7 2 -1,2 7 8 -1,2 8 0 -1,9 1 10 -1,10 1 0 -1,9 10 11 -1,11 10 12 -1,13 14 15 -1,15 14 11 -1,15 11 16 -1,16 11 12 -1,14 13 17 -1,17 13 18 -1,18 19 17 -1,17 19 20 -1,17 20 21 -1,21 20 22 -1,21 22 23 -1,23 22 24 -1,23 24 25 -1,25 24 26 -1,25 26 27 -1,27 26 28 -1,27 28 29 -1,29 28 30 -1,29 30 31 -1,31 30 32 -1,31 32 33 -1,33 32 34 -1,33 34 35 -1,35 34 36 -1,35 36 37 -1,37 36 38 -1,37 38 39 -1,39 38 40 -1,39 40 41 -1,41 40 42 -1,41 42 43 -1,43 42 44 -1,43 44 45 -1,45 44 46 -1,45 46 47 -1,47 46 48 -1,47 48 49 -1,49 48 50 -1,49 50 51 -1,51 50 52 -1,51 52 53 -1,53 52 54 -1,53 54 55 -1,55 54 56 -1,55 56 57 -1,57 56 58 -1,57 58 59 -1,59 58 60 -1,59 60 61 -1,61 60 62 -1,61 62 63 -1,63 62 64 -1,63 64 65 -1,65 64 66 -1,65 66 67 -1,67 66 68 -1,67 68 69 -1,69 68 70 -1,69 70 71 -1,71 70 72 -1,71 72 73 -1,73 72 74 -1,73 74 75 -1,76 75 77 -1,77 75 74 -1,76 77 78 -1,76 78 79 -1,79 78 80 -1,79 80 81 -1,81 80 82 -1,81 82 83 -1,83 82 84 -1,83 84 85 -1,85 84 86 -1,85 86 87 -1,86 88 87 -1,87 88 89 -1,88 90 89 -1,89 90 91 -1,89 91 92 -1,92 91 93 -1,92 93 94 -1,94 93 95 -1,94 95 96 -1,96 95 97 -1,96 97 98 -1,98 97 99 -1,98 99 100 -1,100 99 101 -1,100 101 102 -1,103 104 105 -1,102 101 106 -1,102 106 107 -1,107 106 108 -1,107 108 105 -1,105 108 109 -1,105 109 103 -1,104 103 110 -1,104 110 111 -1,111 110 112 -1,111 112 113 -1,113 112 114 -1,113 114 115 -1,115 114 116 -1,115 116 117 -1,117 116 118 -1,117 118 119 -1,119 118 120 -1,119 120 121 -1,121 120 122 -1,121 122 123 -1,123 122 124 -1,123 124 125 -1,125 124 126 -1,125 126 127 -1,127 126 128 -1,127 128 129 -1,129 128 130 -1,129 130 131 -1,131 130 132 -1,131 132 133 -1,133 132 134 -1,133 134 135 -1,135 134 4 -1,135 4 3 -1,59 61 87 -1,87 61 85 -1,85 61 63 -1,85 63 83 -1,125 25 27 -1,111 43 104 -1,104 43 45 -1,125 27 123 -1,123 27 29 -1,123 29 121 -1,121 29 31 -1,121 31 119 -1,119 31 33 -1,119 33 117 -1,117 33 35 -1,117 35 115 -1,115 35 37 -1,115 37 113 -1,113 37 39 -1,113 39 111 -1,111 39 41 -1,111 41 43 -1,25 125 23 -1,23 125 127 -1,23 127 21 -1,14 3 11 -1,11 3 6 -1,11 6 9 -1,9 6 2 -1,9 2 1 -1,63 65 83 -1,83 65 67 -1,83 67 81 -1,81 67 69 -1,81 69 79 -1,79 69 71 -1,79 71 76 -1,76 71 73 -1,76 73 75 -1,127 129 21 -1,21 129 131 -1,21 131 17 -1,17 131 133 -1,17 133 14 -1,14 133 135 -1,14 135 3 -1,87 89 59 -1,59 89 92 -1,59 92 57 -1,57 92 94 -1,57 94 55 -1,55 94 96 -1,55 96 53 -1,53 96 98 -1,53 98 51 -1,51 98 100 -1,51 100 49 -1,49 100 102 -1,49 102 47 -1,47 102 107 -1,47 107 45 -1,45 107 105 -1,45 105 104 -1,136 137 138 -1,138 137 139 -1,140 136 141 -1,141 136 138 -1,140 141 142 -1,140 142 143 -1,143 142 144 -1,143 144 145 -1,146 145 147 -1,147 145 144 -1,148 146 149 -1,149 146 147 -1,150 151 152 -1,152 151 148 -1,152 148 149 -1,153 151 154 -1,154 151 150 -1,155 156 157 -1,157 156 153 -1,157 153 154 -1,158 159 160 -1,160 159 156 -1,160 156 155 -1,158 161 159 -1,159 161 162 -1,161 163 162 -1,162 163 164 -1,162 164 165 -1,165 164 166 -1,165 166 167 -1,167 166 168 -1,167 168 169 -1,169 168 170 -1,169 170 171 -1,171 170 172 -1,171 172 173 -1,173 172 174 -1,173 174 175 -1,175 174 176 -1,175 176 177 -1,178 177 179 -1,179 177 176 -1,178 179 180 -1,178 180 181 -1,181 180 182 -1,181 182 183 -1,183 182 184 -1,183 184 185 -1,185 184 186 -1,185 186 187 -1,186 188 187 -1,187 188 189 -1,187 189 190 -1,190 189 191 -1,190 191 192 -1,192 191 193 -1,192 193 194 -1,139 137 195 -1,195 137 194 -1,195 194 193 -1,143 145 194 -1,137 136 194 -1,194 136 140 -1,194 140 143 -1,151 153 148 -1,148 153 156 -1,148 156 146 -1,145 146 194 -1,194 146 156 -1,194 156 192 -1,156 159 192 -1,192 159 162 -1,192 162 190 -1,190 162 165 -1,190 165 187 -1,187 165 167 -1,187 167 185 -1,185 167 169 -1,185 169 183 -1,183 169 171 -1,183 171 181 -1,181 171 173 -1,181 173 178 -1,178 173 175 -1,178 175 177 -1,196 197 198 -1,198 197 199 -1,200 201 202 -1,202 201 196 -1,202 196 198 -1,203 201 204 -1,204 201 200 -1,205 206 207 -1,207 206 203 -1,207 203 204 -1,208 206 209 -1,209 206 205 -1,210 211 212 -1,212 211 208 -1,212 208 209 -1,213 211 214 -1,214 211 210 -1,215 216 217 -1,217 216 213 -1,217 213 214 -1,218 216 219 -1,219 216 215 -1,220 221 222 -1,222 221 218 -1,222 218 219 -1,223 221 224 -1,224 221 220 -1,199 197 225 -1,225 197 223 -1,225 223 224 -1,223 197 196 -1,196 201 223 -1,223 201 203 -1,223 203 221 -1,216 218 213 -1,213 218 221 -1,213 221 211 -1,211 221 203 -1,211 203 208 -1,208 203 206 -1,226 227 228 -1,228 227 229 -1,228 229 230 -1,230 229 231 -1,230 231 232 -1,232 231 233 -1,232 233 234 -1,234 233 235 -1,234 235 236 -1,236 235 237 -1,236 237 238 -1,238 237 239 -1,238 239 240 -1,240 239 241 -1,240 241 242 -1,242 241 243 -1,242 243 244 -1,244 243 245 -1,244 245 246 -1,246 245 247 -1,246 247 248 -1,248 247 249 -1,248 249 250 -1,250 249 251 -1,250 251 252 -1,252 251 253 -1,252 253 254 -1,254 253 255 -1,254 255 256 -1,256 255 257 -1,256 257 258 -1,258 257 259 -1,258 259 226 -1,226 259 260 -1,226 260 227 -1,232 234 261 -1,261 234 262 -1,232 261 263 -1,232 263 230 -1,230 263 264 -1,230 264 228 -1,228 264 265 -1,228 265 226 -1,226 265 266 -1,226 266 258 -1,258 266 267 -1,258 267 256 -1,256 267 268 -1,256 268 254 -1,254 268 269 -1,254 269 252 -1,252 269 270 -1,252 270 250 -1,250 270 271 -1,250 271 248 -1,248 271 272 -1,248 272 246 -1,246 272 273 -1,246 273 244 -1,244 273 274 -1,244 274 242 -1,242 274 275 -1,242 275 240 -1,240 275 276 -1,240 276 238 -1,236 238 277 -1,277 238 276 -1,234 236 262 -1,262 236 277 -1,239 237 278 -1,278 237 279 -1,237 235 279 -1,279 235 280 -1,235 233 280 -1,280 233 281 -1,260 282 283 -1,260 283 227 -1,227 283 284 -1,227 284 229 -1,229 284 285 -1,229 285 231 -1,231 285 281 -1,231 281 233 -1,253 286 287 -1,253 287 255 -1,255 287 288 -1,255 288 257 -1,257 288 289 -1,257 289 259 -1,259 289 282 -1,259 282 260 -1,245 290 291 -1,245 291 247 -1,247 291 292 -1,247 292 249 -1,249 292 293 -1,249 293 251 -1,251 293 286 -1,251 286 253 -1,239 278 294 -1,239 294 241 -1,241 294 295 -1,241 295 243 -1,243 295 290 -1,243 290 245 -1,
        ]
    }
}
Shape{
    appearance Appearance {
        material  Material {
            diffuseColor 0.25098039215686274 0.25098039215686274 0.25098039215686274
            specularColor 0.12549019607843137 0.12549019607843137 0.12549019607843137
            ambientIntensity 0.2
            transparency 0
            shininess 0.5
        }
    }
    geometry IndexedFaceSet {
        ccw TRUE
        solid FALSE
        coord DEF co Coordinate {
            point [
                1.2196 -0.9839 0.5984, 1.2196 -1.0457 0.5984, 1.2317 -0.9839 0.5984, 1.2312 -1.0457 0.5984, 1.2541 -1.0381 0.5984, 1.2550 -1.0373 0.5984, 1.2585 -1.0332 0.5984, 1.2424 -1.0443 0.5984, 1.2490 -1.0417 0.5984, 1.2614 -1.0274 0.5984, 1.2631 -1.0204 0.5984, 1.2636 -1.0140 0.5984, 1.2489 -0.9876 0.5984, 1.2420 -0.9851 0.5984, 1.2548 -0.9915 0.5984, 1.2570 -0.9936 0.5984, 1.2624 -1.0039 0.5984, 1.2601 -0.9981 0.5984, 1.2601 -0.9981 0.5984
            ]
        }
        coordIndex [
            0 1 2 -1,2 1 3 -1,4 5 2 -1,2 5 6 -1,3 7 2 -1,2 7 8 -1,2 8 4 -1,6 9 2 -1,2 9 10 -1,2 10 11 -1,12 13 14 -1,14 13 2 -1,14 2 15 -1,11 16 2 -1,2 16 17 -1,2 17 15 -1,
        ]
    }
}
Shape{
    appearance Appearance {
        material  Material {
            diffuseColor 1.0 1.0 1.0
            specularColor 0.5019607843137255 0.5019607843137255 0.5019607843137255
            ambientIntensity 0.2
            transparency 0
            shininess 0.5
        }
    }
    geometry IndexedFaceSet {
        ccw TRUE
        solid FALSE
        coord DEF co Coordinate {
            point [
                1.3013 -1.0238 0.6024, 1.2980 -1.0329 0.6024, 1.3281 -1.0238 0.6024, 1.3313 -1.0329 0.6024, 1.3132 -0.9906 0.6024, 1.3094 -0.9747 0.6024, 1.2789 -1.0548 0.6024, 1.2903 -1.0548 0.6024, 1.3139 -0.9882 0.6024, 1.3146 -0.9850 0.6024, 1.3204 -0.9747 0.6024, 1.3148 -0.9850 0.6024, 1.3154 -0.9883 0.6024, 1.3160 -0.9906 0.6024, 1.3509 -1.0548 0.6024, 1.3395 -1.0548 0.6024, 1.3204 -0.9747 0.5984, 1.3509 -1.0548 0.5984, 1.3094 -0.9747 0.5984, 1.2789 -1.0548 0.5984, 1.2903 -1.0548 0.5984, 1.2980 -1.0329 0.5984, 1.3313 -1.0329 0.5984, 1.3395 -1.0548 0.5984, 1.3013 -1.0238 0.5984, 1.3281 -1.0238 0.5984, 1.3160 -0.9906 0.5984, 1.3148 -0.9850 0.5984, 1.3154 -0.9883 0.5984, 1.3146 -0.9850 0.5984, 1.3132 -0.9906 0.5984, 1.3139 -0.9882 0.5984, 1.3139 -0.9882 0.5984
            ]
        }
        coordIndex [
            0 1 2 -1,2 1 3 -1,4 5 0 -1,0 5 6 -1,0 6 1 -1,1 6 7 -1,4 8 5 -1,5 8 9 -1,5 9 10 -1,10 9 11 -1,10 11 12 -1,12 13 10 -1,10 13 2 -1,10 2 14 -1,14 2 3 -1,14 3 15 -1,10 14 16 -1,16 14 17 -1,5 10 18 -1,18 10 16 -1,6 5 19 -1,19 5 18 -1,7 6 20 -1,20 6 19 -1,1 7 21 -1,21 7 20 -1,3 1 22 -1,22 1 21 -1,15 3 23 -1,23 3 22 -1,14 15 17 -1,17 15 23 -1,0 2 24 -1,24 2 25 -1,2 13 25 -1,25 13 26 -1,11 27 28 -1,11 28 12 -1,12 28 26 -1,12 26 13 -1,11 9 27 -1,27 9 29 -1,4 30 31 -1,4 31 8 -1,8 31 29 -1,8 29 9 -1,4 0 30 -1,30 0 24 -1,
        ]
    }
}
Shape{
    appearance Appearance {
        material  Material {
            diffuseColor 0.25098039215686274 0.25098039215686274 0.25098039215686274
            specularColor 0.12549019607843137 0.12549019607843137 0.12549019607843137
            ambientIntensity 0.2
            transparency 0
            shininess 0.5
        }
    }
    geometry IndexedFaceSet {
        ccw TRUE
        solid FALSE
        coord DEF co Coordinate {
            point [
                1.3148 -0.9850 0.5984, 1.3146 -0.9850 0.5984, 1.3154 -0.9883 0.5984, 1.3139 -0.9882 0.5984, 1.3160 -0.9906 0.5984, 1.3132 -0.9906 0.5984, 1.3281 -1.0238 0.5984, 1.3013 -1.0238 0.5984, 1.3013 -1.0238 0.5984
            ]
        }
        coordIndex [
            0 1 2 -1,2 1 3 -1,2 3 4 -1,4 3 5 -1,4 5 6 -1,6 5 7 -1,
        ]
    }
}
Shape{
    appearance Appearance {
        material  Material {
            diffuseColor 1.0 1.0 1.0
            specularColor 0.5019607843137255 0.5019607843137255 0.5019607843137255
            ambientIntensity 0.2
            transparency 0
            shininess 0.5
        }
    }
    geometry IndexedFaceSet {
        ccw TRUE
        solid FALSE
        coord DEF co Coordinate {
            point [
                0.5757 -1.0661 0.6024, 0.5841 -1.0766 0.6024, 0.5706 -1.0158 0.6024, 0.8284 -0.9759 0.6024, 0.8271 -0.9870 0.6024, 0.8610 -0.9962 0.6024, 0.6283 -1.0146 0.6024, 0.6335 -1.0165 0.6024, 0.6810 -1.0300 0.6024, 0.6381 -1.0196 0.6024, 0.6418 -1.0237 0.6024, 0.7607 -0.9879 0.6024, 0.7430 -0.9577 0.6024, 0.6668 -0.9976 0.6024, 0.6235 -1.0141 0.6024, 0.6087 -1.0528 0.6024, 0.6132 -1.0559 0.6024, 0.5953 -1.0850 0.6024, 0.6184 -1.0579 0.6024, 0.5582 -1.0082 0.6024, 0.5605 -1.0510 0.6024, 0.5700 -1.0539 0.6024, 0.6443 -1.0284 0.6024, 0.6455 -1.0337 0.6024, 0.6810 -1.0357 0.6024, 0.6456 -1.0388 0.6024, 0.6187 -1.0146 0.6024, 0.6105 -0.9799 0.6024, 0.6136 -1.0164 0.6024, 0.5979 -0.9847 0.6024, 0.6091 -1.0194 0.6024, 0.5863 -0.9928 0.6024, 0.6054 -1.0235 0.6024, 0.5769 -1.0035 0.6024, 0.6027 -1.0284 0.6024, 0.6014 -1.0339 0.6024, 0.7795 -0.9315 0.6024, 0.7840 -0.9315 0.6024, 0.8074 -0.9008 0.6024, 0.7948 -0.9329 0.6024, 0.8104 -0.9018 0.6024, 0.8048 -0.9367 0.6024, 0.8273 -0.9103 0.6024, 0.8427 -0.9234 0.6024, 0.6193 -0.9128 0.6024, 0.6235 -0.9150 0.6024, 0.6058 -0.8735 0.6024, 0.6318 -0.8977 0.6024, 0.6175 -0.8599 0.6024, 0.6444 -0.8823 0.6024, 0.6309 -0.8484 0.6024, 0.6602 -0.8706 0.6024, 0.6447 -0.8399 0.6024, 0.6448 -0.9820 0.6024, 0.6310 -0.9786 0.6024, 0.6241 -0.9782 0.6024, 0.8537 -1.0141 0.6024, 0.8232 -0.9972 0.6024, 0.8427 -1.0295 0.6024, 0.7766 -0.8558 0.6024, 0.7557 -0.8833 0.6024, 0.7952 -0.8772 0.6024, 0.7682 -0.8990 0.6024, 0.7766 -0.9175 0.6024, 0.5480 -0.9977 0.6024, 0.5244 -1.0266 0.6024, 0.5402 -1.0404 0.6024, 0.5381 -0.9497 0.6024, 0.5007 -0.9583 0.6024, 0.5364 -0.9634 0.6024, 0.5005 -0.9646 0.6024, 0.5371 -0.9721 0.6024, 0.5028 -0.9848 0.6024, 0.5411 -0.9861 0.6024, 0.5105 -1.0061 0.6024, 0.5225 -1.0244 0.6024, 0.8136 -0.9429 0.6024, 0.8202 -0.9502 0.6024, 0.8543 -0.9396 0.6024, 0.8255 -0.9601 0.6024, 0.8612 -0.9570 0.6024, 0.8282 -0.9710 0.6024, 0.8637 -0.9754 0.6024, 0.8637 -0.9775 0.6024, 0.8169 -1.0060 0.6024, 0.8161 -1.0069 0.6024, 0.8268 -1.0428 0.6024, 0.8077 -1.0138 0.6024, 0.8094 -1.0512 0.6024, 0.7976 -1.0184 0.6024, 0.7909 -1.0551 0.6024, 0.7874 -1.0203 0.6024, 0.7573 -1.0551 0.6024, 0.7618 -1.0203 0.6024, 0.7543 -1.0546 0.6024, 0.6709 -0.8297 0.6024, 0.6788 -0.8631 0.6024, 0.6992 -0.8262 0.6024, 0.6998 -0.8604 0.6024, 0.7227 -0.8287 0.6024, 0.7185 -0.8626 0.6024, 0.7512 -0.8387 0.6024, 0.7364 -0.8693 0.6024, 0.7525 -0.8803 0.6024, 0.6066 -0.9081 0.6024, 0.5993 -0.8727 0.6024, 0.5933 -0.9065 0.6024, 0.5928 -0.8723 0.6024, 0.5875 -0.9068 0.6024, 0.5724 -0.8746 0.6024, 0.5734 -0.9101 0.6024, 0.5511 -0.8823 0.6024, 0.5607 -0.9168 0.6024, 0.5321 -0.8952 0.6024, 0.5508 -0.9256 0.6024, 0.5273 -0.8997 0.6024, 0.5430 -0.9370 0.6024, 0.5146 -0.9155 0.6024, 0.5051 -0.9358 0.6024, 0.6050 -1.0486 0.6024, 0.6026 -1.0439 0.6024, 0.6014 -1.0387 0.6024, 0.6568 -0.9885 0.6024, 0.6084 -1.0905 0.6024, 0.6218 -1.0926 0.6024, 0.6235 -1.0585 0.6024, 0.6241 -1.0926 0.6024, 0.6284 -1.0580 0.6024, 0.6378 -1.0910 0.6024, 0.6334 -1.0562 0.6024, 0.6505 -1.0861 0.6024, 0.6378 -1.0532 0.6024, 0.6619 -1.0782 0.6024, 0.6416 -1.0492 0.6024, 0.6707 -1.0683 0.6024, 0.6442 -1.0443 0.6024, 0.6774 -1.0556 0.6024, 0.6807 -1.0416 0.6024, 0.7590 -1.0198 0.6024, 0.7452 -1.0490 0.6024, 0.7468 -1.0506 0.6024, 0.7408 -1.0374 0.6024, 0.7413 -1.0416 0.6024, 0.7428 -1.0455 0.6024, 0.7607 -1.0202 0.6024, 0.7505 -1.0532 0.6024, 0.7542 -1.0203 0.6024, 0.7502 -1.0218 0.6024, 0.7409 -1.0357 0.6024, 0.7467 -1.0243 0.6024, 0.7440 -1.0274 0.6024, 0.7419 -1.0313 0.6024, 0.7584 -1.0198 0.6024, 0.8463 -0.9284 0.5984, 0.8543 -0.9396 0.5984, 0.8592 -0.9519 0.5984, 0.8612 -0.9570 0.5984, 0.8637 -0.9754 0.5984, 0.8427 -0.9234 0.5984, 0.8273 -0.9103 0.5984, 0.8104 -0.9018 0.5984, 0.8074 -0.9008 0.5984, 0.7952 -0.8772 0.5984, 0.7766 -0.8558 0.5984, 0.7636 -0.8470 0.5984, 0.7512 -0.8387 0.5984, 0.7227 -0.8287 0.5984, 0.6992 -0.8262 0.5984, 0.6709 -0.8297 0.5984, 0.6447 -0.8399 0.5984, 0.6331 -0.8470 0.5984, 0.6309 -0.8484 0.5984, 0.6175 -0.8599 0.5984, 0.6058 -0.8735 0.5984, 0.5993 -0.8727 0.5984, 0.5928 -0.8723 0.5984, 0.5724 -0.8746 0.5984, 0.5511 -0.8823 0.5984, 0.5321 -0.8952 0.5984, 0.5273 -0.8997 0.5984, 0.5146 -0.9155 0.5984, 0.5086 -0.9284 0.5984, 0.5051 -0.9358 0.5984, 0.5020 -0.9519 0.5984, 0.5007 -0.9583 0.5984, 0.5005 -0.9646 0.5984, 0.5028 -0.9848 0.5984, 0.5105 -1.0061 0.5984, 0.5225 -1.0244 0.5984, 0.5244 -1.0266 0.5984, 0.5402 -1.0404 0.5984, 0.5605 -1.0510 0.5984, 0.5700 -1.0539 0.5984, 0.5707 -1.0555 0.5984, 0.5757 -1.0661 0.5984, 0.5841 -1.0766 0.5984, 0.5953 -1.0850 0.5984, 0.6005 -1.0872 0.5984, 0.6084 -1.0905 0.5984, 0.6218 -1.0926 0.5984, 0.6241 -1.0926 0.5984, 0.6810 -1.0357 0.5984, 0.6378 -1.0910 0.5984, 0.6476 -1.0872 0.5984, 0.6505 -1.0861 0.5984, 0.6619 -1.0782 0.5984, 0.6707 -1.0683 0.5984, 0.6774 -1.0556 0.5984, 0.6774 -1.0555 0.5984, 0.6807 -1.0416 0.5984, 0.6810 -1.0300 0.5984, 0.7607 -0.9879 0.5984, 0.7430 -0.9577 0.5984, 0.6668 -0.9976 0.5984, 0.6568 -0.9885 0.5984, 0.6448 -0.9820 0.5984, 0.6310 -0.9786 0.5984, 0.6241 -0.9782 0.5984, 0.6105 -0.9799 0.5984, 0.5979 -0.9847 0.5984, 0.5863 -0.9928 0.5984, 0.5769 -1.0035 0.5984, 0.5706 -1.0158 0.5984, 0.5582 -1.0082 0.5984, 0.5480 -0.9977 0.5984, 0.5411 -0.9861 0.5984, 0.5371 -0.9721 0.5984, 0.5364 -0.9634 0.5984, 0.5378 -0.9519 0.5984, 0.5381 -0.9497 0.5984, 0.5430 -0.9370 0.5984, 0.5489 -0.9284 0.5984, 0.5508 -0.9256 0.5984, 0.5607 -0.9168 0.5984, 0.5734 -0.9101 0.5984, 0.5875 -0.9068 0.5984, 0.5933 -0.9065 0.5984, 0.6066 -0.9081 0.5984, 0.6193 -0.9128 0.5984, 0.6235 -0.9150 0.5984, 0.6318 -0.8977 0.5984, 0.6444 -0.8823 0.5984, 0.6602 -0.8706 0.5984, 0.6788 -0.8631 0.5984, 0.6998 -0.8604 0.5984, 0.7185 -0.8626 0.5984, 0.7364 -0.8693 0.5984, 0.7525 -0.8803 0.5984, 0.7557 -0.8833 0.5984, 0.7682 -0.8990 0.5984, 0.7766 -0.9175 0.5984, 0.7788 -0.9284 0.5984, 0.7795 -0.9315 0.5984, 0.7840 -0.9315 0.5984, 0.7948 -0.9329 0.5984, 0.8048 -0.9367 0.5984, 0.8136 -0.9429 0.5984, 0.8202 -0.9502 0.5984, 0.8211 -0.9519 0.5984, 0.8255 -0.9601 0.5984, 0.8282 -0.9710 0.5984, 0.8284 -0.9759 0.5984, 0.8271 -0.9870 0.5984, 0.8232 -0.9972 0.5984, 0.8169 -1.0060 0.5984, 0.8161 -1.0069 0.5984, 0.8077 -1.0138 0.5984, 0.7976 -1.0184 0.5984, 0.7874 -1.0203 0.5984, 0.7618 -1.0203 0.5984, 0.7607 -1.0202 0.5984, 0.7590 -1.0198 0.5984, 0.7584 -1.0198 0.5984, 0.7542 -1.0203 0.5984, 0.7502 -1.0218 0.5984, 0.7467 -1.0243 0.5984, 0.7440 -1.0274 0.5984, 0.7419 -1.0313 0.5984, 0.7409 -1.0357 0.5984, 0.7408 -1.0374 0.5984, 0.7413 -1.0416 0.5984, 0.7428 -1.0455 0.5984, 0.7452 -1.0490 0.5984, 0.7468 -1.0506 0.5984, 0.7505 -1.0532 0.5984, 0.7543 -1.0546 0.5984, 0.7573 -1.0551 0.5984, 0.7909 -1.0551 0.5984, 0.8094 -1.0512 0.5984, 0.8268 -1.0428 0.5984, 0.8427 -1.0295 0.5984, 0.8537 -1.0141 0.5984, 0.8610 -0.9962 0.5984, 0.8637 -0.9775 0.5984, 0.6235 -1.0141 0.5984, 0.6283 -1.0146 0.5984, 0.6335 -1.0165 0.5984, 0.6381 -1.0196 0.5984, 0.6418 -1.0237 0.5984, 0.6443 -1.0284 0.5984, 0.6455 -1.0337 0.5984, 0.6456 -1.0388 0.5984, 0.6442 -1.0443 0.5984, 0.6416 -1.0492 0.5984, 0.6378 -1.0532 0.5984, 0.6334 -1.0562 0.5984, 0.6284 -1.0580 0.5984, 0.6235 -1.0585 0.5984, 0.6184 -1.0579 0.5984, 0.6132 -1.0559 0.5984, 0.6087 -1.0528 0.5984, 0.6050 -1.0486 0.5984, 0.6026 -1.0439 0.5984, 0.6014 -1.0387 0.5984, 0.6014 -1.0339 0.5984, 0.6027 -1.0284 0.5984, 0.6054 -1.0235 0.5984, 0.6091 -1.0194 0.5984, 0.6136 -1.0164 0.5984, 0.6187 -1.0146 0.5984, 0.6187 -1.0146 0.5984
            ]
        }
        coordIndex [
            0 1 2 -1,3 4 5 -1,6 7 8 -1,8 7 9 -1,8 9 10 -1,11 12 8 -1,8 12 13 -1,8 13 6 -1,6 13 14 -1,15 1 16 -1,16 1 17 -1,16 17 18 -1,19 20 2 -1,2 20 21 -1,2 21 0 -1,10 22 8 -1,8 22 23 -1,8 23 24 -1,24 23 25 -1,26 27 28 -1,28 27 29 -1,28 29 30 -1,30 29 31 -1,30 31 32 -1,32 31 33 -1,32 33 34 -1,34 33 2 -1,34 2 35 -1,36 37 38 -1,38 37 39 -1,38 39 40 -1,40 39 41 -1,40 41 42 -1,42 41 43 -1,44 45 46 -1,46 45 47 -1,46 47 48 -1,48 47 49 -1,48 49 50 -1,50 49 51 -1,50 51 52 -1,53 54 26 -1,26 54 55 -1,26 55 27 -1,5 4 56 -1,56 4 57 -1,56 57 58 -1,59 60 61 -1,61 60 62 -1,61 62 38 -1,38 62 63 -1,38 63 36 -1,64 65 19 -1,19 65 66 -1,19 66 20 -1,67 68 69 -1,69 68 70 -1,69 70 71 -1,71 70 72 -1,71 72 73 -1,73 72 74 -1,73 74 64 -1,64 74 75 -1,64 75 65 -1,41 76 43 -1,43 76 77 -1,43 77 78 -1,78 77 79 -1,78 79 80 -1,80 79 81 -1,80 81 82 -1,82 81 3 -1,82 3 83 -1,83 3 5 -1,57 84 58 -1,58 84 85 -1,58 85 86 -1,86 85 87 -1,86 87 88 -1,88 87 89 -1,88 89 90 -1,90 89 91 -1,90 91 92 -1,92 91 93 -1,92 93 94 -1,52 51 95 -1,95 51 96 -1,95 96 97 -1,97 96 98 -1,97 98 99 -1,99 98 100 -1,99 100 101 -1,101 100 102 -1,101 102 59 -1,59 102 103 -1,59 103 60 -1,44 46 104 -1,104 46 105 -1,104 105 106 -1,106 105 107 -1,106 107 108 -1,108 107 109 -1,108 109 110 -1,110 109 111 -1,110 111 112 -1,112 111 113 -1,112 113 114 -1,114 113 115 -1,114 115 116 -1,116 115 117 -1,116 117 67 -1,67 117 118 -1,67 118 68 -1,15 119 1 -1,1 119 120 -1,1 120 2 -1,2 120 121 -1,2 121 35 -1,14 13 26 -1,26 13 122 -1,26 122 53 -1,17 123 18 -1,18 123 124 -1,18 124 125 -1,125 124 126 -1,125 126 127 -1,127 126 128 -1,127 128 129 -1,129 128 130 -1,129 130 131 -1,131 130 132 -1,131 132 133 -1,133 132 134 -1,133 134 135 -1,135 134 136 -1,135 136 25 -1,25 136 137 -1,25 137 24 -1,138 139 140 -1,141 142 138 -1,138 142 143 -1,138 143 139 -1,93 144 94 -1,94 144 138 -1,94 138 145 -1,145 138 140 -1,146 147 148 -1,147 149 148 -1,148 149 150 -1,148 150 151 -1,141 138 148 -1,148 138 152 -1,148 152 146 -1,153 43 154 -1,154 43 78 -1,154 78 155 -1,155 78 80 -1,155 80 156 -1,156 80 82 -1,156 82 157 -1,153 158 43 -1,43 158 159 -1,43 159 42 -1,42 159 160 -1,42 160 40 -1,40 160 161 -1,40 161 38 -1,38 161 162 -1,38 162 61 -1,61 162 163 -1,61 163 59 -1,101 59 164 -1,164 59 163 -1,164 165 101 -1,101 165 166 -1,101 166 99 -1,99 166 167 -1,99 167 97 -1,97 167 168 -1,97 168 95 -1,95 168 169 -1,95 169 52 -1,52 169 50 -1,50 169 170 -1,50 170 171 -1,50 171 172 -1,50 172 48 -1,48 172 173 -1,48 173 46 -1,46 173 174 -1,46 174 105 -1,105 174 175 -1,105 175 107 -1,107 175 176 -1,107 176 109 -1,109 176 177 -1,109 177 111 -1,111 177 178 -1,111 178 113 -1,113 178 179 -1,113 179 115 -1,118 117 180 -1,180 117 115 -1,180 115 179 -1,180 181 118 -1,118 181 182 -1,118 182 68 -1,68 182 183 -1,183 184 68 -1,68 184 185 -1,68 185 70 -1,70 185 186 -1,70 186 72 -1,72 186 187 -1,72 187 74 -1,74 187 188 -1,74 188 75 -1,75 188 189 -1,75 189 65 -1,65 189 190 -1,65 190 66 -1,66 190 191 -1,66 191 20 -1,20 191 192 -1,20 192 21 -1,21 192 193 -1,21 193 0 -1,193 194 0 -1,0 194 195 -1,0 195 1 -1,1 195 196 -1,1 196 17 -1,17 196 197 -1,17 197 123 -1,197 198 123 -1,123 198 199 -1,123 199 124 -1,124 199 200 -1,124 200 126 -1,201 24 137 -1,126 200 202 -1,203 130 202 -1,202 130 128 -1,202 128 126 -1,203 204 130 -1,130 204 205 -1,130 205 132 -1,132 205 206 -1,132 206 134 -1,134 206 207 -1,134 207 136 -1,136 207 208 -1,136 208 137 -1,137 208 209 -1,137 209 201 -1,8 24 210 -1,210 24 201 -1,11 8 211 -1,211 8 210 -1,12 11 212 -1,212 11 211 -1,13 12 213 -1,213 12 212 -1,13 213 214 -1,13 214 122 -1,122 214 215 -1,122 215 53 -1,53 215 216 -1,53 216 54 -1,54 216 217 -1,54 217 55 -1,55 217 218 -1,55 218 27 -1,27 218 219 -1,27 219 29 -1,29 219 220 -1,29 220 31 -1,31 220 221 -1,31 221 33 -1,33 221 222 -1,33 222 2 -1,2 222 223 -1,2 223 19 -1,19 223 224 -1,19 224 64 -1,64 224 225 -1,64 225 73 -1,73 225 226 -1,73 226 71 -1,71 226 227 -1,71 227 69 -1,67 69 227 -1,227 228 67 -1,67 228 229 -1,67 229 230 -1,231 114 230 -1,230 114 116 -1,230 116 67 -1,231 232 114 -1,114 232 233 -1,114 233 112 -1,112 233 234 -1,112 234 110 -1,110 234 235 -1,110 235 108 -1,108 235 236 -1,108 236 106 -1,106 236 237 -1,106 237 104 -1,104 237 238 -1,104 238 44 -1,44 238 239 -1,44 239 45 -1,45 239 240 -1,45 240 47 -1,47 240 241 -1,47 241 49 -1,49 241 242 -1,49 242 51 -1,51 242 243 -1,51 243 96 -1,96 243 244 -1,96 244 98 -1,98 244 245 -1,98 245 100 -1,100 245 246 -1,100 246 102 -1,102 246 247 -1,102 247 103 -1,103 247 248 -1,103 248 60 -1,60 248 249 -1,60 249 62 -1,62 249 250 -1,62 250 63 -1,63 250 36 -1,36 250 251 -1,36 251 252 -1,37 36 253 -1,253 36 252 -1,37 253 254 -1,37 254 39 -1,39 254 255 -1,39 255 41 -1,41 255 256 -1,41 256 76 -1,76 256 257 -1,76 257 77 -1,77 257 258 -1,77 258 79 -1,258 259 79 -1,79 259 260 -1,79 260 81 -1,81 260 261 -1,81 261 3 -1,3 261 262 -1,3 262 4 -1,4 262 263 -1,4 263 57 -1,57 263 264 -1,57 264 84 -1,84 264 265 -1,84 265 85 -1,85 265 266 -1,85 266 87 -1,87 266 267 -1,87 267 89 -1,89 267 268 -1,89 268 91 -1,93 91 269 -1,269 91 268 -1,93 269 270 -1,93 270 144 -1,144 270 271 -1,144 271 138 -1,138 271 272 -1,138 272 152 -1,152 272 273 -1,152 273 146 -1,146 273 274 -1,146 274 147 -1,147 274 275 -1,147 275 149 -1,149 275 276 -1,149 276 150 -1,150 276 277 -1,150 277 151 -1,151 277 278 -1,151 278 148 -1,148 278 279 -1,148 279 141 -1,141 279 280 -1,141 280 142 -1,142 280 281 -1,142 281 143 -1,143 281 282 -1,143 282 139 -1,139 282 283 -1,139 283 140 -1,140 283 284 -1,140 284 145 -1,145 284 285 -1,145 285 94 -1,94 285 286 -1,94 286 92 -1,90 92 287 -1,287 92 286 -1,90 287 288 -1,90 288 88 -1,88 288 289 -1,88 289 86 -1,86 289 290 -1,86 290 58 -1,58 290 291 -1,58 291 56 -1,56 291 292 -1,56 292 5 -1,5 292 293 -1,5 293 83 -1,83 293 157 -1,83 157 82 -1,14 294 295 -1,14 295 6 -1,6 295 296 -1,6 296 7 -1,7 296 297 -1,7 297 9 -1,9 297 298 -1,9 298 10 -1,10 298 299 -1,10 299 22 -1,22 299 300 -1,22 300 23 -1,23 300 301 -1,23 301 25 -1,25 301 302 -1,25 302 135 -1,135 302 303 -1,135 303 133 -1,133 303 304 -1,133 304 131 -1,131 304 305 -1,131 305 129 -1,129 305 306 -1,129 306 127 -1,127 306 307 -1,127 307 125 -1,125 307 308 -1,125 308 18 -1,18 308 309 -1,18 309 16 -1,16 309 310 -1,16 310 15 -1,15 310 311 -1,15 311 119 -1,119 311 312 -1,119 312 120 -1,120 312 313 -1,120 313 121 -1,121 313 314 -1,121 314 35 -1,35 314 315 -1,35 315 34 -1,34 315 316 -1,34 316 32 -1,32 316 317 -1,32 317 30 -1,30 317 318 -1,30 318 28 -1,28 318 319 -1,28 319 26 -1,26 319 294 -1,26 294 14 -1,
        ]
    }
}
Shape{
    appearance Appearance {
        material  Material {
            diffuseColor 0.25098039215686274 0.25098039215686274 0.25098039215686274
            specularColor 0.12549019607843137 0.12549019607843137 0.12549019607843137
            ambientIntensity 0.2
            transparency 0
            shininess 0.5
        }
    }
    geometry IndexedFaceSet {
        ccw TRUE
        solid FALSE
        coord DEF co Coordinate {
            point [
                0.6235 -1.0141 0.5984, 0.6235 -1.0585 0.5984, 0.6284 -1.0580 0.5984, 0.6136 -1.0164 0.5984, 0.6014 -1.0339 0.5984, 0.6187 -1.0146 0.5984, 0.6014 -1.0387 0.5984, 0.6455 -1.0337 0.5984, 0.6443 -1.0284 0.5984, 0.6418 -1.0237 0.5984, 0.6381 -1.0196 0.5984, 0.6026 -1.0439 0.5984, 0.6050 -1.0486 0.5984, 0.6087 -1.0528 0.5984, 0.6335 -1.0165 0.5984, 0.6283 -1.0146 0.5984, 0.6091 -1.0194 0.5984, 0.6054 -1.0235 0.5984, 0.6027 -1.0284 0.5984, 0.6132 -1.0559 0.5984, 0.6184 -1.0579 0.5984, 0.6334 -1.0562 0.5984, 0.6378 -1.0532 0.5984, 0.6456 -1.0388 0.5984, 0.6416 -1.0492 0.5984, 0.6442 -1.0443 0.5984, 0.6442 -1.0443 0.5984
            ]
        }
        coordIndex [
            0 1 2 -1,3 4 5 -1,5 4 6 -1,5 6 0 -1,7 8 2 -1,2 8 9 -1,2 9 10 -1,6 11 0 -1,0 11 12 -1,0 12 13 -1,10 14 2 -1,2 14 15 -1,2 15 0 -1,3 16 4 -1,4 16 17 -1,4 17 18 -1,13 19 0 -1,0 19 20 -1,0 20 1 -1,2 21 7 -1,7 21 22 -1,7 22 23 -1,23 22 24 -1,23 24 25 -1,
        ]
    }
}