%TF.GenerationSoftware,KiCad,Pcbnew,10.0.0*%
%TF.CreationDate,2026-06-21T06:51:05+07:00*%
%TF.ProjectId,FindMyCharger,46696e64-4d79-4436-9861-726765722e6b,rev?*%
%TF.SameCoordinates,Original*%
%TF.FileFunction,Paste,Top*%
%TF.FilePolarity,Positive*%
%FSLAX46Y46*%
G04 Gerber Fmt 4.6, Leading zero omitted, Abs format (unit mm)*
G04 Created by KiCad (PCBNEW 10.0.0) date 2026-06-21 06:51:05*
%MOMM*%
%LPD*%
G01*
G04 APERTURE LIST*
G04 Aperture macros list*
%AMRoundRect*
0 Rectangle with rounded corners*
0 $1 Rounding radius*
0 $2 $3 $4 $5 $6 $7 $8 $9 X,Y pos of 4 corners*
0 Add a 4 corners polygon primitive as box body*
4,1,4,$2,$3,$4,$5,$6,$7,$8,$9,$2,$3,0*
0 Add four circle primitives for the rounded corners*
1,1,$1+$1,$2,$3*
1,1,$1+$1,$4,$5*
1,1,$1+$1,$6,$7*
1,1,$1+$1,$8,$9*
0 Add four rect primitives between the rounded corners*
20,1,$1+$1,$2,$3,$4,$5,0*
20,1,$1+$1,$4,$5,$6,$7,0*
20,1,$1+$1,$6,$7,$8,$9,0*
20,1,$1+$1,$8,$9,$2,$3,0*%
G04 Aperture macros list end*
%ADD10C,0.000000*%
%ADD11RoundRect,0.250000X-0.250000X-0.475000X0.250000X-0.475000X0.250000X0.475000X-0.250000X0.475000X0*%
%ADD12RoundRect,0.218750X-0.218750X-0.256250X0.218750X-0.256250X0.218750X0.256250X-0.218750X0.256250X0*%
%ADD13RoundRect,0.135000X0.185000X-0.135000X0.185000X0.135000X-0.185000X0.135000X-0.185000X-0.135000X0*%
%ADD14RoundRect,0.225000X-0.225000X-0.250000X0.225000X-0.250000X0.225000X0.250000X-0.225000X0.250000X0*%
%ADD15RoundRect,0.079500X-0.079500X-0.100500X0.079500X-0.100500X0.079500X0.100500X-0.079500X0.100500X0*%
%ADD16RoundRect,0.140000X-0.140000X-0.170000X0.140000X-0.170000X0.140000X0.170000X-0.140000X0.170000X0*%
%ADD17RoundRect,0.160000X-0.197500X-0.160000X0.197500X-0.160000X0.197500X0.160000X-0.197500X0.160000X0*%
%ADD18RoundRect,0.250000X0.475000X-0.250000X0.475000X0.250000X-0.475000X0.250000X-0.475000X-0.250000X0*%
%ADD19RoundRect,0.140000X-0.170000X0.140000X-0.170000X-0.140000X0.170000X-0.140000X0.170000X0.140000X0*%
%ADD20R,0.400000X0.800000*%
%ADD21R,2.600000X2.000000*%
%ADD22R,0.670000X0.200000*%
%ADD23R,0.670000X0.400000*%
%ADD24RoundRect,0.200000X-0.200000X-0.275000X0.200000X-0.275000X0.200000X0.275000X-0.200000X0.275000X0*%
%ADD25RoundRect,0.250000X-0.262500X-0.450000X0.262500X-0.450000X0.262500X0.450000X-0.262500X0.450000X0*%
%ADD26RoundRect,0.140000X0.170000X-0.140000X0.170000X0.140000X-0.170000X0.140000X-0.170000X-0.140000X0*%
%ADD27RoundRect,0.135000X-0.185000X0.135000X-0.185000X-0.135000X0.185000X-0.135000X0.185000X0.135000X0*%
%ADD28RoundRect,0.135000X-0.135000X-0.185000X0.135000X-0.185000X0.135000X0.185000X-0.135000X0.185000X0*%
%ADD29RoundRect,0.250000X-0.450000X0.262500X-0.450000X-0.262500X0.450000X-0.262500X0.450000X0.262500X0*%
%ADD30R,2.800000X5.000000*%
%ADD31R,4.000000X5.000000*%
%ADD32R,0.880000X0.780000*%
%ADD33R,0.400000X0.700000*%
%ADD34R,2.480000X1.800000*%
%ADD35RoundRect,0.250000X0.450000X-0.262500X0.450000X0.262500X-0.450000X0.262500X-0.450000X-0.262500X0*%
%ADD36R,0.200000X0.670000*%
%ADD37R,0.400000X0.670000*%
%ADD38R,2.400000X3.200000*%
%ADD39RoundRect,0.140000X0.140000X0.170000X-0.140000X0.170000X-0.140000X-0.170000X0.140000X-0.170000X0*%
%ADD40RoundRect,0.250000X-0.370000X-0.370000X0.370000X-0.370000X0.370000X0.370000X-0.370000X0.370000X0*%
%ADD41RoundRect,0.050000X-0.350000X-0.050000X0.350000X-0.050000X0.350000X0.050000X-0.350000X0.050000X0*%
%ADD42RoundRect,0.050000X-0.050000X-0.350000X0.050000X-0.350000X0.050000X0.350000X-0.050000X0.350000X0*%
%ADD43RoundRect,0.250000X0.250000X0.475000X-0.250000X0.475000X-0.250000X-0.475000X0.250000X-0.475000X0*%
%ADD44O,0.200000X0.850000*%
%ADD45O,0.850000X0.200000*%
%ADD46R,1.400000X1.400000*%
%ADD47RoundRect,0.250000X-0.312500X-0.625000X0.312500X-0.625000X0.312500X0.625000X-0.312500X0.625000X0*%
%ADD48RoundRect,0.250000X-0.625000X0.312500X-0.625000X-0.312500X0.625000X-0.312500X0.625000X0.312500X0*%
%ADD49RoundRect,0.225000X-0.250000X0.225000X-0.250000X-0.225000X0.250000X-0.225000X0.250000X0.225000X0*%
%ADD50RoundRect,0.200000X0.200000X0.275000X-0.200000X0.275000X-0.200000X-0.275000X0.200000X-0.275000X0*%
%ADD51R,0.800000X0.400000*%
%ADD52R,2.000000X2.600000*%
%ADD53RoundRect,0.250000X0.625000X-0.312500X0.625000X0.312500X-0.625000X0.312500X-0.625000X-0.312500X0*%
%ADD54R,1.150000X0.600000*%
%ADD55R,1.150000X0.300000*%
%ADD56RoundRect,0.250000X0.312500X0.625000X-0.312500X0.625000X-0.312500X-0.625000X0.312500X-0.625000X0*%
%ADD57R,3.320000X2.150000*%
%ADD58RoundRect,0.200000X0.275000X-0.200000X0.275000X0.200000X-0.275000X0.200000X-0.275000X-0.200000X0*%
%ADD59R,0.200000X0.549999*%
%ADD60R,0.549999X0.200000*%
%ADD61R,0.757199X0.229000*%
%ADD62R,0.229000X0.757199*%
%ADD63R,0.787400X0.787400*%
%ADD64RoundRect,0.250000X0.262500X0.450000X-0.262500X0.450000X-0.262500X-0.450000X0.262500X-0.450000X0*%
%ADD65C,0.278435*%
%ADD66C,0.229098*%
%ADD67R,0.700001X0.249999*%
%ADD68R,0.750001X0.249999*%
%ADD69O,2.050000X0.590000*%
%ADD70RoundRect,0.150000X-0.590000X-0.150000X0.590000X-0.150000X0.590000X0.150000X-0.590000X0.150000X0*%
%ADD71RoundRect,0.135000X0.135000X0.185000X-0.135000X0.185000X-0.135000X-0.185000X0.135000X-0.185000X0*%
%ADD72RoundRect,0.225000X0.250000X-0.225000X0.250000X0.225000X-0.250000X0.225000X-0.250000X-0.225000X0*%
%ADD73RoundRect,0.150000X-0.150000X0.590000X-0.150000X-0.590000X0.150000X-0.590000X0.150000X0.590000X0*%
G04 APERTURE END LIST*
D10*
%TO.C,U1*%
G36*
X108819999Y-89035000D02*
G01*
X108819999Y-90125001D01*
X108769999Y-90175001D01*
X107700001Y-90175001D01*
X107649999Y-90125001D01*
X107649999Y-89035000D01*
X107700001Y-88985000D01*
X108769999Y-88985000D01*
X108819999Y-89035000D01*
G37*
G36*
X108819999Y-90760001D02*
G01*
X108819999Y-92060001D01*
X108769999Y-92110001D01*
X107700001Y-92110001D01*
X107649999Y-92060001D01*
X107649999Y-90760001D01*
X107700001Y-90710001D01*
X108769999Y-90710001D01*
X108819999Y-90760001D01*
G37*
G36*
X108819999Y-87645001D02*
G01*
X108819999Y-88735001D01*
X108769999Y-88785001D01*
X107700001Y-88785001D01*
X107649999Y-88735001D01*
X107649999Y-87645001D01*
X107700001Y-87595001D01*
X108769999Y-87595001D01*
X108819999Y-87645001D01*
G37*
G36*
X110200001Y-89035000D02*
G01*
X110200001Y-90125001D01*
X110149999Y-90175001D01*
X109080001Y-90175001D01*
X109030001Y-90125001D01*
X109030001Y-89035000D01*
X109080001Y-88985000D01*
X110149999Y-88985000D01*
X110200001Y-89035000D01*
G37*
G36*
X110200001Y-87645001D02*
G01*
X110200001Y-88735001D01*
X110149999Y-88785001D01*
X109080001Y-88785001D01*
X109030001Y-88735001D01*
X109030001Y-87645001D01*
X109080001Y-87595001D01*
X110149999Y-87595001D01*
X110200001Y-87645001D01*
G37*
G36*
X110200001Y-90760001D02*
G01*
X110200001Y-92060001D01*
X110149999Y-92110001D01*
X109080001Y-92110001D01*
X109030001Y-92060001D01*
X109030001Y-90760001D01*
X109080001Y-90710001D01*
X110149999Y-90710001D01*
X110200001Y-90760001D01*
G37*
G36*
X111125001Y-88600000D02*
G01*
X111125001Y-88700000D01*
X111075001Y-88750002D01*
X110824999Y-88750000D01*
X110774999Y-88800002D01*
X110774999Y-88899999D01*
X110824999Y-88950002D01*
X111075001Y-88949999D01*
X111125001Y-88999999D01*
X111125001Y-89099999D01*
X111075001Y-89149999D01*
X110625002Y-89149999D01*
X110574999Y-89099999D01*
X110574999Y-88600000D01*
X110624999Y-88550000D01*
X111075001Y-88550000D01*
X111125001Y-88600000D01*
G37*
G36*
X111125001Y-89400001D02*
G01*
X111125001Y-89500001D01*
X111075001Y-89550001D01*
X110824999Y-89550001D01*
X110774999Y-89600000D01*
X110774999Y-89700000D01*
X110824999Y-89750000D01*
X111075001Y-89750000D01*
X111125001Y-89800000D01*
X111125001Y-89900000D01*
X111075001Y-89950000D01*
X110625002Y-89950000D01*
X110574999Y-89900000D01*
X110574999Y-89400001D01*
X110624999Y-89350001D01*
X111075001Y-89350001D01*
X111125001Y-89400001D01*
G37*
G36*
X108825000Y-92550000D02*
G01*
X108825003Y-93000001D01*
X108775003Y-93049999D01*
X108675000Y-93050001D01*
X108625001Y-92999999D01*
X108625001Y-92749999D01*
X108575001Y-92699999D01*
X108425001Y-92699999D01*
X108375001Y-92749999D01*
X108375001Y-93000001D01*
X108325001Y-93049999D01*
X108225001Y-93049999D01*
X108175002Y-92999999D01*
X108175002Y-92749999D01*
X108125002Y-92699999D01*
X107975002Y-92699999D01*
X107925002Y-92749999D01*
X107924999Y-92999999D01*
X107875002Y-93050001D01*
X107775002Y-93049999D01*
X107725000Y-92999999D01*
X107725002Y-92550000D01*
X107775000Y-92500000D01*
X108775000Y-92500000D01*
X108825000Y-92550000D01*
G37*
G36*
X110124998Y-92550000D02*
G01*
X110125000Y-92999999D01*
X110075000Y-93050001D01*
X109974998Y-93050001D01*
X109925001Y-92999999D01*
X109924998Y-92749999D01*
X109874998Y-92699999D01*
X109724998Y-92699999D01*
X109674998Y-92749999D01*
X109674998Y-92999999D01*
X109624999Y-93050001D01*
X109524999Y-93049999D01*
X109474999Y-93000001D01*
X109474999Y-92749999D01*
X109424999Y-92699999D01*
X109274999Y-92699999D01*
X109224999Y-92749999D01*
X109224999Y-92999999D01*
X109175000Y-93049999D01*
X109074995Y-93049999D01*
X109024997Y-92999999D01*
X109024997Y-92550000D01*
X109075000Y-92500000D01*
X110074998Y-92500000D01*
X110124998Y-92550000D01*
G37*
%TO.C,U3*%
G36*
X106075000Y-131675001D02*
G01*
X106075000Y-131825001D01*
X106025001Y-131875000D01*
X104925000Y-131875000D01*
X104875000Y-131825001D01*
X104875000Y-131675001D01*
X104925000Y-131625001D01*
X106025001Y-131625001D01*
X106075000Y-131675001D01*
G37*
G36*
X106075000Y-132175000D02*
G01*
X106075000Y-132325000D01*
X106025001Y-132374999D01*
X104925000Y-132374999D01*
X104875000Y-132325000D01*
X104875000Y-132175000D01*
X104925000Y-132125000D01*
X106025001Y-132125000D01*
X106075000Y-132175000D01*
G37*
G36*
X106075000Y-133175000D02*
G01*
X106075000Y-133325000D01*
X106025001Y-133375000D01*
X104925000Y-133375000D01*
X104875000Y-133325000D01*
X104875000Y-133175000D01*
X104925000Y-133125001D01*
X106025001Y-133125001D01*
X106075000Y-133175000D01*
G37*
G36*
X106075000Y-133674999D02*
G01*
X106075000Y-133824999D01*
X106025001Y-133874999D01*
X104925000Y-133874999D01*
X104875000Y-133824999D01*
X104875000Y-133674999D01*
X104925000Y-133625000D01*
X106025001Y-133625000D01*
X106075000Y-133674999D01*
G37*
G36*
X106075000Y-132674999D02*
G01*
X106075000Y-132825001D01*
X106025001Y-132875001D01*
X104925000Y-132875001D01*
X104875000Y-132825001D01*
X104875000Y-132674999D01*
X104925000Y-132624999D01*
X106025001Y-132624999D01*
X106075000Y-132674999D01*
G37*
G36*
X106450001Y-130625000D02*
G01*
X106450001Y-131350000D01*
X106400001Y-131400000D01*
X106249999Y-131400000D01*
X106199999Y-131350000D01*
X106199999Y-130625000D01*
X106249999Y-130575001D01*
X106400001Y-130575001D01*
X106450001Y-130625000D01*
G37*
G36*
X106450001Y-134150000D02*
G01*
X106450001Y-134875000D01*
X106400001Y-134924999D01*
X106249999Y-134924999D01*
X106199999Y-134875000D01*
X106199999Y-134150000D01*
X106249999Y-134100000D01*
X106400001Y-134100000D01*
X106450001Y-134150000D01*
G37*
G36*
X107475000Y-132175000D02*
G01*
X107475000Y-132325000D01*
X107425000Y-132374999D01*
X106325000Y-132374999D01*
X106275000Y-132325000D01*
X106275000Y-132175000D01*
X106325000Y-132125000D01*
X107425000Y-132125000D01*
X107475000Y-132175000D01*
G37*
G36*
X107475000Y-133175000D02*
G01*
X107475000Y-133325000D01*
X107425000Y-133375000D01*
X106325000Y-133375000D01*
X106275000Y-133325000D01*
X106275000Y-133175000D01*
X106325000Y-133125001D01*
X107425000Y-133125001D01*
X107475000Y-133175000D01*
G37*
G36*
X107475000Y-133674999D02*
G01*
X107475000Y-133824999D01*
X107425000Y-133874999D01*
X106325000Y-133874999D01*
X106275000Y-133824999D01*
X106275000Y-133674999D01*
X106325000Y-133625000D01*
X107425000Y-133625000D01*
X107475000Y-133674999D01*
G37*
G36*
X106450001Y-129600001D02*
G01*
X106450001Y-130325001D01*
X106400001Y-130375001D01*
X106249999Y-130375001D01*
X106199999Y-130325001D01*
X106199999Y-129600001D01*
X106249999Y-129549999D01*
X106400001Y-129549999D01*
X106450001Y-129600001D01*
G37*
G36*
X106450001Y-135174999D02*
G01*
X106450001Y-135899999D01*
X106400001Y-135950001D01*
X106249999Y-135950001D01*
X106199999Y-135899999D01*
X106199999Y-135174999D01*
X106249999Y-135124999D01*
X106400001Y-135124999D01*
X106450001Y-135174999D01*
G37*
G36*
X106950000Y-130625000D02*
G01*
X106950000Y-131350000D01*
X106900000Y-131400000D01*
X106750000Y-131400000D01*
X106700000Y-131350000D01*
X106700000Y-130625000D01*
X106750000Y-130575001D01*
X106900000Y-130575001D01*
X106950000Y-130625000D01*
G37*
G36*
X106950000Y-134150000D02*
G01*
X106950000Y-134875000D01*
X106900000Y-134924999D01*
X106750000Y-134924999D01*
X106700000Y-134875000D01*
X106700000Y-134150000D01*
X106750000Y-134100000D01*
X106900000Y-134100000D01*
X106950000Y-134150000D01*
G37*
G36*
X106950000Y-135174999D02*
G01*
X106950000Y-135899999D01*
X106900000Y-135950001D01*
X106750000Y-135950001D01*
X106700000Y-135899999D01*
X106700000Y-135174999D01*
X106750000Y-135124999D01*
X106900000Y-135124999D01*
X106950000Y-135174999D01*
G37*
G36*
X106950000Y-129600001D02*
G01*
X106950000Y-130325001D01*
X106900000Y-130375001D01*
X106750000Y-130375001D01*
X106700000Y-130325001D01*
X106700000Y-129600001D01*
X106750000Y-129549999D01*
X106900000Y-129549999D01*
X106950000Y-129600001D01*
G37*
G36*
X107449999Y-134150000D02*
G01*
X107449999Y-134875000D01*
X107399999Y-134924999D01*
X107249999Y-134924999D01*
X107199999Y-134875000D01*
X107199999Y-134150000D01*
X107249999Y-134100000D01*
X107399999Y-134100000D01*
X107449999Y-134150000D01*
G37*
G36*
X107449999Y-135174999D02*
G01*
X107449999Y-135899999D01*
X107399999Y-135950001D01*
X107249999Y-135950001D01*
X107199999Y-135899999D01*
X107199999Y-135174999D01*
X107249999Y-135124999D01*
X107399999Y-135124999D01*
X107449999Y-135174999D01*
G37*
G36*
X107449999Y-129600001D02*
G01*
X107449999Y-130325001D01*
X107399999Y-130375001D01*
X107249999Y-130375001D01*
X107199999Y-130325001D01*
X107199999Y-129600001D01*
X107249999Y-129549999D01*
X107399999Y-129549999D01*
X107449999Y-129600001D01*
G37*
G36*
X107449999Y-130625000D02*
G01*
X107449999Y-131350000D01*
X107399999Y-131400000D01*
X107249999Y-131400000D01*
X107199999Y-131350000D01*
X107199999Y-130625000D01*
X107249999Y-130575001D01*
X107399999Y-130575001D01*
X107449999Y-130625000D01*
G37*
G36*
X107475000Y-131675001D02*
G01*
X107475000Y-131825001D01*
X107425000Y-131875000D01*
X106325000Y-131875000D01*
X106275000Y-131825001D01*
X106275000Y-131675001D01*
X106325000Y-131625001D01*
X107425000Y-131625001D01*
X107475000Y-131675001D01*
G37*
G36*
X107475000Y-132674999D02*
G01*
X107475000Y-132825001D01*
X107425000Y-132875001D01*
X106325000Y-132875001D01*
X106275000Y-132825001D01*
X106275000Y-132674999D01*
X106325000Y-132624999D01*
X107425000Y-132624999D01*
X107475000Y-132674999D01*
G37*
G36*
X108875000Y-132674999D02*
G01*
X108875000Y-132825001D01*
X108825000Y-132875001D01*
X107725000Y-132875001D01*
X107675000Y-132825001D01*
X107675000Y-132674999D01*
X107725000Y-132624999D01*
X108825000Y-132624999D01*
X108875000Y-132674999D01*
G37*
G36*
X107950001Y-130625000D02*
G01*
X107950001Y-131350000D01*
X107900001Y-131400000D01*
X107750001Y-131400000D01*
X107700001Y-131350000D01*
X107700001Y-130625000D01*
X107750001Y-130575001D01*
X107900001Y-130575001D01*
X107950001Y-130625000D01*
G37*
G36*
X108875000Y-131675001D02*
G01*
X108875000Y-131825001D01*
X108825000Y-131875000D01*
X107725000Y-131875000D01*
X107675000Y-131825001D01*
X107675000Y-131675001D01*
X107725000Y-131625001D01*
X108825000Y-131625001D01*
X108875000Y-131675001D01*
G37*
G36*
X107950001Y-134150000D02*
G01*
X107950001Y-134875000D01*
X107900001Y-134924999D01*
X107750001Y-134924999D01*
X107700001Y-134875000D01*
X107700001Y-134150000D01*
X107750001Y-134100000D01*
X107900001Y-134100000D01*
X107950001Y-134150000D01*
G37*
G36*
X107950001Y-135174999D02*
G01*
X107950001Y-135899999D01*
X107900001Y-135950001D01*
X107750001Y-135950001D01*
X107700001Y-135899999D01*
X107700001Y-135174999D01*
X107750001Y-135124999D01*
X107900001Y-135124999D01*
X107950001Y-135174999D01*
G37*
G36*
X107950001Y-129600001D02*
G01*
X107950001Y-130325001D01*
X107900001Y-130375001D01*
X107750001Y-130375001D01*
X107700001Y-130325001D01*
X107700001Y-129600001D01*
X107750001Y-129549999D01*
X107900001Y-129549999D01*
X107950001Y-129600001D01*
G37*
G36*
X108450000Y-130625000D02*
G01*
X108450000Y-131350000D01*
X108400000Y-131400000D01*
X108250000Y-131400000D01*
X108200000Y-131350000D01*
X108200000Y-130625000D01*
X108250000Y-130575001D01*
X108400000Y-130575001D01*
X108450000Y-130625000D01*
G37*
G36*
X108450000Y-129600001D02*
G01*
X108450000Y-130325001D01*
X108400000Y-130375001D01*
X108250000Y-130375001D01*
X108200000Y-130325001D01*
X108200000Y-129600001D01*
X108250000Y-129549999D01*
X108400000Y-129549999D01*
X108450000Y-129600001D01*
G37*
G36*
X108450000Y-134150000D02*
G01*
X108450000Y-134875000D01*
X108400000Y-134924999D01*
X108250000Y-134924999D01*
X108200000Y-134875000D01*
X108200000Y-134150000D01*
X108250000Y-134100000D01*
X108400000Y-134100000D01*
X108450000Y-134150000D01*
G37*
G36*
X108450000Y-135174999D02*
G01*
X108450000Y-135899999D01*
X108400000Y-135950001D01*
X108250000Y-135950001D01*
X108200000Y-135899999D01*
X108200000Y-135174999D01*
X108250000Y-135124999D01*
X108400000Y-135124999D01*
X108450000Y-135174999D01*
G37*
G36*
X108950001Y-134150000D02*
G01*
X108950001Y-134875000D01*
X108900001Y-134924999D01*
X108749999Y-134924999D01*
X108699999Y-134875000D01*
X108699999Y-134150000D01*
X108749999Y-134100000D01*
X108900001Y-134100000D01*
X108950001Y-134150000D01*
G37*
G36*
X108950001Y-130625000D02*
G01*
X108950001Y-131350000D01*
X108900001Y-131400000D01*
X108749999Y-131400000D01*
X108699999Y-131350000D01*
X108699999Y-130625000D01*
X108749999Y-130575001D01*
X108900001Y-130575001D01*
X108950001Y-130625000D01*
G37*
G36*
X108875000Y-132175000D02*
G01*
X108875000Y-132325000D01*
X108825000Y-132374999D01*
X107725000Y-132374999D01*
X107675000Y-132325000D01*
X107675000Y-132175000D01*
X107725000Y-132125000D01*
X108825000Y-132125000D01*
X108875000Y-132175000D01*
G37*
G36*
X108875000Y-133175000D02*
G01*
X108875000Y-133325000D01*
X108825000Y-133375000D01*
X107725000Y-133375000D01*
X107675000Y-133325000D01*
X107675000Y-133175000D01*
X107725000Y-133125001D01*
X108825000Y-133125001D01*
X108875000Y-133175000D01*
G37*
G36*
X108875000Y-133674999D02*
G01*
X108875000Y-133824999D01*
X108825000Y-133874999D01*
X107725000Y-133874999D01*
X107675000Y-133824999D01*
X107675000Y-133674999D01*
X107725000Y-133625000D01*
X108825000Y-133625000D01*
X108875000Y-133674999D01*
G37*
G36*
X108950001Y-135174999D02*
G01*
X108950001Y-135899999D01*
X108900001Y-135950001D01*
X108749999Y-135950001D01*
X108699999Y-135899999D01*
X108699999Y-135174999D01*
X108749999Y-135124999D01*
X108900001Y-135124999D01*
X108950001Y-135174999D01*
G37*
G36*
X108950001Y-129600001D02*
G01*
X108950001Y-130325001D01*
X108900001Y-130375001D01*
X108749999Y-130375001D01*
X108699999Y-130325001D01*
X108699999Y-129600001D01*
X108749999Y-129549999D01*
X108900001Y-129549999D01*
X108950001Y-129600001D01*
G37*
G36*
X110275000Y-131675001D02*
G01*
X110275000Y-131825001D01*
X110225000Y-131875000D01*
X109124999Y-131875000D01*
X109075000Y-131825001D01*
X109075000Y-131675001D01*
X109124999Y-131625001D01*
X110225000Y-131625001D01*
X110275000Y-131675001D01*
G37*
G36*
X110275000Y-132175000D02*
G01*
X110275000Y-132325000D01*
X110225000Y-132374999D01*
X109124999Y-132374999D01*
X109075000Y-132325000D01*
X109075000Y-132175000D01*
X109124999Y-132125000D01*
X110225000Y-132125000D01*
X110275000Y-132175000D01*
G37*
G36*
X110275000Y-132674999D02*
G01*
X110275000Y-132825001D01*
X110225000Y-132875001D01*
X109124999Y-132875001D01*
X109075000Y-132825001D01*
X109075000Y-132674999D01*
X109124999Y-132624999D01*
X110225000Y-132624999D01*
X110275000Y-132674999D01*
G37*
G36*
X110275000Y-133175000D02*
G01*
X110275000Y-133325000D01*
X110225000Y-133375000D01*
X109124999Y-133375000D01*
X109075000Y-133325000D01*
X109075000Y-133175000D01*
X109124999Y-133125001D01*
X110225000Y-133125001D01*
X110275000Y-133175000D01*
G37*
G36*
X110275000Y-133674999D02*
G01*
X110275000Y-133824999D01*
X110225000Y-133874999D01*
X109124999Y-133874999D01*
X109075000Y-133824999D01*
X109075000Y-133674999D01*
X109124999Y-133625000D01*
X110225000Y-133625000D01*
X110275000Y-133674999D01*
G37*
G36*
X105950002Y-129600001D02*
G01*
X105949999Y-130325001D01*
X105900000Y-130375001D01*
X104925000Y-130375001D01*
X104875000Y-130325001D01*
X104875000Y-130174999D01*
X104925000Y-130125001D01*
X105650000Y-130124999D01*
X105700008Y-130074999D01*
X105700000Y-129599999D01*
X105750002Y-129550001D01*
X105900000Y-129549999D01*
X105950002Y-129600001D01*
G37*
G36*
X105949999Y-135174999D02*
G01*
X105950002Y-135899999D01*
X105900000Y-135950001D01*
X105750002Y-135949999D01*
X105700000Y-135900001D01*
X105700008Y-135425001D01*
X105650000Y-135375001D01*
X104925000Y-135374999D01*
X104875000Y-135325001D01*
X104875000Y-135174999D01*
X104925000Y-135124999D01*
X105900000Y-135124999D01*
X105949999Y-135174999D01*
G37*
G36*
X109450000Y-129599999D02*
G01*
X109449992Y-130074999D01*
X109500000Y-130125001D01*
X110225000Y-130124999D01*
X110275000Y-130174999D01*
X110275000Y-130325001D01*
X110225000Y-130375001D01*
X109250000Y-130375001D01*
X109200001Y-130325001D01*
X109199998Y-129600001D01*
X109250000Y-129549999D01*
X109400000Y-129549999D01*
X109450000Y-129599999D01*
G37*
G36*
X110275000Y-135174999D02*
G01*
X110275000Y-135325001D01*
X110225000Y-135374999D01*
X109500000Y-135375001D01*
X109449992Y-135425001D01*
X109450000Y-135899999D01*
X109400000Y-135949999D01*
X109250000Y-135950001D01*
X109199998Y-135899999D01*
X109200001Y-135174999D01*
X109250000Y-135124999D01*
X110225000Y-135124999D01*
X110275000Y-135174999D01*
G37*
%TD*%
D11*
%TO.C,C9*%
X127600000Y-102250000D03*
X129500000Y-102250000D03*
%TD*%
D12*
%TO.C,D10*%
X91500000Y-115160000D03*
X93075000Y-115160000D03*
%TD*%
D13*
%TO.C,R45*%
X125750000Y-89260000D03*
X125750000Y-88240000D03*
%TD*%
D14*
%TO.C,C25*%
X113500000Y-110000000D03*
X115050000Y-110000000D03*
%TD*%
D15*
%TO.C,L6*%
X160585000Y-122750000D03*
X161275000Y-122750000D03*
%TD*%
D16*
%TO.C,C73*%
X134020000Y-136500000D03*
X134980000Y-136500000D03*
%TD*%
D17*
%TO.C,R54*%
X130805000Y-113000000D03*
X132000000Y-113000000D03*
%TD*%
D18*
%TO.C,C80*%
X125250000Y-107700000D03*
X125250000Y-105800000D03*
%TD*%
D19*
%TO.C,C27*%
X98000000Y-93020000D03*
X98000000Y-93980000D03*
%TD*%
D20*
%TO.C,Q2*%
X90580000Y-101060000D03*
X91230000Y-101060000D03*
D21*
X91540000Y-102140000D03*
D20*
X91880000Y-101060000D03*
X92530000Y-101060000D03*
X92500000Y-104000000D03*
X90550000Y-104000000D03*
X91200000Y-104000000D03*
X91850000Y-104000000D03*
%TD*%
D22*
%TO.C,D2*%
X98640000Y-97000000D03*
X98640000Y-97500000D03*
D23*
X98640000Y-98000000D03*
D22*
X98640000Y-98500000D03*
X98640000Y-99000000D03*
X99500000Y-99000000D03*
X99500000Y-98500000D03*
D23*
X99500000Y-98000000D03*
D22*
X99500000Y-97500000D03*
X99500000Y-97000000D03*
%TD*%
D15*
%TO.C,C77*%
X160585000Y-115750000D03*
X161275000Y-115750000D03*
%TD*%
D24*
%TO.C,R46*%
X126350000Y-130250000D03*
X128000000Y-130250000D03*
%TD*%
D25*
%TO.C,R39*%
X128500000Y-124800000D03*
X130325000Y-124800000D03*
%TD*%
D24*
%TO.C,R3*%
X99600000Y-106000000D03*
X101250000Y-106000000D03*
%TD*%
D25*
%TO.C,R25*%
X131675000Y-99000000D03*
X133500000Y-99000000D03*
%TD*%
D26*
%TO.C,C28*%
X98000000Y-95960000D03*
X98000000Y-95000000D03*
%TD*%
D16*
%TO.C,C36*%
X131040000Y-109500000D03*
X132000000Y-109500000D03*
%TD*%
D12*
%TO.C,FB1*%
X156212500Y-109500000D03*
X157787500Y-109500000D03*
%TD*%
D26*
%TO.C,C39*%
X118750000Y-113047500D03*
X118750000Y-112087500D03*
%TD*%
D27*
%TO.C,R47*%
X122250000Y-88230000D03*
X122250000Y-89250000D03*
%TD*%
D28*
%TO.C,R29*%
X134740000Y-94750000D03*
X135760000Y-94750000D03*
%TD*%
%TO.C,R43*%
X113980000Y-127750000D03*
X115000000Y-127750000D03*
%TD*%
%TO.C,R64*%
X133750000Y-112750000D03*
X134770000Y-112750000D03*
%TD*%
D29*
%TO.C,R15*%
X97500000Y-86675000D03*
X97500000Y-88500000D03*
%TD*%
D18*
%TO.C,C20*%
X106770000Y-96500000D03*
X106770000Y-94600000D03*
%TD*%
D26*
%TO.C,C87*%
X113500000Y-138980000D03*
X113500000Y-138020000D03*
%TD*%
D11*
%TO.C,C59*%
X149300000Y-108760000D03*
X151200000Y-108760000D03*
%TD*%
D30*
%TO.C,C68*%
X97300000Y-123000000D03*
D31*
X92200000Y-123000000D03*
%TD*%
D28*
%TO.C,R55*%
X134175000Y-115750000D03*
X135195000Y-115750000D03*
%TD*%
D11*
%TO.C,C10*%
X127600000Y-104250000D03*
X129500000Y-104250000D03*
%TD*%
D32*
%TO.C,X1*%
X153000000Y-113000000D03*
X154280000Y-113000000D03*
X154280000Y-112020000D03*
X153000000Y-112020000D03*
%TD*%
D28*
%TO.C,R35*%
X143230000Y-129960000D03*
X144250000Y-129960000D03*
%TD*%
D25*
%TO.C,R19*%
X109925000Y-109000000D03*
X111750000Y-109000000D03*
%TD*%
D16*
%TO.C,C30*%
X104790000Y-88750000D03*
X105750000Y-88750000D03*
%TD*%
%TO.C,C51*%
X133115000Y-127940000D03*
X134075000Y-127940000D03*
%TD*%
D33*
%TO.C,Q3*%
X107550000Y-110800000D03*
X108200000Y-110800000D03*
D34*
X108530000Y-112010000D03*
D33*
X108850000Y-110800000D03*
X109500000Y-110800000D03*
X109510000Y-113780000D03*
X107560000Y-113780000D03*
X108210000Y-113780000D03*
X108860000Y-113780000D03*
%TD*%
D35*
%TO.C,R18*%
X115250000Y-97250000D03*
X115250000Y-95425000D03*
%TD*%
D16*
%TO.C,C48*%
X133115000Y-122030000D03*
X134075000Y-122030000D03*
%TD*%
D28*
%TO.C,R5*%
X99480000Y-101500000D03*
X100500000Y-101500000D03*
%TD*%
%TO.C,R48*%
X135490000Y-133500000D03*
X136510000Y-133500000D03*
%TD*%
D35*
%TO.C,R16*%
X113050000Y-97087500D03*
X113050000Y-95262500D03*
%TD*%
D28*
%TO.C,R17*%
X124750000Y-110000000D03*
X125770000Y-110000000D03*
%TD*%
D13*
%TO.C,R41*%
X129250000Y-89270000D03*
X129250000Y-88250000D03*
%TD*%
D16*
%TO.C,C23*%
X107040000Y-109250000D03*
X108000000Y-109250000D03*
%TD*%
D24*
%TO.C,R22*%
X130850000Y-110750000D03*
X132500000Y-110750000D03*
%TD*%
D15*
%TO.C,C85*%
X160585000Y-117500000D03*
X161275000Y-117500000D03*
%TD*%
D26*
%TO.C,C41*%
X117750000Y-112000000D03*
X117750000Y-111040000D03*
%TD*%
D25*
%TO.C,R26*%
X111955000Y-111840000D03*
X113780000Y-111840000D03*
%TD*%
D36*
%TO.C,D4*%
X109500000Y-126000000D03*
X110000000Y-126000000D03*
D37*
X110500000Y-126000000D03*
D36*
X111000000Y-126000000D03*
X111500000Y-126000000D03*
X111500000Y-125140000D03*
X111000000Y-125140000D03*
D37*
X110500000Y-125140000D03*
D36*
X110000000Y-125140000D03*
X109500000Y-125140000D03*
%TD*%
D16*
%TO.C,C1*%
X111750000Y-87250000D03*
X112710000Y-87250000D03*
%TD*%
D38*
%TO.C,L3*%
X144250000Y-117750000D03*
X150250000Y-117750000D03*
%TD*%
D39*
%TO.C,C56*%
X120980000Y-89250000D03*
X120020000Y-89250000D03*
%TD*%
D18*
%TO.C,C12*%
X100500000Y-92330000D03*
X100500000Y-90430000D03*
%TD*%
%TO.C,C21*%
X108770000Y-96500000D03*
X108770000Y-94600000D03*
%TD*%
D40*
%TO.C,U4*%
X154440000Y-116440000D03*
X154440000Y-117970000D03*
X154440000Y-119500000D03*
X155970000Y-116440000D03*
X155970000Y-117970000D03*
X155970000Y-119500000D03*
X157500000Y-116440000D03*
X157500000Y-117970000D03*
X157500000Y-119500000D03*
D41*
X153020000Y-115770000D03*
X153020000Y-116170000D03*
X153020000Y-116570000D03*
X153020000Y-116970000D03*
X153020000Y-117370000D03*
X153020000Y-117770000D03*
X153020000Y-118170000D03*
X153020000Y-118570000D03*
X153020000Y-118970000D03*
X153020000Y-119370000D03*
X153020000Y-119770000D03*
X153020000Y-120170000D03*
D42*
X153770000Y-120920000D03*
X154170000Y-120920000D03*
X154570000Y-120920000D03*
X154970000Y-120920000D03*
X155370000Y-120920000D03*
X155770000Y-120920000D03*
X156170000Y-120920000D03*
X156570000Y-120920000D03*
X156970000Y-120920000D03*
X157370000Y-120920000D03*
X157770000Y-120920000D03*
X158170000Y-120920000D03*
D41*
X158920000Y-120170000D03*
X158920000Y-119770000D03*
X158920000Y-119370000D03*
X158920000Y-118970000D03*
X158920000Y-118570000D03*
X158920000Y-118170000D03*
X158920000Y-117770000D03*
X158920000Y-117370000D03*
X158920000Y-116970000D03*
X158920000Y-116570000D03*
X158920000Y-116170000D03*
X158920000Y-115770000D03*
D42*
X158170000Y-115020000D03*
X157770000Y-115020000D03*
X157370000Y-115020000D03*
X156970000Y-115020000D03*
X156570000Y-115020000D03*
X156170000Y-115020000D03*
X155770000Y-115020000D03*
X155370000Y-115020000D03*
X154970000Y-115020000D03*
X154570000Y-115020000D03*
X154170000Y-115020000D03*
X153770000Y-115020000D03*
%TD*%
D39*
%TO.C,C64*%
X104850000Y-124750000D03*
X103890000Y-124750000D03*
%TD*%
D43*
%TO.C,C5*%
X132900000Y-103250000D03*
X131000000Y-103250000D03*
%TD*%
D11*
%TO.C,C61*%
X149050000Y-111250000D03*
X150950000Y-111250000D03*
%TD*%
D28*
%TO.C,R44*%
X122805000Y-133010000D03*
X123825000Y-133010000D03*
%TD*%
D16*
%TO.C,C58*%
X113790000Y-93510000D03*
X114750000Y-93510000D03*
%TD*%
D15*
%TO.C,C60*%
X160585000Y-110500000D03*
X161275000Y-110500000D03*
%TD*%
D44*
%TO.C,U5*%
X124840000Y-100240000D03*
X124440000Y-100240000D03*
X124040000Y-100240000D03*
X123640000Y-100240000D03*
X123240000Y-100240000D03*
X122840000Y-100240000D03*
X122440000Y-100240000D03*
X122040000Y-100240000D03*
D45*
X121380000Y-100900000D03*
X121380000Y-101300000D03*
X121380000Y-101700000D03*
X121380000Y-102100000D03*
X121380000Y-102500000D03*
X121380000Y-102900000D03*
X121380000Y-103300000D03*
X121380000Y-103700000D03*
D44*
X122040000Y-104360000D03*
X122440000Y-104360000D03*
X122840000Y-104360000D03*
X123240000Y-104360000D03*
X123640000Y-104360000D03*
X124040000Y-104360000D03*
X124440000Y-104360000D03*
X124840000Y-104360000D03*
D45*
X125500000Y-103700000D03*
X125500000Y-103300000D03*
X125500000Y-102900000D03*
X125500000Y-102500000D03*
X125500000Y-102100000D03*
X125500000Y-101700000D03*
X125500000Y-101300000D03*
X125500000Y-100900000D03*
D46*
X123440000Y-102300000D03*
%TD*%
D28*
%TO.C,R7*%
X121500000Y-93740000D03*
X122520000Y-93740000D03*
%TD*%
D16*
%TO.C,C40*%
X115270000Y-112250000D03*
X116230000Y-112250000D03*
%TD*%
D24*
%TO.C,R56*%
X155600000Y-112500000D03*
X157250000Y-112500000D03*
%TD*%
D14*
%TO.C,C24*%
X114225000Y-99500000D03*
X115775000Y-99500000D03*
%TD*%
D47*
%TO.C,R50*%
X117287500Y-138000000D03*
X120212500Y-138000000D03*
%TD*%
D48*
%TO.C,R1*%
X103750000Y-103037500D03*
X103750000Y-105962500D03*
%TD*%
D47*
%TO.C,R27*%
X135037500Y-91500000D03*
X137962500Y-91500000D03*
%TD*%
D16*
%TO.C,C50*%
X133115000Y-125970000D03*
X134075000Y-125970000D03*
%TD*%
D39*
%TO.C,C57*%
X118000000Y-89250000D03*
X117040000Y-89250000D03*
%TD*%
D49*
%TO.C,C31*%
X105500000Y-107750000D03*
X105500000Y-109300000D03*
%TD*%
D16*
%TO.C,C88*%
X97750000Y-133000000D03*
X98710000Y-133000000D03*
%TD*%
D13*
%TO.C,R49*%
X119000000Y-89260000D03*
X119000000Y-88240000D03*
%TD*%
D16*
%TO.C,C22*%
X107060000Y-108250000D03*
X108020000Y-108250000D03*
%TD*%
D28*
%TO.C,R42*%
X113980000Y-125760000D03*
X115000000Y-125760000D03*
%TD*%
D16*
%TO.C,C49*%
X133115000Y-124000000D03*
X134075000Y-124000000D03*
%TD*%
D26*
%TO.C,C11*%
X102000000Y-92580000D03*
X102000000Y-91620000D03*
%TD*%
D11*
%TO.C,C8*%
X127600000Y-100250000D03*
X129500000Y-100250000D03*
%TD*%
D20*
%TO.C,Q8*%
X128580000Y-94250000D03*
X129230000Y-94250000D03*
D21*
X129540000Y-95330000D03*
D20*
X129880000Y-94250000D03*
X130530000Y-94250000D03*
X130500000Y-97190000D03*
X128550000Y-97190000D03*
X129200000Y-97190000D03*
X129850000Y-97190000D03*
%TD*%
D16*
%TO.C,C33*%
X104790000Y-87750000D03*
X105750000Y-87750000D03*
%TD*%
%TO.C,C46*%
X153000000Y-126000000D03*
X153960000Y-126000000D03*
%TD*%
D17*
%TO.C,R63*%
X131000000Y-115740000D03*
X132195000Y-115740000D03*
%TD*%
D16*
%TO.C,C84*%
X131500000Y-136250000D03*
X132460000Y-136250000D03*
%TD*%
D50*
%TO.C,R14*%
X100825000Y-88830000D03*
X99175000Y-88830000D03*
%TD*%
D22*
%TO.C,D5*%
X100750000Y-133250000D03*
X100750000Y-133750000D03*
D23*
X100750000Y-134250000D03*
D22*
X100750000Y-134750000D03*
X100750000Y-135250000D03*
X101610000Y-135250000D03*
X101610000Y-134750000D03*
D23*
X101610000Y-134250000D03*
D22*
X101610000Y-133750000D03*
X101610000Y-133250000D03*
%TD*%
D13*
%TO.C,R51*%
X115250000Y-92510000D03*
X115250000Y-91490000D03*
%TD*%
D12*
%TO.C,D7*%
X91500000Y-110160000D03*
X93075000Y-110160000D03*
%TD*%
D51*
%TO.C,Q4*%
X97720000Y-100290000D03*
X97720000Y-100940000D03*
D52*
X96640000Y-101250000D03*
D51*
X97720000Y-101590000D03*
X97720000Y-102240000D03*
X94780000Y-102210000D03*
X94780000Y-100260000D03*
X94780000Y-100910000D03*
X94780000Y-101560000D03*
%TD*%
D26*
%TO.C,C35*%
X126750000Y-112230000D03*
X126750000Y-111270000D03*
%TD*%
D20*
%TO.C,Q5*%
X103730000Y-110810000D03*
X104380000Y-110810000D03*
D21*
X104690000Y-111890000D03*
D20*
X105030000Y-110810000D03*
X105680000Y-110810000D03*
X105650000Y-113750000D03*
X103700000Y-113750000D03*
X104350000Y-113750000D03*
X105000000Y-113750000D03*
%TD*%
D24*
%TO.C,R4*%
X99600000Y-104500000D03*
X101250000Y-104500000D03*
%TD*%
D14*
%TO.C,C43*%
X157025000Y-123500000D03*
X158575000Y-123500000D03*
%TD*%
%TO.C,C63*%
X128475000Y-134000000D03*
X130025000Y-134000000D03*
%TD*%
D15*
%TO.C,C76*%
X160585000Y-114000000D03*
X161275000Y-114000000D03*
%TD*%
D11*
%TO.C,C7*%
X127600000Y-106250000D03*
X129500000Y-106250000D03*
%TD*%
D18*
%TO.C,C16*%
X104770000Y-99950000D03*
X104770000Y-98050000D03*
%TD*%
D11*
%TO.C,C66*%
X100600000Y-124250000D03*
X102500000Y-124250000D03*
%TD*%
D28*
%TO.C,R21*%
X109480000Y-107250000D03*
X110500000Y-107250000D03*
%TD*%
D15*
%TO.C,L5*%
X160585000Y-121000000D03*
X161275000Y-121000000D03*
%TD*%
D25*
%TO.C,R30*%
X124087500Y-97500000D03*
X125912500Y-97500000D03*
%TD*%
D26*
%TO.C,C3*%
X99000000Y-92290000D03*
X99000000Y-91330000D03*
%TD*%
D53*
%TO.C,R2*%
X118750000Y-94212500D03*
X118750000Y-91287500D03*
%TD*%
D54*
%TO.C,J2*%
X96455000Y-128300000D03*
X96455000Y-129100000D03*
D55*
X96455000Y-130250000D03*
X96455000Y-131250000D03*
X96455000Y-131750000D03*
X96455000Y-132750000D03*
D54*
X96455000Y-134700000D03*
X96455000Y-133900000D03*
D55*
X96455000Y-133250000D03*
X96455000Y-132250000D03*
X96455000Y-130750000D03*
X96455000Y-129750000D03*
%TD*%
D56*
%TO.C,R53*%
X115500000Y-89500000D03*
X112575000Y-89500000D03*
%TD*%
D57*
%TO.C,L1*%
X114500000Y-107500000D03*
X114500000Y-101680000D03*
%TD*%
D13*
%TO.C,R52*%
X113250000Y-92510000D03*
X113250000Y-91490000D03*
%TD*%
D28*
%TO.C,R6*%
X121500000Y-91750000D03*
X122520000Y-91750000D03*
%TD*%
D58*
%TO.C,R24*%
X117500000Y-114900000D03*
X117500000Y-113250000D03*
%TD*%
D16*
%TO.C,C29*%
X117290000Y-97250000D03*
X118250000Y-97250000D03*
%TD*%
D51*
%TO.C,Q1*%
X97830000Y-104030000D03*
X97830000Y-104680000D03*
D52*
X96750000Y-104990000D03*
D51*
X97830000Y-105330000D03*
X97830000Y-105980000D03*
X94890000Y-105950000D03*
X94890000Y-104000000D03*
X94890000Y-104650000D03*
X94890000Y-105300000D03*
%TD*%
D25*
%TO.C,R38*%
X128500000Y-121850000D03*
X130325000Y-121850000D03*
%TD*%
D18*
%TO.C,C19*%
X104770000Y-96500000D03*
X104770000Y-94600000D03*
%TD*%
D14*
%TO.C,C55*%
X124700000Y-138000000D03*
X126250000Y-138000000D03*
%TD*%
D28*
%TO.C,R28*%
X121500000Y-95250000D03*
X122520000Y-95250000D03*
%TD*%
D59*
%TO.C,U1*%
X109925001Y-86925000D03*
X109524999Y-86925000D03*
X109125000Y-86925000D03*
X108725000Y-86925000D03*
X108325001Y-86925000D03*
X107924999Y-86925000D03*
D60*
X107000000Y-87450000D03*
X107000000Y-87849999D03*
X107000000Y-88250001D03*
X107000000Y-88650000D03*
X107000000Y-89049999D03*
X107000000Y-89450001D03*
X107000000Y-89850000D03*
X107000000Y-90249999D03*
X107000000Y-90650001D03*
X107000000Y-91050000D03*
X107000000Y-91449999D03*
X107000000Y-91850001D03*
X107000000Y-92250000D03*
X110850000Y-92250000D03*
X110850000Y-91850001D03*
X110850000Y-91449999D03*
X110850000Y-91050000D03*
X110850000Y-90650001D03*
X110850000Y-90249999D03*
X110850000Y-88250001D03*
X110850000Y-87849999D03*
X110850000Y-87450000D03*
%TD*%
D28*
%TO.C,R57*%
X109480000Y-139000000D03*
X110500000Y-139000000D03*
%TD*%
D11*
%TO.C,C82*%
X135800000Y-129250000D03*
X137700000Y-129250000D03*
%TD*%
D43*
%TO.C,C6*%
X132900000Y-105250000D03*
X131000000Y-105250000D03*
%TD*%
D54*
%TO.C,J1*%
X96455000Y-91050000D03*
X96455000Y-91850000D03*
D55*
X96455000Y-93000000D03*
X96455000Y-94000000D03*
X96455000Y-94500000D03*
X96455000Y-95500000D03*
D54*
X96455000Y-97450000D03*
X96455000Y-96650000D03*
D55*
X96455000Y-96000000D03*
X96455000Y-95000000D03*
X96455000Y-93500000D03*
X96455000Y-92500000D03*
%TD*%
D16*
%TO.C,C38*%
X139532500Y-130240000D03*
X140492500Y-130240000D03*
%TD*%
D14*
%TO.C,C45*%
X156250000Y-127510000D03*
X157800000Y-127510000D03*
%TD*%
%TO.C,C34*%
X99750000Y-103000000D03*
X101300000Y-103000000D03*
%TD*%
D61*
%TO.C,U2*%
X106158500Y-102550000D03*
X106158500Y-102949999D03*
X106158500Y-103350001D03*
X106158500Y-103750000D03*
X106158500Y-104150000D03*
X106158500Y-104549999D03*
X106158500Y-104950001D03*
X106158500Y-105350000D03*
D62*
X106750000Y-105941500D03*
X107149999Y-105941500D03*
X107550001Y-105941500D03*
X107950000Y-105941500D03*
X108350000Y-105941500D03*
X108749999Y-105941500D03*
X109150001Y-105941500D03*
X109550000Y-105941500D03*
D61*
X110141500Y-105350000D03*
X110141500Y-104950001D03*
X110141500Y-104549999D03*
X110141500Y-104150000D03*
X110141500Y-103750000D03*
X110141500Y-103350001D03*
X110141500Y-102949999D03*
X110141500Y-102550000D03*
D62*
X109550000Y-101958500D03*
X109150001Y-101958500D03*
X108749999Y-101958500D03*
X108350000Y-101958500D03*
X107950000Y-101958500D03*
X107550001Y-101958500D03*
X107149999Y-101958500D03*
X106750000Y-101958500D03*
D63*
X108150000Y-103950000D03*
%TD*%
D18*
%TO.C,C17*%
X106770000Y-100000000D03*
X106770000Y-98100000D03*
%TD*%
D12*
%TO.C,D11*%
X91500000Y-117750000D03*
X93075000Y-117750000D03*
%TD*%
D25*
%TO.C,R31*%
X119750000Y-98500000D03*
X121575000Y-98500000D03*
%TD*%
D28*
%TO.C,R34*%
X132490000Y-96490000D03*
X133510000Y-96490000D03*
%TD*%
D15*
%TO.C,L4*%
X160585000Y-119250000D03*
X161275000Y-119250000D03*
%TD*%
D39*
%TO.C,C53*%
X124500000Y-89250000D03*
X123540000Y-89250000D03*
%TD*%
D28*
%TO.C,R36*%
X121490000Y-96250000D03*
X122510000Y-96250000D03*
%TD*%
D64*
%TO.C,R9*%
X103250000Y-86250000D03*
X101425000Y-86250000D03*
%TD*%
D28*
%TO.C,R58*%
X117000000Y-129750000D03*
X118020000Y-129750000D03*
%TD*%
D15*
%TO.C,C75*%
X160585000Y-112250000D03*
X161275000Y-112250000D03*
%TD*%
D12*
%TO.C,D9*%
X91500000Y-107750000D03*
X93075000Y-107750000D03*
%TD*%
D16*
%TO.C,C83*%
X131750000Y-134280000D03*
X132710000Y-134280000D03*
%TD*%
D49*
%TO.C,C32*%
X104000000Y-107750000D03*
X104000000Y-109300000D03*
%TD*%
D28*
%TO.C,R65*%
X121975000Y-138500000D03*
X122995000Y-138500000D03*
%TD*%
D16*
%TO.C,C69*%
X106040000Y-123000000D03*
X107000000Y-123000000D03*
%TD*%
D13*
%TO.C,R11*%
X103500000Y-88770000D03*
X103500000Y-87750000D03*
%TD*%
D36*
%TO.C,D6*%
X134750000Y-108610000D03*
X135250000Y-108610000D03*
D37*
X135750000Y-108610000D03*
D36*
X136250000Y-108610000D03*
X136750000Y-108610000D03*
X136750000Y-107750000D03*
X136250000Y-107750000D03*
D37*
X135750000Y-107750000D03*
D36*
X135250000Y-107750000D03*
X134750000Y-107750000D03*
%TD*%
D16*
%TO.C,C81*%
X97790000Y-130250000D03*
X98750000Y-130250000D03*
%TD*%
%TO.C,C70*%
X106040000Y-124250000D03*
X107000000Y-124250000D03*
%TD*%
D38*
%TO.C,L2*%
X118750000Y-125750000D03*
X124750000Y-125750000D03*
%TD*%
D28*
%TO.C,R33*%
X132490000Y-95250000D03*
X133510000Y-95250000D03*
%TD*%
%TO.C,R59*%
X114500000Y-129750000D03*
X115520000Y-129750000D03*
%TD*%
D11*
%TO.C,C14*%
X101050000Y-97500000D03*
X102950000Y-97500000D03*
%TD*%
D28*
%TO.C,R32*%
X143230000Y-123990000D03*
X144250000Y-123990000D03*
%TD*%
D25*
%TO.C,R40*%
X128500000Y-127750000D03*
X130325000Y-127750000D03*
%TD*%
D11*
%TO.C,C13*%
X101050000Y-99500000D03*
X102950000Y-99500000D03*
%TD*%
D20*
%TO.C,Q9*%
X124550000Y-91750000D03*
X125200000Y-91750000D03*
D21*
X125510000Y-92830000D03*
D20*
X125850000Y-91750000D03*
X126500000Y-91750000D03*
X126470000Y-94690000D03*
X124520000Y-94690000D03*
X125170000Y-94690000D03*
X125820000Y-94690000D03*
%TD*%
D13*
%TO.C,R23*%
X128250000Y-113500000D03*
X128250000Y-112480000D03*
%TD*%
D39*
%TO.C,C52*%
X128000000Y-89250000D03*
X127040000Y-89250000D03*
%TD*%
D11*
%TO.C,C67*%
X100600000Y-122000000D03*
X102500000Y-122000000D03*
%TD*%
D65*
%TO.C,U3*%
X109354687Y-130220312D03*
D66*
X105751567Y-130220315D03*
D67*
X105225000Y-130749999D03*
D68*
X105250001Y-131250000D03*
X105250001Y-134250000D03*
D67*
X105225000Y-134750001D03*
D66*
X105751567Y-135279685D03*
D65*
X109354687Y-135279685D03*
D67*
X109925000Y-134750001D03*
D68*
X109899999Y-134250000D03*
X109899999Y-131250000D03*
D67*
X109925000Y-130749999D03*
%TD*%
D18*
%TO.C,C18*%
X108770000Y-100000000D03*
X108770000Y-98100000D03*
%TD*%
D39*
%TO.C,C65*%
X104850000Y-123500000D03*
X103890000Y-123500000D03*
%TD*%
D33*
%TO.C,Q6*%
X121020000Y-106510000D03*
X121670000Y-106510000D03*
D34*
X122000000Y-107720000D03*
D33*
X122320000Y-106510000D03*
X122970000Y-106510000D03*
X122980000Y-109490000D03*
X121030000Y-109490000D03*
X121680000Y-109490000D03*
X122330000Y-109490000D03*
%TD*%
D26*
%TO.C,C2*%
X98000000Y-92000000D03*
X98000000Y-91040000D03*
%TD*%
D13*
%TO.C,R62*%
X101750000Y-139000000D03*
X101750000Y-137980000D03*
%TD*%
D11*
%TO.C,C15*%
X101100000Y-95500000D03*
X103000000Y-95500000D03*
%TD*%
%TO.C,C54*%
X149100000Y-114000000D03*
X151000000Y-114000000D03*
%TD*%
D43*
%TO.C,C4*%
X132950000Y-101250000D03*
X131050000Y-101250000D03*
%TD*%
D69*
%TO.C,U6*%
X117820000Y-135160000D03*
X117820000Y-133880000D03*
X117820000Y-132620000D03*
X117820000Y-131350000D03*
X112680000Y-131350000D03*
X112680000Y-132620000D03*
X112680000Y-133880000D03*
X112680000Y-135160000D03*
%TD*%
D14*
%TO.C,C79*%
X128225000Y-138500000D03*
X129775000Y-138500000D03*
%TD*%
D70*
%TO.C,D3*%
X131060000Y-89300000D03*
X131060000Y-91200000D03*
X132940000Y-90250000D03*
%TD*%
D26*
%TO.C,C26*%
X120510000Y-93230000D03*
X120510000Y-92270000D03*
%TD*%
D14*
%TO.C,C44*%
X156250000Y-125000000D03*
X157800000Y-125000000D03*
%TD*%
D71*
%TO.C,R13*%
X100020000Y-87500000D03*
X99000000Y-87500000D03*
%TD*%
D28*
%TO.C,R61*%
X109480000Y-137750000D03*
X110500000Y-137750000D03*
%TD*%
D16*
%TO.C,C62*%
X131540000Y-138500000D03*
X132500000Y-138500000D03*
%TD*%
D14*
%TO.C,C42*%
X113450000Y-113750000D03*
X115000000Y-113750000D03*
%TD*%
D16*
%TO.C,C78*%
X134020000Y-138470000D03*
X134980000Y-138470000D03*
%TD*%
D12*
%TO.C,D8*%
X91500000Y-112750000D03*
X93075000Y-112750000D03*
%TD*%
D14*
%TO.C,C74*%
X128225000Y-136510000D03*
X129775000Y-136510000D03*
%TD*%
D20*
%TO.C,Q7*%
X121790000Y-112000000D03*
X122440000Y-112000000D03*
D21*
X122750000Y-113080000D03*
D20*
X123090000Y-112000000D03*
X123740000Y-112000000D03*
X123710000Y-114940000D03*
X121760000Y-114940000D03*
X122410000Y-114940000D03*
X123060000Y-114940000D03*
%TD*%
D72*
%TO.C,C86*%
X112000000Y-139050000D03*
X112000000Y-137500000D03*
%TD*%
D58*
%TO.C,R10*%
X102250000Y-90080000D03*
X102250000Y-88430000D03*
%TD*%
D28*
%TO.C,R60*%
X121975000Y-136750000D03*
X122995000Y-136750000D03*
%TD*%
D73*
%TO.C,D1*%
X105700000Y-90370000D03*
X103800000Y-90370000D03*
X104750000Y-92250000D03*
%TD*%
D58*
%TO.C,R20*%
X128500000Y-111000000D03*
X128500000Y-109350000D03*
%TD*%
D14*
%TO.C,C47*%
X160560000Y-124460000D03*
X162110000Y-124460000D03*
%TD*%
D16*
%TO.C,C37*%
X139532500Y-128270000D03*
X140492500Y-128270000D03*
%TD*%
D25*
%TO.C,R37*%
X130750000Y-131000000D03*
X132575000Y-131000000D03*
%TD*%
M02*
