M48
; DRILL file KiCad 10.0.0 date 2026-07-11T11:00:39
; FORMAT={-:-/ absolute / inch / decimal}
; #@! TF.CreationDate,2026-07-11T11:00:39+07:00
; #@! TF.GenerationSoftware,Kicad,Pcbnew,10.0.0
; #@! TF.FileFunction,Plated,1,4,PTH
FMAT,2
INCH
; #@! TA.AperFunction,Plated,PTH,ViaDrill
T1C0.0118
; #@! TA.AperFunction,Plated,PTH,ComponentDrill
T2C0.0236
; #@! TA.AperFunction,Plated,PTH,ComponentDrill
T3C0.0472
; #@! TA.AperFunction,Plated,PTH,ComponentDrill
T4C0.0551
%
G90
G05
T1
X2.9616Y-3.7018
X3.0413Y-3.5138
X3.0669Y-3.75
X3.1102Y-3.5748
X3.1693Y-3.6614
X3.1988Y-3.5925
X3.2087Y-3.2549
X3.231Y-3.2797
X3.231Y-3.3114
X3.248Y-3.4843
X3.3012Y-3.2914
X3.3366Y-3.1299
X3.3406Y-3.4342
X3.3676Y-3.4502
X3.4055Y-3.2283
X3.4449Y-3.622
X3.4488Y-3.1107
X3.4744Y-3.4547
X3.4804Y-3.1107
X3.4922Y-3.5748
X3.5159Y-3.6002
X3.5433Y-3.1496
X3.5531Y-3.3465
X3.5817Y-3.1546
X3.5827Y-3.248
X3.6024Y-3.6811
X3.6417Y-3.75
X3.6516Y-3.1299
X3.6713Y-3.3957
X3.7303Y-3.3465
X3.7697Y-3.2185
X3.7707Y-3.7106
X3.8189Y-3.6909
X3.8484Y-3.2185
X3.8484Y-3.4449
X3.8681Y-3.3268
X3.8878Y-3.3661
X3.9665Y-3.5728
X3.9961Y-3.1201
X4.1535Y-3.1398
X4.2667Y-3.7549
X4.2717Y-3.3465
X4.2717Y-3.4449
X4.5768Y-3.2677
T2
X4.7539Y-3.1555
X4.7539Y-3.2972
T3
X3.3756Y-3.616
X3.5756Y-3.616
T4
X3.3378Y-3.516
X3.6134Y-3.516
T2
G00X2.9937Y-3.137
M15
G01X2.9622Y-3.137
M16
G05
G00X2.9937Y-3.4772
M15
G01X2.9622Y-3.4772
M16
G05
G00X3.163Y-3.137
M15
G01X3.1197Y-3.137
M16
G05
G00X3.163Y-3.4772
M15
G01X3.1197Y-3.4772
M16
G05
M30
