%TF.GenerationSoftware,KiCad,Pcbnew,10.0.0*%
%TF.CreationDate,2026-07-11T11:11:01+07:00*%
%TF.ProjectId,FindMyCharger,46696e64-4d79-4436-9861-726765722e6b,rev?*%
%TF.SameCoordinates,Original*%
%TF.FileFunction,Copper,L2,Inr*%
%TF.FilePolarity,Positive*%
%FSLAX46Y46*%
G04 Gerber Fmt 4.6, Leading zero omitted, Abs format (unit mm)*
G04 Created by KiCad (PCBNEW 10.0.0) date 2026-07-11 11:11:01*
%MOMM*%
%LPD*%
G01*
G04 APERTURE LIST*
G04 Aperture macros list*
%AMRoundRect*
0 Rectangle with rounded corners*
0 $1 Rounding radius*
0 $2 $3 $4 $5 $6 $7 $8 $9 X,Y pos of 4 corners*
0 Add a 4 corners polygon primitive as box body*
4,1,4,$2,$3,$4,$5,$6,$7,$8,$9,$2,$3,0*
0 Add four circle primitives for the rounded corners*
1,1,$1+$1,$2,$3*
1,1,$1+$1,$4,$5*
1,1,$1+$1,$6,$7*
1,1,$1+$1,$8,$9*
0 Add four rect primitives between the rounded corners*
20,1,$1+$1,$2,$3,$4,$5,0*
20,1,$1+$1,$4,$5,$6,$7,0*
20,1,$1+$1,$6,$7,$8,$9,0*
20,1,$1+$1,$8,$9,$2,$3,0*%
G04 Aperture macros list end*
%TA.AperFunction,ComponentPad*%
%ADD10C,1.800000*%
%TD*%
%TA.AperFunction,ComponentPad*%
%ADD11C,2.000000*%
%TD*%
%TA.AperFunction,ComponentPad*%
%ADD12O,2.100000X1.000000*%
%TD*%
%TA.AperFunction,ComponentPad*%
%ADD13O,1.800000X1.000000*%
%TD*%
%TA.AperFunction,ComponentPad*%
%ADD14RoundRect,0.250000X0.550000X-0.550000X0.550000X0.550000X-0.550000X0.550000X-0.550000X-0.550000X0*%
%TD*%
%TA.AperFunction,ComponentPad*%
%ADD15C,1.600000*%
%TD*%
%TA.AperFunction,ViaPad*%
%ADD16C,0.600000*%
%TD*%
G04 APERTURE END LIST*
D10*
%TO.N,Net-(R1-Pad2)*%
%TO.C,SW1*%
X85740000Y-91847500D03*
%TO.N,GND*%
X90820000Y-91847500D03*
D11*
%TO.N,unconnected-(SW1-Pad3)*%
X91780000Y-89307500D03*
%TO.N,unconnected-(SW1-Pad4)*%
X84780000Y-89307500D03*
%TD*%
D12*
%TO.N,GND*%
%TO.C,J1*%
X79790000Y-79680000D03*
D13*
X75640000Y-79680000D03*
D12*
X79790000Y-88320000D03*
D13*
X75640000Y-88320000D03*
%TD*%
D14*
%TO.N,GND*%
%TO.C,BT1*%
X120750000Y-83750000D03*
D15*
%TO.N,Net-(BT1-+)*%
X120750000Y-80150000D03*
%TD*%
D16*
%TO.N,+3V3*%
X97000000Y-93750000D03*
X97750000Y-87500000D03*
%TO.N,GND*%
X98750000Y-85500000D03*
X108375000Y-95375000D03*
X91500000Y-93500000D03*
X98250000Y-84500000D03*
X95775000Y-94250000D03*
X108500000Y-85000000D03*
X93250000Y-86250000D03*
X86500000Y-82000000D03*
X95750000Y-81750000D03*
X105500000Y-79750000D03*
X116250000Y-83000000D03*
X92750000Y-79500000D03*
X97750000Y-81750000D03*
X108500000Y-87500000D03*
X100750000Y-90750000D03*
X82500000Y-88500000D03*
X79000000Y-90800000D03*
%TO.N,Net-(U1-LED2)*%
X77250000Y-89250000D03*
X84850000Y-87227645D03*
%TO.N,Net-(D1-K)*%
X80500000Y-93000000D03*
X101500000Y-79250000D03*
X85537760Y-87636289D03*
%TO.N,Net-(U3-Vin)*%
X81250000Y-91250000D03*
X89304289Y-91445710D03*
%TO.N,Net-(C3-Pad1)*%
X90250000Y-85000000D03*
X91000000Y-82500000D03*
%TO.N,Net-(U1-KEY)*%
X88250000Y-87750000D03*
X90974285Y-80125758D03*
%TO.N,Net-(U1-NTC)*%
X94750000Y-85000000D03*
X90000000Y-80000000D03*
%TO.N,/D-*%
X88401600Y-79010954D03*
X82066661Y-84108746D03*
%TO.N,/D+*%
X82066661Y-83305546D03*
X87598400Y-79010954D03*
%TO.N,Net-(J1-CC1)*%
X81500000Y-82674058D03*
X84750000Y-79500000D03*
%TO.N,Net-(C4-Pad1)*%
X92500000Y-95250000D03*
X83850735Y-83600735D03*
%TO.N,Net-(D3-A)*%
X75225000Y-94025000D03*
X77900000Y-95250000D03*
%TO.N,Net-(R1-Pad2)*%
X87500000Y-92000000D03*
X88700735Y-90799265D03*
%TD*%
%TA.AperFunction,Conductor*%
%TO.N,GND*%
G36*
X87044452Y-78220185D02*
G01*
X87090207Y-78272989D01*
X87100151Y-78342147D01*
X87071126Y-78405703D01*
X87065094Y-78412181D01*
X86976613Y-78500661D01*
X86976610Y-78500665D01*
X86889009Y-78631768D01*
X86889002Y-78631781D01*
X86828664Y-78777452D01*
X86828661Y-78777464D01*
X86797900Y-78932107D01*
X86797900Y-79089800D01*
X86828661Y-79244443D01*
X86828664Y-79244455D01*
X86889002Y-79390126D01*
X86889009Y-79390139D01*
X86976610Y-79521242D01*
X86976613Y-79521246D01*
X87088107Y-79632740D01*
X87088111Y-79632743D01*
X87219214Y-79720344D01*
X87219227Y-79720351D01*
X87364898Y-79780689D01*
X87364903Y-79780691D01*
X87519553Y-79811453D01*
X87519556Y-79811454D01*
X87519558Y-79811454D01*
X87677244Y-79811454D01*
X87677245Y-79811453D01*
X87831897Y-79780691D01*
X87952548Y-79730715D01*
X88022017Y-79723247D01*
X88047448Y-79730714D01*
X88168103Y-79780691D01*
X88322753Y-79811453D01*
X88322756Y-79811454D01*
X88322758Y-79811454D01*
X88480444Y-79811454D01*
X88480445Y-79811453D01*
X88507645Y-79806042D01*
X88570956Y-79793450D01*
X88570961Y-79793449D01*
X88616395Y-79784410D01*
X88635097Y-79780691D01*
X88780779Y-79720348D01*
X88911889Y-79632743D01*
X89023389Y-79521243D01*
X89110994Y-79390133D01*
X89171337Y-79244451D01*
X89185917Y-79171153D01*
X100699500Y-79171153D01*
X100699500Y-79328846D01*
X100730261Y-79483489D01*
X100730264Y-79483501D01*
X100790602Y-79629172D01*
X100790609Y-79629185D01*
X100878210Y-79760288D01*
X100878213Y-79760292D01*
X100989707Y-79871786D01*
X100989711Y-79871789D01*
X101120814Y-79959390D01*
X101120827Y-79959397D01*
X101266498Y-80019735D01*
X101266503Y-80019737D01*
X101403115Y-80046911D01*
X101421153Y-80050499D01*
X101421156Y-80050500D01*
X101421158Y-80050500D01*
X101578844Y-80050500D01*
X101578845Y-80050499D01*
X101593178Y-80047648D01*
X119449500Y-80047648D01*
X119449500Y-80252351D01*
X119481522Y-80454534D01*
X119544781Y-80649223D01*
X119637715Y-80831613D01*
X119758028Y-80997213D01*
X119902786Y-81141971D01*
X120057749Y-81254556D01*
X120068390Y-81262287D01*
X120184607Y-81321503D01*
X120250776Y-81355218D01*
X120250778Y-81355218D01*
X120250781Y-81355220D01*
X120355137Y-81389127D01*
X120445465Y-81418477D01*
X120546557Y-81434488D01*
X120647648Y-81450500D01*
X120647649Y-81450500D01*
X120852351Y-81450500D01*
X120852352Y-81450500D01*
X121054534Y-81418477D01*
X121249219Y-81355220D01*
X121431610Y-81262287D01*
X121524590Y-81194732D01*
X121597213Y-81141971D01*
X121597215Y-81141968D01*
X121597219Y-81141966D01*
X121741966Y-80997219D01*
X121741968Y-80997215D01*
X121741971Y-80997213D01*
X121815872Y-80895495D01*
X121862287Y-80831610D01*
X121955220Y-80649219D01*
X122018477Y-80454534D01*
X122050500Y-80252352D01*
X122050500Y-80047648D01*
X122018477Y-79845466D01*
X121955220Y-79650781D01*
X121955218Y-79650778D01*
X121955218Y-79650776D01*
X121911107Y-79564204D01*
X121862287Y-79468390D01*
X121838067Y-79435054D01*
X121741971Y-79302786D01*
X121597213Y-79158028D01*
X121431613Y-79037715D01*
X121431612Y-79037714D01*
X121431610Y-79037713D01*
X121374653Y-79008691D01*
X121249223Y-78944781D01*
X121054534Y-78881522D01*
X120879995Y-78853878D01*
X120852352Y-78849500D01*
X120647648Y-78849500D01*
X120623329Y-78853351D01*
X120445465Y-78881522D01*
X120250776Y-78944781D01*
X120068386Y-79037715D01*
X119902786Y-79158028D01*
X119758028Y-79302786D01*
X119637715Y-79468386D01*
X119544781Y-79650776D01*
X119481522Y-79845465D01*
X119449500Y-80047648D01*
X101593178Y-80047648D01*
X101733497Y-80019737D01*
X101879179Y-79959394D01*
X101879185Y-79959390D01*
X101908693Y-79939674D01*
X101979640Y-79892268D01*
X102010289Y-79871789D01*
X102121789Y-79760289D01*
X102209394Y-79629179D01*
X102212854Y-79620827D01*
X102254102Y-79521243D01*
X102269737Y-79483497D01*
X102300500Y-79328842D01*
X102300500Y-79171158D01*
X102300500Y-79171155D01*
X102300499Y-79171153D01*
X102284316Y-79089796D01*
X102269737Y-79016503D01*
X102269735Y-79016498D01*
X102209397Y-78870827D01*
X102209390Y-78870814D01*
X102121789Y-78739711D01*
X102121786Y-78739707D01*
X102010292Y-78628213D01*
X102010288Y-78628210D01*
X101879185Y-78540609D01*
X101879172Y-78540602D01*
X101733501Y-78480264D01*
X101733489Y-78480261D01*
X101578845Y-78449500D01*
X101578842Y-78449500D01*
X101421158Y-78449500D01*
X101421155Y-78449500D01*
X101266510Y-78480261D01*
X101266498Y-78480264D01*
X101120827Y-78540602D01*
X101120814Y-78540609D01*
X100989711Y-78628210D01*
X100989707Y-78628213D01*
X100878213Y-78739707D01*
X100878210Y-78739711D01*
X100790609Y-78870814D01*
X100790602Y-78870827D01*
X100730264Y-79016498D01*
X100730261Y-79016510D01*
X100699500Y-79171153D01*
X89185917Y-79171153D01*
X89202100Y-79089796D01*
X89202100Y-78932112D01*
X89202100Y-78932109D01*
X89202099Y-78932107D01*
X89196359Y-78903251D01*
X89171337Y-78777457D01*
X89151788Y-78730261D01*
X89110997Y-78631781D01*
X89110990Y-78631768D01*
X89023389Y-78500665D01*
X89023386Y-78500661D01*
X88934906Y-78412181D01*
X88901421Y-78350858D01*
X88906405Y-78281166D01*
X88948277Y-78225233D01*
X89013741Y-78200816D01*
X89022587Y-78200500D01*
X122425500Y-78200500D01*
X122492539Y-78220185D01*
X122538294Y-78272989D01*
X122549500Y-78324500D01*
X122549500Y-95675500D01*
X122529815Y-95742539D01*
X122477011Y-95788294D01*
X122425500Y-95799500D01*
X120624000Y-95799500D01*
X120556961Y-95779815D01*
X120511206Y-95727011D01*
X120500000Y-95675500D01*
X120500000Y-87250000D01*
X110500000Y-87250000D01*
X110500000Y-95675500D01*
X110480315Y-95742539D01*
X110427511Y-95788294D01*
X110376000Y-95799500D01*
X93324424Y-95799500D01*
X93257385Y-95779815D01*
X93211630Y-95727011D01*
X93201686Y-95657853D01*
X93209863Y-95628048D01*
X93269735Y-95483501D01*
X93269737Y-95483497D01*
X93300500Y-95328842D01*
X93300500Y-95171158D01*
X93300500Y-95171155D01*
X93300499Y-95171153D01*
X93269738Y-95016510D01*
X93269737Y-95016503D01*
X93269735Y-95016498D01*
X93209397Y-94870827D01*
X93209390Y-94870814D01*
X93121789Y-94739711D01*
X93121786Y-94739707D01*
X93010292Y-94628213D01*
X93010288Y-94628210D01*
X92879185Y-94540609D01*
X92879172Y-94540602D01*
X92733501Y-94480264D01*
X92733489Y-94480261D01*
X92578845Y-94449500D01*
X92578842Y-94449500D01*
X92421158Y-94449500D01*
X92421155Y-94449500D01*
X92266510Y-94480261D01*
X92266498Y-94480264D01*
X92120827Y-94540602D01*
X92120814Y-94540609D01*
X91989711Y-94628210D01*
X91989707Y-94628213D01*
X91878213Y-94739707D01*
X91878210Y-94739711D01*
X91790609Y-94870814D01*
X91790602Y-94870827D01*
X91730264Y-95016498D01*
X91730261Y-95016510D01*
X91699500Y-95171153D01*
X91699500Y-95328846D01*
X91730261Y-95483489D01*
X91730264Y-95483501D01*
X91790137Y-95628048D01*
X91797606Y-95697517D01*
X91766331Y-95759996D01*
X91706241Y-95795648D01*
X91675576Y-95799500D01*
X78724424Y-95799500D01*
X78657385Y-95779815D01*
X78611630Y-95727011D01*
X78601686Y-95657853D01*
X78609863Y-95628048D01*
X78669735Y-95483501D01*
X78669737Y-95483497D01*
X78700500Y-95328842D01*
X78700500Y-95171158D01*
X78700500Y-95171155D01*
X78700499Y-95171153D01*
X78669738Y-95016510D01*
X78669737Y-95016503D01*
X78669735Y-95016498D01*
X78609397Y-94870827D01*
X78609390Y-94870814D01*
X78521789Y-94739711D01*
X78521786Y-94739707D01*
X78410292Y-94628213D01*
X78410288Y-94628210D01*
X78279185Y-94540609D01*
X78279172Y-94540602D01*
X78133501Y-94480264D01*
X78133489Y-94480261D01*
X77978845Y-94449500D01*
X77978842Y-94449500D01*
X77821158Y-94449500D01*
X77821155Y-94449500D01*
X77666510Y-94480261D01*
X77666498Y-94480264D01*
X77520827Y-94540602D01*
X77520814Y-94540609D01*
X77389711Y-94628210D01*
X77389707Y-94628213D01*
X77278213Y-94739707D01*
X77278210Y-94739711D01*
X77190609Y-94870814D01*
X77190602Y-94870827D01*
X77130264Y-95016498D01*
X77130261Y-95016510D01*
X77099500Y-95171153D01*
X77099500Y-95328846D01*
X77130261Y-95483489D01*
X77130264Y-95483501D01*
X77190137Y-95628048D01*
X77197606Y-95697517D01*
X77166331Y-95759996D01*
X77106241Y-95795648D01*
X77075576Y-95799500D01*
X73074500Y-95799500D01*
X73007461Y-95779815D01*
X72961706Y-95727011D01*
X72950500Y-95675500D01*
X72950500Y-93946153D01*
X74424500Y-93946153D01*
X74424500Y-94103846D01*
X74455261Y-94258489D01*
X74455264Y-94258501D01*
X74515602Y-94404172D01*
X74515609Y-94404185D01*
X74603210Y-94535288D01*
X74603213Y-94535292D01*
X74714707Y-94646786D01*
X74714711Y-94646789D01*
X74845814Y-94734390D01*
X74845827Y-94734397D01*
X74991498Y-94794735D01*
X74991503Y-94794737D01*
X75146153Y-94825499D01*
X75146156Y-94825500D01*
X75146158Y-94825500D01*
X75303844Y-94825500D01*
X75303845Y-94825499D01*
X75458497Y-94794737D01*
X75604179Y-94734394D01*
X75735289Y-94646789D01*
X75846789Y-94535289D01*
X75934394Y-94404179D01*
X75994737Y-94258497D01*
X76025500Y-94103842D01*
X76025500Y-93946158D01*
X76025500Y-93946155D01*
X76025499Y-93946153D01*
X76002165Y-93828846D01*
X75994737Y-93791503D01*
X75985721Y-93769737D01*
X75934397Y-93645827D01*
X75934390Y-93645814D01*
X75846789Y-93514711D01*
X75846786Y-93514707D01*
X75735292Y-93403213D01*
X75735288Y-93403210D01*
X75604185Y-93315609D01*
X75604172Y-93315602D01*
X75458501Y-93255264D01*
X75458489Y-93255261D01*
X75303845Y-93224500D01*
X75303842Y-93224500D01*
X75146158Y-93224500D01*
X75146155Y-93224500D01*
X74991510Y-93255261D01*
X74991498Y-93255264D01*
X74845827Y-93315602D01*
X74845814Y-93315609D01*
X74714711Y-93403210D01*
X74714707Y-93403213D01*
X74603213Y-93514707D01*
X74603210Y-93514711D01*
X74515609Y-93645814D01*
X74515602Y-93645827D01*
X74455264Y-93791498D01*
X74455261Y-93791510D01*
X74424500Y-93946153D01*
X72950500Y-93946153D01*
X72950500Y-92921153D01*
X79699500Y-92921153D01*
X79699500Y-93078846D01*
X79730261Y-93233489D01*
X79730264Y-93233501D01*
X79790602Y-93379172D01*
X79790609Y-93379185D01*
X79878210Y-93510288D01*
X79878213Y-93510292D01*
X79989707Y-93621786D01*
X79989711Y-93621789D01*
X80120814Y-93709390D01*
X80120827Y-93709397D01*
X80266498Y-93769735D01*
X80266503Y-93769737D01*
X80375963Y-93791510D01*
X80421153Y-93800499D01*
X80421156Y-93800500D01*
X80421158Y-93800500D01*
X80578844Y-93800500D01*
X80578845Y-93800499D01*
X80733497Y-93769737D01*
X80879179Y-93709394D01*
X80936411Y-93671153D01*
X96199500Y-93671153D01*
X96199500Y-93828846D01*
X96230261Y-93983489D01*
X96230264Y-93983501D01*
X96290602Y-94129172D01*
X96290609Y-94129185D01*
X96378210Y-94260288D01*
X96378213Y-94260292D01*
X96489707Y-94371786D01*
X96489711Y-94371789D01*
X96620814Y-94459390D01*
X96620827Y-94459397D01*
X96766498Y-94519735D01*
X96766503Y-94519737D01*
X96921153Y-94550499D01*
X96921156Y-94550500D01*
X96921158Y-94550500D01*
X97078844Y-94550500D01*
X97078845Y-94550499D01*
X97233497Y-94519737D01*
X97379179Y-94459394D01*
X97510289Y-94371789D01*
X97621789Y-94260289D01*
X97709394Y-94129179D01*
X97769737Y-93983497D01*
X97800500Y-93828842D01*
X97800500Y-93671158D01*
X97800500Y-93671155D01*
X97800499Y-93671153D01*
X97769738Y-93516510D01*
X97769737Y-93516503D01*
X97767163Y-93510288D01*
X97709397Y-93370827D01*
X97709390Y-93370814D01*
X97621789Y-93239711D01*
X97621786Y-93239707D01*
X97510292Y-93128213D01*
X97510288Y-93128210D01*
X97379185Y-93040609D01*
X97379172Y-93040602D01*
X97233501Y-92980264D01*
X97233489Y-92980261D01*
X97078845Y-92949500D01*
X97078842Y-92949500D01*
X96921158Y-92949500D01*
X96921155Y-92949500D01*
X96766510Y-92980261D01*
X96766498Y-92980264D01*
X96620827Y-93040602D01*
X96620814Y-93040609D01*
X96489711Y-93128210D01*
X96489707Y-93128213D01*
X96378213Y-93239707D01*
X96378210Y-93239711D01*
X96290609Y-93370814D01*
X96290602Y-93370827D01*
X96230264Y-93516498D01*
X96230261Y-93516510D01*
X96199500Y-93671153D01*
X80936411Y-93671153D01*
X81010289Y-93621789D01*
X81010292Y-93621786D01*
X81054694Y-93577385D01*
X81121786Y-93510292D01*
X81121789Y-93510289D01*
X81209394Y-93379179D01*
X81212854Y-93370827D01*
X81260722Y-93255261D01*
X81269737Y-93233497D01*
X81300500Y-93078842D01*
X81300500Y-92921158D01*
X81300500Y-92921155D01*
X81300499Y-92921153D01*
X81269738Y-92766510D01*
X81269737Y-92766503D01*
X81269735Y-92766498D01*
X81209397Y-92620827D01*
X81209390Y-92620814D01*
X81121789Y-92489711D01*
X81121786Y-92489707D01*
X81010292Y-92378213D01*
X81010288Y-92378210D01*
X80879185Y-92290609D01*
X80879172Y-92290602D01*
X80733501Y-92230264D01*
X80733489Y-92230261D01*
X80578845Y-92199500D01*
X80578842Y-92199500D01*
X80421158Y-92199500D01*
X80421155Y-92199500D01*
X80266510Y-92230261D01*
X80266498Y-92230264D01*
X80120827Y-92290602D01*
X80120814Y-92290609D01*
X79989711Y-92378210D01*
X79989707Y-92378213D01*
X79878213Y-92489707D01*
X79878210Y-92489711D01*
X79790609Y-92620814D01*
X79790602Y-92620827D01*
X79730264Y-92766498D01*
X79730261Y-92766510D01*
X79699500Y-92921153D01*
X72950500Y-92921153D01*
X72950500Y-91171153D01*
X80449500Y-91171153D01*
X80449500Y-91328846D01*
X80480261Y-91483489D01*
X80480264Y-91483501D01*
X80540602Y-91629172D01*
X80540609Y-91629185D01*
X80628210Y-91760288D01*
X80628213Y-91760292D01*
X80739707Y-91871786D01*
X80739711Y-91871789D01*
X80870814Y-91959390D01*
X80870827Y-91959397D01*
X81016498Y-92019735D01*
X81016503Y-92019737D01*
X81171153Y-92050499D01*
X81171156Y-92050500D01*
X81171158Y-92050500D01*
X81328844Y-92050500D01*
X81328845Y-92050499D01*
X81483497Y-92019737D01*
X81629179Y-91959394D01*
X81760289Y-91871789D01*
X81871789Y-91760289D01*
X81959394Y-91629179D01*
X82019737Y-91483497D01*
X82050500Y-91328842D01*
X82050500Y-91171158D01*
X82050500Y-91171155D01*
X82050499Y-91171153D01*
X82022970Y-91032757D01*
X82019737Y-91016503D01*
X82007195Y-90986223D01*
X81959397Y-90870827D01*
X81959390Y-90870814D01*
X81871789Y-90739711D01*
X81871786Y-90739707D01*
X81760292Y-90628213D01*
X81760288Y-90628210D01*
X81629185Y-90540609D01*
X81629172Y-90540602D01*
X81483501Y-90480264D01*
X81483489Y-90480261D01*
X81328845Y-90449500D01*
X81328842Y-90449500D01*
X81171158Y-90449500D01*
X81171155Y-90449500D01*
X81016510Y-90480261D01*
X81016498Y-90480264D01*
X80870827Y-90540602D01*
X80870814Y-90540609D01*
X80739711Y-90628210D01*
X80739707Y-90628213D01*
X80628213Y-90739707D01*
X80628210Y-90739711D01*
X80540609Y-90870814D01*
X80540602Y-90870827D01*
X80480264Y-91016498D01*
X80480261Y-91016510D01*
X80449500Y-91171153D01*
X72950500Y-91171153D01*
X72950500Y-88070000D01*
X74270138Y-88070000D01*
X75073012Y-88070000D01*
X75055795Y-88079940D01*
X74999940Y-88135795D01*
X74960444Y-88204204D01*
X74940000Y-88280504D01*
X74940000Y-88359496D01*
X74960444Y-88435796D01*
X74999940Y-88504205D01*
X75055795Y-88560060D01*
X75073012Y-88570000D01*
X74270138Y-88570000D01*
X74278430Y-88611690D01*
X74278430Y-88611692D01*
X74353807Y-88793671D01*
X74353814Y-88793684D01*
X74463248Y-88957462D01*
X74463251Y-88957466D01*
X74602533Y-89096748D01*
X74602537Y-89096751D01*
X74766315Y-89206185D01*
X74766328Y-89206192D01*
X74948306Y-89281569D01*
X74948318Y-89281572D01*
X75141504Y-89319999D01*
X75141508Y-89320000D01*
X75390000Y-89320000D01*
X75390000Y-88620000D01*
X75890000Y-88620000D01*
X75890000Y-89320000D01*
X76138492Y-89320000D01*
X76138494Y-89319999D01*
X76314353Y-89285019D01*
X76383944Y-89291246D01*
X76439122Y-89334109D01*
X76460161Y-89382444D01*
X76480261Y-89483491D01*
X76480264Y-89483501D01*
X76540602Y-89629172D01*
X76540609Y-89629185D01*
X76628210Y-89760288D01*
X76628213Y-89760292D01*
X76739707Y-89871786D01*
X76739711Y-89871789D01*
X76870814Y-89959390D01*
X76870827Y-89959397D01*
X77016498Y-90019735D01*
X77016503Y-90019737D01*
X77171153Y-90050499D01*
X77171156Y-90050500D01*
X77171158Y-90050500D01*
X77328844Y-90050500D01*
X77328845Y-90050499D01*
X77483497Y-90019737D01*
X77629179Y-89959394D01*
X77760289Y-89871789D01*
X77871789Y-89760289D01*
X77959394Y-89629179D01*
X78019737Y-89483497D01*
X78050500Y-89328842D01*
X78050500Y-89171158D01*
X78050500Y-89171155D01*
X78050499Y-89171153D01*
X78019738Y-89016510D01*
X78019737Y-89016503D01*
X78019735Y-89016498D01*
X77959397Y-88870827D01*
X77959390Y-88870814D01*
X77871789Y-88739711D01*
X77871786Y-88739707D01*
X77760292Y-88628213D01*
X77760288Y-88628210D01*
X77629185Y-88540609D01*
X77629172Y-88540602D01*
X77483501Y-88480264D01*
X77483489Y-88480261D01*
X77328845Y-88449500D01*
X77328842Y-88449500D01*
X77171158Y-88449500D01*
X77171155Y-88449500D01*
X77016510Y-88480261D01*
X77016498Y-88480264D01*
X76870827Y-88540602D01*
X76870814Y-88540609D01*
X76858105Y-88549102D01*
X76791428Y-88569980D01*
X76789214Y-88570000D01*
X76206988Y-88570000D01*
X76224205Y-88560060D01*
X76280060Y-88504205D01*
X76319556Y-88435796D01*
X76340000Y-88359496D01*
X76340000Y-88280504D01*
X76319556Y-88204204D01*
X76280060Y-88135795D01*
X76224205Y-88079940D01*
X76206988Y-88070000D01*
X77009862Y-88070000D01*
X78270138Y-88070000D01*
X79073012Y-88070000D01*
X79055795Y-88079940D01*
X78999940Y-88135795D01*
X78960444Y-88204204D01*
X78940000Y-88280504D01*
X78940000Y-88359496D01*
X78960444Y-88435796D01*
X78999940Y-88504205D01*
X79055795Y-88560060D01*
X79073012Y-88570000D01*
X78270138Y-88570000D01*
X78278430Y-88611690D01*
X78278430Y-88611692D01*
X78353807Y-88793671D01*
X78353814Y-88793684D01*
X78463248Y-88957462D01*
X78463251Y-88957466D01*
X78602533Y-89096748D01*
X78602537Y-89096751D01*
X78766315Y-89206185D01*
X78766328Y-89206192D01*
X78948306Y-89281569D01*
X78948318Y-89281572D01*
X79141504Y-89319999D01*
X79141508Y-89320000D01*
X79540000Y-89320000D01*
X79540000Y-88620000D01*
X80040000Y-88620000D01*
X80040000Y-89320000D01*
X80438492Y-89320000D01*
X80438495Y-89319999D01*
X80631681Y-89281572D01*
X80631693Y-89281569D01*
X80813671Y-89206192D01*
X80813684Y-89206185D01*
X80838801Y-89189402D01*
X83279500Y-89189402D01*
X83279500Y-89425597D01*
X83316446Y-89658868D01*
X83389433Y-89883496D01*
X83474526Y-90050499D01*
X83496657Y-90093933D01*
X83635483Y-90285010D01*
X83802490Y-90452017D01*
X83993567Y-90590843D01*
X84066904Y-90628210D01*
X84204003Y-90698066D01*
X84204005Y-90698066D01*
X84204008Y-90698068D01*
X84321711Y-90736312D01*
X84428631Y-90771053D01*
X84553719Y-90790865D01*
X84616854Y-90820794D01*
X84653785Y-90880106D01*
X84652787Y-90949968D01*
X84634640Y-90986223D01*
X84542184Y-91113478D01*
X84442104Y-91309893D01*
X84442103Y-91309896D01*
X84373985Y-91519547D01*
X84348697Y-91679209D01*
X84339500Y-91737278D01*
X84339500Y-91957722D01*
X84354195Y-92050500D01*
X84373985Y-92175452D01*
X84442103Y-92385103D01*
X84442104Y-92385106D01*
X84495402Y-92489707D01*
X84542049Y-92581256D01*
X84542187Y-92581525D01*
X84671752Y-92759858D01*
X84671756Y-92759863D01*
X84827636Y-92915743D01*
X84827641Y-92915747D01*
X84874099Y-92949500D01*
X85005978Y-93045315D01*
X85134375Y-93110737D01*
X85202393Y-93145395D01*
X85202396Y-93145396D01*
X85307221Y-93179455D01*
X85412049Y-93213515D01*
X85629778Y-93248000D01*
X85629779Y-93248000D01*
X85850221Y-93248000D01*
X85850222Y-93248000D01*
X86067951Y-93213515D01*
X86277606Y-93145395D01*
X86474022Y-93045315D01*
X86652365Y-92915742D01*
X86808242Y-92759865D01*
X86865001Y-92681741D01*
X86920331Y-92639075D01*
X86989944Y-92633095D01*
X87034210Y-92651524D01*
X87120809Y-92709387D01*
X87120818Y-92709392D01*
X87120821Y-92709394D01*
X87120823Y-92709394D01*
X87120827Y-92709397D01*
X87258683Y-92766498D01*
X87266503Y-92769737D01*
X87421153Y-92800499D01*
X87421156Y-92800500D01*
X87421158Y-92800500D01*
X87578844Y-92800500D01*
X87578845Y-92800499D01*
X87733497Y-92769737D01*
X87879179Y-92709394D01*
X88010289Y-92621789D01*
X88121789Y-92510289D01*
X88209394Y-92379179D01*
X88269737Y-92233497D01*
X88300500Y-92078842D01*
X88300500Y-91921158D01*
X88300500Y-91921155D01*
X88300499Y-91921153D01*
X88269738Y-91766510D01*
X88269737Y-91766503D01*
X88267163Y-91760288D01*
X88244644Y-91705921D01*
X88237175Y-91636451D01*
X88268451Y-91573972D01*
X88328540Y-91538321D01*
X88398365Y-91540815D01*
X88406621Y-91543894D01*
X88455475Y-91564129D01*
X88509876Y-91607970D01*
X88529636Y-91654496D01*
X88534550Y-91679203D01*
X88534552Y-91679209D01*
X88594891Y-91824882D01*
X88594898Y-91824895D01*
X88682499Y-91955998D01*
X88682502Y-91956002D01*
X88793996Y-92067496D01*
X88794000Y-92067499D01*
X88925103Y-92155100D01*
X88925116Y-92155107D01*
X89070787Y-92215445D01*
X89070792Y-92215447D01*
X89225442Y-92246209D01*
X89225445Y-92246210D01*
X89387411Y-92246210D01*
X89454450Y-92265895D01*
X89500205Y-92318699D01*
X89505342Y-92331892D01*
X89522570Y-92384915D01*
X89622611Y-92581256D01*
X89668932Y-92645013D01*
X90255387Y-92058558D01*
X90260889Y-92079091D01*
X90339881Y-92215908D01*
X90451592Y-92327619D01*
X90588409Y-92406611D01*
X90608939Y-92412112D01*
X90022485Y-92998565D01*
X90022485Y-92998566D01*
X90086243Y-93044888D01*
X90282589Y-93144932D01*
X90492164Y-93213026D01*
X90709819Y-93247500D01*
X90930181Y-93247500D01*
X91147835Y-93213026D01*
X91357410Y-93144932D01*
X91553760Y-93044886D01*
X91617513Y-92998566D01*
X91617514Y-92998566D01*
X91031059Y-92412112D01*
X91051591Y-92406611D01*
X91188408Y-92327619D01*
X91300119Y-92215908D01*
X91379111Y-92079091D01*
X91384612Y-92058559D01*
X91971066Y-92645014D01*
X91971066Y-92645013D01*
X92017386Y-92581260D01*
X92117432Y-92384910D01*
X92185526Y-92175335D01*
X92220000Y-91957681D01*
X92220000Y-91737318D01*
X92185526Y-91519664D01*
X92117432Y-91310089D01*
X92017384Y-91113736D01*
X91924805Y-90986311D01*
X91901325Y-90920505D01*
X91917150Y-90852451D01*
X91967256Y-90803756D01*
X92005725Y-90790953D01*
X92031592Y-90786855D01*
X92131368Y-90771053D01*
X92355992Y-90698068D01*
X92566433Y-90590843D01*
X92757510Y-90452017D01*
X92924517Y-90285010D01*
X93063343Y-90093933D01*
X93170568Y-89883492D01*
X93243553Y-89658868D01*
X93248256Y-89629172D01*
X93280500Y-89425597D01*
X93280500Y-89189402D01*
X93243553Y-88956131D01*
X93170566Y-88731503D01*
X93103335Y-88599556D01*
X93063343Y-88521067D01*
X92924517Y-88329990D01*
X92757510Y-88162983D01*
X92566433Y-88024157D01*
X92355996Y-87916933D01*
X92131368Y-87843946D01*
X91898097Y-87807000D01*
X91898092Y-87807000D01*
X91661908Y-87807000D01*
X91661903Y-87807000D01*
X91428631Y-87843946D01*
X91204003Y-87916933D01*
X90993566Y-88024157D01*
X90884550Y-88103362D01*
X90802490Y-88162983D01*
X90802488Y-88162985D01*
X90802487Y-88162985D01*
X90635485Y-88329987D01*
X90635485Y-88329988D01*
X90635483Y-88329990D01*
X90605114Y-88371789D01*
X90496657Y-88521066D01*
X90389433Y-88731503D01*
X90316446Y-88956131D01*
X90279500Y-89189402D01*
X90279500Y-89425597D01*
X90316446Y-89658868D01*
X90389433Y-89883496D01*
X90474526Y-90050499D01*
X90496657Y-90093933D01*
X90630089Y-90277586D01*
X90653569Y-90343392D01*
X90637744Y-90411446D01*
X90587638Y-90460140D01*
X90549170Y-90472944D01*
X90492164Y-90481973D01*
X90282589Y-90550067D01*
X90086233Y-90650116D01*
X90030703Y-90690460D01*
X90613384Y-91281696D01*
X90588409Y-91288389D01*
X90451592Y-91367381D01*
X90339881Y-91479092D01*
X90260889Y-91615909D01*
X90255387Y-91636440D01*
X90141108Y-91522161D01*
X90107623Y-91460838D01*
X90104789Y-91434480D01*
X90104789Y-91366865D01*
X90104788Y-91366863D01*
X90097226Y-91328846D01*
X90074026Y-91212213D01*
X90057021Y-91171158D01*
X90013686Y-91066537D01*
X90013679Y-91066524D01*
X89955383Y-90979279D01*
X89926078Y-90935421D01*
X89814578Y-90823921D01*
X89784399Y-90803756D01*
X89683474Y-90736319D01*
X89683461Y-90736312D01*
X89549552Y-90680846D01*
X89495148Y-90637005D01*
X89475387Y-90590477D01*
X89470472Y-90565768D01*
X89435561Y-90481485D01*
X89410132Y-90420092D01*
X89410125Y-90420079D01*
X89322524Y-90288976D01*
X89322521Y-90288972D01*
X89211027Y-90177478D01*
X89211023Y-90177475D01*
X89079920Y-90089874D01*
X89079907Y-90089867D01*
X88934236Y-90029529D01*
X88934224Y-90029526D01*
X88779580Y-89998765D01*
X88779577Y-89998765D01*
X88621893Y-89998765D01*
X88621890Y-89998765D01*
X88467245Y-90029526D01*
X88467233Y-90029529D01*
X88321562Y-90089867D01*
X88321549Y-90089874D01*
X88190446Y-90177475D01*
X88190442Y-90177478D01*
X88078948Y-90288972D01*
X88078945Y-90288976D01*
X87991344Y-90420079D01*
X87991337Y-90420092D01*
X87930999Y-90565763D01*
X87930996Y-90565775D01*
X87900235Y-90720418D01*
X87900235Y-90878111D01*
X87927765Y-91016510D01*
X87930998Y-91032762D01*
X87956091Y-91093342D01*
X87963559Y-91162812D01*
X87932283Y-91225291D01*
X87872194Y-91260943D01*
X87802369Y-91258448D01*
X87794077Y-91255356D01*
X87792392Y-91254658D01*
X87733497Y-91230263D01*
X87733492Y-91230262D01*
X87733489Y-91230261D01*
X87578845Y-91199500D01*
X87578842Y-91199500D01*
X87421158Y-91199500D01*
X87421155Y-91199500D01*
X87266510Y-91230261D01*
X87266507Y-91230262D01*
X87266506Y-91230262D01*
X87266503Y-91230263D01*
X87207608Y-91254658D01*
X87150129Y-91278466D01*
X87080659Y-91285934D01*
X87018180Y-91254658D01*
X86992193Y-91220201D01*
X86937815Y-91113478D01*
X86867359Y-91016503D01*
X86808247Y-90935141D01*
X86808243Y-90935136D01*
X86652363Y-90779256D01*
X86652358Y-90779252D01*
X86474025Y-90649687D01*
X86474024Y-90649686D01*
X86474022Y-90649685D01*
X86411096Y-90617622D01*
X86277606Y-90549604D01*
X86277603Y-90549603D01*
X86067952Y-90481485D01*
X86011160Y-90472490D01*
X85948025Y-90442561D01*
X85911094Y-90383249D01*
X85912092Y-90313387D01*
X85930236Y-90277137D01*
X86063343Y-90093933D01*
X86170568Y-89883492D01*
X86243553Y-89658868D01*
X86248256Y-89629172D01*
X86280500Y-89425597D01*
X86280500Y-89189402D01*
X86243553Y-88956131D01*
X86170566Y-88731503D01*
X86131666Y-88655159D01*
X86063343Y-88521067D01*
X86033696Y-88480261D01*
X86005521Y-88441481D01*
X85982041Y-88375675D01*
X85997866Y-88307621D01*
X86036950Y-88265493D01*
X86048049Y-88258078D01*
X86159549Y-88146578D01*
X86247154Y-88015468D01*
X86307497Y-87869786D01*
X86338260Y-87715131D01*
X86338260Y-87671153D01*
X87449500Y-87671153D01*
X87449500Y-87828846D01*
X87480261Y-87983489D01*
X87480264Y-87983501D01*
X87540602Y-88129172D01*
X87540609Y-88129185D01*
X87628210Y-88260288D01*
X87628213Y-88260292D01*
X87739707Y-88371786D01*
X87739711Y-88371789D01*
X87870814Y-88459390D01*
X87870827Y-88459397D01*
X87979005Y-88504205D01*
X88016503Y-88519737D01*
X88164130Y-88549102D01*
X88171153Y-88550499D01*
X88171156Y-88550500D01*
X88171158Y-88550500D01*
X88328844Y-88550500D01*
X88328845Y-88550499D01*
X88483497Y-88519737D01*
X88629179Y-88459394D01*
X88760289Y-88371789D01*
X88871789Y-88260289D01*
X88959394Y-88129179D01*
X89019737Y-87983497D01*
X89050500Y-87828842D01*
X89050500Y-87671158D01*
X89050500Y-87671155D01*
X89050499Y-87671153D01*
X89027881Y-87557447D01*
X89019737Y-87516503D01*
X88980242Y-87421153D01*
X96949500Y-87421153D01*
X96949500Y-87578846D01*
X96980261Y-87733489D01*
X96980264Y-87733501D01*
X97040602Y-87879172D01*
X97040609Y-87879185D01*
X97128210Y-88010288D01*
X97128213Y-88010292D01*
X97239707Y-88121786D01*
X97239711Y-88121789D01*
X97370814Y-88209390D01*
X97370827Y-88209397D01*
X97506252Y-88265491D01*
X97516503Y-88269737D01*
X97671153Y-88300499D01*
X97671156Y-88300500D01*
X97671158Y-88300500D01*
X97828844Y-88300500D01*
X97828845Y-88300499D01*
X97983497Y-88269737D01*
X98129179Y-88209394D01*
X98260289Y-88121789D01*
X98371789Y-88010289D01*
X98459394Y-87879179D01*
X98519737Y-87733497D01*
X98550500Y-87578842D01*
X98550500Y-87421158D01*
X98550500Y-87421155D01*
X98550499Y-87421153D01*
X98540486Y-87370814D01*
X98519737Y-87266503D01*
X98515846Y-87257110D01*
X98459397Y-87120827D01*
X98459390Y-87120814D01*
X98371789Y-86989711D01*
X98371786Y-86989707D01*
X98260292Y-86878213D01*
X98260288Y-86878210D01*
X98129185Y-86790609D01*
X98129172Y-86790602D01*
X97983501Y-86730264D01*
X97983489Y-86730261D01*
X97828845Y-86699500D01*
X97828842Y-86699500D01*
X97671158Y-86699500D01*
X97671155Y-86699500D01*
X97516510Y-86730261D01*
X97516498Y-86730264D01*
X97370827Y-86790602D01*
X97370814Y-86790609D01*
X97239711Y-86878210D01*
X97239707Y-86878213D01*
X97128213Y-86989707D01*
X97128210Y-86989711D01*
X97040609Y-87120814D01*
X97040602Y-87120827D01*
X96980264Y-87266498D01*
X96980261Y-87266510D01*
X96949500Y-87421153D01*
X88980242Y-87421153D01*
X88972635Y-87402787D01*
X88959397Y-87370827D01*
X88959390Y-87370814D01*
X88871789Y-87239711D01*
X88871786Y-87239707D01*
X88760292Y-87128213D01*
X88760288Y-87128210D01*
X88629185Y-87040609D01*
X88629172Y-87040602D01*
X88483501Y-86980264D01*
X88483489Y-86980261D01*
X88328845Y-86949500D01*
X88328842Y-86949500D01*
X88171158Y-86949500D01*
X88171155Y-86949500D01*
X88016510Y-86980261D01*
X88016498Y-86980264D01*
X87870827Y-87040602D01*
X87870814Y-87040609D01*
X87739711Y-87128210D01*
X87739707Y-87128213D01*
X87628213Y-87239707D01*
X87628210Y-87239711D01*
X87540609Y-87370814D01*
X87540602Y-87370827D01*
X87480264Y-87516498D01*
X87480261Y-87516510D01*
X87449500Y-87671153D01*
X86338260Y-87671153D01*
X86338260Y-87557447D01*
X86338260Y-87557444D01*
X86338259Y-87557442D01*
X86330115Y-87516498D01*
X86307497Y-87402792D01*
X86294254Y-87370821D01*
X86247157Y-87257116D01*
X86247150Y-87257103D01*
X86159549Y-87126000D01*
X86159546Y-87125996D01*
X86048052Y-87014502D01*
X86048048Y-87014499D01*
X85916945Y-86926898D01*
X85916932Y-86926891D01*
X85771261Y-86866553D01*
X85771249Y-86866550D01*
X85616606Y-86835789D01*
X85610542Y-86835192D01*
X85610672Y-86833871D01*
X85550163Y-86816104D01*
X85514101Y-86780681D01*
X85471789Y-86717356D01*
X85471787Y-86717353D01*
X85360292Y-86605858D01*
X85360288Y-86605855D01*
X85229185Y-86518254D01*
X85229172Y-86518247D01*
X85083501Y-86457909D01*
X85083489Y-86457906D01*
X84928845Y-86427145D01*
X84928842Y-86427145D01*
X84771158Y-86427145D01*
X84771155Y-86427145D01*
X84616510Y-86457906D01*
X84616498Y-86457909D01*
X84470827Y-86518247D01*
X84470814Y-86518254D01*
X84339711Y-86605855D01*
X84339707Y-86605858D01*
X84228213Y-86717352D01*
X84228210Y-86717356D01*
X84140609Y-86848459D01*
X84140602Y-86848472D01*
X84080264Y-86994143D01*
X84080261Y-86994155D01*
X84049500Y-87148798D01*
X84049500Y-87306491D01*
X84080261Y-87461134D01*
X84080264Y-87461146D01*
X84140602Y-87606817D01*
X84140609Y-87606830D01*
X84231595Y-87742999D01*
X84230128Y-87743979D01*
X84254176Y-87800603D01*
X84242385Y-87869470D01*
X84195232Y-87921030D01*
X84187305Y-87925442D01*
X83993566Y-88024157D01*
X83884550Y-88103362D01*
X83802490Y-88162983D01*
X83802488Y-88162985D01*
X83802487Y-88162985D01*
X83635485Y-88329987D01*
X83635485Y-88329988D01*
X83635483Y-88329990D01*
X83605114Y-88371789D01*
X83496657Y-88521066D01*
X83389433Y-88731503D01*
X83316446Y-88956131D01*
X83279500Y-89189402D01*
X80838801Y-89189402D01*
X80977462Y-89096751D01*
X80977466Y-89096748D01*
X81116748Y-88957466D01*
X81116751Y-88957462D01*
X81226185Y-88793684D01*
X81226192Y-88793671D01*
X81301569Y-88611692D01*
X81301569Y-88611690D01*
X81309862Y-88570000D01*
X80506988Y-88570000D01*
X80524205Y-88560060D01*
X80580060Y-88504205D01*
X80619556Y-88435796D01*
X80640000Y-88359496D01*
X80640000Y-88280504D01*
X80619556Y-88204204D01*
X80580060Y-88135795D01*
X80524205Y-88079940D01*
X80506988Y-88070000D01*
X81309862Y-88070000D01*
X81301569Y-88028309D01*
X81301569Y-88028307D01*
X81226192Y-87846328D01*
X81226185Y-87846315D01*
X81116751Y-87682537D01*
X81116748Y-87682533D01*
X80977466Y-87543251D01*
X80977462Y-87543248D01*
X80813684Y-87433814D01*
X80813671Y-87433807D01*
X80631693Y-87358430D01*
X80631681Y-87358427D01*
X80438495Y-87320000D01*
X80040000Y-87320000D01*
X80040000Y-88020000D01*
X79540000Y-88020000D01*
X79540000Y-87320000D01*
X79141504Y-87320000D01*
X78948318Y-87358427D01*
X78948306Y-87358430D01*
X78766328Y-87433807D01*
X78766315Y-87433814D01*
X78602537Y-87543248D01*
X78602533Y-87543251D01*
X78463251Y-87682533D01*
X78463248Y-87682537D01*
X78353814Y-87846315D01*
X78353807Y-87846328D01*
X78278430Y-88028307D01*
X78278430Y-88028309D01*
X78270138Y-88070000D01*
X77009862Y-88070000D01*
X77001569Y-88028309D01*
X77001569Y-88028307D01*
X76926192Y-87846328D01*
X76926185Y-87846315D01*
X76816751Y-87682537D01*
X76816748Y-87682533D01*
X76677466Y-87543251D01*
X76677462Y-87543248D01*
X76513684Y-87433814D01*
X76513671Y-87433807D01*
X76331693Y-87358430D01*
X76331681Y-87358427D01*
X76138495Y-87320000D01*
X75890000Y-87320000D01*
X75890000Y-88020000D01*
X75390000Y-88020000D01*
X75390000Y-87320000D01*
X75141504Y-87320000D01*
X74948318Y-87358427D01*
X74948306Y-87358430D01*
X74766328Y-87433807D01*
X74766315Y-87433814D01*
X74602537Y-87543248D01*
X74602533Y-87543251D01*
X74463251Y-87682533D01*
X74463248Y-87682537D01*
X74353814Y-87846315D01*
X74353807Y-87846328D01*
X74278430Y-88028307D01*
X74278430Y-88028309D01*
X74270138Y-88070000D01*
X72950500Y-88070000D01*
X72950500Y-84921153D01*
X89449500Y-84921153D01*
X89449500Y-85078846D01*
X89480261Y-85233489D01*
X89480264Y-85233501D01*
X89540602Y-85379172D01*
X89540609Y-85379185D01*
X89628210Y-85510288D01*
X89628213Y-85510292D01*
X89739707Y-85621786D01*
X89739711Y-85621789D01*
X89870814Y-85709390D01*
X89870827Y-85709397D01*
X90016498Y-85769735D01*
X90016503Y-85769737D01*
X90171153Y-85800499D01*
X90171156Y-85800500D01*
X90171158Y-85800500D01*
X90328844Y-85800500D01*
X90328845Y-85800499D01*
X90483497Y-85769737D01*
X90629179Y-85709394D01*
X90760289Y-85621789D01*
X90871789Y-85510289D01*
X90959394Y-85379179D01*
X91019737Y-85233497D01*
X91050500Y-85078842D01*
X91050500Y-84921158D01*
X91050500Y-84921155D01*
X91050499Y-84921153D01*
X93949500Y-84921153D01*
X93949500Y-85078846D01*
X93980261Y-85233489D01*
X93980264Y-85233501D01*
X94040602Y-85379172D01*
X94040609Y-85379185D01*
X94128210Y-85510288D01*
X94128213Y-85510292D01*
X94239707Y-85621786D01*
X94239711Y-85621789D01*
X94370814Y-85709390D01*
X94370827Y-85709397D01*
X94516498Y-85769735D01*
X94516503Y-85769737D01*
X94671153Y-85800499D01*
X94671156Y-85800500D01*
X94671158Y-85800500D01*
X94828844Y-85800500D01*
X94828845Y-85800499D01*
X94983497Y-85769737D01*
X95129179Y-85709394D01*
X95260289Y-85621789D01*
X95371789Y-85510289D01*
X95459394Y-85379179D01*
X95519737Y-85233497D01*
X95550500Y-85078842D01*
X95550500Y-84921158D01*
X95550500Y-84921155D01*
X95550499Y-84921153D01*
X95544763Y-84892315D01*
X95519737Y-84766503D01*
X95504839Y-84730535D01*
X95459397Y-84620827D01*
X95459390Y-84620814D01*
X95371789Y-84489711D01*
X95371786Y-84489707D01*
X95260292Y-84378213D01*
X95260288Y-84378210D01*
X95218048Y-84349986D01*
X119450001Y-84349986D01*
X119460494Y-84452697D01*
X119515641Y-84619119D01*
X119515643Y-84619124D01*
X119607684Y-84768345D01*
X119731654Y-84892315D01*
X119880875Y-84984356D01*
X119880880Y-84984358D01*
X120047302Y-85039505D01*
X120047309Y-85039506D01*
X120150019Y-85049999D01*
X120499999Y-85049999D01*
X121000000Y-85049999D01*
X121349972Y-85049999D01*
X121349986Y-85049998D01*
X121452697Y-85039505D01*
X121619119Y-84984358D01*
X121619124Y-84984356D01*
X121768345Y-84892315D01*
X121892315Y-84768345D01*
X121984356Y-84619124D01*
X121984358Y-84619119D01*
X122039505Y-84452697D01*
X122039506Y-84452690D01*
X122049999Y-84349986D01*
X122050000Y-84349973D01*
X122050000Y-84000000D01*
X121000000Y-84000000D01*
X121000000Y-85049999D01*
X120499999Y-85049999D01*
X120500000Y-85049998D01*
X120500000Y-84000000D01*
X119450001Y-84000000D01*
X119450001Y-84349986D01*
X95218048Y-84349986D01*
X95129185Y-84290609D01*
X95129172Y-84290602D01*
X94983501Y-84230264D01*
X94983489Y-84230261D01*
X94828845Y-84199500D01*
X94828842Y-84199500D01*
X94671158Y-84199500D01*
X94671155Y-84199500D01*
X94516510Y-84230261D01*
X94516498Y-84230264D01*
X94370827Y-84290602D01*
X94370814Y-84290609D01*
X94239711Y-84378210D01*
X94239707Y-84378213D01*
X94128213Y-84489707D01*
X94128210Y-84489711D01*
X94040609Y-84620814D01*
X94040602Y-84620827D01*
X93980264Y-84766498D01*
X93980261Y-84766510D01*
X93949500Y-84921153D01*
X91050499Y-84921153D01*
X91044763Y-84892315D01*
X91019737Y-84766503D01*
X91004839Y-84730535D01*
X90959397Y-84620827D01*
X90959390Y-84620814D01*
X90871789Y-84489711D01*
X90871786Y-84489707D01*
X90760292Y-84378213D01*
X90760288Y-84378210D01*
X90629185Y-84290609D01*
X90629172Y-84290602D01*
X90483501Y-84230264D01*
X90483489Y-84230261D01*
X90328845Y-84199500D01*
X90328842Y-84199500D01*
X90171158Y-84199500D01*
X90171155Y-84199500D01*
X90016510Y-84230261D01*
X90016498Y-84230264D01*
X89870827Y-84290602D01*
X89870814Y-84290609D01*
X89739711Y-84378210D01*
X89739707Y-84378213D01*
X89628213Y-84489707D01*
X89628210Y-84489711D01*
X89540609Y-84620814D01*
X89540602Y-84620827D01*
X89480264Y-84766498D01*
X89480261Y-84766510D01*
X89449500Y-84921153D01*
X72950500Y-84921153D01*
X72950500Y-82595211D01*
X80699500Y-82595211D01*
X80699500Y-82752904D01*
X80730261Y-82907547D01*
X80730264Y-82907559D01*
X80790602Y-83053230D01*
X80790609Y-83053243D01*
X80878210Y-83184346D01*
X80878213Y-83184350D01*
X80989707Y-83295844D01*
X80989711Y-83295847D01*
X81120814Y-83383448D01*
X81120827Y-83383455D01*
X81217773Y-83423611D01*
X81272177Y-83467452D01*
X81286729Y-83495449D01*
X81290054Y-83504511D01*
X81296924Y-83539043D01*
X81347868Y-83662035D01*
X81348745Y-83664423D01*
X81350893Y-83696852D01*
X81354367Y-83729163D01*
X81353278Y-83732868D01*
X81353363Y-83734140D01*
X81352387Y-83735904D01*
X81346898Y-83754598D01*
X81296925Y-83875244D01*
X81296922Y-83875256D01*
X81266161Y-84029899D01*
X81266161Y-84187592D01*
X81296922Y-84342235D01*
X81296925Y-84342247D01*
X81357263Y-84487918D01*
X81357270Y-84487931D01*
X81444871Y-84619034D01*
X81444874Y-84619038D01*
X81556368Y-84730532D01*
X81556372Y-84730535D01*
X81687475Y-84818136D01*
X81687488Y-84818143D01*
X81833159Y-84878481D01*
X81833164Y-84878483D01*
X81987814Y-84909245D01*
X81987817Y-84909246D01*
X81987819Y-84909246D01*
X82145505Y-84909246D01*
X82145506Y-84909245D01*
X82300158Y-84878483D01*
X82445840Y-84818140D01*
X82445846Y-84818136D01*
X82455084Y-84811964D01*
X82523120Y-84766503D01*
X82576950Y-84730535D01*
X82688450Y-84619035D01*
X82776055Y-84487925D01*
X82836398Y-84342243D01*
X82867161Y-84187588D01*
X82867161Y-84029904D01*
X82867161Y-84029901D01*
X82839242Y-83889547D01*
X82845469Y-83819955D01*
X82888332Y-83764778D01*
X82954221Y-83741533D01*
X83022218Y-83757601D01*
X83070734Y-83807880D01*
X83079518Y-83829354D01*
X83080998Y-83834234D01*
X83141337Y-83979907D01*
X83141344Y-83979920D01*
X83228945Y-84111023D01*
X83228948Y-84111027D01*
X83340442Y-84222521D01*
X83340446Y-84222524D01*
X83471549Y-84310125D01*
X83471562Y-84310132D01*
X83567780Y-84349986D01*
X83617238Y-84370472D01*
X83771888Y-84401234D01*
X83771891Y-84401235D01*
X83771893Y-84401235D01*
X83929579Y-84401235D01*
X83929580Y-84401234D01*
X84084232Y-84370472D01*
X84229914Y-84310129D01*
X84361024Y-84222524D01*
X84472524Y-84111024D01*
X84560129Y-83979914D01*
X84560130Y-83979911D01*
X84560132Y-83979908D01*
X84592739Y-83901186D01*
X84592739Y-83901185D01*
X84620472Y-83834232D01*
X84645083Y-83710504D01*
X120450000Y-83710504D01*
X120450000Y-83789496D01*
X120470444Y-83865796D01*
X120509940Y-83934205D01*
X120565795Y-83990060D01*
X120634204Y-84029556D01*
X120710504Y-84050000D01*
X120789496Y-84050000D01*
X120865796Y-84029556D01*
X120934205Y-83990060D01*
X120990060Y-83934205D01*
X121029556Y-83865796D01*
X121050000Y-83789496D01*
X121050000Y-83710504D01*
X121029556Y-83634204D01*
X120990060Y-83565795D01*
X120934205Y-83509940D01*
X120916988Y-83500000D01*
X121000000Y-83500000D01*
X122049999Y-83500000D01*
X122049999Y-83150028D01*
X122049998Y-83150013D01*
X122039505Y-83047302D01*
X121984358Y-82880880D01*
X121984356Y-82880875D01*
X121892315Y-82731654D01*
X121768345Y-82607684D01*
X121619124Y-82515643D01*
X121619119Y-82515641D01*
X121452697Y-82460494D01*
X121452690Y-82460493D01*
X121349986Y-82450000D01*
X121000000Y-82450000D01*
X121000000Y-83500000D01*
X120916988Y-83500000D01*
X120865796Y-83470444D01*
X120789496Y-83450000D01*
X120710504Y-83450000D01*
X120634204Y-83470444D01*
X120565795Y-83509940D01*
X120509940Y-83565795D01*
X120470444Y-83634204D01*
X120450000Y-83710504D01*
X84645083Y-83710504D01*
X84651235Y-83679577D01*
X84651235Y-83521893D01*
X84651235Y-83521890D01*
X84651234Y-83521888D01*
X84623809Y-83384016D01*
X84620472Y-83367238D01*
X84620470Y-83367233D01*
X84560132Y-83221562D01*
X84560125Y-83221549D01*
X84472524Y-83090446D01*
X84472521Y-83090442D01*
X84361027Y-82978948D01*
X84361023Y-82978945D01*
X84229920Y-82891344D01*
X84229907Y-82891337D01*
X84084236Y-82830999D01*
X84084224Y-82830996D01*
X83929580Y-82800235D01*
X83929577Y-82800235D01*
X83771893Y-82800235D01*
X83771890Y-82800235D01*
X83617245Y-82830996D01*
X83617233Y-82830999D01*
X83471562Y-82891337D01*
X83471549Y-82891344D01*
X83340446Y-82978945D01*
X83340442Y-82978948D01*
X83228948Y-83090442D01*
X83228945Y-83090446D01*
X83141344Y-83221549D01*
X83141337Y-83221562D01*
X83105722Y-83307547D01*
X83061881Y-83361951D01*
X82995587Y-83384016D01*
X82927888Y-83366737D01*
X82880277Y-83315600D01*
X82867161Y-83260095D01*
X82867161Y-83226701D01*
X82867160Y-83226699D01*
X82840057Y-83090446D01*
X82836398Y-83072049D01*
X82828603Y-83053230D01*
X82776058Y-82926373D01*
X82776051Y-82926360D01*
X82688450Y-82795257D01*
X82688447Y-82795253D01*
X82576953Y-82683759D01*
X82576949Y-82683756D01*
X82445846Y-82596155D01*
X82445836Y-82596150D01*
X82348886Y-82555992D01*
X82294483Y-82512151D01*
X82274722Y-82465624D01*
X82269737Y-82440561D01*
X82261698Y-82421153D01*
X90199500Y-82421153D01*
X90199500Y-82578846D01*
X90230261Y-82733489D01*
X90230264Y-82733501D01*
X90290602Y-82879172D01*
X90290609Y-82879185D01*
X90378210Y-83010288D01*
X90378213Y-83010292D01*
X90489707Y-83121786D01*
X90489711Y-83121789D01*
X90620814Y-83209390D01*
X90620827Y-83209397D01*
X90743225Y-83260095D01*
X90766503Y-83269737D01*
X90897751Y-83295844D01*
X90921153Y-83300499D01*
X90921156Y-83300500D01*
X90921158Y-83300500D01*
X91078844Y-83300500D01*
X91078845Y-83300499D01*
X91233497Y-83269737D01*
X91379179Y-83209394D01*
X91468049Y-83150013D01*
X119450000Y-83150013D01*
X119450000Y-83500000D01*
X120500000Y-83500000D01*
X120500000Y-82450000D01*
X120150028Y-82450000D01*
X120150012Y-82450001D01*
X120047302Y-82460494D01*
X119880880Y-82515641D01*
X119880875Y-82515643D01*
X119731654Y-82607684D01*
X119607684Y-82731654D01*
X119515643Y-82880875D01*
X119515641Y-82880880D01*
X119460494Y-83047302D01*
X119460493Y-83047309D01*
X119450000Y-83150013D01*
X91468049Y-83150013D01*
X91510289Y-83121789D01*
X91510292Y-83121786D01*
X91572896Y-83059183D01*
X91621786Y-83010292D01*
X91621789Y-83010289D01*
X91709394Y-82879179D01*
X91769737Y-82733497D01*
X91800500Y-82578842D01*
X91800500Y-82421158D01*
X91800500Y-82421155D01*
X91800499Y-82421153D01*
X91769737Y-82266503D01*
X91727182Y-82163765D01*
X91709397Y-82120827D01*
X91709390Y-82120814D01*
X91621789Y-81989711D01*
X91621786Y-81989707D01*
X91510292Y-81878213D01*
X91510288Y-81878210D01*
X91379185Y-81790609D01*
X91379172Y-81790602D01*
X91233501Y-81730264D01*
X91233489Y-81730261D01*
X91078845Y-81699500D01*
X91078842Y-81699500D01*
X90921158Y-81699500D01*
X90921155Y-81699500D01*
X90766510Y-81730261D01*
X90766498Y-81730264D01*
X90620827Y-81790602D01*
X90620814Y-81790609D01*
X90489711Y-81878210D01*
X90489707Y-81878213D01*
X90378213Y-81989707D01*
X90378210Y-81989711D01*
X90290609Y-82120814D01*
X90290602Y-82120827D01*
X90230264Y-82266498D01*
X90230261Y-82266510D01*
X90199500Y-82421153D01*
X82261698Y-82421153D01*
X82254651Y-82404140D01*
X82209397Y-82294885D01*
X82209390Y-82294872D01*
X82121789Y-82163769D01*
X82121786Y-82163765D01*
X82010292Y-82052271D01*
X82010288Y-82052268D01*
X81879185Y-81964667D01*
X81879172Y-81964660D01*
X81733501Y-81904322D01*
X81733489Y-81904319D01*
X81578845Y-81873558D01*
X81578842Y-81873558D01*
X81421158Y-81873558D01*
X81421155Y-81873558D01*
X81266510Y-81904319D01*
X81266498Y-81904322D01*
X81120827Y-81964660D01*
X81120814Y-81964667D01*
X80989711Y-82052268D01*
X80989707Y-82052271D01*
X80878213Y-82163765D01*
X80878210Y-82163769D01*
X80790609Y-82294872D01*
X80790602Y-82294885D01*
X80730264Y-82440556D01*
X80730261Y-82440568D01*
X80699500Y-82595211D01*
X72950500Y-82595211D01*
X72950500Y-79430000D01*
X74270138Y-79430000D01*
X75073012Y-79430000D01*
X75055795Y-79439940D01*
X74999940Y-79495795D01*
X74960444Y-79564204D01*
X74940000Y-79640504D01*
X74940000Y-79719496D01*
X74960444Y-79795796D01*
X74999940Y-79864205D01*
X75055795Y-79920060D01*
X75073012Y-79930000D01*
X74270138Y-79930000D01*
X74278430Y-79971690D01*
X74278430Y-79971692D01*
X74353807Y-80153671D01*
X74353814Y-80153684D01*
X74463248Y-80317462D01*
X74463251Y-80317466D01*
X74602533Y-80456748D01*
X74602537Y-80456751D01*
X74766315Y-80566185D01*
X74766328Y-80566192D01*
X74948306Y-80641569D01*
X74948318Y-80641572D01*
X75141504Y-80679999D01*
X75141508Y-80680000D01*
X75390000Y-80680000D01*
X75390000Y-79980000D01*
X75890000Y-79980000D01*
X75890000Y-80680000D01*
X76138492Y-80680000D01*
X76138495Y-80679999D01*
X76331681Y-80641572D01*
X76331693Y-80641569D01*
X76513671Y-80566192D01*
X76513684Y-80566185D01*
X76677462Y-80456751D01*
X76677466Y-80456748D01*
X76816748Y-80317466D01*
X76816751Y-80317462D01*
X76926185Y-80153684D01*
X76926192Y-80153671D01*
X77001569Y-79971692D01*
X77001569Y-79971690D01*
X77009862Y-79930000D01*
X76206988Y-79930000D01*
X76224205Y-79920060D01*
X76280060Y-79864205D01*
X76319556Y-79795796D01*
X76340000Y-79719496D01*
X76340000Y-79640504D01*
X76319556Y-79564204D01*
X76280060Y-79495795D01*
X76224205Y-79439940D01*
X76206988Y-79430000D01*
X77009862Y-79430000D01*
X78270138Y-79430000D01*
X79073012Y-79430000D01*
X79055795Y-79439940D01*
X78999940Y-79495795D01*
X78960444Y-79564204D01*
X78940000Y-79640504D01*
X78940000Y-79719496D01*
X78960444Y-79795796D01*
X78999940Y-79864205D01*
X79055795Y-79920060D01*
X79073012Y-79930000D01*
X78270138Y-79930000D01*
X78278430Y-79971690D01*
X78278430Y-79971692D01*
X78353807Y-80153671D01*
X78353814Y-80153684D01*
X78463248Y-80317462D01*
X78463251Y-80317466D01*
X78602533Y-80456748D01*
X78602537Y-80456751D01*
X78766315Y-80566185D01*
X78766328Y-80566192D01*
X78948306Y-80641569D01*
X78948318Y-80641572D01*
X79141504Y-80679999D01*
X79141508Y-80680000D01*
X79540000Y-80680000D01*
X79540000Y-79980000D01*
X80040000Y-79980000D01*
X80040000Y-80680000D01*
X80438492Y-80680000D01*
X80438495Y-80679999D01*
X80631681Y-80641572D01*
X80631693Y-80641569D01*
X80813671Y-80566192D01*
X80813684Y-80566185D01*
X80977462Y-80456751D01*
X80977466Y-80456748D01*
X81116748Y-80317466D01*
X81116751Y-80317462D01*
X81226185Y-80153684D01*
X81226192Y-80153671D01*
X81301569Y-79971692D01*
X81301569Y-79971690D01*
X81309862Y-79930000D01*
X80506988Y-79930000D01*
X80524205Y-79920060D01*
X80580060Y-79864205D01*
X80619556Y-79795796D01*
X80640000Y-79719496D01*
X80640000Y-79640504D01*
X80619556Y-79564204D01*
X80580060Y-79495795D01*
X80524205Y-79439940D01*
X80506988Y-79430000D01*
X81309864Y-79430000D01*
X81309863Y-79429999D01*
X81308103Y-79421153D01*
X83949500Y-79421153D01*
X83949500Y-79578846D01*
X83980261Y-79733489D01*
X83980264Y-79733501D01*
X84040602Y-79879172D01*
X84040609Y-79879185D01*
X84128210Y-80010288D01*
X84128213Y-80010292D01*
X84239707Y-80121786D01*
X84239711Y-80121789D01*
X84370814Y-80209390D01*
X84370827Y-80209397D01*
X84516498Y-80269735D01*
X84516503Y-80269737D01*
X84671153Y-80300499D01*
X84671156Y-80300500D01*
X84671158Y-80300500D01*
X84828844Y-80300500D01*
X84828845Y-80300499D01*
X84983497Y-80269737D01*
X85129179Y-80209394D01*
X85260289Y-80121789D01*
X85371789Y-80010289D01*
X85431348Y-79921153D01*
X89199500Y-79921153D01*
X89199500Y-80078846D01*
X89230261Y-80233489D01*
X89230264Y-80233501D01*
X89290602Y-80379172D01*
X89290609Y-80379185D01*
X89378210Y-80510288D01*
X89378213Y-80510292D01*
X89489707Y-80621786D01*
X89489711Y-80621789D01*
X89620814Y-80709390D01*
X89620827Y-80709397D01*
X89712931Y-80747547D01*
X89766503Y-80769737D01*
X89921153Y-80800499D01*
X89921156Y-80800500D01*
X89921158Y-80800500D01*
X90078844Y-80800500D01*
X90078845Y-80800499D01*
X90233497Y-80769737D01*
X90335986Y-80727284D01*
X90405453Y-80719816D01*
X90458744Y-80744441D01*
X90458931Y-80744163D01*
X90460700Y-80745345D01*
X90462102Y-80745993D01*
X90463995Y-80747547D01*
X90595099Y-80835148D01*
X90595112Y-80835155D01*
X90740783Y-80895493D01*
X90740788Y-80895495D01*
X90895438Y-80926257D01*
X90895441Y-80926258D01*
X90895443Y-80926258D01*
X91053129Y-80926258D01*
X91053130Y-80926257D01*
X91207782Y-80895495D01*
X91353464Y-80835152D01*
X91484574Y-80747547D01*
X91596074Y-80636047D01*
X91683679Y-80504937D01*
X91744022Y-80359255D01*
X91774785Y-80204600D01*
X91774785Y-80046916D01*
X91774785Y-80046913D01*
X91774784Y-80046911D01*
X91759822Y-79971692D01*
X91744022Y-79892261D01*
X91738603Y-79879179D01*
X91683682Y-79746585D01*
X91683675Y-79746572D01*
X91596074Y-79615469D01*
X91596071Y-79615465D01*
X91484577Y-79503971D01*
X91484573Y-79503968D01*
X91353470Y-79416367D01*
X91353457Y-79416360D01*
X91207786Y-79356022D01*
X91207774Y-79356019D01*
X91053130Y-79325258D01*
X91053127Y-79325258D01*
X90895443Y-79325258D01*
X90895440Y-79325258D01*
X90740795Y-79356019D01*
X90740783Y-79356022D01*
X90638299Y-79398472D01*
X90568829Y-79405941D01*
X90525268Y-79389151D01*
X90514550Y-79382472D01*
X90510289Y-79378211D01*
X90379179Y-79290606D01*
X90343223Y-79275712D01*
X90343222Y-79275712D01*
X90233501Y-79230264D01*
X90233489Y-79230261D01*
X90078845Y-79199500D01*
X90078842Y-79199500D01*
X89921158Y-79199500D01*
X89921155Y-79199500D01*
X89766510Y-79230261D01*
X89766498Y-79230264D01*
X89620827Y-79290602D01*
X89620814Y-79290609D01*
X89489711Y-79378210D01*
X89489707Y-79378213D01*
X89378213Y-79489707D01*
X89378210Y-79489711D01*
X89290609Y-79620814D01*
X89290602Y-79620827D01*
X89230264Y-79766498D01*
X89230261Y-79766510D01*
X89199500Y-79921153D01*
X85431348Y-79921153D01*
X85459394Y-79879179D01*
X85519737Y-79733497D01*
X85550500Y-79578842D01*
X85550500Y-79421158D01*
X85550500Y-79421155D01*
X85550499Y-79421153D01*
X85541957Y-79378210D01*
X85519737Y-79266503D01*
X85519735Y-79266498D01*
X85459397Y-79120827D01*
X85459390Y-79120814D01*
X85371789Y-78989711D01*
X85371786Y-78989707D01*
X85260292Y-78878213D01*
X85260288Y-78878210D01*
X85129185Y-78790609D01*
X85129172Y-78790602D01*
X84983501Y-78730264D01*
X84983489Y-78730261D01*
X84828845Y-78699500D01*
X84828842Y-78699500D01*
X84671158Y-78699500D01*
X84671155Y-78699500D01*
X84516510Y-78730261D01*
X84516498Y-78730264D01*
X84370827Y-78790602D01*
X84370814Y-78790609D01*
X84239711Y-78878210D01*
X84239707Y-78878213D01*
X84128213Y-78989707D01*
X84128210Y-78989711D01*
X84040609Y-79120814D01*
X84040602Y-79120827D01*
X83980264Y-79266498D01*
X83980261Y-79266510D01*
X83949500Y-79421153D01*
X81308103Y-79421153D01*
X81301572Y-79388319D01*
X81301569Y-79388307D01*
X81226192Y-79206328D01*
X81226185Y-79206315D01*
X81116751Y-79042537D01*
X81116748Y-79042533D01*
X80977466Y-78903251D01*
X80977462Y-78903248D01*
X80813684Y-78793814D01*
X80813671Y-78793807D01*
X80631693Y-78718430D01*
X80631681Y-78718427D01*
X80438495Y-78680000D01*
X80040000Y-78680000D01*
X80040000Y-79380000D01*
X79540000Y-79380000D01*
X79540000Y-78680000D01*
X79141504Y-78680000D01*
X78948318Y-78718427D01*
X78948306Y-78718430D01*
X78766328Y-78793807D01*
X78766315Y-78793814D01*
X78602537Y-78903248D01*
X78602533Y-78903251D01*
X78463251Y-79042533D01*
X78463248Y-79042537D01*
X78353814Y-79206315D01*
X78353807Y-79206328D01*
X78278430Y-79388307D01*
X78278430Y-79388309D01*
X78270138Y-79430000D01*
X77009862Y-79430000D01*
X77001569Y-79388309D01*
X77001569Y-79388307D01*
X76926192Y-79206328D01*
X76926185Y-79206315D01*
X76816751Y-79042537D01*
X76816748Y-79042533D01*
X76677466Y-78903251D01*
X76677462Y-78903248D01*
X76513684Y-78793814D01*
X76513671Y-78793807D01*
X76331693Y-78718430D01*
X76331681Y-78718427D01*
X76138495Y-78680000D01*
X75890000Y-78680000D01*
X75890000Y-79380000D01*
X75390000Y-79380000D01*
X75390000Y-78680000D01*
X75141504Y-78680000D01*
X74948318Y-78718427D01*
X74948306Y-78718430D01*
X74766328Y-78793807D01*
X74766315Y-78793814D01*
X74602537Y-78903248D01*
X74602533Y-78903251D01*
X74463251Y-79042533D01*
X74463248Y-79042537D01*
X74353814Y-79206315D01*
X74353807Y-79206328D01*
X74278430Y-79388307D01*
X74278430Y-79388309D01*
X74270138Y-79430000D01*
X72950500Y-79430000D01*
X72950500Y-78324500D01*
X72970185Y-78257461D01*
X73022989Y-78211706D01*
X73074500Y-78200500D01*
X86977413Y-78200500D01*
X87044452Y-78220185D01*
G37*
%TD.AperFunction*%
%TD*%
M02*
