%TF.GenerationSoftware,KiCad,Pcbnew,10.0.0*%
%TF.CreationDate,2026-06-28T21:22:43+07:00*%
%TF.ProjectId,FindMyCharger,46696e64-4d79-4436-9861-726765722e6b,rev?*%
%TF.SameCoordinates,Original*%
%TF.FileFunction,Copper,L2,Inr*%
%TF.FilePolarity,Positive*%
%FSLAX46Y46*%
G04 Gerber Fmt 4.6, Leading zero omitted, Abs format (unit mm)*
G04 Created by KiCad (PCBNEW 10.0.0) date 2026-06-28 21:22:43*
%MOMM*%
%LPD*%
G01*
G04 APERTURE LIST*
G04 Aperture macros list*
%AMRoundRect*
0 Rectangle with rounded corners*
0 $1 Rounding radius*
0 $2 $3 $4 $5 $6 $7 $8 $9 X,Y pos of 4 corners*
0 Add a 4 corners polygon primitive as box body*
4,1,4,$2,$3,$4,$5,$6,$7,$8,$9,$2,$3,0*
0 Add four circle primitives for the rounded corners*
1,1,$1+$1,$2,$3*
1,1,$1+$1,$4,$5*
1,1,$1+$1,$6,$7*
1,1,$1+$1,$8,$9*
0 Add four rect primitives between the rounded corners*
20,1,$1+$1,$2,$3,$4,$5,0*
20,1,$1+$1,$4,$5,$6,$7,0*
20,1,$1+$1,$6,$7,$8,$9,0*
20,1,$1+$1,$8,$9,$2,$3,0*%
G04 Aperture macros list end*
%TA.AperFunction,ComponentPad*%
%ADD10C,1.600000*%
%TD*%
%TA.AperFunction,ComponentPad*%
%ADD11RoundRect,0.250000X0.550000X-0.550000X0.550000X0.550000X-0.550000X0.550000X-0.550000X-0.550000X0*%
%TD*%
%TA.AperFunction,ComponentPad*%
%ADD12C,1.800000*%
%TD*%
%TA.AperFunction,ComponentPad*%
%ADD13C,2.000000*%
%TD*%
%TA.AperFunction,ComponentPad*%
%ADD14O,2.100000X1.000000*%
%TD*%
%TA.AperFunction,ComponentPad*%
%ADD15O,1.800000X1.000000*%
%TD*%
%TA.AperFunction,ViaPad*%
%ADD16C,0.600000*%
%TD*%
G04 APERTURE END LIST*
D10*
%TO.N,Net-(BT1-+)*%
%TO.C,BAT+*%
X120750000Y-80150000D03*
D11*
%TO.N,GND*%
X120750000Y-83750000D03*
%TD*%
D12*
%TO.N,Net-(R1-Pad2)*%
%TO.C,SW1*%
X85740000Y-91847500D03*
%TO.N,GND*%
X90820000Y-91847500D03*
D13*
%TO.N,unconnected-(SW1-Pad3)*%
X91780000Y-89307500D03*
%TO.N,unconnected-(SW1-Pad4)*%
X84780000Y-89307500D03*
%TD*%
D14*
%TO.N,GND*%
%TO.C,J1*%
X79790000Y-79680000D03*
D15*
X75640000Y-79680000D03*
D14*
X79790000Y-88320000D03*
D15*
X75640000Y-88320000D03*
%TD*%
D16*
%TO.N,GND*%
X103500000Y-85750000D03*
%TO.N,Net-(U3-Vin)*%
X93006942Y-87393058D03*
%TO.N,GND*%
X79000000Y-90800000D03*
X112200000Y-81900000D03*
%TO.N,Net-(U1-DPC)*%
X87900000Y-78500000D03*
%TO.N,GND*%
X92300000Y-81750000D03*
X92000000Y-84900000D03*
X96575000Y-83942382D03*
%TO.N,Net-(D1-K)*%
X85740000Y-85500000D03*
%TO.N,Net-(C4-Pad1)*%
X86800000Y-88400000D03*
X87300000Y-90500000D03*
X88188909Y-91288909D03*
X84157658Y-82590870D03*
%TO.N,Net-(U1-NTC)*%
X94900000Y-82400000D03*
X94100000Y-79250000D03*
%TO.N,Net-(U1-KEY)*%
X89400000Y-85000000D03*
X89940000Y-79635833D03*
%TO.N,Net-(R1-Pad2)*%
X89900000Y-86915000D03*
X89700000Y-88900000D03*
%TO.N,Net-(U1-LED2)*%
X82500000Y-90800000D03*
X84000000Y-91207500D03*
X85900000Y-88287550D03*
X85005000Y-87034646D03*
%TO.N,Net-(U3-Vin)*%
X90232500Y-88165000D03*
%TO.N,Net-(C3-Pad1)*%
X90124335Y-84276176D03*
X90025000Y-82002662D03*
%TO.N,Net-(U1-LED1)*%
X83600000Y-83750000D03*
%TO.N,Net-(D3-A)*%
X77900000Y-95250000D03*
%TO.N,Net-(U1-DPC)*%
X79200000Y-84400000D03*
%TO.N,Net-(U1-DMC)*%
X87046467Y-78500000D03*
X81400000Y-83300000D03*
%TO.N,GND*%
X91500000Y-79560000D03*
X106250000Y-87500000D03*
X83048264Y-87451734D03*
X91500000Y-93500000D03*
X96000000Y-93750000D03*
X105750000Y-94250000D03*
X86500000Y-82000000D03*
X81950735Y-79700735D03*
%TO.N,Net-(U1-LED1)*%
X83000000Y-89500000D03*
%TO.N,Net-(U2-P0.21{slash}RST)*%
X110669506Y-85621999D03*
X109499998Y-87509934D03*
%TO.N,Net-(U2-SWCLK)*%
X107750000Y-84500000D03*
X101500000Y-92250000D03*
%TO.N,GND*%
X109250000Y-86749998D03*
%TO.N,Net-(D1-K)*%
X82104265Y-87395735D03*
%TO.N,Net-(D3-A)*%
X75225000Y-94025000D03*
%TD*%
%TA.AperFunction,Conductor*%
%TO.N,GND*%
G36*
X86205803Y-78220185D02*
G01*
X86251558Y-78272989D01*
X86261502Y-78342147D01*
X86260381Y-78348691D01*
X86245967Y-78421153D01*
X86245967Y-78578846D01*
X86276728Y-78733489D01*
X86276731Y-78733501D01*
X86337069Y-78879172D01*
X86337076Y-78879185D01*
X86424677Y-79010288D01*
X86424680Y-79010292D01*
X86536174Y-79121786D01*
X86536178Y-79121789D01*
X86667281Y-79209390D01*
X86667294Y-79209397D01*
X86781399Y-79256660D01*
X86812970Y-79269737D01*
X86967620Y-79300499D01*
X86967623Y-79300500D01*
X86967625Y-79300500D01*
X87125311Y-79300500D01*
X87125312Y-79300499D01*
X87279964Y-79269737D01*
X87425646Y-79209394D01*
X87425647Y-79209392D01*
X87425780Y-79209338D01*
X87495250Y-79201869D01*
X87520685Y-79209338D01*
X87634932Y-79256660D01*
X87666503Y-79269737D01*
X87821153Y-79300499D01*
X87821156Y-79300500D01*
X87821158Y-79300500D01*
X87978844Y-79300500D01*
X87978845Y-79300499D01*
X88133497Y-79269737D01*
X88279179Y-79209394D01*
X88410289Y-79121789D01*
X88521789Y-79010289D01*
X88609394Y-78879179D01*
X88612854Y-78870827D01*
X88667163Y-78739711D01*
X88669737Y-78733497D01*
X88700500Y-78578842D01*
X88700500Y-78421158D01*
X88700500Y-78421155D01*
X88700499Y-78421153D01*
X88686086Y-78348691D01*
X88692313Y-78279100D01*
X88735176Y-78223922D01*
X88801066Y-78200678D01*
X88807703Y-78200500D01*
X122425500Y-78200500D01*
X122492539Y-78220185D01*
X122538294Y-78272989D01*
X122549500Y-78324500D01*
X122549500Y-95675500D01*
X122529815Y-95742539D01*
X122477011Y-95788294D01*
X122425500Y-95799500D01*
X119124000Y-95799500D01*
X119056961Y-95779815D01*
X119011206Y-95727011D01*
X119000000Y-95675500D01*
X119000000Y-87250000D01*
X110341639Y-87250000D01*
X110274600Y-87230315D01*
X110228845Y-87177511D01*
X110227078Y-87173452D01*
X110209395Y-87130761D01*
X110209388Y-87130748D01*
X110121787Y-86999645D01*
X110121784Y-86999641D01*
X110010290Y-86888147D01*
X110010286Y-86888144D01*
X109879183Y-86800543D01*
X109879170Y-86800536D01*
X109733499Y-86740198D01*
X109733487Y-86740195D01*
X109578843Y-86709434D01*
X109578840Y-86709434D01*
X109421156Y-86709434D01*
X109421153Y-86709434D01*
X109266508Y-86740195D01*
X109266496Y-86740198D01*
X109120825Y-86800536D01*
X109120812Y-86800543D01*
X108989709Y-86888144D01*
X108989705Y-86888147D01*
X108878211Y-86999641D01*
X108878208Y-86999645D01*
X108790607Y-87130748D01*
X108790600Y-87130761D01*
X108772918Y-87173452D01*
X108729078Y-87227856D01*
X108662783Y-87249921D01*
X108658357Y-87250000D01*
X108000000Y-87250000D01*
X108000000Y-95675500D01*
X107980315Y-95742539D01*
X107927511Y-95788294D01*
X107876000Y-95799500D01*
X78724424Y-95799500D01*
X78657385Y-95779815D01*
X78611630Y-95727011D01*
X78601686Y-95657853D01*
X78609863Y-95628048D01*
X78669735Y-95483501D01*
X78669737Y-95483497D01*
X78700500Y-95328842D01*
X78700500Y-95171158D01*
X78700500Y-95171155D01*
X78700499Y-95171153D01*
X78669738Y-95016510D01*
X78669737Y-95016503D01*
X78669735Y-95016498D01*
X78609397Y-94870827D01*
X78609390Y-94870814D01*
X78521789Y-94739711D01*
X78521786Y-94739707D01*
X78410292Y-94628213D01*
X78410288Y-94628210D01*
X78279185Y-94540609D01*
X78279172Y-94540602D01*
X78133501Y-94480264D01*
X78133489Y-94480261D01*
X77978845Y-94449500D01*
X77978842Y-94449500D01*
X77821158Y-94449500D01*
X77821155Y-94449500D01*
X77666510Y-94480261D01*
X77666498Y-94480264D01*
X77520827Y-94540602D01*
X77520814Y-94540609D01*
X77389711Y-94628210D01*
X77389707Y-94628213D01*
X77278213Y-94739707D01*
X77278210Y-94739711D01*
X77190609Y-94870814D01*
X77190602Y-94870827D01*
X77130264Y-95016498D01*
X77130261Y-95016510D01*
X77099500Y-95171153D01*
X77099500Y-95328846D01*
X77130261Y-95483489D01*
X77130264Y-95483501D01*
X77190137Y-95628048D01*
X77197606Y-95697517D01*
X77166331Y-95759996D01*
X77106241Y-95795648D01*
X77075576Y-95799500D01*
X73074500Y-95799500D01*
X73007461Y-95779815D01*
X72961706Y-95727011D01*
X72950500Y-95675500D01*
X72950500Y-93946153D01*
X74424500Y-93946153D01*
X74424500Y-94103846D01*
X74455261Y-94258489D01*
X74455264Y-94258501D01*
X74515602Y-94404172D01*
X74515609Y-94404185D01*
X74603210Y-94535288D01*
X74603213Y-94535292D01*
X74714707Y-94646786D01*
X74714711Y-94646789D01*
X74845814Y-94734390D01*
X74845827Y-94734397D01*
X74991498Y-94794735D01*
X74991503Y-94794737D01*
X75146153Y-94825499D01*
X75146156Y-94825500D01*
X75146158Y-94825500D01*
X75303844Y-94825500D01*
X75303845Y-94825499D01*
X75458497Y-94794737D01*
X75604179Y-94734394D01*
X75735289Y-94646789D01*
X75846789Y-94535289D01*
X75934394Y-94404179D01*
X75994737Y-94258497D01*
X76025500Y-94103842D01*
X76025500Y-93946158D01*
X76025500Y-93946155D01*
X76025499Y-93946153D01*
X75994738Y-93791510D01*
X75994737Y-93791503D01*
X75994735Y-93791498D01*
X75934397Y-93645827D01*
X75934390Y-93645814D01*
X75846789Y-93514711D01*
X75846786Y-93514707D01*
X75735292Y-93403213D01*
X75735288Y-93403210D01*
X75604185Y-93315609D01*
X75604172Y-93315602D01*
X75458501Y-93255264D01*
X75458489Y-93255261D01*
X75303845Y-93224500D01*
X75303842Y-93224500D01*
X75146158Y-93224500D01*
X75146155Y-93224500D01*
X74991510Y-93255261D01*
X74991498Y-93255264D01*
X74845827Y-93315602D01*
X74845814Y-93315609D01*
X74714711Y-93403210D01*
X74714707Y-93403213D01*
X74603213Y-93514707D01*
X74603210Y-93514711D01*
X74515609Y-93645814D01*
X74515602Y-93645827D01*
X74455264Y-93791498D01*
X74455261Y-93791510D01*
X74424500Y-93946153D01*
X72950500Y-93946153D01*
X72950500Y-90721153D01*
X81699500Y-90721153D01*
X81699500Y-90878846D01*
X81730261Y-91033489D01*
X81730264Y-91033501D01*
X81790602Y-91179172D01*
X81790609Y-91179185D01*
X81878210Y-91310288D01*
X81878213Y-91310292D01*
X81989707Y-91421786D01*
X81989711Y-91421789D01*
X82120814Y-91509390D01*
X82120827Y-91509397D01*
X82196181Y-91540609D01*
X82266503Y-91569737D01*
X82421153Y-91600499D01*
X82421156Y-91600500D01*
X82421158Y-91600500D01*
X82578844Y-91600500D01*
X82578845Y-91600499D01*
X82733497Y-91569737D01*
X82854660Y-91519550D01*
X82879172Y-91509397D01*
X82879172Y-91509396D01*
X82879179Y-91509394D01*
X83010289Y-91421789D01*
X83028982Y-91403096D01*
X83090304Y-91369609D01*
X83159996Y-91374592D01*
X83215930Y-91416462D01*
X83231226Y-91443323D01*
X83290602Y-91586672D01*
X83290609Y-91586685D01*
X83378210Y-91717788D01*
X83378213Y-91717792D01*
X83489707Y-91829286D01*
X83489711Y-91829289D01*
X83620814Y-91916890D01*
X83620827Y-91916897D01*
X83719389Y-91957722D01*
X83766503Y-91977237D01*
X83921153Y-92007999D01*
X83921156Y-92008000D01*
X83921158Y-92008000D01*
X84078844Y-92008000D01*
X84181464Y-91987587D01*
X84212768Y-91981360D01*
X84282360Y-91987587D01*
X84337537Y-92030450D01*
X84359433Y-92083578D01*
X84373985Y-92175452D01*
X84442103Y-92385103D01*
X84442104Y-92385106D01*
X84492234Y-92483489D01*
X84542049Y-92581256D01*
X84542187Y-92581525D01*
X84671752Y-92759858D01*
X84671756Y-92759863D01*
X84827636Y-92915743D01*
X84827641Y-92915747D01*
X84887717Y-92959394D01*
X85005978Y-93045315D01*
X85134375Y-93110737D01*
X85202393Y-93145395D01*
X85202396Y-93145396D01*
X85307221Y-93179455D01*
X85412049Y-93213515D01*
X85629778Y-93248000D01*
X85629779Y-93248000D01*
X85850221Y-93248000D01*
X85850222Y-93248000D01*
X86067951Y-93213515D01*
X86277606Y-93145395D01*
X86474022Y-93045315D01*
X86652365Y-92915742D01*
X86808242Y-92759865D01*
X86937815Y-92581522D01*
X87037895Y-92385106D01*
X87106015Y-92175451D01*
X87140500Y-91957722D01*
X87140500Y-91737278D01*
X87106015Y-91519549D01*
X87087265Y-91461844D01*
X87085271Y-91392006D01*
X87121351Y-91332173D01*
X87184051Y-91301344D01*
X87206967Y-91299541D01*
X87217061Y-91299685D01*
X87221158Y-91300500D01*
X87274128Y-91300500D01*
X87275038Y-91300513D01*
X87307616Y-91310585D01*
X87340307Y-91320185D01*
X87340908Y-91320879D01*
X87341790Y-91321152D01*
X87363771Y-91347264D01*
X87386062Y-91372989D01*
X87386457Y-91374213D01*
X87386786Y-91374604D01*
X87386921Y-91375648D01*
X87394885Y-91400309D01*
X87419170Y-91522398D01*
X87419173Y-91522410D01*
X87479511Y-91668081D01*
X87479518Y-91668094D01*
X87567119Y-91799197D01*
X87567122Y-91799201D01*
X87678616Y-91910695D01*
X87678620Y-91910698D01*
X87809723Y-91998299D01*
X87809736Y-91998306D01*
X87887340Y-92030450D01*
X87955412Y-92058646D01*
X88080753Y-92083578D01*
X88110062Y-92089408D01*
X88110065Y-92089409D01*
X88110067Y-92089409D01*
X88267753Y-92089409D01*
X88267754Y-92089408D01*
X88422406Y-92058646D01*
X88568088Y-91998303D01*
X88699198Y-91910698D01*
X88810698Y-91799198D01*
X88898303Y-91668088D01*
X88958646Y-91522406D01*
X88989409Y-91367751D01*
X88989409Y-91210067D01*
X88989409Y-91210064D01*
X88989408Y-91210062D01*
X88983265Y-91179179D01*
X88958646Y-91055412D01*
X88930024Y-90986311D01*
X88898306Y-90909736D01*
X88898299Y-90909723D01*
X88810698Y-90778620D01*
X88810695Y-90778616D01*
X88699201Y-90667122D01*
X88699197Y-90667119D01*
X88568094Y-90579518D01*
X88568081Y-90579511D01*
X88422410Y-90519173D01*
X88422398Y-90519170D01*
X88267754Y-90488409D01*
X88267751Y-90488409D01*
X88215641Y-90488409D01*
X88148602Y-90468724D01*
X88102847Y-90415920D01*
X88094024Y-90388600D01*
X88079063Y-90313387D01*
X88069737Y-90266503D01*
X88046082Y-90209394D01*
X88009397Y-90120827D01*
X88009390Y-90120814D01*
X87921789Y-89989711D01*
X87921786Y-89989707D01*
X87810292Y-89878213D01*
X87810288Y-89878210D01*
X87679185Y-89790609D01*
X87679172Y-89790602D01*
X87533501Y-89730264D01*
X87533489Y-89730261D01*
X87378845Y-89699500D01*
X87378842Y-89699500D01*
X87221158Y-89699500D01*
X87221155Y-89699500D01*
X87066510Y-89730261D01*
X87066498Y-89730264D01*
X86920827Y-89790602D01*
X86920814Y-89790609D01*
X86789711Y-89878210D01*
X86789707Y-89878213D01*
X86678213Y-89989707D01*
X86678210Y-89989711D01*
X86590609Y-90120814D01*
X86590602Y-90120827D01*
X86530264Y-90266498D01*
X86530261Y-90266510D01*
X86499500Y-90421153D01*
X86499500Y-90460315D01*
X86479815Y-90527354D01*
X86427011Y-90573109D01*
X86357853Y-90583053D01*
X86319206Y-90570800D01*
X86277612Y-90549607D01*
X86277603Y-90549603D01*
X86067952Y-90481485D01*
X86011160Y-90472490D01*
X85948025Y-90442561D01*
X85911094Y-90383249D01*
X85912092Y-90313387D01*
X85930236Y-90277137D01*
X86063343Y-90093933D01*
X86170568Y-89883492D01*
X86243553Y-89658868D01*
X86248448Y-89627964D01*
X86280500Y-89425597D01*
X86280500Y-89236850D01*
X86300185Y-89169811D01*
X86352989Y-89124056D01*
X86422147Y-89114112D01*
X86451952Y-89122289D01*
X86566498Y-89169735D01*
X86566503Y-89169737D01*
X86721153Y-89200499D01*
X86721156Y-89200500D01*
X86721158Y-89200500D01*
X86878844Y-89200500D01*
X86878845Y-89200499D01*
X87033497Y-89169737D01*
X87151592Y-89120821D01*
X87179172Y-89109397D01*
X87179172Y-89109396D01*
X87179179Y-89109394D01*
X87310289Y-89021789D01*
X87421789Y-88910289D01*
X87481348Y-88821153D01*
X88899500Y-88821153D01*
X88899500Y-88978846D01*
X88930261Y-89133489D01*
X88930264Y-89133501D01*
X88990602Y-89279172D01*
X88990609Y-89279185D01*
X89078210Y-89410288D01*
X89078213Y-89410292D01*
X89189707Y-89521786D01*
X89189711Y-89521789D01*
X89320814Y-89609390D01*
X89320827Y-89609397D01*
X89466498Y-89669735D01*
X89466503Y-89669737D01*
X89616131Y-89699500D01*
X89621153Y-89700499D01*
X89621156Y-89700500D01*
X89621158Y-89700500D01*
X89778844Y-89700500D01*
X89778845Y-89700499D01*
X89933497Y-89669737D01*
X90079179Y-89609394D01*
X90125593Y-89578381D01*
X90192267Y-89557503D01*
X90259648Y-89575986D01*
X90306339Y-89627964D01*
X90314541Y-89654312D01*
X90315309Y-89654128D01*
X90316446Y-89658864D01*
X90316447Y-89658868D01*
X90389432Y-89883492D01*
X90496657Y-90093933D01*
X90630089Y-90277586D01*
X90653569Y-90343392D01*
X90637744Y-90411446D01*
X90587638Y-90460140D01*
X90549170Y-90472944D01*
X90492164Y-90481973D01*
X90282589Y-90550067D01*
X90086233Y-90650116D01*
X90022485Y-90696431D01*
X90022485Y-90696432D01*
X90608941Y-91282887D01*
X90588409Y-91288389D01*
X90451592Y-91367381D01*
X90339881Y-91479092D01*
X90260889Y-91615909D01*
X90255387Y-91636440D01*
X89668932Y-91049985D01*
X89668931Y-91049985D01*
X89622616Y-91113733D01*
X89522567Y-91310089D01*
X89454473Y-91519664D01*
X89420000Y-91737318D01*
X89420000Y-91957681D01*
X89454473Y-92175335D01*
X89522567Y-92384910D01*
X89622611Y-92581256D01*
X89668932Y-92645013D01*
X90255387Y-92058558D01*
X90260889Y-92079091D01*
X90339881Y-92215908D01*
X90451592Y-92327619D01*
X90588409Y-92406611D01*
X90608939Y-92412112D01*
X90022485Y-92998565D01*
X90022485Y-92998566D01*
X90086243Y-93044888D01*
X90282589Y-93144932D01*
X90492164Y-93213026D01*
X90709819Y-93247500D01*
X90930181Y-93247500D01*
X91147835Y-93213026D01*
X91357410Y-93144932D01*
X91553760Y-93044886D01*
X91617513Y-92998566D01*
X91617514Y-92998566D01*
X91031059Y-92412112D01*
X91051591Y-92406611D01*
X91188408Y-92327619D01*
X91300119Y-92215908D01*
X91379111Y-92079091D01*
X91384612Y-92058559D01*
X91971066Y-92645014D01*
X91971066Y-92645013D01*
X92017386Y-92581260D01*
X92117432Y-92384910D01*
X92185526Y-92175335D01*
X92186189Y-92171153D01*
X100699500Y-92171153D01*
X100699500Y-92328846D01*
X100730261Y-92483489D01*
X100730264Y-92483501D01*
X100790602Y-92629172D01*
X100790609Y-92629185D01*
X100878210Y-92760288D01*
X100878213Y-92760292D01*
X100989707Y-92871786D01*
X100989711Y-92871789D01*
X101120814Y-92959390D01*
X101120827Y-92959397D01*
X101215391Y-92998566D01*
X101266503Y-93019737D01*
X101421153Y-93050499D01*
X101421156Y-93050500D01*
X101421158Y-93050500D01*
X101578844Y-93050500D01*
X101578845Y-93050499D01*
X101733497Y-93019737D01*
X101879179Y-92959394D01*
X102010289Y-92871789D01*
X102121789Y-92760289D01*
X102209394Y-92629179D01*
X102269737Y-92483497D01*
X102300500Y-92328842D01*
X102300500Y-92171158D01*
X102300500Y-92171155D01*
X102300499Y-92171153D01*
X102283079Y-92083578D01*
X102269737Y-92016503D01*
X102257760Y-91987587D01*
X102209397Y-91870827D01*
X102209390Y-91870814D01*
X102121789Y-91739711D01*
X102121786Y-91739707D01*
X102010292Y-91628213D01*
X102010288Y-91628210D01*
X101879185Y-91540609D01*
X101879172Y-91540602D01*
X101733501Y-91480264D01*
X101733489Y-91480261D01*
X101578845Y-91449500D01*
X101578842Y-91449500D01*
X101421158Y-91449500D01*
X101421155Y-91449500D01*
X101266510Y-91480261D01*
X101266498Y-91480264D01*
X101120827Y-91540602D01*
X101120814Y-91540609D01*
X100989711Y-91628210D01*
X100989707Y-91628213D01*
X100878213Y-91739707D01*
X100878210Y-91739711D01*
X100790609Y-91870814D01*
X100790602Y-91870827D01*
X100730264Y-92016498D01*
X100730261Y-92016510D01*
X100699500Y-92171153D01*
X92186189Y-92171153D01*
X92190226Y-92145667D01*
X92190226Y-92145666D01*
X92220000Y-91957681D01*
X92220000Y-91737318D01*
X92185526Y-91519664D01*
X92117432Y-91310089D01*
X92017384Y-91113736D01*
X91924805Y-90986311D01*
X91901325Y-90920505D01*
X91917150Y-90852451D01*
X91967256Y-90803756D01*
X92005725Y-90790953D01*
X92031592Y-90786855D01*
X92131368Y-90771053D01*
X92355992Y-90698068D01*
X92566433Y-90590843D01*
X92757510Y-90452017D01*
X92924517Y-90285010D01*
X93063343Y-90093933D01*
X93170568Y-89883492D01*
X93243553Y-89658868D01*
X93248448Y-89627964D01*
X93280500Y-89425597D01*
X93280500Y-89189402D01*
X93243553Y-88956131D01*
X93199697Y-88821158D01*
X93170568Y-88731508D01*
X93170566Y-88731505D01*
X93170566Y-88731503D01*
X93103335Y-88599556D01*
X93063343Y-88521067D01*
X92968438Y-88390442D01*
X92944959Y-88324637D01*
X92960784Y-88256584D01*
X93010890Y-88207889D01*
X93068757Y-88193558D01*
X93085786Y-88193558D01*
X93085787Y-88193557D01*
X93240439Y-88162795D01*
X93386121Y-88102452D01*
X93517231Y-88014847D01*
X93628731Y-87903347D01*
X93716336Y-87772237D01*
X93717392Y-87769689D01*
X93740161Y-87714717D01*
X93776679Y-87626555D01*
X93807442Y-87471900D01*
X93807442Y-87314216D01*
X93807442Y-87314213D01*
X93807441Y-87314211D01*
X93798276Y-87268135D01*
X93776679Y-87159561D01*
X93764747Y-87130755D01*
X93716339Y-87013885D01*
X93716332Y-87013872D01*
X93628731Y-86882769D01*
X93628728Y-86882765D01*
X93517234Y-86771271D01*
X93517230Y-86771268D01*
X93386127Y-86683667D01*
X93386114Y-86683660D01*
X93240443Y-86623322D01*
X93240431Y-86623319D01*
X93085787Y-86592558D01*
X93085784Y-86592558D01*
X92928100Y-86592558D01*
X92928097Y-86592558D01*
X92773452Y-86623319D01*
X92773440Y-86623322D01*
X92627769Y-86683660D01*
X92627756Y-86683667D01*
X92496653Y-86771268D01*
X92496649Y-86771271D01*
X92385155Y-86882765D01*
X92385152Y-86882769D01*
X92297551Y-87013872D01*
X92297544Y-87013885D01*
X92237206Y-87159556D01*
X92237203Y-87159568D01*
X92206442Y-87314211D01*
X92206442Y-87471904D01*
X92236775Y-87624394D01*
X92237205Y-87626555D01*
X92241240Y-87636296D01*
X92256272Y-87672588D01*
X92263739Y-87742057D01*
X92232464Y-87804536D01*
X92172374Y-87840188D01*
X92122312Y-87842512D01*
X91898097Y-87807000D01*
X91898092Y-87807000D01*
X91661908Y-87807000D01*
X91661903Y-87807000D01*
X91428631Y-87843946D01*
X91204000Y-87916934D01*
X91151937Y-87943462D01*
X91083267Y-87956358D01*
X91018527Y-87930081D01*
X90981082Y-87880429D01*
X90941897Y-87785827D01*
X90941890Y-87785814D01*
X90854289Y-87654711D01*
X90854286Y-87654707D01*
X90742792Y-87543213D01*
X90742788Y-87543210D01*
X90638631Y-87473614D01*
X90593826Y-87420002D01*
X90585119Y-87350677D01*
X90604422Y-87301619D01*
X90609394Y-87294179D01*
X90669737Y-87148497D01*
X90700500Y-86993842D01*
X90700500Y-86836158D01*
X90700500Y-86836155D01*
X90700499Y-86836153D01*
X90693414Y-86800536D01*
X90669737Y-86681503D01*
X90646746Y-86625998D01*
X90609397Y-86535827D01*
X90609390Y-86535814D01*
X90521789Y-86404711D01*
X90521786Y-86404707D01*
X90410292Y-86293213D01*
X90410288Y-86293210D01*
X90279185Y-86205609D01*
X90279172Y-86205602D01*
X90133501Y-86145264D01*
X90133489Y-86145261D01*
X89978845Y-86114500D01*
X89978842Y-86114500D01*
X89821158Y-86114500D01*
X89821155Y-86114500D01*
X89666510Y-86145261D01*
X89666498Y-86145264D01*
X89520827Y-86205602D01*
X89520814Y-86205609D01*
X89389711Y-86293210D01*
X89389707Y-86293213D01*
X89278213Y-86404707D01*
X89278210Y-86404711D01*
X89190609Y-86535814D01*
X89190602Y-86535827D01*
X89130264Y-86681498D01*
X89130261Y-86681510D01*
X89099500Y-86836153D01*
X89099500Y-86993846D01*
X89130261Y-87148489D01*
X89130264Y-87148501D01*
X89190602Y-87294172D01*
X89190609Y-87294185D01*
X89278210Y-87425288D01*
X89278213Y-87425292D01*
X89389707Y-87536786D01*
X89389711Y-87536789D01*
X89493868Y-87606385D01*
X89538673Y-87659997D01*
X89547380Y-87729322D01*
X89528080Y-87778376D01*
X89523111Y-87785812D01*
X89523102Y-87785828D01*
X89462764Y-87931498D01*
X89462761Y-87931508D01*
X89432271Y-88084792D01*
X89399886Y-88146703D01*
X89358108Y-88175161D01*
X89320821Y-88190606D01*
X89320814Y-88190609D01*
X89189711Y-88278210D01*
X89189707Y-88278213D01*
X89078213Y-88389707D01*
X89078210Y-88389711D01*
X88990609Y-88520814D01*
X88990602Y-88520827D01*
X88930264Y-88666498D01*
X88930261Y-88666510D01*
X88899500Y-88821153D01*
X87481348Y-88821153D01*
X87509394Y-88779179D01*
X87569737Y-88633497D01*
X87600500Y-88478842D01*
X87600500Y-88321158D01*
X87600500Y-88321155D01*
X87600499Y-88321153D01*
X87587655Y-88256584D01*
X87569737Y-88166503D01*
X87561536Y-88146703D01*
X87509397Y-88020827D01*
X87509390Y-88020814D01*
X87421789Y-87889711D01*
X87421786Y-87889707D01*
X87310292Y-87778213D01*
X87310288Y-87778210D01*
X87179185Y-87690609D01*
X87179172Y-87690602D01*
X87033501Y-87630264D01*
X87033489Y-87630261D01*
X86878845Y-87599500D01*
X86878842Y-87599500D01*
X86721158Y-87599500D01*
X86721155Y-87599500D01*
X86566505Y-87630261D01*
X86566501Y-87630263D01*
X86498505Y-87658427D01*
X86429035Y-87665894D01*
X86382163Y-87646967D01*
X86279185Y-87578159D01*
X86279172Y-87578152D01*
X86133501Y-87517814D01*
X86133489Y-87517811D01*
X85978845Y-87487050D01*
X85978842Y-87487050D01*
X85869642Y-87487050D01*
X85802603Y-87467365D01*
X85756848Y-87414561D01*
X85746904Y-87345403D01*
X85755081Y-87315598D01*
X85765070Y-87291480D01*
X85774737Y-87268143D01*
X85805500Y-87113488D01*
X85805500Y-86955804D01*
X85805500Y-86955801D01*
X85805499Y-86955799D01*
X85790972Y-86882769D01*
X85774737Y-86801149D01*
X85762361Y-86771271D01*
X85714397Y-86655473D01*
X85714390Y-86655460D01*
X85626789Y-86524357D01*
X85626786Y-86524353D01*
X85614614Y-86512181D01*
X85581129Y-86450858D01*
X85586113Y-86381166D01*
X85627985Y-86325233D01*
X85693449Y-86300816D01*
X85702295Y-86300500D01*
X85818844Y-86300500D01*
X85818845Y-86300499D01*
X85973497Y-86269737D01*
X86119179Y-86209394D01*
X86250289Y-86121789D01*
X86361789Y-86010289D01*
X86449394Y-85879179D01*
X86509737Y-85733497D01*
X86540500Y-85578842D01*
X86540500Y-85421158D01*
X86540500Y-85421155D01*
X86540499Y-85421153D01*
X86509738Y-85266510D01*
X86509737Y-85266503D01*
X86482398Y-85200500D01*
X86449397Y-85120827D01*
X86449390Y-85120814D01*
X86361790Y-84989712D01*
X86361784Y-84989705D01*
X86293232Y-84921153D01*
X88599500Y-84921153D01*
X88599500Y-85078846D01*
X88630261Y-85233489D01*
X88630264Y-85233501D01*
X88690602Y-85379172D01*
X88690609Y-85379185D01*
X88778210Y-85510288D01*
X88778213Y-85510292D01*
X88889707Y-85621786D01*
X88889711Y-85621789D01*
X89020814Y-85709390D01*
X89020827Y-85709397D01*
X89166498Y-85769735D01*
X89166503Y-85769737D01*
X89321153Y-85800499D01*
X89321156Y-85800500D01*
X89321158Y-85800500D01*
X89478844Y-85800500D01*
X89478845Y-85800499D01*
X89633497Y-85769737D01*
X89779179Y-85709394D01*
X89910289Y-85621789D01*
X89988926Y-85543152D01*
X109869006Y-85543152D01*
X109869006Y-85700845D01*
X109899767Y-85855488D01*
X109899770Y-85855500D01*
X109960108Y-86001171D01*
X109960115Y-86001184D01*
X110047716Y-86132287D01*
X110047719Y-86132291D01*
X110159213Y-86243785D01*
X110159217Y-86243788D01*
X110290320Y-86331389D01*
X110290333Y-86331396D01*
X110436004Y-86391734D01*
X110436009Y-86391736D01*
X110542186Y-86412856D01*
X110590659Y-86422498D01*
X110590662Y-86422499D01*
X110590664Y-86422499D01*
X110748350Y-86422499D01*
X110748351Y-86422498D01*
X110903003Y-86391736D01*
X111048685Y-86331393D01*
X111179795Y-86243788D01*
X111291295Y-86132288D01*
X111378900Y-86001178D01*
X111439243Y-85855496D01*
X111470006Y-85700841D01*
X111470006Y-85543157D01*
X111470006Y-85543154D01*
X111470005Y-85543152D01*
X111455091Y-85468174D01*
X111439243Y-85388502D01*
X111435381Y-85379179D01*
X111378903Y-85242826D01*
X111378896Y-85242813D01*
X111291295Y-85111710D01*
X111291292Y-85111706D01*
X111179798Y-85000212D01*
X111179794Y-85000209D01*
X111048691Y-84912608D01*
X111048678Y-84912601D01*
X110903007Y-84852263D01*
X110902995Y-84852260D01*
X110748351Y-84821499D01*
X110748348Y-84821499D01*
X110590664Y-84821499D01*
X110590661Y-84821499D01*
X110436016Y-84852260D01*
X110436004Y-84852263D01*
X110290333Y-84912601D01*
X110290320Y-84912608D01*
X110159217Y-85000209D01*
X110159213Y-85000212D01*
X110047719Y-85111706D01*
X110047716Y-85111710D01*
X109960115Y-85242813D01*
X109960108Y-85242826D01*
X109899770Y-85388497D01*
X109899767Y-85388509D01*
X109869006Y-85543152D01*
X89988926Y-85543152D01*
X90021789Y-85510289D01*
X90036330Y-85488526D01*
X90049930Y-85468174D01*
X90109390Y-85379185D01*
X90109390Y-85379184D01*
X90109394Y-85379179D01*
X90169737Y-85233497D01*
X90184674Y-85158400D01*
X90217058Y-85096492D01*
X90277774Y-85061918D01*
X90282051Y-85060986D01*
X90357832Y-85045913D01*
X90503514Y-84985570D01*
X90634624Y-84897965D01*
X90746124Y-84786465D01*
X90833729Y-84655355D01*
X90894072Y-84509673D01*
X90911679Y-84421158D01*
X90911680Y-84421153D01*
X106949500Y-84421153D01*
X106949500Y-84578846D01*
X106980261Y-84733489D01*
X106980264Y-84733501D01*
X107040602Y-84879172D01*
X107040609Y-84879185D01*
X107128210Y-85010288D01*
X107128213Y-85010292D01*
X107239707Y-85121786D01*
X107239711Y-85121789D01*
X107370814Y-85209390D01*
X107370827Y-85209397D01*
X107508683Y-85266498D01*
X107516503Y-85269737D01*
X107671153Y-85300499D01*
X107671156Y-85300500D01*
X107671158Y-85300500D01*
X107828844Y-85300500D01*
X107828845Y-85300499D01*
X107983497Y-85269737D01*
X108129179Y-85209394D01*
X108260289Y-85121789D01*
X108371789Y-85010289D01*
X108459394Y-84879179D01*
X108519737Y-84733497D01*
X108550500Y-84578842D01*
X108550500Y-84421158D01*
X108550500Y-84421155D01*
X108550499Y-84421153D01*
X108536343Y-84349986D01*
X119450001Y-84349986D01*
X119460494Y-84452697D01*
X119515641Y-84619119D01*
X119515643Y-84619124D01*
X119607684Y-84768345D01*
X119731654Y-84892315D01*
X119880875Y-84984356D01*
X119880880Y-84984358D01*
X120047302Y-85039505D01*
X120047309Y-85039506D01*
X120150019Y-85049999D01*
X120499999Y-85049999D01*
X121000000Y-85049999D01*
X121349972Y-85049999D01*
X121349986Y-85049998D01*
X121452697Y-85039505D01*
X121619119Y-84984358D01*
X121619124Y-84984356D01*
X121768345Y-84892315D01*
X121892315Y-84768345D01*
X121984356Y-84619124D01*
X121984358Y-84619119D01*
X122039505Y-84452697D01*
X122039506Y-84452690D01*
X122049999Y-84349986D01*
X122050000Y-84349973D01*
X122050000Y-84000000D01*
X121000000Y-84000000D01*
X121000000Y-85049999D01*
X120499999Y-85049999D01*
X120500000Y-85049998D01*
X120500000Y-84000000D01*
X119450001Y-84000000D01*
X119450001Y-84349986D01*
X108536343Y-84349986D01*
X108536340Y-84349973D01*
X108519737Y-84266503D01*
X108517163Y-84260288D01*
X108459397Y-84120827D01*
X108459390Y-84120814D01*
X108390377Y-84017529D01*
X108371789Y-83989711D01*
X108371786Y-83989707D01*
X108260292Y-83878213D01*
X108260288Y-83878210D01*
X108129185Y-83790609D01*
X108129172Y-83790602D01*
X107983501Y-83730264D01*
X107983489Y-83730261D01*
X107884165Y-83710504D01*
X120450000Y-83710504D01*
X120450000Y-83789496D01*
X120470444Y-83865796D01*
X120509940Y-83934205D01*
X120565795Y-83990060D01*
X120634204Y-84029556D01*
X120710504Y-84050000D01*
X120789496Y-84050000D01*
X120865796Y-84029556D01*
X120934205Y-83990060D01*
X120990060Y-83934205D01*
X121029556Y-83865796D01*
X121050000Y-83789496D01*
X121050000Y-83710504D01*
X121029556Y-83634204D01*
X120990060Y-83565795D01*
X120934205Y-83509940D01*
X120916988Y-83500000D01*
X121000000Y-83500000D01*
X122049999Y-83500000D01*
X122049999Y-83150028D01*
X122049998Y-83150013D01*
X122039505Y-83047302D01*
X121984358Y-82880880D01*
X121984356Y-82880875D01*
X121892315Y-82731654D01*
X121768345Y-82607684D01*
X121619124Y-82515643D01*
X121619119Y-82515641D01*
X121452697Y-82460494D01*
X121452690Y-82460493D01*
X121349986Y-82450000D01*
X121000000Y-82450000D01*
X121000000Y-83500000D01*
X120916988Y-83500000D01*
X120865796Y-83470444D01*
X120789496Y-83450000D01*
X120710504Y-83450000D01*
X120634204Y-83470444D01*
X120565795Y-83509940D01*
X120509940Y-83565795D01*
X120470444Y-83634204D01*
X120450000Y-83710504D01*
X107884165Y-83710504D01*
X107828845Y-83699500D01*
X107828842Y-83699500D01*
X107671158Y-83699500D01*
X107671155Y-83699500D01*
X107516510Y-83730261D01*
X107516498Y-83730264D01*
X107370827Y-83790602D01*
X107370814Y-83790609D01*
X107239711Y-83878210D01*
X107239707Y-83878213D01*
X107128213Y-83989707D01*
X107128210Y-83989711D01*
X107040609Y-84120814D01*
X107040602Y-84120827D01*
X106980264Y-84266498D01*
X106980261Y-84266510D01*
X106949500Y-84421153D01*
X90911680Y-84421153D01*
X90917703Y-84390875D01*
X90917703Y-84390874D01*
X90924835Y-84355020D01*
X90924835Y-84197331D01*
X90924834Y-84197329D01*
X90911278Y-84129179D01*
X90894072Y-84042679D01*
X90880285Y-84009394D01*
X90833732Y-83897003D01*
X90833725Y-83896990D01*
X90746124Y-83765887D01*
X90746121Y-83765883D01*
X90634627Y-83654389D01*
X90634623Y-83654386D01*
X90503520Y-83566785D01*
X90503507Y-83566778D01*
X90357836Y-83506440D01*
X90357824Y-83506437D01*
X90203180Y-83475676D01*
X90203177Y-83475676D01*
X90045493Y-83475676D01*
X90045490Y-83475676D01*
X89890845Y-83506437D01*
X89890833Y-83506440D01*
X89745162Y-83566778D01*
X89745149Y-83566785D01*
X89614046Y-83654386D01*
X89614042Y-83654389D01*
X89502548Y-83765883D01*
X89502545Y-83765887D01*
X89414944Y-83896990D01*
X89414937Y-83897003D01*
X89354599Y-84042674D01*
X89354596Y-84042684D01*
X89339660Y-84117773D01*
X89307275Y-84179684D01*
X89246559Y-84214258D01*
X89242235Y-84215198D01*
X89166508Y-84230261D01*
X89166498Y-84230264D01*
X89020827Y-84290602D01*
X89020814Y-84290609D01*
X88889711Y-84378210D01*
X88889707Y-84378213D01*
X88778213Y-84489707D01*
X88778210Y-84489711D01*
X88690609Y-84620814D01*
X88690602Y-84620827D01*
X88630264Y-84766498D01*
X88630261Y-84766510D01*
X88599500Y-84921153D01*
X86293232Y-84921153D01*
X86250292Y-84878213D01*
X86250288Y-84878210D01*
X86119185Y-84790609D01*
X86119172Y-84790602D01*
X85973501Y-84730264D01*
X85973489Y-84730261D01*
X85818845Y-84699500D01*
X85818842Y-84699500D01*
X85661158Y-84699500D01*
X85661155Y-84699500D01*
X85506510Y-84730261D01*
X85506498Y-84730264D01*
X85360827Y-84790602D01*
X85360814Y-84790609D01*
X85229711Y-84878210D01*
X85229707Y-84878213D01*
X85118213Y-84989707D01*
X85118210Y-84989711D01*
X85030609Y-85120814D01*
X85030602Y-85120827D01*
X84970264Y-85266498D01*
X84970261Y-85266510D01*
X84939500Y-85421153D01*
X84939500Y-85578846D01*
X84970261Y-85733489D01*
X84970264Y-85733501D01*
X85030602Y-85879172D01*
X85030609Y-85879185D01*
X85118210Y-86010288D01*
X85118213Y-86010292D01*
X85130386Y-86022465D01*
X85163871Y-86083788D01*
X85158887Y-86153480D01*
X85117015Y-86209413D01*
X85051551Y-86233830D01*
X85042705Y-86234146D01*
X84926155Y-86234146D01*
X84771510Y-86264907D01*
X84771498Y-86264910D01*
X84625827Y-86325248D01*
X84625814Y-86325255D01*
X84494711Y-86412856D01*
X84494707Y-86412859D01*
X84383213Y-86524353D01*
X84383210Y-86524357D01*
X84295609Y-86655460D01*
X84295602Y-86655473D01*
X84235264Y-86801144D01*
X84235261Y-86801156D01*
X84204500Y-86955799D01*
X84204500Y-87113492D01*
X84235261Y-87268135D01*
X84235264Y-87268147D01*
X84295602Y-87413818D01*
X84295609Y-87413831D01*
X84383210Y-87544934D01*
X84383213Y-87544938D01*
X84476949Y-87638674D01*
X84510434Y-87699997D01*
X84505450Y-87769689D01*
X84463578Y-87825622D01*
X84427587Y-87844286D01*
X84204003Y-87916933D01*
X83993566Y-88024157D01*
X83910110Y-88084792D01*
X83802490Y-88162983D01*
X83802488Y-88162985D01*
X83802487Y-88162985D01*
X83635485Y-88329987D01*
X83635485Y-88329988D01*
X83635483Y-88329990D01*
X83575862Y-88412050D01*
X83496657Y-88521066D01*
X83414819Y-88681683D01*
X83366844Y-88732479D01*
X83299023Y-88749274D01*
X83256885Y-88739950D01*
X83233497Y-88730263D01*
X83233493Y-88730262D01*
X83233488Y-88730260D01*
X83078845Y-88699500D01*
X83078842Y-88699500D01*
X82921158Y-88699500D01*
X82921155Y-88699500D01*
X82766510Y-88730261D01*
X82766498Y-88730264D01*
X82620827Y-88790602D01*
X82620814Y-88790609D01*
X82489711Y-88878210D01*
X82489707Y-88878213D01*
X82378213Y-88989707D01*
X82378210Y-88989711D01*
X82290609Y-89120814D01*
X82290602Y-89120827D01*
X82230264Y-89266498D01*
X82230261Y-89266510D01*
X82199500Y-89421153D01*
X82199500Y-89578846D01*
X82230261Y-89733489D01*
X82230264Y-89733501D01*
X82292937Y-89884808D01*
X82290374Y-89885869D01*
X82302080Y-89942722D01*
X82276934Y-90007910D01*
X82225955Y-90047058D01*
X82120823Y-90090604D01*
X82120814Y-90090609D01*
X81989711Y-90178210D01*
X81989707Y-90178213D01*
X81878213Y-90289707D01*
X81878210Y-90289711D01*
X81790609Y-90420814D01*
X81790602Y-90420827D01*
X81730264Y-90566498D01*
X81730261Y-90566510D01*
X81699500Y-90721153D01*
X72950500Y-90721153D01*
X72950500Y-88070000D01*
X74270138Y-88070000D01*
X75073012Y-88070000D01*
X75055795Y-88079940D01*
X74999940Y-88135795D01*
X74960444Y-88204204D01*
X74940000Y-88280504D01*
X74940000Y-88359496D01*
X74960444Y-88435796D01*
X74999940Y-88504205D01*
X75055795Y-88560060D01*
X75073012Y-88570000D01*
X74270138Y-88570000D01*
X74278430Y-88611690D01*
X74278430Y-88611692D01*
X74353807Y-88793671D01*
X74353814Y-88793684D01*
X74463248Y-88957462D01*
X74463251Y-88957466D01*
X74602533Y-89096748D01*
X74602537Y-89096751D01*
X74766315Y-89206185D01*
X74766328Y-89206192D01*
X74948306Y-89281569D01*
X74948318Y-89281572D01*
X75141504Y-89319999D01*
X75141508Y-89320000D01*
X75390000Y-89320000D01*
X75390000Y-88620000D01*
X75890000Y-88620000D01*
X75890000Y-89320000D01*
X76138492Y-89320000D01*
X76138495Y-89319999D01*
X76331681Y-89281572D01*
X76331693Y-89281569D01*
X76513671Y-89206192D01*
X76513684Y-89206185D01*
X76677462Y-89096751D01*
X76677466Y-89096748D01*
X76816748Y-88957466D01*
X76816751Y-88957462D01*
X76926185Y-88793684D01*
X76926192Y-88793671D01*
X77001569Y-88611692D01*
X77001569Y-88611690D01*
X77009862Y-88570000D01*
X76206988Y-88570000D01*
X76224205Y-88560060D01*
X76280060Y-88504205D01*
X76319556Y-88435796D01*
X76340000Y-88359496D01*
X76340000Y-88280504D01*
X76319556Y-88204204D01*
X76280060Y-88135795D01*
X76224205Y-88079940D01*
X76206988Y-88070000D01*
X77009862Y-88070000D01*
X78270138Y-88070000D01*
X79073012Y-88070000D01*
X79055795Y-88079940D01*
X78999940Y-88135795D01*
X78960444Y-88204204D01*
X78940000Y-88280504D01*
X78940000Y-88359496D01*
X78960444Y-88435796D01*
X78999940Y-88504205D01*
X79055795Y-88560060D01*
X79073012Y-88570000D01*
X78270138Y-88570000D01*
X78278430Y-88611690D01*
X78278430Y-88611692D01*
X78353807Y-88793671D01*
X78353814Y-88793684D01*
X78463248Y-88957462D01*
X78463251Y-88957466D01*
X78602533Y-89096748D01*
X78602537Y-89096751D01*
X78766315Y-89206185D01*
X78766328Y-89206192D01*
X78948306Y-89281569D01*
X78948318Y-89281572D01*
X79141504Y-89319999D01*
X79141508Y-89320000D01*
X79540000Y-89320000D01*
X79540000Y-88620000D01*
X80040000Y-88620000D01*
X80040000Y-89320000D01*
X80438492Y-89320000D01*
X80438495Y-89319999D01*
X80631681Y-89281572D01*
X80631693Y-89281569D01*
X80813671Y-89206192D01*
X80813684Y-89206185D01*
X80977462Y-89096751D01*
X80977466Y-89096748D01*
X81116748Y-88957466D01*
X81116751Y-88957462D01*
X81226185Y-88793684D01*
X81226192Y-88793671D01*
X81301569Y-88611692D01*
X81301569Y-88611690D01*
X81309862Y-88570000D01*
X80506988Y-88570000D01*
X80524205Y-88560060D01*
X80580060Y-88504205D01*
X80619556Y-88435796D01*
X80640000Y-88359496D01*
X80640000Y-88280504D01*
X80619556Y-88204204D01*
X80580060Y-88135795D01*
X80524205Y-88079940D01*
X80506988Y-88070000D01*
X81309863Y-88070000D01*
X81306035Y-88050754D01*
X81312262Y-87981162D01*
X81355125Y-87925985D01*
X81421015Y-87902741D01*
X81489012Y-87918809D01*
X81515333Y-87938882D01*
X81593972Y-88017521D01*
X81593976Y-88017524D01*
X81725079Y-88105125D01*
X81725092Y-88105132D01*
X81864759Y-88162983D01*
X81870768Y-88165472D01*
X82011960Y-88193557D01*
X82025418Y-88196234D01*
X82025421Y-88196235D01*
X82025423Y-88196235D01*
X82183109Y-88196235D01*
X82183110Y-88196234D01*
X82337762Y-88165472D01*
X82483444Y-88105129D01*
X82614554Y-88017524D01*
X82726054Y-87906024D01*
X82813659Y-87774914D01*
X82874002Y-87629232D01*
X82904765Y-87474577D01*
X82904765Y-87316893D01*
X82904765Y-87316890D01*
X82904764Y-87316888D01*
X82904507Y-87315598D01*
X82874002Y-87162238D01*
X82860964Y-87130761D01*
X82813662Y-87016562D01*
X82813655Y-87016549D01*
X82726054Y-86885446D01*
X82726051Y-86885442D01*
X82614557Y-86773948D01*
X82614553Y-86773945D01*
X82483450Y-86686344D01*
X82483437Y-86686337D01*
X82337766Y-86625999D01*
X82337754Y-86625996D01*
X82183110Y-86595235D01*
X82183107Y-86595235D01*
X82025423Y-86595235D01*
X82025420Y-86595235D01*
X81870775Y-86625996D01*
X81870763Y-86625999D01*
X81725092Y-86686337D01*
X81725079Y-86686344D01*
X81593976Y-86773945D01*
X81593972Y-86773948D01*
X81482478Y-86885442D01*
X81482475Y-86885446D01*
X81394874Y-87016549D01*
X81394867Y-87016562D01*
X81334529Y-87162233D01*
X81334526Y-87162245D01*
X81303765Y-87316888D01*
X81303765Y-87474581D01*
X81322089Y-87566704D01*
X81315862Y-87636296D01*
X81272998Y-87691473D01*
X81207108Y-87714717D01*
X81139112Y-87698649D01*
X81112791Y-87678576D01*
X80977466Y-87543251D01*
X80977462Y-87543248D01*
X80813684Y-87433814D01*
X80813671Y-87433807D01*
X80631693Y-87358430D01*
X80631681Y-87358427D01*
X80438495Y-87320000D01*
X80040000Y-87320000D01*
X80040000Y-88020000D01*
X79540000Y-88020000D01*
X79540000Y-87320000D01*
X79141504Y-87320000D01*
X78948318Y-87358427D01*
X78948306Y-87358430D01*
X78766328Y-87433807D01*
X78766315Y-87433814D01*
X78602537Y-87543248D01*
X78602533Y-87543251D01*
X78463251Y-87682533D01*
X78463248Y-87682537D01*
X78353814Y-87846315D01*
X78353807Y-87846328D01*
X78278430Y-88028307D01*
X78278430Y-88028309D01*
X78270138Y-88070000D01*
X77009862Y-88070000D01*
X77001569Y-88028309D01*
X77001569Y-88028307D01*
X76926192Y-87846328D01*
X76926185Y-87846315D01*
X76816751Y-87682537D01*
X76816748Y-87682533D01*
X76677466Y-87543251D01*
X76677462Y-87543248D01*
X76513684Y-87433814D01*
X76513671Y-87433807D01*
X76331693Y-87358430D01*
X76331681Y-87358427D01*
X76138495Y-87320000D01*
X75890000Y-87320000D01*
X75890000Y-88020000D01*
X75390000Y-88020000D01*
X75390000Y-87320000D01*
X75141504Y-87320000D01*
X74948318Y-87358427D01*
X74948306Y-87358430D01*
X74766328Y-87433807D01*
X74766315Y-87433814D01*
X74602537Y-87543248D01*
X74602533Y-87543251D01*
X74463251Y-87682533D01*
X74463248Y-87682537D01*
X74353814Y-87846315D01*
X74353807Y-87846328D01*
X74278430Y-88028307D01*
X74278430Y-88028309D01*
X74270138Y-88070000D01*
X72950500Y-88070000D01*
X72950500Y-84321153D01*
X78399500Y-84321153D01*
X78399500Y-84478846D01*
X78430261Y-84633489D01*
X78430264Y-84633501D01*
X78490602Y-84779172D01*
X78490609Y-84779185D01*
X78578210Y-84910288D01*
X78578213Y-84910292D01*
X78689707Y-85021786D01*
X78689711Y-85021789D01*
X78820814Y-85109390D01*
X78820827Y-85109397D01*
X78966498Y-85169735D01*
X78966503Y-85169737D01*
X79121153Y-85200499D01*
X79121156Y-85200500D01*
X79121158Y-85200500D01*
X79278844Y-85200500D01*
X79278845Y-85200499D01*
X79433497Y-85169737D01*
X79551592Y-85120821D01*
X79579172Y-85109397D01*
X79579172Y-85109396D01*
X79579179Y-85109394D01*
X79710289Y-85021789D01*
X79821789Y-84910289D01*
X79909394Y-84779179D01*
X79969737Y-84633497D01*
X80000500Y-84478842D01*
X80000500Y-84321158D01*
X80000500Y-84321155D01*
X80000499Y-84321153D01*
X79979236Y-84214258D01*
X79969737Y-84166503D01*
X79969735Y-84166498D01*
X79909397Y-84020827D01*
X79909390Y-84020814D01*
X79821789Y-83889711D01*
X79821786Y-83889707D01*
X79710292Y-83778213D01*
X79710288Y-83778210D01*
X79579185Y-83690609D01*
X79579172Y-83690602D01*
X79433501Y-83630264D01*
X79433489Y-83630261D01*
X79278845Y-83599500D01*
X79278842Y-83599500D01*
X79121158Y-83599500D01*
X79121155Y-83599500D01*
X78966510Y-83630261D01*
X78966498Y-83630264D01*
X78820827Y-83690602D01*
X78820814Y-83690609D01*
X78689711Y-83778210D01*
X78689707Y-83778213D01*
X78578213Y-83889707D01*
X78578210Y-83889711D01*
X78490609Y-84020814D01*
X78490602Y-84020827D01*
X78430264Y-84166498D01*
X78430261Y-84166510D01*
X78399500Y-84321153D01*
X72950500Y-84321153D01*
X72950500Y-83221153D01*
X80599500Y-83221153D01*
X80599500Y-83378846D01*
X80630261Y-83533489D01*
X80630264Y-83533501D01*
X80690602Y-83679172D01*
X80690609Y-83679185D01*
X80778210Y-83810288D01*
X80778213Y-83810292D01*
X80889707Y-83921786D01*
X80889711Y-83921789D01*
X81020814Y-84009390D01*
X81020827Y-84009397D01*
X81118853Y-84050000D01*
X81166503Y-84069737D01*
X81321153Y-84100499D01*
X81321156Y-84100500D01*
X81321158Y-84100500D01*
X81478844Y-84100500D01*
X81478845Y-84100499D01*
X81633497Y-84069737D01*
X81751592Y-84020821D01*
X81779172Y-84009397D01*
X81779172Y-84009396D01*
X81779179Y-84009394D01*
X81910289Y-83921789D01*
X82021789Y-83810289D01*
X82109394Y-83679179D01*
X82109395Y-83679176D01*
X82109397Y-83679173D01*
X82112719Y-83671153D01*
X82799500Y-83671153D01*
X82799500Y-83828846D01*
X82830261Y-83983489D01*
X82830264Y-83983501D01*
X82890602Y-84129172D01*
X82890609Y-84129185D01*
X82978210Y-84260288D01*
X82978213Y-84260292D01*
X83089707Y-84371786D01*
X83089711Y-84371789D01*
X83220814Y-84459390D01*
X83220827Y-84459397D01*
X83366498Y-84519735D01*
X83366503Y-84519737D01*
X83521153Y-84550499D01*
X83521156Y-84550500D01*
X83521158Y-84550500D01*
X83678844Y-84550500D01*
X83678845Y-84550499D01*
X83833497Y-84519737D01*
X83979179Y-84459394D01*
X84110289Y-84371789D01*
X84221789Y-84260289D01*
X84309394Y-84129179D01*
X84312854Y-84120827D01*
X84350659Y-84029556D01*
X84369737Y-83983497D01*
X84400500Y-83828842D01*
X84400500Y-83671158D01*
X84400500Y-83671155D01*
X84400499Y-83671153D01*
X84373117Y-83533497D01*
X84369737Y-83516503D01*
X84365208Y-83505570D01*
X84357739Y-83436105D01*
X84389011Y-83373625D01*
X84432312Y-83343559D01*
X84536837Y-83300264D01*
X84667947Y-83212659D01*
X84779447Y-83101159D01*
X84867052Y-82970049D01*
X84927395Y-82824367D01*
X84958158Y-82669712D01*
X84958158Y-82512028D01*
X84958158Y-82512025D01*
X84958157Y-82512023D01*
X84932262Y-82381841D01*
X84927395Y-82357373D01*
X84927393Y-82357368D01*
X84867055Y-82211697D01*
X84867048Y-82211684D01*
X84779447Y-82080581D01*
X84779444Y-82080577D01*
X84667950Y-81969083D01*
X84667946Y-81969080D01*
X84600203Y-81923815D01*
X89224500Y-81923815D01*
X89224500Y-82081508D01*
X89255261Y-82236151D01*
X89255264Y-82236163D01*
X89315602Y-82381834D01*
X89315609Y-82381847D01*
X89403210Y-82512950D01*
X89403213Y-82512954D01*
X89514707Y-82624448D01*
X89514711Y-82624451D01*
X89645814Y-82712052D01*
X89645827Y-82712059D01*
X89791498Y-82772397D01*
X89791503Y-82772399D01*
X89946153Y-82803161D01*
X89946156Y-82803162D01*
X89946158Y-82803162D01*
X90103844Y-82803162D01*
X90103845Y-82803161D01*
X90258497Y-82772399D01*
X90404179Y-82712056D01*
X90535289Y-82624451D01*
X90646789Y-82512951D01*
X90734394Y-82381841D01*
X90759532Y-82321153D01*
X94099500Y-82321153D01*
X94099500Y-82478846D01*
X94130261Y-82633489D01*
X94130264Y-82633501D01*
X94190602Y-82779172D01*
X94190609Y-82779185D01*
X94278210Y-82910288D01*
X94278213Y-82910292D01*
X94389707Y-83021786D01*
X94389711Y-83021789D01*
X94520814Y-83109390D01*
X94520827Y-83109397D01*
X94666498Y-83169735D01*
X94666503Y-83169737D01*
X94821153Y-83200499D01*
X94821156Y-83200500D01*
X94821158Y-83200500D01*
X94978844Y-83200500D01*
X94978845Y-83200499D01*
X95133497Y-83169737D01*
X95181115Y-83150013D01*
X119450000Y-83150013D01*
X119450000Y-83500000D01*
X120500000Y-83500000D01*
X120500000Y-82450000D01*
X120150028Y-82450000D01*
X120150012Y-82450001D01*
X120047302Y-82460494D01*
X119880880Y-82515641D01*
X119880875Y-82515643D01*
X119731654Y-82607684D01*
X119607684Y-82731654D01*
X119515643Y-82880875D01*
X119515641Y-82880880D01*
X119460494Y-83047302D01*
X119460493Y-83047309D01*
X119450000Y-83150013D01*
X95181115Y-83150013D01*
X95279179Y-83109394D01*
X95291505Y-83101158D01*
X95377405Y-83043762D01*
X95392809Y-83033468D01*
X95410289Y-83021789D01*
X95521789Y-82910289D01*
X95609394Y-82779179D01*
X95669737Y-82633497D01*
X95700500Y-82478842D01*
X95700500Y-82321158D01*
X95700500Y-82321155D01*
X95700499Y-82321153D01*
X95683593Y-82236163D01*
X95669737Y-82166503D01*
X95669735Y-82166498D01*
X95609397Y-82020827D01*
X95609390Y-82020814D01*
X95521789Y-81889711D01*
X95521786Y-81889707D01*
X95410292Y-81778213D01*
X95410288Y-81778210D01*
X95279185Y-81690609D01*
X95279172Y-81690602D01*
X95133501Y-81630264D01*
X95133489Y-81630261D01*
X94978845Y-81599500D01*
X94978842Y-81599500D01*
X94821158Y-81599500D01*
X94821155Y-81599500D01*
X94666510Y-81630261D01*
X94666498Y-81630264D01*
X94520827Y-81690602D01*
X94520814Y-81690609D01*
X94389711Y-81778210D01*
X94389707Y-81778213D01*
X94278213Y-81889707D01*
X94278210Y-81889711D01*
X94190609Y-82020814D01*
X94190602Y-82020827D01*
X94130264Y-82166498D01*
X94130261Y-82166510D01*
X94099500Y-82321153D01*
X90759532Y-82321153D01*
X90794737Y-82236159D01*
X90825500Y-82081504D01*
X90825500Y-81923820D01*
X90825500Y-81923817D01*
X90825499Y-81923815D01*
X90805074Y-81821133D01*
X90794737Y-81769165D01*
X90794735Y-81769160D01*
X90734397Y-81623489D01*
X90734390Y-81623476D01*
X90646789Y-81492373D01*
X90646786Y-81492369D01*
X90535292Y-81380875D01*
X90535288Y-81380872D01*
X90404185Y-81293271D01*
X90404172Y-81293264D01*
X90258501Y-81232926D01*
X90258489Y-81232923D01*
X90103845Y-81202162D01*
X90103842Y-81202162D01*
X89946158Y-81202162D01*
X89946155Y-81202162D01*
X89791510Y-81232923D01*
X89791498Y-81232926D01*
X89645827Y-81293264D01*
X89645814Y-81293271D01*
X89514711Y-81380872D01*
X89514707Y-81380875D01*
X89403213Y-81492369D01*
X89403210Y-81492373D01*
X89315609Y-81623476D01*
X89315602Y-81623489D01*
X89255264Y-81769160D01*
X89255261Y-81769172D01*
X89224500Y-81923815D01*
X84600203Y-81923815D01*
X84536843Y-81881479D01*
X84536830Y-81881472D01*
X84391159Y-81821134D01*
X84391147Y-81821131D01*
X84236503Y-81790370D01*
X84236500Y-81790370D01*
X84078816Y-81790370D01*
X84078813Y-81790370D01*
X83924168Y-81821131D01*
X83924156Y-81821134D01*
X83778485Y-81881472D01*
X83778472Y-81881479D01*
X83647369Y-81969080D01*
X83647365Y-81969083D01*
X83535871Y-82080577D01*
X83535868Y-82080581D01*
X83448267Y-82211684D01*
X83448260Y-82211697D01*
X83387922Y-82357368D01*
X83387919Y-82357380D01*
X83357158Y-82512023D01*
X83357158Y-82669716D01*
X83387919Y-82824359D01*
X83387921Y-82824367D01*
X83392449Y-82835298D01*
X83399918Y-82904767D01*
X83368643Y-82967247D01*
X83325341Y-82997312D01*
X83220824Y-83040604D01*
X83220814Y-83040609D01*
X83089711Y-83128210D01*
X83089707Y-83128213D01*
X82978213Y-83239707D01*
X82978210Y-83239711D01*
X82890609Y-83370814D01*
X82890602Y-83370827D01*
X82830264Y-83516498D01*
X82830261Y-83516510D01*
X82799500Y-83671153D01*
X82112719Y-83671153D01*
X82134895Y-83617614D01*
X82134895Y-83617613D01*
X82169737Y-83533497D01*
X82200500Y-83378842D01*
X82200500Y-83221158D01*
X82200500Y-83221155D01*
X82200499Y-83221153D01*
X82182012Y-83128213D01*
X82169737Y-83066503D01*
X82161784Y-83047302D01*
X82109397Y-82920827D01*
X82109390Y-82920814D01*
X82021789Y-82789711D01*
X82021786Y-82789707D01*
X81910292Y-82678213D01*
X81910288Y-82678210D01*
X81779185Y-82590609D01*
X81779172Y-82590602D01*
X81633501Y-82530264D01*
X81633489Y-82530261D01*
X81478845Y-82499500D01*
X81478842Y-82499500D01*
X81321158Y-82499500D01*
X81321155Y-82499500D01*
X81166510Y-82530261D01*
X81166498Y-82530264D01*
X81020827Y-82590602D01*
X81020814Y-82590609D01*
X80889711Y-82678210D01*
X80889707Y-82678213D01*
X80778213Y-82789707D01*
X80778210Y-82789711D01*
X80690609Y-82920814D01*
X80690602Y-82920827D01*
X80630264Y-83066498D01*
X80630261Y-83066510D01*
X80599500Y-83221153D01*
X72950500Y-83221153D01*
X72950500Y-79430000D01*
X74270138Y-79430000D01*
X75073012Y-79430000D01*
X75055795Y-79439940D01*
X74999940Y-79495795D01*
X74960444Y-79564204D01*
X74940000Y-79640504D01*
X74940000Y-79719496D01*
X74960444Y-79795796D01*
X74999940Y-79864205D01*
X75055795Y-79920060D01*
X75073012Y-79930000D01*
X74270138Y-79930000D01*
X74278430Y-79971690D01*
X74278430Y-79971692D01*
X74353807Y-80153671D01*
X74353814Y-80153684D01*
X74463248Y-80317462D01*
X74463251Y-80317466D01*
X74602533Y-80456748D01*
X74602537Y-80456751D01*
X74766315Y-80566185D01*
X74766328Y-80566192D01*
X74948306Y-80641569D01*
X74948318Y-80641572D01*
X75141504Y-80679999D01*
X75141508Y-80680000D01*
X75390000Y-80680000D01*
X75390000Y-79980000D01*
X75890000Y-79980000D01*
X75890000Y-80680000D01*
X76138492Y-80680000D01*
X76138495Y-80679999D01*
X76331681Y-80641572D01*
X76331693Y-80641569D01*
X76513671Y-80566192D01*
X76513684Y-80566185D01*
X76677462Y-80456751D01*
X76677466Y-80456748D01*
X76816748Y-80317466D01*
X76816751Y-80317462D01*
X76926185Y-80153684D01*
X76926192Y-80153671D01*
X77001569Y-79971692D01*
X77001569Y-79971690D01*
X77009862Y-79930000D01*
X76206988Y-79930000D01*
X76224205Y-79920060D01*
X76280060Y-79864205D01*
X76319556Y-79795796D01*
X76340000Y-79719496D01*
X76340000Y-79640504D01*
X76319556Y-79564204D01*
X76280060Y-79495795D01*
X76224205Y-79439940D01*
X76206988Y-79430000D01*
X77009862Y-79430000D01*
X78270138Y-79430000D01*
X79073012Y-79430000D01*
X79055795Y-79439940D01*
X78999940Y-79495795D01*
X78960444Y-79564204D01*
X78940000Y-79640504D01*
X78940000Y-79719496D01*
X78960444Y-79795796D01*
X78999940Y-79864205D01*
X79055795Y-79920060D01*
X79073012Y-79930000D01*
X78270138Y-79930000D01*
X78278430Y-79971690D01*
X78278430Y-79971692D01*
X78353807Y-80153671D01*
X78353814Y-80153684D01*
X78463248Y-80317462D01*
X78463251Y-80317466D01*
X78602533Y-80456748D01*
X78602537Y-80456751D01*
X78766315Y-80566185D01*
X78766328Y-80566192D01*
X78948306Y-80641569D01*
X78948318Y-80641572D01*
X79141504Y-80679999D01*
X79141508Y-80680000D01*
X79540000Y-80680000D01*
X79540000Y-79980000D01*
X80040000Y-79980000D01*
X80040000Y-80680000D01*
X80438492Y-80680000D01*
X80438495Y-80679999D01*
X80631681Y-80641572D01*
X80631693Y-80641569D01*
X80813671Y-80566192D01*
X80813684Y-80566185D01*
X80977462Y-80456751D01*
X80977466Y-80456748D01*
X81116748Y-80317466D01*
X81116751Y-80317462D01*
X81226185Y-80153684D01*
X81226192Y-80153671D01*
X81301569Y-79971692D01*
X81301569Y-79971690D01*
X81309862Y-79930000D01*
X80506988Y-79930000D01*
X80524205Y-79920060D01*
X80580060Y-79864205D01*
X80619556Y-79795796D01*
X80640000Y-79719496D01*
X80640000Y-79640504D01*
X80619556Y-79564204D01*
X80615389Y-79556986D01*
X89139500Y-79556986D01*
X89139500Y-79714679D01*
X89170261Y-79869322D01*
X89170264Y-79869334D01*
X89230602Y-80015005D01*
X89230609Y-80015018D01*
X89318210Y-80146121D01*
X89318213Y-80146125D01*
X89429707Y-80257619D01*
X89429711Y-80257622D01*
X89560814Y-80345223D01*
X89560827Y-80345230D01*
X89706498Y-80405568D01*
X89706503Y-80405570D01*
X89861153Y-80436332D01*
X89861156Y-80436333D01*
X89861158Y-80436333D01*
X90018844Y-80436333D01*
X90018845Y-80436332D01*
X90173497Y-80405570D01*
X90319179Y-80345227D01*
X90450289Y-80257622D01*
X90561789Y-80146122D01*
X90649394Y-80015012D01*
X90709737Y-79869330D01*
X90740500Y-79714675D01*
X90740500Y-79556991D01*
X90740500Y-79556988D01*
X90740499Y-79556986D01*
X90717217Y-79439940D01*
X90709737Y-79402336D01*
X90679295Y-79328842D01*
X90649397Y-79256660D01*
X90649390Y-79256647D01*
X90634229Y-79233957D01*
X90592264Y-79171153D01*
X93299500Y-79171153D01*
X93299500Y-79328846D01*
X93330261Y-79483489D01*
X93330264Y-79483501D01*
X93390602Y-79629172D01*
X93390609Y-79629185D01*
X93478210Y-79760288D01*
X93478213Y-79760292D01*
X93589707Y-79871786D01*
X93589711Y-79871789D01*
X93720814Y-79959390D01*
X93720827Y-79959397D01*
X93855110Y-80015018D01*
X93866503Y-80019737D01*
X94006820Y-80047648D01*
X94021153Y-80050499D01*
X94021156Y-80050500D01*
X94021158Y-80050500D01*
X94178844Y-80050500D01*
X94178845Y-80050499D01*
X94193178Y-80047648D01*
X119449500Y-80047648D01*
X119449500Y-80252351D01*
X119481522Y-80454534D01*
X119544781Y-80649223D01*
X119637715Y-80831613D01*
X119758028Y-80997213D01*
X119902786Y-81141971D01*
X120057749Y-81254556D01*
X120068390Y-81262287D01*
X120184607Y-81321503D01*
X120250776Y-81355218D01*
X120250778Y-81355218D01*
X120250781Y-81355220D01*
X120329730Y-81380872D01*
X120445465Y-81418477D01*
X120546557Y-81434488D01*
X120647648Y-81450500D01*
X120647649Y-81450500D01*
X120852351Y-81450500D01*
X120852352Y-81450500D01*
X121054534Y-81418477D01*
X121249219Y-81355220D01*
X121431610Y-81262287D01*
X121524590Y-81194732D01*
X121597213Y-81141971D01*
X121597215Y-81141968D01*
X121597219Y-81141966D01*
X121741966Y-80997219D01*
X121741968Y-80997215D01*
X121741971Y-80997213D01*
X121794732Y-80924590D01*
X121862287Y-80831610D01*
X121955220Y-80649219D01*
X122018477Y-80454534D01*
X122050500Y-80252352D01*
X122050500Y-80047648D01*
X122022646Y-79871786D01*
X122018477Y-79845465D01*
X121955218Y-79650776D01*
X121911107Y-79564204D01*
X121862287Y-79468390D01*
X121841617Y-79439940D01*
X121741971Y-79302786D01*
X121597213Y-79158028D01*
X121431613Y-79037715D01*
X121431612Y-79037714D01*
X121431610Y-79037713D01*
X121374653Y-79008691D01*
X121249223Y-78944781D01*
X121054534Y-78881522D01*
X120879995Y-78853878D01*
X120852352Y-78849500D01*
X120647648Y-78849500D01*
X120623329Y-78853351D01*
X120445465Y-78881522D01*
X120250776Y-78944781D01*
X120068386Y-79037715D01*
X119902786Y-79158028D01*
X119758028Y-79302786D01*
X119637715Y-79468386D01*
X119544781Y-79650776D01*
X119481522Y-79845465D01*
X119449500Y-80047648D01*
X94193178Y-80047648D01*
X94333497Y-80019737D01*
X94479179Y-79959394D01*
X94479185Y-79959390D01*
X94508693Y-79939674D01*
X94558655Y-79906289D01*
X94610289Y-79871789D01*
X94721789Y-79760289D01*
X94809394Y-79629179D01*
X94869737Y-79483497D01*
X94900500Y-79328842D01*
X94900500Y-79171158D01*
X94900500Y-79171155D01*
X94900499Y-79171153D01*
X94890679Y-79121786D01*
X94869737Y-79016503D01*
X94868719Y-79014046D01*
X94809397Y-78870827D01*
X94809390Y-78870814D01*
X94721789Y-78739711D01*
X94721786Y-78739707D01*
X94610292Y-78628213D01*
X94610288Y-78628210D01*
X94479185Y-78540609D01*
X94479172Y-78540602D01*
X94333501Y-78480264D01*
X94333489Y-78480261D01*
X94178845Y-78449500D01*
X94178842Y-78449500D01*
X94021158Y-78449500D01*
X94021155Y-78449500D01*
X93866510Y-78480261D01*
X93866498Y-78480264D01*
X93720827Y-78540602D01*
X93720814Y-78540609D01*
X93589711Y-78628210D01*
X93589707Y-78628213D01*
X93478213Y-78739707D01*
X93478210Y-78739711D01*
X93390609Y-78870814D01*
X93390602Y-78870827D01*
X93330264Y-79016498D01*
X93330261Y-79016510D01*
X93299500Y-79171153D01*
X90592264Y-79171153D01*
X90561789Y-79125544D01*
X90561786Y-79125540D01*
X90450292Y-79014046D01*
X90450288Y-79014043D01*
X90319185Y-78926442D01*
X90319172Y-78926435D01*
X90173501Y-78866097D01*
X90173489Y-78866094D01*
X90018845Y-78835333D01*
X90018842Y-78835333D01*
X89861158Y-78835333D01*
X89861155Y-78835333D01*
X89706510Y-78866094D01*
X89706498Y-78866097D01*
X89560827Y-78926435D01*
X89560814Y-78926442D01*
X89429711Y-79014043D01*
X89429707Y-79014046D01*
X89318213Y-79125540D01*
X89318210Y-79125544D01*
X89230609Y-79256647D01*
X89230602Y-79256660D01*
X89170264Y-79402331D01*
X89170261Y-79402343D01*
X89139500Y-79556986D01*
X80615389Y-79556986D01*
X80580060Y-79495795D01*
X80524205Y-79439940D01*
X80506988Y-79430000D01*
X81309862Y-79430000D01*
X81301569Y-79388309D01*
X81301569Y-79388307D01*
X81226192Y-79206328D01*
X81226185Y-79206315D01*
X81116751Y-79042537D01*
X81116748Y-79042533D01*
X80977466Y-78903251D01*
X80977462Y-78903248D01*
X80813684Y-78793814D01*
X80813671Y-78793807D01*
X80631693Y-78718430D01*
X80631681Y-78718427D01*
X80438495Y-78680000D01*
X80040000Y-78680000D01*
X80040000Y-79380000D01*
X79540000Y-79380000D01*
X79540000Y-78680000D01*
X79141504Y-78680000D01*
X78948318Y-78718427D01*
X78948306Y-78718430D01*
X78766328Y-78793807D01*
X78766315Y-78793814D01*
X78602537Y-78903248D01*
X78602533Y-78903251D01*
X78463251Y-79042533D01*
X78463248Y-79042537D01*
X78353814Y-79206315D01*
X78353807Y-79206328D01*
X78278430Y-79388307D01*
X78278430Y-79388309D01*
X78270138Y-79430000D01*
X77009862Y-79430000D01*
X77001569Y-79388309D01*
X77001569Y-79388307D01*
X76926192Y-79206328D01*
X76926185Y-79206315D01*
X76816751Y-79042537D01*
X76816748Y-79042533D01*
X76677466Y-78903251D01*
X76677462Y-78903248D01*
X76513684Y-78793814D01*
X76513671Y-78793807D01*
X76331693Y-78718430D01*
X76331681Y-78718427D01*
X76138495Y-78680000D01*
X75890000Y-78680000D01*
X75890000Y-79380000D01*
X75390000Y-79380000D01*
X75390000Y-78680000D01*
X75141504Y-78680000D01*
X74948318Y-78718427D01*
X74948306Y-78718430D01*
X74766328Y-78793807D01*
X74766315Y-78793814D01*
X74602537Y-78903248D01*
X74602533Y-78903251D01*
X74463251Y-79042533D01*
X74463248Y-79042537D01*
X74353814Y-79206315D01*
X74353807Y-79206328D01*
X74278430Y-79388307D01*
X74278430Y-79388309D01*
X74270138Y-79430000D01*
X72950500Y-79430000D01*
X72950500Y-78324500D01*
X72970185Y-78257461D01*
X73022989Y-78211706D01*
X73074500Y-78200500D01*
X86138764Y-78200500D01*
X86205803Y-78220185D01*
G37*
%TD.AperFunction*%
%TD*%
M02*
