M48
; DRILL file KiCad 10.0.0 date 2026-06-27T00:00:07
; FORMAT={-:-/ absolute / inch / decimal}
; #@! TF.CreationDate,2026-06-27T00:00:07+07:00
; #@! TF.GenerationSoftware,Kicad,Pcbnew,10.0.0
; #@! TF.FileFunction,Plated,1,4,PTH
FMAT,2
INCH
; #@! TA.AperFunction,Plated,PTH,ViaDrill
T1C0.0079
; #@! TA.AperFunction,Plated,PTH,ViaDrill
T2C0.0098
; #@! TA.AperFunction,Plated,PTH,ViaDrill
T3C0.0118
; #@! TA.AperFunction,Plated,PTH,ComponentDrill
T4C0.0236
; #@! TA.AperFunction,Plated,PTH,ComponentDrill
T5C0.0472
; #@! TA.AperFunction,Plated,PTH,ComponentDrill
T6C0.0551
%
G90
G05
T1
X2.9724Y-3.6909
X3.0709Y-3.75
X3.1102Y-3.376
X3.1496Y-3.6521
X3.1638Y-3.1811
X3.2087Y-3.2776
X3.2087Y-3.3268
X3.2333Y-3.4122
X3.2677Y-3.248
X3.2771Y-3.4323
X3.3366Y-3.376
X3.4055Y-3.2283
X3.4154Y-3.1004
X3.4449Y-3.0984
X3.4547Y-3.4646
X3.5039Y-3.3185
X3.5285Y-3.2264
X3.5313Y-3.1465
X3.5415Y-3.4082
X3.559Y-3.3158
X3.6122Y-3.2224
X3.622Y-3.3465
X3.6916Y-3.2674
X3.7589Y-3.2972
X3.8189Y-3.1201
X4.3004Y-3.3957
T2
X3.2033Y-3.2495
X3.3134Y-3.1362
T3
X3.0413Y-3.5728
X3.1638Y-3.4331
X3.189Y-3.563
X3.2037Y-3.5089
X3.2264Y-3.1378
X3.2677Y-3.5236
X3.2776Y-3.2972
X3.2972Y-3.1004
X3.4154Y-3.5728
X3.5819Y-3.372
X3.5827Y-3.1323
X3.6024Y-3.6811
X3.6811Y-3.1398
X3.75Y-3.6909
X3.9961Y-3.6319
X4.1634Y-3.7106
X4.1831Y-3.4449
X4.2421Y-3.3268
X4.4882Y-3.3268
T4
X4.7539Y-3.1555
X4.7539Y-3.2972
T5
X3.3756Y-3.616
X3.5756Y-3.616
T6
X3.3378Y-3.516
X3.6134Y-3.516
T4
G00X2.9937Y-3.137
M15
G01X2.9622Y-3.137
M16
G05
G00X2.9937Y-3.4772
M15
G01X2.9622Y-3.4772
M16
G05
G00X3.163Y-3.137
M15
G01X3.1197Y-3.137
M16
G05
G00X3.163Y-3.4772
M15
G01X3.1197Y-3.4772
M16
G05
M30
