%TF.GenerationSoftware,KiCad,Pcbnew,10.0.0*%
%TF.CreationDate,2026-06-27T17:47:16+07:00*%
%TF.ProjectId,FindMyCharger,46696e64-4d79-4436-9861-726765722e6b,rev?*%
%TF.SameCoordinates,Original*%
%TF.FileFunction,Soldermask,Top*%
%TF.FilePolarity,Negative*%
%FSLAX46Y46*%
G04 Gerber Fmt 4.6, Leading zero omitted, Abs format (unit mm)*
G04 Created by KiCad (PCBNEW 10.0.0) date 2026-06-27 17:47:16*
%MOMM*%
%LPD*%
G01*
G04 APERTURE LIST*
G04 Aperture macros list*
%AMRoundRect*
0 Rectangle with rounded corners*
0 $1 Rounding radius*
0 $2 $3 $4 $5 $6 $7 $8 $9 X,Y pos of 4 corners*
0 Add a 4 corners polygon primitive as box body*
4,1,4,$2,$3,$4,$5,$6,$7,$8,$9,$2,$3,0*
0 Add four circle primitives for the rounded corners*
1,1,$1+$1,$2,$3*
1,1,$1+$1,$4,$5*
1,1,$1+$1,$6,$7*
1,1,$1+$1,$8,$9*
0 Add four rect primitives between the rounded corners*
20,1,$1+$1,$2,$3,$4,$5,0*
20,1,$1+$1,$4,$5,$6,$7,0*
20,1,$1+$1,$6,$7,$8,$9,0*
20,1,$1+$1,$8,$9,$2,$3,0*%
%AMFreePoly0*
4,1,149,1.019806,0.999029,1.069806,0.989029,1.072127,0.988507,1.110971,0.978796,1.159806,0.969029,1.162127,0.968507,1.242127,0.948507,1.252361,0.944721,1.287451,0.927176,1.322127,0.918507,1.332361,0.914721,1.412361,0.874721,1.420000,0.870000,1.456394,0.842704,1.492361,0.824721,1.505355,0.815355,1.532840,0.787870,1.570000,0.760000,1.575355,0.755355,1.695355,0.635355,
1.700000,0.630000,1.727870,0.592840,1.755355,0.565355,1.764721,0.552361,1.824721,0.432361,1.828507,0.422127,1.839039,0.380000,3.500000,0.380000,3.535355,0.365355,3.550000,0.330000,3.550000,-0.330000,3.535355,-0.365355,3.500000,-0.380000,1.839039,-0.380000,1.828507,-0.422127,1.824721,-0.432361,1.764721,-0.552361,1.755355,-0.565355,1.727870,-0.592840,1.700000,-0.630000,
1.695355,-0.635355,1.637870,-0.692840,1.610000,-0.730000,1.597735,-0.741603,1.568884,-0.760837,1.532840,-0.787870,1.505355,-0.815355,1.492361,-0.824721,1.456394,-0.842704,1.420000,-0.870000,1.412361,-0.874721,1.332361,-0.914721,1.322127,-0.918507,1.287451,-0.927176,1.252361,-0.944721,1.242127,-0.948507,1.162127,-0.968507,1.159806,-0.969029,1.110971,-0.978796,1.072127,-0.988507,
1.069806,-0.989029,1.019806,-0.999029,1.010000,-1.000000,-1.020000,-1.000000,-1.032127,-0.998507,-1.070971,-0.988796,-1.119806,-0.979029,-1.122127,-0.978507,-1.200971,-0.958796,-1.249806,-0.949029,-1.262361,-0.944721,-1.297451,-0.927176,-1.332127,-0.918507,-1.342361,-0.914721,-1.422361,-0.874721,-1.430000,-0.870000,-1.468884,-0.840837,-1.497735,-0.821603,-1.500000,-0.820000,-1.540000,-0.790000,
-1.545355,-0.785355,-1.569617,-0.761093,-1.602361,-0.744721,-1.620000,-0.730000,-1.647870,-0.692840,-1.705355,-0.635355,-1.710000,-0.630000,-1.740000,-0.590000,-1.741603,-0.587735,-1.761603,-0.557735,-1.764721,-0.552361,-1.782704,-0.516394,-1.810000,-0.480000,-1.814721,-0.472361,-1.854721,-0.392361,-1.858507,-0.382127,-1.867176,-0.347451,-1.884721,-0.312361,-1.889029,-0.299806,-1.898796,-0.250971,
-1.918507,-0.172127,-1.920000,-0.160000,-1.920000,-0.116155,-1.928507,-0.082127,-1.930000,-0.070000,-1.930000,0.070000,-1.928507,0.082127,-1.920000,0.116155,-1.920000,0.150000,-1.919029,0.159806,-1.909029,0.209806,-1.908507,0.212127,-1.888507,0.292127,-1.886424,0.298570,-1.867683,0.345421,-1.858507,0.382127,-1.854721,0.392361,-1.814721,0.472361,-1.810000,0.480000,-1.782704,0.516394,
-1.764721,0.552361,-1.761603,0.557735,-1.741603,0.587735,-1.740000,0.590000,-1.710000,0.630000,-1.705355,0.635355,-1.615355,0.725355,-1.610000,0.730000,-1.572840,0.757870,-1.545355,0.785355,-1.540000,0.790000,-1.500000,0.820000,-1.497735,0.821603,-1.468884,0.840837,-1.430000,0.870000,-1.422361,0.874721,-1.342361,0.914721,-1.332127,0.918507,-1.297451,0.927176,-1.262361,0.944721,
-1.249806,0.949029,-1.200971,0.958796,-1.122127,0.978507,-1.119806,0.979029,-1.070971,0.988796,-1.032127,0.998507,-1.020000,1.000000,1.010000,1.000000,1.019806,0.999029,1.019806,0.999029,$1*%
G04 Aperture macros list end*
%ADD10RoundRect,0.140000X0.140000X0.170000X-0.140000X0.170000X-0.140000X-0.170000X0.140000X-0.170000X0*%
%ADD11R,2.500000X2.500000*%
%ADD12O,0.280000X0.800000*%
%ADD13O,0.800000X0.280000*%
%ADD14R,3.500000X3.500000*%
%ADD15RoundRect,0.140000X0.170000X-0.140000X0.170000X0.140000X-0.170000X0.140000X-0.170000X-0.140000X0*%
%ADD16C,2.500000*%
%ADD17RoundRect,0.135000X-0.185000X0.135000X-0.185000X-0.135000X0.185000X-0.135000X0.185000X0.135000X0*%
%ADD18RoundRect,0.250000X0.475000X-0.250000X0.475000X0.250000X-0.475000X0.250000X-0.475000X-0.250000X0*%
%ADD19C,1.800000*%
%ADD20C,2.000000*%
%ADD21RoundRect,0.100000X0.130000X0.100000X-0.130000X0.100000X-0.130000X-0.100000X0.130000X-0.100000X0*%
%ADD22RoundRect,0.218750X-0.256250X0.218750X-0.256250X-0.218750X0.256250X-0.218750X0.256250X0.218750X0*%
%ADD23RoundRect,0.250000X0.250000X0.475000X-0.250000X0.475000X-0.250000X-0.475000X0.250000X-0.475000X0*%
%ADD24R,3.000000X1.950000*%
%ADD25RoundRect,0.225000X0.250000X-0.225000X0.250000X0.225000X-0.250000X0.225000X-0.250000X-0.225000X0*%
%ADD26R,1.150000X0.600000*%
%ADD27R,1.150000X0.300000*%
%ADD28O,2.100000X1.000000*%
%ADD29O,1.800000X1.000000*%
%ADD30RoundRect,0.250000X0.550000X-0.550000X0.550000X0.550000X-0.550000X0.550000X-0.550000X-0.550000X0*%
%ADD31C,1.600000*%
%ADD32RoundRect,0.135000X0.135000X0.185000X-0.135000X0.185000X-0.135000X-0.185000X0.135000X-0.185000X0*%
%ADD33R,0.800000X0.700000*%
%ADD34R,1.580000X0.670000*%
%ADD35FreePoly0,0.000000*%
%ADD36RoundRect,0.140000X-0.140000X-0.170000X0.140000X-0.170000X0.140000X0.170000X-0.140000X0.170000X0*%
%ADD37RoundRect,0.225000X-0.225000X-0.250000X0.225000X-0.250000X0.225000X0.250000X-0.225000X0.250000X0*%
%ADD38RoundRect,0.250000X-0.475000X0.250000X-0.475000X-0.250000X0.475000X-0.250000X0.475000X0.250000X0*%
G04 APERTURE END LIST*
D10*
%TO.C,C12*%
X86980000Y-85500000D03*
X86020000Y-85500000D03*
%TD*%
D11*
%TO.C,TP4*%
X114000000Y-84500000D03*
%TD*%
D12*
%TO.C,U1*%
X84750000Y-84500000D03*
X85250000Y-84500000D03*
X85750000Y-84500000D03*
X86250000Y-84500000D03*
X86750000Y-84500000D03*
X87250000Y-84500000D03*
X87750000Y-84500000D03*
X88250000Y-84500000D03*
D13*
X89000000Y-83750000D03*
X89000000Y-83250000D03*
X89000000Y-82750000D03*
X89000000Y-82250000D03*
X89000000Y-81750000D03*
X89000000Y-81250000D03*
X89000000Y-80750000D03*
X89000000Y-80250000D03*
D12*
X88250000Y-79500000D03*
X87750000Y-79500000D03*
X87250000Y-79500000D03*
X86750000Y-79500000D03*
X86250000Y-79500000D03*
X85750000Y-79500000D03*
X85250000Y-79500000D03*
X84750000Y-79500000D03*
D13*
X84000000Y-80250000D03*
X84000000Y-80750000D03*
X84000000Y-81250000D03*
X84000000Y-81750000D03*
X84000000Y-82250000D03*
X84000000Y-82750000D03*
X84000000Y-83250000D03*
X84000000Y-83750000D03*
D14*
X86500000Y-82000000D03*
%TD*%
D15*
%TO.C,C16*%
X90500000Y-80500000D03*
X90500000Y-79540000D03*
%TD*%
D16*
%TO.C,TP3*%
X110000000Y-83500000D03*
%TD*%
D17*
%TO.C,R4*%
X83180000Y-91740000D03*
X83180000Y-92760000D03*
%TD*%
D18*
%TO.C,C13*%
X95000000Y-81950000D03*
X95000000Y-80050000D03*
%TD*%
D19*
%TO.C,SW1*%
X85740000Y-91847500D03*
X90820000Y-91847500D03*
D20*
X91780000Y-89307500D03*
X84780000Y-89307500D03*
%TD*%
D18*
%TO.C,C10*%
X92750000Y-83600000D03*
X92750000Y-81700000D03*
%TD*%
D21*
%TO.C,TH1*%
X95475000Y-84150000D03*
X94835000Y-84150000D03*
%TD*%
D22*
%TO.C,D4*%
X73820000Y-93000000D03*
X73820000Y-94575000D03*
%TD*%
D23*
%TO.C,C8*%
X80000000Y-90750000D03*
X78100000Y-90750000D03*
%TD*%
D15*
%TO.C,C1*%
X81750000Y-81500000D03*
X81750000Y-80540000D03*
%TD*%
D24*
%TO.C,L1*%
X96250000Y-91520000D03*
X96250000Y-85980000D03*
%TD*%
D25*
%TO.C,C2*%
X83000000Y-81500000D03*
X83000000Y-79950000D03*
%TD*%
D22*
%TO.C,D2*%
X79000000Y-93000000D03*
X79000000Y-94575000D03*
%TD*%
%TO.C,D1*%
X81590000Y-93000000D03*
X81590000Y-94575000D03*
%TD*%
D26*
%TO.C,J1*%
X80360000Y-80800000D03*
X80360000Y-81600000D03*
D27*
X80360000Y-82750000D03*
X80360000Y-83750000D03*
X80360000Y-84250000D03*
X80360000Y-85250000D03*
D26*
X80360000Y-87200000D03*
X80360000Y-86400000D03*
D27*
X80360000Y-85750000D03*
X80360000Y-84750000D03*
X80360000Y-83250000D03*
X80360000Y-82250000D03*
D28*
X79790000Y-79680000D03*
D29*
X75640000Y-79680000D03*
D28*
X79790000Y-88320000D03*
D29*
X75640000Y-88320000D03*
%TD*%
D30*
%TO.C,BT1*%
X120750000Y-83750000D03*
D31*
X120750000Y-80150000D03*
%TD*%
D32*
%TO.C,R3*%
X76520000Y-90250000D03*
X75500000Y-90250000D03*
%TD*%
D16*
%TO.C,TP1*%
X103750000Y-93750000D03*
%TD*%
D22*
%TO.C,D3*%
X76410000Y-93000000D03*
X76410000Y-94575000D03*
%TD*%
D33*
%TO.C,U2*%
X111500000Y-87600000D03*
X110400000Y-87600000D03*
X109300000Y-87600000D03*
X108200000Y-87600000D03*
X107100000Y-87600000D03*
X106700000Y-89100000D03*
X106700000Y-90200000D03*
X106700000Y-91300000D03*
X106700000Y-92400000D03*
X106700000Y-93500000D03*
X107100000Y-95000000D03*
X108200000Y-95000000D03*
X109300000Y-95000000D03*
X110400000Y-95000000D03*
X111500000Y-95000000D03*
%TD*%
D18*
%TO.C,C7*%
X90750000Y-83750000D03*
X90750000Y-81850000D03*
%TD*%
D34*
%TO.C,U3*%
X104660000Y-87500000D03*
D35*
X101940000Y-86000000D03*
D34*
X104660000Y-84500000D03*
%TD*%
D16*
%TO.C,TP2*%
X100000000Y-93750000D03*
%TD*%
D17*
%TO.C,R1*%
X89000000Y-85490000D03*
X89000000Y-86510000D03*
%TD*%
D36*
%TO.C,C11*%
X94500000Y-83250000D03*
X95460000Y-83250000D03*
%TD*%
D18*
%TO.C,C15*%
X99000000Y-81950000D03*
X99000000Y-80050000D03*
%TD*%
D36*
%TO.C,C5*%
X108270000Y-86250000D03*
X109230000Y-86250000D03*
%TD*%
D37*
%TO.C,C4*%
X93700000Y-93750000D03*
X95250000Y-93750000D03*
%TD*%
D38*
%TO.C,C9*%
X83330000Y-84750000D03*
X83330000Y-86650000D03*
%TD*%
D37*
%TO.C,C3*%
X90450000Y-85750000D03*
X92000000Y-85750000D03*
%TD*%
D18*
%TO.C,C14*%
X97010000Y-81950000D03*
X97010000Y-80050000D03*
%TD*%
M02*
