%TF.GenerationSoftware,KiCad,Pcbnew,10.0.0*%
%TF.CreationDate,2026-06-28T21:22:43+07:00*%
%TF.ProjectId,FindMyCharger,46696e64-4d79-4436-9861-726765722e6b,rev?*%
%TF.SameCoordinates,Original*%
%TF.FileFunction,Copper,L4,Bot*%
%TF.FilePolarity,Positive*%
%FSLAX46Y46*%
G04 Gerber Fmt 4.6, Leading zero omitted, Abs format (unit mm)*
G04 Created by KiCad (PCBNEW 10.0.0) date 2026-06-28 21:22:43*
%MOMM*%
%LPD*%
G01*
G04 APERTURE LIST*
G04 Aperture macros list*
%AMRoundRect*
0 Rectangle with rounded corners*
0 $1 Rounding radius*
0 $2 $3 $4 $5 $6 $7 $8 $9 X,Y pos of 4 corners*
0 Add a 4 corners polygon primitive as box body*
4,1,4,$2,$3,$4,$5,$6,$7,$8,$9,$2,$3,0*
0 Add four circle primitives for the rounded corners*
1,1,$1+$1,$2,$3*
1,1,$1+$1,$4,$5*
1,1,$1+$1,$6,$7*
1,1,$1+$1,$8,$9*
0 Add four rect primitives between the rounded corners*
20,1,$1+$1,$2,$3,$4,$5,0*
20,1,$1+$1,$4,$5,$6,$7,0*
20,1,$1+$1,$6,$7,$8,$9,0*
20,1,$1+$1,$8,$9,$2,$3,0*%
G04 Aperture macros list end*
%TA.AperFunction,ComponentPad*%
%ADD10C,1.600000*%
%TD*%
%TA.AperFunction,ComponentPad*%
%ADD11RoundRect,0.250000X0.550000X-0.550000X0.550000X0.550000X-0.550000X0.550000X-0.550000X-0.550000X0*%
%TD*%
%TA.AperFunction,ComponentPad*%
%ADD12C,1.800000*%
%TD*%
%TA.AperFunction,ComponentPad*%
%ADD13C,2.000000*%
%TD*%
%TA.AperFunction,ComponentPad*%
%ADD14O,2.100000X1.000000*%
%TD*%
%TA.AperFunction,ComponentPad*%
%ADD15O,1.800000X1.000000*%
%TD*%
%TA.AperFunction,ViaPad*%
%ADD16C,0.600000*%
%TD*%
%TA.AperFunction,Conductor*%
%ADD17C,0.200000*%
%TD*%
%TA.AperFunction,Conductor*%
%ADD18C,0.100000*%
%TD*%
%TA.AperFunction,Conductor*%
%ADD19C,0.250000*%
%TD*%
%TA.AperFunction,Conductor*%
%ADD20C,0.400000*%
%TD*%
G04 APERTURE END LIST*
D10*
%TO.P,BAT+,2,+_2*%
%TO.N,Net-(BT1-+)*%
X120750000Y-80150000D03*
D11*
%TO.P,BAT+,1,-_1*%
%TO.N,GND*%
X120750000Y-83750000D03*
%TD*%
D12*
%TO.P,SW1,1,1_1*%
%TO.N,Net-(R1-Pad2)*%
X85740000Y-91847500D03*
%TO.P,SW1,2,2_2*%
%TO.N,GND*%
X90820000Y-91847500D03*
D13*
%TO.P,SW1,3,3_3*%
%TO.N,unconnected-(SW1-Pad3)*%
X91780000Y-89307500D03*
%TO.P,SW1,4,4_4*%
%TO.N,unconnected-(SW1-Pad4)*%
X84780000Y-89307500D03*
%TD*%
D14*
%TO.P,J1,SH,SHIELD_SH*%
%TO.N,GND*%
X79790000Y-79680000D03*
D15*
X75640000Y-79680000D03*
D14*
X79790000Y-88320000D03*
D15*
X75640000Y-88320000D03*
%TD*%
D16*
%TO.N,GND*%
X103500000Y-85750000D03*
%TO.N,Net-(U3-Vin)*%
X93006942Y-87393058D03*
%TO.N,GND*%
X79000000Y-90800000D03*
X112200000Y-81900000D03*
%TO.N,Net-(U1-DPC)*%
X87900000Y-78500000D03*
%TO.N,GND*%
X92300000Y-81750000D03*
X92000000Y-84900000D03*
X96575000Y-83942382D03*
%TO.N,Net-(D1-K)*%
X85740000Y-85500000D03*
%TO.N,Net-(C4-Pad1)*%
X86800000Y-88400000D03*
X87300000Y-90500000D03*
X88188909Y-91288909D03*
X84157658Y-82590870D03*
%TO.N,Net-(U1-NTC)*%
X94900000Y-82400000D03*
X94100000Y-79250000D03*
%TO.N,Net-(U1-KEY)*%
X89400000Y-85000000D03*
X89940000Y-79635833D03*
%TO.N,Net-(R1-Pad2)*%
X89900000Y-86915000D03*
X89700000Y-88900000D03*
%TO.N,Net-(U1-LED2)*%
X82500000Y-90800000D03*
X84000000Y-91207500D03*
X85900000Y-88287550D03*
X85005000Y-87034646D03*
%TO.N,Net-(U3-Vin)*%
X90232500Y-88165000D03*
%TO.N,Net-(C3-Pad1)*%
X90124335Y-84276176D03*
X90025000Y-82002662D03*
%TO.N,Net-(U1-LED1)*%
X83600000Y-83750000D03*
%TO.N,Net-(D3-A)*%
X77900000Y-95250000D03*
%TO.N,Net-(U1-DPC)*%
X79200000Y-84400000D03*
%TO.N,Net-(U1-DMC)*%
X87046467Y-78500000D03*
X81400000Y-83300000D03*
%TO.N,GND*%
X91500000Y-79560000D03*
X106250000Y-87500000D03*
X83048264Y-87451734D03*
X91500000Y-93500000D03*
X96000000Y-93750000D03*
X105750000Y-94250000D03*
X86500000Y-82000000D03*
X81950735Y-79700735D03*
%TO.N,Net-(U1-LED1)*%
X83000000Y-89500000D03*
%TO.N,Net-(U2-P0.21{slash}RST)*%
X110669506Y-85621999D03*
X109499998Y-87509934D03*
%TO.N,Net-(U2-SWCLK)*%
X107750000Y-84500000D03*
X101500000Y-92250000D03*
%TO.N,GND*%
X109250000Y-86749998D03*
%TO.N,Net-(D1-K)*%
X82104265Y-87395735D03*
%TO.N,Net-(D3-A)*%
X75225000Y-94025000D03*
%TD*%
%TO.N,Net-(D3-A)*%
D17*
X77900000Y-95250000D02*
X76450000Y-95250000D01*
X76450000Y-95250000D02*
X75225000Y-94025000D01*
%TO.N,Net-(D1-K)*%
X84000000Y-85500000D02*
X82104265Y-87395735D01*
X85740000Y-85500000D02*
X84000000Y-85500000D01*
%TO.N,Net-(U1-DMC)*%
X86173233Y-78526767D02*
X81400000Y-83300000D01*
X87073234Y-78526767D02*
X86173233Y-78526767D01*
X87046467Y-78500000D02*
X87073234Y-78526767D01*
%TO.N,Net-(C4-Pad1)*%
D18*
X86800000Y-85233212D02*
X84157658Y-82590870D01*
X87400000Y-90500000D02*
X87300000Y-90500000D01*
X86800000Y-88400000D02*
X86800000Y-85233212D01*
X88188909Y-91288909D02*
X87400000Y-90500000D01*
%TO.N,Net-(R1-Pad2)*%
X89700000Y-87115000D02*
X89900000Y-86915000D01*
X89700000Y-87919682D02*
X89700000Y-87115000D01*
X89682500Y-87937182D02*
X89700000Y-87919682D01*
X89682500Y-88392818D02*
X89682500Y-87937182D01*
X89700000Y-88900000D02*
X89700000Y-88410318D01*
X89700000Y-88410318D02*
X89682500Y-88392818D01*
%TO.N,Net-(U1-NTC)*%
X94900000Y-80050000D02*
X94900000Y-82400000D01*
X94100000Y-79250000D02*
X94900000Y-80050000D01*
%TO.N,Net-(U1-KEY)*%
X89400000Y-80175833D02*
X89400000Y-85000000D01*
X89940000Y-79635833D02*
X89400000Y-80175833D01*
%TO.N,Net-(U1-LED2)*%
X82907500Y-91207500D02*
X84000000Y-91207500D01*
X82500000Y-90800000D02*
X82907500Y-91207500D01*
D17*
X85005000Y-87392550D02*
X85900000Y-88287550D01*
X85005000Y-87034646D02*
X85005000Y-87392550D01*
%TO.N,Net-(C3-Pad1)*%
D19*
X90025000Y-84176841D02*
X90124335Y-84276176D01*
X90025000Y-82002662D02*
X90025000Y-84176841D01*
%TO.N,Net-(U1-LED1)*%
D17*
X83000000Y-89140000D02*
X83000000Y-89500000D01*
X81500000Y-87640000D02*
X83000000Y-89140000D01*
X81500000Y-87501471D02*
X81500000Y-87640000D01*
X81010000Y-87150000D02*
X81148529Y-87150000D01*
X80970000Y-84280466D02*
X80970000Y-87110000D01*
X80970000Y-87110000D02*
X81010000Y-87150000D01*
X83030000Y-83970000D02*
X81280466Y-83970000D01*
X83250000Y-83750000D02*
X83030000Y-83970000D01*
X81148529Y-87150000D02*
X81500000Y-87501471D01*
X81280466Y-83970000D02*
X80970000Y-84280466D01*
X83600000Y-83750000D02*
X83250000Y-83750000D01*
%TO.N,Net-(U1-DPC)*%
X79200000Y-84400000D02*
X79224642Y-84424642D01*
%TO.N,Net-(U2-P0.21{slash}RST)*%
X109499998Y-87509934D02*
X110669506Y-86340426D01*
X110669506Y-86340426D02*
X110669506Y-85621999D01*
%TO.N,Net-(D3-A)*%
X78000000Y-95250000D02*
X77900000Y-95250000D01*
%TO.N,Net-(U2-SWCLK)*%
D20*
X102000000Y-91750000D02*
X102000000Y-90250000D01*
X101500000Y-92250000D02*
X102000000Y-91750000D01*
X102000000Y-90250000D02*
X107750000Y-84500000D01*
%TO.N,Net-(U1-DPC)*%
D17*
X79200000Y-85916117D02*
X79200000Y-84400000D01*
X82400000Y-89116117D02*
X79200000Y-85916117D01*
X83258971Y-90607500D02*
X82400000Y-89748529D01*
X87843337Y-88656663D02*
X85892500Y-90607500D01*
X87843337Y-78556663D02*
X87843337Y-88656663D01*
X87900000Y-78500000D02*
X87843337Y-78556663D01*
X85892500Y-90607500D02*
X83258971Y-90607500D01*
X82400000Y-89748529D02*
X82400000Y-89116117D01*
%TO.N,Net-(U3-Vin)*%
D19*
X90232500Y-88165000D02*
X90232500Y-88032500D01*
X90232500Y-88032500D02*
X90871942Y-87393058D01*
X90871942Y-87393058D02*
X93006942Y-87393058D01*
%TD*%
%TA.AperFunction,Conductor*%
%TO.N,Net-(U1-LED1)*%
G36*
X82910156Y-88910609D02*
G01*
X82910993Y-88911541D01*
X83230512Y-89308072D01*
X83233035Y-89316664D01*
X83228743Y-89324523D01*
X83228555Y-89324672D01*
X83004570Y-89497721D01*
X82995928Y-89500067D01*
X82995866Y-89500059D01*
X82714243Y-89462403D01*
X82706497Y-89457910D01*
X82704197Y-89449256D01*
X82760854Y-89046692D01*
X82764165Y-89040054D01*
X82893611Y-88910608D01*
X82901883Y-88907182D01*
X82910156Y-88910609D01*
G37*
%TD.AperFunction*%
%TD*%
%TA.AperFunction,Conductor*%
%TO.N,Net-(U2-P0.21{slash}RST)*%
G36*
X109857511Y-87022550D02*
G01*
X109987381Y-87152420D01*
X109990808Y-87160693D01*
X109989725Y-87165608D01*
X109781866Y-87614578D01*
X109775281Y-87620646D01*
X109766805Y-87620486D01*
X109503813Y-87512497D01*
X109497461Y-87506185D01*
X109497434Y-87506118D01*
X109389933Y-87244314D01*
X109389960Y-87235359D01*
X109396312Y-87229047D01*
X109397709Y-87228575D01*
X109443186Y-87216390D01*
X109534274Y-87163799D01*
X109535171Y-87163334D01*
X109844325Y-87020205D01*
X109853270Y-87019840D01*
X109857511Y-87022550D01*
G37*
%TD.AperFunction*%
%TD*%
%TA.AperFunction,Conductor*%
%TO.N,Net-(U2-P0.21{slash}RST)*%
G36*
X110936339Y-85732487D02*
G01*
X110942651Y-85738839D01*
X110942811Y-85747315D01*
X110772321Y-86211764D01*
X110766254Y-86218349D01*
X110761338Y-86219432D01*
X110577674Y-86219432D01*
X110569401Y-86216005D01*
X110566691Y-86211764D01*
X110396200Y-85747315D01*
X110396566Y-85738367D01*
X110402670Y-85732488D01*
X110664996Y-85622882D01*
X110673950Y-85622856D01*
X110936339Y-85732487D01*
G37*
%TD.AperFunction*%
%TD*%
%TA.AperFunction,Conductor*%
%TO.N,Net-(U2-SWCLK)*%
G36*
X101787981Y-91693084D02*
G01*
X102056915Y-91962018D01*
X102060342Y-91970291D01*
X102058214Y-91977019D01*
X101744998Y-92422679D01*
X101737438Y-92427477D01*
X101728698Y-92425523D01*
X101728334Y-92425257D01*
X101500549Y-92251664D01*
X101498335Y-92249450D01*
X101324742Y-92021665D01*
X101322453Y-92013008D01*
X101326956Y-92005267D01*
X101327270Y-92005037D01*
X101772981Y-91691784D01*
X101781720Y-91689831D01*
X101787981Y-91693084D01*
G37*
%TD.AperFunction*%
%TD*%
%TA.AperFunction,Conductor*%
%TO.N,Net-(U2-SWCLK)*%
G36*
X107521301Y-84324476D02*
G01*
X107521665Y-84324742D01*
X107749450Y-84498335D01*
X107751664Y-84500549D01*
X107925257Y-84728334D01*
X107927546Y-84736991D01*
X107923043Y-84744732D01*
X107922679Y-84744998D01*
X107477019Y-85058214D01*
X107468279Y-85060168D01*
X107462018Y-85056915D01*
X107193084Y-84787981D01*
X107189657Y-84779708D01*
X107191784Y-84772981D01*
X107505003Y-84327318D01*
X107512561Y-84322522D01*
X107521301Y-84324476D01*
G37*
%TD.AperFunction*%
%TD*%
M02*
