M48
; DRILL file KiCad 10.0.0 date 2026-06-28T21:22:43
; FORMAT={-:-/ absolute / inch / decimal}
; #@! TF.CreationDate,2026-06-28T21:22:43+07:00
; #@! TF.GenerationSoftware,Kicad,Pcbnew,10.0.0
; #@! TF.FileFunction,Plated,1,4,PTH
FMAT,2
INCH
; #@! TA.AperFunction,Plated,PTH,ViaDrill
T1C0.0118
; #@! TA.AperFunction,Plated,PTH,ComponentDrill
T2C0.0236
; #@! TA.AperFunction,Plated,PTH,ComponentDrill
T3C0.0472
; #@! TA.AperFunction,Plated,PTH,ComponentDrill
T4C0.0551
%
G90
G05
T1
X2.9616Y-3.7018
X3.0669Y-3.75
X3.1102Y-3.5748
X3.1181Y-3.3228
X3.2047Y-3.2795
X3.2264Y-3.1378
X3.2325Y-3.4408
X3.248Y-3.5748
X3.2677Y-3.5236
X3.2696Y-3.443
X3.2913Y-3.2972
X3.3071Y-3.5908
X3.3133Y-3.2516
X3.3467Y-3.4266
X3.3756Y-3.3661
X3.3819Y-3.4759
X3.4055Y-3.2283
X3.4173Y-3.4803
X3.427Y-3.0906
X3.437Y-3.563
X3.4606Y-3.0906
X3.472Y-3.5941
X3.5197Y-3.3465
X3.5315Y-3.5
X3.5394Y-3.4219
X3.5409Y-3.1353
X3.5443Y-3.2285
X3.5482Y-3.318
X3.5525Y-3.4711
X3.6024Y-3.1323
X3.6024Y-3.6811
X3.622Y-3.3425
X3.6339Y-3.2185
X3.6617Y-3.4407
X3.7047Y-3.1201
X3.7362Y-3.2441
X3.7795Y-3.6909
X3.8022Y-3.3048
X3.9961Y-3.6319
X4.0748Y-3.376
X4.1634Y-3.7106
X4.1831Y-3.4449
X4.2421Y-3.3268
X4.3012Y-3.4154
X4.311Y-3.4453
X4.3571Y-3.3709
X4.4173Y-3.2244
T2
X4.7539Y-3.1555
X4.7539Y-3.2972
T3
X3.3756Y-3.616
X3.5756Y-3.616
T4
X3.3378Y-3.516
X3.6134Y-3.516
T2
G00X2.9937Y-3.137
M15
G01X2.9622Y-3.137
M16
G05
G00X2.9937Y-3.4772
M15
G01X2.9622Y-3.4772
M16
G05
G00X3.163Y-3.137
M15
G01X3.1197Y-3.137
M16
G05
G00X3.163Y-3.4772
M15
G01X3.1197Y-3.4772
M16
G05
M30
