%TF.GenerationSoftware,KiCad,Pcbnew,10.0.0*%
%TF.CreationDate,2026-06-28T21:22:43+07:00*%
%TF.ProjectId,FindMyCharger,46696e64-4d79-4436-9861-726765722e6b,rev?*%
%TF.SameCoordinates,Original*%
%TF.FileFunction,Legend,Top*%
%TF.FilePolarity,Positive*%
%FSLAX46Y46*%
G04 Gerber Fmt 4.6, Leading zero omitted, Abs format (unit mm)*
G04 Created by KiCad (PCBNEW 10.0.0) date 2026-06-28 21:22:43*
%MOMM*%
%LPD*%
G01*
G04 APERTURE LIST*
G04 Aperture macros list*
%AMRoundRect*
0 Rectangle with rounded corners*
0 $1 Rounding radius*
0 $2 $3 $4 $5 $6 $7 $8 $9 X,Y pos of 4 corners*
0 Add a 4 corners polygon primitive as box body*
4,1,4,$2,$3,$4,$5,$6,$7,$8,$9,$2,$3,0*
0 Add four circle primitives for the rounded corners*
1,1,$1+$1,$2,$3*
1,1,$1+$1,$4,$5*
1,1,$1+$1,$6,$7*
1,1,$1+$1,$8,$9*
0 Add four rect primitives between the rounded corners*
20,1,$1+$1,$2,$3,$4,$5,0*
20,1,$1+$1,$4,$5,$6,$7,0*
20,1,$1+$1,$6,$7,$8,$9,0*
20,1,$1+$1,$8,$9,$2,$3,0*%
%AMFreePoly0*
4,1,149,1.019806,0.999029,1.069806,0.989029,1.072127,0.988507,1.110971,0.978796,1.159806,0.969029,1.162127,0.968507,1.242127,0.948507,1.252361,0.944721,1.287451,0.927176,1.322127,0.918507,1.332361,0.914721,1.412361,0.874721,1.420000,0.870000,1.456394,0.842704,1.492361,0.824721,1.505355,0.815355,1.532840,0.787870,1.570000,0.760000,1.575355,0.755355,1.695355,0.635355,
1.700000,0.630000,1.727870,0.592840,1.755355,0.565355,1.764721,0.552361,1.824721,0.432361,1.828507,0.422127,1.839039,0.380000,3.500000,0.380000,3.535355,0.365355,3.550000,0.330000,3.550000,-0.330000,3.535355,-0.365355,3.500000,-0.380000,1.839039,-0.380000,1.828507,-0.422127,1.824721,-0.432361,1.764721,-0.552361,1.755355,-0.565355,1.727870,-0.592840,1.700000,-0.630000,
1.695355,-0.635355,1.637870,-0.692840,1.610000,-0.730000,1.597735,-0.741603,1.568884,-0.760837,1.532840,-0.787870,1.505355,-0.815355,1.492361,-0.824721,1.456394,-0.842704,1.420000,-0.870000,1.412361,-0.874721,1.332361,-0.914721,1.322127,-0.918507,1.287451,-0.927176,1.252361,-0.944721,1.242127,-0.948507,1.162127,-0.968507,1.159806,-0.969029,1.110971,-0.978796,1.072127,-0.988507,
1.069806,-0.989029,1.019806,-0.999029,1.010000,-1.000000,-1.020000,-1.000000,-1.032127,-0.998507,-1.070971,-0.988796,-1.119806,-0.979029,-1.122127,-0.978507,-1.200971,-0.958796,-1.249806,-0.949029,-1.262361,-0.944721,-1.297451,-0.927176,-1.332127,-0.918507,-1.342361,-0.914721,-1.422361,-0.874721,-1.430000,-0.870000,-1.468884,-0.840837,-1.497735,-0.821603,-1.500000,-0.820000,-1.540000,-0.790000,
-1.545355,-0.785355,-1.569617,-0.761093,-1.602361,-0.744721,-1.620000,-0.730000,-1.647870,-0.692840,-1.705355,-0.635355,-1.710000,-0.630000,-1.740000,-0.590000,-1.741603,-0.587735,-1.761603,-0.557735,-1.764721,-0.552361,-1.782704,-0.516394,-1.810000,-0.480000,-1.814721,-0.472361,-1.854721,-0.392361,-1.858507,-0.382127,-1.867176,-0.347451,-1.884721,-0.312361,-1.889029,-0.299806,-1.898796,-0.250971,
-1.918507,-0.172127,-1.920000,-0.160000,-1.920000,-0.116155,-1.928507,-0.082127,-1.930000,-0.070000,-1.930000,0.070000,-1.928507,0.082127,-1.920000,0.116155,-1.920000,0.150000,-1.919029,0.159806,-1.909029,0.209806,-1.908507,0.212127,-1.888507,0.292127,-1.886424,0.298570,-1.867683,0.345421,-1.858507,0.382127,-1.854721,0.392361,-1.814721,0.472361,-1.810000,0.480000,-1.782704,0.516394,
-1.764721,0.552361,-1.761603,0.557735,-1.741603,0.587735,-1.740000,0.590000,-1.710000,0.630000,-1.705355,0.635355,-1.615355,0.725355,-1.610000,0.730000,-1.572840,0.757870,-1.545355,0.785355,-1.540000,0.790000,-1.500000,0.820000,-1.497735,0.821603,-1.468884,0.840837,-1.430000,0.870000,-1.422361,0.874721,-1.342361,0.914721,-1.332127,0.918507,-1.297451,0.927176,-1.262361,0.944721,
-1.249806,0.949029,-1.200971,0.958796,-1.122127,0.978507,-1.119806,0.979029,-1.070971,0.988796,-1.032127,0.998507,-1.020000,1.000000,1.010000,1.000000,1.019806,0.999029,1.019806,0.999029,$1*%
G04 Aperture macros list end*
%ADD10C,0.150000*%
%ADD11C,0.120000*%
%ADD12C,0.250000*%
%ADD13C,0.300000*%
%ADD14C,2.500000*%
%ADD15R,1.580000X0.670000*%
%ADD16FreePoly0,0.000000*%
%ADD17C,1.600000*%
%ADD18RoundRect,0.250000X0.550000X-0.550000X0.550000X0.550000X-0.550000X0.550000X-0.550000X-0.550000X0*%
%ADD19RoundRect,0.140000X0.140000X0.170000X-0.140000X0.170000X-0.140000X-0.170000X0.140000X-0.170000X0*%
%ADD20R,2.500000X2.500000*%
%ADD21O,0.280000X0.800000*%
%ADD22O,0.800000X0.280000*%
%ADD23R,3.500000X3.500000*%
%ADD24RoundRect,0.140000X0.170000X-0.140000X0.170000X0.140000X-0.170000X0.140000X-0.170000X-0.140000X0*%
%ADD25RoundRect,0.135000X-0.185000X0.135000X-0.185000X-0.135000X0.185000X-0.135000X0.185000X0.135000X0*%
%ADD26RoundRect,0.250000X-0.475000X0.250000X-0.475000X-0.250000X0.475000X-0.250000X0.475000X0.250000X0*%
%ADD27C,1.800000*%
%ADD28C,2.000000*%
%ADD29RoundRect,0.250000X0.475000X-0.250000X0.475000X0.250000X-0.475000X0.250000X-0.475000X-0.250000X0*%
%ADD30RoundRect,0.100000X0.130000X0.100000X-0.130000X0.100000X-0.130000X-0.100000X0.130000X-0.100000X0*%
%ADD31RoundRect,0.218750X-0.256250X0.218750X-0.256250X-0.218750X0.256250X-0.218750X0.256250X0.218750X0*%
%ADD32RoundRect,0.250000X0.250000X0.475000X-0.250000X0.475000X-0.250000X-0.475000X0.250000X-0.475000X0*%
%ADD33R,3.000000X1.950000*%
%ADD34RoundRect,0.225000X0.250000X-0.225000X0.250000X0.225000X-0.250000X0.225000X-0.250000X-0.225000X0*%
%ADD35C,0.650000*%
%ADD36R,1.150000X0.600000*%
%ADD37R,1.150000X0.300000*%
%ADD38O,2.100000X1.000000*%
%ADD39O,1.800000X1.000000*%
%ADD40RoundRect,0.135000X0.135000X0.185000X-0.135000X0.185000X-0.135000X-0.185000X0.135000X-0.185000X0*%
%ADD41R,0.800000X0.700000*%
%ADD42RoundRect,0.140000X-0.140000X-0.170000X0.140000X-0.170000X0.140000X0.170000X-0.140000X0.170000X0*%
%ADD43RoundRect,0.225000X-0.225000X-0.250000X0.225000X-0.250000X0.225000X0.250000X-0.225000X0.250000X0*%
G04 APERTURE END LIST*
D10*
X118217438Y-84539411D02*
X118169819Y-84634649D01*
X118169819Y-84634649D02*
X118169819Y-84777506D01*
X118169819Y-84777506D02*
X118217438Y-84920363D01*
X118217438Y-84920363D02*
X118312676Y-85015601D01*
X118312676Y-85015601D02*
X118407914Y-85063220D01*
X118407914Y-85063220D02*
X118598390Y-85110839D01*
X118598390Y-85110839D02*
X118741247Y-85110839D01*
X118741247Y-85110839D02*
X118931723Y-85063220D01*
X118931723Y-85063220D02*
X119026961Y-85015601D01*
X119026961Y-85015601D02*
X119122200Y-84920363D01*
X119122200Y-84920363D02*
X119169819Y-84777506D01*
X119169819Y-84777506D02*
X119169819Y-84682268D01*
X119169819Y-84682268D02*
X119122200Y-84539411D01*
X119122200Y-84539411D02*
X119074580Y-84491792D01*
X119074580Y-84491792D02*
X118741247Y-84491792D01*
X118741247Y-84491792D02*
X118741247Y-84682268D01*
X119169819Y-84063220D02*
X118169819Y-84063220D01*
X118169819Y-84063220D02*
X119169819Y-83491792D01*
X119169819Y-83491792D02*
X118169819Y-83491792D01*
X119169819Y-83015601D02*
X118169819Y-83015601D01*
X118169819Y-83015601D02*
X118169819Y-82777506D01*
X118169819Y-82777506D02*
X118217438Y-82634649D01*
X118217438Y-82634649D02*
X118312676Y-82539411D01*
X118312676Y-82539411D02*
X118407914Y-82491792D01*
X118407914Y-82491792D02*
X118598390Y-82444173D01*
X118598390Y-82444173D02*
X118741247Y-82444173D01*
X118741247Y-82444173D02*
X118931723Y-82491792D01*
X118931723Y-82491792D02*
X119026961Y-82539411D01*
X119026961Y-82539411D02*
X119122200Y-82634649D01*
X119122200Y-82634649D02*
X119169819Y-82777506D01*
X119169819Y-82777506D02*
X119169819Y-83015601D01*
X105511905Y-79154819D02*
X106130952Y-79154819D01*
X106130952Y-79154819D02*
X105797619Y-79535771D01*
X105797619Y-79535771D02*
X105940476Y-79535771D01*
X105940476Y-79535771D02*
X106035714Y-79583390D01*
X106035714Y-79583390D02*
X106083333Y-79631009D01*
X106083333Y-79631009D02*
X106130952Y-79726247D01*
X106130952Y-79726247D02*
X106130952Y-79964342D01*
X106130952Y-79964342D02*
X106083333Y-80059580D01*
X106083333Y-80059580D02*
X106035714Y-80107200D01*
X106035714Y-80107200D02*
X105940476Y-80154819D01*
X105940476Y-80154819D02*
X105654762Y-80154819D01*
X105654762Y-80154819D02*
X105559524Y-80107200D01*
X105559524Y-80107200D02*
X105511905Y-80059580D01*
X106416667Y-79154819D02*
X106750000Y-80154819D01*
X106750000Y-80154819D02*
X107083333Y-79154819D01*
X107321429Y-79154819D02*
X107940476Y-79154819D01*
X107940476Y-79154819D02*
X107607143Y-79535771D01*
X107607143Y-79535771D02*
X107750000Y-79535771D01*
X107750000Y-79535771D02*
X107845238Y-79583390D01*
X107845238Y-79583390D02*
X107892857Y-79631009D01*
X107892857Y-79631009D02*
X107940476Y-79726247D01*
X107940476Y-79726247D02*
X107940476Y-79964342D01*
X107940476Y-79964342D02*
X107892857Y-80059580D01*
X107892857Y-80059580D02*
X107845238Y-80107200D01*
X107845238Y-80107200D02*
X107750000Y-80154819D01*
X107750000Y-80154819D02*
X107464286Y-80154819D01*
X107464286Y-80154819D02*
X107369048Y-80107200D01*
X107369048Y-80107200D02*
X107321429Y-80059580D01*
X101348095Y-79204819D02*
X101348095Y-80014342D01*
X101348095Y-80014342D02*
X101395714Y-80109580D01*
X101395714Y-80109580D02*
X101443333Y-80157200D01*
X101443333Y-80157200D02*
X101538571Y-80204819D01*
X101538571Y-80204819D02*
X101729047Y-80204819D01*
X101729047Y-80204819D02*
X101824285Y-80157200D01*
X101824285Y-80157200D02*
X101871904Y-80109580D01*
X101871904Y-80109580D02*
X101919523Y-80014342D01*
X101919523Y-80014342D02*
X101919523Y-79204819D01*
X102300476Y-79204819D02*
X102919523Y-79204819D01*
X102919523Y-79204819D02*
X102586190Y-79585771D01*
X102586190Y-79585771D02*
X102729047Y-79585771D01*
X102729047Y-79585771D02*
X102824285Y-79633390D01*
X102824285Y-79633390D02*
X102871904Y-79681009D01*
X102871904Y-79681009D02*
X102919523Y-79776247D01*
X102919523Y-79776247D02*
X102919523Y-80014342D01*
X102919523Y-80014342D02*
X102871904Y-80109580D01*
X102871904Y-80109580D02*
X102824285Y-80157200D01*
X102824285Y-80157200D02*
X102729047Y-80204819D01*
X102729047Y-80204819D02*
X102443333Y-80204819D01*
X102443333Y-80204819D02*
X102348095Y-80157200D01*
X102348095Y-80157200D02*
X102300476Y-80109580D01*
X118531009Y-81557142D02*
X118578628Y-81414285D01*
X118578628Y-81414285D02*
X118626247Y-81366666D01*
X118626247Y-81366666D02*
X118721485Y-81319047D01*
X118721485Y-81319047D02*
X118864342Y-81319047D01*
X118864342Y-81319047D02*
X118959580Y-81366666D01*
X118959580Y-81366666D02*
X119007200Y-81414285D01*
X119007200Y-81414285D02*
X119054819Y-81509523D01*
X119054819Y-81509523D02*
X119054819Y-81890475D01*
X119054819Y-81890475D02*
X118054819Y-81890475D01*
X118054819Y-81890475D02*
X118054819Y-81557142D01*
X118054819Y-81557142D02*
X118102438Y-81461904D01*
X118102438Y-81461904D02*
X118150057Y-81414285D01*
X118150057Y-81414285D02*
X118245295Y-81366666D01*
X118245295Y-81366666D02*
X118340533Y-81366666D01*
X118340533Y-81366666D02*
X118435771Y-81414285D01*
X118435771Y-81414285D02*
X118483390Y-81461904D01*
X118483390Y-81461904D02*
X118531009Y-81557142D01*
X118531009Y-81557142D02*
X118531009Y-81890475D01*
X118769104Y-80938094D02*
X118769104Y-80461904D01*
X119054819Y-81033332D02*
X118054819Y-80699999D01*
X118054819Y-80699999D02*
X119054819Y-80366666D01*
X118054819Y-80176189D02*
X118054819Y-79604761D01*
X119054819Y-79890475D02*
X118054819Y-79890475D01*
X118673866Y-79271427D02*
X118673866Y-78509523D01*
X119054819Y-78890475D02*
X118292914Y-78890475D01*
X86377142Y-87269580D02*
X86329523Y-87317200D01*
X86329523Y-87317200D02*
X86186666Y-87364819D01*
X86186666Y-87364819D02*
X86091428Y-87364819D01*
X86091428Y-87364819D02*
X85948571Y-87317200D01*
X85948571Y-87317200D02*
X85853333Y-87221961D01*
X85853333Y-87221961D02*
X85805714Y-87126723D01*
X85805714Y-87126723D02*
X85758095Y-86936247D01*
X85758095Y-86936247D02*
X85758095Y-86793390D01*
X85758095Y-86793390D02*
X85805714Y-86602914D01*
X85805714Y-86602914D02*
X85853333Y-86507676D01*
X85853333Y-86507676D02*
X85948571Y-86412438D01*
X85948571Y-86412438D02*
X86091428Y-86364819D01*
X86091428Y-86364819D02*
X86186666Y-86364819D01*
X86186666Y-86364819D02*
X86329523Y-86412438D01*
X86329523Y-86412438D02*
X86377142Y-86460057D01*
X87329523Y-87364819D02*
X86758095Y-87364819D01*
X87043809Y-87364819D02*
X87043809Y-86364819D01*
X87043809Y-86364819D02*
X86948571Y-86507676D01*
X86948571Y-86507676D02*
X86853333Y-86602914D01*
X86853333Y-86602914D02*
X86758095Y-86650533D01*
X87710476Y-86460057D02*
X87758095Y-86412438D01*
X87758095Y-86412438D02*
X87853333Y-86364819D01*
X87853333Y-86364819D02*
X88091428Y-86364819D01*
X88091428Y-86364819D02*
X88186666Y-86412438D01*
X88186666Y-86412438D02*
X88234285Y-86460057D01*
X88234285Y-86460057D02*
X88281904Y-86555295D01*
X88281904Y-86555295D02*
X88281904Y-86650533D01*
X88281904Y-86650533D02*
X88234285Y-86793390D01*
X88234285Y-86793390D02*
X87662857Y-87364819D01*
X87662857Y-87364819D02*
X88281904Y-87364819D01*
X116102438Y-85061904D02*
X116054819Y-85157142D01*
X116054819Y-85157142D02*
X116054819Y-85299999D01*
X116054819Y-85299999D02*
X116102438Y-85442856D01*
X116102438Y-85442856D02*
X116197676Y-85538094D01*
X116197676Y-85538094D02*
X116292914Y-85585713D01*
X116292914Y-85585713D02*
X116483390Y-85633332D01*
X116483390Y-85633332D02*
X116626247Y-85633332D01*
X116626247Y-85633332D02*
X116816723Y-85585713D01*
X116816723Y-85585713D02*
X116911961Y-85538094D01*
X116911961Y-85538094D02*
X117007200Y-85442856D01*
X117007200Y-85442856D02*
X117054819Y-85299999D01*
X117054819Y-85299999D02*
X117054819Y-85204761D01*
X117054819Y-85204761D02*
X117007200Y-85061904D01*
X117007200Y-85061904D02*
X116959580Y-85014285D01*
X116959580Y-85014285D02*
X116626247Y-85014285D01*
X116626247Y-85014285D02*
X116626247Y-85204761D01*
X117054819Y-84585713D02*
X116054819Y-84585713D01*
X116054819Y-84585713D02*
X117054819Y-84014285D01*
X117054819Y-84014285D02*
X116054819Y-84014285D01*
X117054819Y-83538094D02*
X116054819Y-83538094D01*
X116054819Y-83538094D02*
X116054819Y-83299999D01*
X116054819Y-83299999D02*
X116102438Y-83157142D01*
X116102438Y-83157142D02*
X116197676Y-83061904D01*
X116197676Y-83061904D02*
X116292914Y-83014285D01*
X116292914Y-83014285D02*
X116483390Y-82966666D01*
X116483390Y-82966666D02*
X116626247Y-82966666D01*
X116626247Y-82966666D02*
X116816723Y-83014285D01*
X116816723Y-83014285D02*
X116911961Y-83061904D01*
X116911961Y-83061904D02*
X117007200Y-83157142D01*
X117007200Y-83157142D02*
X117054819Y-83299999D01*
X117054819Y-83299999D02*
X117054819Y-83538094D01*
X82454819Y-82761904D02*
X83264342Y-82761904D01*
X83264342Y-82761904D02*
X83359580Y-82714285D01*
X83359580Y-82714285D02*
X83407200Y-82666666D01*
X83407200Y-82666666D02*
X83454819Y-82571428D01*
X83454819Y-82571428D02*
X83454819Y-82380952D01*
X83454819Y-82380952D02*
X83407200Y-82285714D01*
X83407200Y-82285714D02*
X83359580Y-82238095D01*
X83359580Y-82238095D02*
X83264342Y-82190476D01*
X83264342Y-82190476D02*
X82454819Y-82190476D01*
X83454819Y-81190476D02*
X83454819Y-81761904D01*
X83454819Y-81476190D02*
X82454819Y-81476190D01*
X82454819Y-81476190D02*
X82597676Y-81571428D01*
X82597676Y-81571428D02*
X82692914Y-81666666D01*
X82692914Y-81666666D02*
X82740533Y-81761904D01*
X89949580Y-80642857D02*
X89997200Y-80690476D01*
X89997200Y-80690476D02*
X90044819Y-80833333D01*
X90044819Y-80833333D02*
X90044819Y-80928571D01*
X90044819Y-80928571D02*
X89997200Y-81071428D01*
X89997200Y-81071428D02*
X89901961Y-81166666D01*
X89901961Y-81166666D02*
X89806723Y-81214285D01*
X89806723Y-81214285D02*
X89616247Y-81261904D01*
X89616247Y-81261904D02*
X89473390Y-81261904D01*
X89473390Y-81261904D02*
X89282914Y-81214285D01*
X89282914Y-81214285D02*
X89187676Y-81166666D01*
X89187676Y-81166666D02*
X89092438Y-81071428D01*
X89092438Y-81071428D02*
X89044819Y-80928571D01*
X89044819Y-80928571D02*
X89044819Y-80833333D01*
X89044819Y-80833333D02*
X89092438Y-80690476D01*
X89092438Y-80690476D02*
X89140057Y-80642857D01*
X90044819Y-79690476D02*
X90044819Y-80261904D01*
X90044819Y-79976190D02*
X89044819Y-79976190D01*
X89044819Y-79976190D02*
X89187676Y-80071428D01*
X89187676Y-80071428D02*
X89282914Y-80166666D01*
X89282914Y-80166666D02*
X89330533Y-80261904D01*
X89044819Y-78833333D02*
X89044819Y-79023809D01*
X89044819Y-79023809D02*
X89092438Y-79119047D01*
X89092438Y-79119047D02*
X89140057Y-79166666D01*
X89140057Y-79166666D02*
X89282914Y-79261904D01*
X89282914Y-79261904D02*
X89473390Y-79309523D01*
X89473390Y-79309523D02*
X89854342Y-79309523D01*
X89854342Y-79309523D02*
X89949580Y-79261904D01*
X89949580Y-79261904D02*
X89997200Y-79214285D01*
X89997200Y-79214285D02*
X90044819Y-79119047D01*
X90044819Y-79119047D02*
X90044819Y-78928571D01*
X90044819Y-78928571D02*
X89997200Y-78833333D01*
X89997200Y-78833333D02*
X89949580Y-78785714D01*
X89949580Y-78785714D02*
X89854342Y-78738095D01*
X89854342Y-78738095D02*
X89616247Y-78738095D01*
X89616247Y-78738095D02*
X89521009Y-78785714D01*
X89521009Y-78785714D02*
X89473390Y-78833333D01*
X89473390Y-78833333D02*
X89425771Y-78928571D01*
X89425771Y-78928571D02*
X89425771Y-79119047D01*
X89425771Y-79119047D02*
X89473390Y-79214285D01*
X89473390Y-79214285D02*
X89521009Y-79261904D01*
X89521009Y-79261904D02*
X89616247Y-79309523D01*
X109452380Y-81654819D02*
X109119047Y-81178628D01*
X108880952Y-81654819D02*
X108880952Y-80654819D01*
X108880952Y-80654819D02*
X109261904Y-80654819D01*
X109261904Y-80654819D02*
X109357142Y-80702438D01*
X109357142Y-80702438D02*
X109404761Y-80750057D01*
X109404761Y-80750057D02*
X109452380Y-80845295D01*
X109452380Y-80845295D02*
X109452380Y-80988152D01*
X109452380Y-80988152D02*
X109404761Y-81083390D01*
X109404761Y-81083390D02*
X109357142Y-81131009D01*
X109357142Y-81131009D02*
X109261904Y-81178628D01*
X109261904Y-81178628D02*
X108880952Y-81178628D01*
X109833333Y-81607200D02*
X109976190Y-81654819D01*
X109976190Y-81654819D02*
X110214285Y-81654819D01*
X110214285Y-81654819D02*
X110309523Y-81607200D01*
X110309523Y-81607200D02*
X110357142Y-81559580D01*
X110357142Y-81559580D02*
X110404761Y-81464342D01*
X110404761Y-81464342D02*
X110404761Y-81369104D01*
X110404761Y-81369104D02*
X110357142Y-81273866D01*
X110357142Y-81273866D02*
X110309523Y-81226247D01*
X110309523Y-81226247D02*
X110214285Y-81178628D01*
X110214285Y-81178628D02*
X110023809Y-81131009D01*
X110023809Y-81131009D02*
X109928571Y-81083390D01*
X109928571Y-81083390D02*
X109880952Y-81035771D01*
X109880952Y-81035771D02*
X109833333Y-80940533D01*
X109833333Y-80940533D02*
X109833333Y-80845295D01*
X109833333Y-80845295D02*
X109880952Y-80750057D01*
X109880952Y-80750057D02*
X109928571Y-80702438D01*
X109928571Y-80702438D02*
X110023809Y-80654819D01*
X110023809Y-80654819D02*
X110261904Y-80654819D01*
X110261904Y-80654819D02*
X110404761Y-80702438D01*
X110690476Y-80654819D02*
X111261904Y-80654819D01*
X110976190Y-81654819D02*
X110976190Y-80654819D01*
X84804819Y-92416666D02*
X84328628Y-92749999D01*
X84804819Y-92988094D02*
X83804819Y-92988094D01*
X83804819Y-92988094D02*
X83804819Y-92607142D01*
X83804819Y-92607142D02*
X83852438Y-92511904D01*
X83852438Y-92511904D02*
X83900057Y-92464285D01*
X83900057Y-92464285D02*
X83995295Y-92416666D01*
X83995295Y-92416666D02*
X84138152Y-92416666D01*
X84138152Y-92416666D02*
X84233390Y-92464285D01*
X84233390Y-92464285D02*
X84281009Y-92511904D01*
X84281009Y-92511904D02*
X84328628Y-92607142D01*
X84328628Y-92607142D02*
X84328628Y-92988094D01*
X84138152Y-91559523D02*
X84804819Y-91559523D01*
X83757200Y-91797618D02*
X84471485Y-92035713D01*
X84471485Y-92035713D02*
X84471485Y-91416666D01*
X119990579Y-81542857D02*
X120038199Y-81590476D01*
X120038199Y-81590476D02*
X120085818Y-81733333D01*
X120085818Y-81733333D02*
X120085818Y-81828571D01*
X120085818Y-81828571D02*
X120038199Y-81971428D01*
X120038199Y-81971428D02*
X119942960Y-82066666D01*
X119942960Y-82066666D02*
X119847722Y-82114285D01*
X119847722Y-82114285D02*
X119657246Y-82161904D01*
X119657246Y-82161904D02*
X119514389Y-82161904D01*
X119514389Y-82161904D02*
X119323913Y-82114285D01*
X119323913Y-82114285D02*
X119228675Y-82066666D01*
X119228675Y-82066666D02*
X119133437Y-81971428D01*
X119133437Y-81971428D02*
X119085818Y-81828571D01*
X119085818Y-81828571D02*
X119085818Y-81733333D01*
X119085818Y-81733333D02*
X119133437Y-81590476D01*
X119133437Y-81590476D02*
X119181056Y-81542857D01*
X120085818Y-80590476D02*
X120085818Y-81161904D01*
X120085818Y-80876190D02*
X119085818Y-80876190D01*
X119085818Y-80876190D02*
X119228675Y-80971428D01*
X119228675Y-80971428D02*
X119323913Y-81066666D01*
X119323913Y-81066666D02*
X119371532Y-81161904D01*
X119085818Y-80257142D02*
X119085818Y-79638095D01*
X119085818Y-79638095D02*
X119466770Y-79971428D01*
X119466770Y-79971428D02*
X119466770Y-79828571D01*
X119466770Y-79828571D02*
X119514389Y-79733333D01*
X119514389Y-79733333D02*
X119562008Y-79685714D01*
X119562008Y-79685714D02*
X119657246Y-79638095D01*
X119657246Y-79638095D02*
X119895341Y-79638095D01*
X119895341Y-79638095D02*
X119990579Y-79685714D01*
X119990579Y-79685714D02*
X120038199Y-79733333D01*
X120038199Y-79733333D02*
X120085818Y-79828571D01*
X120085818Y-79828571D02*
X120085818Y-80114285D01*
X120085818Y-80114285D02*
X120038199Y-80209523D01*
X120038199Y-80209523D02*
X119990579Y-80257142D01*
X86946667Y-85714700D02*
X87089524Y-85762319D01*
X87089524Y-85762319D02*
X87327619Y-85762319D01*
X87327619Y-85762319D02*
X87422857Y-85714700D01*
X87422857Y-85714700D02*
X87470476Y-85667080D01*
X87470476Y-85667080D02*
X87518095Y-85571842D01*
X87518095Y-85571842D02*
X87518095Y-85476604D01*
X87518095Y-85476604D02*
X87470476Y-85381366D01*
X87470476Y-85381366D02*
X87422857Y-85333747D01*
X87422857Y-85333747D02*
X87327619Y-85286128D01*
X87327619Y-85286128D02*
X87137143Y-85238509D01*
X87137143Y-85238509D02*
X87041905Y-85190890D01*
X87041905Y-85190890D02*
X86994286Y-85143271D01*
X86994286Y-85143271D02*
X86946667Y-85048033D01*
X86946667Y-85048033D02*
X86946667Y-84952795D01*
X86946667Y-84952795D02*
X86994286Y-84857557D01*
X86994286Y-84857557D02*
X87041905Y-84809938D01*
X87041905Y-84809938D02*
X87137143Y-84762319D01*
X87137143Y-84762319D02*
X87375238Y-84762319D01*
X87375238Y-84762319D02*
X87518095Y-84809938D01*
X87851429Y-84762319D02*
X88089524Y-85762319D01*
X88089524Y-85762319D02*
X88280000Y-85048033D01*
X88280000Y-85048033D02*
X88470476Y-85762319D01*
X88470476Y-85762319D02*
X88708572Y-84762319D01*
X89613333Y-85762319D02*
X89041905Y-85762319D01*
X89327619Y-85762319D02*
X89327619Y-84762319D01*
X89327619Y-84762319D02*
X89232381Y-84905176D01*
X89232381Y-84905176D02*
X89137143Y-85000414D01*
X89137143Y-85000414D02*
X89041905Y-85048033D01*
X92079580Y-83292857D02*
X92127200Y-83340476D01*
X92127200Y-83340476D02*
X92174819Y-83483333D01*
X92174819Y-83483333D02*
X92174819Y-83578571D01*
X92174819Y-83578571D02*
X92127200Y-83721428D01*
X92127200Y-83721428D02*
X92031961Y-83816666D01*
X92031961Y-83816666D02*
X91936723Y-83864285D01*
X91936723Y-83864285D02*
X91746247Y-83911904D01*
X91746247Y-83911904D02*
X91603390Y-83911904D01*
X91603390Y-83911904D02*
X91412914Y-83864285D01*
X91412914Y-83864285D02*
X91317676Y-83816666D01*
X91317676Y-83816666D02*
X91222438Y-83721428D01*
X91222438Y-83721428D02*
X91174819Y-83578571D01*
X91174819Y-83578571D02*
X91174819Y-83483333D01*
X91174819Y-83483333D02*
X91222438Y-83340476D01*
X91222438Y-83340476D02*
X91270057Y-83292857D01*
X92174819Y-82340476D02*
X92174819Y-82911904D01*
X92174819Y-82626190D02*
X91174819Y-82626190D01*
X91174819Y-82626190D02*
X91317676Y-82721428D01*
X91317676Y-82721428D02*
X91412914Y-82816666D01*
X91412914Y-82816666D02*
X91460533Y-82911904D01*
X91174819Y-81721428D02*
X91174819Y-81626190D01*
X91174819Y-81626190D02*
X91222438Y-81530952D01*
X91222438Y-81530952D02*
X91270057Y-81483333D01*
X91270057Y-81483333D02*
X91365295Y-81435714D01*
X91365295Y-81435714D02*
X91555771Y-81388095D01*
X91555771Y-81388095D02*
X91793866Y-81388095D01*
X91793866Y-81388095D02*
X91984342Y-81435714D01*
X91984342Y-81435714D02*
X92079580Y-81483333D01*
X92079580Y-81483333D02*
X92127200Y-81530952D01*
X92127200Y-81530952D02*
X92174819Y-81626190D01*
X92174819Y-81626190D02*
X92174819Y-81721428D01*
X92174819Y-81721428D02*
X92127200Y-81816666D01*
X92127200Y-81816666D02*
X92079580Y-81864285D01*
X92079580Y-81864285D02*
X91984342Y-81911904D01*
X91984342Y-81911904D02*
X91793866Y-81959523D01*
X91793866Y-81959523D02*
X91555771Y-81959523D01*
X91555771Y-81959523D02*
X91365295Y-81911904D01*
X91365295Y-81911904D02*
X91270057Y-81864285D01*
X91270057Y-81864285D02*
X91222438Y-81816666D01*
X91222438Y-81816666D02*
X91174819Y-81721428D01*
X94119286Y-84704819D02*
X94690714Y-84704819D01*
X94405000Y-85704819D02*
X94405000Y-84704819D01*
X95024048Y-85704819D02*
X95024048Y-84704819D01*
X95024048Y-85181009D02*
X95595476Y-85181009D01*
X95595476Y-85704819D02*
X95595476Y-84704819D01*
X96595476Y-85704819D02*
X96024048Y-85704819D01*
X96309762Y-85704819D02*
X96309762Y-84704819D01*
X96309762Y-84704819D02*
X96214524Y-84847676D01*
X96214524Y-84847676D02*
X96119286Y-84942914D01*
X96119286Y-84942914D02*
X96024048Y-84990533D01*
X75704819Y-94525594D02*
X74704819Y-94525594D01*
X74704819Y-94525594D02*
X74704819Y-94287499D01*
X74704819Y-94287499D02*
X74752438Y-94144642D01*
X74752438Y-94144642D02*
X74847676Y-94049404D01*
X74847676Y-94049404D02*
X74942914Y-94001785D01*
X74942914Y-94001785D02*
X75133390Y-93954166D01*
X75133390Y-93954166D02*
X75276247Y-93954166D01*
X75276247Y-93954166D02*
X75466723Y-94001785D01*
X75466723Y-94001785D02*
X75561961Y-94049404D01*
X75561961Y-94049404D02*
X75657200Y-94144642D01*
X75657200Y-94144642D02*
X75704819Y-94287499D01*
X75704819Y-94287499D02*
X75704819Y-94525594D01*
X75038152Y-93097023D02*
X75704819Y-93097023D01*
X74657200Y-93335118D02*
X75371485Y-93573213D01*
X75371485Y-93573213D02*
X75371485Y-92954166D01*
X78793333Y-92614580D02*
X78745714Y-92662200D01*
X78745714Y-92662200D02*
X78602857Y-92709819D01*
X78602857Y-92709819D02*
X78507619Y-92709819D01*
X78507619Y-92709819D02*
X78364762Y-92662200D01*
X78364762Y-92662200D02*
X78269524Y-92566961D01*
X78269524Y-92566961D02*
X78221905Y-92471723D01*
X78221905Y-92471723D02*
X78174286Y-92281247D01*
X78174286Y-92281247D02*
X78174286Y-92138390D01*
X78174286Y-92138390D02*
X78221905Y-91947914D01*
X78221905Y-91947914D02*
X78269524Y-91852676D01*
X78269524Y-91852676D02*
X78364762Y-91757438D01*
X78364762Y-91757438D02*
X78507619Y-91709819D01*
X78507619Y-91709819D02*
X78602857Y-91709819D01*
X78602857Y-91709819D02*
X78745714Y-91757438D01*
X78745714Y-91757438D02*
X78793333Y-91805057D01*
X79364762Y-92138390D02*
X79269524Y-92090771D01*
X79269524Y-92090771D02*
X79221905Y-92043152D01*
X79221905Y-92043152D02*
X79174286Y-91947914D01*
X79174286Y-91947914D02*
X79174286Y-91900295D01*
X79174286Y-91900295D02*
X79221905Y-91805057D01*
X79221905Y-91805057D02*
X79269524Y-91757438D01*
X79269524Y-91757438D02*
X79364762Y-91709819D01*
X79364762Y-91709819D02*
X79555238Y-91709819D01*
X79555238Y-91709819D02*
X79650476Y-91757438D01*
X79650476Y-91757438D02*
X79698095Y-91805057D01*
X79698095Y-91805057D02*
X79745714Y-91900295D01*
X79745714Y-91900295D02*
X79745714Y-91947914D01*
X79745714Y-91947914D02*
X79698095Y-92043152D01*
X79698095Y-92043152D02*
X79650476Y-92090771D01*
X79650476Y-92090771D02*
X79555238Y-92138390D01*
X79555238Y-92138390D02*
X79364762Y-92138390D01*
X79364762Y-92138390D02*
X79269524Y-92186009D01*
X79269524Y-92186009D02*
X79221905Y-92233628D01*
X79221905Y-92233628D02*
X79174286Y-92328866D01*
X79174286Y-92328866D02*
X79174286Y-92519342D01*
X79174286Y-92519342D02*
X79221905Y-92614580D01*
X79221905Y-92614580D02*
X79269524Y-92662200D01*
X79269524Y-92662200D02*
X79364762Y-92709819D01*
X79364762Y-92709819D02*
X79555238Y-92709819D01*
X79555238Y-92709819D02*
X79650476Y-92662200D01*
X79650476Y-92662200D02*
X79698095Y-92614580D01*
X79698095Y-92614580D02*
X79745714Y-92519342D01*
X79745714Y-92519342D02*
X79745714Y-92328866D01*
X79745714Y-92328866D02*
X79698095Y-92233628D01*
X79698095Y-92233628D02*
X79650476Y-92186009D01*
X79650476Y-92186009D02*
X79555238Y-92138390D01*
X80949580Y-81186666D02*
X80997200Y-81234285D01*
X80997200Y-81234285D02*
X81044819Y-81377142D01*
X81044819Y-81377142D02*
X81044819Y-81472380D01*
X81044819Y-81472380D02*
X80997200Y-81615237D01*
X80997200Y-81615237D02*
X80901961Y-81710475D01*
X80901961Y-81710475D02*
X80806723Y-81758094D01*
X80806723Y-81758094D02*
X80616247Y-81805713D01*
X80616247Y-81805713D02*
X80473390Y-81805713D01*
X80473390Y-81805713D02*
X80282914Y-81758094D01*
X80282914Y-81758094D02*
X80187676Y-81710475D01*
X80187676Y-81710475D02*
X80092438Y-81615237D01*
X80092438Y-81615237D02*
X80044819Y-81472380D01*
X80044819Y-81472380D02*
X80044819Y-81377142D01*
X80044819Y-81377142D02*
X80092438Y-81234285D01*
X80092438Y-81234285D02*
X80140057Y-81186666D01*
X81044819Y-80234285D02*
X81044819Y-80805713D01*
X81044819Y-80519999D02*
X80044819Y-80519999D01*
X80044819Y-80519999D02*
X80187676Y-80615237D01*
X80187676Y-80615237D02*
X80282914Y-80710475D01*
X80282914Y-80710475D02*
X80330533Y-80805713D01*
X92704819Y-88916666D02*
X92704819Y-89392856D01*
X92704819Y-89392856D02*
X91704819Y-89392856D01*
X92704819Y-88059523D02*
X92704819Y-88630951D01*
X92704819Y-88345237D02*
X91704819Y-88345237D01*
X91704819Y-88345237D02*
X91847676Y-88440475D01*
X91847676Y-88440475D02*
X91942914Y-88535713D01*
X91942914Y-88535713D02*
X91990533Y-88630951D01*
X81929580Y-80891666D02*
X81977200Y-80939285D01*
X81977200Y-80939285D02*
X82024819Y-81082142D01*
X82024819Y-81082142D02*
X82024819Y-81177380D01*
X82024819Y-81177380D02*
X81977200Y-81320237D01*
X81977200Y-81320237D02*
X81881961Y-81415475D01*
X81881961Y-81415475D02*
X81786723Y-81463094D01*
X81786723Y-81463094D02*
X81596247Y-81510713D01*
X81596247Y-81510713D02*
X81453390Y-81510713D01*
X81453390Y-81510713D02*
X81262914Y-81463094D01*
X81262914Y-81463094D02*
X81167676Y-81415475D01*
X81167676Y-81415475D02*
X81072438Y-81320237D01*
X81072438Y-81320237D02*
X81024819Y-81177380D01*
X81024819Y-81177380D02*
X81024819Y-81082142D01*
X81024819Y-81082142D02*
X81072438Y-80939285D01*
X81072438Y-80939285D02*
X81120057Y-80891666D01*
X81120057Y-80510713D02*
X81072438Y-80463094D01*
X81072438Y-80463094D02*
X81024819Y-80367856D01*
X81024819Y-80367856D02*
X81024819Y-80129761D01*
X81024819Y-80129761D02*
X81072438Y-80034523D01*
X81072438Y-80034523D02*
X81120057Y-79986904D01*
X81120057Y-79986904D02*
X81215295Y-79939285D01*
X81215295Y-79939285D02*
X81310533Y-79939285D01*
X81310533Y-79939285D02*
X81453390Y-79986904D01*
X81453390Y-79986904D02*
X82024819Y-80558332D01*
X82024819Y-80558332D02*
X82024819Y-79939285D01*
X80884819Y-94525594D02*
X79884819Y-94525594D01*
X79884819Y-94525594D02*
X79884819Y-94287499D01*
X79884819Y-94287499D02*
X79932438Y-94144642D01*
X79932438Y-94144642D02*
X80027676Y-94049404D01*
X80027676Y-94049404D02*
X80122914Y-94001785D01*
X80122914Y-94001785D02*
X80313390Y-93954166D01*
X80313390Y-93954166D02*
X80456247Y-93954166D01*
X80456247Y-93954166D02*
X80646723Y-94001785D01*
X80646723Y-94001785D02*
X80741961Y-94049404D01*
X80741961Y-94049404D02*
X80837200Y-94144642D01*
X80837200Y-94144642D02*
X80884819Y-94287499D01*
X80884819Y-94287499D02*
X80884819Y-94525594D01*
X79980057Y-93573213D02*
X79932438Y-93525594D01*
X79932438Y-93525594D02*
X79884819Y-93430356D01*
X79884819Y-93430356D02*
X79884819Y-93192261D01*
X79884819Y-93192261D02*
X79932438Y-93097023D01*
X79932438Y-93097023D02*
X79980057Y-93049404D01*
X79980057Y-93049404D02*
X80075295Y-93001785D01*
X80075295Y-93001785D02*
X80170533Y-93001785D01*
X80170533Y-93001785D02*
X80313390Y-93049404D01*
X80313390Y-93049404D02*
X80884819Y-93620832D01*
X80884819Y-93620832D02*
X80884819Y-93001785D01*
X83474819Y-94525594D02*
X82474819Y-94525594D01*
X82474819Y-94525594D02*
X82474819Y-94287499D01*
X82474819Y-94287499D02*
X82522438Y-94144642D01*
X82522438Y-94144642D02*
X82617676Y-94049404D01*
X82617676Y-94049404D02*
X82712914Y-94001785D01*
X82712914Y-94001785D02*
X82903390Y-93954166D01*
X82903390Y-93954166D02*
X83046247Y-93954166D01*
X83046247Y-93954166D02*
X83236723Y-94001785D01*
X83236723Y-94001785D02*
X83331961Y-94049404D01*
X83331961Y-94049404D02*
X83427200Y-94144642D01*
X83427200Y-94144642D02*
X83474819Y-94287499D01*
X83474819Y-94287499D02*
X83474819Y-94525594D01*
X83474819Y-93001785D02*
X83474819Y-93573213D01*
X83474819Y-93287499D02*
X82474819Y-93287499D01*
X82474819Y-93287499D02*
X82617676Y-93382737D01*
X82617676Y-93382737D02*
X82712914Y-93477975D01*
X82712914Y-93477975D02*
X82760533Y-93573213D01*
X83814819Y-84333333D02*
X84529104Y-84333333D01*
X84529104Y-84333333D02*
X84671961Y-84380952D01*
X84671961Y-84380952D02*
X84767200Y-84476190D01*
X84767200Y-84476190D02*
X84814819Y-84619047D01*
X84814819Y-84619047D02*
X84814819Y-84714285D01*
X84814819Y-83333333D02*
X84814819Y-83904761D01*
X84814819Y-83619047D02*
X83814819Y-83619047D01*
X83814819Y-83619047D02*
X83957676Y-83714285D01*
X83957676Y-83714285D02*
X84052914Y-83809523D01*
X84052914Y-83809523D02*
X84100533Y-83904761D01*
X75843333Y-91874819D02*
X75510000Y-91398628D01*
X75271905Y-91874819D02*
X75271905Y-90874819D01*
X75271905Y-90874819D02*
X75652857Y-90874819D01*
X75652857Y-90874819D02*
X75748095Y-90922438D01*
X75748095Y-90922438D02*
X75795714Y-90970057D01*
X75795714Y-90970057D02*
X75843333Y-91065295D01*
X75843333Y-91065295D02*
X75843333Y-91208152D01*
X75843333Y-91208152D02*
X75795714Y-91303390D01*
X75795714Y-91303390D02*
X75748095Y-91351009D01*
X75748095Y-91351009D02*
X75652857Y-91398628D01*
X75652857Y-91398628D02*
X75271905Y-91398628D01*
X76176667Y-90874819D02*
X76795714Y-90874819D01*
X76795714Y-90874819D02*
X76462381Y-91255771D01*
X76462381Y-91255771D02*
X76605238Y-91255771D01*
X76605238Y-91255771D02*
X76700476Y-91303390D01*
X76700476Y-91303390D02*
X76748095Y-91351009D01*
X76748095Y-91351009D02*
X76795714Y-91446247D01*
X76795714Y-91446247D02*
X76795714Y-91684342D01*
X76795714Y-91684342D02*
X76748095Y-91779580D01*
X76748095Y-91779580D02*
X76700476Y-91827200D01*
X76700476Y-91827200D02*
X76605238Y-91874819D01*
X76605238Y-91874819D02*
X76319524Y-91874819D01*
X76319524Y-91874819D02*
X76224286Y-91827200D01*
X76224286Y-91827200D02*
X76176667Y-91779580D01*
X102776191Y-91954819D02*
X102776191Y-90954819D01*
X102776191Y-90954819D02*
X103014286Y-90954819D01*
X103014286Y-90954819D02*
X103157143Y-91002438D01*
X103157143Y-91002438D02*
X103252381Y-91097676D01*
X103252381Y-91097676D02*
X103300000Y-91192914D01*
X103300000Y-91192914D02*
X103347619Y-91383390D01*
X103347619Y-91383390D02*
X103347619Y-91526247D01*
X103347619Y-91526247D02*
X103300000Y-91716723D01*
X103300000Y-91716723D02*
X103252381Y-91811961D01*
X103252381Y-91811961D02*
X103157143Y-91907200D01*
X103157143Y-91907200D02*
X103014286Y-91954819D01*
X103014286Y-91954819D02*
X102776191Y-91954819D01*
X103776191Y-91954819D02*
X103776191Y-90954819D01*
X104442857Y-90954819D02*
X104633333Y-90954819D01*
X104633333Y-90954819D02*
X104728571Y-91002438D01*
X104728571Y-91002438D02*
X104823809Y-91097676D01*
X104823809Y-91097676D02*
X104871428Y-91288152D01*
X104871428Y-91288152D02*
X104871428Y-91621485D01*
X104871428Y-91621485D02*
X104823809Y-91811961D01*
X104823809Y-91811961D02*
X104728571Y-91907200D01*
X104728571Y-91907200D02*
X104633333Y-91954819D01*
X104633333Y-91954819D02*
X104442857Y-91954819D01*
X104442857Y-91954819D02*
X104347619Y-91907200D01*
X104347619Y-91907200D02*
X104252381Y-91811961D01*
X104252381Y-91811961D02*
X104204762Y-91621485D01*
X104204762Y-91621485D02*
X104204762Y-91288152D01*
X104204762Y-91288152D02*
X104252381Y-91097676D01*
X104252381Y-91097676D02*
X104347619Y-91002438D01*
X104347619Y-91002438D02*
X104442857Y-90954819D01*
X78294819Y-94525594D02*
X77294819Y-94525594D01*
X77294819Y-94525594D02*
X77294819Y-94287499D01*
X77294819Y-94287499D02*
X77342438Y-94144642D01*
X77342438Y-94144642D02*
X77437676Y-94049404D01*
X77437676Y-94049404D02*
X77532914Y-94001785D01*
X77532914Y-94001785D02*
X77723390Y-93954166D01*
X77723390Y-93954166D02*
X77866247Y-93954166D01*
X77866247Y-93954166D02*
X78056723Y-94001785D01*
X78056723Y-94001785D02*
X78151961Y-94049404D01*
X78151961Y-94049404D02*
X78247200Y-94144642D01*
X78247200Y-94144642D02*
X78294819Y-94287499D01*
X78294819Y-94287499D02*
X78294819Y-94525594D01*
X77294819Y-93620832D02*
X77294819Y-93001785D01*
X77294819Y-93001785D02*
X77675771Y-93335118D01*
X77675771Y-93335118D02*
X77675771Y-93192261D01*
X77675771Y-93192261D02*
X77723390Y-93097023D01*
X77723390Y-93097023D02*
X77771009Y-93049404D01*
X77771009Y-93049404D02*
X77866247Y-93001785D01*
X77866247Y-93001785D02*
X78104342Y-93001785D01*
X78104342Y-93001785D02*
X78199580Y-93049404D01*
X78199580Y-93049404D02*
X78247200Y-93097023D01*
X78247200Y-93097023D02*
X78294819Y-93192261D01*
X78294819Y-93192261D02*
X78294819Y-93477975D01*
X78294819Y-93477975D02*
X78247200Y-93573213D01*
X78247200Y-93573213D02*
X78199580Y-93620832D01*
X114954819Y-92061904D02*
X115764342Y-92061904D01*
X115764342Y-92061904D02*
X115859580Y-92014285D01*
X115859580Y-92014285D02*
X115907200Y-91966666D01*
X115907200Y-91966666D02*
X115954819Y-91871428D01*
X115954819Y-91871428D02*
X115954819Y-91680952D01*
X115954819Y-91680952D02*
X115907200Y-91585714D01*
X115907200Y-91585714D02*
X115859580Y-91538095D01*
X115859580Y-91538095D02*
X115764342Y-91490476D01*
X115764342Y-91490476D02*
X114954819Y-91490476D01*
X115050057Y-91061904D02*
X115002438Y-91014285D01*
X115002438Y-91014285D02*
X114954819Y-90919047D01*
X114954819Y-90919047D02*
X114954819Y-90680952D01*
X114954819Y-90680952D02*
X115002438Y-90585714D01*
X115002438Y-90585714D02*
X115050057Y-90538095D01*
X115050057Y-90538095D02*
X115145295Y-90490476D01*
X115145295Y-90490476D02*
X115240533Y-90490476D01*
X115240533Y-90490476D02*
X115383390Y-90538095D01*
X115383390Y-90538095D02*
X115954819Y-91109523D01*
X115954819Y-91109523D02*
X115954819Y-90490476D01*
X89929580Y-82866666D02*
X89977200Y-82914285D01*
X89977200Y-82914285D02*
X90024819Y-83057142D01*
X90024819Y-83057142D02*
X90024819Y-83152380D01*
X90024819Y-83152380D02*
X89977200Y-83295237D01*
X89977200Y-83295237D02*
X89881961Y-83390475D01*
X89881961Y-83390475D02*
X89786723Y-83438094D01*
X89786723Y-83438094D02*
X89596247Y-83485713D01*
X89596247Y-83485713D02*
X89453390Y-83485713D01*
X89453390Y-83485713D02*
X89262914Y-83438094D01*
X89262914Y-83438094D02*
X89167676Y-83390475D01*
X89167676Y-83390475D02*
X89072438Y-83295237D01*
X89072438Y-83295237D02*
X89024819Y-83152380D01*
X89024819Y-83152380D02*
X89024819Y-83057142D01*
X89024819Y-83057142D02*
X89072438Y-82914285D01*
X89072438Y-82914285D02*
X89120057Y-82866666D01*
X89024819Y-82533332D02*
X89024819Y-81866666D01*
X89024819Y-81866666D02*
X90024819Y-82295237D01*
X98159580Y-94295238D02*
X98207200Y-94342857D01*
X98207200Y-94342857D02*
X98254819Y-94485714D01*
X98254819Y-94485714D02*
X98254819Y-94580952D01*
X98254819Y-94580952D02*
X98207200Y-94723809D01*
X98207200Y-94723809D02*
X98111961Y-94819047D01*
X98111961Y-94819047D02*
X98016723Y-94866666D01*
X98016723Y-94866666D02*
X97826247Y-94914285D01*
X97826247Y-94914285D02*
X97683390Y-94914285D01*
X97683390Y-94914285D02*
X97492914Y-94866666D01*
X97492914Y-94866666D02*
X97397676Y-94819047D01*
X97397676Y-94819047D02*
X97302438Y-94723809D01*
X97302438Y-94723809D02*
X97254819Y-94580952D01*
X97254819Y-94580952D02*
X97254819Y-94485714D01*
X97254819Y-94485714D02*
X97302438Y-94342857D01*
X97302438Y-94342857D02*
X97350057Y-94295238D01*
X98254819Y-93390476D02*
X98254819Y-93866666D01*
X98254819Y-93866666D02*
X97254819Y-93866666D01*
X98254819Y-93057142D02*
X97254819Y-93057142D01*
X98254819Y-92485714D02*
X97683390Y-92914285D01*
X97254819Y-92485714D02*
X97826247Y-93057142D01*
X90624819Y-86426666D02*
X90148628Y-86759999D01*
X90624819Y-86998094D02*
X89624819Y-86998094D01*
X89624819Y-86998094D02*
X89624819Y-86617142D01*
X89624819Y-86617142D02*
X89672438Y-86521904D01*
X89672438Y-86521904D02*
X89720057Y-86474285D01*
X89720057Y-86474285D02*
X89815295Y-86426666D01*
X89815295Y-86426666D02*
X89958152Y-86426666D01*
X89958152Y-86426666D02*
X90053390Y-86474285D01*
X90053390Y-86474285D02*
X90101009Y-86521904D01*
X90101009Y-86521904D02*
X90148628Y-86617142D01*
X90148628Y-86617142D02*
X90148628Y-86998094D01*
X90624819Y-85474285D02*
X90624819Y-86045713D01*
X90624819Y-85759999D02*
X89624819Y-85759999D01*
X89624819Y-85759999D02*
X89767676Y-85855237D01*
X89767676Y-85855237D02*
X89862914Y-85950475D01*
X89862914Y-85950475D02*
X89910533Y-86045713D01*
X94877142Y-82449580D02*
X94829523Y-82497200D01*
X94829523Y-82497200D02*
X94686666Y-82544819D01*
X94686666Y-82544819D02*
X94591428Y-82544819D01*
X94591428Y-82544819D02*
X94448571Y-82497200D01*
X94448571Y-82497200D02*
X94353333Y-82401961D01*
X94353333Y-82401961D02*
X94305714Y-82306723D01*
X94305714Y-82306723D02*
X94258095Y-82116247D01*
X94258095Y-82116247D02*
X94258095Y-81973390D01*
X94258095Y-81973390D02*
X94305714Y-81782914D01*
X94305714Y-81782914D02*
X94353333Y-81687676D01*
X94353333Y-81687676D02*
X94448571Y-81592438D01*
X94448571Y-81592438D02*
X94591428Y-81544819D01*
X94591428Y-81544819D02*
X94686666Y-81544819D01*
X94686666Y-81544819D02*
X94829523Y-81592438D01*
X94829523Y-81592438D02*
X94877142Y-81640057D01*
X95829523Y-82544819D02*
X95258095Y-82544819D01*
X95543809Y-82544819D02*
X95543809Y-81544819D01*
X95543809Y-81544819D02*
X95448571Y-81687676D01*
X95448571Y-81687676D02*
X95353333Y-81782914D01*
X95353333Y-81782914D02*
X95258095Y-81830533D01*
X96781904Y-82544819D02*
X96210476Y-82544819D01*
X96496190Y-82544819D02*
X96496190Y-81544819D01*
X96496190Y-81544819D02*
X96400952Y-81687676D01*
X96400952Y-81687676D02*
X96305714Y-81782914D01*
X96305714Y-81782914D02*
X96210476Y-81830533D01*
X115540579Y-81542857D02*
X115588199Y-81590476D01*
X115588199Y-81590476D02*
X115635818Y-81733333D01*
X115635818Y-81733333D02*
X115635818Y-81828571D01*
X115635818Y-81828571D02*
X115588199Y-81971428D01*
X115588199Y-81971428D02*
X115492960Y-82066666D01*
X115492960Y-82066666D02*
X115397722Y-82114285D01*
X115397722Y-82114285D02*
X115207246Y-82161904D01*
X115207246Y-82161904D02*
X115064389Y-82161904D01*
X115064389Y-82161904D02*
X114873913Y-82114285D01*
X114873913Y-82114285D02*
X114778675Y-82066666D01*
X114778675Y-82066666D02*
X114683437Y-81971428D01*
X114683437Y-81971428D02*
X114635818Y-81828571D01*
X114635818Y-81828571D02*
X114635818Y-81733333D01*
X114635818Y-81733333D02*
X114683437Y-81590476D01*
X114683437Y-81590476D02*
X114731056Y-81542857D01*
X115635818Y-80590476D02*
X115635818Y-81161904D01*
X115635818Y-80876190D02*
X114635818Y-80876190D01*
X114635818Y-80876190D02*
X114778675Y-80971428D01*
X114778675Y-80971428D02*
X114873913Y-81066666D01*
X114873913Y-81066666D02*
X114921532Y-81161904D01*
X114635818Y-79685714D02*
X114635818Y-80161904D01*
X114635818Y-80161904D02*
X115112008Y-80209523D01*
X115112008Y-80209523D02*
X115064389Y-80161904D01*
X115064389Y-80161904D02*
X115016770Y-80066666D01*
X115016770Y-80066666D02*
X115016770Y-79828571D01*
X115016770Y-79828571D02*
X115064389Y-79733333D01*
X115064389Y-79733333D02*
X115112008Y-79685714D01*
X115112008Y-79685714D02*
X115207246Y-79638095D01*
X115207246Y-79638095D02*
X115445341Y-79638095D01*
X115445341Y-79638095D02*
X115540579Y-79685714D01*
X115540579Y-79685714D02*
X115588199Y-79733333D01*
X115588199Y-79733333D02*
X115635818Y-79828571D01*
X115635818Y-79828571D02*
X115635818Y-80066666D01*
X115635818Y-80066666D02*
X115588199Y-80161904D01*
X115588199Y-80161904D02*
X115540579Y-80209523D01*
X108583333Y-85449580D02*
X108535714Y-85497200D01*
X108535714Y-85497200D02*
X108392857Y-85544819D01*
X108392857Y-85544819D02*
X108297619Y-85544819D01*
X108297619Y-85544819D02*
X108154762Y-85497200D01*
X108154762Y-85497200D02*
X108059524Y-85401961D01*
X108059524Y-85401961D02*
X108011905Y-85306723D01*
X108011905Y-85306723D02*
X107964286Y-85116247D01*
X107964286Y-85116247D02*
X107964286Y-84973390D01*
X107964286Y-84973390D02*
X108011905Y-84782914D01*
X108011905Y-84782914D02*
X108059524Y-84687676D01*
X108059524Y-84687676D02*
X108154762Y-84592438D01*
X108154762Y-84592438D02*
X108297619Y-84544819D01*
X108297619Y-84544819D02*
X108392857Y-84544819D01*
X108392857Y-84544819D02*
X108535714Y-84592438D01*
X108535714Y-84592438D02*
X108583333Y-84640057D01*
X109488095Y-84544819D02*
X109011905Y-84544819D01*
X109011905Y-84544819D02*
X108964286Y-85021009D01*
X108964286Y-85021009D02*
X109011905Y-84973390D01*
X109011905Y-84973390D02*
X109107143Y-84925771D01*
X109107143Y-84925771D02*
X109345238Y-84925771D01*
X109345238Y-84925771D02*
X109440476Y-84973390D01*
X109440476Y-84973390D02*
X109488095Y-85021009D01*
X109488095Y-85021009D02*
X109535714Y-85116247D01*
X109535714Y-85116247D02*
X109535714Y-85354342D01*
X109535714Y-85354342D02*
X109488095Y-85449580D01*
X109488095Y-85449580D02*
X109440476Y-85497200D01*
X109440476Y-85497200D02*
X109345238Y-85544819D01*
X109345238Y-85544819D02*
X109107143Y-85544819D01*
X109107143Y-85544819D02*
X109011905Y-85497200D01*
X109011905Y-85497200D02*
X108964286Y-85449580D01*
X94308333Y-92679580D02*
X94260714Y-92727200D01*
X94260714Y-92727200D02*
X94117857Y-92774819D01*
X94117857Y-92774819D02*
X94022619Y-92774819D01*
X94022619Y-92774819D02*
X93879762Y-92727200D01*
X93879762Y-92727200D02*
X93784524Y-92631961D01*
X93784524Y-92631961D02*
X93736905Y-92536723D01*
X93736905Y-92536723D02*
X93689286Y-92346247D01*
X93689286Y-92346247D02*
X93689286Y-92203390D01*
X93689286Y-92203390D02*
X93736905Y-92012914D01*
X93736905Y-92012914D02*
X93784524Y-91917676D01*
X93784524Y-91917676D02*
X93879762Y-91822438D01*
X93879762Y-91822438D02*
X94022619Y-91774819D01*
X94022619Y-91774819D02*
X94117857Y-91774819D01*
X94117857Y-91774819D02*
X94260714Y-91822438D01*
X94260714Y-91822438D02*
X94308333Y-91870057D01*
X95165476Y-92108152D02*
X95165476Y-92774819D01*
X94927381Y-91727200D02*
X94689286Y-92441485D01*
X94689286Y-92441485D02*
X95308333Y-92441485D01*
X85369580Y-85866666D02*
X85417200Y-85914285D01*
X85417200Y-85914285D02*
X85464819Y-86057142D01*
X85464819Y-86057142D02*
X85464819Y-86152380D01*
X85464819Y-86152380D02*
X85417200Y-86295237D01*
X85417200Y-86295237D02*
X85321961Y-86390475D01*
X85321961Y-86390475D02*
X85226723Y-86438094D01*
X85226723Y-86438094D02*
X85036247Y-86485713D01*
X85036247Y-86485713D02*
X84893390Y-86485713D01*
X84893390Y-86485713D02*
X84702914Y-86438094D01*
X84702914Y-86438094D02*
X84607676Y-86390475D01*
X84607676Y-86390475D02*
X84512438Y-86295237D01*
X84512438Y-86295237D02*
X84464819Y-86152380D01*
X84464819Y-86152380D02*
X84464819Y-86057142D01*
X84464819Y-86057142D02*
X84512438Y-85914285D01*
X84512438Y-85914285D02*
X84560057Y-85866666D01*
X85464819Y-85390475D02*
X85464819Y-85199999D01*
X85464819Y-85199999D02*
X85417200Y-85104761D01*
X85417200Y-85104761D02*
X85369580Y-85057142D01*
X85369580Y-85057142D02*
X85226723Y-84961904D01*
X85226723Y-84961904D02*
X85036247Y-84914285D01*
X85036247Y-84914285D02*
X84655295Y-84914285D01*
X84655295Y-84914285D02*
X84560057Y-84961904D01*
X84560057Y-84961904D02*
X84512438Y-85009523D01*
X84512438Y-85009523D02*
X84464819Y-85104761D01*
X84464819Y-85104761D02*
X84464819Y-85295237D01*
X84464819Y-85295237D02*
X84512438Y-85390475D01*
X84512438Y-85390475D02*
X84560057Y-85438094D01*
X84560057Y-85438094D02*
X84655295Y-85485713D01*
X84655295Y-85485713D02*
X84893390Y-85485713D01*
X84893390Y-85485713D02*
X84988628Y-85438094D01*
X84988628Y-85438094D02*
X85036247Y-85390475D01*
X85036247Y-85390475D02*
X85083866Y-85295237D01*
X85083866Y-85295237D02*
X85083866Y-85104761D01*
X85083866Y-85104761D02*
X85036247Y-85009523D01*
X85036247Y-85009523D02*
X84988628Y-84961904D01*
X84988628Y-84961904D02*
X84893390Y-84914285D01*
X91058333Y-84679580D02*
X91010714Y-84727200D01*
X91010714Y-84727200D02*
X90867857Y-84774819D01*
X90867857Y-84774819D02*
X90772619Y-84774819D01*
X90772619Y-84774819D02*
X90629762Y-84727200D01*
X90629762Y-84727200D02*
X90534524Y-84631961D01*
X90534524Y-84631961D02*
X90486905Y-84536723D01*
X90486905Y-84536723D02*
X90439286Y-84346247D01*
X90439286Y-84346247D02*
X90439286Y-84203390D01*
X90439286Y-84203390D02*
X90486905Y-84012914D01*
X90486905Y-84012914D02*
X90534524Y-83917676D01*
X90534524Y-83917676D02*
X90629762Y-83822438D01*
X90629762Y-83822438D02*
X90772619Y-83774819D01*
X90772619Y-83774819D02*
X90867857Y-83774819D01*
X90867857Y-83774819D02*
X91010714Y-83822438D01*
X91010714Y-83822438D02*
X91058333Y-83870057D01*
X91391667Y-83774819D02*
X92010714Y-83774819D01*
X92010714Y-83774819D02*
X91677381Y-84155771D01*
X91677381Y-84155771D02*
X91820238Y-84155771D01*
X91820238Y-84155771D02*
X91915476Y-84203390D01*
X91915476Y-84203390D02*
X91963095Y-84251009D01*
X91963095Y-84251009D02*
X92010714Y-84346247D01*
X92010714Y-84346247D02*
X92010714Y-84584342D01*
X92010714Y-84584342D02*
X91963095Y-84679580D01*
X91963095Y-84679580D02*
X91915476Y-84727200D01*
X91915476Y-84727200D02*
X91820238Y-84774819D01*
X91820238Y-84774819D02*
X91534524Y-84774819D01*
X91534524Y-84774819D02*
X91439286Y-84727200D01*
X91439286Y-84727200D02*
X91391667Y-84679580D01*
X117789580Y-81542857D02*
X117837200Y-81590476D01*
X117837200Y-81590476D02*
X117884819Y-81733333D01*
X117884819Y-81733333D02*
X117884819Y-81828571D01*
X117884819Y-81828571D02*
X117837200Y-81971428D01*
X117837200Y-81971428D02*
X117741961Y-82066666D01*
X117741961Y-82066666D02*
X117646723Y-82114285D01*
X117646723Y-82114285D02*
X117456247Y-82161904D01*
X117456247Y-82161904D02*
X117313390Y-82161904D01*
X117313390Y-82161904D02*
X117122914Y-82114285D01*
X117122914Y-82114285D02*
X117027676Y-82066666D01*
X117027676Y-82066666D02*
X116932438Y-81971428D01*
X116932438Y-81971428D02*
X116884819Y-81828571D01*
X116884819Y-81828571D02*
X116884819Y-81733333D01*
X116884819Y-81733333D02*
X116932438Y-81590476D01*
X116932438Y-81590476D02*
X116980057Y-81542857D01*
X117884819Y-80590476D02*
X117884819Y-81161904D01*
X117884819Y-80876190D02*
X116884819Y-80876190D01*
X116884819Y-80876190D02*
X117027676Y-80971428D01*
X117027676Y-80971428D02*
X117122914Y-81066666D01*
X117122914Y-81066666D02*
X117170533Y-81161904D01*
X117218152Y-79733333D02*
X117884819Y-79733333D01*
X116837200Y-79971428D02*
X117551485Y-80209523D01*
X117551485Y-80209523D02*
X117551485Y-79590476D01*
%TO.C,3V3*%
D11*
X108200000Y-82000000D02*
G75*
G02*
X105300000Y-82000000I-1450000J0D01*
G01*
X105300000Y-82000000D02*
G75*
G02*
X108200000Y-82000000I1450000J0D01*
G01*
%TO.C,U3*%
D10*
X102820000Y-85330000D02*
X100160000Y-85330000D01*
X102820000Y-80670000D02*
X100160000Y-80670000D01*
X100160000Y-85330000D02*
X100160000Y-84180000D01*
X100160000Y-80670000D02*
X100160000Y-81820000D01*
%TO.C,C12*%
D11*
X87127836Y-85390000D02*
X86912164Y-85390000D01*
X87127836Y-86110000D02*
X86912164Y-86110000D01*
%TO.C,GND*%
X112550000Y-83050000D02*
X115450000Y-83050000D01*
X112550000Y-85950000D02*
X112550000Y-83050000D01*
X115450000Y-83050000D02*
X115450000Y-85950000D01*
X115450000Y-85950000D02*
X112550000Y-85950000D01*
%TO.C,U1*%
D12*
X84390000Y-79400000D02*
X84390000Y-79780000D01*
X84460000Y-84160000D02*
X84840000Y-84540000D01*
X84770000Y-79400000D02*
X84390000Y-79400000D01*
X89220000Y-84610000D02*
X89600000Y-84610000D01*
X89600000Y-79400000D02*
X89220000Y-79400000D01*
X89600000Y-79780000D02*
X89600000Y-79400000D01*
X89600000Y-84610000D02*
X89600000Y-84230000D01*
X84840000Y-85050000D02*
G75*
G02*
X84580000Y-85050000I-130000J0D01*
G01*
X84580000Y-85050000D02*
G75*
G02*
X84840000Y-85050000I130000J0D01*
G01*
%TO.C,C16*%
D11*
X90390000Y-80107836D02*
X90390000Y-79892164D01*
X91110000Y-80107836D02*
X91110000Y-79892164D01*
%TO.C,RST*%
X111450000Y-83500000D02*
G75*
G02*
X108550000Y-83500000I-1450000J0D01*
G01*
X108550000Y-83500000D02*
G75*
G02*
X111450000Y-83500000I1450000J0D01*
G01*
%TO.C,R4*%
X82800000Y-92096359D02*
X82800000Y-92403641D01*
X83560000Y-92096359D02*
X83560000Y-92403641D01*
%TO.C,C13*%
X118685999Y-80638748D02*
X118685999Y-81161252D01*
X117215999Y-80638748D02*
X117215999Y-81161252D01*
%TO.C,SW1*%
D12*
X84580000Y-87527500D02*
X84580000Y-88097500D01*
X84580000Y-87527500D02*
X91980000Y-87527500D01*
X84580000Y-90517500D02*
X84580000Y-95407500D01*
X84580000Y-95407500D02*
X91980000Y-95407500D01*
X91980000Y-87527500D02*
X91980000Y-88097500D01*
X91980000Y-90517500D02*
X91980000Y-95407500D01*
%TO.C,C10*%
D11*
X92665000Y-82911252D02*
X92665000Y-82388748D01*
X94135000Y-82911252D02*
X94135000Y-82388748D01*
%TO.C,D4*%
X73085000Y-92302500D02*
X73085000Y-94587500D01*
X74555000Y-92302500D02*
X73085000Y-92302500D01*
X74555000Y-94587500D02*
X74555000Y-92302500D01*
%TO.C,C8*%
X79311252Y-90015000D02*
X78788748Y-90015000D01*
X79311252Y-91485000D02*
X78788748Y-91485000D01*
%TO.C,C1*%
X81390000Y-81127836D02*
X81390000Y-80912164D01*
X82110000Y-81127836D02*
X82110000Y-80912164D01*
%TO.C,L1*%
D12*
X93200000Y-85700000D02*
X94340000Y-85700000D01*
X93200000Y-91800000D02*
X93200000Y-85700000D01*
X94340000Y-91800000D02*
X93200000Y-91800000D01*
X98160000Y-85700000D02*
X99300000Y-85700000D01*
X99300000Y-85700000D02*
X99300000Y-91800000D01*
X99300000Y-91800000D02*
X98160000Y-91800000D01*
%TO.C,C2*%
D11*
X82490000Y-80865580D02*
X82490000Y-80584420D01*
X83510000Y-80865580D02*
X83510000Y-80584420D01*
%TO.C,D2*%
X78265000Y-92302500D02*
X78265000Y-94587500D01*
X79735000Y-92302500D02*
X78265000Y-92302500D01*
X79735000Y-94587500D02*
X79735000Y-92302500D01*
%TO.C,D1*%
X80855000Y-92302500D02*
X80855000Y-94587500D01*
X82325000Y-92302500D02*
X80855000Y-92302500D01*
X82325000Y-94587500D02*
X82325000Y-92302500D01*
%TO.C,J1*%
D12*
X73000000Y-79550000D02*
X73000000Y-88450000D01*
X73000000Y-88450000D02*
X74510000Y-88450000D01*
X74510000Y-79550000D02*
X73000000Y-79550000D01*
X76750000Y-88450000D02*
X78510000Y-88450000D01*
X78510000Y-79550000D02*
X76750000Y-79550000D01*
%TO.C,R3*%
D11*
X76163641Y-89870000D02*
X75856359Y-89870000D01*
X76163641Y-90630000D02*
X75856359Y-90630000D01*
%TO.C,DIO*%
X105200000Y-93750000D02*
G75*
G02*
X102300000Y-93750000I-1450000J0D01*
G01*
X102300000Y-93750000D02*
G75*
G02*
X105200000Y-93750000I1450000J0D01*
G01*
%TO.C,D3*%
X75675000Y-92302500D02*
X75675000Y-94587500D01*
X77145000Y-92302500D02*
X75675000Y-92302500D01*
X77145000Y-94587500D02*
X77145000Y-92302500D01*
%TO.C,U2*%
D12*
X105900000Y-86800000D02*
X105900000Y-95800000D01*
X105900000Y-95800000D02*
X114900000Y-95800000D01*
X107500000Y-88300000D02*
X107500000Y-94300000D01*
X107500000Y-94300000D02*
X112200000Y-94300000D01*
X112200000Y-91600000D02*
X113900000Y-91600000D01*
X112200000Y-94300000D02*
X112200000Y-91600000D01*
X113900000Y-88300000D02*
X107500000Y-88300000D01*
X113900000Y-91600000D02*
X113900000Y-88300000D01*
X114900000Y-86800000D02*
X105900000Y-86800000D01*
X114900000Y-95800000D02*
X114900000Y-86800000D01*
D13*
X111750000Y-86300000D02*
G75*
G02*
X111450000Y-86300000I-150000J0D01*
G01*
X111450000Y-86300000D02*
G75*
G02*
X111750000Y-86300000I150000J0D01*
G01*
%TO.C,C7*%
D11*
X90515000Y-82961252D02*
X90515000Y-82438748D01*
X91985000Y-82961252D02*
X91985000Y-82438748D01*
%TO.C,CLK*%
X101450000Y-93750000D02*
G75*
G02*
X98550000Y-93750000I-1450000J0D01*
G01*
X98550000Y-93750000D02*
G75*
G02*
X101450000Y-93750000I1450000J0D01*
G01*
%TO.C,R1*%
X88620000Y-86106359D02*
X88620000Y-86413641D01*
X89380000Y-86106359D02*
X89380000Y-86413641D01*
%TO.C,C11*%
X95412164Y-82890000D02*
X95627836Y-82890000D01*
X95412164Y-83610000D02*
X95627836Y-83610000D01*
%TO.C,C15*%
X114235999Y-80638748D02*
X114235999Y-81161252D01*
X112765999Y-80638748D02*
X112765999Y-81161252D01*
%TO.C,C5*%
X108642164Y-85890000D02*
X108857836Y-85890000D01*
X108642164Y-86610000D02*
X108857836Y-86610000D01*
%TO.C,C4*%
X94334420Y-93240000D02*
X94615580Y-93240000D01*
X94334420Y-94260000D02*
X94615580Y-94260000D01*
%TO.C,C9*%
X82595000Y-85438748D02*
X82595000Y-85961252D01*
X84065000Y-85438748D02*
X84065000Y-85961252D01*
%TO.C,C3*%
X91084420Y-85240000D02*
X91365580Y-85240000D01*
X91084420Y-86260000D02*
X91365580Y-86260000D01*
%TO.C,C14*%
X116485000Y-80638748D02*
X116485000Y-81161252D01*
X115015000Y-80638748D02*
X115015000Y-81161252D01*
%TD*%
%LPC*%
D14*
%TO.C,3V3*%
X106750000Y-82000000D03*
%TD*%
D15*
%TO.C,U3*%
X103470000Y-81500000D03*
D16*
X100750000Y-83000000D03*
D15*
X103470000Y-84500000D03*
%TD*%
D17*
%TO.C,BAT+*%
X120750000Y-80150000D03*
D18*
X120750000Y-83750000D03*
%TD*%
D19*
%TO.C,C12*%
X87500000Y-85750000D03*
X86540000Y-85750000D03*
%TD*%
D20*
%TO.C,GND*%
X114000000Y-84500000D03*
%TD*%
D21*
%TO.C,U1*%
X85250000Y-84500000D03*
X85750000Y-84500000D03*
X86250000Y-84500000D03*
X86750000Y-84500000D03*
X87250000Y-84500000D03*
X87750000Y-84500000D03*
X88250000Y-84500000D03*
X88750000Y-84500000D03*
D22*
X89500000Y-83750000D03*
X89500000Y-83250000D03*
X89500000Y-82750000D03*
X89500000Y-82250000D03*
X89500000Y-81750000D03*
X89500000Y-81250000D03*
X89500000Y-80750000D03*
X89500000Y-80250000D03*
D21*
X88750000Y-79500000D03*
X88250000Y-79500000D03*
X87750000Y-79500000D03*
X87250000Y-79500000D03*
X86750000Y-79500000D03*
X86250000Y-79500000D03*
X85750000Y-79500000D03*
X85250000Y-79500000D03*
D22*
X84500000Y-80250000D03*
X84500000Y-80750000D03*
X84500000Y-81250000D03*
X84500000Y-81750000D03*
X84500000Y-82250000D03*
X84500000Y-82750000D03*
X84500000Y-83250000D03*
X84500000Y-83750000D03*
D23*
X87000000Y-82000000D03*
%TD*%
D24*
%TO.C,C16*%
X90750000Y-80480000D03*
X90750000Y-79520000D03*
%TD*%
D14*
%TO.C,RST*%
X110000000Y-83500000D03*
%TD*%
D25*
%TO.C,R4*%
X83180000Y-91740000D03*
X83180000Y-92760000D03*
%TD*%
D26*
%TO.C,C13*%
X117950999Y-79950000D03*
X117950999Y-81850000D03*
%TD*%
D27*
%TO.C,SW1*%
X85740000Y-91847500D03*
X90820000Y-91847500D03*
D28*
X91780000Y-89307500D03*
X84780000Y-89307500D03*
%TD*%
D29*
%TO.C,C10*%
X93400000Y-83600000D03*
X93400000Y-81700000D03*
%TD*%
D30*
%TO.C,TH1*%
X95725000Y-84200000D03*
X95085000Y-84200000D03*
%TD*%
D31*
%TO.C,D4*%
X73820000Y-93000000D03*
X73820000Y-94575000D03*
%TD*%
D32*
%TO.C,C8*%
X80000000Y-90750000D03*
X78100000Y-90750000D03*
%TD*%
D24*
%TO.C,C1*%
X81750000Y-81500000D03*
X81750000Y-80540000D03*
%TD*%
D33*
%TO.C,L1*%
X96250000Y-91520000D03*
X96250000Y-85980000D03*
%TD*%
D34*
%TO.C,C2*%
X83000000Y-81500000D03*
X83000000Y-79950000D03*
%TD*%
D31*
%TO.C,D2*%
X79000000Y-93000000D03*
X79000000Y-94575000D03*
%TD*%
%TO.C,D1*%
X81590000Y-93000000D03*
X81590000Y-94575000D03*
%TD*%
D35*
%TO.C,J1*%
X79290000Y-81110000D03*
X79290000Y-86890000D03*
D36*
X80360000Y-80800000D03*
X80360000Y-81600000D03*
D37*
X80360000Y-82750000D03*
X80360000Y-83750000D03*
X80360000Y-84250000D03*
X80360000Y-85250000D03*
D36*
X80360000Y-87200000D03*
X80360000Y-86400000D03*
D37*
X80360000Y-85750000D03*
X80360000Y-84750000D03*
X80360000Y-83250000D03*
X80360000Y-82250000D03*
D38*
X79790000Y-79680000D03*
D39*
X75640000Y-79680000D03*
D38*
X79790000Y-88320000D03*
D39*
X75640000Y-88320000D03*
%TD*%
D40*
%TO.C,R3*%
X76520000Y-90250000D03*
X75500000Y-90250000D03*
%TD*%
D14*
%TO.C,DIO*%
X103750000Y-93750000D03*
%TD*%
D31*
%TO.C,D3*%
X76410000Y-93000000D03*
X76410000Y-94575000D03*
%TD*%
D41*
%TO.C,U2*%
X111500000Y-87600000D03*
X110400000Y-87600000D03*
X109300000Y-87600000D03*
X108200000Y-87600000D03*
X107100000Y-87600000D03*
X106700000Y-89100000D03*
X106700000Y-90200000D03*
X106700000Y-91300000D03*
X106700000Y-92400000D03*
X106700000Y-93500000D03*
X107100000Y-95000000D03*
X108200000Y-95000000D03*
X109300000Y-95000000D03*
X110400000Y-95000000D03*
X111500000Y-95000000D03*
%TD*%
D29*
%TO.C,C7*%
X91250000Y-83650000D03*
X91250000Y-81750000D03*
%TD*%
D14*
%TO.C,CLK*%
X100000000Y-93750000D03*
%TD*%
D25*
%TO.C,R1*%
X89000000Y-85750000D03*
X89000000Y-86770000D03*
%TD*%
D42*
%TO.C,C11*%
X95040000Y-83250000D03*
X96000000Y-83250000D03*
%TD*%
D26*
%TO.C,C15*%
X113500999Y-79950000D03*
X113500999Y-81850000D03*
%TD*%
D42*
%TO.C,C5*%
X108270000Y-86250000D03*
X109230000Y-86250000D03*
%TD*%
D43*
%TO.C,C4*%
X93700000Y-93750000D03*
X95250000Y-93750000D03*
%TD*%
D26*
%TO.C,C9*%
X83330000Y-84750000D03*
X83330000Y-86650000D03*
%TD*%
D43*
%TO.C,C3*%
X90450000Y-85750000D03*
X92000000Y-85750000D03*
%TD*%
D26*
%TO.C,C14*%
X115750000Y-79950000D03*
X115750000Y-81850000D03*
%TD*%
%LPD*%
M02*
