%TF.GenerationSoftware,KiCad,Pcbnew,10.0.0*%
%TF.CreationDate,2026-07-11T11:00:39+07:00*%
%TF.ProjectId,FindMyCharger,46696e64-4d79-4436-9861-726765722e6b,rev?*%
%TF.SameCoordinates,Original*%
%TF.FileFunction,Copper,L4,Bot*%
%TF.FilePolarity,Positive*%
%FSLAX46Y46*%
G04 Gerber Fmt 4.6, Leading zero omitted, Abs format (unit mm)*
G04 Created by KiCad (PCBNEW 10.0.0) date 2026-07-11 11:00:39*
%MOMM*%
%LPD*%
G01*
G04 APERTURE LIST*
G04 Aperture macros list*
%AMRoundRect*
0 Rectangle with rounded corners*
0 $1 Rounding radius*
0 $2 $3 $4 $5 $6 $7 $8 $9 X,Y pos of 4 corners*
0 Add a 4 corners polygon primitive as box body*
4,1,4,$2,$3,$4,$5,$6,$7,$8,$9,$2,$3,0*
0 Add four circle primitives for the rounded corners*
1,1,$1+$1,$2,$3*
1,1,$1+$1,$4,$5*
1,1,$1+$1,$6,$7*
1,1,$1+$1,$8,$9*
0 Add four rect primitives between the rounded corners*
20,1,$1+$1,$2,$3,$4,$5,0*
20,1,$1+$1,$4,$5,$6,$7,0*
20,1,$1+$1,$6,$7,$8,$9,0*
20,1,$1+$1,$8,$9,$2,$3,0*%
G04 Aperture macros list end*
%TA.AperFunction,ComponentPad*%
%ADD10C,1.800000*%
%TD*%
%TA.AperFunction,ComponentPad*%
%ADD11C,2.000000*%
%TD*%
%TA.AperFunction,ComponentPad*%
%ADD12O,2.100000X1.000000*%
%TD*%
%TA.AperFunction,ComponentPad*%
%ADD13O,1.800000X1.000000*%
%TD*%
%TA.AperFunction,ComponentPad*%
%ADD14RoundRect,0.250000X0.550000X-0.550000X0.550000X0.550000X-0.550000X0.550000X-0.550000X-0.550000X0*%
%TD*%
%TA.AperFunction,ComponentPad*%
%ADD15C,1.600000*%
%TD*%
%TA.AperFunction,ViaPad*%
%ADD16C,0.600000*%
%TD*%
%TA.AperFunction,Conductor*%
%ADD17C,0.153700*%
%TD*%
%TA.AperFunction,Conductor*%
%ADD18C,0.200000*%
%TD*%
G04 APERTURE END LIST*
D10*
%TO.P,SW1,1,1_1*%
%TO.N,Net-(R1-Pad2)*%
X85740000Y-91847500D03*
%TO.P,SW1,2,2_2*%
%TO.N,GND*%
X90820000Y-91847500D03*
D11*
%TO.P,SW1,3,3_3*%
%TO.N,unconnected-(SW1-Pad3)*%
X91780000Y-89307500D03*
%TO.P,SW1,4,4_4*%
%TO.N,unconnected-(SW1-Pad4)*%
X84780000Y-89307500D03*
%TD*%
D12*
%TO.P,J1,SH,SHIELD_SH*%
%TO.N,GND*%
X79790000Y-79680000D03*
D13*
X75640000Y-79680000D03*
D12*
X79790000Y-88320000D03*
D13*
X75640000Y-88320000D03*
%TD*%
D14*
%TO.P,BT1,1,-_1*%
%TO.N,GND*%
X120750000Y-83750000D03*
D15*
%TO.P,BT1,2,+_2*%
%TO.N,Net-(BT1-+)*%
X120750000Y-80150000D03*
%TD*%
D16*
%TO.N,+3V3*%
X97000000Y-93750000D03*
X97750000Y-87500000D03*
%TO.N,GND*%
X98750000Y-85500000D03*
X108375000Y-95375000D03*
X91500000Y-93500000D03*
X98250000Y-84500000D03*
X95775000Y-94250000D03*
X108500000Y-85000000D03*
X93250000Y-86250000D03*
X86500000Y-82000000D03*
X95750000Y-81750000D03*
X105500000Y-79750000D03*
X116250000Y-83000000D03*
X92750000Y-79500000D03*
X97750000Y-81750000D03*
X108500000Y-87500000D03*
X100750000Y-90750000D03*
X82500000Y-88500000D03*
X79000000Y-90800000D03*
%TO.N,Net-(U1-LED2)*%
X77250000Y-89250000D03*
X84850000Y-87227645D03*
%TO.N,Net-(D1-K)*%
X80500000Y-93000000D03*
X101500000Y-79250000D03*
X85537760Y-87636289D03*
%TO.N,Net-(U3-Vin)*%
X81250000Y-91250000D03*
X89304289Y-91445710D03*
%TO.N,Net-(C3-Pad1)*%
X90250000Y-85000000D03*
X91000000Y-82500000D03*
%TO.N,Net-(U1-KEY)*%
X88250000Y-87750000D03*
X90974285Y-80125758D03*
%TO.N,Net-(U1-NTC)*%
X94750000Y-85000000D03*
X90000000Y-80000000D03*
%TO.N,/D-*%
X88401600Y-79010954D03*
X82066661Y-84108746D03*
%TO.N,/D+*%
X82066661Y-83305546D03*
X87598400Y-79010954D03*
%TO.N,Net-(J1-CC1)*%
X81500000Y-82674058D03*
X84750000Y-79500000D03*
%TO.N,Net-(C4-Pad1)*%
X92500000Y-95250000D03*
X83850735Y-83600735D03*
%TO.N,Net-(D3-A)*%
X75225000Y-94025000D03*
X77900000Y-95250000D03*
%TO.N,Net-(R1-Pad2)*%
X87500000Y-92000000D03*
X88700735Y-90799265D03*
%TD*%
%TO.N,/D+*%
D17*
X84877499Y-81724141D02*
G75*
G02*
X84877547Y-81418011I153101J153041D01*
G01*
X87598400Y-79309421D02*
X87598400Y-79010954D01*
X85301763Y-81299878D02*
G75*
G03*
X85607945Y-81299878I153091J153096D01*
G01*
X84877498Y-82030323D02*
G75*
G03*
X84877531Y-81724110I-153098J153123D01*
G01*
X85607945Y-81299878D02*
X85726028Y-81181794D01*
X84995583Y-81299877D02*
G75*
G02*
X85301790Y-81299850I153117J-153123D01*
G01*
X85726028Y-81181794D02*
X86185647Y-80722173D01*
X82602279Y-83528696D02*
X83463970Y-82667005D01*
X86531403Y-80376418D02*
X87598400Y-79309421D01*
X83463970Y-82667005D02*
X84240816Y-82667005D01*
X82066661Y-83305546D02*
X82289811Y-83528696D01*
X84877498Y-81417961D02*
X84995583Y-81299877D01*
X86185647Y-80722173D02*
X86531403Y-80376418D01*
X84240816Y-82667005D02*
X84877498Y-82030323D01*
X82289811Y-83528696D02*
X82602279Y-83528696D01*
%TO.N,+3V3*%
D18*
X97000000Y-88250000D02*
X97750000Y-87500000D01*
X97000000Y-93750000D02*
X97000000Y-88250000D01*
%TO.N,Net-(U1-LED2)*%
X82827645Y-89250000D02*
X77250000Y-89250000D01*
X84850000Y-87227645D02*
X82827645Y-89250000D01*
%TO.N,Net-(D1-K)*%
X86080000Y-88178529D02*
X86080000Y-89845978D01*
X85318478Y-90607500D02*
X82892500Y-90607500D01*
X101500000Y-79250000D02*
X100575000Y-78325000D01*
X76650000Y-89498529D02*
X77351471Y-90200000D01*
X86080000Y-89845978D02*
X85318478Y-90607500D01*
X85537760Y-87636289D02*
X86080000Y-88178529D01*
X77351471Y-90200000D02*
X82485000Y-90200000D01*
X82485000Y-90200000D02*
X82892500Y-90607500D01*
X82892500Y-90607500D02*
X80500000Y-93000000D01*
X76650000Y-89001471D02*
X76650000Y-89498529D01*
X85000529Y-78325000D02*
X77001471Y-86324058D01*
X77001471Y-88650000D02*
X76650000Y-89001471D01*
X100575000Y-78325000D02*
X85000529Y-78325000D01*
X77001471Y-86324058D02*
X77001471Y-88650000D01*
%TO.N,Net-(U3-Vin)*%
X87149999Y-93600000D02*
X80185785Y-93600000D01*
X80185785Y-93600000D02*
X79900000Y-93314215D01*
X79900000Y-93314215D02*
X79900000Y-92600000D01*
X79900000Y-92600000D02*
X81250000Y-91250000D01*
X89304289Y-91445710D02*
X87149999Y-93600000D01*
%TO.N,Net-(C3-Pad1)*%
X91000000Y-82500000D02*
X91000000Y-84250000D01*
X91000000Y-84250000D02*
X90250000Y-85000000D01*
%TO.N,Net-(U1-KEY)*%
X89751471Y-79400000D02*
X90248527Y-79400000D01*
X88250000Y-80901471D02*
X89751471Y-79400000D01*
X90248527Y-79400000D02*
X90974285Y-80125758D01*
X88250000Y-87750000D02*
X88250000Y-80901471D01*
%TO.N,Net-(U1-NTC)*%
X94750000Y-84750000D02*
X94750000Y-85000000D01*
X90000000Y-80000000D02*
X94750000Y-84750000D01*
%TO.N,/D-*%
D17*
X88175250Y-79237304D02*
X88175250Y-79249894D01*
X83611795Y-83023885D02*
X82750084Y-83885596D01*
X82750084Y-83885596D02*
X82289811Y-83885596D01*
X84401259Y-83023885D02*
X83611795Y-83023885D01*
X82289811Y-83885596D02*
X82066661Y-84108746D01*
X88175250Y-79249894D02*
X84401259Y-83023885D01*
X88401600Y-79010954D02*
X88175250Y-79237304D01*
%TO.N,Net-(J1-CC1)*%
D18*
X81500000Y-82674058D02*
X81575942Y-82674058D01*
X81575942Y-82674058D02*
X84750000Y-79500000D01*
%TO.N,Net-(C4-Pad1)*%
X92500000Y-92000000D02*
X92500000Y-95250000D01*
X89250000Y-90500000D02*
X90175443Y-90500000D01*
X83975735Y-85225735D02*
X89250000Y-90500000D01*
X91317057Y-90647500D02*
X92020000Y-91350443D01*
X92020000Y-91350443D02*
X92020000Y-91520000D01*
X83975735Y-85124267D02*
X83975735Y-85225735D01*
X83850735Y-83600735D02*
X83850735Y-84999267D01*
X92020000Y-91520000D02*
X92500000Y-92000000D01*
X90175443Y-90500000D02*
X90322943Y-90647500D01*
X90322943Y-90647500D02*
X91317057Y-90647500D01*
X83850735Y-84999267D02*
X83975735Y-85124267D01*
%TO.N,Net-(D3-A)*%
X78000000Y-95250000D02*
X77900000Y-95250000D01*
X76450000Y-95250000D02*
X75225000Y-94025000D01*
X77900000Y-95250000D02*
X76450000Y-95250000D01*
%TO.N,Net-(R1-Pad2)*%
X87500000Y-92000000D02*
X88700735Y-90799265D01*
%TD*%
M02*
