%TF.GenerationSoftware,KiCad,Pcbnew,10.0.0*%
%TF.CreationDate,2026-06-27T17:47:16+07:00*%
%TF.ProjectId,FindMyCharger,46696e64-4d79-4436-9861-726765722e6b,rev?*%
%TF.SameCoordinates,Original*%
%TF.FileFunction,Copper,L3,Inr*%
%TF.FilePolarity,Positive*%
%FSLAX46Y46*%
G04 Gerber Fmt 4.6, Leading zero omitted, Abs format (unit mm)*
G04 Created by KiCad (PCBNEW 10.0.0) date 2026-06-27 17:47:16*
%MOMM*%
%LPD*%
G01*
G04 APERTURE LIST*
G04 Aperture macros list*
%AMRoundRect*
0 Rectangle with rounded corners*
0 $1 Rounding radius*
0 $2 $3 $4 $5 $6 $7 $8 $9 X,Y pos of 4 corners*
0 Add a 4 corners polygon primitive as box body*
4,1,4,$2,$3,$4,$5,$6,$7,$8,$9,$2,$3,0*
0 Add four circle primitives for the rounded corners*
1,1,$1+$1,$2,$3*
1,1,$1+$1,$4,$5*
1,1,$1+$1,$6,$7*
1,1,$1+$1,$8,$9*
0 Add four rect primitives between the rounded corners*
20,1,$1+$1,$2,$3,$4,$5,0*
20,1,$1+$1,$4,$5,$6,$7,0*
20,1,$1+$1,$6,$7,$8,$9,0*
20,1,$1+$1,$8,$9,$2,$3,0*%
G04 Aperture macros list end*
%TA.AperFunction,ComponentPad*%
%ADD10C,1.800000*%
%TD*%
%TA.AperFunction,ComponentPad*%
%ADD11C,2.000000*%
%TD*%
%TA.AperFunction,ComponentPad*%
%ADD12O,2.100000X1.000000*%
%TD*%
%TA.AperFunction,ComponentPad*%
%ADD13O,1.800000X1.000000*%
%TD*%
%TA.AperFunction,ComponentPad*%
%ADD14RoundRect,0.250000X0.550000X-0.550000X0.550000X0.550000X-0.550000X0.550000X-0.550000X-0.550000X0*%
%TD*%
%TA.AperFunction,ComponentPad*%
%ADD15C,1.600000*%
%TD*%
%TA.AperFunction,ViaPad*%
%ADD16C,0.600000*%
%TD*%
%TA.AperFunction,ViaPad*%
%ADD17C,0.400000*%
%TD*%
%TA.AperFunction,ViaPad*%
%ADD18C,0.500000*%
%TD*%
G04 APERTURE END LIST*
D10*
%TO.N,Net-(R1-Pad2)*%
%TO.C,SW1*%
X85740000Y-91847500D03*
%TO.N,GND*%
X90820000Y-91847500D03*
D11*
%TO.N,unconnected-(SW1-Pad3)*%
X91780000Y-89307500D03*
%TO.N,unconnected-(SW1-Pad4)*%
X84780000Y-89307500D03*
%TD*%
D12*
%TO.N,GND*%
%TO.C,J1*%
X79790000Y-79680000D03*
D13*
X75640000Y-79680000D03*
D12*
X79790000Y-88320000D03*
D13*
X75640000Y-88320000D03*
%TD*%
D14*
%TO.N,GND*%
%TO.C,BT1*%
X120750000Y-83750000D03*
D15*
%TO.N,Net-(BT1-+)*%
X120750000Y-80150000D03*
%TD*%
D16*
%TO.N,GND*%
X91000000Y-79560000D03*
X109250000Y-86749998D03*
X114000000Y-84500000D03*
X106250000Y-87500000D03*
X83048264Y-87451734D03*
X91500000Y-93500000D03*
X96000000Y-93750000D03*
D17*
X92000000Y-85000000D03*
D16*
X96250000Y-83250000D03*
X105750000Y-94250000D03*
X86500000Y-82000000D03*
D17*
X91750000Y-81850000D03*
D16*
X80900000Y-87750000D03*
X81950735Y-79700735D03*
X77250000Y-90750000D03*
D17*
X80360000Y-80800000D03*
X97000000Y-79250000D03*
%TO.N,Net-(D1-K)*%
X87750000Y-88000000D03*
X80000000Y-92762500D03*
%TO.N,Net-(U3-Vin)*%
X90398298Y-84220480D03*
D16*
X81784047Y-86936990D03*
X81375000Y-89125000D03*
X81000000Y-90500000D03*
D17*
%TO.N,Net-(C3-Pad1)*%
X89625000Y-81950697D03*
D16*
X90979291Y-85650000D03*
D17*
%TO.N,Net-(U1-KEY)*%
X89695312Y-79921795D03*
X89000000Y-84290000D03*
%TO.N,Net-(U1-NTC)*%
X93766967Y-82991141D03*
D16*
X93500000Y-79750000D03*
D17*
%TO.N,Net-(U1-DPC)*%
X87500000Y-78700000D03*
X81500000Y-84500000D03*
%TO.N,Net-(U1-DMC)*%
X81500000Y-83250000D03*
X86750000Y-78750000D03*
%TO.N,Net-(J1-CC2)*%
X79000000Y-85750000D03*
D16*
X83750000Y-78750000D03*
D18*
%TO.N,Net-(J1-CC1)*%
X84160000Y-79660000D03*
X81363907Y-82536161D03*
D17*
%TO.N,Net-(C4-Pad1)*%
X83000000Y-82500000D03*
X84750000Y-85750000D03*
D16*
%TO.N,Net-(U1-LED1)*%
X83000000Y-89500000D03*
X83250000Y-83750000D03*
%TO.N,Net-(U2-P0.21{slash}RST)*%
X110669506Y-85621999D03*
X109499998Y-87509934D03*
D17*
%TO.N,Net-(D3-A)*%
X78000000Y-95250000D03*
X75500000Y-93750000D03*
%TO.N,Net-(R1-Pad2)*%
X89954655Y-86567859D03*
D16*
X86750000Y-90750000D03*
%TO.N,Net-(U2-SWCLK)*%
X107750000Y-84500000D03*
X101500000Y-92250000D03*
%TD*%
M02*
