%TF.GenerationSoftware,KiCad,Pcbnew,10.0.0*%
%TF.CreationDate,2026-06-28T21:22:43+07:00*%
%TF.ProjectId,FindMyCharger,46696e64-4d79-4436-9861-726765722e6b,rev?*%
%TF.SameCoordinates,Original*%
%TF.FileFunction,Copper,L3,Inr*%
%TF.FilePolarity,Positive*%
%FSLAX46Y46*%
G04 Gerber Fmt 4.6, Leading zero omitted, Abs format (unit mm)*
G04 Created by KiCad (PCBNEW 10.0.0) date 2026-06-28 21:22:43*
%MOMM*%
%LPD*%
G01*
G04 APERTURE LIST*
G04 Aperture macros list*
%AMRoundRect*
0 Rectangle with rounded corners*
0 $1 Rounding radius*
0 $2 $3 $4 $5 $6 $7 $8 $9 X,Y pos of 4 corners*
0 Add a 4 corners polygon primitive as box body*
4,1,4,$2,$3,$4,$5,$6,$7,$8,$9,$2,$3,0*
0 Add four circle primitives for the rounded corners*
1,1,$1+$1,$2,$3*
1,1,$1+$1,$4,$5*
1,1,$1+$1,$6,$7*
1,1,$1+$1,$8,$9*
0 Add four rect primitives between the rounded corners*
20,1,$1+$1,$2,$3,$4,$5,0*
20,1,$1+$1,$4,$5,$6,$7,0*
20,1,$1+$1,$6,$7,$8,$9,0*
20,1,$1+$1,$8,$9,$2,$3,0*%
G04 Aperture macros list end*
%TA.AperFunction,ComponentPad*%
%ADD10C,1.600000*%
%TD*%
%TA.AperFunction,ComponentPad*%
%ADD11RoundRect,0.250000X0.550000X-0.550000X0.550000X0.550000X-0.550000X0.550000X-0.550000X-0.550000X0*%
%TD*%
%TA.AperFunction,ComponentPad*%
%ADD12C,1.800000*%
%TD*%
%TA.AperFunction,ComponentPad*%
%ADD13C,2.000000*%
%TD*%
%TA.AperFunction,ComponentPad*%
%ADD14O,2.100000X1.000000*%
%TD*%
%TA.AperFunction,ComponentPad*%
%ADD15O,1.800000X1.000000*%
%TD*%
%TA.AperFunction,ViaPad*%
%ADD16C,0.600000*%
%TD*%
G04 APERTURE END LIST*
D10*
%TO.N,Net-(BT1-+)*%
%TO.C,BAT+*%
X120750000Y-80150000D03*
D11*
%TO.N,GND*%
X120750000Y-83750000D03*
%TD*%
D12*
%TO.N,Net-(R1-Pad2)*%
%TO.C,SW1*%
X85740000Y-91847500D03*
%TO.N,GND*%
X90820000Y-91847500D03*
D13*
%TO.N,unconnected-(SW1-Pad3)*%
X91780000Y-89307500D03*
%TO.N,unconnected-(SW1-Pad4)*%
X84780000Y-89307500D03*
%TD*%
D14*
%TO.N,GND*%
%TO.C,J1*%
X79790000Y-79680000D03*
D15*
X75640000Y-79680000D03*
D14*
X79790000Y-88320000D03*
D15*
X75640000Y-88320000D03*
%TD*%
D16*
%TO.N,GND*%
X103500000Y-85750000D03*
%TO.N,Net-(U3-Vin)*%
X93006942Y-87393058D03*
%TO.N,GND*%
X79000000Y-90800000D03*
X112200000Y-81900000D03*
%TO.N,Net-(U1-DPC)*%
X87900000Y-78500000D03*
%TO.N,GND*%
X92300000Y-81750000D03*
X92000000Y-84900000D03*
X96575000Y-83942382D03*
%TO.N,Net-(D1-K)*%
X85740000Y-85500000D03*
%TO.N,Net-(C4-Pad1)*%
X86800000Y-88400000D03*
X87300000Y-90500000D03*
X88188909Y-91288909D03*
X84157658Y-82590870D03*
%TO.N,Net-(U1-NTC)*%
X94900000Y-82400000D03*
X94100000Y-79250000D03*
%TO.N,Net-(U1-KEY)*%
X89400000Y-85000000D03*
X89940000Y-79635833D03*
%TO.N,Net-(R1-Pad2)*%
X89900000Y-86915000D03*
X89700000Y-88900000D03*
%TO.N,Net-(U1-LED2)*%
X82500000Y-90800000D03*
X84000000Y-91207500D03*
X85900000Y-88287550D03*
X85005000Y-87034646D03*
%TO.N,Net-(U3-Vin)*%
X90232500Y-88165000D03*
%TO.N,Net-(C3-Pad1)*%
X90124335Y-84276176D03*
X90025000Y-82002662D03*
%TO.N,Net-(U1-LED1)*%
X83600000Y-83750000D03*
%TO.N,Net-(D3-A)*%
X77900000Y-95250000D03*
%TO.N,Net-(U1-DPC)*%
X79200000Y-84400000D03*
%TO.N,Net-(U1-DMC)*%
X87046467Y-78500000D03*
X81400000Y-83300000D03*
%TO.N,GND*%
X91500000Y-79560000D03*
X106250000Y-87500000D03*
X83048264Y-87451734D03*
X91500000Y-93500000D03*
X96000000Y-93750000D03*
X105750000Y-94250000D03*
X86500000Y-82000000D03*
X81950735Y-79700735D03*
%TO.N,Net-(U1-LED1)*%
X83000000Y-89500000D03*
%TO.N,Net-(U2-P0.21{slash}RST)*%
X110669506Y-85621999D03*
X109499998Y-87509934D03*
%TO.N,Net-(U2-SWCLK)*%
X107750000Y-84500000D03*
X101500000Y-92250000D03*
%TO.N,GND*%
X109250000Y-86749998D03*
%TO.N,Net-(D1-K)*%
X82104265Y-87395735D03*
%TO.N,Net-(D3-A)*%
X75225000Y-94025000D03*
%TD*%
M02*
