#VRML V2.0 utf8
# 3D model generated by Easy ECAD Downloader

Shape{
    appearance Appearance {
        material  Material {
            diffuseColor 0.5019607843137255 0.5019607843137255 0.5019607843137255
            specularColor 0.25098039215686274 0.25098039215686274 0.25098039215686274
            ambientIntensity 0.2
            transparency 0
            shininess 0.5
        }
    }
    geometry IndexedFaceSet {
        ccw TRUE
        solid FALSE
        coord DEF co Coordinate {
            point [
                -1.3386 -0.6083 0.0394, -1.3386 -1.1398 0.0394, -1.3386 -0.6083 0.1969, -1.3386 -1.1398 1.0236, -1.3386 1.1437 0.0394, -1.3386 0.6122 0.0394, -1.3386 1.1437 1.0236, -1.3386 0.6122 0.1969, -1.3386 -0.5886 0.1969, -1.3386 -0.5886 0.7874, -1.3386 0.5925 0.7874, -1.3386 0.5925 0.1969, -0.8071 -0.5886 0.1969, -0.8071 0.5925 0.1969, -0.5512 0.6122 0.1969, -0.5512 -0.6083 0.1969, -0.0231 -1.3366 0.2062, -0.0231 -1.3366 0.1639, 0.0796 -1.3366 0.1639, -0.0231 -1.3366 0.3756, -0.0231 -1.3366 0.3443, 0.0796 -1.3366 0.3443, 0.1203 -1.3366 0.4831, 0.1286 -1.3366 0.4842, 0.0860 -1.3366 0.4842, 0.1479 -1.3366 0.3763, 0.1410 -1.3366 0.3756, 0.1764 -1.3366 0.3756, 0.1963 -1.3366 0.4710, 0.1963 -1.3366 0.4368, 0.2252 -1.3366 0.4368, 0.4338 -1.3366 0.3765, 0.4229 -1.3366 0.4057, 0.3837 -1.3366 0.4057, 0.2020 -1.3366 0.2065, 0.1993 -1.3366 0.2062, 0.2252 -1.3366 0.2062, 0.1795 -1.3366 0.2065, 0.1764 -1.3366 0.2076, 0.1764 -1.3366 0.2062, 0.3300 -1.3366 0.2552, 0.3300 -1.3366 0.2193, 0.3500 -1.3366 0.2193, -0.1130 -1.3366 0.3982, -0.0930 -1.3366 0.3803, -0.0231 -1.3366 0.4842, -0.2004 -1.3366 0.4842, -0.1830 -1.3366 0.4724, -0.1581 -1.3366 0.4437, -0.1420 -1.3366 0.4125, -0.1353 -1.3366 0.4101, -0.2549 -1.3366 0.5086, -0.2168 -1.3366 0.4952, -0.0231 -1.3366 1.0236, -0.3589 -1.3366 0.4937, -0.3239 -1.3366 0.5073, -0.8464 -1.3366 1.0236, -0.2862 -1.3366 0.5119, -0.3743 -1.3366 0.4842, -0.8464 -1.3366 0.4842, -0.3773 -1.3366 0.4823, -0.8464 -1.3366 0.3756, -0.5404 -1.3366 0.3756, -0.5338 -1.3366 0.3904, -0.5155 -1.3366 0.4140, -0.4582 -1.3366 0.4467, -0.4282 -1.3366 0.4504, -0.3952 -1.3366 0.4670, -0.4194 -1.3366 0.4499, -0.4107 -1.3366 0.4489, -0.5104 -1.3366 0.4188, -0.4863 -1.3366 0.4358, -0.4957 -1.3366 0.2246, -0.5193 -1.3366 0.2447, -0.8464 -1.3366 0.2062, -0.4682 -1.3366 0.2112, -0.5365 -1.3366 0.2693, -0.5474 -1.3366 0.2975, -0.8464 -1.3366 0.3443, -0.5511 -1.3366 0.3275, -0.5509 -1.3366 0.3345, -0.5492 -1.3366 0.3443, -0.5459 -1.3366 0.3631, -0.4585 -1.3366 0.2083, -0.4576 -1.3366 0.2062, -0.4510 -1.3366 0.1920, -0.8464 -1.3366 0.1639, -0.4397 -1.3366 0.1781, -0.4248 -1.3366 0.1669, -0.3550 -1.3366 0.1639, -0.3681 -1.3366 0.1589, -0.0231 -1.3366 0.0394, -0.3864 -1.3366 0.1567, -0.3894 -1.3366 0.1567, -0.8464 -1.3366 0.0394, -0.4073 -1.3366 0.1595, -0.4178 -1.3366 0.1639, -0.3153 -1.3366 0.2062, -0.3153 -1.3366 0.2061, -0.3242 -1.3366 0.1892, -0.3360 -1.3366 0.1759, -0.3512 -1.3366 0.1654, -0.3295 -1.3366 0.2834, -0.2278 -1.3366 0.3366, -0.3427 -1.3366 0.2955, -0.3588 -1.3366 0.3041, -0.2110 -1.3366 0.2070, -0.2161 -1.3366 0.2085, -0.2214 -1.3366 0.2115, -0.2253 -1.3366 0.2153, -0.1143 -1.3366 0.3188, -0.1178 -1.3366 0.3334, -0.1237 -1.3366 0.3443, -0.5014 -1.3366 0.3443, -0.2224 -1.3366 0.2483, -0.2177 -1.3366 0.2514, -0.2042 -1.3366 0.2963, -0.2124 -1.3366 0.2533, -0.0816 -1.3366 0.2590, -0.0949 -1.3366 0.2409, -0.0983 -1.3366 0.2374, -0.1185 -1.3366 0.2216, -0.4970 -1.3366 0.2989, -0.4879 -1.3366 0.2833, -0.4493 -1.3366 0.2755, -0.4743 -1.3366 0.2693, -0.4578 -1.3366 0.2591, -0.4213 -1.3366 0.3006, -0.4368 -1.3366 0.2899, -0.5033 -1.3366 0.3290, -0.5024 -1.3366 0.3175, -0.0696 -1.3366 0.3349, -0.0669 -1.3366 0.3130, -0.0670 -1.3366 0.3074, -0.0713 -1.3366 0.2826, -0.1419 -1.3366 0.2111, -0.1640 -1.3366 0.2068, -0.2088 -1.3366 0.2068, -0.4045 -1.3366 0.3070, -0.3864 -1.3366 0.3092, -0.3771 -1.3366 0.3087, -0.2308 -1.3366 0.2303, -0.2307 -1.3366 0.2329, -0.3105 -1.3366 0.2402, -0.2293 -1.3366 0.2387, -0.2264 -1.3366 0.2439, -0.2073 -1.3366 0.2538, -0.2065 -1.3366 0.2538, -0.2043 -1.3366 0.2533, -0.2284 -1.3366 0.2201, -0.2303 -1.3366 0.2253, -0.3109 -1.3366 0.2249, -0.3105 -1.3366 0.2326, -0.1293 -1.3366 0.2722, -0.1210 -1.3366 0.2840, -0.1157 -1.3366 0.2975, -0.1139 -1.3366 0.3123, -0.2027 -1.3366 0.2531, -0.1686 -1.3366 0.2531, -0.1551 -1.3366 0.2556, -0.1417 -1.3366 0.2618, -0.1304 -1.3366 0.2710, -0.1799 -1.3366 0.3756, -0.4867 -1.3366 0.3756, -0.1792 -1.3366 0.3715, -0.4946 -1.3366 0.3642, -0.5011 -1.3366 0.3473, -0.1731 -1.3366 0.3715, -0.1248 -1.3366 0.3465, -0.1337 -1.3366 0.3564, -0.1455 -1.3366 0.3646, -0.1587 -1.3366 0.3697, -0.3928 -1.3366 0.3966, -0.3872 -1.3366 0.3935, -0.3776 -1.3366 0.4142, -0.2174 -1.3366 0.4417, -0.1809 -1.3366 0.3818, -0.2051 -1.3366 0.4297, -0.1900 -1.3366 0.4074, -0.2855 -1.3366 0.4664, -0.2909 -1.3366 0.4662, -0.3161 -1.3366 0.4620, -0.4099 -1.3366 0.4027, -0.4274 -1.3366 0.4049, -0.4351 -1.3366 0.4045, -0.2391 -1.3366 0.4557, -0.2632 -1.3366 0.4640, -0.3406 -1.3366 0.4513, -0.3614 -1.3366 0.4351, -0.4539 -1.3366 0.4001, -0.4708 -1.3366 0.3911, -0.4841 -1.3366 0.3793, -0.0899 -1.3366 0.3756, -0.0782 -1.3366 0.3582, -0.0730 -1.3366 0.3443, 0.3737 -1.3366 0.2193, 0.3737 -1.3366 0.2071, 0.3837 -1.3366 0.2062, 0.3500 -1.3366 0.2062, 0.3837 -1.3366 0.3443, 0.3712 -1.3366 0.3139, 0.3712 -1.3366 0.3016, 0.3682 -1.3366 0.2674, 0.3682 -1.3366 0.2552, 0.3500 -1.3366 0.2552, 0.3500 -1.3366 0.3016, 0.3500 -1.3366 0.2674, 0.3300 -1.3366 0.3016, 0.3300 -1.3366 0.2674, 0.3500 -1.3366 0.2071, 0.3162 -1.3366 0.2071, 0.3090 -1.3366 0.2062, 0.3162 -1.3366 0.3139, 0.0962 -1.3366 0.2435, 0.0982 -1.3366 0.2650, 0.0935 -1.3366 0.2396, 0.0917 -1.3366 0.2349, 0.1521 -1.3366 0.2071, 0.1387 -1.3366 0.2071, 0.1224 -1.3366 0.2062, 0.1702 -1.3366 0.2236, 0.1521 -1.3366 0.2562, 0.1702 -1.3366 0.2098, 0.0860 -1.3366 0.2062, 0.0930 -1.3366 0.2172, 0.0914 -1.3366 0.2218, 0.1108 -1.3366 0.2834, 0.0860 -1.3366 0.3443, 0.1009 -1.3366 0.2796, 0.0982 -1.3366 0.2780, 0.1387 -1.3366 0.2189, 0.1383 -1.3366 0.2189, 0.1352 -1.3366 0.2145, 0.1003 -1.3366 0.2470, 0.1060 -1.3366 0.2499, 0.1075 -1.3366 0.2709, 0.1161 -1.3366 0.2524, 0.1159 -1.3366 0.2736, 0.1309 -1.3366 0.2103, 0.1277 -1.3366 0.2083, 0.1014 -1.3366 0.2084, 0.0973 -1.3366 0.2113, 0.0954 -1.3366 0.2134, 0.1708 -1.3366 0.2676, 0.1724 -1.3366 0.2719, 0.1461 -1.3366 0.2768, 0.1426 -1.3366 0.2802, 0.1387 -1.3366 0.2556, 0.1383 -1.3366 0.2608, 0.1370 -1.3366 0.2659, 0.0908 -1.3366 0.2275, 0.0908 -1.3366 0.2291, 0.1245 -1.3366 0.2851, 0.1324 -1.3366 0.2844, 0.1381 -1.3366 0.2827, 0.1355 -1.3366 0.2687, 0.1335 -1.3366 0.2709, 0.1312 -1.3366 0.2725, 0.1282 -1.3366 0.2737, 0.1232 -1.3366 0.2743, 0.1750 -1.3366 0.2206, 0.1764 -1.3366 0.2201, 0.1764 -1.3366 0.2484, 0.1510 -1.3366 0.2665, 0.1709 -1.3366 0.2575, 0.1489 -1.3366 0.2725, 0.1703 -1.3366 0.2628, 0.1762 -1.3366 0.2485, 0.1741 -1.3366 0.2507, 0.1723 -1.3366 0.2535, 0.1823 -1.3366 0.2062, 0.1764 -1.3366 0.1639, 0.1909 -1.3366 0.2053, 0.2180 -1.3366 0.2817, 0.2180 -1.3366 0.2688, 0.2211 -1.3366 0.2226, 0.2194 -1.3366 0.2184, 0.2170 -1.3366 0.2148, 0.1748 -1.3366 0.2755, 0.1764 -1.3366 0.2768, 0.1764 -1.3366 0.3443, 0.1788 -1.3366 0.2791, 0.1820 -1.3366 0.2810, 0.1892 -1.3366 0.2838, 0.2000 -1.3366 0.2851, 0.2252 -1.3366 0.3443, 0.2093 -1.3366 0.2843, 0.2172 -1.3366 0.2405, 0.2196 -1.3366 0.2369, 0.2211 -1.3366 0.2330, 0.2217 -1.3366 0.2279, 0.2131 -1.3366 0.2114, 0.2092 -1.3366 0.2091, 0.1986 -1.3366 0.2743, 0.1947 -1.3366 0.2740, 0.1840 -1.3366 0.2640, 0.1911 -1.3366 0.2730, 0.1881 -1.3366 0.2714, 0.1842 -1.3366 0.2622, 0.1847 -1.3366 0.2602, 0.1857 -1.3366 0.2583, 0.1870 -1.3366 0.2569, 0.1917 -1.3366 0.2540, 0.2080 -1.3366 0.2731, 0.2000 -1.3366 0.2504, 0.2156 -1.3366 0.2702, 0.2051 -1.3366 0.2483, 0.2140 -1.3366 0.2433, 0.1861 -1.3366 0.2696, 0.1849 -1.3366 0.2679, 0.1843 -1.3366 0.2661, 0.1833 -1.3366 0.2173, 0.1905 -1.3366 0.2406, 0.1825 -1.3366 0.2443, 0.1922 -1.3366 0.2162, 0.1928 -1.3366 0.2163, 0.1993 -1.3366 0.2370, 0.1996 -1.3366 0.2170, 0.2079 -1.3366 0.2266, 0.2078 -1.3366 0.2282, 0.2031 -1.3366 0.2183, 0.2043 -1.3366 0.2190, 0.2058 -1.3366 0.2204, 0.2070 -1.3366 0.2221, 0.2077 -1.3366 0.2240, 0.2072 -1.3366 0.2303, 0.2062 -1.3366 0.2321, 0.2045 -1.3366 0.2338, 0.4490 -1.3366 0.3765, 0.3837 -1.3366 0.3756, 1.1417 -1.3366 0.3756, 1.1417 -1.3366 0.4842, 0.4084 -1.3366 0.4833, 0.3837 -1.3366 0.4842, 0.3785 -1.3366 0.4057, 0.3682 -1.3366 0.3765, 0.3500 -1.3366 0.3756, 0.3530 -1.3366 0.3765, 0.3500 -1.3366 0.4842, 0.3837 -1.3366 0.4573, 0.3936 -1.3366 0.4833, 0.3090 -1.3366 0.3756, 0.3079 -1.3366 0.3788, 0.2895 -1.3366 0.3765, 0.2906 -1.3366 0.4833, 0.3090 -1.3366 0.4842, 0.2500 -1.3366 0.4842, 0.2500 -1.3366 0.3756, 0.2601 -1.3366 0.3765, 0.2601 -1.3366 0.4833, 0.3442 -1.3366 0.4120, 0.3389 -1.3366 0.4009, 0.3346 -1.3366 0.4656, 0.3412 -1.3366 0.4563, 0.3309 -1.3366 0.3915, 0.3200 -1.3366 0.3836, 0.3090 -1.3366 0.3792, 0.3309 -1.3366 0.4691, 0.3069 -1.3366 0.4815, 0.3090 -1.3366 0.4807, 0.3198 -1.3366 0.4768, 0.3452 -1.3366 0.4461, 0.3470 -1.3366 0.4312, 0.3467 -1.3366 0.4245, 0.2252 -1.3366 0.4842, 0.2375 -1.3366 0.4833, 0.2252 -1.3366 0.4833, 0.2375 -1.3366 0.4710, 0.2400 -1.3366 0.3887, 0.2400 -1.3366 0.3765, 0.2252 -1.3366 0.3756, 0.1963 -1.3366 0.3887, 0.2252 -1.3366 0.3887, 0.1963 -1.3366 0.4246, 0.2252 -1.3366 0.4246, 0.2345 -1.3366 0.4246, 0.2345 -1.3366 0.4368, 0.2252 -1.3366 0.4710, 0.1825 -1.3366 0.4833, 0.1764 -1.3366 0.4842, 0.1825 -1.3366 0.3765, 0.1612 -1.3366 0.4807, 0.1501 -1.3366 0.4839, 0.1471 -1.3366 0.4842, 0.2252 -1.3366 0.3765, 0.1612 -1.3366 0.4663, 0.1594 -1.3366 0.3800, 0.1387 -1.3366 0.3872, 0.1507 -1.3366 0.3894, 0.1612 -1.3366 0.3941, 0.1612 -1.3366 0.3809, 0.1010 -1.3366 0.4054, 0.1062 -1.3366 0.3982, 0.1082 -1.3366 0.3962, 0.1152 -1.3366 0.3912, 0.1228 -1.3366 0.3883, 0.1336 -1.3366 0.3870, 0.1492 -1.3366 0.4710, 0.1056 -1.3366 0.4593, 0.1600 -1.3366 0.4669, 0.1006 -1.3366 0.4517, 0.0972 -1.3366 0.4422, 0.1360 -1.3366 0.4726, 0.1319 -1.3366 0.4725, 0.1069 -1.3366 0.4608, 0.1226 -1.3366 0.4707, 0.1142 -1.3366 0.4668, 0.0957 -1.3366 0.4287, 0.0958 -1.3366 0.4247, 0.0975 -1.3366 0.4140, 0.1359 -1.3366 0.4851, 0.0860 -1.3366 1.0236, 0.1764 -1.3366 1.0236, 0.1362 -1.3366 0.4851, 0.0889 -1.3366 0.4592, 0.0967 -1.3366 0.4693, 0.0992 -1.3366 0.4717, 0.1091 -1.3366 0.4788, 0.0860 -1.3366 0.4035, 0.0830 -1.3366 0.4119, 0.0796 -1.3366 0.3756, 0.0812 -1.3366 0.4279, 0.0814 -1.3366 0.4334, 0.0796 -1.3366 0.4842, 0.0838 -1.3366 0.4474, 0.0860 -1.3366 0.4524, 0.1035 -1.3366 0.3821, 0.0949 -1.3366 0.3893, 0.0860 -1.3366 0.3756, 0.0933 -1.3366 0.3912, 0.0871 -1.3366 0.4005, 0.1316 -1.3366 0.3747, 0.1252 -1.3366 0.3750, 0.1223 -1.3366 0.3756, 0.1136 -1.3366 0.3774, 0.1150 -1.3366 0.2053, 0.0860 -1.3366 0.1639, 0.1224 -1.3366 0.2062, 0.1126 -1.3366 0.2054, 0.1075 -1.3366 0.2062, 0.1064 -1.3366 0.2064, 0.2880 -1.3366 0.2834, 0.3018 -1.3366 0.2834, 0.3090 -1.3366 0.3443, 0.3500 -1.3366 0.3139, 0.3500 -1.3366 0.3443, 0.2714 -1.3366 0.2062, 0.2635 -1.3366 0.2261, 0.2651 -1.3366 0.2198, 0.2655 -1.3366 0.2198, 0.2500 -1.3366 0.3443, 0.2500 -1.3366 0.2648, 0.2671 -1.3366 0.2260, 0.2661 -1.3366 0.2224, 0.2500 -1.3366 0.2062, 0.2500 -1.3366 0.2289, 0.2286 -1.3366 0.2834, 0.2436 -1.3366 0.2834, 0.2585 -1.3366 0.2073, 0.2581 -1.3366 0.2062, 0.2527 -1.3366 0.1934, 0.2252 -1.3366 0.1639, 0.2314 -1.3366 0.1723, 0.2314 -1.3366 0.1842, 0.2343 -1.3366 0.1833, 0.2390 -1.3366 0.1827, 0.2394 -1.3366 0.1827, 0.2426 -1.3366 0.1832, 0.2455 -1.3366 0.1844, 0.2475 -1.3366 0.1857, 0.2499 -1.3366 0.1885, 0.2500 -1.3366 0.1887, 0.2500 -1.3366 0.1736, 0.2453 -1.3366 0.1718, 0.2500 -1.3366 0.1639, 0.2400 -1.3366 0.1712, 0.2353 -1.3366 0.1715, 0.2672 -1.3366 0.1956, 0.2615 -1.3366 0.1843, 0.3090 -1.3366 0.1639, 0.2566 -1.3366 0.1783, 0.2552 -1.3366 0.1770, 0.2506 -1.3366 0.1738, -1.1417 -1.3366 0.0394, -1.1417 -1.3366 0.1639, -1.1417 -1.3366 0.2062, -1.1417 -1.3366 0.3443, -1.1417 -1.3366 0.3756, -1.1417 -1.3366 0.4842, -1.1417 -1.3366 1.0236, 0.0769 -1.3366 0.3887, 0.0769 -1.3366 0.3765, 0.0206 -1.3366 0.3765, 0.0344 -1.3366 0.4833, 0.0344 -1.3366 0.3887, 0.0206 -1.3366 0.4833, 0.0796 -1.3366 0.2062, 0.0780 -1.3366 0.2071, 0.0206 -1.3366 0.2071, 0.0780 -1.3366 0.2193, 0.0756 -1.3366 0.3016, 0.0344 -1.3366 0.2552, 0.0344 -1.3366 0.2193, 0.0725 -1.3366 0.2552, 0.0725 -1.3366 0.2674, 0.0344 -1.3366 0.2674, 0.0344 -1.3366 0.3016, 0.0206 -1.3366 0.3139, 0.0756 -1.3366 0.3139, 0.0796 -1.3366 1.0236, 0.2252 -1.3366 1.0236, 0.2500 -1.3366 1.0236, 0.3090 -1.3366 1.0236, 0.3500 -1.3366 1.0236, 0.3837 -1.3366 1.0236, 1.1417 -1.3366 1.0236, 1.1417 -1.3366 0.3443, 0.3938 -1.3366 0.2071, 0.3938 -1.3366 0.3139, 0.5675 -1.3366 0.2071, 0.5566 -1.3366 0.2363, 0.5122 -1.3366 0.2363, 0.5273 -1.3366 0.3139, 0.5421 -1.3366 0.3139, 0.5019 -1.3366 0.2071, 0.4867 -1.3366 0.2071, 0.4232 -1.3366 0.2071, 0.4726 -1.3366 0.2316, 0.4646 -1.3366 0.2221, 0.5827 -1.3366 0.2071, 1.1417 -1.3366 0.2062, 0.4537 -1.3366 0.2142, 0.4416 -1.3366 0.2094, 0.4646 -1.3366 0.2998, 0.4683 -1.3366 0.2962, 0.4749 -1.3366 0.2869, 0.4789 -1.3366 0.2768, 0.4243 -1.3366 0.3139, 0.4406 -1.3366 0.3121, 0.4535 -1.3366 0.3074, 0.4807 -1.3366 0.2619, 0.4804 -1.3366 0.2551, 0.4778 -1.3366 0.2426, 0.3500 -1.3366 0.1639, 0.3837 -1.3366 0.1639, 1.1417 -1.3366 0.1639, 0.0796 -1.3366 0.0394, 0.0860 -1.3366 0.0394, 0.1764 -1.3366 0.0394, 0.2252 -1.3366 0.0394, 0.2500 -1.3366 0.0394, 0.3090 -1.3366 0.0394, 0.3500 -1.3366 0.0394, 0.3837 -1.3366 0.0394, 1.1417 -1.3366 0.0394, 1.3386 -1.1398 0.0394, 1.3386 -0.6083 0.0394, 1.3386 -1.1398 1.0236, 1.3386 -0.6083 0.1969, 1.3386 -0.5886 0.1969, 1.3386 -0.5886 0.7874, 1.3386 1.1437 1.0236, 1.3386 0.5925 0.7874, 1.3386 0.6122 0.0394, 1.3386 1.1437 0.0394, 1.3386 0.6122 0.1969, 1.3386 0.5925 0.1969, 0.8071 0.5925 0.1969, 0.8071 -0.5886 0.1969, 0.5512 -0.6083 0.1969, 0.5512 0.6122 0.1969, 1.3336 1.1875 1.0236, 1.3319 1.1946 0.0394, 1.3312 1.1944 1.0236, 1.3191 1.2291 1.0236, 1.3122 1.2421 0.0394, 1.3113 1.2415 1.0236, 1.2956 1.2664 1.0236, 1.2809 1.2829 0.0394, 1.2801 1.2820 1.0236, 1.2645 1.2976 1.0236, 1.2402 1.3142 0.0394, 1.2396 1.3132 1.0236, 1.2271 1.3211 1.0236, 1.1927 1.3338 0.0394, 1.1925 1.3332 1.0236, 1.1855 1.3356 1.0236, 1.1417 1.3406 0.0394, 1.1417 1.3406 1.0236, -1.1417 1.3406 1.0236, -1.1417 1.3406 0.0394, -1.1855 1.3356 1.0236, -1.1927 1.3338 0.0394, -1.1925 1.3332 1.0236, -1.2271 1.3211 1.0236, -1.2402 1.3142 0.0394, -1.2396 1.3132 1.0236, -1.2645 1.2976 1.0236, -1.2809 1.2829 0.0394, -1.2801 1.2820 1.0236, -1.2956 1.2664 1.0236, -1.3122 1.2421 0.0394, -1.3113 1.2415 1.0236, -1.3191 1.2291 1.0236, -1.3319 1.1946 0.0394, -1.3312 1.1944 1.0236, -1.3336 1.1875 1.0236, -1.3336 -1.1836 1.0236, -1.3319 -1.1907 0.0394, -1.3312 -1.1905 1.0236, -1.3191 -1.2252 1.0236, -1.3122 -1.2382 0.0394, -1.3113 -1.2376 1.0236, -1.2956 -1.2625 1.0236, -1.2809 -1.2790 0.0394, -1.2801 -1.2781 1.0236, -1.2645 -1.2937 1.0236, -1.2402 -1.3102 0.0394, -1.2396 -1.3093 1.0236, -1.2271 -1.3171 1.0236, -1.1927 -1.3299 0.0394, -1.1925 -1.3293 1.0236, -1.1855 -1.3317 1.0236, 1.1855 -1.3317 1.0236, 1.1927 -1.3299 0.0394, 1.1925 -1.3293 1.0236, 1.2271 -1.3171 1.0236, 1.2402 -1.3102 0.0394, 1.2396 -1.3093 1.0236, 1.2645 -1.2937 1.0236, 1.2809 -1.2790 0.0394, 1.2801 -1.2781 1.0236, 1.2956 -1.2625 1.0236, 1.3122 -1.2382 0.0394, 1.3113 -1.2376 1.0236, 1.3191 -1.2252 1.0236, 1.3319 -1.1907 0.0394, 1.3312 -1.1905 1.0236, 1.3336 -1.1836 1.0236, -1.1680 -1.2549 1.1024, -1.1417 -1.2579 1.1024, -1.2598 -1.1398 1.1024, -1.1417 1.2618 1.1024, 1.1417 1.2618 1.1024, 1.1417 -1.2579 1.1024, -1.2481 -1.1910 1.1024, -1.2341 -1.2134 1.1024, -1.2154 -1.2321 1.1024, -1.2569 -1.1660 1.1024, -1.2598 1.1437 1.1024, -1.2569 1.1700 1.1024, -1.1680 1.2588 1.1024, -1.1930 1.2501 1.1024, -1.2154 1.2360 1.1024, -1.2341 1.2173 1.1024, -1.2481 1.1949 1.1024, -1.1930 -1.2462 1.1024, 1.2154 1.2360 1.1024, 1.1930 1.2501 1.1024, 1.2341 1.2173 1.1024, 1.2481 1.1949 1.1024, 1.2598 1.1437 1.1024, 1.2569 1.1700 1.1024, 1.1680 1.2588 1.1024, 1.2598 -1.1398 1.1024, 1.2569 -1.1660 1.1024, 1.1680 -1.2549 1.1024, 1.1930 -1.2462 1.1024, 1.2154 -1.2321 1.1024, 1.2341 -1.2134 1.1024, 1.2481 -1.1910 1.1024, -0.5512 -0.6083 0.0394, 0.5512 -0.6083 0.0394, 0.5512 0.6122 0.0394, -0.5512 0.6122 0.0394, -0.5512 0.6122 0.0394
            ]
        }
        coordIndex [
            0 1 2 -1,2 1 3 -1,4 5 6 -1,6 5 7 -1,8 2 9 -1,9 2 3 -1,9 3 10 -1,10 3 6 -1,10 6 11 -1,11 6 7 -1,2 8 12 -1,11 7 13 -1,13 7 14 -1,13 14 12 -1,12 14 15 -1,12 15 2 -1,16 17 18 -1,19 20 21 -1,22 23 24 -1,25 26 27 -1,28 29 30 -1,31 32 33 -1,34 35 36 -1,37 38 39 -1,40 41 42 -1,43 44 45 -1,45 44 19 -1,46 47 45 -1,45 47 48 -1,48 49 45 -1,45 49 50 -1,45 50 43 -1,51 52 53 -1,54 55 56 -1,56 55 53 -1,53 55 57 -1,53 57 51 -1,54 56 58 -1,58 56 59 -1,58 59 60 -1,61 62 59 -1,59 62 63 -1,59 63 64 -1,59 65 60 -1,60 65 66 -1,60 66 67 -1,67 66 68 -1,67 68 69 -1,64 70 59 -1,59 70 71 -1,59 71 65 -1,72 73 74 -1,72 74 75 -1,73 76 74 -1,74 76 77 -1,74 77 78 -1,78 77 79 -1,79 80 78 -1,78 80 81 -1,78 81 61 -1,61 81 82 -1,61 82 62 -1,83 75 84 -1,84 75 74 -1,84 74 85 -1,85 74 86 -1,85 86 87 -1,87 86 88 -1,89 90 91 -1,90 92 91 -1,91 92 93 -1,91 93 94 -1,94 93 95 -1,94 95 86 -1,86 95 96 -1,86 96 88 -1,16 97 17 -1,17 97 98 -1,17 98 99 -1,99 100 17 -1,17 100 101 -1,17 101 89 -1,102 103 104 -1,104 103 105 -1,106 107 97 -1,97 107 108 -1,97 108 109 -1,110 111 103 -1,103 111 112 -1,103 112 113 -1,114 115 116 -1,116 115 117 -1,118 119 16 -1,16 119 120 -1,16 120 121 -1,122 123 124 -1,124 123 125 -1,124 125 126 -1,127 113 128 -1,128 113 129 -1,128 129 124 -1,124 129 130 -1,124 130 122 -1,131 132 20 -1,20 132 133 -1,20 133 16 -1,16 133 134 -1,16 134 118 -1,121 135 16 -1,16 135 136 -1,16 136 97 -1,97 136 137 -1,97 137 106 -1,127 138 113 -1,113 138 139 -1,113 139 103 -1,103 139 140 -1,103 140 105 -1,141 142 143 -1,143 142 144 -1,143 144 116 -1,116 144 145 -1,116 145 114 -1,117 146 116 -1,116 146 147 -1,116 147 148 -1,109 149 97 -1,97 149 150 -1,97 150 151 -1,151 150 141 -1,151 141 152 -1,152 141 143 -1,153 154 116 -1,116 154 155 -1,116 155 103 -1,103 155 156 -1,103 156 110 -1,148 157 116 -1,116 157 158 -1,116 158 159 -1,159 160 116 -1,116 160 161 -1,116 161 153 -1,162 163 164 -1,164 163 165 -1,164 165 166 -1,166 113 164 -1,164 113 112 -1,164 112 167 -1,167 112 168 -1,168 169 167 -1,167 169 170 -1,167 170 171 -1,172 163 173 -1,173 163 162 -1,173 162 174 -1,175 176 177 -1,177 176 178 -1,176 179 162 -1,162 179 180 -1,162 180 181 -1,172 182 163 -1,163 182 183 -1,163 183 184 -1,175 185 176 -1,176 185 186 -1,176 186 179 -1,181 187 162 -1,162 187 188 -1,162 188 174 -1,189 190 184 -1,184 190 191 -1,184 191 163 -1,44 192 19 -1,19 192 193 -1,19 193 20 -1,20 193 194 -1,20 194 131 -1,195 196 197 -1,197 196 198 -1,199 200 201 -1,202 203 195 -1,195 203 42 -1,42 203 204 -1,42 204 40 -1,201 205 206 -1,206 205 207 -1,206 207 208 -1,196 209 198 -1,198 209 210 -1,198 210 211 -1,211 210 212 -1,213 214 215 -1,215 214 216 -1,217 218 219 -1,220 221 222 -1,222 221 217 -1,223 224 225 -1,226 227 228 -1,228 227 229 -1,230 231 218 -1,218 231 232 -1,213 233 214 -1,214 233 234 -1,214 234 235 -1,235 234 236 -1,235 236 237 -1,232 238 218 -1,218 238 239 -1,218 239 219 -1,240 241 223 -1,223 241 242 -1,223 242 224 -1,243 244 245 -1,245 244 246 -1,247 248 236 -1,236 248 249 -1,225 250 223 -1,223 250 251 -1,223 251 227 -1,227 251 216 -1,227 216 229 -1,229 216 214 -1,226 252 227 -1,227 252 253 -1,227 253 254 -1,249 255 236 -1,236 255 256 -1,236 256 257 -1,257 258 236 -1,236 258 259 -1,236 259 237 -1,260 261 262 -1,263 221 264 -1,260 262 220 -1,245 265 243 -1,243 265 263 -1,243 263 266 -1,266 263 264 -1,262 267 220 -1,220 267 268 -1,220 268 221 -1,221 268 269 -1,221 269 264 -1,37 39 270 -1,270 39 271 -1,270 271 272 -1,273 274 36 -1,275 276 36 -1,36 276 277 -1,278 279 280 -1,280 279 281 -1,280 281 282 -1,282 283 280 -1,280 283 284 -1,280 284 285 -1,285 284 286 -1,285 286 273 -1,287 288 274 -1,274 288 289 -1,274 289 36 -1,36 289 290 -1,36 290 275 -1,277 291 36 -1,36 291 292 -1,36 292 34 -1,293 294 295 -1,295 294 296 -1,295 296 297 -1,295 298 293 -1,293 298 299 -1,293 299 300 -1,300 301 293 -1,293 301 302 -1,293 302 303 -1,303 302 304 -1,303 304 305 -1,305 304 306 -1,305 306 274 -1,274 306 307 -1,274 307 287 -1,308 309 297 -1,297 309 310 -1,297 310 295 -1,311 312 261 -1,261 312 313 -1,261 313 262 -1,311 314 312 -1,312 314 315 -1,312 315 316 -1,316 315 317 -1,316 318 319 -1,317 320 316 -1,316 320 321 -1,316 321 322 -1,322 323 316 -1,316 323 324 -1,316 324 318 -1,319 325 316 -1,316 325 326 -1,316 326 327 -1,328 31 329 -1,330 331 332 -1,332 331 333 -1,31 33 329 -1,329 33 334 -1,329 334 335 -1,336 337 338 -1,338 337 339 -1,338 339 333 -1,333 339 340 -1,333 340 332 -1,341 342 343 -1,344 345 346 -1,341 343 347 -1,347 343 348 -1,347 348 346 -1,346 348 349 -1,346 349 344 -1,350 351 336 -1,352 353 338 -1,351 354 336 -1,336 354 355 -1,336 355 341 -1,341 355 356 -1,341 356 342 -1,352 338 357 -1,344 358 345 -1,345 358 359 -1,345 359 338 -1,338 359 360 -1,338 360 357 -1,353 361 338 -1,338 361 362 -1,338 362 336 -1,336 362 363 -1,336 363 350 -1,346 364 365 -1,365 364 366 -1,365 367 346 -1,346 367 368 -1,346 368 347 -1,347 368 369 -1,347 369 370 -1,371 372 373 -1,373 372 374 -1,374 372 375 -1,375 372 368 -1,375 368 376 -1,376 368 367 -1,376 367 30 -1,30 367 377 -1,30 377 28 -1,366 364 378 -1,378 364 379 -1,378 379 380 -1,381 379 382 -1,382 379 383 -1,369 384 370 -1,370 384 380 -1,370 380 27 -1,27 380 379 -1,27 379 385 -1,385 379 381 -1,25 27 386 -1,387 388 385 -1,385 388 389 -1,385 389 27 -1,27 389 390 -1,27 390 386 -1,391 392 385 -1,385 392 393 -1,385 393 394 -1,394 395 385 -1,385 395 396 -1,385 396 387 -1,397 398 399 -1,399 398 400 -1,399 400 401 -1,397 402 398 -1,398 402 403 -1,398 403 404 -1,404 403 405 -1,404 405 406 -1,401 407 399 -1,399 407 408 -1,399 408 385 -1,385 408 409 -1,385 409 391 -1,23 410 411 -1,411 410 412 -1,412 410 413 -1,412 413 383 -1,24 414 415 -1,415 416 24 -1,24 416 417 -1,24 417 22 -1,418 419 420 -1,421 422 423 -1,423 422 424 -1,423 424 24 -1,24 424 425 -1,24 425 414 -1,426 427 428 -1,428 427 429 -1,428 429 430 -1,431 432 227 -1,227 432 433 -1,227 433 428 -1,428 433 434 -1,428 434 426 -1,246 244 254 -1,254 244 278 -1,254 278 227 -1,227 278 280 -1,227 280 431 -1,435 436 437 -1,437 436 271 -1,437 271 219 -1,219 271 39 -1,219 39 217 -1,217 39 38 -1,217 38 222 -1,435 438 436 -1,436 438 439 -1,436 439 223 -1,223 439 440 -1,223 440 240 -1,441 442 443 -1,200 199 444 -1,444 199 445 -1,444 445 212 -1,212 445 443 -1,212 443 211 -1,211 443 442 -1,211 442 446 -1,447 448 449 -1,443 450 441 -1,441 450 451 -1,441 451 452 -1,452 451 447 -1,452 447 453 -1,453 447 449 -1,454 455 36 -1,36 455 456 -1,273 36 285 -1,285 36 456 -1,285 456 450 -1,450 456 457 -1,450 457 451 -1,458 455 459 -1,459 455 454 -1,459 454 460 -1,461 462 463 -1,464 465 36 -1,272 271 35 -1,35 271 461 -1,35 461 36 -1,36 461 463 -1,36 463 464 -1,465 466 36 -1,36 466 467 -1,36 467 468 -1,468 469 36 -1,36 469 470 -1,36 470 454 -1,454 470 471 -1,454 471 460 -1,472 473 474 -1,474 473 475 -1,474 475 461 -1,461 475 476 -1,461 476 462 -1,477 478 479 -1,477 479 446 -1,478 480 479 -1,479 480 481 -1,479 481 474 -1,474 481 482 -1,474 482 472 -1,483 94 484 -1,484 94 86 -1,484 86 485 -1,485 86 74 -1,485 74 486 -1,486 74 78 -1,486 78 487 -1,487 78 61 -1,487 61 488 -1,488 61 59 -1,488 59 489 -1,489 59 56 -1,490 491 420 -1,420 491 492 -1,493 423 45 -1,419 421 420 -1,420 421 423 -1,420 423 490 -1,490 423 493 -1,490 493 494 -1,21 420 19 -1,19 420 492 -1,19 492 45 -1,45 492 495 -1,45 495 493 -1,496 497 498 -1,497 496 499 -1,499 496 21 -1,499 21 500 -1,501 502 503 -1,503 502 499 -1,503 499 504 -1,504 499 500 -1,504 500 505 -1,505 500 506 -1,18 496 16 -1,16 496 498 -1,16 498 20 -1,20 498 507 -1,20 507 21 -1,21 507 508 -1,21 508 500 -1,23 411 24 -1,24 411 509 -1,24 509 423 -1,423 509 53 -1,423 53 45 -1,45 53 52 -1,45 52 46 -1,18 436 496 -1,496 436 223 -1,496 223 21 -1,21 223 227 -1,21 227 420 -1,420 227 428 -1,420 428 418 -1,418 428 430 -1,199 336 445 -1,445 336 341 -1,445 341 443 -1,443 341 347 -1,443 347 450 -1,450 347 370 -1,450 370 285 -1,285 370 27 -1,285 27 280 -1,280 27 26 -1,280 26 431 -1,383 379 412 -1,412 379 364 -1,412 364 510 -1,510 364 346 -1,510 346 511 -1,511 346 345 -1,511 345 512 -1,512 345 338 -1,512 338 513 -1,513 338 333 -1,513 333 514 -1,514 333 331 -1,514 331 515 -1,332 328 330 -1,330 328 329 -1,330 329 516 -1,517 518 199 -1,519 520 521 -1,206 202 201 -1,201 202 195 -1,201 195 199 -1,199 195 197 -1,199 197 517 -1,199 522 523 -1,524 525 197 -1,197 525 526 -1,197 526 517 -1,525 527 528 -1,521 524 519 -1,519 524 197 -1,519 197 529 -1,529 197 530 -1,529 530 523 -1,523 530 516 -1,523 516 199 -1,199 516 329 -1,199 329 336 -1,336 329 335 -1,336 335 337 -1,528 531 525 -1,525 531 532 -1,525 532 526 -1,533 534 522 -1,522 534 535 -1,522 535 536 -1,518 537 199 -1,199 537 538 -1,199 538 522 -1,522 538 539 -1,522 539 533 -1,536 540 522 -1,522 540 541 -1,522 541 525 -1,525 541 542 -1,525 542 527 -1,446 479 211 -1,211 479 543 -1,211 543 198 -1,198 543 544 -1,198 544 197 -1,197 544 545 -1,197 545 530 -1,89 91 17 -1,17 91 546 -1,17 546 18 -1,18 546 547 -1,18 547 436 -1,436 547 548 -1,436 548 271 -1,271 548 549 -1,271 549 461 -1,461 549 550 -1,461 550 474 -1,474 550 551 -1,474 551 479 -1,479 551 552 -1,479 552 543 -1,543 552 553 -1,543 553 544 -1,544 553 554 -1,544 554 545 -1,555 556 557 -1,557 556 558 -1,558 559 557 -1,557 559 560 -1,557 560 561 -1,561 560 562 -1,563 564 565 -1,565 564 561 -1,565 561 566 -1,566 561 562 -1,565 566 567 -1,559 558 568 -1,568 558 569 -1,568 569 567 -1,567 569 570 -1,567 570 565 -1,561 564 571 -1,571 564 572 -1,571 572 573 -1,573 572 574 -1,574 572 575 -1,574 575 576 -1,576 575 577 -1,577 575 578 -1,577 578 579 -1,579 578 580 -1,580 578 581 -1,580 581 582 -1,582 581 583 -1,583 581 584 -1,583 584 585 -1,585 584 586 -1,586 584 587 -1,586 587 588 -1,588 587 589 -1,589 587 590 -1,589 590 591 -1,591 590 592 -1,591 592 593 -1,593 592 594 -1,594 592 595 -1,594 595 596 -1,596 595 597 -1,597 595 598 -1,597 598 599 -1,599 598 600 -1,600 598 601 -1,600 601 602 -1,602 601 603 -1,603 601 604 -1,603 604 605 -1,605 604 606 -1,606 604 4 -1,606 4 6 -1,3 1 607 -1,607 1 608 -1,607 608 609 -1,609 608 610 -1,610 608 611 -1,610 611 612 -1,612 611 613 -1,613 611 614 -1,613 614 615 -1,615 614 616 -1,616 614 617 -1,616 617 618 -1,618 617 619 -1,619 617 620 -1,619 620 621 -1,621 620 622 -1,622 620 483 -1,622 483 489 -1,515 554 623 -1,623 554 624 -1,623 624 625 -1,625 624 626 -1,626 624 627 -1,626 627 628 -1,628 627 629 -1,629 627 630 -1,629 630 631 -1,631 630 632 -1,632 630 633 -1,632 633 634 -1,634 633 635 -1,635 633 636 -1,635 636 637 -1,637 636 638 -1,638 636 555 -1,638 555 557 -1,639 640 641 -1,642 640 643 -1,643 640 644 -1,645 646 647 -1,645 647 648 -1,641 640 649 -1,649 640 642 -1,649 642 650 -1,650 642 651 -1,650 651 652 -1,652 653 650 -1,650 653 654 -1,650 654 655 -1,648 647 641 -1,641 647 656 -1,641 656 639 -1,657 658 659 -1,659 658 660 -1,661 662 643 -1,643 662 660 -1,643 660 663 -1,663 660 658 -1,661 643 664 -1,664 643 644 -1,664 644 665 -1,665 644 666 -1,665 666 667 -1,667 668 665 -1,665 668 669 -1,665 669 670 -1,1 0 671 -1,672 556 483 -1,483 556 555 -1,483 555 554 -1,554 555 624 -1,1 671 608 -1,672 671 673 -1,673 671 674 -1,575 584 578 -1,578 584 581 -1,590 587 564 -1,564 587 584 -1,564 584 572 -1,572 584 575 -1,5 4 674 -1,674 4 604 -1,672 483 671 -1,671 483 620 -1,671 620 617 -1,555 636 624 -1,624 636 633 -1,624 633 627 -1,627 633 630 -1,617 614 671 -1,671 614 611 -1,671 611 608 -1,595 592 674 -1,674 592 590 -1,674 590 673 -1,673 590 564 -1,673 564 563 -1,604 601 674 -1,674 601 598 -1,674 598 595 -1,15 14 671 -1,671 14 674 -1,14 7 674 -1,674 7 5 -1,2 15 0 -1,0 15 671 -1,565 570 563 -1,563 570 673 -1,570 569 673 -1,673 569 672 -1,569 558 672 -1,672 558 556 -1,
        ]
    }
}
Shape{
    appearance Appearance {
        material  Material {
            diffuseColor 1.0 1.0 1.0
            specularColor 0.5019607843137255 0.5019607843137255 0.5019607843137255
            ambientIntensity 0.2
            transparency 0
            shininess 0.5
        }
    }
    geometry IndexedFaceSet {
        ccw TRUE
        solid FALSE
        coord DEF co Coordinate {
            point [
                1.3386 -0.5886 0.7874, 1.4370 -0.5886 0.7874, 1.3386 0.5925 0.7874, 1.4370 0.5925 0.7874, 1.3386 -0.5886 0.1969, 0.8071 -0.5886 0.1969, 0.8071 -0.5886 0.0000, 1.4370 -0.5886 0.1969, 1.4303 -0.5886 0.1459, 1.2402 -0.5886 0.0000, 1.2911 -0.5886 0.0067, 1.3386 -0.5886 0.0264, 1.3794 -0.5886 0.0577, 1.4106 -0.5886 0.0984, 1.3386 0.5925 0.1969, 1.4370 0.5925 0.1969, 1.4303 0.5925 0.1459, 1.4106 0.5925 0.0984, 1.3794 0.5925 0.0577, 1.3386 0.5925 0.0264, 0.8071 0.5925 0.0000, 0.8071 0.5925 0.1969, 1.2402 0.5925 0.0000, 1.2911 0.5925 0.0067, 1.2911 0.5925 0.0067
            ]
        }
        coordIndex [
            0 1 2 -1,2 1 3 -1,4 5 6 -1,1 0 7 -1,7 0 4 -1,7 4 8 -1,6 9 4 -1,4 9 10 -1,4 10 11 -1,11 12 4 -1,4 12 13 -1,4 13 8 -1,2 3 14 -1,14 3 15 -1,14 15 16 -1,16 17 14 -1,14 17 18 -1,14 18 19 -1,20 21 22 -1,22 21 14 -1,22 14 23 -1,23 14 19 -1,9 6 22 -1,22 6 20 -1,9 22 23 -1,9 23 10 -1,10 23 19 -1,10 19 11 -1,11 19 18 -1,11 18 12 -1,12 18 17 -1,12 17 13 -1,13 17 16 -1,13 16 8 -1,8 16 15 -1,8 15 7 -1,1 7 3 -1,3 7 15 -1,6 5 20 -1,20 5 21 -1,
        ]
    }
}
Shape{
    appearance Appearance {
        material  Material {
            diffuseColor 0.5019607843137255 0.5019607843137255 0.5019607843137255
            specularColor 0.25098039215686274 0.25098039215686274 0.25098039215686274
            ambientIntensity 0.2
            transparency 0
            shininess 0.5
        }
    }
    geometry IndexedFaceSet {
        ccw TRUE
        solid FALSE
        coord DEF co Coordinate {
            point [
                -1.3386 1.1437 1.0236, -1.3386 -1.1398 1.0236, -1.3359 -1.1398 1.0440, -1.3359 1.1437 1.0440, -1.3280 -1.1398 1.0630, -1.3280 1.1437 1.0630, -1.3155 -1.1398 1.0793, -1.3155 1.1437 1.0793, -1.2992 -1.1398 1.0918, -1.2992 1.1437 1.0918, -1.2802 -1.1398 1.0997, -1.2802 1.1437 1.0997, -1.2598 -1.1398 1.1024, -1.2598 1.1437 1.1024, -1.2767 -1.1706 1.0997, -1.2953 -1.1748 1.0918, -1.3112 -1.1784 1.0793, -1.3234 -1.1812 1.0630, -1.3310 -1.1830 1.0440, -1.3336 -1.1836 1.0236, -1.3312 -1.1905 1.0236, -1.3167 -1.2240 1.0440, -1.3191 -1.2252 1.0236, -1.3113 -1.2376 1.0236, -1.2935 -1.2608 1.0440, -1.2956 -1.2625 1.0236, -1.2628 -1.2916 1.0440, -1.2801 -1.2781 1.0236, -1.2645 -1.2937 1.0236, -1.2260 -1.3147 1.0440, -1.2396 -1.3093 1.0236, -1.2271 -1.3171 1.0236, -1.1925 -1.3293 1.0236, -1.1849 -1.3291 1.0440, -1.1855 -1.3317 1.0236, -1.1417 -1.3366 1.0236, -1.1417 -1.3339 1.0440, -1.3096 -1.2206 1.0630, -1.2874 -1.2559 1.0630, -1.2579 -1.2854 1.0630, -1.2226 -1.3076 1.0630, -1.1832 -1.3214 1.0630, -1.1417 -1.3261 1.0630, -1.2983 -1.2152 1.0793, -1.2776 -1.2481 1.0793, -1.2501 -1.2756 1.0793, -1.2171 -1.2963 1.0793, -1.1804 -1.3092 1.0793, -1.1417 -1.3136 1.0793, -1.2836 -1.2081 1.0918, -1.2649 -1.2380 1.0918, -1.2399 -1.2629 1.0918, -1.2101 -1.2816 1.0918, -1.1768 -1.2933 1.0918, -1.1417 -1.2972 1.0918, -1.2665 -1.1999 1.0997, -1.2500 -1.2261 1.0997, -1.2281 -1.2480 1.0997, -1.2018 -1.2645 1.0997, -1.1725 -1.2748 1.0997, -1.1417 -1.2783 1.0997, -1.2569 -1.1660 1.1024, -1.2481 -1.1910 1.1024, -1.2341 -1.2134 1.1024, -1.2154 -1.2321 1.1024, -1.1930 -1.2462 1.1024, -1.1680 -1.2549 1.1024, -1.1417 -1.2579 1.1024, -1.1417 1.2618 1.1024, -1.1417 1.2822 1.0997, -1.1725 1.2787 1.0997, -1.1417 1.3012 1.0918, -1.1768 1.2972 1.0918, -1.1417 1.3175 1.0793, -1.1804 1.3131 1.0793, -1.1417 1.3300 1.0630, -1.1832 1.3253 1.0630, -1.1417 1.3379 1.0440, -1.1849 1.3330 1.0440, -1.1417 1.3406 1.0236, -1.1855 1.3356 1.0236, -1.1925 1.3332 1.0236, -1.2260 1.3186 1.0440, -1.2271 1.3211 1.0236, -1.2396 1.3132 1.0236, -1.2628 1.2955 1.0440, -1.2645 1.2976 1.0236, -1.2935 1.2648 1.0440, -1.2801 1.2820 1.0236, -1.2956 1.2664 1.0236, -1.3167 1.2279 1.0440, -1.3113 1.2415 1.0236, -1.3191 1.2291 1.0236, -1.3312 1.1944 1.0236, -1.3310 1.1869 1.0440, -1.3336 1.1875 1.0236, -1.2226 1.3116 1.0630, -1.2579 1.2894 1.0630, -1.2874 1.2599 1.0630, -1.3096 1.2245 1.0630, -1.3234 1.1852 1.0630, -1.2171 1.3003 1.0793, -1.2501 1.2796 1.0793, -1.2776 1.2521 1.0793, -1.2983 1.2191 1.0793, -1.3112 1.1824 1.0793, -1.2101 1.2856 1.0918, -1.2399 1.2668 1.0918, -1.2649 1.2419 1.0918, -1.2836 1.2120 1.0918, -1.2953 1.1787 1.0918, -1.2018 1.2685 1.0997, -1.2281 1.2520 1.0997, -1.2500 1.2300 1.0997, -1.2665 1.2038 1.0997, -1.2767 1.1745 1.0997, -1.1680 1.2588 1.1024, -1.1930 1.2501 1.1024, -1.2154 1.2360 1.1024, -1.2341 1.2173 1.1024, -1.2481 1.1949 1.1024, -1.2569 1.1700 1.1024, 1.1417 -1.3366 1.0236, 1.1417 -1.3339 1.0440, 1.1417 -1.3261 1.0630, 1.1417 -1.3136 1.0793, 1.1417 -1.2972 1.0918, 1.1417 -1.2783 1.0997, 1.1417 -1.2579 1.1024, 1.1417 1.3406 1.0236, 1.1417 1.3379 1.0440, 1.1417 1.3300 1.0630, 1.1417 1.3175 1.0793, 1.1417 1.3012 1.0918, 1.1417 1.2822 1.0997, 1.1417 1.2618 1.1024, 1.1725 -1.2748 1.0997, 1.1768 -1.2933 1.0918, 1.1804 -1.3092 1.0793, 1.1832 -1.3214 1.0630, 1.1849 -1.3291 1.0440, 1.1855 -1.3317 1.0236, 1.1925 -1.3293 1.0236, 1.2260 -1.3147 1.0440, 1.2271 -1.3171 1.0236, 1.2396 -1.3093 1.0236, 1.2628 -1.2916 1.0440, 1.2645 -1.2937 1.0236, 1.2935 -1.2608 1.0440, 1.2801 -1.2781 1.0236, 1.2956 -1.2625 1.0236, 1.3167 -1.2240 1.0440, 1.3113 -1.2376 1.0236, 1.3191 -1.2252 1.0236, 1.3312 -1.1905 1.0236, 1.3310 -1.1830 1.0440, 1.3336 -1.1836 1.0236, 1.3386 -1.1398 1.0236, 1.3359 -1.1398 1.0440, 1.2226 -1.3076 1.0630, 1.2579 -1.2854 1.0630, 1.2874 -1.2559 1.0630, 1.3096 -1.2206 1.0630, 1.3234 -1.1812 1.0630, 1.3280 -1.1398 1.0630, 1.2171 -1.2963 1.0793, 1.2501 -1.2756 1.0793, 1.2776 -1.2481 1.0793, 1.2983 -1.2152 1.0793, 1.3112 -1.1784 1.0793, 1.3155 -1.1398 1.0793, 1.2101 -1.2816 1.0918, 1.2399 -1.2629 1.0918, 1.2649 -1.2380 1.0918, 1.2836 -1.2081 1.0918, 1.2953 -1.1748 1.0918, 1.2992 -1.1398 1.0918, 1.2018 -1.2645 1.0997, 1.2281 -1.2480 1.0997, 1.2500 -1.2261 1.0997, 1.2665 -1.1999 1.0997, 1.2767 -1.1706 1.0997, 1.2802 -1.1398 1.0997, 1.1680 -1.2549 1.1024, 1.1930 -1.2462 1.1024, 1.2154 -1.2321 1.1024, 1.2341 -1.2134 1.1024, 1.2481 -1.1910 1.1024, 1.2569 -1.1660 1.1024, 1.2598 -1.1398 1.1024, 1.2598 1.1437 1.1024, 1.2802 1.1437 1.0997, 1.2767 1.1745 1.0997, 1.2992 1.1437 1.0918, 1.2953 1.1787 1.0918, 1.3155 1.1437 1.0793, 1.3112 1.1824 1.0793, 1.3280 1.1437 1.0630, 1.3234 1.1852 1.0630, 1.3359 1.1437 1.0440, 1.3310 1.1869 1.0440, 1.3386 1.1437 1.0236, 1.3336 1.1875 1.0236, 1.3312 1.1944 1.0236, 1.3167 1.2279 1.0440, 1.3191 1.2291 1.0236, 1.3113 1.2415 1.0236, 1.2935 1.2648 1.0440, 1.2956 1.2664 1.0236, 1.2628 1.2955 1.0440, 1.2801 1.2820 1.0236, 1.2645 1.2976 1.0236, 1.2260 1.3186 1.0440, 1.2396 1.3132 1.0236, 1.2271 1.3211 1.0236, 1.1925 1.3332 1.0236, 1.1849 1.3330 1.0440, 1.1855 1.3356 1.0236, 1.3096 1.2245 1.0630, 1.2874 1.2599 1.0630, 1.2579 1.2894 1.0630, 1.2226 1.3116 1.0630, 1.1832 1.3253 1.0630, 1.2983 1.2191 1.0793, 1.2776 1.2521 1.0793, 1.2501 1.2796 1.0793, 1.2171 1.3003 1.0793, 1.1804 1.3131 1.0793, 1.2836 1.2120 1.0918, 1.2649 1.2419 1.0918, 1.2399 1.2668 1.0918, 1.2101 1.2856 1.0918, 1.1768 1.2972 1.0918, 1.2665 1.2038 1.0997, 1.2500 1.2300 1.0997, 1.2281 1.2520 1.0997, 1.2018 1.2685 1.0997, 1.1725 1.2787 1.0997, 1.2569 1.1700 1.1024, 1.2481 1.1949 1.1024, 1.2341 1.2173 1.1024, 1.2154 1.2360 1.1024, 1.1930 1.2501 1.1024, 1.1680 1.2588 1.1024, 1.1680 1.2588 1.1024
            ]
        }
        coordIndex [
            0 1 2 -1,0 2 3 -1,3 2 4 -1,3 4 5 -1,5 4 6 -1,5 6 7 -1,7 6 8 -1,7 8 9 -1,9 8 10 -1,9 10 11 -1,11 10 12 -1,11 12 13 -1,12 10 14 -1,10 8 15 -1,8 6 16 -1,6 4 17 -1,4 2 18 -1,2 1 19 -1,2 19 18 -1,18 19 20 -1,18 20 21 -1,20 22 21 -1,21 22 23 -1,21 23 24 -1,24 23 25 -1,24 25 26 -1,25 27 26 -1,26 27 28 -1,26 28 29 -1,29 28 30 -1,30 31 29 -1,29 31 32 -1,29 32 33 -1,32 34 33 -1,33 34 35 -1,33 35 36 -1,4 18 17 -1,17 18 21 -1,17 21 37 -1,37 21 24 -1,37 24 38 -1,38 24 26 -1,38 26 39 -1,39 26 29 -1,39 29 40 -1,40 29 33 -1,40 33 41 -1,41 33 36 -1,41 36 42 -1,6 17 16 -1,16 17 37 -1,16 37 43 -1,43 37 38 -1,43 38 44 -1,44 38 39 -1,44 39 45 -1,45 39 40 -1,45 40 46 -1,46 40 41 -1,46 41 47 -1,47 41 42 -1,47 42 48 -1,8 16 15 -1,15 16 43 -1,15 43 49 -1,49 43 44 -1,49 44 50 -1,50 44 45 -1,50 45 51 -1,51 45 46 -1,51 46 52 -1,52 46 47 -1,52 47 53 -1,53 47 48 -1,53 48 54 -1,10 15 14 -1,14 15 49 -1,14 49 55 -1,55 49 50 -1,55 50 56 -1,56 50 51 -1,56 51 57 -1,57 51 52 -1,57 52 58 -1,58 52 53 -1,58 53 59 -1,59 53 54 -1,59 54 60 -1,12 14 61 -1,61 14 55 -1,61 55 62 -1,62 55 56 -1,62 56 63 -1,63 56 57 -1,63 57 64 -1,64 57 58 -1,64 58 65 -1,65 58 59 -1,65 59 66 -1,66 59 60 -1,66 60 67 -1,68 69 70 -1,69 71 72 -1,71 73 74 -1,73 75 76 -1,75 77 78 -1,77 79 80 -1,77 80 78 -1,78 80 81 -1,78 81 82 -1,81 83 82 -1,82 83 84 -1,82 84 85 -1,85 84 86 -1,85 86 87 -1,86 88 87 -1,87 88 89 -1,87 89 90 -1,90 89 91 -1,91 92 90 -1,90 92 93 -1,90 93 94 -1,93 95 94 -1,94 95 0 -1,94 0 3 -1,75 78 76 -1,76 78 82 -1,76 82 96 -1,96 82 85 -1,96 85 97 -1,97 85 87 -1,97 87 98 -1,98 87 90 -1,98 90 99 -1,99 90 94 -1,99 94 100 -1,100 94 3 -1,100 3 5 -1,73 76 74 -1,74 76 96 -1,74 96 101 -1,101 96 97 -1,101 97 102 -1,102 97 98 -1,102 98 103 -1,103 98 99 -1,103 99 104 -1,104 99 100 -1,104 100 105 -1,105 100 5 -1,105 5 7 -1,71 74 72 -1,72 74 101 -1,72 101 106 -1,106 101 102 -1,106 102 107 -1,107 102 103 -1,107 103 108 -1,108 103 104 -1,108 104 109 -1,109 104 105 -1,109 105 110 -1,110 105 7 -1,110 7 9 -1,69 72 70 -1,70 72 106 -1,70 106 111 -1,111 106 107 -1,111 107 112 -1,112 107 108 -1,112 108 113 -1,113 108 109 -1,113 109 114 -1,114 109 110 -1,114 110 115 -1,115 110 9 -1,115 9 11 -1,68 70 116 -1,116 70 111 -1,116 111 117 -1,117 111 112 -1,117 112 118 -1,118 112 113 -1,118 113 119 -1,119 113 114 -1,119 114 120 -1,120 114 115 -1,120 115 121 -1,121 115 11 -1,121 11 13 -1,35 122 123 -1,35 123 36 -1,36 123 124 -1,36 124 42 -1,42 124 125 -1,42 125 48 -1,48 125 126 -1,48 126 54 -1,54 126 127 -1,54 127 60 -1,60 127 128 -1,60 128 67 -1,129 79 77 -1,129 77 130 -1,130 77 75 -1,130 75 131 -1,131 75 73 -1,131 73 132 -1,132 73 71 -1,132 71 133 -1,133 71 69 -1,133 69 134 -1,134 69 68 -1,134 68 135 -1,128 127 136 -1,127 126 137 -1,126 125 138 -1,125 124 139 -1,124 123 140 -1,123 122 141 -1,123 141 140 -1,140 141 142 -1,140 142 143 -1,142 144 143 -1,143 144 145 -1,143 145 146 -1,146 145 147 -1,146 147 148 -1,147 149 148 -1,148 149 150 -1,148 150 151 -1,151 150 152 -1,152 153 151 -1,151 153 154 -1,151 154 155 -1,154 156 155 -1,155 156 157 -1,155 157 158 -1,124 140 139 -1,139 140 143 -1,139 143 159 -1,159 143 146 -1,159 146 160 -1,160 146 148 -1,160 148 161 -1,161 148 151 -1,161 151 162 -1,162 151 155 -1,162 155 163 -1,163 155 158 -1,163 158 164 -1,125 139 138 -1,138 139 159 -1,138 159 165 -1,165 159 160 -1,165 160 166 -1,166 160 161 -1,166 161 167 -1,167 161 162 -1,167 162 168 -1,168 162 163 -1,168 163 169 -1,169 163 164 -1,169 164 170 -1,126 138 137 -1,137 138 165 -1,137 165 171 -1,171 165 166 -1,171 166 172 -1,172 166 167 -1,172 167 173 -1,173 167 168 -1,173 168 174 -1,174 168 169 -1,174 169 175 -1,175 169 170 -1,175 170 176 -1,127 137 136 -1,136 137 171 -1,136 171 177 -1,177 171 172 -1,177 172 178 -1,178 172 173 -1,178 173 179 -1,179 173 174 -1,179 174 180 -1,180 174 175 -1,180 175 181 -1,181 175 176 -1,181 176 182 -1,128 136 183 -1,183 136 177 -1,183 177 184 -1,184 177 178 -1,184 178 185 -1,185 178 179 -1,185 179 186 -1,186 179 180 -1,186 180 187 -1,187 180 181 -1,187 181 188 -1,188 181 182 -1,188 182 189 -1,190 191 192 -1,191 193 194 -1,193 195 196 -1,195 197 198 -1,197 199 200 -1,199 201 202 -1,199 202 200 -1,200 202 203 -1,200 203 204 -1,203 205 204 -1,204 205 206 -1,204 206 207 -1,207 206 208 -1,207 208 209 -1,208 210 209 -1,209 210 211 -1,209 211 212 -1,212 211 213 -1,213 214 212 -1,212 214 215 -1,212 215 216 -1,215 217 216 -1,216 217 129 -1,216 129 130 -1,197 200 198 -1,198 200 204 -1,198 204 218 -1,218 204 207 -1,218 207 219 -1,219 207 209 -1,219 209 220 -1,220 209 212 -1,220 212 221 -1,221 212 216 -1,221 216 222 -1,222 216 130 -1,222 130 131 -1,195 198 196 -1,196 198 218 -1,196 218 223 -1,223 218 219 -1,223 219 224 -1,224 219 220 -1,224 220 225 -1,225 220 221 -1,225 221 226 -1,226 221 222 -1,226 222 227 -1,227 222 131 -1,227 131 132 -1,193 196 194 -1,194 196 223 -1,194 223 228 -1,228 223 224 -1,228 224 229 -1,229 224 225 -1,229 225 230 -1,230 225 226 -1,230 226 231 -1,231 226 227 -1,231 227 232 -1,232 227 132 -1,232 132 133 -1,191 194 192 -1,192 194 228 -1,192 228 233 -1,233 228 229 -1,233 229 234 -1,234 229 230 -1,234 230 235 -1,235 230 231 -1,235 231 236 -1,236 231 232 -1,236 232 237 -1,237 232 133 -1,237 133 134 -1,190 192 238 -1,238 192 233 -1,238 233 239 -1,239 233 234 -1,239 234 240 -1,240 234 235 -1,240 235 241 -1,241 235 236 -1,241 236 242 -1,242 236 237 -1,242 237 243 -1,243 237 134 -1,243 134 135 -1,157 201 199 -1,157 199 158 -1,158 199 197 -1,158 197 164 -1,164 197 195 -1,164 195 170 -1,170 195 193 -1,170 193 176 -1,176 193 191 -1,176 191 182 -1,182 191 190 -1,182 190 189 -1,
        ]
    }
}
Shape{
    appearance Appearance {
        material  Material {
            diffuseColor 0.0 0.0 0.0
            specularColor 0.0 0.0 0.0
            ambientIntensity 0.2
            transparency 0
            shininess 0.5
        }
    }
    geometry IndexedFaceSet {
        ccw TRUE
        solid FALSE
        coord DEF co Coordinate {
            point [
                0.0769 -1.3406 0.3887, 0.0769 -1.3406 0.3765, 0.0769 -1.3366 0.3887, 0.0769 -1.3366 0.3765, 0.0344 -1.3406 0.3887, 0.0344 -1.3366 0.3887, 0.0344 -1.3406 0.4833, 0.0344 -1.3366 0.4833, 0.0206 -1.3406 0.4833, 0.0206 -1.3366 0.4833, 0.0206 -1.3406 0.3765, 0.0206 -1.3366 0.3765, 0.1316 -1.3406 0.3747, 0.1316 -1.3366 0.3747, 0.1479 -1.3406 0.3763, 0.1410 -1.3366 0.3756, 0.1479 -1.3366 0.3763, 0.1594 -1.3366 0.3800, 0.1594 -1.3406 0.3800, 0.1612 -1.3366 0.3809, 0.1612 -1.3406 0.3809, 0.1612 -1.3406 0.3941, 0.1612 -1.3366 0.3941, 0.1507 -1.3366 0.3894, 0.1507 -1.3406 0.3894, 0.1387 -1.3366 0.3872, 0.1387 -1.3406 0.3872, 0.1336 -1.3366 0.3870, 0.1336 -1.3406 0.3870, 0.1228 -1.3366 0.3883, 0.1228 -1.3406 0.3883, 0.1152 -1.3366 0.3912, 0.1152 -1.3406 0.3912, 0.1082 -1.3366 0.3962, 0.1082 -1.3406 0.3962, 0.1062 -1.3366 0.3982, 0.1062 -1.3406 0.3982, 0.1010 -1.3366 0.4054, 0.1010 -1.3406 0.4054, 0.0975 -1.3366 0.4140, 0.0975 -1.3406 0.4140, 0.0958 -1.3366 0.4247, 0.0958 -1.3406 0.4247, 0.0957 -1.3366 0.4287, 0.0957 -1.3406 0.4287, 0.0972 -1.3366 0.4422, 0.0972 -1.3406 0.4422, 0.1006 -1.3366 0.4517, 0.1006 -1.3406 0.4517, 0.1056 -1.3366 0.4593, 0.1056 -1.3406 0.4593, 0.1069 -1.3366 0.4608, 0.1069 -1.3406 0.4608, 0.1142 -1.3366 0.4668, 0.1142 -1.3406 0.4668, 0.1226 -1.3366 0.4707, 0.1226 -1.3406 0.4707, 0.1319 -1.3366 0.4725, 0.1319 -1.3406 0.4725, 0.1360 -1.3366 0.4726, 0.1360 -1.3406 0.4726, 0.1492 -1.3366 0.4710, 0.1492 -1.3406 0.4710, 0.1600 -1.3366 0.4669, 0.1600 -1.3406 0.4669, 0.1612 -1.3366 0.4663, 0.1612 -1.3406 0.4663, 0.1612 -1.3406 0.4807, 0.1612 -1.3366 0.4807, 0.1359 -1.3366 0.4851, 0.1359 -1.3406 0.4851, 0.1362 -1.3406 0.4851, 0.1501 -1.3366 0.4839, 0.1501 -1.3406 0.4839, 0.1471 -1.3366 0.4842, 0.1362 -1.3366 0.4851, 0.1286 -1.3366 0.4842, 0.1203 -1.3406 0.4831, 0.1203 -1.3366 0.4831, 0.1091 -1.3366 0.4788, 0.1091 -1.3406 0.4788, 0.0992 -1.3366 0.4717, 0.0992 -1.3406 0.4717, 0.0967 -1.3366 0.4693, 0.0967 -1.3406 0.4693, 0.0889 -1.3366 0.4592, 0.0860 -1.3366 0.4524, 0.0838 -1.3406 0.4474, 0.0889 -1.3406 0.4592, 0.0838 -1.3366 0.4474, 0.0814 -1.3366 0.4334, 0.0814 -1.3406 0.4334, 0.0812 -1.3366 0.4279, 0.0812 -1.3406 0.4279, 0.0830 -1.3366 0.4119, 0.0860 -1.3366 0.4035, 0.0871 -1.3406 0.4005, 0.0830 -1.3406 0.4119, 0.0871 -1.3366 0.4005, 0.0933 -1.3366 0.3912, 0.0933 -1.3406 0.3912, 0.0949 -1.3366 0.3893, 0.0949 -1.3406 0.3893, 0.1136 -1.3366 0.3774, 0.1035 -1.3406 0.3821, 0.1035 -1.3366 0.3821, 0.1223 -1.3366 0.3756, 0.1252 -1.3406 0.3750, 0.1136 -1.3406 0.3774, 0.1252 -1.3366 0.3750, 0.2400 -1.3406 0.3887, 0.2400 -1.3406 0.3765, 0.2400 -1.3366 0.3887, 0.2400 -1.3366 0.3765, 0.1963 -1.3366 0.3887, 0.1963 -1.3406 0.3887, 0.2252 -1.3366 0.3887, 0.1963 -1.3406 0.4246, 0.1963 -1.3366 0.4246, 0.2345 -1.3406 0.4246, 0.2252 -1.3366 0.4246, 0.2345 -1.3366 0.4246, 0.2345 -1.3406 0.4368, 0.2345 -1.3366 0.4368, 0.1963 -1.3366 0.4368, 0.1963 -1.3406 0.4368, 0.2252 -1.3366 0.4368, 0.1963 -1.3406 0.4710, 0.1963 -1.3366 0.4710, 0.2375 -1.3366 0.4710, 0.2375 -1.3406 0.4710, 0.2252 -1.3366 0.4710, 0.2375 -1.3406 0.4833, 0.2375 -1.3366 0.4833, 0.1825 -1.3366 0.4833, 0.1825 -1.3406 0.4833, 0.2252 -1.3366 0.4833, 0.1825 -1.3406 0.3765, 0.1825 -1.3366 0.3765, 0.2252 -1.3366 0.3765, 0.3265 -1.3406 0.4064, 0.3211 -1.3406 0.3998, 0.3309 -1.3406 0.3915, 0.3192 -1.3406 0.3980, 0.3200 -1.3406 0.3836, 0.3121 -1.3406 0.3934, 0.3079 -1.3406 0.3788, 0.3030 -1.3406 0.3901, 0.2895 -1.3406 0.3765, 0.2894 -1.3406 0.3887, 0.2601 -1.3406 0.3765, 0.2739 -1.3406 0.3887, 0.2601 -1.3406 0.4833, 0.2739 -1.3406 0.4710, 0.2906 -1.3406 0.4833, 0.2900 -1.3406 0.4710, 0.3069 -1.3406 0.4815, 0.3038 -1.3406 0.4695, 0.3198 -1.3406 0.4768, 0.3131 -1.3406 0.4661, 0.3309 -1.3406 0.4691, 0.3208 -1.3406 0.4609, 0.3346 -1.3406 0.4656, 0.3244 -1.3406 0.4574, 0.3412 -1.3406 0.4563, 0.3284 -1.3406 0.4512, 0.3452 -1.3406 0.4461, 0.3312 -1.3406 0.4431, 0.3470 -1.3406 0.4312, 0.3326 -1.3406 0.4309, 0.3467 -1.3406 0.4245, 0.3322 -1.3406 0.4241, 0.3442 -1.3406 0.4120, 0.3301 -1.3406 0.4143, 0.3389 -1.3406 0.4009, 0.2895 -1.3366 0.3765, 0.2601 -1.3366 0.3765, 0.3309 -1.3366 0.3915, 0.3079 -1.3366 0.3788, 0.3090 -1.3366 0.3792, 0.3200 -1.3366 0.3836, 0.3389 -1.3366 0.4009, 0.3442 -1.3366 0.4120, 0.3467 -1.3366 0.4245, 0.3470 -1.3366 0.4312, 0.3452 -1.3366 0.4461, 0.3412 -1.3366 0.4563, 0.3346 -1.3366 0.4656, 0.3309 -1.3366 0.4691, 0.3198 -1.3366 0.4768, 0.3090 -1.3366 0.4807, 0.3069 -1.3366 0.4815, 0.2906 -1.3366 0.4833, 0.2601 -1.3366 0.4833, 0.2900 -1.3366 0.4710, 0.2739 -1.3366 0.4710, 0.2739 -1.3366 0.3887, 0.2894 -1.3366 0.3887, 0.3211 -1.3366 0.3998, 0.3192 -1.3366 0.3980, 0.3121 -1.3366 0.3934, 0.3030 -1.3366 0.3901, 0.3326 -1.3366 0.4309, 0.3322 -1.3366 0.4241, 0.3301 -1.3366 0.4143, 0.3265 -1.3366 0.4064, 0.3208 -1.3366 0.4609, 0.3244 -1.3366 0.4574, 0.3284 -1.3366 0.4512, 0.3312 -1.3366 0.4431, 0.3038 -1.3366 0.4695, 0.3131 -1.3366 0.4661, 0.3131 -1.3366 0.4661
            ]
        }
        coordIndex [
            0 1 2 -1,2 1 3 -1,4 0 5 -1,5 0 2 -1,6 4 7 -1,7 4 5 -1,8 6 9 -1,9 6 7 -1,10 8 11 -1,11 8 9 -1,1 10 3 -1,3 10 11 -1,6 8 4 -1,4 8 10 -1,4 10 0 -1,0 10 1 -1,12 13 14 -1,14 13 15 -1,15 16 14 -1,14 16 17 -1,14 17 18 -1,18 17 19 -1,18 19 20 -1,21 20 22 -1,22 20 19 -1,21 22 23 -1,21 23 24 -1,24 23 25 -1,24 25 26 -1,26 25 27 -1,26 27 28 -1,28 27 29 -1,28 29 30 -1,30 29 31 -1,30 31 32 -1,32 31 33 -1,32 33 34 -1,34 33 35 -1,34 35 36 -1,36 35 37 -1,36 37 38 -1,38 37 39 -1,38 39 40 -1,40 39 41 -1,40 41 42 -1,42 41 43 -1,42 43 44 -1,44 43 45 -1,44 45 46 -1,46 45 47 -1,46 47 48 -1,48 47 49 -1,48 49 50 -1,50 49 51 -1,50 51 52 -1,52 51 53 -1,52 53 54 -1,54 53 55 -1,54 55 56 -1,56 55 57 -1,56 57 58 -1,58 57 59 -1,58 59 60 -1,60 59 61 -1,60 61 62 -1,62 61 63 -1,62 63 64 -1,64 63 65 -1,64 65 66 -1,67 66 68 -1,68 66 65 -1,69 70 71 -1,67 68 72 -1,67 72 73 -1,73 72 74 -1,73 74 71 -1,71 74 75 -1,71 75 69 -1,70 69 76 -1,70 76 77 -1,76 78 77 -1,77 78 79 -1,77 79 80 -1,80 79 81 -1,80 81 82 -1,82 81 83 -1,82 83 84 -1,84 83 85 -1,86 87 85 -1,85 87 88 -1,85 88 84 -1,86 89 87 -1,87 89 90 -1,87 90 91 -1,91 90 92 -1,91 92 93 -1,93 92 94 -1,95 96 94 -1,94 96 97 -1,94 97 93 -1,95 98 96 -1,96 98 99 -1,96 99 100 -1,100 99 101 -1,100 101 102 -1,103 104 105 -1,105 104 102 -1,105 102 101 -1,106 107 103 -1,103 107 108 -1,103 108 104 -1,106 109 107 -1,107 109 13 -1,107 13 12 -1,64 66 67 -1,46 48 88 -1,64 67 62 -1,62 67 73 -1,62 73 60 -1,60 73 71 -1,60 71 58 -1,58 71 70 -1,58 70 56 -1,56 70 77 -1,56 77 54 -1,20 21 18 -1,18 21 24 -1,18 24 14 -1,14 24 26 -1,14 26 12 -1,12 26 28 -1,12 28 107 -1,107 28 30 -1,107 30 108 -1,108 30 32 -1,108 32 104 -1,104 32 34 -1,104 34 102 -1,102 34 36 -1,102 36 100 -1,100 36 38 -1,100 38 96 -1,88 48 84 -1,77 80 54 -1,54 80 82 -1,54 82 52 -1,52 82 84 -1,52 84 50 -1,50 84 48 -1,93 44 91 -1,91 44 46 -1,91 46 87 -1,87 46 88 -1,96 38 97 -1,97 38 40 -1,97 40 93 -1,93 40 42 -1,93 42 44 -1,110 111 112 -1,112 111 113 -1,114 115 116 -1,116 115 110 -1,116 110 112 -1,117 115 118 -1,118 115 114 -1,117 118 119 -1,119 118 120 -1,119 120 121 -1,122 119 123 -1,123 119 121 -1,124 125 126 -1,126 125 122 -1,126 122 123 -1,127 125 128 -1,128 125 124 -1,129 130 131 -1,131 130 127 -1,131 127 128 -1,132 130 133 -1,133 130 129 -1,134 135 136 -1,136 135 132 -1,136 132 133 -1,137 135 138 -1,138 135 134 -1,113 111 139 -1,139 111 137 -1,139 137 138 -1,137 111 110 -1,110 115 137 -1,137 115 117 -1,137 117 135 -1,130 132 127 -1,127 132 135 -1,127 135 125 -1,125 135 117 -1,125 117 122 -1,122 117 119 -1,140 141 142 -1,142 141 143 -1,142 143 144 -1,144 143 145 -1,144 145 146 -1,146 145 147 -1,146 147 148 -1,148 147 149 -1,148 149 150 -1,150 149 151 -1,150 151 152 -1,152 151 153 -1,152 153 154 -1,154 153 155 -1,154 155 156 -1,156 155 157 -1,156 157 158 -1,158 157 159 -1,158 159 160 -1,160 159 161 -1,160 161 162 -1,162 161 163 -1,162 163 164 -1,164 163 165 -1,164 165 166 -1,166 165 167 -1,166 167 168 -1,168 167 169 -1,168 169 170 -1,170 169 171 -1,170 171 172 -1,172 171 173 -1,172 173 174 -1,174 173 140 -1,174 140 142 -1,148 150 175 -1,175 150 176 -1,177 142 144 -1,148 175 178 -1,148 178 146 -1,146 178 179 -1,146 179 144 -1,144 179 180 -1,144 180 177 -1,142 177 181 -1,142 181 174 -1,174 181 182 -1,174 182 172 -1,172 182 183 -1,172 183 170 -1,170 183 184 -1,170 184 168 -1,168 184 185 -1,168 185 166 -1,166 185 186 -1,166 186 164 -1,164 186 187 -1,164 187 162 -1,162 187 188 -1,162 188 160 -1,160 188 189 -1,190 156 189 -1,189 156 158 -1,189 158 160 -1,190 191 156 -1,156 191 192 -1,156 192 154 -1,152 154 193 -1,193 154 192 -1,150 152 176 -1,176 152 193 -1,155 153 194 -1,194 153 195 -1,153 151 195 -1,195 151 196 -1,151 149 196 -1,196 149 197 -1,141 198 199 -1,141 199 143 -1,143 199 200 -1,143 200 145 -1,145 200 201 -1,145 201 147 -1,147 201 197 -1,147 197 149 -1,169 202 203 -1,169 203 171 -1,171 203 204 -1,171 204 173 -1,173 204 205 -1,173 205 140 -1,140 205 198 -1,140 198 141 -1,161 206 207 -1,161 207 163 -1,163 207 208 -1,163 208 165 -1,165 208 209 -1,165 209 167 -1,167 209 202 -1,167 202 169 -1,155 194 210 -1,155 210 157 -1,157 210 211 -1,157 211 159 -1,159 211 206 -1,159 206 161 -1,
        ]
    }
}
Shape{
    appearance Appearance {
        material  Material {
            diffuseColor 0.5019607843137255 0.5019607843137255 0.5019607843137255
            specularColor 0.25098039215686274 0.25098039215686274 0.25098039215686274
            ambientIntensity 0.2
            transparency 0
            shininess 0.5
        }
    }
    geometry IndexedFaceSet {
        ccw TRUE
        solid FALSE
        coord DEF co Coordinate {
            point [
                0.2739 -1.3366 0.4710, 0.2739 -1.3366 0.3887, 0.2900 -1.3366 0.4710, 0.2894 -1.3366 0.3887, 0.3030 -1.3366 0.3901, 0.3121 -1.3366 0.3934, 0.3192 -1.3366 0.3980, 0.3211 -1.3366 0.3998, 0.3265 -1.3366 0.4064, 0.3301 -1.3366 0.4143, 0.3322 -1.3366 0.4241, 0.3326 -1.3366 0.4309, 0.3312 -1.3366 0.4431, 0.3284 -1.3366 0.4512, 0.3244 -1.3366 0.4574, 0.3208 -1.3366 0.4609, 0.3038 -1.3366 0.4695, 0.3131 -1.3366 0.4661, 0.3131 -1.3366 0.4661
            ]
        }
        coordIndex [
            0 1 2 -1,2 1 3 -1,2 3 4 -1,4 5 2 -1,2 5 6 -1,2 6 7 -1,7 8 2 -1,2 8 9 -1,2 9 10 -1,10 11 2 -1,2 11 12 -1,2 12 13 -1,13 14 2 -1,2 14 15 -1,2 15 16 -1,16 15 17 -1,
        ]
    }
}
Shape{
    appearance Appearance {
        material  Material {
            diffuseColor 0.0 0.0 0.0
            specularColor 0.0 0.0 0.0
            ambientIntensity 0.2
            transparency 0
            shininess 0.5
        }
    }
    geometry IndexedFaceSet {
        ccw TRUE
        solid FALSE
        coord DEF co Coordinate {
            point [
                0.3828 -1.3406 0.4178, 0.3785 -1.3406 0.4057, 0.4187 -1.3406 0.4178, 0.4229 -1.3406 0.4057, 0.3988 -1.3406 0.4621, 0.3936 -1.3406 0.4833, 0.3530 -1.3406 0.3765, 0.3682 -1.3406 0.3765, 0.3997 -1.3406 0.4653, 0.4005 -1.3406 0.4696, 0.4084 -1.3406 0.4833, 0.4009 -1.3406 0.4696, 0.4017 -1.3406 0.4651, 0.4025 -1.3406 0.4621, 0.4490 -1.3406 0.3765, 0.4338 -1.3406 0.3765, 0.4084 -1.3366 0.4833, 0.4490 -1.3366 0.3765, 0.3936 -1.3366 0.4833, 0.3530 -1.3366 0.3765, 0.3837 -1.3366 0.4573, 0.3682 -1.3366 0.3765, 0.3785 -1.3366 0.4057, 0.4229 -1.3366 0.4057, 0.3837 -1.3366 0.4057, 0.4338 -1.3366 0.3765, 0.3828 -1.3366 0.4178, 0.4187 -1.3366 0.4178, 0.4025 -1.3366 0.4621, 0.4009 -1.3366 0.4696, 0.4017 -1.3366 0.4651, 0.4005 -1.3366 0.4696, 0.3988 -1.3366 0.4621, 0.3997 -1.3366 0.4653, 0.3997 -1.3366 0.4653
            ]
        }
        coordIndex [
            0 1 2 -1,2 1 3 -1,4 5 0 -1,0 5 6 -1,0 6 1 -1,1 6 7 -1,4 8 5 -1,5 8 9 -1,5 9 10 -1,10 9 11 -1,10 11 12 -1,12 13 10 -1,10 13 2 -1,10 2 14 -1,14 2 3 -1,14 3 15 -1,10 14 16 -1,16 14 17 -1,5 10 18 -1,18 10 16 -1,19 6 20 -1,20 6 5 -1,20 5 18 -1,7 6 21 -1,21 6 19 -1,1 7 22 -1,22 7 21 -1,23 3 24 -1,24 3 1 -1,24 1 22 -1,15 3 25 -1,25 3 23 -1,14 15 17 -1,17 15 25 -1,0 2 26 -1,26 2 27 -1,2 13 27 -1,27 13 28 -1,11 29 30 -1,11 30 12 -1,12 30 28 -1,12 28 13 -1,11 9 29 -1,29 9 31 -1,4 32 33 -1,4 33 8 -1,8 33 31 -1,8 31 9 -1,4 0 32 -1,32 0 26 -1,
        ]
    }
}
Shape{
    appearance Appearance {
        material  Material {
            diffuseColor 0.5019607843137255 0.5019607843137255 0.5019607843137255
            specularColor 0.25098039215686274 0.25098039215686274 0.25098039215686274
            ambientIntensity 0.2
            transparency 0
            shininess 0.5
        }
    }
    geometry IndexedFaceSet {
        ccw TRUE
        solid FALSE
        coord DEF co Coordinate {
            point [
                0.4009 -1.3366 0.4696, 0.4005 -1.3366 0.4696, 0.4017 -1.3366 0.4651, 0.3997 -1.3366 0.4653, 0.4025 -1.3366 0.4621, 0.3988 -1.3366 0.4621, 0.4187 -1.3366 0.4178, 0.3828 -1.3366 0.4178, 0.3828 -1.3366 0.4178
            ]
        }
        coordIndex [
            0 1 2 -1,2 1 3 -1,2 3 4 -1,4 3 5 -1,4 5 6 -1,6 5 7 -1,
        ]
    }
}
Shape{
    appearance Appearance {
        material  Material {
            diffuseColor 0.0 0.0 0.0
            specularColor 0.0 0.0 0.0
            ambientIntensity 0.2
            transparency 0
            shininess 0.5
        }
    }
    geometry IndexedFaceSet {
        ccw TRUE
        solid FALSE
        coord DEF co Coordinate {
            point [
                0.0780 -1.3406 0.2193, 0.0780 -1.3406 0.2071, 0.0780 -1.3366 0.2193, 0.0780 -1.3366 0.2071, 0.0344 -1.3406 0.2193, 0.0344 -1.3366 0.2193, 0.0344 -1.3406 0.2552, 0.0344 -1.3366 0.2552, 0.0725 -1.3406 0.2552, 0.0725 -1.3366 0.2552, 0.0725 -1.3406 0.2674, 0.0725 -1.3366 0.2674, 0.0344 -1.3406 0.2674, 0.0344 -1.3366 0.2674, 0.0344 -1.3406 0.3016, 0.0344 -1.3366 0.3016, 0.0756 -1.3406 0.3016, 0.0756 -1.3366 0.3016, 0.0756 -1.3406 0.3139, 0.0756 -1.3366 0.3139, 0.0206 -1.3406 0.3139, 0.0206 -1.3366 0.3139, 0.0206 -1.3406 0.2071, 0.0206 -1.3366 0.2071, 0.1383 -1.3406 0.2189, 0.1387 -1.3406 0.2189, 0.1378 -1.3406 0.2313, 0.1387 -1.3406 0.2373, 0.1521 -1.3406 0.2562, 0.1387 -1.3406 0.2381, 0.1387 -1.3406 0.2454, 0.1387 -1.3406 0.2071, 0.1521 -1.3406 0.2071, 0.1056 -1.3406 0.2231, 0.0954 -1.3406 0.2134, 0.1071 -1.3406 0.2209, 0.0973 -1.3406 0.2113, 0.1082 -1.3406 0.2197, 0.1014 -1.3406 0.2084, 0.1109 -1.3406 0.2179, 0.1064 -1.3406 0.2064, 0.1139 -1.3406 0.2168, 0.1126 -1.3406 0.2054, 0.1184 -1.3406 0.2163, 0.1060 -1.3406 0.2499, 0.1097 -1.3406 0.2397, 0.1129 -1.3406 0.2412, 0.1359 -1.3406 0.2265, 0.1330 -1.3406 0.2225, 0.1352 -1.3406 0.2145, 0.1314 -1.3406 0.2210, 0.1309 -1.3406 0.2103, 0.1276 -1.3406 0.2184, 0.1277 -1.3406 0.2083, 0.1236 -1.3406 0.2169, 0.1224 -1.3406 0.2062, 0.1150 -1.3406 0.2053, 0.1161 -1.3406 0.2524, 0.1208 -1.3406 0.2430, 0.1387 -1.3406 0.2556, 0.0982 -1.3406 0.2780, 0.0982 -1.3406 0.2650, 0.1009 -1.3406 0.2796, 0.1075 -1.3406 0.2709, 0.1108 -1.3406 0.2834, 0.1159 -1.3406 0.2736, 0.1245 -1.3406 0.2851, 0.1232 -1.3406 0.2743, 0.1324 -1.3406 0.2844, 0.1282 -1.3406 0.2737, 0.1381 -1.3406 0.2827, 0.1312 -1.3406 0.2725, 0.1426 -1.3406 0.2802, 0.1335 -1.3406 0.2709, 0.1461 -1.3406 0.2768, 0.1355 -1.3406 0.2687, 0.1489 -1.3406 0.2725, 0.1370 -1.3406 0.2659, 0.1510 -1.3406 0.2665, 0.1383 -1.3406 0.2608, 0.1045 -1.3406 0.2308, 0.0908 -1.3406 0.2291, 0.1044 -1.3406 0.2286, 0.0908 -1.3406 0.2275, 0.1047 -1.3406 0.2256, 0.0914 -1.3406 0.2218, 0.0930 -1.3406 0.2172, 0.1079 -1.3406 0.2383, 0.1003 -1.3406 0.2470, 0.1063 -1.3406 0.2363, 0.0962 -1.3406 0.2435, 0.1051 -1.3406 0.2338, 0.0935 -1.3406 0.2396, 0.0917 -1.3406 0.2349, 0.1245 -1.3366 0.2851, 0.1108 -1.3366 0.2834, 0.1009 -1.3366 0.2796, 0.0982 -1.3366 0.2780, 0.0982 -1.3366 0.2650, 0.1075 -1.3366 0.2709, 0.1159 -1.3366 0.2736, 0.1232 -1.3366 0.2743, 0.1282 -1.3366 0.2737, 0.1312 -1.3366 0.2725, 0.1335 -1.3366 0.2709, 0.1355 -1.3366 0.2687, 0.1370 -1.3366 0.2659, 0.1383 -1.3366 0.2608, 0.1387 -1.3366 0.2556, 0.1161 -1.3366 0.2524, 0.1060 -1.3366 0.2499, 0.1003 -1.3366 0.2470, 0.0962 -1.3366 0.2435, 0.0935 -1.3366 0.2396, 0.0917 -1.3366 0.2349, 0.0908 -1.3366 0.2291, 0.0908 -1.3366 0.2275, 0.0914 -1.3366 0.2218, 0.0930 -1.3366 0.2172, 0.0954 -1.3366 0.2134, 0.0973 -1.3366 0.2113, 0.1150 -1.3366 0.2053, 0.1014 -1.3366 0.2084, 0.1064 -1.3366 0.2064, 0.1075 -1.3366 0.2062, 0.1126 -1.3366 0.2054, 0.1224 -1.3366 0.2062, 0.1224 -1.3366 0.2062, 0.1277 -1.3366 0.2083, 0.1309 -1.3366 0.2103, 0.1352 -1.3366 0.2145, 0.1383 -1.3366 0.2189, 0.1387 -1.3366 0.2189, 0.1387 -1.3366 0.2071, 0.1521 -1.3366 0.2071, 0.1521 -1.3366 0.2562, 0.1510 -1.3366 0.2665, 0.1489 -1.3366 0.2725, 0.1461 -1.3366 0.2768, 0.1426 -1.3366 0.2802, 0.1381 -1.3366 0.2827, 0.1324 -1.3366 0.2844, 0.1079 -1.3366 0.2383, 0.1097 -1.3366 0.2397, 0.1129 -1.3366 0.2412, 0.1208 -1.3366 0.2430, 0.1044 -1.3366 0.2286, 0.1045 -1.3366 0.2308, 0.1051 -1.3366 0.2338, 0.1063 -1.3366 0.2363, 0.1082 -1.3366 0.2197, 0.1071 -1.3366 0.2209, 0.1056 -1.3366 0.2231, 0.1047 -1.3366 0.2256, 0.1184 -1.3366 0.2163, 0.1139 -1.3366 0.2168, 0.1109 -1.3366 0.2179, 0.1330 -1.3366 0.2225, 0.1314 -1.3366 0.2210, 0.1276 -1.3366 0.2184, 0.1236 -1.3366 0.2169, 0.1387 -1.3366 0.2381, 0.1387 -1.3366 0.2373, 0.1378 -1.3366 0.2313, 0.1359 -1.3366 0.2265, 0.1387 -1.3366 0.2454, 0.1387 -1.3366 0.2454
            ]
        }
        coordIndex [
            0 1 2 -1,2 1 3 -1,4 0 5 -1,5 0 2 -1,6 4 7 -1,7 4 5 -1,8 6 9 -1,9 6 7 -1,10 8 11 -1,11 8 9 -1,12 10 13 -1,13 10 11 -1,14 12 15 -1,15 12 13 -1,16 14 17 -1,17 14 15 -1,18 16 19 -1,19 16 17 -1,20 18 21 -1,21 18 19 -1,22 20 23 -1,23 20 21 -1,1 22 3 -1,3 22 23 -1,22 1 0 -1,0 4 22 -1,22 4 6 -1,22 6 20 -1,16 18 14 -1,14 18 20 -1,14 20 12 -1,12 20 6 -1,12 6 10 -1,10 6 8 -1,24 25 26 -1,27 28 29 -1,29 28 30 -1,31 32 25 -1,25 32 28 -1,25 28 26 -1,26 28 27 -1,33 34 35 -1,35 34 36 -1,35 36 37 -1,37 36 38 -1,37 38 39 -1,39 38 40 -1,39 40 41 -1,41 40 42 -1,41 42 43 -1,44 45 46 -1,26 47 24 -1,24 47 48 -1,24 48 49 -1,49 48 50 -1,49 50 51 -1,51 50 52 -1,51 52 53 -1,53 52 54 -1,53 54 55 -1,55 54 43 -1,55 43 56 -1,56 43 42 -1,44 46 57 -1,57 46 58 -1,57 58 59 -1,60 61 62 -1,62 61 63 -1,62 63 64 -1,64 63 65 -1,64 65 66 -1,66 65 67 -1,66 67 68 -1,68 67 69 -1,68 69 70 -1,70 69 71 -1,70 71 72 -1,72 71 73 -1,72 73 74 -1,74 73 75 -1,74 75 76 -1,76 75 77 -1,76 77 78 -1,78 77 79 -1,78 79 28 -1,28 79 59 -1,28 59 30 -1,30 59 58 -1,80 81 82 -1,82 81 83 -1,82 83 84 -1,84 83 85 -1,84 85 33 -1,33 85 86 -1,33 86 34 -1,45 44 87 -1,87 44 88 -1,87 88 89 -1,89 88 90 -1,89 90 91 -1,91 90 92 -1,91 92 80 -1,80 92 93 -1,80 93 81 -1,66 94 95 -1,66 95 64 -1,64 95 96 -1,64 96 62 -1,62 96 97 -1,62 97 60 -1,61 60 98 -1,98 60 97 -1,61 98 99 -1,61 99 63 -1,63 99 100 -1,63 100 65 -1,65 100 101 -1,65 101 67 -1,67 101 102 -1,67 102 69 -1,69 102 103 -1,69 103 71 -1,71 103 104 -1,71 104 73 -1,73 104 105 -1,73 105 75 -1,75 105 106 -1,75 106 77 -1,77 106 107 -1,77 107 79 -1,79 107 108 -1,79 108 59 -1,57 59 109 -1,109 59 108 -1,57 109 110 -1,57 110 44 -1,44 110 111 -1,44 111 88 -1,88 111 112 -1,88 112 90 -1,90 112 113 -1,90 113 92 -1,92 113 114 -1,92 114 93 -1,93 114 115 -1,93 115 81 -1,81 115 116 -1,81 116 83 -1,83 116 117 -1,83 117 85 -1,85 117 118 -1,85 118 86 -1,86 118 119 -1,86 119 34 -1,34 119 120 -1,34 120 36 -1,121 56 42 -1,36 120 122 -1,36 122 38 -1,38 122 123 -1,38 123 40 -1,40 123 124 -1,40 124 42 -1,42 124 125 -1,42 125 121 -1,56 121 126 -1,56 126 55 -1,55 126 127 -1,55 127 53 -1,127 128 53 -1,53 128 129 -1,53 129 51 -1,51 129 130 -1,51 130 49 -1,49 130 131 -1,49 131 24 -1,25 24 132 -1,132 24 131 -1,31 25 133 -1,133 25 132 -1,32 31 134 -1,134 31 133 -1,28 32 135 -1,135 32 134 -1,28 135 136 -1,28 136 78 -1,78 136 137 -1,78 137 76 -1,76 137 138 -1,76 138 74 -1,74 138 139 -1,74 139 72 -1,72 139 140 -1,72 140 70 -1,70 140 141 -1,70 141 68 -1,68 141 94 -1,68 94 66 -1,87 142 143 -1,87 143 45 -1,45 143 144 -1,45 144 46 -1,46 144 145 -1,46 145 58 -1,82 146 147 -1,82 147 80 -1,80 147 148 -1,80 148 91 -1,91 148 149 -1,91 149 89 -1,89 149 142 -1,89 142 87 -1,37 150 151 -1,37 151 35 -1,35 151 152 -1,35 152 33 -1,33 152 153 -1,33 153 84 -1,84 153 146 -1,84 146 82 -1,43 154 155 -1,43 155 41 -1,41 155 156 -1,41 156 39 -1,39 156 150 -1,39 150 37 -1,48 157 158 -1,48 158 50 -1,50 158 159 -1,50 159 52 -1,52 159 160 -1,52 160 54 -1,54 160 154 -1,54 154 43 -1,29 161 162 -1,29 162 27 -1,27 162 163 -1,27 163 26 -1,26 163 164 -1,26 164 47 -1,47 164 157 -1,47 157 48 -1,29 30 161 -1,161 30 165 -1,30 58 165 -1,165 58 145 -1,
        ]
    }
}
Shape{
    appearance Appearance {
        material  Material {
            diffuseColor 0.5019607843137255 0.5019607843137255 0.5019607843137255
            specularColor 0.25098039215686274 0.25098039215686274 0.25098039215686274
            ambientIntensity 0.2
            transparency 0
            shininess 0.5
        }
    }
    geometry IndexedFaceSet {
        ccw TRUE
        solid FALSE
        coord DEF co Coordinate {
            point [
                0.1387 -1.3366 0.2454, 0.1208 -1.3366 0.2430, 0.1387 -1.3366 0.2381, 0.1129 -1.3366 0.2412, 0.1097 -1.3366 0.2397, 0.1079 -1.3366 0.2383, 0.1387 -1.3366 0.2373, 0.1378 -1.3366 0.2313, 0.1063 -1.3366 0.2363, 0.1359 -1.3366 0.2265, 0.1071 -1.3366 0.2209, 0.1082 -1.3366 0.2197, 0.1314 -1.3366 0.2210, 0.1056 -1.3366 0.2231, 0.1276 -1.3366 0.2184, 0.1236 -1.3366 0.2169, 0.1184 -1.3366 0.2163, 0.1051 -1.3366 0.2338, 0.1045 -1.3366 0.2308, 0.1330 -1.3366 0.2225, 0.1044 -1.3366 0.2286, 0.1047 -1.3366 0.2256, 0.1109 -1.3366 0.2179, 0.1139 -1.3366 0.2168, 0.1139 -1.3366 0.2168
            ]
        }
        coordIndex [
            0 1 2 -1,2 1 3 -1,3 4 2 -1,2 4 5 -1,2 5 6 -1,6 5 7 -1,7 5 8 -1,7 8 9 -1,10 11 12 -1,10 12 13 -1,14 12 15 -1,15 12 16 -1,8 17 9 -1,9 17 18 -1,9 18 19 -1,19 18 20 -1,19 20 12 -1,12 20 21 -1,12 21 13 -1,11 22 12 -1,12 22 23 -1,12 23 16 -1,
        ]
    }
}
Shape{
    appearance Appearance {
        material  Material {
            diffuseColor 0.0 0.0 0.0
            specularColor 0.0 0.0 0.0
            ambientIntensity 0.2
            transparency 0
            shininess 0.5
        }
    }
    geometry IndexedFaceSet {
        ccw TRUE
        solid FALSE
        coord DEF co Coordinate {
            point [
                0.1702 -1.3366 0.2236, 0.1702 -1.3406 0.2236, 0.1750 -1.3406 0.2206, 0.1922 -1.3406 0.2162, 0.1922 -1.3366 0.2162, 0.1833 -1.3366 0.2173, 0.1833 -1.3406 0.2173, 0.1764 -1.3366 0.2201, 0.1750 -1.3366 0.2206, 0.1702 -1.3406 0.2098, 0.1702 -1.3366 0.2098, 0.1795 -1.3406 0.2065, 0.1764 -1.3366 0.2076, 0.1909 -1.3366 0.2053, 0.1909 -1.3406 0.2053, 0.1823 -1.3366 0.2062, 0.1795 -1.3366 0.2065, 0.2020 -1.3406 0.2065, 0.1993 -1.3366 0.2062, 0.2020 -1.3366 0.2065, 0.2092 -1.3366 0.2091, 0.2092 -1.3406 0.2091, 0.2131 -1.3366 0.2114, 0.2131 -1.3406 0.2114, 0.2170 -1.3366 0.2148, 0.2170 -1.3406 0.2148, 0.2194 -1.3366 0.2184, 0.2194 -1.3406 0.2184, 0.2211 -1.3366 0.2226, 0.2211 -1.3406 0.2226, 0.2217 -1.3366 0.2279, 0.2217 -1.3406 0.2279, 0.2211 -1.3366 0.2330, 0.2211 -1.3406 0.2330, 0.2196 -1.3366 0.2369, 0.2196 -1.3406 0.2369, 0.2172 -1.3366 0.2405, 0.2172 -1.3406 0.2405, 0.2140 -1.3366 0.2433, 0.2140 -1.3406 0.2433, 0.2051 -1.3366 0.2483, 0.2051 -1.3406 0.2483, 0.2000 -1.3366 0.2504, 0.2000 -1.3406 0.2504, 0.1917 -1.3366 0.2540, 0.1917 -1.3406 0.2540, 0.1870 -1.3366 0.2569, 0.1870 -1.3406 0.2569, 0.1857 -1.3366 0.2583, 0.1857 -1.3406 0.2583, 0.1847 -1.3366 0.2602, 0.1847 -1.3406 0.2602, 0.1842 -1.3366 0.2622, 0.1842 -1.3406 0.2622, 0.1840 -1.3366 0.2640, 0.1840 -1.3406 0.2640, 0.1843 -1.3366 0.2661, 0.1843 -1.3406 0.2661, 0.1849 -1.3366 0.2679, 0.1849 -1.3406 0.2679, 0.1861 -1.3366 0.2696, 0.1861 -1.3406 0.2696, 0.1881 -1.3366 0.2714, 0.1881 -1.3406 0.2714, 0.1911 -1.3366 0.2730, 0.1911 -1.3406 0.2730, 0.1947 -1.3366 0.2740, 0.1947 -1.3406 0.2740, 0.1986 -1.3366 0.2743, 0.1986 -1.3406 0.2743, 0.2080 -1.3366 0.2731, 0.2080 -1.3406 0.2731, 0.2156 -1.3366 0.2702, 0.2156 -1.3406 0.2702, 0.2180 -1.3366 0.2688, 0.2180 -1.3406 0.2688, 0.2180 -1.3406 0.2817, 0.2180 -1.3366 0.2817, 0.2093 -1.3366 0.2843, 0.2093 -1.3406 0.2843, 0.2000 -1.3366 0.2851, 0.2000 -1.3406 0.2851, 0.1892 -1.3366 0.2838, 0.1892 -1.3406 0.2838, 0.1820 -1.3366 0.2810, 0.1820 -1.3406 0.2810, 0.1788 -1.3366 0.2791, 0.1788 -1.3406 0.2791, 0.1764 -1.3366 0.2768, 0.1748 -1.3406 0.2755, 0.1748 -1.3366 0.2755, 0.1724 -1.3366 0.2719, 0.1724 -1.3406 0.2719, 0.1708 -1.3366 0.2676, 0.1708 -1.3406 0.2676, 0.1703 -1.3366 0.2628, 0.1703 -1.3406 0.2628, 0.1709 -1.3366 0.2575, 0.1709 -1.3406 0.2575, 0.1723 -1.3366 0.2535, 0.1723 -1.3406 0.2535, 0.1741 -1.3366 0.2507, 0.1741 -1.3406 0.2507, 0.1905 -1.3366 0.2406, 0.1905 -1.3406 0.2406, 0.1825 -1.3406 0.2443, 0.1762 -1.3366 0.2485, 0.1762 -1.3406 0.2485, 0.1764 -1.3366 0.2484, 0.1825 -1.3366 0.2443, 0.1993 -1.3366 0.2370, 0.1993 -1.3406 0.2370, 0.2045 -1.3366 0.2338, 0.2045 -1.3406 0.2338, 0.2062 -1.3366 0.2321, 0.2062 -1.3406 0.2321, 0.2072 -1.3366 0.2303, 0.2072 -1.3406 0.2303, 0.2078 -1.3366 0.2282, 0.2078 -1.3406 0.2282, 0.2079 -1.3366 0.2266, 0.2079 -1.3406 0.2266, 0.2077 -1.3366 0.2240, 0.2077 -1.3406 0.2240, 0.2070 -1.3366 0.2221, 0.2070 -1.3406 0.2221, 0.2058 -1.3366 0.2204, 0.2058 -1.3406 0.2204, 0.2043 -1.3366 0.2190, 0.2043 -1.3406 0.2190, 0.2031 -1.3366 0.2183, 0.2031 -1.3406 0.2183, 0.1996 -1.3366 0.2170, 0.1996 -1.3406 0.2170, 0.1928 -1.3366 0.2163, 0.1928 -1.3406 0.2163, 0.2880 -1.3406 0.2834, 0.3018 -1.3406 0.2834, 0.2880 -1.3366 0.2834, 0.3018 -1.3366 0.2834, 0.2671 -1.3406 0.2260, 0.2671 -1.3366 0.2260, 0.2661 -1.3366 0.2224, 0.2661 -1.3406 0.2224, 0.2655 -1.3366 0.2198, 0.2655 -1.3406 0.2198, 0.2651 -1.3406 0.2198, 0.2651 -1.3366 0.2198, 0.2635 -1.3406 0.2261, 0.2635 -1.3366 0.2261, 0.2436 -1.3366 0.2834, 0.2436 -1.3406 0.2834, 0.2500 -1.3366 0.2648, 0.2286 -1.3406 0.2834, 0.2286 -1.3366 0.2834, 0.2585 -1.3366 0.2073, 0.2585 -1.3406 0.2073, 0.2500 -1.3366 0.2289, 0.2527 -1.3366 0.1934, 0.2527 -1.3406 0.1934, 0.2581 -1.3366 0.2062, 0.2500 -1.3366 0.1887, 0.2499 -1.3406 0.1885, 0.2499 -1.3366 0.1885, 0.2475 -1.3366 0.1857, 0.2475 -1.3406 0.1857, 0.2455 -1.3366 0.1844, 0.2455 -1.3406 0.1844, 0.2426 -1.3366 0.1832, 0.2426 -1.3406 0.1832, 0.2394 -1.3366 0.1827, 0.2394 -1.3406 0.1827, 0.2390 -1.3366 0.1827, 0.2390 -1.3406 0.1827, 0.2343 -1.3366 0.1833, 0.2343 -1.3406 0.1833, 0.2314 -1.3366 0.1842, 0.2314 -1.3406 0.1842, 0.2314 -1.3406 0.1723, 0.2314 -1.3366 0.1723, 0.2353 -1.3366 0.1715, 0.2353 -1.3406 0.1715, 0.2400 -1.3366 0.1712, 0.2400 -1.3406 0.1712, 0.2453 -1.3366 0.1718, 0.2453 -1.3406 0.1718, 0.2500 -1.3366 0.1736, 0.2506 -1.3406 0.1738, 0.2506 -1.3366 0.1738, 0.2552 -1.3366 0.1770, 0.2552 -1.3406 0.1770, 0.2566 -1.3366 0.1783, 0.2566 -1.3406 0.1783, 0.2615 -1.3366 0.1843, 0.2615 -1.3406 0.1843, 0.2672 -1.3366 0.1956, 0.2672 -1.3406 0.1956, 0.2714 -1.3366 0.2062, 0.3737 -1.3406 0.2193, 0.3737 -1.3406 0.2071, 0.3737 -1.3366 0.2193, 0.3737 -1.3366 0.2071, 0.3300 -1.3366 0.2193, 0.3300 -1.3406 0.2193, 0.3500 -1.3366 0.2193, 0.3300 -1.3406 0.2552, 0.3300 -1.3366 0.2552, 0.3682 -1.3366 0.2552, 0.3682 -1.3406 0.2552, 0.3500 -1.3366 0.2552, 0.3682 -1.3406 0.2674, 0.3682 -1.3366 0.2674, 0.3300 -1.3366 0.2674, 0.3300 -1.3406 0.2674, 0.3500 -1.3366 0.2674, 0.3300 -1.3406 0.3016, 0.3300 -1.3366 0.3016, 0.3712 -1.3366 0.3016, 0.3712 -1.3406 0.3016, 0.3500 -1.3366 0.3016, 0.3712 -1.3406 0.3139, 0.3712 -1.3366 0.3139, 0.3162 -1.3366 0.3139, 0.3162 -1.3406 0.3139, 0.3500 -1.3366 0.3139, 0.3162 -1.3406 0.2071, 0.3162 -1.3366 0.2071, 0.3500 -1.3366 0.2071, 0.4602 -1.3406 0.2370, 0.4548 -1.3406 0.2304, 0.4646 -1.3406 0.2221, 0.4529 -1.3406 0.2287, 0.4537 -1.3406 0.2142, 0.4458 -1.3406 0.2240, 0.4416 -1.3406 0.2094, 0.4367 -1.3406 0.2208, 0.4232 -1.3406 0.2071, 0.4231 -1.3406 0.2193, 0.3938 -1.3406 0.2071, 0.4076 -1.3406 0.2193, 0.3938 -1.3406 0.3139, 0.4076 -1.3406 0.3016, 0.4243 -1.3406 0.3139, 0.4237 -1.3406 0.3016, 0.4406 -1.3406 0.3121, 0.4375 -1.3406 0.3001, 0.4535 -1.3406 0.3074, 0.4467 -1.3406 0.2968, 0.4646 -1.3406 0.2998, 0.4545 -1.3406 0.2916, 0.4683 -1.3406 0.2962, 0.4581 -1.3406 0.2880, 0.4749 -1.3406 0.2869, 0.4621 -1.3406 0.2819, 0.4789 -1.3406 0.2768, 0.4649 -1.3406 0.2738, 0.4807 -1.3406 0.2619, 0.4662 -1.3406 0.2615, 0.4804 -1.3406 0.2551, 0.4659 -1.3406 0.2547, 0.4778 -1.3406 0.2426, 0.4638 -1.3406 0.2450, 0.4726 -1.3406 0.2316, 0.4232 -1.3366 0.2071, 0.3938 -1.3366 0.2071, 0.4416 -1.3366 0.2094, 0.4537 -1.3366 0.2142, 0.4646 -1.3366 0.2221, 0.4726 -1.3366 0.2316, 0.4778 -1.3366 0.2426, 0.4804 -1.3366 0.2551, 0.4807 -1.3366 0.2619, 0.4789 -1.3366 0.2768, 0.4749 -1.3366 0.2869, 0.4683 -1.3366 0.2962, 0.4646 -1.3366 0.2998, 0.4535 -1.3366 0.3074, 0.4406 -1.3366 0.3121, 0.4243 -1.3366 0.3139, 0.3938 -1.3366 0.3139, 0.4237 -1.3366 0.3016, 0.4076 -1.3366 0.3016, 0.4076 -1.3366 0.2193, 0.4231 -1.3366 0.2193, 0.4548 -1.3366 0.2304, 0.4529 -1.3366 0.2287, 0.4458 -1.3366 0.2240, 0.4367 -1.3366 0.2208, 0.4662 -1.3366 0.2615, 0.4659 -1.3366 0.2547, 0.4638 -1.3366 0.2450, 0.4602 -1.3366 0.2370, 0.4545 -1.3366 0.2916, 0.4581 -1.3366 0.2880, 0.4621 -1.3366 0.2819, 0.4649 -1.3366 0.2738, 0.4375 -1.3366 0.3001, 0.4467 -1.3366 0.2968, 0.4467 -1.3366 0.2968
            ]
        }
        coordIndex [
            0 1 2 -1,3 4 5 -1,3 5 6 -1,6 5 7 -1,6 7 2 -1,2 7 8 -1,2 8 0 -1,9 1 10 -1,10 1 0 -1,9 10 11 -1,11 10 12 -1,13 14 15 -1,15 14 11 -1,15 11 16 -1,16 11 12 -1,14 13 17 -1,17 13 18 -1,18 19 17 -1,17 19 20 -1,17 20 21 -1,21 20 22 -1,21 22 23 -1,23 22 24 -1,23 24 25 -1,25 24 26 -1,25 26 27 -1,27 26 28 -1,27 28 29 -1,29 28 30 -1,29 30 31 -1,31 30 32 -1,31 32 33 -1,33 32 34 -1,33 34 35 -1,35 34 36 -1,35 36 37 -1,37 36 38 -1,37 38 39 -1,39 38 40 -1,39 40 41 -1,41 40 42 -1,41 42 43 -1,43 42 44 -1,43 44 45 -1,45 44 46 -1,45 46 47 -1,47 46 48 -1,47 48 49 -1,49 48 50 -1,49 50 51 -1,51 50 52 -1,51 52 53 -1,53 52 54 -1,53 54 55 -1,55 54 56 -1,55 56 57 -1,57 56 58 -1,57 58 59 -1,59 58 60 -1,59 60 61 -1,61 60 62 -1,61 62 63 -1,63 62 64 -1,63 64 65 -1,65 64 66 -1,65 66 67 -1,67 66 68 -1,67 68 69 -1,69 68 70 -1,69 70 71 -1,71 70 72 -1,71 72 73 -1,73 72 74 -1,73 74 75 -1,76 75 77 -1,77 75 74 -1,76 77 78 -1,76 78 79 -1,79 78 80 -1,79 80 81 -1,81 80 82 -1,81 82 83 -1,83 82 84 -1,83 84 85 -1,85 84 86 -1,85 86 87 -1,86 88 87 -1,87 88 89 -1,88 90 89 -1,89 90 91 -1,89 91 92 -1,92 91 93 -1,92 93 94 -1,94 93 95 -1,94 95 96 -1,96 95 97 -1,96 97 98 -1,98 97 99 -1,98 99 100 -1,100 99 101 -1,100 101 102 -1,103 104 105 -1,102 101 106 -1,102 106 107 -1,107 106 108 -1,107 108 105 -1,105 108 109 -1,105 109 103 -1,104 103 110 -1,104 110 111 -1,111 110 112 -1,111 112 113 -1,113 112 114 -1,113 114 115 -1,115 114 116 -1,115 116 117 -1,117 116 118 -1,117 118 119 -1,119 118 120 -1,119 120 121 -1,121 120 122 -1,121 122 123 -1,123 122 124 -1,123 124 125 -1,125 124 126 -1,125 126 127 -1,127 126 128 -1,127 128 129 -1,129 128 130 -1,129 130 131 -1,131 130 132 -1,131 132 133 -1,133 132 134 -1,133 134 135 -1,135 134 4 -1,135 4 3 -1,59 61 87 -1,87 61 85 -1,85 61 63 -1,85 63 83 -1,125 25 27 -1,111 43 104 -1,104 43 45 -1,125 27 123 -1,123 27 29 -1,123 29 121 -1,121 29 31 -1,121 31 119 -1,119 31 33 -1,119 33 117 -1,117 33 35 -1,117 35 115 -1,115 35 37 -1,115 37 113 -1,113 37 39 -1,113 39 111 -1,111 39 41 -1,111 41 43 -1,25 125 23 -1,23 125 127 -1,23 127 21 -1,14 3 11 -1,11 3 6 -1,11 6 9 -1,9 6 2 -1,9 2 1 -1,63 65 83 -1,83 65 67 -1,83 67 81 -1,81 67 69 -1,81 69 79 -1,79 69 71 -1,79 71 76 -1,76 71 73 -1,76 73 75 -1,127 129 21 -1,21 129 131 -1,21 131 17 -1,17 131 133 -1,17 133 14 -1,14 133 135 -1,14 135 3 -1,87 89 59 -1,59 89 92 -1,59 92 57 -1,57 92 94 -1,57 94 55 -1,55 94 96 -1,55 96 53 -1,53 96 98 -1,53 98 51 -1,51 98 100 -1,51 100 49 -1,49 100 102 -1,49 102 47 -1,47 102 107 -1,47 107 45 -1,45 107 105 -1,45 105 104 -1,136 137 138 -1,138 137 139 -1,140 136 141 -1,141 136 138 -1,140 141 142 -1,140 142 143 -1,143 142 144 -1,143 144 145 -1,146 145 147 -1,147 145 144 -1,148 146 149 -1,149 146 147 -1,150 151 152 -1,152 151 148 -1,152 148 149 -1,153 151 154 -1,154 151 150 -1,155 156 157 -1,157 156 153 -1,157 153 154 -1,158 159 160 -1,160 159 156 -1,160 156 155 -1,158 161 159 -1,159 161 162 -1,161 163 162 -1,162 163 164 -1,162 164 165 -1,165 164 166 -1,165 166 167 -1,167 166 168 -1,167 168 169 -1,169 168 170 -1,169 170 171 -1,171 170 172 -1,171 172 173 -1,173 172 174 -1,173 174 175 -1,175 174 176 -1,175 176 177 -1,178 177 179 -1,179 177 176 -1,178 179 180 -1,178 180 181 -1,181 180 182 -1,181 182 183 -1,183 182 184 -1,183 184 185 -1,185 184 186 -1,185 186 187 -1,186 188 187 -1,187 188 189 -1,187 189 190 -1,190 189 191 -1,190 191 192 -1,192 191 193 -1,192 193 194 -1,194 193 195 -1,194 195 196 -1,139 137 197 -1,197 137 196 -1,197 196 195 -1,143 145 196 -1,137 136 196 -1,196 136 140 -1,196 140 143 -1,151 153 148 -1,148 153 156 -1,148 156 146 -1,165 167 187 -1,183 173 181 -1,181 173 175 -1,181 175 178 -1,178 175 177 -1,145 146 196 -1,196 146 156 -1,196 156 194 -1,187 167 185 -1,185 167 169 -1,185 169 183 -1,183 169 171 -1,183 171 173 -1,156 159 194 -1,194 159 162 -1,194 162 192 -1,192 162 165 -1,192 165 190 -1,190 165 187 -1,198 199 200 -1,200 199 201 -1,202 203 204 -1,204 203 198 -1,204 198 200 -1,205 203 206 -1,206 203 202 -1,207 208 209 -1,209 208 205 -1,209 205 206 -1,210 208 211 -1,211 208 207 -1,212 213 214 -1,214 213 210 -1,214 210 211 -1,215 213 216 -1,216 213 212 -1,217 218 219 -1,219 218 215 -1,219 215 216 -1,220 218 221 -1,221 218 217 -1,222 223 224 -1,224 223 220 -1,224 220 221 -1,225 223 226 -1,226 223 222 -1,201 199 227 -1,227 199 225 -1,227 225 226 -1,225 199 198 -1,198 203 225 -1,225 203 205 -1,225 205 223 -1,218 220 215 -1,215 220 223 -1,215 223 213 -1,213 223 205 -1,213 205 210 -1,210 205 208 -1,228 229 230 -1,230 229 231 -1,230 231 232 -1,232 231 233 -1,232 233 234 -1,234 233 235 -1,234 235 236 -1,236 235 237 -1,236 237 238 -1,238 237 239 -1,238 239 240 -1,240 239 241 -1,240 241 242 -1,242 241 243 -1,242 243 244 -1,244 243 245 -1,244 245 246 -1,246 245 247 -1,246 247 248 -1,248 247 249 -1,248 249 250 -1,250 249 251 -1,250 251 252 -1,252 251 253 -1,252 253 254 -1,254 253 255 -1,254 255 256 -1,256 255 257 -1,256 257 258 -1,258 257 259 -1,258 259 260 -1,260 259 261 -1,260 261 262 -1,262 261 228 -1,262 228 230 -1,236 238 263 -1,263 238 264 -1,236 263 265 -1,236 265 234 -1,234 265 266 -1,234 266 232 -1,232 266 267 -1,232 267 230 -1,230 267 268 -1,230 268 262 -1,262 268 269 -1,262 269 260 -1,260 269 270 -1,260 270 258 -1,258 270 271 -1,258 271 256 -1,256 271 272 -1,256 272 254 -1,254 272 273 -1,254 273 252 -1,252 273 274 -1,252 274 250 -1,250 274 275 -1,250 275 248 -1,248 275 276 -1,248 276 246 -1,246 276 277 -1,246 277 244 -1,244 277 278 -1,244 278 242 -1,240 242 279 -1,279 242 278 -1,238 240 264 -1,264 240 279 -1,243 241 280 -1,280 241 281 -1,241 239 281 -1,281 239 282 -1,239 237 282 -1,282 237 283 -1,229 284 285 -1,229 285 231 -1,231 285 286 -1,231 286 233 -1,233 286 287 -1,233 287 235 -1,235 287 283 -1,235 283 237 -1,257 288 289 -1,257 289 259 -1,259 289 290 -1,259 290 261 -1,261 290 291 -1,261 291 228 -1,228 291 284 -1,228 284 229 -1,249 292 293 -1,249 293 251 -1,251 293 294 -1,251 294 253 -1,253 294 295 -1,253 295 255 -1,255 295 288 -1,255 288 257 -1,243 280 296 -1,243 296 245 -1,245 296 297 -1,245 297 247 -1,247 297 292 -1,247 292 249 -1,
        ]
    }
}
Shape{
    appearance Appearance {
        material  Material {
            diffuseColor 0.5019607843137255 0.5019607843137255 0.5019607843137255
            specularColor 0.25098039215686274 0.25098039215686274 0.25098039215686274
            ambientIntensity 0.2
            transparency 0
            shininess 0.5
        }
    }
    geometry IndexedFaceSet {
        ccw TRUE
        solid FALSE
        coord DEF co Coordinate {
            point [
                0.4076 -1.3366 0.3016, 0.4076 -1.3366 0.2193, 0.4237 -1.3366 0.3016, 0.4231 -1.3366 0.2193, 0.4367 -1.3366 0.2208, 0.4458 -1.3366 0.2240, 0.4529 -1.3366 0.2287, 0.4548 -1.3366 0.2304, 0.4602 -1.3366 0.2370, 0.4638 -1.3366 0.2450, 0.4659 -1.3366 0.2547, 0.4662 -1.3366 0.2615, 0.4649 -1.3366 0.2738, 0.4621 -1.3366 0.2819, 0.4581 -1.3366 0.2880, 0.4545 -1.3366 0.2916, 0.4375 -1.3366 0.3001, 0.4467 -1.3366 0.2968, 0.4467 -1.3366 0.2968
            ]
        }
        coordIndex [
            0 1 2 -1,2 1 3 -1,2 3 4 -1,4 5 2 -1,2 5 6 -1,2 6 7 -1,7 8 2 -1,2 8 9 -1,2 9 10 -1,10 11 2 -1,2 11 12 -1,2 12 13 -1,13 14 2 -1,2 14 15 -1,2 15 16 -1,16 15 17 -1,
        ]
    }
}
Shape{
    appearance Appearance {
        material  Material {
            diffuseColor 0.0 0.0 0.0
            specularColor 0.0 0.0 0.0
            ambientIntensity 0.2
            transparency 0
            shininess 0.5
        }
    }
    geometry IndexedFaceSet {
        ccw TRUE
        solid FALSE
        coord DEF co Coordinate {
            point [
                0.5165 -1.3406 0.2484, 0.5122 -1.3406 0.2363, 0.5523 -1.3406 0.2484, 0.5566 -1.3406 0.2363, 0.5325 -1.3406 0.2928, 0.5273 -1.3406 0.3139, 0.4867 -1.3406 0.2071, 0.5019 -1.3406 0.2071, 0.5334 -1.3406 0.2960, 0.5342 -1.3406 0.3002, 0.5421 -1.3406 0.3139, 0.5346 -1.3406 0.3002, 0.5354 -1.3406 0.2957, 0.5362 -1.3406 0.2928, 0.5827 -1.3406 0.2071, 0.5675 -1.3406 0.2071, 0.5421 -1.3366 0.3139, 0.5827 -1.3366 0.2071, 0.5273 -1.3366 0.3139, 0.4867 -1.3366 0.2071, 0.5019 -1.3366 0.2071, 0.5122 -1.3366 0.2363, 0.5566 -1.3366 0.2363, 0.5675 -1.3366 0.2071, 0.5165 -1.3366 0.2484, 0.5523 -1.3366 0.2484, 0.5362 -1.3366 0.2928, 0.5346 -1.3366 0.3002, 0.5354 -1.3366 0.2957, 0.5342 -1.3366 0.3002, 0.5325 -1.3366 0.2928, 0.5334 -1.3366 0.2960, 0.5334 -1.3366 0.2960
            ]
        }
        coordIndex [
            0 1 2 -1,2 1 3 -1,4 5 0 -1,0 5 6 -1,0 6 1 -1,1 6 7 -1,4 8 5 -1,5 8 9 -1,5 9 10 -1,10 9 11 -1,10 11 12 -1,12 13 10 -1,10 13 2 -1,10 2 14 -1,14 2 3 -1,14 3 15 -1,10 14 16 -1,16 14 17 -1,5 10 18 -1,18 10 16 -1,6 5 19 -1,19 5 18 -1,7 6 20 -1,20 6 19 -1,1 7 21 -1,21 7 20 -1,3 1 22 -1,22 1 21 -1,15 3 23 -1,23 3 22 -1,14 15 17 -1,17 15 23 -1,0 2 24 -1,24 2 25 -1,2 13 25 -1,25 13 26 -1,11 27 28 -1,11 28 12 -1,12 28 26 -1,12 26 13 -1,11 9 27 -1,27 9 29 -1,4 30 31 -1,4 31 8 -1,8 31 29 -1,8 29 9 -1,4 0 30 -1,30 0 24 -1,
        ]
    }
}
Shape{
    appearance Appearance {
        material  Material {
            diffuseColor 0.5019607843137255 0.5019607843137255 0.5019607843137255
            specularColor 0.25098039215686274 0.25098039215686274 0.25098039215686274
            ambientIntensity 0.2
            transparency 0
            shininess 0.5
        }
    }
    geometry IndexedFaceSet {
        ccw TRUE
        solid FALSE
        coord DEF co Coordinate {
            point [
                0.5346 -1.3366 0.3002, 0.5342 -1.3366 0.3002, 0.5354 -1.3366 0.2957, 0.5334 -1.3366 0.2960, 0.5362 -1.3366 0.2928, 0.5325 -1.3366 0.2928, 0.5523 -1.3366 0.2484, 0.5165 -1.3366 0.2484, 0.5165 -1.3366 0.2484
            ]
        }
        coordIndex [
            0 1 2 -1,2 1 3 -1,2 3 4 -1,4 3 5 -1,4 5 6 -1,6 5 7 -1,
        ]
    }
}
Shape{
    appearance Appearance {
        material  Material {
            diffuseColor 0.0 0.0 0.0
            specularColor 0.0 0.0 0.0
            ambientIntensity 0.2
            transparency 0
            shininess 0.5
        }
    }
    geometry IndexedFaceSet {
        ccw TRUE
        solid FALSE
        coord DEF co Coordinate {
            point [
                -0.4510 -1.3406 0.1920, -0.4397 -1.3406 0.1781, -0.4578 -1.3406 0.2591, -0.4708 -1.3406 0.3911, -0.4539 -1.3406 0.4001, -0.4582 -1.3406 0.4467, -0.3242 -1.3406 0.1892, -0.3153 -1.3406 0.2061, -0.3109 -1.3406 0.2249, -0.4282 -1.3406 0.4504, -0.2042 -1.3406 0.2963, -0.2278 -1.3406 0.3366, -0.3105 -1.3406 0.2402, -0.3295 -1.3406 0.2834, -0.3105 -1.3406 0.2326, -0.3512 -1.3406 0.1654, -0.3360 -1.3406 0.1759, -0.4071 -1.3406 0.2099, -0.4011 -1.3406 0.2057, -0.4248 -1.3406 0.1669, -0.3941 -1.3406 0.2030, -0.3600 -1.3406 0.2435, -0.3580 -1.3406 0.2366, -0.3577 -1.3406 0.2292, -0.3593 -1.3406 0.2219, -0.3627 -1.3406 0.2153, -0.4107 -1.3406 0.4489, -0.3872 -1.3406 0.3935, -0.3776 -1.3406 0.4142, -0.4743 -1.3406 0.2693, -0.4682 -1.3406 0.2112, -0.4585 -1.3406 0.2083, -0.3952 -1.3406 0.4670, -0.3614 -1.3406 0.4351, -0.3773 -1.3406 0.4823, -0.3406 -1.3406 0.4513, -0.3589 -1.3406 0.4937, -0.4351 -1.3406 0.4045, -0.4274 -1.3406 0.4049, -0.4194 -1.3406 0.4499, -0.4099 -1.3406 0.4027, -0.3928 -1.3406 0.3966, -0.4166 -1.3406 0.2288, -0.4150 -1.3406 0.2218, -0.4119 -1.3406 0.2155, -0.4073 -1.3406 0.1595, -0.3894 -1.3406 0.1567, -0.3872 -1.3406 0.2022, -0.3864 -1.3406 0.1567, -0.3799 -1.3406 0.2031, -0.3681 -1.3406 0.1589, -0.3733 -1.3406 0.2057, -0.3675 -1.3406 0.2097, -0.1792 -1.3406 0.3715, -0.1731 -1.3406 0.3715, -0.1420 -1.3406 0.4125, -0.1587 -1.3406 0.3697, -0.1353 -1.3406 0.4101, -0.1455 -1.3406 0.3646, -0.1130 -1.3406 0.3982, -0.1337 -1.3406 0.3564, -0.0930 -1.3406 0.3803, -0.1248 -1.3406 0.3465, -0.0782 -1.3406 0.3582, -0.1178 -1.3406 0.3334, -0.0696 -1.3406 0.3349, -0.1143 -1.3406 0.3188, -0.0669 -1.3406 0.3130, -0.1139 -1.3406 0.3123, -0.0670 -1.3406 0.3074, -0.1157 -1.3406 0.2975, -0.2110 -1.3406 0.2070, -0.2088 -1.3406 0.2068, -0.2027 -1.3406 0.2531, -0.3239 -1.3406 0.5073, -0.3161 -1.3406 0.4620, -0.2862 -1.3406 0.5119, -0.5011 -1.3406 0.3473, -0.5509 -1.3406 0.3345, -0.5033 -1.3406 0.3290, -0.5511 -1.3406 0.3275, -0.5024 -1.3406 0.3175, -0.5474 -1.3406 0.2975, -0.4970 -1.3406 0.2989, -0.5365 -1.3406 0.2693, -0.4879 -1.3406 0.2833, -0.5193 -1.3406 0.2447, -0.4957 -1.3406 0.2246, -0.1686 -1.3406 0.2531, -0.1640 -1.3406 0.2068, -0.1551 -1.3406 0.2556, -0.1419 -1.3406 0.2111, -0.1417 -1.3406 0.2618, -0.1185 -1.3406 0.2216, -0.1304 -1.3406 0.2710, -0.0983 -1.3406 0.2374, -0.1293 -1.3406 0.2722, -0.0949 -1.3406 0.2409, -0.1210 -1.3406 0.2840, -0.0816 -1.3406 0.2590, -0.0713 -1.3406 0.2826, -0.1830 -1.3406 0.4724, -0.2051 -1.3406 0.4297, -0.1581 -1.3406 0.4437, -0.1900 -1.3406 0.4074, -0.1809 -1.3406 0.3818, -0.4863 -1.3406 0.4358, -0.5104 -1.3406 0.4188, -0.4841 -1.3406 0.3793, -0.5155 -1.3406 0.4140, -0.4946 -1.3406 0.3642, -0.5338 -1.3406 0.3904, -0.5459 -1.3406 0.3631, -0.4165 -1.3406 0.2362, -0.4144 -1.3406 0.2434, -0.4493 -1.3406 0.2755, -0.4107 -1.3406 0.2498, -0.4368 -1.3406 0.2899, -0.4070 -1.3406 0.2538, -0.4213 -1.3406 0.3006, -0.4010 -1.3406 0.2580, -0.4045 -1.3406 0.3070, -0.3944 -1.3406 0.2605, -0.3864 -1.3406 0.3092, -0.3872 -1.3406 0.2614, -0.3771 -1.3406 0.3087, -0.3821 -1.3406 0.2610, -0.3588 -1.3406 0.3041, -0.3749 -1.3406 0.2587, -0.3427 -1.3406 0.2955, -0.3686 -1.3406 0.2548, -0.3635 -1.3406 0.2496, -0.2909 -1.3406 0.4662, -0.2855 -1.3406 0.4664, -0.2549 -1.3406 0.5086, -0.2632 -1.3406 0.4640, -0.2168 -1.3406 0.4952, -0.2391 -1.3406 0.4557, -0.2174 -1.3406 0.4417, -0.2303 -1.3406 0.2253, -0.2284 -1.3406 0.2201, -0.2065 -1.3406 0.2538, -0.2253 -1.3406 0.2153, -0.2214 -1.3406 0.2115, -0.2043 -1.3406 0.2533, -0.2161 -1.3406 0.2085, -0.2308 -1.3406 0.2303, -0.2073 -1.3406 0.2538, -0.2307 -1.3406 0.2329, -0.2124 -1.3406 0.2533, -0.2177 -1.3406 0.2514, -0.2224 -1.3406 0.2483, -0.2264 -1.3406 0.2439, -0.2293 -1.3406 0.2387, -0.0899 -1.3366 0.3756, -0.0782 -1.3366 0.3582, -0.0730 -1.3366 0.3443, -0.0696 -1.3366 0.3349, -0.0669 -1.3366 0.3130, -0.0930 -1.3366 0.3803, -0.1130 -1.3366 0.3982, -0.1353 -1.3366 0.4101, -0.1420 -1.3366 0.4125, -0.1581 -1.3366 0.4437, -0.1830 -1.3366 0.4724, -0.2004 -1.3366 0.4842, -0.2168 -1.3366 0.4952, -0.2549 -1.3366 0.5086, -0.2862 -1.3366 0.5119, -0.3239 -1.3366 0.5073, -0.3589 -1.3366 0.4937, -0.3743 -1.3366 0.4842, -0.3773 -1.3366 0.4823, -0.3952 -1.3366 0.4670, -0.4107 -1.3366 0.4489, -0.4194 -1.3366 0.4499, -0.4282 -1.3366 0.4504, -0.4582 -1.3366 0.4467, -0.4863 -1.3366 0.4358, -0.5104 -1.3366 0.4188, -0.5155 -1.3366 0.4140, -0.5492 -1.3366 0.3443, -0.5459 -1.3366 0.3631, -0.5404 -1.3366 0.3756, -0.5338 -1.3366 0.3904, -0.5509 -1.3366 0.3345, -0.5511 -1.3366 0.3275, -0.5474 -1.3366 0.2975, -0.5365 -1.3366 0.2693, -0.5193 -1.3366 0.2447, -0.4957 -1.3366 0.2246, -0.4682 -1.3366 0.2112, -0.4585 -1.3366 0.2083, -0.4576 -1.3366 0.2062, -0.4510 -1.3366 0.1920, -0.4397 -1.3366 0.1781, -0.4248 -1.3366 0.1669, -0.4178 -1.3366 0.1639, -0.4073 -1.3366 0.1595, -0.3894 -1.3366 0.1567, -0.3864 -1.3366 0.1567, -0.3105 -1.3366 0.2326, -0.3681 -1.3366 0.1589, -0.3550 -1.3366 0.1639, -0.3512 -1.3366 0.1654, -0.3360 -1.3366 0.1759, -0.3242 -1.3366 0.1892, -0.3153 -1.3366 0.2061, -0.3153 -1.3366 0.2062, -0.3109 -1.3366 0.2249, -0.3105 -1.3366 0.2402, -0.2042 -1.3366 0.2963, -0.2278 -1.3366 0.3366, -0.3295 -1.3366 0.2834, -0.3427 -1.3366 0.2955, -0.3588 -1.3366 0.3041, -0.3771 -1.3366 0.3087, -0.3864 -1.3366 0.3092, -0.4045 -1.3366 0.3070, -0.4213 -1.3366 0.3006, -0.4368 -1.3366 0.2899, -0.4493 -1.3366 0.2755, -0.4578 -1.3366 0.2591, -0.4743 -1.3366 0.2693, -0.4879 -1.3366 0.2833, -0.4970 -1.3366 0.2989, -0.5024 -1.3366 0.3175, -0.5033 -1.3366 0.3290, -0.5014 -1.3366 0.3443, -0.5011 -1.3366 0.3473, -0.4946 -1.3366 0.3642, -0.4867 -1.3366 0.3756, -0.4841 -1.3366 0.3793, -0.4708 -1.3366 0.3911, -0.4539 -1.3366 0.4001, -0.4351 -1.3366 0.4045, -0.4274 -1.3366 0.4049, -0.4099 -1.3366 0.4027, -0.3928 -1.3366 0.3966, -0.3872 -1.3366 0.3935, -0.3776 -1.3366 0.4142, -0.3614 -1.3366 0.4351, -0.3406 -1.3366 0.4513, -0.3161 -1.3366 0.4620, -0.2909 -1.3366 0.4662, -0.2855 -1.3366 0.4664, -0.2632 -1.3366 0.4640, -0.2391 -1.3366 0.4557, -0.2174 -1.3366 0.4417, -0.2051 -1.3366 0.4297, -0.1900 -1.3366 0.4074, -0.1809 -1.3366 0.3818, -0.1799 -1.3366 0.3756, -0.1792 -1.3366 0.3715, -0.1731 -1.3366 0.3715, -0.1587 -1.3366 0.3697, -0.1455 -1.3366 0.3646, -0.1337 -1.3366 0.3564, -0.1248 -1.3366 0.3465, -0.1237 -1.3366 0.3443, -0.1178 -1.3366 0.3334, -0.1143 -1.3366 0.3188, -0.1139 -1.3366 0.3123, -0.1157 -1.3366 0.2975, -0.1210 -1.3366 0.2840, -0.1293 -1.3366 0.2722, -0.1304 -1.3366 0.2710, -0.1417 -1.3366 0.2618, -0.1551 -1.3366 0.2556, -0.1686 -1.3366 0.2531, -0.2027 -1.3366 0.2531, -0.2043 -1.3366 0.2533, -0.2065 -1.3366 0.2538, -0.2073 -1.3366 0.2538, -0.2124 -1.3366 0.2533, -0.2177 -1.3366 0.2514, -0.2224 -1.3366 0.2483, -0.2264 -1.3366 0.2439, -0.2293 -1.3366 0.2387, -0.2307 -1.3366 0.2329, -0.2308 -1.3366 0.2303, -0.2303 -1.3366 0.2253, -0.2284 -1.3366 0.2201, -0.2253 -1.3366 0.2153, -0.2214 -1.3366 0.2115, -0.2161 -1.3366 0.2085, -0.2110 -1.3366 0.2070, -0.2088 -1.3366 0.2068, -0.1640 -1.3366 0.2068, -0.1419 -1.3366 0.2111, -0.1185 -1.3366 0.2216, -0.0983 -1.3366 0.2374, -0.0949 -1.3366 0.2409, -0.0816 -1.3366 0.2590, -0.0713 -1.3366 0.2826, -0.0670 -1.3366 0.3074, -0.3872 -1.3366 0.2614, -0.3821 -1.3366 0.2610, -0.3749 -1.3366 0.2587, -0.3686 -1.3366 0.2548, -0.3635 -1.3366 0.2496, -0.3600 -1.3366 0.2435, -0.3580 -1.3366 0.2366, -0.3577 -1.3366 0.2292, -0.3593 -1.3366 0.2219, -0.3627 -1.3366 0.2153, -0.3675 -1.3366 0.2097, -0.3733 -1.3366 0.2057, -0.3799 -1.3366 0.2031, -0.3872 -1.3366 0.2022, -0.3941 -1.3366 0.2030, -0.4011 -1.3366 0.2057, -0.4071 -1.3366 0.2099, -0.4119 -1.3366 0.2155, -0.4150 -1.3366 0.2218, -0.4166 -1.3366 0.2288, -0.4165 -1.3366 0.2362, -0.4144 -1.3366 0.2434, -0.4107 -1.3366 0.2498, -0.4070 -1.3366 0.2538, -0.4010 -1.3366 0.2580, -0.3944 -1.3366 0.2605, -0.3944 -1.3366 0.2605
            ]
        }
        coordIndex [
            0 1 2 -1,3 4 5 -1,6 7 8 -1,5 4 9 -1,10 11 12 -1,12 11 13 -1,12 13 14 -1,14 13 15 -1,14 15 8 -1,8 15 16 -1,8 16 6 -1,17 1 18 -1,18 1 19 -1,18 19 20 -1,21 22 13 -1,13 22 23 -1,13 23 15 -1,15 23 24 -1,15 24 25 -1,26 27 28 -1,29 30 2 -1,2 30 31 -1,2 31 0 -1,26 28 32 -1,32 28 33 -1,32 33 34 -1,34 33 35 -1,34 35 36 -1,4 37 9 -1,9 37 38 -1,9 38 39 -1,39 38 40 -1,39 40 26 -1,26 40 41 -1,26 41 27 -1,42 2 43 -1,43 2 1 -1,43 1 44 -1,44 1 17 -1,19 45 20 -1,20 45 46 -1,20 46 47 -1,47 46 48 -1,47 48 49 -1,49 48 50 -1,49 50 51 -1,51 50 15 -1,51 15 52 -1,52 15 25 -1,53 54 55 -1,55 54 56 -1,55 56 57 -1,57 56 58 -1,57 58 59 -1,59 58 60 -1,59 60 61 -1,61 60 62 -1,61 62 63 -1,63 62 64 -1,63 64 65 -1,65 64 66 -1,65 66 67 -1,67 66 68 -1,67 68 69 -1,69 68 70 -1,71 72 73 -1,36 35 74 -1,74 35 75 -1,74 75 76 -1,77 78 79 -1,79 78 80 -1,79 80 81 -1,81 80 82 -1,81 82 83 -1,83 82 84 -1,83 84 85 -1,85 84 86 -1,85 86 29 -1,29 86 87 -1,29 87 30 -1,73 72 88 -1,88 72 89 -1,88 89 90 -1,90 89 91 -1,90 91 92 -1,92 91 93 -1,92 93 94 -1,94 93 95 -1,94 95 96 -1,96 95 97 -1,96 97 98 -1,98 97 99 -1,98 99 70 -1,70 99 100 -1,70 100 69 -1,101 102 103 -1,103 102 104 -1,103 104 55 -1,55 104 105 -1,55 105 53 -1,5 106 3 -1,3 106 107 -1,3 107 108 -1,108 107 109 -1,108 109 110 -1,110 109 111 -1,110 111 77 -1,77 111 112 -1,77 112 78 -1,42 113 2 -1,2 113 114 -1,2 114 115 -1,115 114 116 -1,115 116 117 -1,117 116 118 -1,117 118 119 -1,119 118 120 -1,119 120 121 -1,121 120 122 -1,121 122 123 -1,123 122 124 -1,123 124 125 -1,125 124 126 -1,125 126 127 -1,127 126 128 -1,127 128 129 -1,129 128 130 -1,129 130 13 -1,13 130 131 -1,13 131 21 -1,75 132 76 -1,76 132 133 -1,76 133 134 -1,134 133 135 -1,134 135 136 -1,136 135 137 -1,136 137 101 -1,101 137 138 -1,101 138 102 -1,139 140 141 -1,141 140 142 -1,141 142 143 -1,73 144 71 -1,71 144 141 -1,71 141 145 -1,145 141 143 -1,139 141 146 -1,146 141 147 -1,146 147 148 -1,148 147 149 -1,148 149 150 -1,150 151 148 -1,148 151 152 -1,148 152 153 -1,154 61 155 -1,155 61 63 -1,155 63 156 -1,156 63 65 -1,156 65 157 -1,157 65 67 -1,157 67 158 -1,154 159 61 -1,61 159 160 -1,61 160 59 -1,59 160 161 -1,59 161 57 -1,57 161 162 -1,57 162 55 -1,55 162 163 -1,55 163 103 -1,103 163 164 -1,103 164 101 -1,136 101 165 -1,165 101 164 -1,165 166 136 -1,136 166 167 -1,136 167 134 -1,134 167 168 -1,134 168 76 -1,76 168 169 -1,76 169 74 -1,74 169 170 -1,74 170 36 -1,36 170 34 -1,34 170 171 -1,34 171 172 -1,34 172 173 -1,34 173 32 -1,32 173 174 -1,32 174 26 -1,26 174 175 -1,26 175 39 -1,39 175 176 -1,39 176 9 -1,9 176 177 -1,9 177 5 -1,5 177 178 -1,5 178 106 -1,106 178 179 -1,106 179 107 -1,107 179 180 -1,107 180 109 -1,181 78 182 -1,182 78 112 -1,182 112 183 -1,183 112 111 -1,183 111 184 -1,184 111 109 -1,184 109 180 -1,181 185 78 -1,78 185 186 -1,78 186 80 -1,80 186 187 -1,80 187 82 -1,82 187 188 -1,82 188 84 -1,84 188 189 -1,84 189 86 -1,86 189 190 -1,86 190 87 -1,87 190 191 -1,87 191 30 -1,30 191 192 -1,30 192 31 -1,31 192 193 -1,31 193 0 -1,193 194 0 -1,0 194 195 -1,0 195 1 -1,1 195 196 -1,1 196 19 -1,19 196 197 -1,19 197 45 -1,197 198 45 -1,45 198 199 -1,45 199 46 -1,46 199 200 -1,46 200 48 -1,201 14 8 -1,48 200 202 -1,203 15 202 -1,202 15 50 -1,202 50 48 -1,203 204 15 -1,15 204 205 -1,15 205 16 -1,16 205 206 -1,16 206 6 -1,6 206 207 -1,6 207 7 -1,7 207 208 -1,7 208 8 -1,8 208 209 -1,8 209 201 -1,12 14 210 -1,210 14 201 -1,10 12 211 -1,211 12 210 -1,11 10 212 -1,212 10 211 -1,13 11 213 -1,213 11 212 -1,13 213 214 -1,13 214 129 -1,129 214 215 -1,129 215 127 -1,127 215 216 -1,127 216 125 -1,125 216 217 -1,125 217 123 -1,123 217 218 -1,123 218 121 -1,121 218 219 -1,121 219 119 -1,119 219 220 -1,119 220 117 -1,117 220 221 -1,117 221 115 -1,115 221 222 -1,115 222 2 -1,2 222 223 -1,2 223 29 -1,29 223 224 -1,29 224 85 -1,85 224 225 -1,85 225 83 -1,83 225 226 -1,83 226 81 -1,81 226 227 -1,81 227 79 -1,77 79 227 -1,227 228 77 -1,77 228 229 -1,77 229 230 -1,231 108 230 -1,230 108 110 -1,230 110 77 -1,231 232 108 -1,108 232 233 -1,108 233 3 -1,3 233 234 -1,3 234 4 -1,4 234 235 -1,4 235 37 -1,37 235 236 -1,37 236 38 -1,38 236 237 -1,38 237 40 -1,40 237 238 -1,40 238 41 -1,41 238 239 -1,41 239 27 -1,27 239 240 -1,27 240 28 -1,28 240 241 -1,28 241 33 -1,33 241 242 -1,33 242 35 -1,35 242 243 -1,35 243 75 -1,75 243 244 -1,75 244 132 -1,132 244 245 -1,132 245 133 -1,133 245 246 -1,133 246 135 -1,135 246 247 -1,135 247 137 -1,137 247 248 -1,137 248 138 -1,138 248 249 -1,138 249 102 -1,102 249 250 -1,102 250 104 -1,104 250 251 -1,104 251 105 -1,105 251 53 -1,53 251 252 -1,53 252 253 -1,54 53 254 -1,254 53 253 -1,54 254 255 -1,54 255 56 -1,56 255 256 -1,56 256 58 -1,58 256 257 -1,58 257 60 -1,60 257 258 -1,60 258 62 -1,62 258 259 -1,62 259 64 -1,259 260 64 -1,64 260 261 -1,64 261 66 -1,66 261 262 -1,66 262 68 -1,68 262 263 -1,68 263 70 -1,70 263 264 -1,70 264 98 -1,98 264 265 -1,98 265 96 -1,96 265 266 -1,96 266 94 -1,94 266 267 -1,94 267 92 -1,92 267 268 -1,92 268 90 -1,90 268 269 -1,90 269 88 -1,73 88 270 -1,270 88 269 -1,73 270 271 -1,73 271 144 -1,144 271 272 -1,144 272 141 -1,141 272 273 -1,141 273 147 -1,147 273 274 -1,147 274 149 -1,149 274 275 -1,149 275 150 -1,150 275 276 -1,150 276 151 -1,151 276 277 -1,151 277 152 -1,152 277 278 -1,152 278 153 -1,153 278 279 -1,153 279 148 -1,148 279 280 -1,148 280 146 -1,146 280 281 -1,146 281 139 -1,139 281 282 -1,139 282 140 -1,140 282 283 -1,140 283 142 -1,142 283 284 -1,142 284 143 -1,143 284 285 -1,143 285 145 -1,145 285 286 -1,145 286 71 -1,71 286 287 -1,71 287 72 -1,89 72 288 -1,288 72 287 -1,89 288 289 -1,89 289 91 -1,91 289 290 -1,91 290 93 -1,93 290 291 -1,93 291 95 -1,95 291 292 -1,95 292 97 -1,97 292 293 -1,97 293 99 -1,99 293 294 -1,99 294 100 -1,100 294 295 -1,100 295 69 -1,69 295 158 -1,69 158 67 -1,124 296 297 -1,124 297 126 -1,126 297 298 -1,126 298 128 -1,128 298 299 -1,128 299 130 -1,130 299 300 -1,130 300 131 -1,131 300 301 -1,131 301 21 -1,21 301 302 -1,21 302 22 -1,22 302 303 -1,22 303 23 -1,23 303 304 -1,23 304 24 -1,24 304 305 -1,24 305 25 -1,25 305 306 -1,25 306 52 -1,52 306 307 -1,52 307 51 -1,51 307 308 -1,51 308 49 -1,49 308 309 -1,49 309 47 -1,47 309 310 -1,47 310 20 -1,20 310 311 -1,20 311 18 -1,18 311 312 -1,18 312 17 -1,17 312 313 -1,17 313 44 -1,44 313 314 -1,44 314 43 -1,43 314 315 -1,43 315 42 -1,42 315 316 -1,42 316 113 -1,113 316 317 -1,113 317 114 -1,114 317 318 -1,114 318 116 -1,116 318 319 -1,116 319 118 -1,118 319 320 -1,118 320 120 -1,120 320 321 -1,120 321 122 -1,122 321 296 -1,122 296 124 -1,
        ]
    }
}
Shape{
    appearance Appearance {
        material  Material {
            diffuseColor 0.5019607843137255 0.5019607843137255 0.5019607843137255
            specularColor 0.25098039215686274 0.25098039215686274 0.25098039215686274
            ambientIntensity 0.2
            transparency 0
            shininess 0.5
        }
    }
    geometry IndexedFaceSet {
        ccw TRUE
        solid FALSE
        coord DEF co Coordinate {
            point [
                -0.3872 -1.3366 0.2022, -0.4070 -1.3366 0.2538, -0.4107 -1.3366 0.2498, -0.3872 -1.3366 0.2614, -0.3821 -1.3366 0.2610, -0.3799 -1.3366 0.2031, -0.3944 -1.3366 0.2605, -0.4010 -1.3366 0.2580, -0.3675 -1.3366 0.2097, -0.3635 -1.3366 0.2496, -0.3686 -1.3366 0.2548, -0.4150 -1.3366 0.2218, -0.4119 -1.3366 0.2155, -0.4071 -1.3366 0.2099, -0.3733 -1.3366 0.2057, -0.3749 -1.3366 0.2587, -0.4144 -1.3366 0.2434, -0.4165 -1.3366 0.2362, -0.4166 -1.3366 0.2288, -0.4011 -1.3366 0.2057, -0.3941 -1.3366 0.2030, -0.3593 -1.3366 0.2219, -0.3577 -1.3366 0.2292, -0.3627 -1.3366 0.2153, -0.3580 -1.3366 0.2366, -0.3600 -1.3366 0.2435, -0.3600 -1.3366 0.2435
            ]
        }
        coordIndex [
            0 1 2 -1,3 0 4 -1,4 0 5 -1,3 6 0 -1,0 6 7 -1,0 7 1 -1,8 9 10 -1,11 12 2 -1,2 12 13 -1,5 14 4 -1,4 14 8 -1,4 8 15 -1,15 8 10 -1,16 17 2 -1,2 17 18 -1,2 18 11 -1,13 19 2 -1,2 19 20 -1,2 20 0 -1,21 22 23 -1,23 22 24 -1,23 24 8 -1,8 24 25 -1,8 25 9 -1,
        ]
    }
}
Shape{
    appearance Appearance {
        material  Material {
            diffuseColor 1.0 1.0 1.0
            specularColor 0.5019607843137255 0.5019607843137255 0.5019607843137255
            ambientIntensity 0.2
            transparency 0
            shininess 0.5
        }
    }
    geometry IndexedFaceSet {
        ccw TRUE
        solid FALSE
        coord DEF co Coordinate {
            point [
                -1.4370 0.5925 0.7874, -1.4370 -0.5886 0.7874, -1.3386 0.5925 0.7874, -1.3386 -0.5886 0.7874, -1.3386 -0.5886 0.1969, -1.4370 -0.5886 0.1969, -1.4303 -0.5886 0.1459, -1.4106 -0.5886 0.0984, -1.3794 -0.5886 0.0577, -1.3386 -0.5886 0.0264, -0.8071 -0.5886 0.0000, -0.8071 -0.5886 0.1969, -1.2402 -0.5886 0.0000, -1.2911 -0.5886 0.0067, -1.3386 0.5925 0.1969, -0.8071 0.5925 0.1969, -0.8071 0.5925 0.0000, -1.4370 0.5925 0.1969, -1.4303 0.5925 0.1459, -1.2402 0.5925 0.0000, -1.2911 0.5925 0.0067, -1.3386 0.5925 0.0264, -1.3794 0.5925 0.0577, -1.4106 0.5925 0.0984, -1.4106 0.5925 0.0984
            ]
        }
        coordIndex [
            0 1 2 -1,2 1 3 -1,3 1 4 -1,4 1 5 -1,4 5 6 -1,6 7 4 -1,4 7 8 -1,4 8 9 -1,10 11 12 -1,12 11 4 -1,12 4 13 -1,13 4 9 -1,14 15 16 -1,0 2 17 -1,17 2 14 -1,17 14 18 -1,16 19 14 -1,14 19 20 -1,14 20 21 -1,21 22 14 -1,14 22 23 -1,14 23 18 -1,10 12 16 -1,16 12 19 -1,11 10 15 -1,15 10 16 -1,5 1 17 -1,17 1 0 -1,5 17 18 -1,5 18 6 -1,6 18 23 -1,6 23 7 -1,7 23 22 -1,7 22 8 -1,8 22 21 -1,8 21 9 -1,9 21 20 -1,9 20 13 -1,13 20 19 -1,13 19 12 -1,
        ]
    }
}