#VRML V2.0 utf8
# 3D model generated by Easy ECAD Downloader

Shape{
    appearance Appearance {
        material  Material {
            diffuseColor 0.25098039215686274 0.25098039215686274 0.25098039215686274
            specularColor 0.12549019607843137 0.12549019607843137 0.12549019607843137
            ambientIntensity 0.2
            transparency 0
            shininess 0.5
        }
    }
    geometry IndexedFaceSet {
        ccw TRUE
        solid FALSE
        coord DEF co Coordinate {
            point [
                0.0216 -0.2943 0.0039, 0.0370 -0.3603 0.0039, 0.0216 -0.3730 0.0039, 0.0370 -0.3689 0.0039, -0.0283 -0.3735 0.0039, -0.0206 -0.3730 0.0039, -0.0187 -0.2943 0.0039, -0.0283 -0.2185 0.0039, -0.0187 -0.3029 0.0039, -0.0206 -0.3644 0.0039, 0.5217 -0.0472 0.0039, 0.6201 -0.0472 0.0039, 0.5217 -0.0787 0.0039, 0.6201 -0.3735 0.0039, 0.4823 -0.0787 0.0039, 0.4823 -0.2185 0.0039, 0.0110 -0.3375 0.0039, 0.0110 -0.3644 0.0039, -0.0168 -0.3375 0.0039, -0.0168 -0.3288 0.0039, 0.0110 -0.3288 0.0039, 0.0110 -0.3029 0.0039, 0.0760 -0.3703 0.0039, 0.1023 -0.3730 0.0039, 0.0683 -0.3730 0.0039, 0.0633 -0.3735 0.0039, 0.1320 -0.2943 0.0039, 0.1426 -0.2943 0.0039, 0.1426 -0.3730 0.0039, 0.0632 -0.3028 0.0039, 0.0691 -0.3050 0.0039, 0.0384 -0.3611 0.0039, 0.0745 -0.3086 0.0039, 0.0793 -0.3139 0.0039, 0.0850 -0.3345 0.0039, 0.0842 -0.3430 0.0039, 0.0820 -0.3498 0.0039, 0.0645 -0.3645 0.0039, 0.0572 -0.3653 0.0039, 0.0703 -0.3624 0.0039, 0.0751 -0.3591 0.0039, 0.0788 -0.3552 0.0039, 0.0467 -0.3642 0.0039, 0.0914 -0.3150 0.0039, 0.0868 -0.3077 0.0039, 0.0825 -0.3199 0.0039, 0.0846 -0.3284 0.0039, 0.0823 -0.3663 0.0039, 0.0882 -0.3601 0.0039, 0.1023 -0.3644 0.0039, 0.0924 -0.3526 0.0039, 0.1320 -0.3644 0.0039, 0.0555 -0.2933 0.0039, 0.0461 -0.2940 0.0039, 0.0370 -0.2964 0.0039, 0.0370 -0.3070 0.0039, 0.0458 -0.3032 0.0039, 0.0554 -0.3020 0.0039, 0.0948 -0.3443 0.0039, 0.0955 -0.3351 0.0039, 0.0944 -0.3239 0.0039, 0.0797 -0.3008 0.0039, 0.0722 -0.2965 0.0039, 0.0634 -0.2940 0.0039, -0.6201 -0.3735 0.0039, -0.6201 -0.0472 0.0039, -0.5217 -0.0472 0.0039, -0.5217 -0.0787 0.0039, -0.4823 -0.0787 0.0039, -0.4823 -0.2185 0.0039, -0.0574 -0.3730 0.0039, -0.0360 -0.3730 0.0039, -0.0360 -0.2943 0.0039, -0.0582 -0.2943 0.0039, -0.1051 -0.3730 0.0039, -0.0955 -0.3514 0.0039, -0.0909 -0.3585 0.0039, -0.0696 -0.2955 0.0039, -0.0788 -0.2987 0.0039, -0.1349 -0.2943 0.0039, -0.0874 -0.3045 0.0039, -0.1647 -0.3730 0.0039, -0.1762 -0.3730 0.0039, -0.1455 -0.2943 0.0039, -0.0845 -0.3647 0.0039, -0.0762 -0.3695 0.0039, -0.0672 -0.3722 0.0039, -0.0875 -0.3045 0.0039, -0.0930 -0.3107 0.0039, -0.0967 -0.3175 0.0039, -0.0988 -0.3253 0.0039, -0.0994 -0.3327 0.0039, -0.0983 -0.3432 0.0039, -0.1167 -0.3730 0.0039, -0.1242 -0.3509 0.0039, -0.1567 -0.3509 0.0039, -0.0283 -0.5906 0.0039, -0.0689 -0.5906 0.0039, -0.0689 -0.4921 0.0039, -0.1870 -0.5906 0.0039, -0.3248 -0.5906 0.0039, -0.1870 -0.4921 0.0039, -0.3248 -0.4921 0.0039, -0.4429 -0.4921 0.0039, -0.6201 -0.5514 0.0039, -0.4429 -0.5906 0.0039, -0.5809 -0.5906 0.0039, -0.5911 -0.5892 0.0039, -0.6171 -0.5664 0.0039, -0.6187 -0.5616 0.0039, -0.5959 -0.5876 0.0039, -0.6005 -0.5853 0.0039, -0.6148 -0.5710 0.0039, -0.6120 -0.5753 0.0039, -0.6048 -0.5825 0.0039, -0.6086 -0.5791 0.0039, 0.5809 -0.5906 0.0039, 0.6201 -0.5514 0.0039, 0.4429 -0.4921 0.0039, 0.4429 -0.5906 0.0039, 0.3248 -0.5906 0.0039, 0.1870 -0.5906 0.0039, 0.3248 -0.4921 0.0039, 0.1870 -0.4921 0.0039, 0.6005 -0.5853 0.0039, 0.5959 -0.5876 0.0039, 0.6171 -0.5664 0.0039, 0.6187 -0.5616 0.0039, 0.5911 -0.5892 0.0039, 0.0454 -0.3724 0.0039, 0.0533 -0.3735 0.0039, 0.0689 -0.4921 0.0039, 0.0689 -0.5906 0.0039, 0.0565 -0.3739 0.0039, 0.0586 -0.3740 0.0039, 0.6148 -0.5710 0.0039, 0.6120 -0.5753 0.0039, 0.6048 -0.5825 0.0039, 0.6086 -0.5791 0.0039, 0.6201 0.5514 0.0039, 0.6201 0.0472 0.0039, 0.5217 0.0787 0.0039, 0.5217 0.0472 0.0039, 0.6148 0.5710 0.0039, 0.6171 0.5664 0.0039, 0.4823 0.4843 0.0039, 0.4429 0.4843 0.0039, 0.4429 0.5906 0.0039, 0.5809 0.5906 0.0039, 0.5911 0.5892 0.0039, 0.4823 0.0787 0.0039, 0.6187 0.5616 0.0039, 0.5959 0.5876 0.0039, 0.6005 0.5853 0.0039, 0.6048 0.5825 0.0039, 0.6086 0.5791 0.0039, 0.6120 0.5753 0.0039, 0.3248 0.5906 0.0039, 0.3248 0.4843 0.0039, 0.1870 0.5906 0.0039, 0.2854 0.4843 0.0039, 0.1870 0.4843 0.0039, 0.2264 0.4843 0.0039, 0.2264 0.4646 0.0039, 0.2854 0.4646 0.0039, 0.0689 0.5906 0.0039, 0.0689 0.4843 0.0039, -0.0689 0.5906 0.0039, 0.0295 0.4843 0.0039, -0.0689 0.4843 0.0039, -0.0295 0.4843 0.0039, -0.0295 0.4646 0.0039, 0.0295 0.4646 0.0039, -0.1870 0.5906 0.0039, -0.1870 0.4843 0.0039, -0.3248 0.5906 0.0039, -0.2264 0.4843 0.0039, -0.3248 0.4843 0.0039, -0.2854 0.4843 0.0039, -0.2854 0.4646 0.0039, -0.2264 0.4646 0.0039, -0.4429 0.5906 0.0039, -0.4429 0.4843 0.0039, -0.5809 0.5906 0.0039, -0.4823 0.4843 0.0039, -0.6201 0.5514 0.0039, -0.6187 0.5616 0.0039, -0.6005 0.5853 0.0039, -0.5959 0.5876 0.0039, -0.5911 0.5892 0.0039, -0.5217 0.0472 0.0039, -0.6201 0.0472 0.0039, -0.5217 0.0787 0.0039, -0.4823 0.0787 0.0039, -0.6171 0.5664 0.0039, -0.6148 0.5710 0.0039, -0.6120 0.5753 0.0039, -0.6086 0.5791 0.0039, -0.6048 0.5825 0.0039, 0.6138 -0.0472 0.0638, 0.6138 0.0472 0.0638, 0.5886 0.5199 0.3033, 0.5886 -0.5199 0.3033, -0.4429 0.5843 0.0638, -0.5495 0.5591 0.3033, -0.3248 0.5843 0.0638, 0.5495 0.5591 0.3033, 0.4429 0.5843 0.0638, -0.1870 0.5843 0.0638, 0.3248 0.5843 0.0638, 0.1870 0.5843 0.0638, 0.0689 0.5843 0.0638, -0.0689 0.5843 0.0638, -0.5886 -0.5199 0.3033, -0.6138 -0.0472 0.0638, -0.6138 0.0472 0.0638, -0.5886 0.5199 0.3033, -0.0689 -0.5843 0.0638, -0.5495 -0.5591 0.3033, -0.4429 -0.5843 0.0638, -0.3248 -0.5843 0.0638, 0.1870 -0.5843 0.0638, 0.3248 -0.5843 0.0638, -0.1870 -0.5843 0.0638, 0.0689 -0.5843 0.0638, 0.4429 -0.5843 0.0638, 0.5495 -0.5591 0.3033, -0.4327 -0.4416 0.3386, -0.4469 -0.4357 0.3386, -0.5495 -0.5199 0.3386, -0.3583 -0.3846 0.3386, -0.3603 -0.3999 0.3386, 0.5495 -0.5199 0.3386, -0.3662 -0.4141 0.3386, -0.3756 -0.4263 0.3386, -0.3879 -0.4357 0.3386, -0.4021 -0.4416 0.3386, -0.4174 -0.4436 0.3386, -0.4591 -0.4263 0.3386, -0.4685 -0.4141 0.3386, -0.4744 -0.3999 0.3386, -0.4327 -0.3275 0.3386, -0.5495 0.5199 0.3386, -0.4469 -0.3334 0.3386, -0.4591 -0.3428 0.3386, -0.4764 -0.3846 0.3386, -0.4744 -0.3693 0.3386, -0.4685 -0.3550 0.3386, -0.3879 -0.3334 0.3386, 0.5495 0.5199 0.3386, -0.4021 -0.3275 0.3386, -0.4174 -0.3255 0.3386, -0.3756 -0.3428 0.3386, -0.3662 -0.3550 0.3386, -0.3603 -0.3693 0.3386, -0.3603 -0.3693 0.3386
            ]
        }
        coordIndex [
            0 1 2 -1,2 1 3 -1,4 5 2 -1,0 6 7 -1,7 6 8 -1,7 8 9 -1,10 11 12 -1,12 11 13 -1,12 13 14 -1,14 13 15 -1,16 17 18 -1,18 17 9 -1,18 9 19 -1,19 9 8 -1,19 8 20 -1,20 8 21 -1,22 23 24 -1,24 23 25 -1,26 7 27 -1,27 7 15 -1,27 15 28 -1,28 15 13 -1,29 30 31 -1,31 30 32 -1,31 32 33 -1,34 35 31 -1,31 35 36 -1,37 38 39 -1,39 38 40 -1,36 41 31 -1,31 41 40 -1,31 40 42 -1,42 40 38 -1,43 44 26 -1,33 45 31 -1,31 45 46 -1,31 46 34 -1,22 47 23 -1,23 47 48 -1,23 48 49 -1,49 48 50 -1,49 50 51 -1,52 53 7 -1,7 53 54 -1,7 54 0 -1,0 54 55 -1,0 55 1 -1,1 55 56 -1,1 56 31 -1,31 56 57 -1,31 57 29 -1,50 58 51 -1,51 58 59 -1,51 59 26 -1,26 59 60 -1,26 60 43 -1,44 61 26 -1,26 61 62 -1,26 62 7 -1,7 62 63 -1,7 63 52 -1,64 65 66 -1,66 67 64 -1,64 67 68 -1,64 68 69 -1,70 71 4 -1,4 71 72 -1,73 69 72 -1,72 69 7 -1,72 7 4 -1,4 7 9 -1,4 9 5 -1,74 75 76 -1,77 78 79 -1,79 78 80 -1,81 4 82 -1,82 4 64 -1,82 64 83 -1,83 64 69 -1,83 69 79 -1,79 69 73 -1,79 73 77 -1,76 84 74 -1,74 84 85 -1,74 85 86 -1,80 87 79 -1,79 87 88 -1,79 88 89 -1,89 90 79 -1,79 90 91 -1,79 91 74 -1,74 91 92 -1,74 92 75 -1,86 70 74 -1,74 70 4 -1,74 4 93 -1,93 4 81 -1,93 81 94 -1,94 81 95 -1,96 97 4 -1,4 97 98 -1,99 100 101 -1,101 100 102 -1,98 101 4 -1,4 101 102 -1,4 102 64 -1,64 102 103 -1,64 103 104 -1,104 103 105 -1,104 105 106 -1,107 108 106 -1,106 108 109 -1,106 109 104 -1,107 110 108 -1,108 110 111 -1,108 111 112 -1,112 111 113 -1,113 111 114 -1,113 114 115 -1,116 13 117 -1,23 28 25 -1,25 28 13 -1,25 13 118 -1,118 13 116 -1,118 116 119 -1,120 121 122 -1,122 121 123 -1,124 125 126 -1,117 127 116 -1,116 127 126 -1,116 126 128 -1,128 126 125 -1,3 129 2 -1,2 129 130 -1,2 130 4 -1,4 130 131 -1,4 131 96 -1,96 131 132 -1,130 133 131 -1,131 133 134 -1,131 134 123 -1,123 134 25 -1,123 25 122 -1,122 25 118 -1,126 135 124 -1,124 135 136 -1,124 136 137 -1,137 136 138 -1,139 140 141 -1,141 140 142 -1,143 144 145 -1,146 147 145 -1,145 147 148 -1,145 148 149 -1,141 150 139 -1,139 150 145 -1,139 145 151 -1,151 145 144 -1,149 152 145 -1,145 152 153 -1,145 153 154 -1,154 155 145 -1,145 155 156 -1,145 156 143 -1,157 158 159 -1,159 158 160 -1,161 159 162 -1,162 159 160 -1,162 160 163 -1,163 160 164 -1,165 166 167 -1,167 166 168 -1,169 167 170 -1,170 167 168 -1,170 168 171 -1,171 168 172 -1,173 174 175 -1,175 174 176 -1,177 175 178 -1,178 175 176 -1,178 176 179 -1,179 176 180 -1,181 182 183 -1,183 182 184 -1,185 186 184 -1,187 188 184 -1,184 188 189 -1,184 189 183 -1,190 191 192 -1,192 191 185 -1,192 185 193 -1,193 185 184 -1,186 194 184 -1,184 194 195 -1,184 195 196 -1,196 197 184 -1,184 197 198 -1,184 198 187 -1,13 11 199 -1,140 139 200 -1,200 139 201 -1,200 201 199 -1,199 201 202 -1,199 202 13 -1,13 202 117 -1,181 183 203 -1,203 183 204 -1,203 204 205 -1,148 147 206 -1,206 147 207 -1,208 173 175 -1,157 159 209 -1,209 159 210 -1,207 209 206 -1,206 209 210 -1,206 210 204 -1,204 210 211 -1,175 205 208 -1,208 205 204 -1,208 204 212 -1,212 204 211 -1,212 211 167 -1,167 211 165 -1,64 104 213 -1,65 64 214 -1,214 64 213 -1,214 213 215 -1,215 213 216 -1,215 216 191 -1,191 216 185 -1,217 97 96 -1,106 105 218 -1,218 105 219 -1,218 219 220 -1,121 120 221 -1,221 120 222 -1,100 99 220 -1,220 99 223 -1,220 223 218 -1,218 223 217 -1,218 217 224 -1,224 217 96 -1,224 96 132 -1,119 116 225 -1,225 116 226 -1,225 226 222 -1,222 226 218 -1,222 218 221 -1,221 218 224 -1,227 228 229 -1,230 231 232 -1,232 231 233 -1,232 233 234 -1,234 235 232 -1,232 235 236 -1,232 236 229 -1,229 236 237 -1,229 237 227 -1,228 238 229 -1,229 238 239 -1,229 239 240 -1,241 242 243 -1,243 242 244 -1,240 245 229 -1,229 245 246 -1,229 246 242 -1,242 246 247 -1,242 247 244 -1,248 249 250 -1,250 249 242 -1,250 242 251 -1,251 242 241 -1,248 252 249 -1,249 252 253 -1,249 253 232 -1,232 253 254 -1,232 254 230 -1,
        ]
    }
}
Shape{
    appearance Appearance {
        material  Material {
            diffuseColor 1.0 1.0 1.0
            specularColor 0.5019607843137255 0.5019607843137255 0.5019607843137255
            ambientIntensity 0.2
            transparency 0
            shininess 0.5
        }
    }
    geometry IndexedFaceSet {
        ccw TRUE
        solid FALSE
        coord DEF co Coordinate {
            point [
                -0.1870 -0.5843 0.0638, -0.1870 -0.6496 0.0638, -0.0689 -0.5843 0.0638, -0.0689 -0.6496 0.0638, -0.1870 -0.4921 0.0039, -0.1870 -0.4921 0.0000, -0.1870 -0.5906 0.0039, -0.1870 -0.6496 0.0000, -0.0689 -0.4921 0.0000, -0.0689 -0.4921 0.0039, -0.0689 -0.5906 0.0039, -0.0689 -0.6496 0.0000, -0.4429 -0.6496 0.0638, -0.3248 -0.6496 0.0638, -0.4429 -0.5843 0.0638, -0.3248 -0.5843 0.0638, -0.3248 -0.4921 0.0000, -0.3248 -0.4921 0.0039, -0.3248 -0.5906 0.0039, -0.3248 -0.6496 0.0000, -0.4429 -0.4921 0.0000, -0.4429 -0.4921 0.0039, -0.4429 -0.5906 0.0039, -0.4429 -0.6496 0.0000, 0.0689 -0.6496 0.0638, 0.1870 -0.6496 0.0638, 0.0689 -0.5843 0.0638, 0.1870 -0.5843 0.0638, 0.1870 -0.4921 0.0000, 0.1870 -0.4921 0.0039, 0.1870 -0.5906 0.0039, 0.1870 -0.6496 0.0000, 0.0689 -0.4921 0.0000, 0.0689 -0.4921 0.0039, 0.0689 -0.5906 0.0039, 0.0689 -0.6496 0.0000, 0.3248 -0.6496 0.0638, 0.4429 -0.6496 0.0638, 0.3248 -0.5843 0.0638, 0.4429 -0.5843 0.0638, 0.4429 -0.4921 0.0000, 0.4429 -0.4921 0.0039, 0.4429 -0.5906 0.0039, 0.4429 -0.6496 0.0000, 0.3248 -0.4921 0.0000, 0.3248 -0.4921 0.0039, 0.3248 -0.5906 0.0039, 0.3248 -0.6496 0.0000, 0.6398 -0.0472 0.0638, 0.6398 0.0472 0.0638, 0.6138 -0.0472 0.0638, 0.6138 0.0472 0.0638, 0.4429 0.6496 0.0638, 0.3248 0.6496 0.0638, 0.4429 0.5843 0.0638, 0.3248 0.5843 0.0638, 0.1870 0.6496 0.0638, 0.0689 0.6496 0.0638, 0.1870 0.5843 0.0638, 0.0689 0.5843 0.0638, -0.0689 0.6496 0.0638, -0.1870 0.6496 0.0638, -0.0689 0.5843 0.0638, -0.1870 0.5843 0.0638, -0.3248 0.6496 0.0638, -0.4429 0.6496 0.0638, -0.3248 0.5843 0.0638, -0.4429 0.5843 0.0638, -0.6398 0.0472 0.0638, -0.6398 -0.0472 0.0638, -0.6138 0.0472 0.0638, -0.6138 -0.0472 0.0638, -0.4823 -0.2185 0.0039, -0.4823 -0.2185 0.0000, -0.0283 -0.2185 0.0039, 0.4823 -0.2185 0.0000, 0.4823 -0.2185 0.0039, 0.4823 -0.0787 0.0000, 0.4823 -0.0787 0.0039, 0.5217 -0.0787 0.0000, 0.5217 -0.0787 0.0039, 0.5217 -0.0472 0.0000, 0.5217 -0.0472 0.0039, 0.6201 -0.0472 0.0039, 0.6398 -0.0472 0.0000, 0.5217 0.0472 0.0000, 0.5217 0.0472 0.0039, 0.6201 0.0472 0.0039, 0.6398 0.0472 0.0000, 0.5217 0.0787 0.0000, 0.5217 0.0787 0.0039, 0.4823 0.0787 0.0000, 0.4823 0.0787 0.0039, 0.4823 0.4843 0.0000, 0.4823 0.4843 0.0039, 0.4429 0.4843 0.0000, 0.4429 0.4843 0.0039, 0.4429 0.5906 0.0039, 0.4429 0.6496 0.0000, 0.3248 0.4843 0.0000, 0.3248 0.4843 0.0039, 0.3248 0.5906 0.0039, 0.3248 0.6496 0.0000, 0.2854 0.4843 0.0000, 0.2854 0.4843 0.0039, 0.2854 0.4646 0.0000, 0.2854 0.4646 0.0039, 0.2264 0.4646 0.0000, 0.2264 0.4646 0.0039, 0.2264 0.4843 0.0000, 0.2264 0.4843 0.0039, 0.1870 0.4843 0.0000, 0.1870 0.4843 0.0039, 0.1870 0.5906 0.0039, 0.1870 0.6496 0.0000, 0.0689 0.4843 0.0000, 0.0689 0.4843 0.0039, 0.0689 0.5906 0.0039, 0.0689 0.6496 0.0000, 0.0295 0.4843 0.0000, 0.0295 0.4843 0.0039, 0.0295 0.4646 0.0000, 0.0295 0.4646 0.0039, -0.0295 0.4646 0.0000, -0.0295 0.4646 0.0039, -0.0295 0.4843 0.0000, -0.0295 0.4843 0.0039, -0.0689 0.4843 0.0000, -0.0689 0.4843 0.0039, -0.0689 0.5906 0.0039, -0.0689 0.6496 0.0000, -0.1870 0.4843 0.0000, -0.1870 0.4843 0.0039, -0.1870 0.5906 0.0039, -0.1870 0.6496 0.0000, -0.2264 0.4843 0.0000, -0.2264 0.4843 0.0039, -0.2264 0.4646 0.0000, -0.2264 0.4646 0.0039, -0.2854 0.4646 0.0000, -0.2854 0.4646 0.0039, -0.2854 0.4843 0.0000, -0.2854 0.4843 0.0039, -0.3248 0.4843 0.0000, -0.3248 0.4843 0.0039, -0.3248 0.5906 0.0039, -0.3248 0.6496 0.0000, -0.4429 0.4843 0.0000, -0.4429 0.4843 0.0039, -0.4429 0.5906 0.0039, -0.4429 0.6496 0.0000, -0.4823 0.4843 0.0000, -0.4823 0.4843 0.0039, -0.4823 0.0787 0.0000, -0.4823 0.0787 0.0039, -0.5217 0.0787 0.0000, -0.5217 0.0787 0.0039, -0.5217 0.0472 0.0000, -0.5217 0.0472 0.0039, -0.6201 0.0472 0.0039, -0.6398 0.0472 0.0000, -0.5217 -0.0472 0.0000, -0.5217 -0.0472 0.0039, -0.6201 -0.0472 0.0039, -0.6398 -0.0472 0.0000, -0.5217 -0.0787 0.0000, -0.5217 -0.0787 0.0039, -0.4823 -0.0787 0.0000, -0.4823 -0.0787 0.0039, -0.1455 -0.2943 0.0043, -0.1762 -0.3730 0.0043, -0.1455 -0.2943 0.0039, -0.1762 -0.3730 0.0039, -0.1647 -0.3730 0.0043, -0.1647 -0.3730 0.0039, -0.1567 -0.3509 0.0043, -0.1567 -0.3509 0.0039, -0.1242 -0.3509 0.0043, -0.1242 -0.3509 0.0039, -0.1167 -0.3730 0.0043, -0.1167 -0.3730 0.0039, -0.1051 -0.3730 0.0043, -0.1051 -0.3730 0.0039, -0.1349 -0.2943 0.0043, -0.1349 -0.2943 0.0039, -0.1268 -0.3423 0.0043, -0.1532 -0.3423 0.0043, -0.1386 -0.3094 0.0043, -0.1393 -0.3067 0.0043, -0.1399 -0.3039 0.0043, -0.1401 -0.3039 0.0043, -0.1406 -0.3067 0.0043, -0.1413 -0.3094 0.0043, -0.1268 -0.3423 0.0039, -0.1532 -0.3423 0.0039, -0.1386 -0.3094 0.0039, -0.1393 -0.3067 0.0039, -0.1399 -0.3039 0.0039, -0.1401 -0.3039 0.0039, -0.1406 -0.3067 0.0039, -0.1413 -0.3094 0.0039, -0.0574 -0.3730 0.0043, -0.0360 -0.3730 0.0043, -0.0574 -0.3730 0.0039, -0.0360 -0.3730 0.0039, -0.0360 -0.2943 0.0043, -0.0360 -0.2943 0.0039, -0.0582 -0.2943 0.0043, -0.0582 -0.2943 0.0039, -0.0994 -0.3327 0.0043, -0.0994 -0.3327 0.0039, -0.0988 -0.3253 0.0039, -0.0988 -0.3253 0.0043, -0.0967 -0.3175 0.0039, -0.0967 -0.3175 0.0043, -0.0930 -0.3107 0.0039, -0.0930 -0.3107 0.0043, -0.0875 -0.3045 0.0039, -0.0875 -0.3045 0.0043, -0.0874 -0.3045 0.0039, -0.0874 -0.3045 0.0043, -0.0788 -0.2987 0.0039, -0.0788 -0.2987 0.0043, -0.0696 -0.2955 0.0039, -0.0696 -0.2955 0.0043, -0.0672 -0.3722 0.0039, -0.0672 -0.3722 0.0043, -0.0762 -0.3695 0.0039, -0.0762 -0.3695 0.0043, -0.0845 -0.3647 0.0039, -0.0845 -0.3647 0.0043, -0.0909 -0.3585 0.0039, -0.0909 -0.3585 0.0043, -0.0955 -0.3514 0.0039, -0.0955 -0.3514 0.0043, -0.0983 -0.3432 0.0039, -0.0983 -0.3432 0.0043, -0.0836 -0.3140 0.0043, -0.0798 -0.3099 0.0043, -0.0740 -0.3062 0.0043, -0.0675 -0.3039 0.0043, -0.0582 -0.3029 0.0043, -0.0466 -0.3029 0.0043, -0.0466 -0.3644 0.0043, -0.0578 -0.3644 0.0043, -0.0661 -0.3636 0.0043, -0.0727 -0.3615 0.0043, -0.0781 -0.3583 0.0043, -0.0825 -0.3540 0.0043, -0.0858 -0.3486 0.0043, -0.0881 -0.3412 0.0043, -0.0888 -0.3329 0.0043, -0.0882 -0.3250 0.0043, -0.0863 -0.3188 0.0043, -0.0582 -0.3029 0.0039, -0.0466 -0.3029 0.0039, -0.0675 -0.3039 0.0039, -0.0740 -0.3062 0.0039, -0.0798 -0.3099 0.0039, -0.0836 -0.3140 0.0039, -0.0863 -0.3188 0.0039, -0.0882 -0.3250 0.0039, -0.0888 -0.3329 0.0039, -0.0881 -0.3412 0.0039, -0.0858 -0.3486 0.0039, -0.0825 -0.3540 0.0039, -0.0781 -0.3583 0.0039, -0.0727 -0.3615 0.0039, -0.0661 -0.3636 0.0039, -0.0578 -0.3644 0.0039, -0.0466 -0.3644 0.0039, -0.0206 -0.3644 0.0043, -0.0206 -0.3730 0.0043, -0.0206 -0.3644 0.0039, -0.0206 -0.3730 0.0039, 0.0216 -0.3730 0.0043, 0.0216 -0.3730 0.0039, 0.0216 -0.2943 0.0043, 0.0216 -0.2943 0.0039, -0.0187 -0.2943 0.0043, -0.0187 -0.2943 0.0039, -0.0187 -0.3029 0.0043, -0.0187 -0.3029 0.0039, 0.0110 -0.3029 0.0043, 0.0110 -0.3029 0.0039, 0.0110 -0.3288 0.0043, 0.0110 -0.3288 0.0039, -0.0168 -0.3288 0.0043, -0.0168 -0.3288 0.0039, -0.0168 -0.3375 0.0043, -0.0168 -0.3375 0.0039, 0.0110 -0.3375 0.0043, 0.0110 -0.3375 0.0039, 0.0110 -0.3644 0.0043, 0.0110 -0.3644 0.0039, 0.0370 -0.3603 0.0043, 0.0370 -0.3689 0.0043, 0.0370 -0.3603 0.0039, 0.0370 -0.3689 0.0039, 0.0454 -0.3724 0.0043, 0.0586 -0.3740 0.0043, 0.0586 -0.3740 0.0039, 0.0565 -0.3739 0.0039, 0.0565 -0.3739 0.0043, 0.0533 -0.3735 0.0039, 0.0454 -0.3724 0.0039, 0.0633 -0.3735 0.0039, 0.0683 -0.3730 0.0043, 0.0683 -0.3730 0.0039, 0.0760 -0.3703 0.0043, 0.0760 -0.3703 0.0039, 0.0823 -0.3663 0.0043, 0.0823 -0.3663 0.0039, 0.0882 -0.3601 0.0043, 0.0882 -0.3601 0.0039, 0.0924 -0.3526 0.0043, 0.0924 -0.3526 0.0039, 0.0948 -0.3443 0.0043, 0.0948 -0.3443 0.0039, 0.0955 -0.3351 0.0043, 0.0955 -0.3351 0.0039, 0.0555 -0.2933 0.0043, 0.0555 -0.2933 0.0039, 0.0634 -0.2940 0.0039, 0.0634 -0.2940 0.0043, 0.0722 -0.2965 0.0039, 0.0722 -0.2965 0.0043, 0.0797 -0.3008 0.0039, 0.0797 -0.3008 0.0043, 0.0868 -0.3077 0.0039, 0.0868 -0.3077 0.0043, 0.0914 -0.3150 0.0039, 0.0914 -0.3150 0.0043, 0.0944 -0.3239 0.0039, 0.0944 -0.3239 0.0043, 0.0370 -0.2964 0.0043, 0.0370 -0.2964 0.0039, 0.0461 -0.2940 0.0039, 0.0461 -0.2940 0.0043, 0.0370 -0.3070 0.0043, 0.0370 -0.3070 0.0039, 0.0554 -0.3020 0.0043, 0.0554 -0.3020 0.0039, 0.0458 -0.3032 0.0039, 0.0458 -0.3032 0.0043, 0.0850 -0.3345 0.0043, 0.0850 -0.3345 0.0039, 0.0846 -0.3284 0.0039, 0.0846 -0.3284 0.0043, 0.0825 -0.3199 0.0039, 0.0825 -0.3199 0.0043, 0.0793 -0.3139 0.0039, 0.0793 -0.3139 0.0043, 0.0745 -0.3086 0.0039, 0.0745 -0.3086 0.0043, 0.0691 -0.3050 0.0039, 0.0691 -0.3050 0.0043, 0.0632 -0.3028 0.0039, 0.0632 -0.3028 0.0043, 0.0572 -0.3653 0.0043, 0.0572 -0.3653 0.0039, 0.0645 -0.3645 0.0039, 0.0645 -0.3645 0.0043, 0.0703 -0.3624 0.0039, 0.0703 -0.3624 0.0043, 0.0751 -0.3591 0.0039, 0.0751 -0.3591 0.0043, 0.0788 -0.3552 0.0039, 0.0788 -0.3552 0.0043, 0.0820 -0.3498 0.0039, 0.0820 -0.3498 0.0043, 0.0842 -0.3430 0.0039, 0.0842 -0.3430 0.0043, 0.0384 -0.3611 0.0039, 0.0384 -0.3611 0.0043, 0.0467 -0.3642 0.0039, 0.0467 -0.3642 0.0043, 0.1023 -0.3644 0.0043, 0.1023 -0.3730 0.0043, 0.1023 -0.3644 0.0039, 0.1023 -0.3730 0.0039, 0.1426 -0.3730 0.0043, 0.1426 -0.3730 0.0039, 0.1426 -0.2943 0.0043, 0.1426 -0.2943 0.0039, 0.1320 -0.2943 0.0043, 0.1320 -0.2943 0.0039, 0.1320 -0.3644 0.0043, 0.1320 -0.3644 0.0039, 0.1320 -0.3644 0.0039
            ]
        }
        coordIndex [
            0 1 2 -1,2 1 3 -1,4 5 6 -1,6 5 7 -1,6 7 0 -1,0 7 1 -1,8 9 10 -1,2 3 10 -1,10 3 11 -1,10 11 8 -1,8 5 9 -1,9 5 4 -1,11 3 7 -1,7 3 1 -1,8 11 5 -1,5 11 7 -1,12 13 14 -1,14 13 15 -1,16 17 18 -1,15 13 18 -1,18 13 19 -1,18 19 16 -1,16 20 17 -1,17 20 21 -1,21 20 22 -1,22 20 23 -1,22 23 14 -1,14 23 12 -1,19 13 23 -1,23 13 12 -1,20 16 23 -1,23 16 19 -1,24 25 26 -1,26 25 27 -1,28 29 30 -1,27 25 30 -1,30 25 31 -1,30 31 28 -1,28 32 29 -1,29 32 33 -1,33 32 34 -1,34 32 35 -1,34 35 26 -1,26 35 24 -1,31 25 35 -1,35 25 24 -1,35 32 31 -1,31 32 28 -1,36 37 38 -1,38 37 39 -1,40 41 42 -1,39 37 42 -1,42 37 43 -1,42 43 40 -1,40 44 41 -1,41 44 45 -1,45 44 46 -1,46 44 47 -1,46 47 38 -1,38 47 36 -1,43 37 47 -1,47 37 36 -1,47 44 43 -1,43 44 40 -1,48 49 50 -1,50 49 51 -1,52 53 54 -1,54 53 55 -1,56 57 58 -1,58 57 59 -1,60 61 62 -1,62 61 63 -1,64 65 66 -1,66 65 67 -1,68 69 70 -1,70 69 71 -1,72 73 74 -1,74 73 75 -1,74 75 76 -1,75 77 76 -1,76 77 78 -1,77 79 78 -1,78 79 80 -1,79 81 80 -1,80 81 82 -1,82 81 83 -1,83 81 84 -1,83 84 50 -1,50 84 48 -1,85 86 87 -1,51 49 87 -1,87 49 88 -1,87 88 85 -1,85 89 86 -1,86 89 90 -1,89 91 90 -1,90 91 92 -1,91 93 92 -1,92 93 94 -1,93 95 94 -1,94 95 96 -1,96 95 97 -1,97 95 98 -1,97 98 54 -1,54 98 52 -1,99 100 101 -1,55 53 101 -1,101 53 102 -1,101 102 99 -1,99 103 100 -1,100 103 104 -1,103 105 104 -1,104 105 106 -1,105 107 106 -1,106 107 108 -1,107 109 108 -1,108 109 110 -1,109 111 110 -1,110 111 112 -1,112 111 113 -1,113 111 114 -1,113 114 58 -1,58 114 56 -1,115 116 117 -1,59 57 117 -1,117 57 118 -1,117 118 115 -1,115 119 116 -1,116 119 120 -1,119 121 120 -1,120 121 122 -1,121 123 122 -1,122 123 124 -1,123 125 124 -1,124 125 126 -1,125 127 126 -1,126 127 128 -1,128 127 129 -1,129 127 130 -1,129 130 62 -1,62 130 60 -1,131 132 133 -1,63 61 133 -1,133 61 134 -1,133 134 131 -1,131 135 132 -1,132 135 136 -1,135 137 136 -1,136 137 138 -1,137 139 138 -1,138 139 140 -1,139 141 140 -1,140 141 142 -1,141 143 142 -1,142 143 144 -1,144 143 145 -1,145 143 146 -1,145 146 66 -1,66 146 64 -1,147 148 149 -1,67 65 149 -1,149 65 150 -1,149 150 147 -1,147 151 148 -1,148 151 152 -1,151 153 152 -1,152 153 154 -1,153 155 154 -1,154 155 156 -1,155 157 156 -1,156 157 158 -1,158 157 159 -1,159 157 160 -1,159 160 70 -1,70 160 68 -1,161 162 163 -1,71 69 163 -1,163 69 164 -1,163 164 161 -1,161 165 162 -1,162 165 166 -1,165 167 166 -1,166 167 168 -1,167 73 168 -1,168 73 72 -1,88 49 84 -1,84 49 48 -1,102 53 98 -1,98 53 52 -1,118 57 114 -1,114 57 56 -1,134 61 130 -1,130 61 60 -1,150 65 146 -1,146 65 64 -1,164 69 160 -1,160 69 68 -1,153 151 147 -1,93 91 95 -1,95 91 99 -1,95 99 98 -1,98 99 102 -1,73 167 137 -1,81 79 77 -1,85 88 84 -1,150 146 147 -1,147 146 143 -1,147 143 153 -1,153 143 141 -1,153 141 139 -1,157 155 153 -1,73 137 75 -1,75 137 135 -1,75 135 131 -1,167 165 161 -1,139 137 153 -1,153 137 167 -1,153 167 157 -1,157 167 161 -1,157 161 160 -1,160 161 164 -1,77 75 127 -1,127 75 131 -1,127 131 130 -1,130 131 134 -1,107 121 115 -1,115 121 119 -1,109 107 111 -1,111 107 115 -1,111 115 114 -1,114 115 118 -1,84 81 85 -1,85 81 91 -1,85 91 89 -1,103 99 105 -1,105 99 91 -1,105 91 107 -1,107 91 81 -1,107 81 121 -1,121 81 77 -1,121 77 123 -1,123 77 127 -1,123 127 125 -1,169 170 171 -1,171 170 172 -1,170 173 172 -1,172 173 174 -1,173 175 174 -1,174 175 176 -1,175 177 176 -1,176 177 178 -1,177 179 178 -1,178 179 180 -1,179 181 180 -1,180 181 182 -1,181 183 182 -1,182 183 184 -1,183 169 184 -1,184 169 171 -1,185 177 186 -1,186 177 175 -1,187 183 185 -1,185 183 181 -1,185 181 177 -1,177 181 179 -1,187 188 183 -1,183 188 189 -1,183 189 169 -1,169 189 190 -1,169 190 191 -1,191 192 169 -1,169 192 186 -1,169 186 170 -1,170 186 175 -1,170 175 173 -1,185 186 193 -1,193 186 194 -1,187 185 195 -1,195 185 193 -1,187 195 196 -1,187 196 188 -1,188 196 197 -1,188 197 189 -1,190 189 198 -1,198 189 197 -1,190 198 199 -1,190 199 191 -1,191 199 200 -1,191 200 192 -1,186 192 194 -1,194 192 200 -1,201 202 203 -1,203 202 204 -1,202 205 204 -1,204 205 206 -1,205 207 206 -1,206 207 208 -1,209 210 211 -1,209 211 212 -1,212 211 213 -1,212 213 214 -1,214 213 215 -1,214 215 216 -1,216 215 217 -1,216 217 218 -1,218 217 219 -1,218 219 220 -1,220 219 221 -1,220 221 222 -1,222 221 223 -1,222 223 224 -1,224 223 208 -1,224 208 207 -1,201 203 225 -1,201 225 226 -1,226 225 227 -1,226 227 228 -1,228 227 229 -1,228 229 230 -1,230 229 231 -1,230 231 232 -1,232 231 233 -1,232 233 234 -1,234 233 235 -1,234 235 236 -1,236 235 210 -1,236 210 209 -1,214 216 237 -1,237 216 218 -1,237 218 238 -1,238 218 220 -1,238 220 239 -1,239 220 222 -1,239 222 240 -1,240 222 224 -1,240 224 241 -1,241 224 207 -1,241 207 242 -1,242 207 205 -1,242 205 243 -1,243 205 202 -1,243 202 244 -1,244 202 201 -1,244 201 245 -1,245 201 226 -1,245 226 246 -1,246 226 228 -1,246 228 247 -1,247 228 230 -1,247 230 248 -1,248 230 232 -1,248 232 249 -1,249 232 234 -1,249 234 250 -1,250 234 236 -1,250 236 251 -1,251 236 209 -1,251 209 252 -1,252 209 212 -1,252 212 253 -1,253 212 214 -1,253 214 237 -1,241 242 254 -1,254 242 255 -1,241 254 256 -1,241 256 240 -1,240 256 257 -1,240 257 239 -1,239 257 258 -1,239 258 238 -1,238 258 259 -1,238 259 237 -1,237 259 260 -1,237 260 253 -1,253 260 261 -1,253 261 252 -1,252 261 262 -1,252 262 251 -1,251 262 263 -1,251 263 250 -1,250 263 264 -1,250 264 249 -1,249 264 265 -1,249 265 248 -1,248 265 266 -1,248 266 247 -1,247 266 267 -1,247 267 246 -1,246 267 268 -1,246 268 245 -1,245 268 269 -1,245 269 244 -1,243 244 270 -1,270 244 269 -1,242 243 255 -1,255 243 270 -1,271 272 273 -1,273 272 274 -1,272 275 274 -1,274 275 276 -1,275 277 276 -1,276 277 278 -1,277 279 278 -1,278 279 280 -1,279 281 280 -1,280 281 282 -1,281 283 282 -1,282 283 284 -1,283 285 284 -1,284 285 286 -1,285 287 286 -1,286 287 288 -1,287 289 288 -1,288 289 290 -1,289 291 290 -1,290 291 292 -1,291 293 292 -1,292 293 294 -1,293 271 294 -1,294 271 273 -1,275 272 271 -1,271 293 275 -1,275 293 291 -1,275 291 277 -1,281 279 283 -1,283 279 277 -1,283 277 285 -1,285 277 291 -1,285 291 287 -1,287 291 289 -1,295 296 297 -1,297 296 298 -1,298 296 299 -1,300 301 302 -1,300 302 303 -1,303 302 304 -1,303 304 299 -1,299 304 305 -1,299 305 298 -1,301 300 306 -1,306 300 307 -1,306 307 308 -1,308 307 309 -1,308 309 310 -1,310 309 311 -1,310 311 312 -1,312 311 313 -1,312 313 314 -1,314 313 315 -1,314 315 316 -1,316 315 317 -1,316 317 318 -1,318 317 319 -1,318 319 320 -1,321 322 323 -1,321 323 324 -1,324 323 325 -1,324 325 326 -1,326 325 327 -1,326 327 328 -1,328 327 329 -1,328 329 330 -1,330 329 331 -1,330 331 332 -1,332 331 333 -1,332 333 334 -1,334 333 320 -1,334 320 319 -1,335 336 337 -1,335 337 338 -1,338 337 322 -1,338 322 321 -1,335 339 336 -1,336 339 340 -1,341 342 343 -1,341 343 344 -1,344 343 340 -1,344 340 339 -1,345 346 347 -1,345 347 348 -1,348 347 349 -1,348 349 350 -1,350 349 351 -1,350 351 352 -1,352 351 353 -1,352 353 354 -1,354 353 355 -1,354 355 356 -1,356 355 357 -1,356 357 358 -1,358 357 342 -1,358 342 341 -1,359 360 361 -1,359 361 362 -1,362 361 363 -1,362 363 364 -1,364 363 365 -1,364 365 366 -1,366 365 367 -1,366 367 368 -1,368 367 369 -1,368 369 370 -1,370 369 371 -1,370 371 372 -1,372 371 346 -1,372 346 345 -1,295 297 373 -1,295 373 374 -1,374 373 375 -1,374 375 376 -1,376 375 360 -1,376 360 359 -1,362 300 359 -1,359 300 303 -1,359 303 376 -1,376 303 299 -1,376 299 374 -1,374 299 296 -1,374 296 295 -1,339 335 344 -1,344 335 338 -1,344 338 341 -1,341 338 321 -1,341 321 358 -1,358 321 324 -1,358 324 356 -1,356 324 326 -1,356 326 354 -1,354 326 328 -1,354 328 352 -1,352 328 330 -1,352 330 350 -1,350 330 332 -1,350 332 348 -1,348 332 334 -1,348 334 345 -1,345 334 319 -1,345 319 372 -1,372 319 317 -1,372 317 370 -1,370 317 315 -1,370 315 368 -1,368 315 313 -1,368 313 366 -1,366 313 311 -1,366 311 364 -1,364 311 309 -1,364 309 362 -1,362 309 307 -1,362 307 300 -1,377 378 379 -1,379 378 380 -1,378 381 380 -1,380 381 382 -1,381 383 382 -1,382 383 384 -1,383 385 384 -1,384 385 386 -1,385 387 386 -1,386 387 388 -1,387 377 388 -1,388 377 379 -1,385 383 387 -1,387 383 381 -1,387 381 377 -1,377 381 378 -1,
        ]
    }
}
Shape{
    appearance Appearance {
        material  Material {
            diffuseColor 0.25098039215686274 0.25098039215686274 0.25098039215686274
            specularColor 0.12549019607843137 0.12549019607843137 0.12549019607843137
            ambientIntensity 0.2
            transparency 0
            shininess 0.5
        }
    }
    geometry IndexedFaceSet {
        ccw TRUE
        solid FALSE
        coord DEF co Coordinate {
            point [
                -0.1268 -0.3423 0.0039, -0.1532 -0.3423 0.0039, -0.1386 -0.3094 0.0039, -0.1413 -0.3094 0.0039, -0.1393 -0.3067 0.0039, -0.1406 -0.3067 0.0039, -0.1399 -0.3039 0.0039, -0.1401 -0.3039 0.0039, -0.0466 -0.3029 0.0039, -0.0466 -0.3644 0.0039, -0.0582 -0.3029 0.0039, -0.0578 -0.3644 0.0039, -0.0661 -0.3636 0.0039, -0.0888 -0.3329 0.0039, -0.0882 -0.3250 0.0039, -0.0863 -0.3188 0.0039, -0.0675 -0.3039 0.0039, -0.0727 -0.3615 0.0039, -0.0781 -0.3583 0.0039, -0.0825 -0.3540 0.0039, -0.0858 -0.3486 0.0039, -0.0881 -0.3412 0.0039, -0.0836 -0.3140 0.0039, -0.0798 -0.3099 0.0039, -0.0740 -0.3062 0.0039, -0.0740 -0.3062 0.0039
            ]
        }
        coordIndex [
            0 1 2 -1,2 1 3 -1,2 3 4 -1,4 3 5 -1,4 5 6 -1,6 5 7 -1,8 9 10 -1,10 9 11 -1,10 11 12 -1,13 14 10 -1,10 14 15 -1,10 15 16 -1,12 17 10 -1,10 17 18 -1,10 18 19 -1,19 20 10 -1,10 20 21 -1,10 21 13 -1,22 23 15 -1,15 23 24 -1,15 24 16 -1,
        ]
    }
}
Shape{
    appearance Appearance {
        material  Material {
            diffuseColor 0.7529411764705882 0.7529411764705882 0.7529411764705882
            specularColor 0.3764705882352941 0.3764705882352941 0.3764705882352941
            ambientIntensity 0.2
            transparency 0
            shininess 0.5
        }
    }
    geometry IndexedFaceSet {
        ccw TRUE
        solid FALSE
        coord DEF co Coordinate {
            point [
                -0.3583 -0.3846 0.3346, -0.3583 -0.3846 0.3386, -0.3603 -0.3693 0.3346, -0.3603 -0.3693 0.3386, -0.3662 -0.3550 0.3346, -0.3662 -0.3550 0.3386, -0.3756 -0.3428 0.3346, -0.3756 -0.3428 0.3386, -0.3879 -0.3334 0.3346, -0.3879 -0.3334 0.3386, -0.4021 -0.3275 0.3346, -0.4021 -0.3275 0.3386, -0.4174 -0.3255 0.3346, -0.4174 -0.3255 0.3386, -0.4327 -0.3275 0.3346, -0.4327 -0.3275 0.3386, -0.4469 -0.3334 0.3346, -0.4469 -0.3334 0.3386, -0.4591 -0.3428 0.3346, -0.4591 -0.3428 0.3386, -0.4685 -0.3550 0.3346, -0.4685 -0.3550 0.3386, -0.4744 -0.3693 0.3346, -0.4744 -0.3693 0.3386, -0.4764 -0.3846 0.3346, -0.4764 -0.3846 0.3386, -0.4744 -0.3999 0.3346, -0.4744 -0.3999 0.3386, -0.4685 -0.4141 0.3346, -0.4685 -0.4141 0.3386, -0.4591 -0.4263 0.3346, -0.4591 -0.4263 0.3386, -0.4469 -0.4357 0.3346, -0.4469 -0.4357 0.3386, -0.4327 -0.4416 0.3346, -0.4327 -0.4416 0.3386, -0.4174 -0.4436 0.3346, -0.4174 -0.4436 0.3386, -0.4021 -0.4416 0.3346, -0.4021 -0.4416 0.3386, -0.3879 -0.4357 0.3346, -0.3879 -0.4357 0.3386, -0.3756 -0.4263 0.3346, -0.3756 -0.4263 0.3386, -0.3662 -0.4141 0.3346, -0.3662 -0.4141 0.3386, -0.3603 -0.3999 0.3346, -0.3603 -0.3999 0.3386, -0.4174 -0.3846 0.3346, -0.4174 -0.3846 0.3346
            ]
        }
        coordIndex [
            0 1 2 -1,2 1 3 -1,2 3 4 -1,4 3 5 -1,4 5 6 -1,6 5 7 -1,6 7 8 -1,8 7 9 -1,8 9 10 -1,10 9 11 -1,10 11 12 -1,12 11 13 -1,12 13 14 -1,14 13 15 -1,14 15 16 -1,16 15 17 -1,16 17 18 -1,18 17 19 -1,18 19 20 -1,20 19 21 -1,20 21 22 -1,22 21 23 -1,22 23 24 -1,24 23 25 -1,24 25 26 -1,26 25 27 -1,26 27 28 -1,28 27 29 -1,28 29 30 -1,30 29 31 -1,30 31 32 -1,32 31 33 -1,32 33 34 -1,34 33 35 -1,34 35 36 -1,36 35 37 -1,36 37 38 -1,38 37 39 -1,38 39 40 -1,40 39 41 -1,40 41 42 -1,42 41 43 -1,42 43 44 -1,44 43 45 -1,44 45 46 -1,46 45 47 -1,46 47 0 -1,0 47 1 -1,44 46 48 -1,48 46 0 -1,48 0 2 -1,38 40 48 -1,48 40 42 -1,48 42 44 -1,32 34 48 -1,48 34 36 -1,48 36 38 -1,26 28 48 -1,48 28 30 -1,48 30 32 -1,20 22 48 -1,48 22 24 -1,48 24 26 -1,14 16 48 -1,48 16 18 -1,48 18 20 -1,8 10 48 -1,48 10 12 -1,48 12 14 -1,2 4 48 -1,48 4 6 -1,48 6 8 -1,
        ]
    }
}
Shape{
    appearance Appearance {
        material  Material {
            diffuseColor 0.25098039215686274 0.25098039215686274 0.25098039215686274
            specularColor 0.12549019607843137 0.12549019607843137 0.12549019607843137
            ambientIntensity 0.2
            transparency 0
            shininess 0.5
        }
    }
    geometry IndexedFaceSet {
        ccw TRUE
        solid FALSE
        coord DEF co Coordinate {
            point [
                0.5886 -0.5199 0.3033, 0.5872 -0.5300 0.3042, 0.6201 -0.5514 0.0039, 0.6187 -0.5616 0.0039, 0.6171 -0.5664 0.0039, 0.5872 -0.5300 0.3042, 0.6148 -0.5710 0.0039, 0.5832 -0.5394 0.3048, 0.6120 -0.5753 0.0039, 0.5832 -0.5394 0.3048, 0.6086 -0.5791 0.0039, 0.5770 -0.5475 0.3050, 0.6048 -0.5825 0.0039, 0.5689 -0.5537 0.3048, 0.6005 -0.5853 0.0039, 0.5689 -0.5537 0.3048, 0.5959 -0.5876 0.0039, 0.5596 -0.5576 0.3042, 0.5911 -0.5892 0.0039, 0.5595 -0.5577 0.3042, 0.5495 -0.5591 0.3033, 0.5809 -0.5906 0.0039, 0.5821 -0.5199 0.3212, 0.5759 -0.5199 0.3284, 0.5750 -0.5268 0.3284, 0.5674 -0.5247 0.3339, 0.5587 -0.5224 0.3374, 0.5578 -0.5247 0.3374, 0.5495 -0.5199 0.3386, 0.5542 -0.5282 0.3374, 0.5562 -0.5267 0.3374, 0.5519 -0.5292 0.3374, 0.5590 -0.5199 0.3374, 0.5853 -0.5295 0.3124, 0.5816 -0.5385 0.3124, 0.5757 -0.5462 0.3124, 0.5680 -0.5521 0.3124, 0.5591 -0.5558 0.3124, 0.5495 -0.5570 0.3124, 0.5495 -0.5295 0.3374, 0.5758 -0.5199 0.3285, 0.5680 -0.5199 0.3339, 0.5679 -0.5199 0.3340, 0.5590 -0.5199 0.3374, 0.5656 -0.5292 0.3339, 0.5626 -0.5331 0.3339, 0.5587 -0.5360 0.3339, 0.5543 -0.5379 0.3339, 0.5495 -0.5295 0.3374, 0.5495 -0.5384 0.3340, 0.5495 -0.5385 0.3339, 0.5495 -0.5463 0.3285, 0.5724 -0.5332 0.3284, 0.5682 -0.5386 0.3284, 0.5627 -0.5429 0.3284, 0.5563 -0.5455 0.3284, 0.5864 -0.5199 0.3127, 0.5822 -0.5199 0.3210, 0.5811 -0.5284 0.3210, 0.5778 -0.5363 0.3210, 0.5726 -0.5431 0.3210, 0.5658 -0.5483 0.3210, 0.5579 -0.5516 0.3210, 0.5866 -0.5199 0.3124, 0.5495 -0.5464 0.3284, 0.5495 -0.5525 0.3212, 0.5495 -0.5527 0.3210, 0.5495 -0.5569 0.3127, 0.5495 0.5591 0.3033, 0.5595 0.5577 0.3042, 0.5809 0.5906 0.0039, 0.5911 0.5892 0.0039, 0.5959 0.5876 0.0039, 0.5596 0.5576 0.3042, 0.6005 0.5853 0.0039, 0.5689 0.5537 0.3048, 0.6048 0.5825 0.0039, 0.5689 0.5537 0.3048, 0.6086 0.5791 0.0039, 0.5770 0.5475 0.3050, 0.6120 0.5753 0.0039, 0.5832 0.5394 0.3048, 0.6148 0.5710 0.0039, 0.5832 0.5394 0.3048, 0.6171 0.5664 0.0039, 0.5872 0.5300 0.3042, 0.6187 0.5616 0.0039, 0.5872 0.5300 0.3042, 0.5886 0.5199 0.3033, 0.6201 0.5514 0.0039, 0.5866 0.5199 0.3124, 0.5864 0.5199 0.3127, 0.5822 0.5199 0.3210, 0.5821 0.5199 0.3212, 0.5759 0.5199 0.3284, 0.5758 0.5199 0.3285, 0.5680 0.5199 0.3339, 0.5679 0.5199 0.3340, 0.5590 0.5199 0.3374, 0.5590 0.5199 0.3374, 0.5495 0.5199 0.3386, -0.5495 -0.5591 0.3033, -0.5495 -0.5570 0.3124, -0.5495 -0.5569 0.3127, -0.5495 -0.5527 0.3210, -0.5495 -0.5525 0.3212, -0.5495 -0.5464 0.3284, -0.5495 -0.5463 0.3285, -0.5495 -0.5385 0.3339, -0.5495 -0.5384 0.3340, -0.5495 -0.5295 0.3374, -0.5495 -0.5295 0.3374, -0.5495 -0.5199 0.3386, -0.5595 -0.5577 0.3042, -0.5809 -0.5906 0.0039, -0.5911 -0.5892 0.0039, -0.5959 -0.5876 0.0039, -0.5596 -0.5576 0.3042, -0.6005 -0.5853 0.0039, -0.5689 -0.5537 0.3048, -0.6048 -0.5825 0.0039, -0.5689 -0.5537 0.3048, -0.6086 -0.5791 0.0039, -0.5770 -0.5475 0.3050, -0.6120 -0.5753 0.0039, -0.5832 -0.5394 0.3048, -0.6148 -0.5710 0.0039, -0.5832 -0.5394 0.3048, -0.6171 -0.5664 0.0039, -0.5872 -0.5300 0.3042, -0.6187 -0.5616 0.0039, -0.5872 -0.5300 0.3042, -0.5886 -0.5199 0.3033, -0.6201 -0.5514 0.0039, 0.5495 0.5525 0.3212, 0.5495 0.5464 0.3284, 0.5563 0.5455 0.3284, 0.5543 0.5379 0.3339, 0.5519 0.5292 0.3374, 0.5542 0.5282 0.3374, 0.5578 0.5247 0.3374, 0.5562 0.5267 0.3374, 0.5587 0.5224 0.3374, 0.5495 0.5295 0.3374, 0.5591 0.5558 0.3124, 0.5680 0.5521 0.3124, 0.5757 0.5462 0.3124, 0.5816 0.5385 0.3124, 0.5853 0.5295 0.3124, 0.5495 0.5463 0.3285, 0.5495 0.5385 0.3339, 0.5495 0.5384 0.3340, 0.5495 0.5295 0.3374, 0.5587 0.5360 0.3339, 0.5626 0.5331 0.3339, 0.5656 0.5292 0.3339, 0.5674 0.5247 0.3339, 0.5627 0.5429 0.3284, 0.5682 0.5386 0.3284, 0.5724 0.5332 0.3284, 0.5750 0.5268 0.3284, 0.5495 0.5569 0.3127, 0.5495 0.5527 0.3210, 0.5579 0.5516 0.3210, 0.5658 0.5483 0.3210, 0.5726 0.5431 0.3210, 0.5778 0.5363 0.3210, 0.5811 0.5284 0.3210, 0.5495 0.5570 0.3124, -0.5563 -0.5455 0.3284, -0.5543 -0.5379 0.3339, -0.5519 -0.5292 0.3374, -0.5542 -0.5282 0.3374, -0.5578 -0.5247 0.3374, -0.5562 -0.5267 0.3374, -0.5587 -0.5224 0.3374, -0.5591 -0.5558 0.3124, -0.5680 -0.5521 0.3124, -0.5757 -0.5462 0.3124, -0.5816 -0.5385 0.3124, -0.5853 -0.5295 0.3124, -0.5866 -0.5199 0.3124, -0.5590 -0.5199 0.3374, -0.5587 -0.5360 0.3339, -0.5626 -0.5331 0.3339, -0.5656 -0.5292 0.3339, -0.5674 -0.5247 0.3339, -0.5590 -0.5199 0.3374, -0.5679 -0.5199 0.3340, -0.5680 -0.5199 0.3339, -0.5758 -0.5199 0.3285, -0.5627 -0.5429 0.3284, -0.5682 -0.5386 0.3284, -0.5724 -0.5332 0.3284, -0.5750 -0.5268 0.3284, -0.5579 -0.5516 0.3210, -0.5658 -0.5483 0.3210, -0.5726 -0.5431 0.3210, -0.5778 -0.5363 0.3210, -0.5811 -0.5284 0.3210, -0.5759 -0.5199 0.3284, -0.5821 -0.5199 0.3212, -0.5822 -0.5199 0.3210, -0.5864 -0.5199 0.3127, -0.5495 0.5591 0.3033, -0.5495 0.5570 0.3124, -0.5495 0.5569 0.3127, -0.5495 0.5527 0.3210, -0.5495 0.5525 0.3212, -0.5495 0.5464 0.3284, -0.5495 0.5463 0.3285, -0.5495 0.5385 0.3339, -0.5495 0.5384 0.3340, -0.5495 0.5295 0.3374, -0.5495 0.5295 0.3374, -0.5495 0.5199 0.3386, -0.5886 0.5199 0.3033, -0.5866 0.5199 0.3124, -0.5864 0.5199 0.3127, -0.5822 0.5199 0.3210, -0.5821 0.5199 0.3212, -0.5759 0.5199 0.3284, -0.5758 0.5199 0.3285, -0.5680 0.5199 0.3339, -0.5679 0.5199 0.3340, -0.5590 0.5199 0.3374, -0.5590 0.5199 0.3374, -0.5750 0.5268 0.3284, -0.5674 0.5247 0.3339, -0.5587 0.5224 0.3374, -0.5578 0.5247 0.3374, -0.5542 0.5282 0.3374, -0.5562 0.5267 0.3374, -0.5519 0.5292 0.3374, -0.5853 0.5295 0.3124, -0.5872 0.5300 0.3042, -0.5872 0.5300 0.3042, -0.5832 0.5394 0.3048, -0.5816 0.5385 0.3124, -0.5832 0.5394 0.3048, -0.5757 0.5462 0.3124, -0.5770 0.5475 0.3050, -0.5680 0.5521 0.3124, -0.5689 0.5537 0.3048, -0.5689 0.5537 0.3048, -0.5591 0.5558 0.3124, -0.5596 0.5576 0.3042, -0.5595 0.5577 0.3042, -0.5656 0.5292 0.3339, -0.5626 0.5331 0.3339, -0.5587 0.5360 0.3339, -0.5543 0.5379 0.3339, -0.5724 0.5332 0.3284, -0.5682 0.5386 0.3284, -0.5627 0.5429 0.3284, -0.5563 0.5455 0.3284, -0.5811 0.5284 0.3210, -0.5778 0.5363 0.3210, -0.5726 0.5431 0.3210, -0.5658 0.5483 0.3210, -0.5579 0.5516 0.3210, -0.6201 0.5514 0.0039, -0.6187 0.5616 0.0039, -0.6171 0.5664 0.0039, -0.6148 0.5710 0.0039, -0.6120 0.5753 0.0039, -0.6086 0.5791 0.0039, -0.6048 0.5825 0.0039, -0.6005 0.5853 0.0039, -0.5959 0.5876 0.0039, -0.5911 0.5892 0.0039, -0.5809 0.5906 0.0039, -0.5809 0.5906 0.0039
            ]
        }
        coordIndex [
            0 1 2 -1,2 1 3 -1,3 1 4 -1,4 1 5 -1,4 5 6 -1,6 5 7 -1,6 7 8 -1,8 7 9 -1,8 9 10 -1,10 9 11 -1,10 11 12 -1,12 11 13 -1,12 13 14 -1,14 13 15 -1,14 15 16 -1,16 15 17 -1,16 17 18 -1,17 19 18 -1,18 19 20 -1,18 20 21 -1,22 23 24 -1,25 26 27 -1,28 29 30 -1,31 29 28 -1,27 26 28 -1,32 28 26 -1,33 5 1 -1,5 33 7 -1,7 33 34 -1,7 34 9 -1,9 34 35 -1,9 35 11 -1,11 35 36 -1,11 36 13 -1,13 36 15 -1,15 36 37 -1,15 37 17 -1,17 37 19 -1,19 37 38 -1,19 38 20 -1,39 31 28 -1,40 41 25 -1,25 41 42 -1,25 42 26 -1,26 42 43 -1,26 43 32 -1,44 30 45 -1,45 30 29 -1,45 29 46 -1,46 29 31 -1,46 31 47 -1,39 48 31 -1,31 48 49 -1,31 49 47 -1,47 49 50 -1,47 50 51 -1,24 44 52 -1,52 44 45 -1,52 45 53 -1,53 45 46 -1,53 46 54 -1,54 46 47 -1,54 47 55 -1,55 47 51 -1,56 57 58 -1,58 57 22 -1,22 24 58 -1,58 24 52 -1,58 52 59 -1,59 52 53 -1,59 53 60 -1,60 53 54 -1,60 54 61 -1,61 54 55 -1,61 55 62 -1,23 40 24 -1,24 40 25 -1,24 25 44 -1,44 25 27 -1,44 27 30 -1,30 27 28 -1,56 33 63 -1,63 33 1 -1,63 1 0 -1,51 64 55 -1,55 64 65 -1,55 65 62 -1,62 65 66 -1,62 66 67 -1,56 58 33 -1,33 58 59 -1,33 59 34 -1,34 59 60 -1,34 60 35 -1,35 60 61 -1,35 61 36 -1,36 61 62 -1,36 62 37 -1,37 62 67 -1,37 67 38 -1,68 69 70 -1,70 69 71 -1,71 69 72 -1,72 69 73 -1,72 73 74 -1,74 73 75 -1,74 75 76 -1,76 75 77 -1,76 77 78 -1,78 77 79 -1,78 79 80 -1,80 79 81 -1,80 81 82 -1,82 81 83 -1,82 83 84 -1,84 83 85 -1,84 85 86 -1,85 87 86 -1,86 87 88 -1,86 88 89 -1,0 88 63 -1,63 88 90 -1,63 90 56 -1,56 90 91 -1,56 91 57 -1,57 91 92 -1,57 92 22 -1,22 92 93 -1,22 93 23 -1,23 93 94 -1,23 94 40 -1,40 94 95 -1,40 95 41 -1,41 95 96 -1,41 96 42 -1,42 96 97 -1,42 97 43 -1,43 97 98 -1,43 98 32 -1,98 99 32 -1,32 99 100 -1,32 100 28 -1,101 20 102 -1,102 20 38 -1,102 38 103 -1,103 38 67 -1,103 67 104 -1,104 67 66 -1,104 66 105 -1,105 66 65 -1,105 65 106 -1,106 65 64 -1,106 64 107 -1,107 64 51 -1,107 51 108 -1,108 51 50 -1,108 50 109 -1,109 50 49 -1,109 49 110 -1,110 49 48 -1,110 48 111 -1,48 39 111 -1,111 39 28 -1,111 28 112 -1,101 113 114 -1,114 113 115 -1,115 113 116 -1,116 113 117 -1,116 117 118 -1,118 117 119 -1,118 119 120 -1,120 119 121 -1,120 121 122 -1,122 121 123 -1,122 123 124 -1,124 123 125 -1,124 125 126 -1,126 125 127 -1,126 127 128 -1,128 127 129 -1,128 129 130 -1,129 131 130 -1,130 131 132 -1,130 132 133 -1,134 135 136 -1,137 138 139 -1,100 140 141 -1,142 140 100 -1,139 138 100 -1,143 100 138 -1,144 73 69 -1,73 144 75 -1,75 144 145 -1,75 145 77 -1,77 145 146 -1,77 146 79 -1,79 146 147 -1,79 147 81 -1,81 147 83 -1,83 147 148 -1,83 148 85 -1,85 148 87 -1,87 148 90 -1,87 90 88 -1,99 142 100 -1,149 150 137 -1,137 150 151 -1,137 151 138 -1,138 151 152 -1,138 152 143 -1,153 141 154 -1,154 141 140 -1,154 140 155 -1,155 140 142 -1,155 142 156 -1,99 98 142 -1,142 98 97 -1,142 97 156 -1,156 97 96 -1,156 96 95 -1,136 153 157 -1,157 153 154 -1,157 154 158 -1,158 154 155 -1,158 155 159 -1,159 155 156 -1,159 156 160 -1,160 156 95 -1,161 162 163 -1,163 162 134 -1,134 136 163 -1,163 136 157 -1,163 157 164 -1,164 157 158 -1,164 158 165 -1,165 158 159 -1,165 159 166 -1,166 159 160 -1,166 160 167 -1,135 149 136 -1,136 149 137 -1,136 137 153 -1,153 137 139 -1,153 139 141 -1,141 139 100 -1,161 144 168 -1,168 144 69 -1,168 69 68 -1,95 94 160 -1,160 94 93 -1,160 93 167 -1,167 93 92 -1,167 92 91 -1,161 163 144 -1,144 163 164 -1,144 164 145 -1,145 164 165 -1,145 165 146 -1,146 165 166 -1,146 166 147 -1,147 166 167 -1,147 167 148 -1,148 167 91 -1,148 91 90 -1,105 106 169 -1,170 171 172 -1,112 173 174 -1,175 173 112 -1,172 171 112 -1,111 112 171 -1,176 117 113 -1,117 176 119 -1,119 176 177 -1,119 177 121 -1,121 177 178 -1,121 178 123 -1,123 178 179 -1,123 179 125 -1,125 179 127 -1,127 179 180 -1,127 180 129 -1,129 180 131 -1,131 180 181 -1,131 181 132 -1,182 175 112 -1,107 108 170 -1,170 108 109 -1,170 109 171 -1,171 109 110 -1,171 110 111 -1,183 174 184 -1,184 174 173 -1,184 173 185 -1,185 173 175 -1,185 175 186 -1,182 187 175 -1,175 187 188 -1,175 188 186 -1,186 188 189 -1,186 189 190 -1,169 183 191 -1,191 183 184 -1,191 184 192 -1,192 184 185 -1,192 185 193 -1,193 185 186 -1,193 186 194 -1,194 186 190 -1,103 104 195 -1,195 104 105 -1,105 169 195 -1,195 169 191 -1,195 191 196 -1,196 191 192 -1,196 192 197 -1,197 192 193 -1,197 193 198 -1,198 193 194 -1,198 194 199 -1,106 107 169 -1,169 107 170 -1,169 170 183 -1,183 170 172 -1,183 172 174 -1,174 172 112 -1,103 176 102 -1,102 176 113 -1,102 113 101 -1,190 200 194 -1,194 200 201 -1,194 201 199 -1,199 201 202 -1,199 202 203 -1,103 195 176 -1,176 195 196 -1,176 196 177 -1,177 196 197 -1,177 197 178 -1,178 197 198 -1,178 198 179 -1,179 198 199 -1,179 199 180 -1,180 199 203 -1,180 203 181 -1,68 204 168 -1,168 204 205 -1,168 205 161 -1,161 205 206 -1,161 206 162 -1,162 206 207 -1,162 207 134 -1,134 207 208 -1,134 208 135 -1,135 208 209 -1,135 209 149 -1,149 209 210 -1,149 210 150 -1,150 210 211 -1,150 211 151 -1,151 211 212 -1,151 212 152 -1,152 212 213 -1,152 213 143 -1,213 214 143 -1,143 214 215 -1,143 215 100 -1,216 132 217 -1,217 132 181 -1,217 181 218 -1,218 181 203 -1,218 203 219 -1,219 203 202 -1,219 202 220 -1,220 202 201 -1,220 201 221 -1,221 201 200 -1,221 200 222 -1,222 200 190 -1,222 190 223 -1,223 190 189 -1,223 189 224 -1,224 189 188 -1,224 188 225 -1,225 188 187 -1,225 187 226 -1,187 182 226 -1,226 182 112 -1,226 112 215 -1,220 221 227 -1,228 229 230 -1,215 231 232 -1,233 231 215 -1,230 229 215 -1,226 215 229 -1,234 235 236 -1,235 234 237 -1,237 234 238 -1,237 238 239 -1,239 238 240 -1,239 240 241 -1,241 240 242 -1,241 242 243 -1,243 242 244 -1,244 242 245 -1,244 245 246 -1,246 245 247 -1,247 245 205 -1,247 205 204 -1,214 233 215 -1,222 223 228 -1,228 223 224 -1,228 224 229 -1,229 224 225 -1,229 225 226 -1,248 232 249 -1,249 232 231 -1,249 231 250 -1,250 231 233 -1,250 233 251 -1,214 213 233 -1,233 213 212 -1,233 212 251 -1,251 212 211 -1,251 211 210 -1,227 248 252 -1,252 248 249 -1,252 249 253 -1,253 249 250 -1,253 250 254 -1,254 250 251 -1,254 251 255 -1,255 251 210 -1,218 219 256 -1,256 219 220 -1,220 227 256 -1,256 227 252 -1,256 252 257 -1,257 252 253 -1,257 253 258 -1,258 253 254 -1,258 254 259 -1,259 254 255 -1,259 255 260 -1,221 222 227 -1,227 222 228 -1,227 228 248 -1,248 228 230 -1,248 230 232 -1,232 230 215 -1,218 234 217 -1,217 234 236 -1,217 236 216 -1,210 209 255 -1,255 209 208 -1,255 208 260 -1,260 208 207 -1,260 207 206 -1,218 256 234 -1,234 256 257 -1,234 257 238 -1,238 257 258 -1,238 258 240 -1,240 258 259 -1,240 259 242 -1,242 259 260 -1,242 260 245 -1,245 260 206 -1,245 206 205 -1,216 236 261 -1,261 236 262 -1,262 236 263 -1,263 236 235 -1,263 235 264 -1,264 235 237 -1,264 237 265 -1,265 237 239 -1,265 239 266 -1,266 239 241 -1,266 241 267 -1,267 241 243 -1,267 243 268 -1,268 243 244 -1,268 244 269 -1,269 244 246 -1,269 246 270 -1,246 247 270 -1,270 247 204 -1,270 204 271 -1,
        ]
    }
}