#VRML V2.0 utf8
# 3D model generated by Easy ECAD Downloader

Shape{
    appearance Appearance {
        material  Material {
            diffuseColor 0.8509803921568627 0.8509803921568627 0.8509803921568627
            specularColor 0.4235294117647059 0.4235294117647059 0.4235294117647059
            ambientIntensity 0.2
            transparency 0
            shininess 0.5
        }
    }
    geometry IndexedFaceSet {
        ccw TRUE
        solid FALSE
        coord DEF co Coordinate {
            point [
                -0.4626 -0.1850 0.0000, -0.6254 -0.1850 0.0000, -0.6254 -0.1044 0.0000, 0.1466 -0.1016 0.0000, 0.1640 -0.1044 0.0000, 0.1064 -0.1044 0.0000, 0.1256 0.0882 0.0000, 0.1064 0.6496 0.0000, 0.2067 0.3898 0.0000, 0.2067 0.6496 0.0000, 0.1256 0.0618 0.0000, 0.1256 -0.0714 0.0000, 0.1256 -0.0930 0.0000, 0.3897 0.0936 0.0000, 0.4626 0.6496 0.0000, 0.4626 0.0394 0.0000, 0.2457 -0.0069 0.0000, 0.2439 -0.0272 0.0000, 0.1717 0.0744 0.0000, 0.1911 0.0722 0.0000, 0.2447 0.0085 0.0000, 0.2058 0.0669 0.0000, 0.3897 -0.1032 0.0000, 0.6254 0.0394 0.0000, 0.6254 -0.1044 0.0000, 0.1478 0.0713 0.0000, 0.1762 -0.0840 0.0000, 0.1500 -0.0811 0.0000, 0.1292 -0.0734 0.0000, 0.2366 0.0739 0.0000, 0.2162 0.0869 0.0000, 0.1942 0.0939 0.0000, 0.2194 0.0578 0.0000, 0.2313 0.0447 0.0000, 0.2395 0.0295 0.0000, 0.2635 0.0377 0.0000, 0.2527 0.0568 0.0000, 0.3633 0.0936 0.0000, 0.3051 0.3898 0.0000, 0.3051 0.6496 0.0000, 0.2217 -0.0972 0.0000, 0.2889 -0.1032 0.0000, 0.2017 -0.1036 0.0000, 0.1928 -0.1044 0.0000, 0.2200 -0.0693 0.0000, 0.2078 -0.0772 0.0000, 0.1934 -0.0822 0.0000, 0.1720 0.0960 0.0000, 0.1484 0.0944 0.0000, 0.2385 -0.0447 0.0000, 0.2304 -0.0585 0.0000, 0.2377 -0.0875 0.0000, 0.2528 -0.0722 0.0000, 0.2889 -0.0816 0.0000, 0.2636 -0.0537 0.0000, 0.3633 -0.0816 0.0000, 0.2699 -0.0330 0.0000, 0.2721 -0.0085 0.0000, 0.2701 0.0150 0.0000, 0.4626 -0.1850 0.0000, 0.6254 -0.1850 0.0000, 0.4626 -0.2559 0.0000, 0.1064 -0.2559 0.0000, 0.1798 -0.1056 0.0000, 0.1695 -0.1053 0.0000, -0.2066 -0.0466 0.0000, -0.1960 -0.0646 0.0000, -0.2297 -0.1032 0.0000, -0.1802 -0.0806 0.0000, -0.0492 0.3898 0.0000, 0.0492 0.3898 0.0000, 0.0872 0.0936 0.0000, -0.0136 0.0720 0.0000, 0.0608 0.0720 0.0000, 0.0608 0.0072 0.0000, -0.2067 0.3898 0.0000, -0.2067 0.6496 0.0000, -0.0492 0.6496 0.0000, -0.0184 -0.1032 0.0000, 0.0872 -0.1032 0.0000, 0.0492 0.6496 0.0000, -0.3051 0.3898 0.0000, -0.3041 0.0936 0.0000, -0.3305 0.0936 0.0000, -0.1606 -0.0929 0.0000, -0.1380 -0.1005 0.0000, -0.1103 -0.1032 0.0000, -0.0568 0.0936 0.0000, -0.0088 0.0072 0.0000, -0.0088 -0.0144 0.0000, 0.0608 -0.0144 0.0000, 0.0608 -0.0816 0.0000, -0.0184 -0.0816 0.0000, -0.0568 -0.1032 0.0000, -0.0136 0.0936 0.0000, -0.4073 -0.1032 0.0000, -0.3785 -0.1032 0.0000, -0.3051 0.6496 0.0000, -0.4626 0.6496 0.0000, -0.4626 0.0394 0.0000, -0.6254 0.0394 0.0000, -0.2585 -0.1032 0.0000, -0.1363 0.0915 0.0000, -0.1590 0.0847 0.0000, -0.1809 0.0717 0.0000, -0.1971 0.0557 0.0000, -0.2071 0.0391 0.0000, -0.1124 0.0936 0.0000, -0.2132 0.0198 0.0000, -0.2153 -0.0023 0.0000, -0.2132 -0.0252 0.0000, -0.4626 -0.2559 0.0000, -0.2773 -0.0480 0.0000, -0.3586 -0.0480 0.0000, -0.3586 -0.0480 0.0000
            ]
        }
        coordIndex [
            0 1 2 -1,3 4 5 -1,6 7 8 -1,8 7 9 -1,6 10 7 -1,7 10 11 -1,7 11 5 -1,5 11 12 -1,5 12 3 -1,13 14 15 -1,10 16 17 -1,18 19 20 -1,20 19 21 -1,13 15 22 -1,22 15 23 -1,22 23 24 -1,16 10 20 -1,20 10 25 -1,20 25 18 -1,26 27 10 -1,10 27 28 -1,10 28 11 -1,29 30 8 -1,8 30 31 -1,21 32 20 -1,20 32 33 -1,20 33 34 -1,35 36 37 -1,36 29 37 -1,37 29 8 -1,37 8 13 -1,13 8 38 -1,13 38 14 -1,14 38 39 -1,40 41 42 -1,42 41 43 -1,44 45 10 -1,10 45 46 -1,10 46 26 -1,31 47 8 -1,8 47 48 -1,8 48 6 -1,17 49 10 -1,10 49 50 -1,10 50 44 -1,40 51 41 -1,41 51 52 -1,41 52 53 -1,53 52 54 -1,53 54 55 -1,54 56 55 -1,55 56 57 -1,55 57 37 -1,37 57 58 -1,37 58 35 -1,41 22 43 -1,43 22 24 -1,43 24 59 -1,59 24 60 -1,59 61 43 -1,43 61 62 -1,43 62 63 -1,63 62 64 -1,65 66 67 -1,67 66 68 -1,69 70 71 -1,72 73 74 -1,75 76 77 -1,78 79 5 -1,5 79 71 -1,5 71 7 -1,7 71 70 -1,7 70 80 -1,81 82 83 -1,68 84 67 -1,67 84 85 -1,67 85 86 -1,87 88 89 -1,90 91 89 -1,89 91 92 -1,89 92 87 -1,87 92 78 -1,87 78 93 -1,93 78 5 -1,77 69 75 -1,75 69 71 -1,75 71 81 -1,81 71 94 -1,81 94 72 -1,2 95 96 -1,97 81 98 -1,98 81 83 -1,98 83 99 -1,99 83 95 -1,99 95 100 -1,100 95 2 -1,101 67 5 -1,5 67 86 -1,5 86 93 -1,102 103 81 -1,81 103 104 -1,81 104 82 -1,82 104 105 -1,82 105 106 -1,74 88 72 -1,72 88 87 -1,72 87 81 -1,81 87 107 -1,81 107 102 -1,106 108 82 -1,82 108 109 -1,82 109 67 -1,67 109 110 -1,67 110 65 -1,111 5 62 -1,62 5 4 -1,62 4 64 -1,111 0 5 -1,5 0 2 -1,5 2 101 -1,101 2 96 -1,101 96 112 -1,112 96 113 -1,
        ]
    }
}
Shape{
    appearance Appearance {
        material  Material {
            diffuseColor 0.25098039215686274 0.25098039215686274 0.25098039215686274
            specularColor 0.12549019607843137 0.12549019607843137 0.12549019607843137
            ambientIntensity 0.2
            transparency 0
            shininess 0.5
        }
    }
    geometry IndexedFaceSet {
        ccw TRUE
        solid FALSE
        coord DEF co Coordinate {
            point [
                0.2067 0.3898 0.0039, 0.2067 0.5906 0.0039, 0.3051 0.3898 0.0039, 0.3051 0.5906 0.0039, -0.0492 0.3898 0.0039, -0.0492 0.5906 0.0039, 0.0492 0.3898 0.0039, 0.0492 0.5906 0.0039, -0.3051 0.3898 0.0039, -0.3051 0.5906 0.0039, -0.2067 0.3898 0.0039, -0.2067 0.5906 0.0039, -0.5906 0.0394 0.0039, -0.5906 0.5906 0.0039, -0.4626 0.0394 0.0039, -0.4626 0.5906 0.0039, -0.5906 -0.1850 0.0039, -0.4626 -0.1850 0.0039, -0.5906 -0.5906 0.0039, -0.4626 -0.2559 0.0039, 0.4626 -0.1850 0.0039, 0.5906 -0.1850 0.0039, 0.4626 -0.2559 0.0039, 0.5906 -0.5906 0.0039, 0.4626 -0.5906 0.0039, 0.4626 -0.3898 0.0039, 0.3051 -0.3898 0.0039, 0.0492 -0.3898 0.0039, 0.0492 -0.5906 0.0039, -0.0492 -0.5906 0.0039, -0.0492 -0.3898 0.0039, -0.2067 -0.3898 0.0039, 0.2067 -0.3898 0.0039, 0.2067 -0.5906 0.0039, 0.3051 -0.5906 0.0039, -0.4626 -0.5906 0.0039, -0.4626 -0.3898 0.0039, -0.3051 -0.3898 0.0039, -0.3051 -0.5906 0.0039, -0.2067 -0.5906 0.0039, 0.4626 0.5906 0.0039, 0.5906 0.5906 0.0039, 0.4626 0.0394 0.0039, 0.5906 0.0394 0.0039, 0.5906 0.0394 0.0787, 0.5906 0.5906 0.3189, 0.5906 -0.1850 0.0787, 0.5906 -0.5906 0.3189, -0.5906 -0.1850 0.0787, -0.5906 -0.5906 0.3189, -0.5906 0.0394 0.0787, -0.5906 0.5906 0.3189, -0.4626 -0.5906 0.0787, -0.3051 -0.5906 0.0787, -0.0492 -0.5906 0.0787, 0.0492 -0.5906 0.0787, 0.2067 -0.5906 0.0787, -0.2067 -0.5906 0.0787, 0.4626 -0.5906 0.0787, 0.3051 -0.5906 0.0787, 0.4626 0.5906 0.0787, 0.3051 0.5906 0.0787, -0.0492 0.5906 0.0787, -0.2067 0.5906 0.0787, 0.0492 0.5906 0.0787, 0.2067 0.5906 0.0787, -0.4626 0.5906 0.0787, -0.3051 0.5906 0.0787, -0.3551 -0.4385 0.3189, -0.3578 -0.4591 0.3189, -0.3658 -0.4783 0.3189, -0.3785 -0.4948 0.3189, -0.4554 -0.5155 0.3189, -0.4746 -0.5075 0.3189, -0.3950 -0.5075 0.3189, -0.4142 -0.5155 0.3189, -0.4348 -0.5182 0.3189, -0.4911 -0.4948 0.3189, -0.5038 -0.4783 0.3189, -0.5118 -0.4591 0.3189, -0.5145 -0.4385 0.3189, -0.5118 -0.4179 0.3189, -0.5038 -0.3987 0.3189, -0.4911 -0.3822 0.3189, -0.4746 -0.3695 0.3189, -0.4554 -0.3616 0.3189, -0.3950 -0.3695 0.3189, -0.4142 -0.3616 0.3189, -0.4348 -0.3588 0.3189, -0.3785 -0.3822 0.3189, -0.3658 -0.3987 0.3189, -0.3578 -0.4179 0.3189, -0.3578 -0.4179 0.3189
            ]
        }
        coordIndex [
            0 1 2 -1,2 1 3 -1,4 5 6 -1,6 5 7 -1,8 9 10 -1,10 9 11 -1,12 13 14 -1,14 13 15 -1,16 17 18 -1,18 17 19 -1,20 21 22 -1,22 21 23 -1,23 24 25 -1,23 25 22 -1,22 25 26 -1,22 26 19 -1,27 28 29 -1,30 31 19 -1,29 30 27 -1,27 30 19 -1,27 19 32 -1,32 19 26 -1,32 26 33 -1,33 26 34 -1,35 18 36 -1,36 18 19 -1,36 19 37 -1,37 19 31 -1,37 31 38 -1,38 31 39 -1,40 41 42 -1,42 41 43 -1,43 41 44 -1,44 41 45 -1,44 45 46 -1,46 45 47 -1,46 47 21 -1,21 47 23 -1,16 18 48 -1,48 18 49 -1,48 49 50 -1,50 49 51 -1,50 51 12 -1,12 51 13 -1,49 18 35 -1,35 52 49 -1,49 52 53 -1,49 53 47 -1,54 29 28 -1,55 56 47 -1,28 55 54 -1,54 55 47 -1,54 47 57 -1,57 47 53 -1,57 53 39 -1,39 53 38 -1,24 23 58 -1,58 23 47 -1,58 47 59 -1,59 47 56 -1,59 56 34 -1,34 56 33 -1,45 41 40 -1,40 60 45 -1,45 60 61 -1,45 61 51 -1,62 63 51 -1,64 7 5 -1,5 62 64 -1,64 62 51 -1,64 51 65 -1,65 51 61 -1,65 61 1 -1,1 61 3 -1,15 13 66 -1,66 13 51 -1,66 51 67 -1,67 51 63 -1,67 63 9 -1,9 63 11 -1,68 69 47 -1,47 69 70 -1,47 70 71 -1,49 72 73 -1,71 74 47 -1,47 74 75 -1,47 75 49 -1,49 75 76 -1,49 76 72 -1,73 77 49 -1,49 77 78 -1,49 78 79 -1,79 80 49 -1,49 80 81 -1,49 81 51 -1,51 81 82 -1,82 83 51 -1,51 83 84 -1,51 84 85 -1,86 45 87 -1,87 45 51 -1,87 51 88 -1,88 51 85 -1,86 89 45 -1,45 89 90 -1,45 90 47 -1,47 90 91 -1,47 91 68 -1,
        ]
    }
}
Shape{
    appearance Appearance {
        material  Material {
            diffuseColor 0.8509803921568627 0.8509803921568627 0.8509803921568627
            specularColor 0.4235294117647059 0.4235294117647059 0.4235294117647059
            ambientIntensity 0.2
            transparency 0
            shininess 0.5
        }
    }
    geometry IndexedFaceSet {
        ccw TRUE
        solid FALSE
        coord DEF co Coordinate {
            point [
                -0.3551 -0.4385 0.3110, -0.3551 -0.4385 0.3189, -0.3578 -0.4179 0.3110, -0.3578 -0.4179 0.3189, -0.3658 -0.3987 0.3110, -0.3658 -0.3987 0.3189, -0.3785 -0.3822 0.3110, -0.3785 -0.3822 0.3189, -0.3950 -0.3695 0.3110, -0.3950 -0.3695 0.3189, -0.4142 -0.3616 0.3110, -0.4142 -0.3616 0.3189, -0.4348 -0.3588 0.3110, -0.4348 -0.3588 0.3189, -0.4554 -0.3616 0.3110, -0.4554 -0.3616 0.3189, -0.4746 -0.3695 0.3110, -0.4746 -0.3695 0.3189, -0.4911 -0.3822 0.3110, -0.4911 -0.3822 0.3189, -0.5038 -0.3987 0.3110, -0.5038 -0.3987 0.3189, -0.5118 -0.4179 0.3110, -0.5118 -0.4179 0.3189, -0.5145 -0.4385 0.3110, -0.5145 -0.4385 0.3189, -0.5118 -0.4591 0.3110, -0.5118 -0.4591 0.3189, -0.5038 -0.4783 0.3110, -0.5038 -0.4783 0.3189, -0.4911 -0.4948 0.3110, -0.4911 -0.4948 0.3189, -0.4746 -0.5075 0.3110, -0.4746 -0.5075 0.3189, -0.4554 -0.5155 0.3110, -0.4554 -0.5155 0.3189, -0.4348 -0.5182 0.3110, -0.4348 -0.5182 0.3189, -0.4142 -0.5155 0.3110, -0.4142 -0.5155 0.3189, -0.3950 -0.5075 0.3110, -0.3950 -0.5075 0.3189, -0.3785 -0.4948 0.3110, -0.3785 -0.4948 0.3189, -0.3658 -0.4783 0.3110, -0.3658 -0.4783 0.3189, -0.3578 -0.4591 0.3110, -0.3578 -0.4591 0.3189, -0.4348 -0.4385 0.3110, -0.4626 -0.5906 0.0787, -0.4626 -0.6496 0.0787, -0.3051 -0.5906 0.0787, -0.3051 -0.6496 0.0787, -0.3051 -0.3898 0.0000, -0.3051 -0.3898 0.0039, -0.3051 -0.5906 0.0039, -0.3051 -0.6496 0.0000, -0.4626 -0.3898 0.0039, -0.4626 -0.3898 0.0000, -0.4626 -0.5906 0.0039, -0.4626 -0.6496 0.0000, -0.2067 -0.5906 0.0787, -0.2067 -0.6496 0.0787, -0.0492 -0.5906 0.0787, -0.0492 -0.6496 0.0787, -0.0492 -0.3898 0.0000, -0.0492 -0.3898 0.0039, -0.0492 -0.5906 0.0039, -0.0492 -0.6496 0.0000, -0.2067 -0.3898 0.0039, -0.2067 -0.3898 0.0000, -0.2067 -0.5906 0.0039, -0.2067 -0.6496 0.0000, 0.0492 -0.5906 0.0787, 0.0492 -0.6496 0.0787, 0.2067 -0.5906 0.0787, 0.2067 -0.6496 0.0787, 0.2067 -0.3898 0.0000, 0.2067 -0.3898 0.0039, 0.2067 -0.5906 0.0039, 0.2067 -0.6496 0.0000, 0.0492 -0.3898 0.0039, 0.0492 -0.3898 0.0000, 0.0492 -0.5906 0.0039, 0.0492 -0.6496 0.0000, 0.3051 -0.5906 0.0787, 0.3051 -0.6496 0.0787, 0.4626 -0.5906 0.0787, 0.4626 -0.6496 0.0787, 0.4626 -0.3898 0.0000, 0.4626 -0.3898 0.0039, 0.4626 -0.5906 0.0039, 0.4626 -0.6496 0.0000, 0.3051 -0.3898 0.0039, 0.3051 -0.3898 0.0000, 0.3051 -0.5906 0.0039, 0.3051 -0.6496 0.0000, -0.3051 0.5906 0.0787, -0.3051 0.6496 0.0787, -0.4626 0.5906 0.0787, -0.4626 0.6496 0.0787, -0.3051 0.3898 0.0039, -0.3051 0.3898 0.0000, -0.3051 0.5906 0.0039, -0.3051 0.6496 0.0000, -0.4626 0.6496 0.0000, -0.4626 0.0394 0.0000, -0.4626 0.0394 0.0039, -0.4626 0.5906 0.0039, -0.0492 0.5906 0.0787, -0.0492 0.6496 0.0787, -0.2067 0.5906 0.0787, -0.2067 0.6496 0.0787, -0.0492 0.3898 0.0039, -0.0492 0.3898 0.0000, -0.0492 0.5906 0.0039, -0.0492 0.6496 0.0000, -0.2067 0.6496 0.0000, -0.2067 0.3898 0.0000, -0.2067 0.3898 0.0039, -0.2067 0.5906 0.0039, 0.2067 0.5906 0.0787, 0.2067 0.6496 0.0787, 0.0492 0.5906 0.0787, 0.0492 0.6496 0.0787, 0.2067 0.3898 0.0039, 0.2067 0.3898 0.0000, 0.2067 0.5906 0.0039, 0.2067 0.6496 0.0000, 0.1064 0.6496 0.0000, 0.0492 0.6496 0.0000, 0.0492 0.3898 0.0000, 0.0492 0.3898 0.0039, 0.0492 0.5906 0.0039, 0.4626 0.5906 0.0787, 0.4626 0.6496 0.0787, 0.3051 0.5906 0.0787, 0.3051 0.6496 0.0787, 0.4626 0.0394 0.0039, 0.4626 0.0394 0.0000, 0.4626 0.5906 0.0039, 0.4626 0.6496 0.0000, 0.3051 0.6496 0.0000, 0.3051 0.3898 0.0000, 0.3051 0.3898 0.0039, 0.3051 0.5906 0.0039, 0.6254 -0.1850 0.0787, 0.6254 0.0394 0.0787, 0.5906 -0.1850 0.0787, 0.5906 0.0394 0.0787, -0.6254 0.0394 0.0787, -0.6254 -0.1850 0.0787, -0.5906 0.0394 0.0787, -0.5906 -0.1850 0.0787, -0.5906 0.0394 0.0039, -0.6254 0.0394 0.0000, -0.6254 -0.1044 0.0000, -0.6254 -0.1850 0.0000, -0.4626 -0.1850 0.0000, -0.4626 -0.1850 0.0039, -0.5906 -0.1850 0.0039, -0.4626 -0.2559 0.0000, -0.4626 -0.2559 0.0039, 0.4626 -0.2559 0.0000, 0.4626 -0.2559 0.0039, 0.1064 -0.2559 0.0000, 0.4626 -0.1850 0.0000, 0.4626 -0.1850 0.0039, 0.5906 -0.1850 0.0039, 0.6254 -0.1850 0.0000, 0.6254 0.0394 0.0000, 0.6254 -0.1044 0.0000, 0.5906 0.0394 0.0039, 0.5906 0.0394 0.0039
            ]
        }
        coordIndex [
            0 1 2 -1,2 1 3 -1,2 3 4 -1,4 3 5 -1,4 5 6 -1,6 5 7 -1,6 7 8 -1,8 7 9 -1,8 9 10 -1,10 9 11 -1,10 11 12 -1,12 11 13 -1,12 13 14 -1,14 13 15 -1,14 15 16 -1,16 15 17 -1,16 17 18 -1,18 17 19 -1,18 19 20 -1,20 19 21 -1,20 21 22 -1,22 21 23 -1,22 23 24 -1,24 23 25 -1,24 25 26 -1,26 25 27 -1,26 27 28 -1,28 27 29 -1,28 29 30 -1,30 29 31 -1,30 31 32 -1,32 31 33 -1,32 33 34 -1,34 33 35 -1,34 35 36 -1,36 35 37 -1,36 37 38 -1,38 37 39 -1,38 39 40 -1,40 39 41 -1,40 41 42 -1,42 41 43 -1,42 43 44 -1,44 43 45 -1,44 45 46 -1,46 45 47 -1,46 47 0 -1,0 47 1 -1,44 46 48 -1,48 46 0 -1,48 0 2 -1,38 40 48 -1,48 40 42 -1,48 42 44 -1,32 34 48 -1,48 34 36 -1,48 36 38 -1,26 28 48 -1,48 28 30 -1,48 30 32 -1,20 22 48 -1,48 22 24 -1,48 24 26 -1,14 16 48 -1,48 16 18 -1,48 18 20 -1,8 10 48 -1,48 10 12 -1,48 12 14 -1,2 4 48 -1,48 4 6 -1,48 6 8 -1,49 50 51 -1,51 50 52 -1,53 54 55 -1,51 52 55 -1,55 52 56 -1,55 56 53 -1,57 58 59 -1,59 58 60 -1,59 60 49 -1,49 60 50 -1,53 58 54 -1,54 58 57 -1,52 50 56 -1,56 50 60 -1,60 58 56 -1,56 58 53 -1,61 62 63 -1,63 62 64 -1,65 66 67 -1,63 64 67 -1,67 64 68 -1,67 68 65 -1,69 70 71 -1,71 70 72 -1,71 72 61 -1,61 72 62 -1,65 70 66 -1,66 70 69 -1,64 62 68 -1,68 62 72 -1,72 70 68 -1,68 70 65 -1,73 74 75 -1,75 74 76 -1,77 78 79 -1,75 76 79 -1,79 76 80 -1,79 80 77 -1,81 82 83 -1,83 82 84 -1,83 84 73 -1,73 84 74 -1,77 82 78 -1,78 82 81 -1,76 74 80 -1,80 74 84 -1,84 82 80 -1,80 82 77 -1,85 86 87 -1,87 86 88 -1,89 90 91 -1,87 88 91 -1,91 88 92 -1,91 92 89 -1,93 94 95 -1,95 94 96 -1,95 96 85 -1,85 96 86 -1,89 94 90 -1,90 94 93 -1,88 86 92 -1,92 86 96 -1,96 94 92 -1,92 94 89 -1,97 98 99 -1,99 98 100 -1,101 102 103 -1,103 102 104 -1,103 104 97 -1,97 104 98 -1,100 98 105 -1,105 98 104 -1,106 107 108 -1,99 100 108 -1,108 100 105 -1,108 105 106 -1,109 110 111 -1,111 110 112 -1,113 114 115 -1,115 114 116 -1,115 116 109 -1,109 116 110 -1,112 110 117 -1,117 110 116 -1,118 119 120 -1,111 112 120 -1,120 112 117 -1,120 117 118 -1,121 122 123 -1,123 122 124 -1,125 126 127 -1,127 126 128 -1,127 128 121 -1,121 128 122 -1,122 128 124 -1,124 128 129 -1,124 129 130 -1,131 132 133 -1,123 124 133 -1,133 124 130 -1,133 130 131 -1,134 135 136 -1,136 135 137 -1,138 139 140 -1,140 139 141 -1,140 141 134 -1,134 141 135 -1,137 135 142 -1,142 135 141 -1,143 144 145 -1,136 137 145 -1,145 137 142 -1,145 142 143 -1,146 147 148 -1,148 147 149 -1,150 151 152 -1,152 151 153 -1,119 118 101 -1,101 118 102 -1,132 131 113 -1,113 131 114 -1,144 143 125 -1,125 143 126 -1,107 106 154 -1,154 106 155 -1,154 155 152 -1,152 155 150 -1,150 155 151 -1,151 155 156 -1,151 156 157 -1,158 159 160 -1,153 151 160 -1,160 151 157 -1,160 157 158 -1,158 161 159 -1,159 161 162 -1,163 164 165 -1,165 164 162 -1,165 162 161 -1,163 166 164 -1,164 166 167 -1,167 166 168 -1,168 166 169 -1,168 169 148 -1,148 169 146 -1,170 147 171 -1,171 147 146 -1,171 146 169 -1,139 138 172 -1,149 147 172 -1,172 147 170 -1,172 170 139 -1,
        ]
    }
}
Shape{
    appearance Appearance {
        material  Material {
            diffuseColor 1.0 1.0 1.0
            specularColor 0.8784313725490196 0.8784313725490196 0.8784313725490196
            ambientIntensity 0.2
            transparency 0
            shininess 0.5
        }
    }
    geometry IndexedFaceSet {
        ccw TRUE
        solid FALSE
        coord DEF co Coordinate {
            point [
                -0.3305 0.0936 0.0039, -0.4073 -0.1032 0.0039, -0.3305 0.0936 0.0000, -0.4073 -0.1032 0.0000, -0.3785 -0.1032 0.0039, -0.3785 -0.1032 0.0000, -0.3586 -0.0480 0.0039, -0.3586 -0.0480 0.0000, -0.2773 -0.0480 0.0039, -0.2773 -0.0480 0.0000, -0.2585 -0.1032 0.0039, -0.2585 -0.1032 0.0000, -0.2297 -0.1032 0.0039, -0.2297 -0.1032 0.0000, -0.3041 0.0936 0.0039, -0.3041 0.0936 0.0000, -0.2839 -0.0264 0.0039, -0.3497 -0.0264 0.0039, -0.3133 0.0558 0.0039, -0.3152 0.0626 0.0039, -0.3164 0.0696 0.0039, -0.3171 0.0696 0.0039, -0.3183 0.0627 0.0039, -0.3201 0.0558 0.0039, -0.2839 -0.0264 0.0000, -0.3497 -0.0264 0.0000, -0.3133 0.0558 0.0000, -0.3152 0.0626 0.0000, -0.3164 0.0696 0.0000, -0.3171 0.0696 0.0000, -0.3183 0.0627 0.0000, -0.3201 0.0558 0.0000, -0.1103 -0.1032 0.0039, -0.0568 -0.1032 0.0039, -0.1103 -0.1032 0.0000, -0.0568 -0.1032 0.0000, -0.0568 0.0936 0.0039, -0.0568 0.0936 0.0000, -0.1124 0.0936 0.0039, -0.1124 0.0936 0.0000, -0.2153 -0.0023 0.0039, -0.2153 -0.0023 0.0000, -0.2132 0.0198 0.0000, -0.2132 0.0198 0.0039, -0.2071 0.0391 0.0000, -0.2071 0.0391 0.0039, -0.1971 0.0557 0.0000, -0.1971 0.0557 0.0039, -0.1809 0.0717 0.0000, -0.1809 0.0717 0.0039, -0.1590 0.0847 0.0000, -0.1590 0.0847 0.0039, -0.1363 0.0915 0.0000, -0.1363 0.0915 0.0039, -0.1380 -0.1005 0.0000, -0.1380 -0.1005 0.0039, -0.1606 -0.0929 0.0000, -0.1606 -0.0929 0.0039, -0.1802 -0.0806 0.0000, -0.1802 -0.0806 0.0039, -0.1960 -0.0646 0.0000, -0.1960 -0.0646 0.0039, -0.2066 -0.0466 0.0000, -0.2066 -0.0466 0.0039, -0.2132 -0.0252 0.0000, -0.2132 -0.0252 0.0039, -0.1888 -0.0029 0.0039, -0.1888 -0.0030 0.0039, -0.1863 -0.0270 0.0039, -0.1811 -0.0424 0.0039, -0.1727 -0.0559 0.0039, -0.1616 -0.0668 0.0039, -0.1481 -0.0747 0.0039, -0.1310 -0.0799 0.0039, -0.1112 -0.0816 0.0039, -0.0832 -0.0816 0.0039, -0.0832 0.0720 0.0039, -0.1123 0.0720 0.0039, -0.1356 0.0695 0.0039, -0.1518 0.0638 0.0039, -0.1662 0.0545 0.0039, -0.1758 0.0444 0.0039, -0.1826 0.0322 0.0039, -0.1873 0.0162 0.0039, -0.1123 0.0720 0.0000, -0.0832 0.0720 0.0000, -0.1356 0.0695 0.0000, -0.1518 0.0638 0.0000, -0.1662 0.0545 0.0000, -0.1758 0.0444 0.0000, -0.1826 0.0322 0.0000, -0.1873 0.0162 0.0000, -0.1888 -0.0029 0.0000, -0.1888 -0.0030 0.0000, -0.1863 -0.0270 0.0000, -0.1811 -0.0424 0.0000, -0.1727 -0.0559 0.0000, -0.1616 -0.0668 0.0000, -0.1481 -0.0747 0.0000, -0.1310 -0.0799 0.0000, -0.1112 -0.0816 0.0000, -0.0832 -0.0816 0.0000, -0.0184 -0.0816 0.0039, -0.0184 -0.1032 0.0039, -0.0184 -0.0816 0.0000, -0.0184 -0.1032 0.0000, 0.0872 -0.1032 0.0039, 0.0872 -0.1032 0.0000, 0.0872 0.0936 0.0039, 0.0872 0.0936 0.0000, -0.0136 0.0936 0.0039, -0.0136 0.0936 0.0000, -0.0136 0.0720 0.0039, -0.0136 0.0720 0.0000, 0.0608 0.0720 0.0039, 0.0608 0.0720 0.0000, 0.0608 0.0072 0.0039, 0.0608 0.0072 0.0000, -0.0088 0.0072 0.0039, -0.0088 0.0072 0.0000, -0.0088 -0.0144 0.0039, -0.0088 -0.0144 0.0000, 0.0608 -0.0144 0.0039, 0.0608 -0.0144 0.0000, 0.0608 -0.0816 0.0039, 0.0608 -0.0816 0.0000, 0.1256 -0.0714 0.0039, 0.1256 -0.0930 0.0039, 0.1256 -0.0714 0.0000, 0.1256 -0.0930 0.0000, 0.1466 -0.1016 0.0039, 0.1798 -0.1056 0.0039, 0.1798 -0.1056 0.0000, 0.1695 -0.1053 0.0000, 0.1695 -0.1053 0.0039, 0.1640 -0.1044 0.0000, 0.1466 -0.1016 0.0000, 0.1928 -0.1044 0.0000, 0.2017 -0.1036 0.0039, 0.2017 -0.1036 0.0000, 0.2217 -0.0972 0.0039, 0.2217 -0.0972 0.0000, 0.2377 -0.0875 0.0039, 0.2377 -0.0875 0.0000, 0.2528 -0.0722 0.0039, 0.2528 -0.0722 0.0000, 0.2636 -0.0537 0.0039, 0.2636 -0.0537 0.0000, 0.2699 -0.0330 0.0039, 0.2699 -0.0330 0.0000, 0.2721 -0.0085 0.0039, 0.2721 -0.0085 0.0000, 0.1720 0.0960 0.0039, 0.1720 0.0960 0.0000, 0.1942 0.0939 0.0000, 0.1942 0.0939 0.0039, 0.2162 0.0869 0.0000, 0.2162 0.0869 0.0039, 0.2366 0.0739 0.0000, 0.2366 0.0739 0.0039, 0.2527 0.0568 0.0000, 0.2527 0.0568 0.0039, 0.2635 0.0377 0.0000, 0.2635 0.0377 0.0039, 0.2701 0.0150 0.0000, 0.2701 0.0150 0.0039, 0.1256 0.0882 0.0039, 0.1256 0.0882 0.0000, 0.1484 0.0944 0.0000, 0.1484 0.0944 0.0039, 0.1256 0.0618 0.0039, 0.1256 0.0618 0.0000, 0.1717 0.0744 0.0039, 0.1717 0.0744 0.0000, 0.1478 0.0713 0.0000, 0.1478 0.0713 0.0039, 0.2457 -0.0069 0.0039, 0.2457 -0.0069 0.0000, 0.2447 0.0085 0.0000, 0.2447 0.0085 0.0039, 0.2395 0.0295 0.0000, 0.2395 0.0295 0.0039, 0.2313 0.0447 0.0000, 0.2313 0.0447 0.0039, 0.2194 0.0578 0.0000, 0.2194 0.0578 0.0039, 0.2058 0.0669 0.0000, 0.2058 0.0669 0.0039, 0.1911 0.0722 0.0000, 0.1911 0.0722 0.0039, 0.1762 -0.0840 0.0039, 0.1762 -0.0840 0.0000, 0.1934 -0.0822 0.0000, 0.1934 -0.0822 0.0039, 0.2078 -0.0772 0.0000, 0.2078 -0.0772 0.0039, 0.2200 -0.0693 0.0000, 0.2200 -0.0693 0.0039, 0.2304 -0.0585 0.0000, 0.2304 -0.0585 0.0039, 0.2385 -0.0447 0.0000, 0.2385 -0.0447 0.0039, 0.2439 -0.0272 0.0000, 0.2439 -0.0272 0.0039, 0.1292 -0.0734 0.0000, 0.1292 -0.0734 0.0039, 0.1500 -0.0811 0.0000, 0.1500 -0.0811 0.0039, 0.2889 -0.0816 0.0039, 0.2889 -0.1032 0.0039, 0.2889 -0.0816 0.0000, 0.2889 -0.1032 0.0000, 0.3897 -0.1032 0.0039, 0.3897 -0.1032 0.0000, 0.3897 0.0936 0.0039, 0.3897 0.0936 0.0000, 0.3633 0.0936 0.0039, 0.3633 0.0936 0.0000, 0.3633 -0.0816 0.0039, 0.3633 -0.0816 0.0000, 0.3633 -0.0816 0.0000
            ]
        }
        coordIndex [
            0 1 2 -1,2 1 3 -1,1 4 3 -1,3 4 5 -1,4 6 5 -1,5 6 7 -1,6 8 7 -1,7 8 9 -1,8 10 9 -1,9 10 11 -1,10 12 11 -1,11 12 13 -1,12 14 13 -1,13 14 15 -1,14 0 15 -1,15 0 2 -1,16 8 17 -1,17 8 6 -1,18 14 16 -1,16 14 12 -1,16 12 8 -1,8 12 10 -1,18 19 14 -1,14 19 20 -1,14 20 0 -1,0 20 21 -1,0 21 22 -1,22 23 0 -1,0 23 17 -1,0 17 1 -1,1 17 6 -1,1 6 4 -1,16 17 24 -1,24 17 25 -1,18 16 26 -1,26 16 24 -1,18 26 27 -1,18 27 19 -1,19 27 28 -1,19 28 20 -1,21 20 29 -1,29 20 28 -1,21 29 30 -1,21 30 22 -1,22 30 31 -1,22 31 23 -1,17 23 25 -1,25 23 31 -1,32 33 34 -1,34 33 35 -1,33 36 35 -1,35 36 37 -1,36 38 37 -1,37 38 39 -1,40 41 42 -1,40 42 43 -1,43 42 44 -1,43 44 45 -1,45 44 46 -1,45 46 47 -1,47 46 48 -1,47 48 49 -1,49 48 50 -1,49 50 51 -1,51 50 52 -1,51 52 53 -1,53 52 39 -1,53 39 38 -1,32 34 54 -1,32 54 55 -1,55 54 56 -1,55 56 57 -1,57 56 58 -1,57 58 59 -1,59 58 60 -1,59 60 61 -1,61 60 62 -1,61 62 63 -1,63 62 64 -1,63 64 65 -1,65 64 41 -1,65 41 40 -1,66 67 65 -1,65 67 68 -1,65 68 63 -1,63 68 69 -1,63 69 61 -1,61 69 70 -1,61 70 59 -1,59 70 71 -1,59 71 57 -1,57 71 72 -1,57 72 55 -1,55 72 73 -1,55 73 32 -1,32 73 74 -1,32 74 33 -1,33 74 75 -1,33 75 36 -1,36 75 76 -1,36 76 38 -1,38 76 77 -1,38 77 53 -1,53 77 78 -1,53 78 51 -1,51 78 79 -1,51 79 49 -1,49 79 80 -1,49 80 47 -1,47 80 81 -1,47 81 45 -1,45 81 82 -1,45 82 43 -1,43 82 83 -1,43 83 40 -1,40 83 66 -1,40 66 65 -1,77 76 84 -1,84 76 85 -1,77 84 86 -1,77 86 78 -1,78 86 87 -1,78 87 79 -1,79 87 88 -1,79 88 80 -1,80 88 89 -1,80 89 81 -1,81 89 90 -1,81 90 82 -1,82 90 91 -1,82 91 83 -1,83 91 92 -1,83 92 66 -1,66 92 93 -1,66 93 67 -1,67 93 94 -1,67 94 68 -1,68 94 95 -1,68 95 69 -1,69 95 96 -1,69 96 70 -1,70 96 97 -1,70 97 71 -1,71 97 98 -1,71 98 72 -1,72 98 99 -1,72 99 73 -1,73 99 100 -1,73 100 74 -1,75 74 101 -1,101 74 100 -1,76 75 85 -1,85 75 101 -1,102 103 104 -1,104 103 105 -1,103 106 105 -1,105 106 107 -1,106 108 107 -1,107 108 109 -1,108 110 109 -1,109 110 111 -1,110 112 111 -1,111 112 113 -1,112 114 113 -1,113 114 115 -1,114 116 115 -1,115 116 117 -1,116 118 117 -1,117 118 119 -1,118 120 119 -1,119 120 121 -1,120 122 121 -1,121 122 123 -1,122 124 123 -1,123 124 125 -1,124 102 125 -1,125 102 104 -1,106 103 102 -1,102 124 106 -1,106 124 122 -1,106 122 108 -1,112 110 114 -1,114 110 108 -1,114 108 116 -1,116 108 122 -1,116 122 118 -1,118 122 120 -1,126 127 128 -1,128 127 129 -1,129 127 130 -1,131 132 133 -1,131 133 134 -1,134 133 135 -1,134 135 130 -1,130 135 136 -1,130 136 129 -1,132 131 137 -1,137 131 138 -1,137 138 139 -1,139 138 140 -1,139 140 141 -1,141 140 142 -1,141 142 143 -1,143 142 144 -1,143 144 145 -1,145 144 146 -1,145 146 147 -1,147 146 148 -1,147 148 149 -1,149 148 150 -1,149 150 151 -1,152 153 154 -1,152 154 155 -1,155 154 156 -1,155 156 157 -1,157 156 158 -1,157 158 159 -1,159 158 160 -1,159 160 161 -1,161 160 162 -1,161 162 163 -1,163 162 164 -1,163 164 165 -1,165 164 151 -1,165 151 150 -1,166 167 168 -1,166 168 169 -1,169 168 153 -1,169 153 152 -1,166 170 167 -1,167 170 171 -1,172 173 174 -1,172 174 175 -1,175 174 171 -1,175 171 170 -1,176 177 178 -1,176 178 179 -1,179 178 180 -1,179 180 181 -1,181 180 182 -1,181 182 183 -1,183 182 184 -1,183 184 185 -1,185 184 186 -1,185 186 187 -1,187 186 188 -1,187 188 189 -1,189 188 173 -1,189 173 172 -1,190 191 192 -1,190 192 193 -1,193 192 194 -1,193 194 195 -1,195 194 196 -1,195 196 197 -1,197 196 198 -1,197 198 199 -1,199 198 200 -1,199 200 201 -1,201 200 202 -1,201 202 203 -1,203 202 177 -1,203 177 176 -1,126 128 204 -1,126 204 205 -1,205 204 206 -1,205 206 207 -1,207 206 191 -1,207 191 190 -1,190 134 207 -1,207 134 130 -1,207 130 205 -1,205 130 127 -1,205 127 126 -1,170 166 175 -1,175 166 169 -1,175 169 172 -1,172 169 152 -1,172 152 189 -1,189 152 155 -1,189 155 187 -1,187 155 157 -1,187 157 185 -1,185 157 159 -1,185 159 183 -1,183 159 161 -1,183 161 181 -1,181 161 163 -1,181 163 179 -1,179 163 165 -1,179 165 176 -1,176 165 150 -1,176 150 203 -1,203 150 148 -1,203 148 201 -1,201 148 146 -1,201 146 199 -1,199 146 144 -1,199 144 197 -1,197 144 142 -1,197 142 195 -1,195 142 140 -1,195 140 193 -1,193 140 138 -1,193 138 190 -1,190 138 131 -1,190 131 134 -1,208 209 210 -1,210 209 211 -1,209 212 211 -1,211 212 213 -1,212 214 213 -1,213 214 215 -1,214 216 215 -1,215 216 217 -1,216 218 217 -1,217 218 219 -1,218 208 219 -1,219 208 210 -1,216 214 218 -1,218 214 212 -1,218 212 208 -1,208 212 209 -1,
        ]
    }
}
Shape{
    appearance Appearance {
        material  Material {
            diffuseColor 0.8509803921568627 0.8509803921568627 0.8509803921568627
            specularColor 0.4235294117647059 0.4235294117647059 0.4235294117647059
            ambientIntensity 0.2
            transparency 0
            shininess 0.5
        }
    }
    geometry IndexedFaceSet {
        ccw TRUE
        solid FALSE
        coord DEF co Coordinate {
            point [
                -0.2839 -0.0264 0.0000, -0.3497 -0.0264 0.0000, -0.3133 0.0558 0.0000, -0.3201 0.0558 0.0000, -0.3152 0.0626 0.0000, -0.3183 0.0627 0.0000, -0.3164 0.0696 0.0000, -0.3171 0.0696 0.0000, -0.1356 0.0695 0.0000, -0.1123 0.0720 0.0000, -0.1826 0.0322 0.0000, -0.1811 -0.0424 0.0000, -0.1863 -0.0270 0.0000, -0.0832 0.0720 0.0000, -0.1888 -0.0030 0.0000, -0.1888 -0.0029 0.0000, -0.1873 0.0162 0.0000, -0.0832 -0.0816 0.0000, -0.1112 -0.0816 0.0000, -0.1310 -0.0799 0.0000, -0.1481 -0.0747 0.0000, -0.1616 -0.0668 0.0000, -0.1727 -0.0559 0.0000, -0.1758 0.0444 0.0000, -0.1662 0.0545 0.0000, -0.1518 0.0638 0.0000, -0.1518 0.0638 0.0000
            ]
        }
        coordIndex [
            0 1 2 -1,2 1 3 -1,2 3 4 -1,4 3 5 -1,4 5 6 -1,6 5 7 -1,8 9 10 -1,11 12 13 -1,12 14 13 -1,13 14 15 -1,13 15 9 -1,9 15 16 -1,9 16 10 -1,17 18 13 -1,13 18 19 -1,13 19 20 -1,20 21 13 -1,13 21 22 -1,13 22 11 -1,23 24 10 -1,10 24 25 -1,10 25 8 -1,
        ]
    }
}