%TF.GenerationSoftware,KiCad,Pcbnew,10.0.0*%
%TF.CreationDate,2026-06-21T06:51:05+07:00*%
%TF.ProjectId,FindMyCharger,46696e64-4d79-4436-9861-726765722e6b,rev?*%
%TF.SameCoordinates,Original*%
%TF.FileFunction,Copper,L4,Bot*%
%TF.FilePolarity,Positive*%
%FSLAX46Y46*%
G04 Gerber Fmt 4.6, Leading zero omitted, Abs format (unit mm)*
G04 Created by KiCad (PCBNEW 10.0.0) date 2026-06-21 06:51:05*
%MOMM*%
%LPD*%
G01*
G04 APERTURE LIST*
G04 Aperture macros list*
%AMRoundRect*
0 Rectangle with rounded corners*
0 $1 Rounding radius*
0 $2 $3 $4 $5 $6 $7 $8 $9 X,Y pos of 4 corners*
0 Add a 4 corners polygon primitive as box body*
4,1,4,$2,$3,$4,$5,$6,$7,$8,$9,$2,$3,0*
0 Add four circle primitives for the rounded corners*
1,1,$1+$1,$2,$3*
1,1,$1+$1,$4,$5*
1,1,$1+$1,$6,$7*
1,1,$1+$1,$8,$9*
0 Add four rect primitives between the rounded corners*
20,1,$1+$1,$2,$3,$4,$5,0*
20,1,$1+$1,$4,$5,$6,$7,0*
20,1,$1+$1,$6,$7,$8,$9,0*
20,1,$1+$1,$8,$9,$2,$3,0*%
G04 Aperture macros list end*
%TA.AperFunction,ComponentPad*%
%ADD10RoundRect,0.250000X0.600000X0.600000X-0.600000X0.600000X-0.600000X-0.600000X0.600000X-0.600000X0*%
%TD*%
%TA.AperFunction,ComponentPad*%
%ADD11C,1.700000*%
%TD*%
%TA.AperFunction,ComponentPad*%
%ADD12C,2.500000*%
%TD*%
%TA.AperFunction,ComponentPad*%
%ADD13C,2.000000*%
%TD*%
%TA.AperFunction,HeatsinkPad*%
%ADD14C,0.500000*%
%TD*%
%TA.AperFunction,HeatsinkPad*%
%ADD15R,4.100000X4.100000*%
%TD*%
%TA.AperFunction,ComponentPad*%
%ADD16R,0.900000X0.500000*%
%TD*%
%TA.AperFunction,ComponentPad*%
%ADD17O,2.100000X1.000000*%
%TD*%
%TA.AperFunction,ComponentPad*%
%ADD18O,1.800000X1.000000*%
%TD*%
%TA.AperFunction,ComponentPad*%
%ADD19C,0.499999*%
%TD*%
%TA.AperFunction,ComponentPad*%
%ADD20R,2.500000X2.500000*%
%TD*%
%TA.AperFunction,ComponentPad*%
%ADD21C,1.600000*%
%TD*%
%TA.AperFunction,ComponentPad*%
%ADD22RoundRect,0.250000X-0.550000X-0.550000X0.550000X-0.550000X0.550000X0.550000X-0.550000X0.550000X0*%
%TD*%
%TA.AperFunction,ViaPad*%
%ADD23C,0.600000*%
%TD*%
%TA.AperFunction,Conductor*%
%ADD24C,0.200000*%
%TD*%
%TA.AperFunction,Conductor*%
%ADD25C,0.100000*%
%TD*%
G04 APERTURE END LIST*
D10*
%TO.P,SW2,1,1_1*%
%TO.N,Net-(R57-Pad2)*%
X99600000Y-138500000D03*
D11*
%TO.P,SW2,2,2_2*%
%TO.N,GND*%
X95900000Y-138500000D03*
%TD*%
D12*
%TO.P,H6,1,1_1*%
%TO.N,Net-(U3-GPIO2_I2C_SCL2)*%
X118300000Y-120150000D03*
%TD*%
%TO.P,H16,1,1_1*%
%TO.N,Net-(U4-SWDIO)*%
X150500000Y-127500000D03*
%TD*%
D13*
%TO.P,SW1,1,1_1*%
%TO.N,N/C*%
X137750000Y-101000000D03*
X137750000Y-94500000D03*
%TO.P,SW1,2,2_2*%
X142250000Y-101000000D03*
X142250000Y-94500000D03*
%TD*%
D12*
%TO.P,H4,1,1_1*%
%TO.N,Net-(U3-GPIO1_IRQ2(o))*%
X111250000Y-121000000D03*
%TD*%
%TO.P,H13,1,1_1*%
%TO.N,Net-(U4-SWDCLK)*%
X147500000Y-123750000D03*
%TD*%
D10*
%TO.P,TH1,1*%
%TO.N,OUTPUT_LDO_3V3*%
X107600000Y-138500000D03*
D11*
%TO.P,TH1,2*%
%TO.N,OUTPUT_NTC*%
X103900000Y-138500000D03*
%TD*%
D12*
%TO.P,H9,1,1_1*%
%TO.N,N/C*%
X151500000Y-122500000D03*
%TD*%
D14*
%TO.P,U4,49,VSS_49*%
%TO.N,GND*%
X154170000Y-116170000D03*
X154170000Y-117370000D03*
X154170000Y-118570000D03*
X154170000Y-119770000D03*
X155370000Y-116170000D03*
X155370000Y-117370000D03*
X155370000Y-118570000D03*
X155370000Y-119770000D03*
D15*
X155970000Y-117970000D03*
D14*
X156570000Y-116170000D03*
X156570000Y-117370000D03*
X156570000Y-118570000D03*
X156570000Y-119770000D03*
X157770000Y-116170000D03*
X157770000Y-117370000D03*
X157770000Y-118570000D03*
X157770000Y-119770000D03*
%TD*%
D16*
%TO.P,AE1,2*%
%TO.N,N/C*%
X161850000Y-135250000D03*
%TD*%
D12*
%TO.P,H14,1,1_1*%
%TO.N,OUTPUT_SDA1*%
X100500000Y-128000000D03*
%TD*%
%TO.P,H7,1,1_1*%
%TO.N,OUTPUT_LDO_3V3*%
X140500000Y-135500000D03*
%TD*%
%TO.P,H12,1,1_1*%
%TO.N,Net-(H12-Pad1)*%
X119000000Y-101500000D03*
%TD*%
D17*
%TO.P,J2,SH,SHIELD_SH*%
%TO.N,GND*%
X95885000Y-127180000D03*
D18*
X91735000Y-127180000D03*
D17*
X95885000Y-135820000D03*
D18*
X91735000Y-135820000D03*
%TD*%
D12*
%TO.P,H2,1,1_1*%
%TO.N,CHG_SCL*%
X94600000Y-87250000D03*
%TD*%
D13*
%TO.P,SW3,1,1_1*%
%TO.N,N/C*%
X96750000Y-116250000D03*
X96750000Y-109750000D03*
%TO.P,SW3,2,2_2*%
X101250000Y-116250000D03*
X101250000Y-109750000D03*
%TD*%
D19*
%TO.P,U1,41*%
%TO.N,N/C*%
X109999999Y-91409999D03*
%TO.P,U1,42*%
X107850001Y-91409999D03*
%TO.P,U1,43*%
X108925000Y-91409999D03*
%TO.P,U1,44*%
X108925000Y-89995001D03*
%TO.P,U1,45*%
X108925000Y-88885001D03*
%TO.P,U1,46*%
X109999999Y-88885001D03*
%TO.P,U1,47*%
X107850001Y-88885001D03*
%TO.P,U1,48*%
X108925000Y-87775000D03*
%TD*%
D17*
%TO.P,J1,SH,SHIELD_SH*%
%TO.N,GND*%
X95885000Y-89930000D03*
D18*
X91735000Y-89930000D03*
D17*
X95885000Y-98570000D03*
D18*
X91735000Y-98570000D03*
%TD*%
D12*
%TO.P,H1,1,1_1*%
%TO.N,CHG_SDA*%
X91000000Y-87250000D03*
%TD*%
D20*
%TO.P,H15,1,1_1*%
%TO.N,GND*%
X127750000Y-118000000D03*
%TD*%
D12*
%TO.P,H11,1,1_1*%
%TO.N,OUTPUT_SCL1*%
X137500000Y-124500000D03*
%TD*%
D21*
%TO.P,J3,BAT1,BAT1_BAT1*%
%TO.N,Net-(J3-PadBAT1)*%
X118500000Y-86500000D03*
%TO.P,J3,BAT2,Pin_2_BAT2*%
%TO.N,Net-(J3-Pin_2)*%
X122100000Y-86500000D03*
%TO.P,J3,BAT3,BAT3_BAT3*%
%TO.N,Net-(J3-PadBAT3)*%
X125700000Y-86500000D03*
%TO.P,J3,BAT4,BAT4_BAT4*%
%TO.N,4P*%
X129300000Y-86500000D03*
D22*
%TO.P,J3,GND,GND_GND*%
%TO.N,CHGND*%
X114900000Y-86500000D03*
%TD*%
D12*
%TO.P,H8,1,1_1*%
%TO.N,Net-(H8-Pad1)*%
X118750000Y-105250000D03*
%TD*%
%TO.P,H5,1,1_1*%
%TO.N,Net-(U3-GPIO3_I2C_SDA2)*%
X123000000Y-119750000D03*
%TD*%
D23*
%TO.N,OUTPUT_LDO_3V3*%
X114250000Y-135250000D03*
X113192500Y-94186700D03*
X131549000Y-137060000D03*
X113274000Y-127476000D03*
X129425000Y-135500000D03*
X107986000Y-137014000D03*
X115707900Y-94342500D03*
X113201100Y-125643000D03*
X113750000Y-129280000D03*
%TO.N,GND*%
X107000000Y-123500000D03*
X99000000Y-86671500D03*
X112750000Y-86250000D03*
X155500000Y-113500000D03*
X114250000Y-138000000D03*
X134980000Y-137750000D03*
X93836300Y-100524700D03*
X123629800Y-137648600D03*
X107232200Y-103650300D03*
X103375000Y-122875000D03*
X117129500Y-110419500D03*
X117820000Y-134500000D03*
X99750000Y-134250000D03*
X103600000Y-98100000D03*
X110500000Y-124250000D03*
X162110000Y-125447800D03*
X152500000Y-110750000D03*
X103000000Y-91410000D03*
X102994000Y-113750000D03*
X106261400Y-110061400D03*
X102281000Y-102995400D03*
X113250000Y-90750000D03*
X116760400Y-113986900D03*
X159538000Y-123243400D03*
X114250000Y-134000000D03*
X138726500Y-129548600D03*
X158774500Y-127789400D03*
X135750000Y-106902400D03*
%TO.N,PD_ADCIN4*%
X106384000Y-87170500D03*
X102662000Y-87380500D03*
%TO.N,OUTPUT_OUT*%
X133855300Y-134061800D03*
X118358400Y-137394200D03*
%TO.N,PACK+*%
X123840000Y-94800000D03*
X128548300Y-98557000D03*
%TO.N,CHG_SCL*%
X113795700Y-98113300D03*
%TO.N,CC1_IN*%
X97888800Y-99378400D03*
X99250000Y-94000000D03*
%TO.N,CC2_IN*%
X98572400Y-99794000D03*
X99000000Y-96000000D03*
%TO.N,VBUS_OUT*%
X95204400Y-133534000D03*
X93935000Y-133750000D03*
%TO.N,DP_OUT*%
X99781800Y-136032000D03*
X97750000Y-131750000D03*
X105289200Y-135742100D03*
%TO.N,PD_ADCIN3*%
X107392000Y-86400000D03*
%TO.N,4P*%
X126973400Y-113931600D03*
%TO.N,OUTPUT_SDA1*%
X106415900Y-127716200D03*
%TO.N,OUTPUT_CSN_BUS*%
X126436000Y-132186000D03*
X125713000Y-131213000D03*
%TO.N,PD_ADCIN1*%
X151000000Y-113575000D03*
X150941000Y-112375000D03*
%TO.N,PD_ADCIN2*%
X102238000Y-86250000D03*
%TO.N,Net-(AE1-A)*%
X160650000Y-116800000D03*
X161974000Y-118624000D03*
%TO.N,OUTPUT_BOOT1*%
X132581200Y-123312100D03*
X104372300Y-133320300D03*
%TO.N,OUTPUT_NTC*%
X104956100Y-129768000D03*
%TO.N,Net-(U4-DECD)*%
X148500000Y-116450000D03*
X148750000Y-115250000D03*
%TO.N,Net-(C75-Pad1)*%
X160650000Y-113250000D03*
X162000000Y-114000000D03*
%TO.N,Net-(U3-GPIO2_I2C_SCL2)*%
X110174000Y-127400000D03*
X115706000Y-125835000D03*
%TO.N,Net-(U3-GPIO3_I2C_SDA2)*%
X110846000Y-134904000D03*
X111239000Y-130994000D03*
%TO.N,Net-(H8-Pad1)*%
X134372200Y-114927200D03*
%TO.N,Net-(U4-ANT)*%
X159080000Y-115026000D03*
X160680000Y-118250000D03*
%TO.N,Net-(Q8-PadG)*%
X122640000Y-94560000D03*
X123840000Y-94000000D03*
%TO.N,Net-(Q9-PadG)*%
X123891000Y-96300000D03*
X120562000Y-98100000D03*
%TD*%
%TO.N,OUTPUT_LDO_3V3*%
D24*
X114250000Y-135250000D02*
X112750000Y-136750000D01*
X129989000Y-135500000D02*
X131549000Y-137060000D01*
X112750000Y-136750000D02*
X108250000Y-136750000D01*
X129989000Y-135500000D02*
X131549000Y-137060000D01*
X108250000Y-136750000D02*
X107986000Y-137014000D01*
X113750000Y-127952000D02*
X113274000Y-127476000D01*
X129425000Y-135500000D02*
X129989000Y-135500000D01*
X112750000Y-136750000D02*
X108250000Y-136750000D01*
X113750000Y-129280000D02*
X113750000Y-127952000D01*
X113750000Y-127952000D02*
X113274000Y-127476000D01*
X108250000Y-136750000D02*
X107986000Y-137014000D01*
%TO.N,GND*%
X156570000Y-118570000D02*
X155970000Y-117970000D01*
%TO.N,PD_ADCIN4*%
D25*
X102376000Y-88800000D02*
X102200000Y-88624300D01*
X102200000Y-87842400D02*
X102662000Y-87380500D01*
X106384000Y-87170500D02*
X104755000Y-88800000D01*
X102376000Y-88800000D02*
X102200000Y-88624300D01*
X102200000Y-88624300D02*
X102200000Y-87842400D01*
X104755000Y-88800000D02*
X102376000Y-88800000D01*
X102200000Y-88624300D02*
X102200000Y-87842400D01*
X102200000Y-87842400D02*
X102662000Y-87380500D01*
%TO.N,PACK+*%
D24*
X123390000Y-95250000D02*
X123840000Y-94800000D01*
X121500000Y-95250000D02*
X121500000Y-94750000D01*
X121500000Y-94750000D02*
X122500000Y-93750000D01*
X121500000Y-94750000D02*
X121500000Y-95250000D01*
X123390000Y-95250000D02*
X121500000Y-95250000D01*
X123840000Y-94800000D02*
X123390000Y-95250000D01*
X121500000Y-95250000D02*
X121500000Y-94750000D01*
X121500000Y-95250000D02*
X123390000Y-95250000D01*
%TO.N,CC1_IN*%
D25*
X97888800Y-99378400D02*
X97888800Y-95361200D01*
X97888800Y-95361200D02*
X99250000Y-94000000D01*
X97888800Y-99378400D02*
X97888800Y-95361200D01*
%TO.N,CC2_IN*%
X98572400Y-99794000D02*
X98572400Y-96427600D01*
X98572400Y-96427600D02*
X99000000Y-96000000D01*
X98572400Y-96427600D02*
X99000000Y-96000000D01*
%TO.N,VBUS_OUT*%
D24*
X93935000Y-133750000D02*
X94988200Y-133750000D01*
X94988200Y-133750000D02*
X95204400Y-133534000D01*
X93935000Y-133750000D02*
X94988200Y-133750000D01*
%TO.N,DP_OUT*%
X99781800Y-136032000D02*
X97750000Y-134000000D01*
X97750000Y-134000000D02*
X97750000Y-131750000D01*
X97750000Y-134000000D02*
X97750000Y-131750000D01*
%TO.N,PD_ADCIN3*%
D25*
X104600000Y-86400000D02*
X102500000Y-88500000D01*
X107392000Y-86400000D02*
X104600000Y-86400000D01*
%TO.N,OUTPUT_CSN_BUS*%
D24*
X125713000Y-131213000D02*
X125713000Y-131463000D01*
X125713000Y-131463000D02*
X126436000Y-132186000D01*
X125713000Y-131463000D02*
X126436000Y-132186000D01*
%TO.N,PD_ADCIN1*%
X151000000Y-112434000D02*
X150941000Y-112375000D01*
X151000000Y-112434000D02*
X150941000Y-112375000D01*
X151000000Y-113575000D02*
X151000000Y-112434000D01*
%TO.N,PD_ADCIN2*%
D25*
X108000000Y-85500000D02*
X109250000Y-86750000D01*
X108000000Y-85500000D02*
X102988000Y-85500000D01*
X102988000Y-85500000D02*
X108000000Y-85500000D01*
X102988000Y-85500000D02*
X102238000Y-86250000D01*
X102988000Y-85500000D02*
X102238000Y-86250000D01*
X102238000Y-86250000D02*
X102988000Y-85500000D01*
%TO.N,Net-(AE1-A)*%
X161974000Y-118624000D02*
X160650000Y-117300000D01*
X160650000Y-117300000D02*
X160650000Y-116800000D01*
%TO.N,Net-(U4-DECD)*%
D24*
X148500000Y-116450000D02*
X148500000Y-115500000D01*
X148500000Y-115500000D02*
X148750000Y-115250000D01*
X148500000Y-115500000D02*
X148750000Y-115250000D01*
%TO.N,Net-(C75-Pad1)*%
X161250000Y-113250000D02*
X162000000Y-114000000D01*
X160650000Y-113250000D02*
X161250000Y-113250000D01*
X161250000Y-113250000D02*
X162000000Y-114000000D01*
%TO.N,Net-(U3-GPIO2_I2C_SCL2)*%
D25*
X110274000Y-127500000D02*
X112500000Y-127500000D01*
X115000000Y-127000000D02*
X115706000Y-126294000D01*
X114926000Y-126926000D02*
X115000000Y-127000000D01*
X114926000Y-126926000D02*
X115000000Y-127000000D01*
X112500000Y-127472000D02*
X113046000Y-126926000D01*
X115000000Y-127000000D02*
X115706000Y-126294000D01*
X115706000Y-126294000D02*
X115706000Y-125835000D01*
X112500000Y-127472000D02*
X113046000Y-126926000D01*
X113046000Y-126926000D02*
X114926000Y-126926000D01*
X115706000Y-126294000D02*
X115706000Y-125835000D01*
X112500000Y-127500000D02*
X112500000Y-127472000D01*
X110274000Y-127500000D02*
X112500000Y-127500000D01*
X110174000Y-127400000D02*
X110274000Y-127500000D01*
X113046000Y-126926000D02*
X114926000Y-126926000D01*
X112500000Y-127500000D02*
X112500000Y-127472000D01*
%TO.N,Net-(U3-GPIO3_I2C_SDA2)*%
D24*
X111239000Y-134511000D02*
X111239000Y-130994000D01*
X110846000Y-134904000D02*
X111239000Y-134511000D01*
X111239000Y-134511000D02*
X111239000Y-130994000D01*
%TO.N,Net-(U4-ANT)*%
X160680000Y-118250000D02*
X159080000Y-116650000D01*
X159080000Y-116650000D02*
X159080000Y-115026000D01*
X159080000Y-116650000D02*
X159080000Y-115026000D01*
%TO.N,Net-(Q8-PadG)*%
X123840000Y-94000000D02*
X123200000Y-94000000D01*
X123840000Y-94000000D02*
X123200000Y-94000000D01*
X123200000Y-94000000D02*
X122640000Y-94560000D01*
%TO.N,Net-(Q9-PadG)*%
X123891000Y-96300000D02*
X122091000Y-98100000D01*
X122091000Y-98100000D02*
X120562000Y-98100000D01*
%TD*%
M02*
