%TF.GenerationSoftware,KiCad,Pcbnew,10.0.0*%
%TF.CreationDate,2026-06-21T06:51:05+07:00*%
%TF.ProjectId,FindMyCharger,46696e64-4d79-4436-9861-726765722e6b,rev?*%
%TF.SameCoordinates,Original*%
%TF.FileFunction,Copper,L2,Inr*%
%TF.FilePolarity,Positive*%
%FSLAX46Y46*%
G04 Gerber Fmt 4.6, Leading zero omitted, Abs format (unit mm)*
G04 Created by KiCad (PCBNEW 10.0.0) date 2026-06-21 06:51:05*
%MOMM*%
%LPD*%
G01*
G04 APERTURE LIST*
G04 Aperture macros list*
%AMRoundRect*
0 Rectangle with rounded corners*
0 $1 Rounding radius*
0 $2 $3 $4 $5 $6 $7 $8 $9 X,Y pos of 4 corners*
0 Add a 4 corners polygon primitive as box body*
4,1,4,$2,$3,$4,$5,$6,$7,$8,$9,$2,$3,0*
0 Add four circle primitives for the rounded corners*
1,1,$1+$1,$2,$3*
1,1,$1+$1,$4,$5*
1,1,$1+$1,$6,$7*
1,1,$1+$1,$8,$9*
0 Add four rect primitives between the rounded corners*
20,1,$1+$1,$2,$3,$4,$5,0*
20,1,$1+$1,$4,$5,$6,$7,0*
20,1,$1+$1,$6,$7,$8,$9,0*
20,1,$1+$1,$8,$9,$2,$3,0*%
G04 Aperture macros list end*
%TA.AperFunction,ComponentPad*%
%ADD10RoundRect,0.250000X0.600000X0.600000X-0.600000X0.600000X-0.600000X-0.600000X0.600000X-0.600000X0*%
%TD*%
%TA.AperFunction,ComponentPad*%
%ADD11C,1.700000*%
%TD*%
%TA.AperFunction,ComponentPad*%
%ADD12C,2.500000*%
%TD*%
%TA.AperFunction,ComponentPad*%
%ADD13C,2.000000*%
%TD*%
%TA.AperFunction,HeatsinkPad*%
%ADD14C,0.500000*%
%TD*%
%TA.AperFunction,ComponentPad*%
%ADD15R,0.900000X0.500000*%
%TD*%
%TA.AperFunction,ComponentPad*%
%ADD16O,2.100000X1.000000*%
%TD*%
%TA.AperFunction,ComponentPad*%
%ADD17O,1.800000X1.000000*%
%TD*%
%TA.AperFunction,ComponentPad*%
%ADD18C,0.499999*%
%TD*%
%TA.AperFunction,ComponentPad*%
%ADD19R,2.500000X2.500000*%
%TD*%
%TA.AperFunction,ComponentPad*%
%ADD20C,1.600000*%
%TD*%
%TA.AperFunction,ComponentPad*%
%ADD21RoundRect,0.250000X-0.550000X-0.550000X0.550000X-0.550000X0.550000X0.550000X-0.550000X0.550000X0*%
%TD*%
%TA.AperFunction,ViaPad*%
%ADD22C,0.600000*%
%TD*%
%TA.AperFunction,Conductor*%
%ADD23C,0.200000*%
%TD*%
G04 APERTURE END LIST*
D10*
%TO.N,Net-(R57-Pad2)*%
%TO.C,SW2*%
X99600000Y-138500000D03*
D11*
%TO.N,GND*%
X95900000Y-138500000D03*
%TD*%
D12*
%TO.N,Net-(U3-GPIO2_I2C_SCL2)*%
%TO.C,H6*%
X118300000Y-120150000D03*
%TD*%
%TO.N,Net-(U4-SWDIO)*%
%TO.C,H16*%
X150500000Y-127500000D03*
%TD*%
D13*
%TO.N,N/C*%
%TO.C,SW1*%
X137750000Y-101000000D03*
X137750000Y-94500000D03*
X142250000Y-101000000D03*
X142250000Y-94500000D03*
%TD*%
D12*
%TO.N,Net-(U3-GPIO1_IRQ2(o))*%
%TO.C,H4*%
X111250000Y-121000000D03*
%TD*%
%TO.N,Net-(U4-SWDCLK)*%
%TO.C,H13*%
X147500000Y-123750000D03*
%TD*%
D10*
%TO.N,OUTPUT_LDO_3V3*%
%TO.C,TH1*%
X107600000Y-138500000D03*
D11*
%TO.N,OUTPUT_NTC*%
X103900000Y-138500000D03*
%TD*%
D12*
%TO.N,N/C*%
%TO.C,H9*%
X151500000Y-122500000D03*
%TD*%
D14*
%TO.N,GND*%
%TO.C,U4*%
X154170000Y-116170000D03*
X154170000Y-117370000D03*
X154170000Y-118570000D03*
X154170000Y-119770000D03*
X155370000Y-116170000D03*
X155370000Y-117370000D03*
X155370000Y-118570000D03*
X155370000Y-119770000D03*
X156570000Y-116170000D03*
X156570000Y-117370000D03*
X156570000Y-118570000D03*
X156570000Y-119770000D03*
X157770000Y-116170000D03*
X157770000Y-117370000D03*
X157770000Y-118570000D03*
X157770000Y-119770000D03*
%TD*%
D15*
%TO.N,N/C*%
%TO.C,AE1*%
X161850000Y-135250000D03*
%TD*%
D12*
%TO.N,OUTPUT_SDA1*%
%TO.C,H14*%
X100500000Y-128000000D03*
%TD*%
%TO.N,OUTPUT_LDO_3V3*%
%TO.C,H7*%
X140500000Y-135500000D03*
%TD*%
%TO.N,Net-(H12-Pad1)*%
%TO.C,H12*%
X119000000Y-101500000D03*
%TD*%
D16*
%TO.N,GND*%
%TO.C,J2*%
X95885000Y-127180000D03*
D17*
X91735000Y-127180000D03*
D16*
X95885000Y-135820000D03*
D17*
X91735000Y-135820000D03*
%TD*%
D12*
%TO.N,CHG_SCL*%
%TO.C,H2*%
X94600000Y-87250000D03*
%TD*%
D13*
%TO.N,N/C*%
%TO.C,SW3*%
X96750000Y-116250000D03*
X96750000Y-109750000D03*
X101250000Y-116250000D03*
X101250000Y-109750000D03*
%TD*%
D18*
%TO.N,N/C*%
%TO.C,U1*%
X109999999Y-91409999D03*
X107850001Y-91409999D03*
X108925000Y-91409999D03*
X108925000Y-89995001D03*
X108925000Y-88885001D03*
X109999999Y-88885001D03*
X107850001Y-88885001D03*
X108925000Y-87775000D03*
%TD*%
D16*
%TO.N,GND*%
%TO.C,J1*%
X95885000Y-89930000D03*
D17*
X91735000Y-89930000D03*
D16*
X95885000Y-98570000D03*
D17*
X91735000Y-98570000D03*
%TD*%
D12*
%TO.N,CHG_SDA*%
%TO.C,H1*%
X91000000Y-87250000D03*
%TD*%
D19*
%TO.N,GND*%
%TO.C,H15*%
X127750000Y-118000000D03*
%TD*%
D12*
%TO.N,OUTPUT_SCL1*%
%TO.C,H11*%
X137500000Y-124500000D03*
%TD*%
D20*
%TO.N,Net-(J3-PadBAT1)*%
%TO.C,J3*%
X118500000Y-86500000D03*
%TO.N,Net-(J3-Pin_2)*%
X122100000Y-86500000D03*
%TO.N,Net-(J3-PadBAT3)*%
X125700000Y-86500000D03*
%TO.N,4P*%
X129300000Y-86500000D03*
D21*
%TO.N,CHGND*%
X114900000Y-86500000D03*
%TD*%
D12*
%TO.N,Net-(H8-Pad1)*%
%TO.C,H8*%
X118750000Y-105250000D03*
%TD*%
%TO.N,Net-(U3-GPIO3_I2C_SDA2)*%
%TO.C,H5*%
X123000000Y-119750000D03*
%TD*%
D22*
%TO.N,OUTPUT_LDO_3V3*%
X114250000Y-135250000D03*
X113192500Y-94186700D03*
X131549000Y-137060000D03*
X113274000Y-127476000D03*
X129425000Y-135500000D03*
X107986000Y-137014000D03*
X115707900Y-94342500D03*
X113201100Y-125643000D03*
X113750000Y-129280000D03*
%TO.N,GND*%
X107000000Y-123500000D03*
X99000000Y-86671500D03*
X112750000Y-86250000D03*
X155500000Y-113500000D03*
X114250000Y-138000000D03*
X134980000Y-137750000D03*
X93836300Y-100524700D03*
X123629800Y-137648600D03*
X107232200Y-103650300D03*
X103375000Y-122875000D03*
X117129500Y-110419500D03*
X117820000Y-134500000D03*
X99750000Y-134250000D03*
X103600000Y-98100000D03*
X110500000Y-124250000D03*
X162110000Y-125447800D03*
X152500000Y-110750000D03*
X103000000Y-91410000D03*
X102994000Y-113750000D03*
X106261400Y-110061400D03*
X102281000Y-102995400D03*
X113250000Y-90750000D03*
X116760400Y-113986900D03*
X159538000Y-123243400D03*
X114250000Y-134000000D03*
X138726500Y-129548600D03*
X158774500Y-127789400D03*
X135750000Y-106902400D03*
%TO.N,PD_ADCIN4*%
X106384000Y-87170500D03*
X102662000Y-87380500D03*
%TO.N,OUTPUT_OUT*%
X133855300Y-134061800D03*
X118358400Y-137394200D03*
%TO.N,PACK+*%
X123840000Y-94800000D03*
X128548300Y-98557000D03*
%TO.N,CHG_SCL*%
X113795700Y-98113300D03*
%TO.N,CC1_IN*%
X97888800Y-99378400D03*
X99250000Y-94000000D03*
%TO.N,CC2_IN*%
X98572400Y-99794000D03*
X99000000Y-96000000D03*
%TO.N,VBUS_OUT*%
X95204400Y-133534000D03*
X93935000Y-133750000D03*
%TO.N,DP_OUT*%
X99781800Y-136032000D03*
X97750000Y-131750000D03*
X105289200Y-135742100D03*
%TO.N,PD_ADCIN3*%
X107392000Y-86400000D03*
%TO.N,4P*%
X126973400Y-113931600D03*
%TO.N,OUTPUT_SDA1*%
X106415900Y-127716200D03*
%TO.N,OUTPUT_CSN_BUS*%
X126436000Y-132186000D03*
X125713000Y-131213000D03*
%TO.N,PD_ADCIN1*%
X151000000Y-113575000D03*
X150941000Y-112375000D03*
%TO.N,PD_ADCIN2*%
X102238000Y-86250000D03*
%TO.N,Net-(AE1-A)*%
X160650000Y-116800000D03*
X161974000Y-118624000D03*
%TO.N,OUTPUT_BOOT1*%
X132581200Y-123312100D03*
X104372300Y-133320300D03*
%TO.N,OUTPUT_NTC*%
X104956100Y-129768000D03*
%TO.N,Net-(U4-DECD)*%
X148500000Y-116450000D03*
X148750000Y-115250000D03*
%TO.N,Net-(C75-Pad1)*%
X160650000Y-113250000D03*
X162000000Y-114000000D03*
%TO.N,Net-(U3-GPIO2_I2C_SCL2)*%
X110174000Y-127400000D03*
X115706000Y-125835000D03*
%TO.N,Net-(U3-GPIO3_I2C_SDA2)*%
X110846000Y-134904000D03*
X111239000Y-130994000D03*
%TO.N,Net-(H8-Pad1)*%
X134372200Y-114927200D03*
%TO.N,Net-(U4-ANT)*%
X159080000Y-115026000D03*
X160680000Y-118250000D03*
%TO.N,Net-(Q8-PadG)*%
X122640000Y-94560000D03*
X123840000Y-94000000D03*
%TO.N,Net-(Q9-PadG)*%
X123891000Y-96300000D03*
X120562000Y-98100000D03*
%TD*%
%TO.N,OUTPUT_LDO_3V3*%
D23*
X113274000Y-125715900D02*
X113274000Y-127476000D01*
X114296600Y-94186700D02*
X114452400Y-94342500D01*
X115707900Y-94342500D02*
X114452400Y-94342500D01*
X113192500Y-94186700D02*
X114296600Y-94186700D01*
X113201100Y-125643000D02*
X113274000Y-125715900D01*
X114452400Y-94342500D02*
X114452400Y-128577600D01*
X114452400Y-128577600D02*
X113750000Y-129280000D01*
%TO.N,PACK+*%
X128548300Y-98557000D02*
X127597000Y-98557000D01*
X127597000Y-98557000D02*
X123840000Y-94800000D01*
%TO.N,4P*%
X129300000Y-111605000D02*
X126973400Y-113931600D01*
X129300000Y-86500000D02*
X129300000Y-111605000D01*
%TO.N,OUTPUT_NTC*%
X103900000Y-133698800D02*
X103900000Y-138500000D01*
X103899900Y-133698800D02*
X103900000Y-133698800D01*
X103709200Y-131014900D02*
X103709200Y-133508100D01*
X103709200Y-133508100D02*
X103899900Y-133698800D01*
X104956100Y-129768000D02*
X103709200Y-131014900D01*
%TD*%
%TA.AperFunction,Conductor*%
%TO.N,GND*%
G36*
X101623098Y-85520185D02*
G01*
X101668853Y-85572989D01*
X101678797Y-85642147D01*
X101649772Y-85705703D01*
X101643740Y-85712181D01*
X101616213Y-85739707D01*
X101616210Y-85739711D01*
X101528609Y-85870814D01*
X101528602Y-85870827D01*
X101468264Y-86016498D01*
X101468261Y-86016510D01*
X101437500Y-86171153D01*
X101437500Y-86328846D01*
X101468261Y-86483489D01*
X101468264Y-86483501D01*
X101528602Y-86629172D01*
X101528609Y-86629185D01*
X101616210Y-86760288D01*
X101616213Y-86760292D01*
X101727707Y-86871786D01*
X101727715Y-86871792D01*
X101861263Y-86961026D01*
X101906069Y-87014638D01*
X101914776Y-87083963D01*
X101906936Y-87111577D01*
X101892263Y-87147003D01*
X101892261Y-87147010D01*
X101861500Y-87301653D01*
X101861500Y-87459346D01*
X101892261Y-87613989D01*
X101892264Y-87614001D01*
X101952602Y-87759672D01*
X101952609Y-87759685D01*
X102040210Y-87890788D01*
X102040213Y-87890792D01*
X102151707Y-88002286D01*
X102151711Y-88002289D01*
X102282814Y-88089890D01*
X102282827Y-88089897D01*
X102390515Y-88134502D01*
X102428503Y-88150237D01*
X102583153Y-88180999D01*
X102583156Y-88181000D01*
X102583158Y-88181000D01*
X102740844Y-88181000D01*
X102740845Y-88180999D01*
X102895497Y-88150237D01*
X103041179Y-88089894D01*
X103172289Y-88002289D01*
X103283789Y-87890789D01*
X103371394Y-87759679D01*
X103431737Y-87613997D01*
X103462500Y-87459342D01*
X103462500Y-87301658D01*
X103462500Y-87301655D01*
X103462499Y-87301653D01*
X103452094Y-87249346D01*
X103431737Y-87147003D01*
X103426878Y-87135272D01*
X103371397Y-87001327D01*
X103371390Y-87001314D01*
X103283789Y-86870211D01*
X103283786Y-86870207D01*
X103172292Y-86758713D01*
X103172288Y-86758710D01*
X103038735Y-86669472D01*
X102993930Y-86615860D01*
X102985223Y-86546535D01*
X102993062Y-86518924D01*
X103007737Y-86483497D01*
X103038500Y-86328842D01*
X103038500Y-86171158D01*
X103038500Y-86171155D01*
X103038499Y-86171153D01*
X103023021Y-86093339D01*
X103007737Y-86016503D01*
X102972358Y-85931089D01*
X102947397Y-85870827D01*
X102947390Y-85870814D01*
X102859789Y-85739711D01*
X102859786Y-85739707D01*
X102832260Y-85712181D01*
X102798775Y-85650858D01*
X102803759Y-85581166D01*
X102845631Y-85525233D01*
X102911095Y-85500816D01*
X102919941Y-85500500D01*
X106888561Y-85500500D01*
X106955600Y-85520185D01*
X107001355Y-85572989D01*
X107011299Y-85642147D01*
X106982274Y-85705703D01*
X106957452Y-85727602D01*
X106881711Y-85778210D01*
X106881707Y-85778213D01*
X106770213Y-85889707D01*
X106770210Y-85889711D01*
X106682609Y-86020814D01*
X106682602Y-86020827D01*
X106622264Y-86166498D01*
X106622261Y-86166508D01*
X106601424Y-86271262D01*
X106569039Y-86333173D01*
X106508323Y-86367747D01*
X106467663Y-86370474D01*
X106462846Y-86370000D01*
X106462842Y-86370000D01*
X106305158Y-86370000D01*
X106305155Y-86370000D01*
X106150510Y-86400761D01*
X106150498Y-86400764D01*
X106004827Y-86461102D01*
X106004814Y-86461109D01*
X105873711Y-86548710D01*
X105873707Y-86548713D01*
X105762213Y-86660207D01*
X105762210Y-86660211D01*
X105674609Y-86791314D01*
X105674602Y-86791327D01*
X105614264Y-86936998D01*
X105614261Y-86937010D01*
X105583500Y-87091653D01*
X105583500Y-87249346D01*
X105614261Y-87403989D01*
X105614264Y-87404001D01*
X105674602Y-87549672D01*
X105674609Y-87549685D01*
X105762210Y-87680788D01*
X105762213Y-87680792D01*
X105873707Y-87792286D01*
X105873711Y-87792289D01*
X106004814Y-87879890D01*
X106004827Y-87879897D01*
X106150498Y-87940235D01*
X106150503Y-87940237D01*
X106305153Y-87970999D01*
X106305156Y-87971000D01*
X106305158Y-87971000D01*
X106462844Y-87971000D01*
X106462845Y-87970999D01*
X106617497Y-87940237D01*
X106763179Y-87879894D01*
X106894289Y-87792289D01*
X107005789Y-87680789D01*
X107093394Y-87549679D01*
X107153737Y-87403997D01*
X107174575Y-87299237D01*
X107206959Y-87237327D01*
X107267675Y-87202753D01*
X107308346Y-87200026D01*
X107313157Y-87200499D01*
X107313158Y-87200500D01*
X107313159Y-87200500D01*
X107470844Y-87200500D01*
X107470845Y-87200499D01*
X107625497Y-87169737D01*
X107769909Y-87109920D01*
X107771172Y-87109397D01*
X107771172Y-87109396D01*
X107771179Y-87109394D01*
X107902289Y-87021789D01*
X108013789Y-86910289D01*
X108101394Y-86779179D01*
X108109873Y-86758710D01*
X108161735Y-86633501D01*
X108161737Y-86633497D01*
X108192500Y-86478842D01*
X108192500Y-86321158D01*
X108192500Y-86321155D01*
X108192499Y-86321153D01*
X108183396Y-86275388D01*
X108161737Y-86166503D01*
X108131432Y-86093339D01*
X108101397Y-86020827D01*
X108101390Y-86020814D01*
X108013789Y-85889711D01*
X108013786Y-85889707D01*
X107902292Y-85778213D01*
X107902288Y-85778210D01*
X107826548Y-85727602D01*
X107781743Y-85673990D01*
X107773036Y-85604665D01*
X107803190Y-85541637D01*
X107862634Y-85504918D01*
X107895439Y-85500500D01*
X113536599Y-85500500D01*
X113603638Y-85520185D01*
X113649393Y-85572989D01*
X113659337Y-85642147D01*
X113654306Y-85663499D01*
X113610001Y-85797203D01*
X113610001Y-85797204D01*
X113610000Y-85797204D01*
X113599500Y-85899983D01*
X113599500Y-87100001D01*
X113599501Y-87100018D01*
X113610000Y-87202796D01*
X113610001Y-87202799D01*
X113642759Y-87301655D01*
X113665186Y-87369334D01*
X113757288Y-87518656D01*
X113881344Y-87642712D01*
X114030666Y-87734814D01*
X114197203Y-87789999D01*
X114299991Y-87800500D01*
X115500008Y-87800499D01*
X115602797Y-87789999D01*
X115769334Y-87734814D01*
X115918656Y-87642712D01*
X116042712Y-87518656D01*
X116134814Y-87369334D01*
X116189999Y-87202797D01*
X116200500Y-87100009D01*
X116200499Y-85899992D01*
X116197518Y-85870814D01*
X116189999Y-85797203D01*
X116170948Y-85739711D01*
X116145694Y-85663502D01*
X116143293Y-85593676D01*
X116179024Y-85533634D01*
X116241545Y-85502441D01*
X116263401Y-85500500D01*
X117375309Y-85500500D01*
X117442348Y-85520185D01*
X117488103Y-85572989D01*
X117498047Y-85642147D01*
X117475627Y-85697385D01*
X117387715Y-85818386D01*
X117294781Y-86000776D01*
X117231522Y-86195465D01*
X117210397Y-86328846D01*
X117199500Y-86397648D01*
X117199500Y-86602352D01*
X117203748Y-86629172D01*
X117231522Y-86804534D01*
X117294781Y-86999223D01*
X117351185Y-87109920D01*
X117384298Y-87174908D01*
X117387715Y-87181613D01*
X117508028Y-87347213D01*
X117652786Y-87491971D01*
X117790797Y-87592240D01*
X117818390Y-87612287D01*
X117899499Y-87653614D01*
X118000776Y-87705218D01*
X118000778Y-87705218D01*
X118000781Y-87705220D01*
X118075818Y-87729601D01*
X118195465Y-87768477D01*
X118296557Y-87784488D01*
X118397648Y-87800500D01*
X118397649Y-87800500D01*
X118602351Y-87800500D01*
X118602352Y-87800500D01*
X118804534Y-87768477D01*
X118999219Y-87705220D01*
X119181610Y-87612287D01*
X119310482Y-87518657D01*
X119347213Y-87491971D01*
X119347215Y-87491968D01*
X119347219Y-87491966D01*
X119491966Y-87347219D01*
X119491968Y-87347215D01*
X119491971Y-87347213D01*
X119563077Y-87249342D01*
X119612287Y-87181610D01*
X119705220Y-86999219D01*
X119768477Y-86804534D01*
X119800500Y-86602352D01*
X119800500Y-86397648D01*
X119768477Y-86195466D01*
X119759066Y-86166503D01*
X119739127Y-86105137D01*
X119705220Y-86000781D01*
X119705218Y-86000778D01*
X119705218Y-86000776D01*
X119653865Y-85899991D01*
X119612287Y-85818390D01*
X119583097Y-85778213D01*
X119524373Y-85697385D01*
X119500893Y-85631579D01*
X119516719Y-85563525D01*
X119566825Y-85514830D01*
X119624691Y-85500500D01*
X120975309Y-85500500D01*
X121042348Y-85520185D01*
X121088103Y-85572989D01*
X121098047Y-85642147D01*
X121075627Y-85697385D01*
X120987715Y-85818386D01*
X120894781Y-86000776D01*
X120831522Y-86195465D01*
X120810397Y-86328846D01*
X120799500Y-86397648D01*
X120799500Y-86602352D01*
X120803748Y-86629172D01*
X120831522Y-86804534D01*
X120894781Y-86999223D01*
X120951185Y-87109920D01*
X120984298Y-87174908D01*
X120987715Y-87181613D01*
X121108028Y-87347213D01*
X121252786Y-87491971D01*
X121390797Y-87592240D01*
X121418390Y-87612287D01*
X121499499Y-87653614D01*
X121600776Y-87705218D01*
X121600778Y-87705218D01*
X121600781Y-87705220D01*
X121675818Y-87729601D01*
X121795465Y-87768477D01*
X121896557Y-87784488D01*
X121997648Y-87800500D01*
X121997649Y-87800500D01*
X122202351Y-87800500D01*
X122202352Y-87800500D01*
X122404534Y-87768477D01*
X122599219Y-87705220D01*
X122781610Y-87612287D01*
X122910482Y-87518657D01*
X122947213Y-87491971D01*
X122947215Y-87491968D01*
X122947219Y-87491966D01*
X123091966Y-87347219D01*
X123091968Y-87347215D01*
X123091971Y-87347213D01*
X123163077Y-87249342D01*
X123212287Y-87181610D01*
X123305220Y-86999219D01*
X123368477Y-86804534D01*
X123400500Y-86602352D01*
X123400500Y-86397648D01*
X123368477Y-86195466D01*
X123359066Y-86166503D01*
X123339127Y-86105137D01*
X123305220Y-86000781D01*
X123305218Y-86000778D01*
X123305218Y-86000776D01*
X123253865Y-85899991D01*
X123212287Y-85818390D01*
X123183097Y-85778213D01*
X123124373Y-85697385D01*
X123100893Y-85631579D01*
X123116719Y-85563525D01*
X123166825Y-85514830D01*
X123224691Y-85500500D01*
X124575309Y-85500500D01*
X124642348Y-85520185D01*
X124688103Y-85572989D01*
X124698047Y-85642147D01*
X124675627Y-85697385D01*
X124587715Y-85818386D01*
X124494781Y-86000776D01*
X124431522Y-86195465D01*
X124410397Y-86328846D01*
X124399500Y-86397648D01*
X124399500Y-86602352D01*
X124403748Y-86629172D01*
X124431522Y-86804534D01*
X124494781Y-86999223D01*
X124551185Y-87109920D01*
X124584298Y-87174908D01*
X124587715Y-87181613D01*
X124708028Y-87347213D01*
X124852786Y-87491971D01*
X124990797Y-87592240D01*
X125018390Y-87612287D01*
X125099499Y-87653614D01*
X125200776Y-87705218D01*
X125200778Y-87705218D01*
X125200781Y-87705220D01*
X125275818Y-87729601D01*
X125395465Y-87768477D01*
X125496557Y-87784488D01*
X125597648Y-87800500D01*
X125597649Y-87800500D01*
X125802351Y-87800500D01*
X125802352Y-87800500D01*
X126004534Y-87768477D01*
X126199219Y-87705220D01*
X126381610Y-87612287D01*
X126510482Y-87518657D01*
X126547213Y-87491971D01*
X126547215Y-87491968D01*
X126547219Y-87491966D01*
X126691966Y-87347219D01*
X126691968Y-87347215D01*
X126691971Y-87347213D01*
X126763077Y-87249342D01*
X126812287Y-87181610D01*
X126905220Y-86999219D01*
X126968477Y-86804534D01*
X127000500Y-86602352D01*
X127000500Y-86397648D01*
X126968477Y-86195466D01*
X126959066Y-86166503D01*
X126939127Y-86105137D01*
X126905220Y-86000781D01*
X126905218Y-86000778D01*
X126905218Y-86000776D01*
X126853865Y-85899991D01*
X126812287Y-85818390D01*
X126783097Y-85778213D01*
X126724373Y-85697385D01*
X126700893Y-85631579D01*
X126716719Y-85563525D01*
X126766825Y-85514830D01*
X126824691Y-85500500D01*
X128175309Y-85500500D01*
X128242348Y-85520185D01*
X128288103Y-85572989D01*
X128298047Y-85642147D01*
X128275627Y-85697385D01*
X128187715Y-85818386D01*
X128094781Y-86000776D01*
X128031522Y-86195465D01*
X128010397Y-86328846D01*
X127999500Y-86397648D01*
X127999500Y-86602352D01*
X128003748Y-86629172D01*
X128031522Y-86804534D01*
X128094781Y-86999223D01*
X128151185Y-87109920D01*
X128184298Y-87174908D01*
X128187715Y-87181613D01*
X128308028Y-87347213D01*
X128308034Y-87347219D01*
X128452781Y-87491966D01*
X128618390Y-87612287D01*
X128631793Y-87619116D01*
X128682589Y-87667088D01*
X128699500Y-87729601D01*
X128699500Y-97632500D01*
X128679815Y-97699539D01*
X128627011Y-97745294D01*
X128575500Y-97756500D01*
X128469455Y-97756500D01*
X128314810Y-97787261D01*
X128314798Y-97787264D01*
X128169127Y-97847602D01*
X128169114Y-97847609D01*
X128037425Y-97935602D01*
X127970747Y-97956480D01*
X127968534Y-97956500D01*
X127897097Y-97956500D01*
X127830058Y-97936815D01*
X127809416Y-97920181D01*
X124674574Y-94785339D01*
X124641089Y-94724016D01*
X124640638Y-94721849D01*
X124620734Y-94621789D01*
X124609737Y-94566503D01*
X124560425Y-94447452D01*
X124552956Y-94377983D01*
X124560425Y-94352548D01*
X124596462Y-94265546D01*
X124609737Y-94233497D01*
X124640500Y-94078842D01*
X124640500Y-93921158D01*
X124640500Y-93921155D01*
X124640499Y-93921153D01*
X124609737Y-93766503D01*
X124599500Y-93741789D01*
X124549397Y-93620827D01*
X124549390Y-93620814D01*
X124461789Y-93489711D01*
X124461786Y-93489707D01*
X124350292Y-93378213D01*
X124350288Y-93378210D01*
X124219185Y-93290609D01*
X124219172Y-93290602D01*
X124073501Y-93230264D01*
X124073489Y-93230261D01*
X123918845Y-93199500D01*
X123918842Y-93199500D01*
X123761158Y-93199500D01*
X123761155Y-93199500D01*
X123606510Y-93230261D01*
X123606498Y-93230264D01*
X123460827Y-93290602D01*
X123460814Y-93290609D01*
X123329711Y-93378210D01*
X123329707Y-93378213D01*
X123218213Y-93489707D01*
X123218210Y-93489711D01*
X123130609Y-93620814D01*
X123130604Y-93620824D01*
X123080499Y-93741789D01*
X123036658Y-93796192D01*
X122970364Y-93818257D01*
X122918487Y-93808898D01*
X122887811Y-93796192D01*
X122873497Y-93790263D01*
X122873493Y-93790262D01*
X122873489Y-93790261D01*
X122718845Y-93759500D01*
X122718842Y-93759500D01*
X122561158Y-93759500D01*
X122561155Y-93759500D01*
X122406510Y-93790261D01*
X122406498Y-93790264D01*
X122260827Y-93850602D01*
X122260814Y-93850609D01*
X122129711Y-93938210D01*
X122129707Y-93938213D01*
X122018213Y-94049707D01*
X122018210Y-94049711D01*
X121930609Y-94180814D01*
X121930602Y-94180827D01*
X121870264Y-94326498D01*
X121870261Y-94326510D01*
X121839500Y-94481153D01*
X121839500Y-94638846D01*
X121870261Y-94793489D01*
X121870264Y-94793501D01*
X121930602Y-94939172D01*
X121930609Y-94939185D01*
X122018210Y-95070288D01*
X122018213Y-95070292D01*
X122129707Y-95181786D01*
X122129711Y-95181789D01*
X122260814Y-95269390D01*
X122260827Y-95269397D01*
X122406498Y-95329735D01*
X122406503Y-95329737D01*
X122561153Y-95360499D01*
X122561156Y-95360500D01*
X122561158Y-95360500D01*
X122718844Y-95360500D01*
X122718845Y-95360499D01*
X122873497Y-95329737D01*
X123019179Y-95269394D01*
X123034785Y-95258965D01*
X123101459Y-95238088D01*
X123168839Y-95256571D01*
X123206778Y-95293178D01*
X123218212Y-95310291D01*
X123329707Y-95421786D01*
X123329711Y-95421789D01*
X123392788Y-95463936D01*
X123437593Y-95517548D01*
X123446300Y-95586873D01*
X123416146Y-95649900D01*
X123392792Y-95670137D01*
X123380715Y-95678207D01*
X123380707Y-95678213D01*
X123269213Y-95789707D01*
X123269210Y-95789711D01*
X123181609Y-95920814D01*
X123181602Y-95920827D01*
X123121264Y-96066498D01*
X123121261Y-96066510D01*
X123090500Y-96221153D01*
X123090500Y-96378846D01*
X123121261Y-96533489D01*
X123121264Y-96533501D01*
X123181602Y-96679172D01*
X123181609Y-96679185D01*
X123269210Y-96810288D01*
X123269213Y-96810292D01*
X123380707Y-96921786D01*
X123380711Y-96921789D01*
X123511814Y-97009390D01*
X123511827Y-97009397D01*
X123657498Y-97069735D01*
X123657503Y-97069737D01*
X123812153Y-97100499D01*
X123812156Y-97100500D01*
X123812158Y-97100500D01*
X123969844Y-97100500D01*
X123969845Y-97100499D01*
X124124497Y-97069737D01*
X124270179Y-97009394D01*
X124401289Y-96921789D01*
X124512789Y-96810289D01*
X124600394Y-96679179D01*
X124608325Y-96660031D01*
X124652163Y-96605629D01*
X124718456Y-96583562D01*
X124786156Y-96600839D01*
X124810567Y-96619802D01*
X127112139Y-98921374D01*
X127112149Y-98921385D01*
X127116479Y-98925715D01*
X127116480Y-98925716D01*
X127228284Y-99037520D01*
X127228286Y-99037521D01*
X127228290Y-99037524D01*
X127238960Y-99043684D01*
X127365216Y-99116577D01*
X127465694Y-99143500D01*
X127465693Y-99143500D01*
X127476734Y-99146458D01*
X127517942Y-99157500D01*
X127517943Y-99157500D01*
X127968534Y-99157500D01*
X128035573Y-99177185D01*
X128037425Y-99178398D01*
X128169114Y-99266390D01*
X128169127Y-99266397D01*
X128314798Y-99326735D01*
X128314803Y-99326737D01*
X128469453Y-99357499D01*
X128469456Y-99357500D01*
X128575500Y-99357500D01*
X128642539Y-99377185D01*
X128688294Y-99429989D01*
X128699500Y-99481500D01*
X128699500Y-111304903D01*
X128679815Y-111371942D01*
X128663181Y-111392584D01*
X126958739Y-113097025D01*
X126897416Y-113130510D01*
X126895250Y-113130961D01*
X126739908Y-113161861D01*
X126739898Y-113161864D01*
X126594227Y-113222202D01*
X126594214Y-113222209D01*
X126463111Y-113309810D01*
X126463107Y-113309813D01*
X126351613Y-113421307D01*
X126351610Y-113421311D01*
X126264009Y-113552414D01*
X126264002Y-113552427D01*
X126203664Y-113698098D01*
X126203661Y-113698110D01*
X126172900Y-113852753D01*
X126172900Y-114010446D01*
X126203661Y-114165089D01*
X126203664Y-114165101D01*
X126264002Y-114310772D01*
X126264009Y-114310785D01*
X126351610Y-114441888D01*
X126351613Y-114441892D01*
X126463107Y-114553386D01*
X126463111Y-114553389D01*
X126594214Y-114640990D01*
X126594227Y-114640997D01*
X126739898Y-114701335D01*
X126739903Y-114701337D01*
X126886881Y-114730573D01*
X126894553Y-114732099D01*
X126894556Y-114732100D01*
X126894558Y-114732100D01*
X127052244Y-114732100D01*
X127052245Y-114732099D01*
X127069746Y-114728618D01*
X127109807Y-114720650D01*
X127109812Y-114720649D01*
X127178251Y-114707035D01*
X127206897Y-114701337D01*
X127352579Y-114640994D01*
X127483689Y-114553389D01*
X127595189Y-114441889D01*
X127682794Y-114310779D01*
X127685018Y-114305411D01*
X127743135Y-114165101D01*
X127743137Y-114165097D01*
X127772051Y-114019737D01*
X127774038Y-114009750D01*
X127806423Y-113947839D01*
X127807919Y-113946315D01*
X129458080Y-112296153D01*
X150140500Y-112296153D01*
X150140500Y-112453846D01*
X150171261Y-112608489D01*
X150171264Y-112608501D01*
X150231602Y-112754172D01*
X150231609Y-112754185D01*
X150319210Y-112885288D01*
X150319213Y-112885292D01*
X150354486Y-112920565D01*
X150387971Y-112981888D01*
X150382987Y-113051580D01*
X150369907Y-113077136D01*
X150290612Y-113195809D01*
X150290602Y-113195827D01*
X150230264Y-113341498D01*
X150230261Y-113341510D01*
X150199500Y-113496153D01*
X150199500Y-113653846D01*
X150230261Y-113808489D01*
X150230264Y-113808501D01*
X150290602Y-113954172D01*
X150290609Y-113954185D01*
X150378210Y-114085288D01*
X150378213Y-114085292D01*
X150489707Y-114196786D01*
X150489711Y-114196789D01*
X150620814Y-114284390D01*
X150620827Y-114284397D01*
X150698588Y-114316606D01*
X150766503Y-114344737D01*
X150921153Y-114375499D01*
X150921156Y-114375500D01*
X150921158Y-114375500D01*
X151078844Y-114375500D01*
X151078845Y-114375499D01*
X151233497Y-114344737D01*
X151379179Y-114284394D01*
X151510289Y-114196789D01*
X151621789Y-114085289D01*
X151709394Y-113954179D01*
X151769737Y-113808497D01*
X151772386Y-113795175D01*
X151804770Y-113733266D01*
X151865485Y-113698690D01*
X151935255Y-113702428D01*
X151981685Y-113731685D01*
X152000000Y-113750000D01*
X155250000Y-113750000D01*
X155250000Y-111750000D01*
X155250000Y-111500000D01*
X155250000Y-111250000D01*
X152000000Y-111250000D01*
X152000000Y-113274016D01*
X151980315Y-113341055D01*
X151927511Y-113386810D01*
X151858353Y-113396754D01*
X151794797Y-113367729D01*
X151761439Y-113321469D01*
X151709395Y-113195823D01*
X151709390Y-113195814D01*
X151621789Y-113064711D01*
X151621786Y-113064707D01*
X151586513Y-113029434D01*
X151553028Y-112968111D01*
X151558012Y-112898419D01*
X151571092Y-112872862D01*
X151572456Y-112870821D01*
X151650394Y-112754179D01*
X151656389Y-112739707D01*
X151702571Y-112628211D01*
X151710737Y-112608497D01*
X151741500Y-112453842D01*
X151741500Y-112296158D01*
X151741500Y-112296155D01*
X151741499Y-112296153D01*
X151710738Y-112141510D01*
X151710737Y-112141503D01*
X151687549Y-112085521D01*
X151650397Y-111995827D01*
X151650390Y-111995814D01*
X151562789Y-111864711D01*
X151562786Y-111864707D01*
X151451292Y-111753213D01*
X151451288Y-111753210D01*
X151320185Y-111665609D01*
X151320172Y-111665602D01*
X151174501Y-111605264D01*
X151174489Y-111605261D01*
X151019845Y-111574500D01*
X151019842Y-111574500D01*
X150862158Y-111574500D01*
X150862155Y-111574500D01*
X150707510Y-111605261D01*
X150707498Y-111605264D01*
X150561827Y-111665602D01*
X150561814Y-111665609D01*
X150430711Y-111753210D01*
X150430707Y-111753213D01*
X150319213Y-111864707D01*
X150319210Y-111864711D01*
X150231609Y-111995814D01*
X150231602Y-111995827D01*
X150171264Y-112141498D01*
X150171261Y-112141510D01*
X150140500Y-112296153D01*
X129458080Y-112296153D01*
X129658506Y-112095727D01*
X129658511Y-112095724D01*
X129668714Y-112085520D01*
X129668716Y-112085520D01*
X129780520Y-111973716D01*
X129783426Y-111968682D01*
X129840550Y-111869741D01*
X129840553Y-111869732D01*
X129840559Y-111869724D01*
X129859577Y-111836785D01*
X129900500Y-111684058D01*
X129900500Y-111525943D01*
X129900500Y-100881902D01*
X136249500Y-100881902D01*
X136249500Y-101118097D01*
X136286446Y-101351368D01*
X136359433Y-101575996D01*
X136466657Y-101786433D01*
X136605483Y-101977510D01*
X136772490Y-102144517D01*
X136963567Y-102283343D01*
X137062991Y-102334002D01*
X137174003Y-102390566D01*
X137174005Y-102390566D01*
X137174008Y-102390568D01*
X137294412Y-102429689D01*
X137398631Y-102463553D01*
X137631903Y-102500500D01*
X137631908Y-102500500D01*
X137868097Y-102500500D01*
X138101368Y-102463553D01*
X138325992Y-102390568D01*
X138536433Y-102283343D01*
X138727510Y-102144517D01*
X138894517Y-101977510D01*
X139033343Y-101786433D01*
X139140568Y-101575992D01*
X139213553Y-101351368D01*
X139244216Y-101157770D01*
X139250500Y-101118097D01*
X139250500Y-100881902D01*
X140749500Y-100881902D01*
X140749500Y-101118097D01*
X140786446Y-101351368D01*
X140859433Y-101575996D01*
X140966657Y-101786433D01*
X141105483Y-101977510D01*
X141272490Y-102144517D01*
X141463567Y-102283343D01*
X141562991Y-102334002D01*
X141674003Y-102390566D01*
X141674005Y-102390566D01*
X141674008Y-102390568D01*
X141794412Y-102429689D01*
X141898631Y-102463553D01*
X142131903Y-102500500D01*
X142131908Y-102500500D01*
X142368097Y-102500500D01*
X142601368Y-102463553D01*
X142825992Y-102390568D01*
X143036433Y-102283343D01*
X143227510Y-102144517D01*
X143394517Y-101977510D01*
X143533343Y-101786433D01*
X143640568Y-101575992D01*
X143713553Y-101351368D01*
X143744216Y-101157770D01*
X143750500Y-101118097D01*
X143750500Y-100881902D01*
X143713553Y-100648631D01*
X143673508Y-100525388D01*
X143640568Y-100424008D01*
X143640566Y-100424005D01*
X143640566Y-100424003D01*
X143533342Y-100213566D01*
X143394517Y-100022490D01*
X143227510Y-99855483D01*
X143036433Y-99716657D01*
X143033481Y-99715153D01*
X142825996Y-99609433D01*
X142601368Y-99536446D01*
X142368097Y-99499500D01*
X142368092Y-99499500D01*
X142131908Y-99499500D01*
X142131903Y-99499500D01*
X141898631Y-99536446D01*
X141674003Y-99609433D01*
X141463566Y-99716657D01*
X141377139Y-99779451D01*
X141272490Y-99855483D01*
X141272488Y-99855485D01*
X141272487Y-99855485D01*
X141105485Y-100022487D01*
X141105485Y-100022488D01*
X141105483Y-100022490D01*
X141091752Y-100041389D01*
X140966657Y-100213566D01*
X140859433Y-100424003D01*
X140786446Y-100648631D01*
X140749500Y-100881902D01*
X139250500Y-100881902D01*
X139213553Y-100648631D01*
X139173508Y-100525388D01*
X139140568Y-100424008D01*
X139140566Y-100424005D01*
X139140566Y-100424003D01*
X139033342Y-100213566D01*
X138894517Y-100022490D01*
X138727510Y-99855483D01*
X138536433Y-99716657D01*
X138533481Y-99715153D01*
X138325996Y-99609433D01*
X138101368Y-99536446D01*
X137868097Y-99499500D01*
X137868092Y-99499500D01*
X137631908Y-99499500D01*
X137631903Y-99499500D01*
X137398631Y-99536446D01*
X137174003Y-99609433D01*
X136963566Y-99716657D01*
X136877139Y-99779451D01*
X136772490Y-99855483D01*
X136772488Y-99855485D01*
X136772487Y-99855485D01*
X136605485Y-100022487D01*
X136605485Y-100022488D01*
X136605483Y-100022490D01*
X136591752Y-100041389D01*
X136466657Y-100213566D01*
X136359433Y-100424003D01*
X136286446Y-100648631D01*
X136249500Y-100881902D01*
X129900500Y-100881902D01*
X129900500Y-94381902D01*
X136249500Y-94381902D01*
X136249500Y-94618097D01*
X136286446Y-94851368D01*
X136359433Y-95075996D01*
X136452662Y-95258967D01*
X136466657Y-95286433D01*
X136605483Y-95477510D01*
X136772490Y-95644517D01*
X136963567Y-95783343D01*
X137062991Y-95834002D01*
X137174003Y-95890566D01*
X137174005Y-95890566D01*
X137174008Y-95890568D01*
X137268139Y-95921153D01*
X137398631Y-95963553D01*
X137631903Y-96000500D01*
X137631908Y-96000500D01*
X137868097Y-96000500D01*
X138101368Y-95963553D01*
X138325992Y-95890568D01*
X138536433Y-95783343D01*
X138727510Y-95644517D01*
X138894517Y-95477510D01*
X139033343Y-95286433D01*
X139140568Y-95075992D01*
X139213553Y-94851368D01*
X139226482Y-94769737D01*
X139250500Y-94618097D01*
X139250500Y-94381902D01*
X140749500Y-94381902D01*
X140749500Y-94618097D01*
X140786446Y-94851368D01*
X140859433Y-95075996D01*
X140952662Y-95258967D01*
X140966657Y-95286433D01*
X141105483Y-95477510D01*
X141272490Y-95644517D01*
X141463567Y-95783343D01*
X141562991Y-95834002D01*
X141674003Y-95890566D01*
X141674005Y-95890566D01*
X141674008Y-95890568D01*
X141768139Y-95921153D01*
X141898631Y-95963553D01*
X142131903Y-96000500D01*
X142131908Y-96000500D01*
X142368097Y-96000500D01*
X142601368Y-95963553D01*
X142825992Y-95890568D01*
X143036433Y-95783343D01*
X143227510Y-95644517D01*
X143394517Y-95477510D01*
X143533343Y-95286433D01*
X143640568Y-95075992D01*
X143713553Y-94851368D01*
X143726482Y-94769737D01*
X143750500Y-94618097D01*
X143750500Y-94381902D01*
X143713553Y-94148631D01*
X143679689Y-94044412D01*
X143640568Y-93924008D01*
X143640566Y-93924005D01*
X143640566Y-93924003D01*
X143581211Y-93807514D01*
X143533343Y-93713567D01*
X143394517Y-93522490D01*
X143227510Y-93355483D01*
X143036433Y-93216657D01*
X142825996Y-93109433D01*
X142601368Y-93036446D01*
X142368097Y-92999500D01*
X142368092Y-92999500D01*
X142131908Y-92999500D01*
X142131903Y-92999500D01*
X141898631Y-93036446D01*
X141674003Y-93109433D01*
X141463566Y-93216657D01*
X141361791Y-93290602D01*
X141272490Y-93355483D01*
X141272488Y-93355485D01*
X141272487Y-93355485D01*
X141105485Y-93522487D01*
X141105485Y-93522488D01*
X141105483Y-93522490D01*
X141068957Y-93572764D01*
X140966657Y-93713566D01*
X140859433Y-93924003D01*
X140786446Y-94148631D01*
X140749500Y-94381902D01*
X139250500Y-94381902D01*
X139213553Y-94148631D01*
X139179689Y-94044412D01*
X139140568Y-93924008D01*
X139140566Y-93924005D01*
X139140566Y-93924003D01*
X139081211Y-93807514D01*
X139033343Y-93713567D01*
X138894517Y-93522490D01*
X138727510Y-93355483D01*
X138536433Y-93216657D01*
X138325996Y-93109433D01*
X138101368Y-93036446D01*
X137868097Y-92999500D01*
X137868092Y-92999500D01*
X137631908Y-92999500D01*
X137631903Y-92999500D01*
X137398631Y-93036446D01*
X137174003Y-93109433D01*
X136963566Y-93216657D01*
X136861791Y-93290602D01*
X136772490Y-93355483D01*
X136772488Y-93355485D01*
X136772487Y-93355485D01*
X136605485Y-93522487D01*
X136605485Y-93522488D01*
X136605483Y-93522490D01*
X136568957Y-93572764D01*
X136466657Y-93713566D01*
X136359433Y-93924003D01*
X136286446Y-94148631D01*
X136249500Y-94381902D01*
X129900500Y-94381902D01*
X129900500Y-87729601D01*
X129920185Y-87662562D01*
X129968206Y-87619116D01*
X129981610Y-87612287D01*
X130147219Y-87491966D01*
X130291966Y-87347219D01*
X130291968Y-87347215D01*
X130291971Y-87347213D01*
X130363077Y-87249342D01*
X130412287Y-87181610D01*
X130505220Y-86999219D01*
X130568477Y-86804534D01*
X130600500Y-86602352D01*
X130600500Y-86397648D01*
X130568477Y-86195466D01*
X130559066Y-86166503D01*
X130539127Y-86105137D01*
X130505220Y-86000781D01*
X130505218Y-86000778D01*
X130505218Y-86000776D01*
X130453865Y-85899991D01*
X130412287Y-85818390D01*
X130383097Y-85778213D01*
X130324373Y-85697385D01*
X130300893Y-85631579D01*
X130316719Y-85563525D01*
X130366825Y-85514830D01*
X130424691Y-85500500D01*
X162375500Y-85500500D01*
X162442539Y-85520185D01*
X162488294Y-85572989D01*
X162499500Y-85624500D01*
X162499500Y-113154865D01*
X162479815Y-113221904D01*
X162427011Y-113267659D01*
X162357853Y-113277603D01*
X162328048Y-113269427D01*
X162320569Y-113266329D01*
X162233497Y-113230263D01*
X162233494Y-113230262D01*
X162233491Y-113230261D01*
X162078845Y-113199500D01*
X162078842Y-113199500D01*
X161921158Y-113199500D01*
X161921155Y-113199500D01*
X161766510Y-113230261D01*
X161766507Y-113230262D01*
X161766506Y-113230262D01*
X161766503Y-113230263D01*
X161686372Y-113263454D01*
X161621952Y-113290137D01*
X161552482Y-113297605D01*
X161490003Y-113266329D01*
X161454351Y-113206240D01*
X161450500Y-113175575D01*
X161450500Y-113171155D01*
X161450499Y-113171153D01*
X161442504Y-113130961D01*
X161419737Y-113016503D01*
X161390962Y-112947033D01*
X161359397Y-112870827D01*
X161359390Y-112870814D01*
X161271789Y-112739711D01*
X161271786Y-112739707D01*
X161160292Y-112628213D01*
X161160288Y-112628210D01*
X161029185Y-112540609D01*
X161029172Y-112540602D01*
X160883501Y-112480264D01*
X160883489Y-112480261D01*
X160728845Y-112449500D01*
X160728842Y-112449500D01*
X160571158Y-112449500D01*
X160571155Y-112449500D01*
X160416510Y-112480261D01*
X160416498Y-112480264D01*
X160270827Y-112540602D01*
X160270814Y-112540609D01*
X160139711Y-112628210D01*
X160139707Y-112628213D01*
X160028213Y-112739707D01*
X160028210Y-112739711D01*
X159940609Y-112870814D01*
X159940602Y-112870827D01*
X159880264Y-113016498D01*
X159880261Y-113016510D01*
X159849500Y-113171153D01*
X159849500Y-113328846D01*
X159880261Y-113483489D01*
X159880264Y-113483501D01*
X159940602Y-113629172D01*
X159940609Y-113629185D01*
X160028210Y-113760288D01*
X160028213Y-113760292D01*
X160139707Y-113871786D01*
X160139711Y-113871789D01*
X160270814Y-113959390D01*
X160270827Y-113959397D01*
X160394072Y-114010446D01*
X160416503Y-114019737D01*
X160537269Y-114043759D01*
X160571153Y-114050499D01*
X160571156Y-114050500D01*
X160571158Y-114050500D01*
X160728844Y-114050500D01*
X160728845Y-114050499D01*
X160883497Y-114019737D01*
X160978623Y-113980335D01*
X161028048Y-113959863D01*
X161097517Y-113952394D01*
X161159996Y-113983669D01*
X161195648Y-114043759D01*
X161199500Y-114074424D01*
X161199500Y-114078846D01*
X161230261Y-114233489D01*
X161230264Y-114233501D01*
X161290602Y-114379172D01*
X161290609Y-114379185D01*
X161378210Y-114510288D01*
X161378213Y-114510292D01*
X161489707Y-114621786D01*
X161489711Y-114621789D01*
X161620814Y-114709390D01*
X161620827Y-114709397D01*
X161694013Y-114739711D01*
X161766503Y-114769737D01*
X161880930Y-114792498D01*
X161921153Y-114800499D01*
X161921156Y-114800500D01*
X161921158Y-114800500D01*
X162078844Y-114800500D01*
X162078845Y-114800499D01*
X162233497Y-114769737D01*
X162328048Y-114730572D01*
X162397517Y-114723104D01*
X162459996Y-114754379D01*
X162495648Y-114814468D01*
X162499500Y-114845134D01*
X162499500Y-117789634D01*
X162479815Y-117856673D01*
X162427011Y-117902428D01*
X162357853Y-117912372D01*
X162328049Y-117904196D01*
X162245707Y-117870090D01*
X162207497Y-117854263D01*
X162207493Y-117854262D01*
X162207489Y-117854261D01*
X162052845Y-117823500D01*
X162052842Y-117823500D01*
X161895158Y-117823500D01*
X161895155Y-117823500D01*
X161740510Y-117854261D01*
X161740498Y-117854264D01*
X161594827Y-117914602D01*
X161594813Y-117914610D01*
X161573757Y-117928679D01*
X161507080Y-117949555D01*
X161439700Y-117931069D01*
X161393011Y-117879089D01*
X161390308Y-117873028D01*
X161389396Y-117870827D01*
X161389394Y-117870821D01*
X161335147Y-117789634D01*
X161301789Y-117739710D01*
X161190292Y-117628213D01*
X161174124Y-117617410D01*
X161129320Y-117563797D01*
X161120613Y-117494472D01*
X161150768Y-117431445D01*
X161156169Y-117426284D01*
X161155982Y-117426097D01*
X161271786Y-117310292D01*
X161271789Y-117310289D01*
X161359394Y-117179179D01*
X161419737Y-117033497D01*
X161450500Y-116878842D01*
X161450500Y-116721158D01*
X161450500Y-116721155D01*
X161450499Y-116721153D01*
X161446720Y-116702155D01*
X161419737Y-116566503D01*
X161404138Y-116528844D01*
X161359397Y-116420827D01*
X161359390Y-116420814D01*
X161271789Y-116289711D01*
X161271786Y-116289707D01*
X161160292Y-116178213D01*
X161160288Y-116178210D01*
X161029185Y-116090609D01*
X161029172Y-116090602D01*
X160883501Y-116030264D01*
X160883489Y-116030261D01*
X160728845Y-115999500D01*
X160728842Y-115999500D01*
X160571158Y-115999500D01*
X160571155Y-115999500D01*
X160416510Y-116030261D01*
X160416498Y-116030264D01*
X160270827Y-116090602D01*
X160270814Y-116090609D01*
X160139711Y-116178210D01*
X160139707Y-116178213D01*
X160028213Y-116289707D01*
X160028210Y-116289711D01*
X159940609Y-116420814D01*
X159940602Y-116420827D01*
X159880264Y-116566498D01*
X159880261Y-116566510D01*
X159849500Y-116721153D01*
X159849500Y-116878846D01*
X159880261Y-117033489D01*
X159880264Y-117033501D01*
X159940602Y-117179172D01*
X159940609Y-117179185D01*
X160028210Y-117310288D01*
X160028213Y-117310292D01*
X160139707Y-117421786D01*
X160139715Y-117421792D01*
X160155873Y-117432589D01*
X160200679Y-117486201D01*
X160209386Y-117555526D01*
X160179232Y-117618553D01*
X160173834Y-117623719D01*
X160174018Y-117623903D01*
X160058213Y-117739707D01*
X160058210Y-117739711D01*
X159970609Y-117870814D01*
X159970602Y-117870827D01*
X159910264Y-118016498D01*
X159910261Y-118016510D01*
X159879500Y-118171153D01*
X159879500Y-118328846D01*
X159910261Y-118483489D01*
X159910264Y-118483501D01*
X159970602Y-118629172D01*
X159970609Y-118629185D01*
X160058210Y-118760288D01*
X160058213Y-118760292D01*
X160169707Y-118871786D01*
X160169711Y-118871789D01*
X160300814Y-118959390D01*
X160300827Y-118959397D01*
X160401178Y-119000963D01*
X160446503Y-119019737D01*
X160601153Y-119050499D01*
X160601156Y-119050500D01*
X160601158Y-119050500D01*
X160758844Y-119050500D01*
X160758845Y-119050499D01*
X160913497Y-119019737D01*
X161059179Y-118959394D01*
X161080238Y-118945322D01*
X161146914Y-118924444D01*
X161214295Y-118942927D01*
X161260986Y-118994905D01*
X161263688Y-119000963D01*
X161264607Y-119003181D01*
X161264607Y-119003182D01*
X161352210Y-119134288D01*
X161352213Y-119134292D01*
X161463707Y-119245786D01*
X161463711Y-119245789D01*
X161594814Y-119333390D01*
X161594827Y-119333397D01*
X161693150Y-119374123D01*
X161740503Y-119393737D01*
X161895153Y-119424499D01*
X161895156Y-119424500D01*
X161895158Y-119424500D01*
X162052844Y-119424500D01*
X162052845Y-119424499D01*
X162207497Y-119393737D01*
X162295291Y-119357372D01*
X162328048Y-119343804D01*
X162397517Y-119336335D01*
X162459996Y-119367610D01*
X162495648Y-119427700D01*
X162499500Y-119458365D01*
X162499500Y-131376000D01*
X162479815Y-131443039D01*
X162427011Y-131488794D01*
X162375500Y-131500000D01*
X143750000Y-131500000D01*
X143750000Y-140375500D01*
X143730315Y-140442539D01*
X143677511Y-140488294D01*
X143626000Y-140499500D01*
X89624500Y-140499500D01*
X89557461Y-140479815D01*
X89511706Y-140427011D01*
X89500500Y-140375500D01*
X89500500Y-139615269D01*
X95138282Y-139615269D01*
X95138282Y-139615270D01*
X95192449Y-139654624D01*
X95381782Y-139751095D01*
X95583870Y-139816757D01*
X95793754Y-139850000D01*
X96006246Y-139850000D01*
X96216127Y-139816757D01*
X96216130Y-139816757D01*
X96418217Y-139751095D01*
X96607554Y-139654622D01*
X96661716Y-139615270D01*
X96661717Y-139615270D01*
X95900000Y-138853554D01*
X95138282Y-139615269D01*
X89500500Y-139615269D01*
X89500500Y-138393753D01*
X94550000Y-138393753D01*
X94550000Y-138606246D01*
X94583242Y-138816127D01*
X94583242Y-138816130D01*
X94648904Y-139018217D01*
X94745375Y-139207550D01*
X94784728Y-139261716D01*
X95546446Y-138500000D01*
X95500368Y-138453922D01*
X95550000Y-138453922D01*
X95550000Y-138546078D01*
X95573852Y-138635095D01*
X95619930Y-138714905D01*
X95685095Y-138780070D01*
X95764905Y-138826148D01*
X95853922Y-138850000D01*
X95946078Y-138850000D01*
X96035095Y-138826148D01*
X96114905Y-138780070D01*
X96180070Y-138714905D01*
X96226148Y-138635095D01*
X96250000Y-138546078D01*
X96250000Y-138499999D01*
X96253554Y-138499999D01*
X96253554Y-138500000D01*
X97015270Y-139261717D01*
X97015270Y-139261716D01*
X97054622Y-139207554D01*
X97151095Y-139018217D01*
X97216757Y-138816130D01*
X97216757Y-138816127D01*
X97250000Y-138606246D01*
X97250000Y-138393753D01*
X97216757Y-138183872D01*
X97216757Y-138183869D01*
X97151095Y-137981782D01*
X97111019Y-137903129D01*
X97083939Y-137849983D01*
X98249500Y-137849983D01*
X98249500Y-139150001D01*
X98249501Y-139150018D01*
X98260000Y-139252796D01*
X98260001Y-139252799D01*
X98302081Y-139379786D01*
X98315186Y-139419334D01*
X98407288Y-139568656D01*
X98531344Y-139692712D01*
X98680666Y-139784814D01*
X98847203Y-139839999D01*
X98949991Y-139850500D01*
X100250008Y-139850499D01*
X100352797Y-139839999D01*
X100519334Y-139784814D01*
X100668656Y-139692712D01*
X100792712Y-139568656D01*
X100884814Y-139419334D01*
X100939999Y-139252797D01*
X100950500Y-139150009D01*
X100950499Y-138393713D01*
X102549500Y-138393713D01*
X102549500Y-138606286D01*
X102582735Y-138816127D01*
X102582754Y-138816243D01*
X102593722Y-138850000D01*
X102648444Y-139018414D01*
X102744951Y-139207820D01*
X102869890Y-139379786D01*
X103020213Y-139530109D01*
X103192179Y-139655048D01*
X103192181Y-139655049D01*
X103192184Y-139655051D01*
X103381588Y-139751557D01*
X103583757Y-139817246D01*
X103793713Y-139850500D01*
X103793714Y-139850500D01*
X104006286Y-139850500D01*
X104006287Y-139850500D01*
X104216243Y-139817246D01*
X104418412Y-139751557D01*
X104607816Y-139655051D01*
X104662572Y-139615269D01*
X104779786Y-139530109D01*
X104779788Y-139530106D01*
X104779792Y-139530104D01*
X104930104Y-139379792D01*
X104930106Y-139379788D01*
X104930109Y-139379786D01*
X105055048Y-139207820D01*
X105055047Y-139207820D01*
X105055051Y-139207816D01*
X105151557Y-139018412D01*
X105217246Y-138816243D01*
X105250500Y-138606287D01*
X105250500Y-138393713D01*
X105217246Y-138183757D01*
X105151557Y-137981588D01*
X105084501Y-137849983D01*
X106249500Y-137849983D01*
X106249500Y-139150001D01*
X106249501Y-139150018D01*
X106260000Y-139252796D01*
X106260001Y-139252799D01*
X106302081Y-139379786D01*
X106315186Y-139419334D01*
X106407288Y-139568656D01*
X106531344Y-139692712D01*
X106680666Y-139784814D01*
X106847203Y-139839999D01*
X106949991Y-139850500D01*
X108250008Y-139850499D01*
X108352797Y-139839999D01*
X108519334Y-139784814D01*
X108668656Y-139692712D01*
X108792712Y-139568656D01*
X108884814Y-139419334D01*
X108939999Y-139252797D01*
X108950500Y-139150009D01*
X108950499Y-137849992D01*
X108939999Y-137747203D01*
X108884814Y-137580666D01*
X108792712Y-137431344D01*
X108771305Y-137409937D01*
X108737820Y-137348614D01*
X108740198Y-137315353D01*
X117557900Y-137315353D01*
X117557900Y-137473046D01*
X117588661Y-137627689D01*
X117588664Y-137627701D01*
X117649002Y-137773372D01*
X117649009Y-137773385D01*
X117736610Y-137904488D01*
X117736613Y-137904492D01*
X117848107Y-138015986D01*
X117848111Y-138015989D01*
X117979214Y-138103590D01*
X117979227Y-138103597D01*
X118124898Y-138163935D01*
X118124903Y-138163937D01*
X118279553Y-138194699D01*
X118279556Y-138194700D01*
X118279558Y-138194700D01*
X118437244Y-138194700D01*
X118437245Y-138194699D01*
X118591897Y-138163937D01*
X118737579Y-138103594D01*
X118868689Y-138015989D01*
X118980189Y-137904489D01*
X119067794Y-137773379D01*
X119128137Y-137627697D01*
X119158900Y-137473042D01*
X119158900Y-137315358D01*
X119158900Y-137315355D01*
X119158899Y-137315353D01*
X119154552Y-137293501D01*
X119128137Y-137160703D01*
X119100029Y-137092844D01*
X119070900Y-137022518D01*
X119067795Y-137015024D01*
X119067794Y-137015021D01*
X119067792Y-137015018D01*
X119067790Y-137015014D01*
X119045165Y-136981153D01*
X130748500Y-136981153D01*
X130748500Y-137138846D01*
X130779261Y-137293489D01*
X130779264Y-137293501D01*
X130839602Y-137439172D01*
X130839609Y-137439185D01*
X130927210Y-137570288D01*
X130927213Y-137570292D01*
X131038707Y-137681786D01*
X131038711Y-137681789D01*
X131169814Y-137769390D01*
X131169827Y-137769397D01*
X131315498Y-137829735D01*
X131315503Y-137829737D01*
X131470153Y-137860499D01*
X131470156Y-137860500D01*
X131470158Y-137860500D01*
X131627844Y-137860500D01*
X131627845Y-137860499D01*
X131782497Y-137829737D01*
X131928179Y-137769394D01*
X132059289Y-137681789D01*
X132170789Y-137570289D01*
X132258394Y-137439179D01*
X132318737Y-137293497D01*
X132349500Y-137138842D01*
X132349500Y-136981158D01*
X132349500Y-136981155D01*
X132349499Y-136981153D01*
X132319930Y-136832500D01*
X132318737Y-136826503D01*
X132299686Y-136780510D01*
X132258397Y-136680827D01*
X132258390Y-136680814D01*
X132170789Y-136549711D01*
X132170786Y-136549707D01*
X132059292Y-136438213D01*
X132059288Y-136438210D01*
X131928185Y-136350609D01*
X131928172Y-136350602D01*
X131782501Y-136290264D01*
X131782489Y-136290261D01*
X131627845Y-136259500D01*
X131627842Y-136259500D01*
X131470158Y-136259500D01*
X131470155Y-136259500D01*
X131315510Y-136290261D01*
X131315498Y-136290264D01*
X131169827Y-136350602D01*
X131169814Y-136350609D01*
X131038711Y-136438210D01*
X131038707Y-136438213D01*
X130927213Y-136549707D01*
X130927210Y-136549711D01*
X130839609Y-136680814D01*
X130839602Y-136680827D01*
X130779264Y-136826498D01*
X130779261Y-136826510D01*
X130748500Y-136981153D01*
X119045165Y-136981153D01*
X118980189Y-136883911D01*
X118980186Y-136883907D01*
X118868692Y-136772413D01*
X118868688Y-136772410D01*
X118737585Y-136684809D01*
X118737572Y-136684802D01*
X118591901Y-136624464D01*
X118591889Y-136624461D01*
X118437245Y-136593700D01*
X118437242Y-136593700D01*
X118279558Y-136593700D01*
X118279555Y-136593700D01*
X118124910Y-136624461D01*
X118124898Y-136624464D01*
X117979227Y-136684802D01*
X117979214Y-136684809D01*
X117848111Y-136772410D01*
X117848107Y-136772413D01*
X117736613Y-136883907D01*
X117736610Y-136883911D01*
X117649009Y-137015014D01*
X117649002Y-137015027D01*
X117588664Y-137160698D01*
X117588661Y-137160710D01*
X117557900Y-137315353D01*
X108740198Y-137315353D01*
X108741807Y-137292859D01*
X108741629Y-137291619D01*
X108741990Y-137290302D01*
X108742804Y-137278922D01*
X108744402Y-137274861D01*
X108755737Y-137247497D01*
X108786500Y-137092842D01*
X108786500Y-136935158D01*
X108786500Y-136935155D01*
X108786499Y-136935153D01*
X108766080Y-136832500D01*
X108755737Y-136780503D01*
X108716100Y-136684809D01*
X108695397Y-136634827D01*
X108695390Y-136634814D01*
X108607789Y-136503711D01*
X108607786Y-136503707D01*
X108496292Y-136392213D01*
X108496288Y-136392210D01*
X108365185Y-136304609D01*
X108365172Y-136304602D01*
X108219501Y-136244264D01*
X108219489Y-136244261D01*
X108064845Y-136213500D01*
X108064842Y-136213500D01*
X107907158Y-136213500D01*
X107907155Y-136213500D01*
X107752510Y-136244261D01*
X107752498Y-136244264D01*
X107606827Y-136304602D01*
X107606814Y-136304609D01*
X107475711Y-136392210D01*
X107475707Y-136392213D01*
X107364213Y-136503707D01*
X107364210Y-136503711D01*
X107276609Y-136634814D01*
X107276602Y-136634827D01*
X107216264Y-136780498D01*
X107216261Y-136780510D01*
X107185500Y-136935153D01*
X107185500Y-137025500D01*
X107165815Y-137092539D01*
X107113011Y-137138294D01*
X107061501Y-137149500D01*
X106949999Y-137149500D01*
X106949980Y-137149501D01*
X106847203Y-137160000D01*
X106847200Y-137160001D01*
X106680668Y-137215185D01*
X106680663Y-137215187D01*
X106531342Y-137307289D01*
X106407289Y-137431342D01*
X106315187Y-137580663D01*
X106315186Y-137580666D01*
X106260001Y-137747203D01*
X106260001Y-137747204D01*
X106260000Y-137747204D01*
X106249500Y-137849983D01*
X105084501Y-137849983D01*
X105055051Y-137792184D01*
X105055049Y-137792181D01*
X105055048Y-137792179D01*
X104930109Y-137620213D01*
X104779786Y-137469890D01*
X104607815Y-137344948D01*
X104607814Y-137344947D01*
X104568205Y-137324765D01*
X104517409Y-137276791D01*
X104500500Y-137214281D01*
X104500500Y-136384841D01*
X104520185Y-136317802D01*
X104572989Y-136272047D01*
X104642147Y-136262103D01*
X104705703Y-136291128D01*
X104712181Y-136297160D01*
X104778907Y-136363886D01*
X104778911Y-136363889D01*
X104910014Y-136451490D01*
X104910027Y-136451497D01*
X105036075Y-136503707D01*
X105055703Y-136511837D01*
X105208795Y-136542289D01*
X105210353Y-136542599D01*
X105210356Y-136542600D01*
X105210358Y-136542600D01*
X105368044Y-136542600D01*
X105368045Y-136542599D01*
X105522697Y-136511837D01*
X105668379Y-136451494D01*
X105799489Y-136363889D01*
X105910989Y-136252389D01*
X105998594Y-136121279D01*
X106002916Y-136110846D01*
X106022366Y-136063887D01*
X106058937Y-135975597D01*
X106089700Y-135820942D01*
X106089700Y-135663258D01*
X106089700Y-135663255D01*
X106089699Y-135663253D01*
X106080048Y-135614734D01*
X106058937Y-135508603D01*
X106058935Y-135508598D01*
X105998597Y-135362927D01*
X105998590Y-135362914D01*
X105910989Y-135231811D01*
X105910986Y-135231807D01*
X105799492Y-135120313D01*
X105799488Y-135120310D01*
X105668385Y-135032709D01*
X105668372Y-135032702D01*
X105522701Y-134972364D01*
X105522689Y-134972361D01*
X105368045Y-134941600D01*
X105368042Y-134941600D01*
X105210358Y-134941600D01*
X105210355Y-134941600D01*
X105055710Y-134972361D01*
X105055698Y-134972364D01*
X104910027Y-135032702D01*
X104910014Y-135032709D01*
X104778911Y-135120310D01*
X104778907Y-135120313D01*
X104712181Y-135187040D01*
X104650858Y-135220525D01*
X104581166Y-135215541D01*
X104525233Y-135173669D01*
X104500816Y-135108205D01*
X104500500Y-135099359D01*
X104500500Y-134825153D01*
X110045500Y-134825153D01*
X110045500Y-134982846D01*
X110076261Y-135137489D01*
X110076264Y-135137501D01*
X110136602Y-135283172D01*
X110136609Y-135283185D01*
X110224210Y-135414288D01*
X110224213Y-135414292D01*
X110335707Y-135525786D01*
X110335711Y-135525789D01*
X110466814Y-135613390D01*
X110466827Y-135613397D01*
X110562021Y-135652827D01*
X110612503Y-135673737D01*
X110765670Y-135704204D01*
X110767153Y-135704499D01*
X110767156Y-135704500D01*
X110767158Y-135704500D01*
X110924844Y-135704500D01*
X110924845Y-135704499D01*
X111079497Y-135673737D01*
X111225179Y-135613394D01*
X111356289Y-135525789D01*
X111467789Y-135414289D01*
X111555394Y-135283179D01*
X111562299Y-135266510D01*
X111597081Y-135182537D01*
X111601796Y-135171153D01*
X113449500Y-135171153D01*
X113449500Y-135328846D01*
X113480261Y-135483489D01*
X113480264Y-135483501D01*
X113540602Y-135629172D01*
X113540609Y-135629185D01*
X113628210Y-135760288D01*
X113628213Y-135760292D01*
X113739707Y-135871786D01*
X113739711Y-135871789D01*
X113870814Y-135959390D01*
X113870827Y-135959397D01*
X114016498Y-136019735D01*
X114016503Y-136019737D01*
X114171153Y-136050499D01*
X114171156Y-136050500D01*
X114171158Y-136050500D01*
X114328844Y-136050500D01*
X114328845Y-136050499D01*
X114483497Y-136019737D01*
X114629179Y-135959394D01*
X114760289Y-135871789D01*
X114871789Y-135760289D01*
X114959394Y-135629179D01*
X115019737Y-135483497D01*
X115032138Y-135421153D01*
X128624500Y-135421153D01*
X128624500Y-135578846D01*
X128655261Y-135733489D01*
X128655264Y-135733501D01*
X128715602Y-135879172D01*
X128715609Y-135879185D01*
X128803210Y-136010288D01*
X128803213Y-136010292D01*
X128914707Y-136121786D01*
X128914711Y-136121789D01*
X129045814Y-136209390D01*
X129045827Y-136209397D01*
X129181276Y-136265501D01*
X129191503Y-136269737D01*
X129311827Y-136293671D01*
X129346153Y-136300499D01*
X129346156Y-136300500D01*
X129346158Y-136300500D01*
X129503844Y-136300500D01*
X129503845Y-136300499D01*
X129658497Y-136269737D01*
X129804179Y-136209394D01*
X129935289Y-136121789D01*
X130046789Y-136010289D01*
X130134394Y-135879179D01*
X130194737Y-135733497D01*
X130225500Y-135578842D01*
X130225500Y-135421158D01*
X130223323Y-135410213D01*
X130222365Y-135405397D01*
X130222365Y-135405394D01*
X130218360Y-135385258D01*
X138749500Y-135385258D01*
X138749500Y-135614741D01*
X138768663Y-135760288D01*
X138779452Y-135842238D01*
X138835255Y-136050499D01*
X138838842Y-136063887D01*
X138926650Y-136275876D01*
X138926657Y-136275890D01*
X138977463Y-136363889D01*
X139031487Y-136457462D01*
X139041392Y-136474617D01*
X139181081Y-136656661D01*
X139181089Y-136656670D01*
X139343330Y-136818911D01*
X139343338Y-136818918D01*
X139343339Y-136818919D01*
X139344748Y-136820000D01*
X139525382Y-136958607D01*
X139525385Y-136958608D01*
X139525388Y-136958611D01*
X139724112Y-137073344D01*
X139724117Y-137073346D01*
X139724123Y-137073349D01*
X139815480Y-137111190D01*
X139936113Y-137161158D01*
X140157762Y-137220548D01*
X140385266Y-137250500D01*
X140385273Y-137250500D01*
X140614727Y-137250500D01*
X140614734Y-137250500D01*
X140842238Y-137220548D01*
X141063887Y-137161158D01*
X141275888Y-137073344D01*
X141474612Y-136958611D01*
X141656661Y-136818919D01*
X141656665Y-136818914D01*
X141656670Y-136818911D01*
X141818911Y-136656670D01*
X141818914Y-136656665D01*
X141818919Y-136656661D01*
X141958611Y-136474612D01*
X142073344Y-136275888D01*
X142161158Y-136063887D01*
X142220548Y-135842238D01*
X142250500Y-135614734D01*
X142250500Y-135385266D01*
X142220548Y-135157762D01*
X142161158Y-134936113D01*
X142100885Y-134790602D01*
X142073349Y-134724123D01*
X142073346Y-134724117D01*
X142073344Y-134724112D01*
X141958611Y-134525388D01*
X141958608Y-134525385D01*
X141958607Y-134525382D01*
X141857568Y-134393707D01*
X141818919Y-134343339D01*
X141818918Y-134343338D01*
X141818911Y-134343330D01*
X141656670Y-134181089D01*
X141656661Y-134181081D01*
X141474617Y-134041392D01*
X141454355Y-134029694D01*
X141275888Y-133926656D01*
X141275876Y-133926650D01*
X141063887Y-133838842D01*
X141026566Y-133828842D01*
X140842238Y-133779452D01*
X140804215Y-133774446D01*
X140614741Y-133749500D01*
X140614734Y-133749500D01*
X140385266Y-133749500D01*
X140385258Y-133749500D01*
X140169869Y-133777858D01*
X140157762Y-133779452D01*
X140064076Y-133804554D01*
X139936112Y-133838842D01*
X139724123Y-133926650D01*
X139724109Y-133926657D01*
X139525382Y-134041392D01*
X139343338Y-134181081D01*
X139181081Y-134343338D01*
X139041392Y-134525382D01*
X138926657Y-134724109D01*
X138926650Y-134724123D01*
X138838842Y-134936112D01*
X138779453Y-135157759D01*
X138779451Y-135157770D01*
X138749500Y-135385258D01*
X130218360Y-135385258D01*
X130194738Y-135266508D01*
X130194737Y-135266507D01*
X130194737Y-135266503D01*
X130180366Y-135231807D01*
X130134397Y-135120827D01*
X130134390Y-135120814D01*
X130046789Y-134989711D01*
X130046786Y-134989707D01*
X129935292Y-134878213D01*
X129935288Y-134878210D01*
X129804185Y-134790609D01*
X129804172Y-134790602D01*
X129658501Y-134730264D01*
X129658489Y-134730261D01*
X129503845Y-134699500D01*
X129503842Y-134699500D01*
X129346158Y-134699500D01*
X129346155Y-134699500D01*
X129191510Y-134730261D01*
X129191498Y-134730264D01*
X129045827Y-134790602D01*
X129045814Y-134790609D01*
X128914711Y-134878210D01*
X128914707Y-134878213D01*
X128803213Y-134989707D01*
X128803210Y-134989711D01*
X128715609Y-135120814D01*
X128715602Y-135120827D01*
X128655264Y-135266498D01*
X128655261Y-135266510D01*
X128624500Y-135421153D01*
X115032138Y-135421153D01*
X115039275Y-135385272D01*
X115050500Y-135328844D01*
X115050500Y-135171155D01*
X115050499Y-135171153D01*
X115036218Y-135099359D01*
X115019737Y-135016503D01*
X115019735Y-135016498D01*
X114959397Y-134870827D01*
X114959390Y-134870814D01*
X114871789Y-134739711D01*
X114871786Y-134739707D01*
X114760292Y-134628213D01*
X114760288Y-134628210D01*
X114629185Y-134540609D01*
X114629172Y-134540602D01*
X114483501Y-134480264D01*
X114483489Y-134480261D01*
X114328845Y-134449500D01*
X114328842Y-134449500D01*
X114171158Y-134449500D01*
X114171155Y-134449500D01*
X114016510Y-134480261D01*
X114016498Y-134480264D01*
X113870827Y-134540602D01*
X113870814Y-134540609D01*
X113739711Y-134628210D01*
X113739707Y-134628213D01*
X113628213Y-134739707D01*
X113628210Y-134739711D01*
X113540609Y-134870814D01*
X113540602Y-134870827D01*
X113480264Y-135016498D01*
X113480261Y-135016510D01*
X113449500Y-135171153D01*
X111601796Y-135171153D01*
X111615737Y-135137497D01*
X111615739Y-135137489D01*
X111615740Y-135137485D01*
X111639805Y-135016498D01*
X111646500Y-134982842D01*
X111646500Y-134825158D01*
X111646500Y-134825155D01*
X111646499Y-134825153D01*
X111635765Y-134771190D01*
X111615737Y-134670503D01*
X111598219Y-134628210D01*
X111555397Y-134524827D01*
X111555390Y-134524814D01*
X111467789Y-134393711D01*
X111467786Y-134393707D01*
X111356292Y-134282213D01*
X111356288Y-134282210D01*
X111225185Y-134194609D01*
X111225172Y-134194602D01*
X111079501Y-134134264D01*
X111079489Y-134134261D01*
X110924845Y-134103500D01*
X110924842Y-134103500D01*
X110767158Y-134103500D01*
X110767155Y-134103500D01*
X110612510Y-134134261D01*
X110612498Y-134134264D01*
X110466827Y-134194602D01*
X110466814Y-134194609D01*
X110335711Y-134282210D01*
X110335707Y-134282213D01*
X110224213Y-134393707D01*
X110224210Y-134393711D01*
X110136609Y-134524814D01*
X110136602Y-134524827D01*
X110076264Y-134670498D01*
X110076261Y-134670510D01*
X110045500Y-134825153D01*
X104500500Y-134825153D01*
X104500500Y-134212746D01*
X104520185Y-134145707D01*
X104572989Y-134099952D01*
X104600306Y-134091129D01*
X104605797Y-134090037D01*
X104751479Y-134029694D01*
X104821432Y-133982953D01*
X133054800Y-133982953D01*
X133054800Y-134140646D01*
X133085561Y-134295289D01*
X133085564Y-134295301D01*
X133145902Y-134440972D01*
X133145909Y-134440985D01*
X133233510Y-134572088D01*
X133233513Y-134572092D01*
X133345007Y-134683586D01*
X133345011Y-134683589D01*
X133476114Y-134771190D01*
X133476127Y-134771197D01*
X133621798Y-134831535D01*
X133621803Y-134831537D01*
X133776453Y-134862299D01*
X133776456Y-134862300D01*
X133776458Y-134862300D01*
X133934144Y-134862300D01*
X133934145Y-134862299D01*
X134088797Y-134831537D01*
X134234479Y-134771194D01*
X134365589Y-134683589D01*
X134477089Y-134572089D01*
X134564694Y-134440979D01*
X134625037Y-134295297D01*
X134655800Y-134140642D01*
X134655800Y-133982958D01*
X134655800Y-133982955D01*
X134655799Y-133982953D01*
X134648774Y-133947636D01*
X134625037Y-133828303D01*
X134604803Y-133779453D01*
X134564697Y-133682627D01*
X134564690Y-133682614D01*
X134477089Y-133551511D01*
X134477086Y-133551507D01*
X134365592Y-133440013D01*
X134365588Y-133440010D01*
X134234485Y-133352409D01*
X134234472Y-133352402D01*
X134088801Y-133292064D01*
X134088789Y-133292061D01*
X133934145Y-133261300D01*
X133934142Y-133261300D01*
X133776458Y-133261300D01*
X133776455Y-133261300D01*
X133621810Y-133292061D01*
X133621798Y-133292064D01*
X133476127Y-133352402D01*
X133476114Y-133352409D01*
X133345011Y-133440010D01*
X133345007Y-133440013D01*
X133233513Y-133551507D01*
X133233510Y-133551511D01*
X133145909Y-133682614D01*
X133145902Y-133682627D01*
X133085564Y-133828298D01*
X133085561Y-133828310D01*
X133054800Y-133982953D01*
X104821432Y-133982953D01*
X104882589Y-133942089D01*
X104898028Y-133926650D01*
X104935494Y-133889185D01*
X104994086Y-133830592D01*
X104994089Y-133830589D01*
X105081694Y-133699479D01*
X105142037Y-133553797D01*
X105172800Y-133399142D01*
X105172800Y-133241458D01*
X105172800Y-133241455D01*
X105172799Y-133241453D01*
X105155568Y-133154827D01*
X105142037Y-133086803D01*
X105115902Y-133023707D01*
X105081697Y-132941127D01*
X105081690Y-132941114D01*
X104994089Y-132810011D01*
X104994086Y-132810007D01*
X104882592Y-132698513D01*
X104882588Y-132698510D01*
X104751485Y-132610909D01*
X104751472Y-132610902D01*
X104605801Y-132550564D01*
X104605789Y-132550561D01*
X104451145Y-132519800D01*
X104451142Y-132519800D01*
X104433700Y-132519800D01*
X104366661Y-132500115D01*
X104320906Y-132447311D01*
X104309700Y-132395800D01*
X104309700Y-131314997D01*
X104329385Y-131247958D01*
X104346019Y-131227316D01*
X104532733Y-131040602D01*
X104658182Y-130915153D01*
X110438500Y-130915153D01*
X110438500Y-131072846D01*
X110469261Y-131227489D01*
X110469264Y-131227501D01*
X110529602Y-131373172D01*
X110529609Y-131373185D01*
X110617210Y-131504288D01*
X110617213Y-131504292D01*
X110728707Y-131615786D01*
X110728711Y-131615789D01*
X110859814Y-131703390D01*
X110859827Y-131703397D01*
X111005498Y-131763735D01*
X111005503Y-131763737D01*
X111160153Y-131794499D01*
X111160156Y-131794500D01*
X111160158Y-131794500D01*
X111317844Y-131794500D01*
X111317845Y-131794499D01*
X111472497Y-131763737D01*
X111618179Y-131703394D01*
X111749289Y-131615789D01*
X111860789Y-131504289D01*
X111948394Y-131373179D01*
X112008737Y-131227497D01*
X112014121Y-131200427D01*
X112027305Y-131134153D01*
X124912500Y-131134153D01*
X124912500Y-131291846D01*
X124943261Y-131446489D01*
X124943264Y-131446501D01*
X125003602Y-131592172D01*
X125003609Y-131592185D01*
X125091210Y-131723288D01*
X125091213Y-131723292D01*
X125202707Y-131834786D01*
X125202711Y-131834789D01*
X125333814Y-131922390D01*
X125333827Y-131922397D01*
X125479498Y-131982735D01*
X125479503Y-131982737D01*
X125506109Y-131988029D01*
X125535691Y-131993914D01*
X125597602Y-132026299D01*
X125632176Y-132087014D01*
X125635500Y-132115531D01*
X125635500Y-132264846D01*
X125666261Y-132419489D01*
X125666264Y-132419501D01*
X125726602Y-132565172D01*
X125726609Y-132565185D01*
X125814210Y-132696288D01*
X125814213Y-132696292D01*
X125925707Y-132807786D01*
X125925711Y-132807789D01*
X126056814Y-132895390D01*
X126056827Y-132895397D01*
X126167231Y-132941127D01*
X126202503Y-132955737D01*
X126325793Y-132980261D01*
X126357153Y-132986499D01*
X126357156Y-132986500D01*
X126357158Y-132986500D01*
X126514844Y-132986500D01*
X126514845Y-132986499D01*
X126669497Y-132955737D01*
X126815179Y-132895394D01*
X126946289Y-132807789D01*
X127057789Y-132696289D01*
X127145394Y-132565179D01*
X127205737Y-132419497D01*
X127236500Y-132264842D01*
X127236500Y-132107158D01*
X127236500Y-132107155D01*
X127236499Y-132107153D01*
X127211902Y-131983497D01*
X127205737Y-131952503D01*
X127156979Y-131834789D01*
X127145397Y-131806827D01*
X127145390Y-131806814D01*
X127057789Y-131675711D01*
X127057786Y-131675707D01*
X126946292Y-131564213D01*
X126946288Y-131564210D01*
X126815185Y-131476609D01*
X126815172Y-131476602D01*
X126669501Y-131416264D01*
X126669492Y-131416261D01*
X126613307Y-131405085D01*
X126551396Y-131372699D01*
X126516823Y-131311983D01*
X126513500Y-131283468D01*
X126513500Y-131134155D01*
X126513499Y-131134153D01*
X126482888Y-130980263D01*
X126482737Y-130979503D01*
X126482735Y-130979498D01*
X126422397Y-130833827D01*
X126422390Y-130833814D01*
X126334789Y-130702711D01*
X126334786Y-130702707D01*
X126223292Y-130591213D01*
X126223288Y-130591210D01*
X126092185Y-130503609D01*
X126092172Y-130503602D01*
X125946501Y-130443264D01*
X125946489Y-130443261D01*
X125791845Y-130412500D01*
X125791842Y-130412500D01*
X125634158Y-130412500D01*
X125634155Y-130412500D01*
X125479510Y-130443261D01*
X125479498Y-130443264D01*
X125333827Y-130503602D01*
X125333814Y-130503609D01*
X125202711Y-130591210D01*
X125202707Y-130591213D01*
X125091213Y-130702707D01*
X125091210Y-130702711D01*
X125003609Y-130833814D01*
X125003602Y-130833827D01*
X124943264Y-130979498D01*
X124943261Y-130979510D01*
X124912500Y-131134153D01*
X112027305Y-131134153D01*
X112033328Y-131103874D01*
X112033328Y-131103873D01*
X112039499Y-131072846D01*
X112039500Y-131072844D01*
X112039500Y-130915155D01*
X112039499Y-130915153D01*
X112023321Y-130833821D01*
X112008737Y-130760503D01*
X111986876Y-130707725D01*
X111948397Y-130614827D01*
X111948390Y-130614814D01*
X111860789Y-130483711D01*
X111860786Y-130483707D01*
X111749292Y-130372213D01*
X111749288Y-130372210D01*
X111618185Y-130284609D01*
X111618172Y-130284602D01*
X111472501Y-130224264D01*
X111472489Y-130224261D01*
X111317845Y-130193500D01*
X111317842Y-130193500D01*
X111160158Y-130193500D01*
X111160155Y-130193500D01*
X111005510Y-130224261D01*
X111005498Y-130224264D01*
X110859827Y-130284602D01*
X110859814Y-130284609D01*
X110728711Y-130372210D01*
X110728707Y-130372213D01*
X110617213Y-130483707D01*
X110617210Y-130483711D01*
X110529609Y-130614814D01*
X110529602Y-130614827D01*
X110469264Y-130760498D01*
X110469261Y-130760510D01*
X110438500Y-130915153D01*
X104658182Y-130915153D01*
X104970762Y-130602572D01*
X105032083Y-130569089D01*
X105034250Y-130568638D01*
X105092185Y-130557113D01*
X105189597Y-130537737D01*
X105335279Y-130477394D01*
X105466389Y-130389789D01*
X105577889Y-130278289D01*
X105665494Y-130147179D01*
X105725837Y-130001497D01*
X105756600Y-129846842D01*
X105756600Y-129689158D01*
X105756600Y-129689155D01*
X105756599Y-129689153D01*
X105733563Y-129573344D01*
X105725837Y-129534503D01*
X105694400Y-129458607D01*
X105665497Y-129388827D01*
X105665490Y-129388814D01*
X105577889Y-129257711D01*
X105577886Y-129257707D01*
X105466392Y-129146213D01*
X105466388Y-129146210D01*
X105335285Y-129058609D01*
X105335272Y-129058602D01*
X105189601Y-128998264D01*
X105189589Y-128998261D01*
X105034945Y-128967500D01*
X105034942Y-128967500D01*
X104877258Y-128967500D01*
X104877255Y-128967500D01*
X104722610Y-128998261D01*
X104722598Y-128998264D01*
X104576927Y-129058602D01*
X104576914Y-129058609D01*
X104445811Y-129146210D01*
X104445807Y-129146213D01*
X104334313Y-129257707D01*
X104334310Y-129257711D01*
X104246709Y-129388814D01*
X104246702Y-129388827D01*
X104186364Y-129534498D01*
X104186361Y-129534508D01*
X104155461Y-129689850D01*
X104123076Y-129751761D01*
X104121525Y-129753339D01*
X103228681Y-130646182D01*
X103228680Y-130646184D01*
X103193150Y-130707724D01*
X103149623Y-130783115D01*
X103108699Y-130935843D01*
X103108699Y-130935845D01*
X103108699Y-131103946D01*
X103108700Y-131103959D01*
X103108700Y-133421430D01*
X103108699Y-133421448D01*
X103108699Y-133587154D01*
X103108698Y-133587154D01*
X103138794Y-133699472D01*
X103149623Y-133739885D01*
X103171547Y-133777858D01*
X103228680Y-133876816D01*
X103270868Y-133919004D01*
X103277102Y-133927914D01*
X103284923Y-133951134D01*
X103296666Y-133972640D01*
X103298775Y-133992263D01*
X103299404Y-133994128D01*
X103299104Y-133995319D01*
X103299500Y-133998998D01*
X103299500Y-137214281D01*
X103279815Y-137281320D01*
X103231795Y-137324765D01*
X103192185Y-137344947D01*
X103192184Y-137344948D01*
X103020213Y-137469890D01*
X102869890Y-137620213D01*
X102744951Y-137792179D01*
X102648444Y-137981585D01*
X102582753Y-138183760D01*
X102549500Y-138393713D01*
X100950499Y-138393713D01*
X100950499Y-137849992D01*
X100939999Y-137747203D01*
X100884814Y-137580666D01*
X100792712Y-137431344D01*
X100668656Y-137307288D01*
X100571706Y-137247489D01*
X100519336Y-137215187D01*
X100519331Y-137215185D01*
X100516603Y-137214281D01*
X100352797Y-137160001D01*
X100352795Y-137160000D01*
X100250010Y-137149500D01*
X98949998Y-137149500D01*
X98949981Y-137149501D01*
X98847203Y-137160000D01*
X98847200Y-137160001D01*
X98680668Y-137215185D01*
X98680663Y-137215187D01*
X98531342Y-137307289D01*
X98407289Y-137431342D01*
X98315187Y-137580663D01*
X98315186Y-137580666D01*
X98260001Y-137747203D01*
X98260001Y-137747204D01*
X98260000Y-137747204D01*
X98249500Y-137849983D01*
X97083939Y-137849983D01*
X97054624Y-137792449D01*
X97015270Y-137738282D01*
X97015269Y-137738282D01*
X96253554Y-138499999D01*
X96250000Y-138499999D01*
X96250000Y-138453922D01*
X96226148Y-138364905D01*
X96180070Y-138285095D01*
X96114905Y-138219930D01*
X96035095Y-138173852D01*
X95946078Y-138150000D01*
X95853922Y-138150000D01*
X95764905Y-138173852D01*
X95685095Y-138219930D01*
X95619930Y-138285095D01*
X95573852Y-138364905D01*
X95550000Y-138453922D01*
X95500368Y-138453922D01*
X94784728Y-137738282D01*
X94784727Y-137738282D01*
X94745380Y-137792439D01*
X94648904Y-137981782D01*
X94583242Y-138183869D01*
X94583242Y-138183872D01*
X94550000Y-138393753D01*
X89500500Y-138393753D01*
X89500500Y-137384727D01*
X95138282Y-137384727D01*
X95138282Y-137384728D01*
X95900000Y-138146446D01*
X95900001Y-138146446D01*
X96661716Y-137384728D01*
X96607550Y-137345375D01*
X96418217Y-137248904D01*
X96216129Y-137183242D01*
X96006246Y-137150000D01*
X95793754Y-137150000D01*
X95583872Y-137183242D01*
X95583869Y-137183242D01*
X95381782Y-137248904D01*
X95192439Y-137345380D01*
X95138282Y-137384727D01*
X89500500Y-137384727D01*
X89500500Y-135570000D01*
X90365138Y-135570000D01*
X91168012Y-135570000D01*
X91150795Y-135579940D01*
X91094940Y-135635795D01*
X91055444Y-135704204D01*
X91035000Y-135780504D01*
X91035000Y-135859496D01*
X91055444Y-135935796D01*
X91094940Y-136004205D01*
X91150795Y-136060060D01*
X91168012Y-136070000D01*
X90365138Y-136070000D01*
X90373430Y-136111690D01*
X90373430Y-136111692D01*
X90448807Y-136293671D01*
X90448814Y-136293684D01*
X90558248Y-136457462D01*
X90558251Y-136457466D01*
X90697533Y-136596748D01*
X90697537Y-136596751D01*
X90861315Y-136706185D01*
X90861328Y-136706192D01*
X91043306Y-136781569D01*
X91043318Y-136781572D01*
X91236504Y-136819999D01*
X91236508Y-136820000D01*
X91485000Y-136820000D01*
X91485000Y-136120000D01*
X91985000Y-136120000D01*
X91985000Y-136820000D01*
X92233492Y-136820000D01*
X92233495Y-136819999D01*
X92426681Y-136781572D01*
X92426693Y-136781569D01*
X92608671Y-136706192D01*
X92608684Y-136706185D01*
X92772462Y-136596751D01*
X92772466Y-136596748D01*
X92911748Y-136457466D01*
X92911751Y-136457462D01*
X93021185Y-136293684D01*
X93021192Y-136293671D01*
X93096569Y-136111692D01*
X93096569Y-136111690D01*
X93104862Y-136070000D01*
X92301988Y-136070000D01*
X92319205Y-136060060D01*
X92375060Y-136004205D01*
X92414556Y-135935796D01*
X92435000Y-135859496D01*
X92435000Y-135780504D01*
X92414556Y-135704204D01*
X92375060Y-135635795D01*
X92319205Y-135579940D01*
X92301988Y-135570000D01*
X93104862Y-135570000D01*
X94365138Y-135570000D01*
X95168012Y-135570000D01*
X95150795Y-135579940D01*
X95094940Y-135635795D01*
X95055444Y-135704204D01*
X95035000Y-135780504D01*
X95035000Y-135859496D01*
X95055444Y-135935796D01*
X95094940Y-136004205D01*
X95150795Y-136060060D01*
X95168012Y-136070000D01*
X94365138Y-136070000D01*
X94373430Y-136111690D01*
X94373430Y-136111692D01*
X94448807Y-136293671D01*
X94448814Y-136293684D01*
X94558248Y-136457462D01*
X94558251Y-136457466D01*
X94697533Y-136596748D01*
X94697537Y-136596751D01*
X94861315Y-136706185D01*
X94861328Y-136706192D01*
X95043306Y-136781569D01*
X95043318Y-136781572D01*
X95236504Y-136819999D01*
X95236508Y-136820000D01*
X95635000Y-136820000D01*
X95635000Y-136120000D01*
X96135000Y-136120000D01*
X96135000Y-136820000D01*
X96533492Y-136820000D01*
X96533495Y-136819999D01*
X96726681Y-136781572D01*
X96726693Y-136781569D01*
X96908671Y-136706192D01*
X96908684Y-136706185D01*
X97072462Y-136596751D01*
X97072466Y-136596748D01*
X97211748Y-136457466D01*
X97211751Y-136457462D01*
X97321185Y-136293684D01*
X97321192Y-136293671D01*
X97396569Y-136111692D01*
X97396569Y-136111690D01*
X97404862Y-136070000D01*
X96601988Y-136070000D01*
X96619205Y-136060060D01*
X96675060Y-136004205D01*
X96704535Y-135953153D01*
X98981300Y-135953153D01*
X98981300Y-136110846D01*
X99012061Y-136265489D01*
X99012064Y-136265501D01*
X99072402Y-136411172D01*
X99072409Y-136411185D01*
X99160010Y-136542288D01*
X99160013Y-136542292D01*
X99271507Y-136653786D01*
X99271511Y-136653789D01*
X99402614Y-136741390D01*
X99402627Y-136741397D01*
X99548298Y-136801735D01*
X99548303Y-136801737D01*
X99702953Y-136832499D01*
X99702956Y-136832500D01*
X99702958Y-136832500D01*
X99860644Y-136832500D01*
X99860645Y-136832499D01*
X100015297Y-136801737D01*
X100160979Y-136741394D01*
X100292089Y-136653789D01*
X100403589Y-136542289D01*
X100491194Y-136411179D01*
X100551537Y-136265497D01*
X100582300Y-136110842D01*
X100582300Y-135953158D01*
X100582300Y-135953155D01*
X100582299Y-135953153D01*
X100567586Y-135879185D01*
X100551537Y-135798503D01*
X100535710Y-135760292D01*
X100491197Y-135652827D01*
X100491190Y-135652814D01*
X100403589Y-135521711D01*
X100403586Y-135521707D01*
X100292092Y-135410213D01*
X100292088Y-135410210D01*
X100160985Y-135322609D01*
X100160972Y-135322602D01*
X100015301Y-135262264D01*
X100015289Y-135262261D01*
X99860645Y-135231500D01*
X99860642Y-135231500D01*
X99702958Y-135231500D01*
X99702955Y-135231500D01*
X99548310Y-135262261D01*
X99548298Y-135262264D01*
X99402627Y-135322602D01*
X99402614Y-135322609D01*
X99271511Y-135410210D01*
X99271507Y-135410213D01*
X99160013Y-135521707D01*
X99160010Y-135521711D01*
X99072409Y-135652814D01*
X99072402Y-135652827D01*
X99012064Y-135798498D01*
X99012061Y-135798510D01*
X98981300Y-135953153D01*
X96704535Y-135953153D01*
X96714556Y-135935796D01*
X96735000Y-135859496D01*
X96735000Y-135780504D01*
X96714556Y-135704204D01*
X96675060Y-135635795D01*
X96619205Y-135579940D01*
X96601988Y-135570000D01*
X97404862Y-135570000D01*
X97396569Y-135528309D01*
X97396569Y-135528307D01*
X97321192Y-135346328D01*
X97321185Y-135346315D01*
X97211751Y-135182537D01*
X97211748Y-135182533D01*
X97072466Y-135043251D01*
X97072462Y-135043248D01*
X96908684Y-134933814D01*
X96908671Y-134933807D01*
X96726693Y-134858430D01*
X96726681Y-134858427D01*
X96533495Y-134820000D01*
X96135000Y-134820000D01*
X96135000Y-135520000D01*
X95635000Y-135520000D01*
X95635000Y-134820000D01*
X95236504Y-134820000D01*
X95043318Y-134858427D01*
X95043306Y-134858430D01*
X94861328Y-134933807D01*
X94861315Y-134933814D01*
X94697537Y-135043248D01*
X94697533Y-135043251D01*
X94558251Y-135182533D01*
X94558248Y-135182537D01*
X94448814Y-135346315D01*
X94448807Y-135346328D01*
X94373430Y-135528307D01*
X94373430Y-135528309D01*
X94365138Y-135570000D01*
X93104862Y-135570000D01*
X93096569Y-135528309D01*
X93096569Y-135528307D01*
X93021192Y-135346328D01*
X93021185Y-135346315D01*
X92911751Y-135182537D01*
X92911748Y-135182533D01*
X92772466Y-135043251D01*
X92772462Y-135043248D01*
X92608684Y-134933814D01*
X92608671Y-134933807D01*
X92426693Y-134858430D01*
X92426681Y-134858427D01*
X92233495Y-134820000D01*
X91985000Y-134820000D01*
X91985000Y-135520000D01*
X91485000Y-135520000D01*
X91485000Y-134820000D01*
X91236504Y-134820000D01*
X91043318Y-134858427D01*
X91043306Y-134858430D01*
X90861328Y-134933807D01*
X90861315Y-134933814D01*
X90697537Y-135043248D01*
X90697533Y-135043251D01*
X90558251Y-135182533D01*
X90558248Y-135182537D01*
X90448814Y-135346315D01*
X90448807Y-135346328D01*
X90373430Y-135528307D01*
X90373430Y-135528309D01*
X90365138Y-135570000D01*
X89500500Y-135570000D01*
X89500500Y-133671153D01*
X93134500Y-133671153D01*
X93134500Y-133828846D01*
X93165261Y-133983489D01*
X93165264Y-133983501D01*
X93225602Y-134129172D01*
X93225609Y-134129185D01*
X93313210Y-134260288D01*
X93313213Y-134260292D01*
X93424707Y-134371786D01*
X93424711Y-134371789D01*
X93555814Y-134459390D01*
X93555827Y-134459397D01*
X93668119Y-134505909D01*
X93701503Y-134519737D01*
X93856153Y-134550499D01*
X93856156Y-134550500D01*
X93856158Y-134550500D01*
X94013844Y-134550500D01*
X94013845Y-134550499D01*
X94168497Y-134519737D01*
X94314179Y-134459394D01*
X94445289Y-134371789D01*
X94556789Y-134260289D01*
X94578556Y-134227712D01*
X94632165Y-134182907D01*
X94701490Y-134174198D01*
X94750549Y-134193500D01*
X94825214Y-134243390D01*
X94825227Y-134243397D01*
X94970898Y-134303735D01*
X94970903Y-134303737D01*
X95125553Y-134334499D01*
X95125556Y-134334500D01*
X95125558Y-134334500D01*
X95283244Y-134334500D01*
X95283245Y-134334499D01*
X95437897Y-134303737D01*
X95583579Y-134243394D01*
X95714689Y-134155789D01*
X95826189Y-134044289D01*
X95913794Y-133913179D01*
X95974137Y-133767497D01*
X96004900Y-133612842D01*
X96004900Y-133455158D01*
X96004900Y-133455155D01*
X96004899Y-133455153D01*
X95974138Y-133300510D01*
X95974137Y-133300503D01*
X95974135Y-133300498D01*
X95913797Y-133154827D01*
X95913790Y-133154814D01*
X95826189Y-133023711D01*
X95826186Y-133023707D01*
X95714692Y-132912213D01*
X95714688Y-132912210D01*
X95583585Y-132824609D01*
X95583572Y-132824602D01*
X95437901Y-132764264D01*
X95437889Y-132764261D01*
X95283245Y-132733500D01*
X95283242Y-132733500D01*
X95125558Y-132733500D01*
X95125555Y-132733500D01*
X94970910Y-132764261D01*
X94970898Y-132764264D01*
X94825227Y-132824602D01*
X94825214Y-132824609D01*
X94694111Y-132912210D01*
X94694107Y-132912213D01*
X94582613Y-133023707D01*
X94560843Y-133056289D01*
X94507230Y-133101093D01*
X94437905Y-133109800D01*
X94388850Y-133090499D01*
X94314185Y-133040609D01*
X94314172Y-133040602D01*
X94168501Y-132980264D01*
X94168489Y-132980261D01*
X94013845Y-132949500D01*
X94013842Y-132949500D01*
X93856158Y-132949500D01*
X93856155Y-132949500D01*
X93701510Y-132980261D01*
X93701498Y-132980264D01*
X93555827Y-133040602D01*
X93555814Y-133040609D01*
X93424711Y-133128210D01*
X93424707Y-133128213D01*
X93313213Y-133239707D01*
X93313210Y-133239711D01*
X93225609Y-133370814D01*
X93225602Y-133370827D01*
X93165264Y-133516498D01*
X93165261Y-133516510D01*
X93134500Y-133671153D01*
X89500500Y-133671153D01*
X89500500Y-131671153D01*
X96949500Y-131671153D01*
X96949500Y-131828846D01*
X96980261Y-131983489D01*
X96980264Y-131983501D01*
X97040602Y-132129172D01*
X97040609Y-132129185D01*
X97128210Y-132260288D01*
X97128213Y-132260292D01*
X97239707Y-132371786D01*
X97239711Y-132371789D01*
X97370814Y-132459390D01*
X97370827Y-132459397D01*
X97516498Y-132519735D01*
X97516503Y-132519737D01*
X97671153Y-132550499D01*
X97671156Y-132550500D01*
X97671158Y-132550500D01*
X97828844Y-132550500D01*
X97828845Y-132550499D01*
X97983497Y-132519737D01*
X98129179Y-132459394D01*
X98260289Y-132371789D01*
X98371789Y-132260289D01*
X98459394Y-132129179D01*
X98519737Y-131983497D01*
X98550500Y-131828842D01*
X98550500Y-131671158D01*
X98550500Y-131671155D01*
X98550499Y-131671153D01*
X98534790Y-131592179D01*
X98519737Y-131516503D01*
X98514678Y-131504289D01*
X98459397Y-131370827D01*
X98459390Y-131370814D01*
X98371789Y-131239711D01*
X98371786Y-131239707D01*
X98260292Y-131128213D01*
X98260288Y-131128210D01*
X98129185Y-131040609D01*
X98129172Y-131040602D01*
X97983501Y-130980264D01*
X97983489Y-130980261D01*
X97828845Y-130949500D01*
X97828842Y-130949500D01*
X97671158Y-130949500D01*
X97671155Y-130949500D01*
X97516510Y-130980261D01*
X97516498Y-130980264D01*
X97370827Y-131040602D01*
X97370814Y-131040609D01*
X97239711Y-131128210D01*
X97239707Y-131128213D01*
X97128213Y-131239707D01*
X97128210Y-131239711D01*
X97040609Y-131370814D01*
X97040602Y-131370827D01*
X96980264Y-131516498D01*
X96980261Y-131516510D01*
X96949500Y-131671153D01*
X89500500Y-131671153D01*
X89500500Y-126930000D01*
X90365138Y-126930000D01*
X91168012Y-126930000D01*
X91150795Y-126939940D01*
X91094940Y-126995795D01*
X91055444Y-127064204D01*
X91035000Y-127140504D01*
X91035000Y-127219496D01*
X91055444Y-127295796D01*
X91094940Y-127364205D01*
X91150795Y-127420060D01*
X91168012Y-127430000D01*
X90365138Y-127430000D01*
X90373430Y-127471690D01*
X90373430Y-127471692D01*
X90448807Y-127653671D01*
X90448814Y-127653684D01*
X90558248Y-127817462D01*
X90558251Y-127817466D01*
X90697533Y-127956748D01*
X90697537Y-127956751D01*
X90861315Y-128066185D01*
X90861328Y-128066192D01*
X91043306Y-128141569D01*
X91043318Y-128141572D01*
X91236504Y-128179999D01*
X91236508Y-128180000D01*
X91485000Y-128180000D01*
X91485000Y-127480000D01*
X91985000Y-127480000D01*
X91985000Y-128180000D01*
X92233492Y-128180000D01*
X92233495Y-128179999D01*
X92426681Y-128141572D01*
X92426693Y-128141569D01*
X92608671Y-128066192D01*
X92608684Y-128066185D01*
X92772462Y-127956751D01*
X92772466Y-127956748D01*
X92911748Y-127817466D01*
X92911751Y-127817462D01*
X93021185Y-127653684D01*
X93021192Y-127653671D01*
X93096569Y-127471692D01*
X93096569Y-127471690D01*
X93104862Y-127430000D01*
X92301988Y-127430000D01*
X92319205Y-127420060D01*
X92375060Y-127364205D01*
X92414556Y-127295796D01*
X92435000Y-127219496D01*
X92435000Y-127140504D01*
X92414556Y-127064204D01*
X92375060Y-126995795D01*
X92319205Y-126939940D01*
X92301988Y-126930000D01*
X93104862Y-126930000D01*
X94365138Y-126930000D01*
X95168012Y-126930000D01*
X95150795Y-126939940D01*
X95094940Y-126995795D01*
X95055444Y-127064204D01*
X95035000Y-127140504D01*
X95035000Y-127219496D01*
X95055444Y-127295796D01*
X95094940Y-127364205D01*
X95150795Y-127420060D01*
X95168012Y-127430000D01*
X94365138Y-127430000D01*
X94373430Y-127471690D01*
X94373430Y-127471692D01*
X94448807Y-127653671D01*
X94448814Y-127653684D01*
X94558248Y-127817462D01*
X94558251Y-127817466D01*
X94697533Y-127956748D01*
X94697537Y-127956751D01*
X94861315Y-128066185D01*
X94861328Y-128066192D01*
X95043306Y-128141569D01*
X95043318Y-128141572D01*
X95236504Y-128179999D01*
X95236508Y-128180000D01*
X95635000Y-128180000D01*
X95635000Y-127480000D01*
X96135000Y-127480000D01*
X96135000Y-128180000D01*
X96533492Y-128180000D01*
X96533495Y-128179999D01*
X96726681Y-128141572D01*
X96726693Y-128141569D01*
X96908671Y-128066192D01*
X96908684Y-128066185D01*
X97072462Y-127956751D01*
X97072466Y-127956748D01*
X97143956Y-127885258D01*
X98749500Y-127885258D01*
X98749500Y-128114741D01*
X98770715Y-128275876D01*
X98779452Y-128342238D01*
X98838842Y-128563887D01*
X98926650Y-128775876D01*
X98926657Y-128775890D01*
X99041392Y-128974617D01*
X99181081Y-129156661D01*
X99181089Y-129156670D01*
X99343330Y-129318911D01*
X99343338Y-129318918D01*
X99343339Y-129318919D01*
X99393962Y-129357764D01*
X99525382Y-129458607D01*
X99525385Y-129458608D01*
X99525388Y-129458611D01*
X99724112Y-129573344D01*
X99724117Y-129573346D01*
X99724123Y-129573349D01*
X99815480Y-129611190D01*
X99936113Y-129661158D01*
X100157762Y-129720548D01*
X100385266Y-129750500D01*
X100385273Y-129750500D01*
X100614727Y-129750500D01*
X100614734Y-129750500D01*
X100842238Y-129720548D01*
X101063887Y-129661158D01*
X101275888Y-129573344D01*
X101474612Y-129458611D01*
X101656661Y-129318919D01*
X101656665Y-129318914D01*
X101656670Y-129318911D01*
X101818911Y-129156670D01*
X101818914Y-129156665D01*
X101818919Y-129156661D01*
X101958611Y-128974612D01*
X102073344Y-128775888D01*
X102161158Y-128563887D01*
X102220548Y-128342238D01*
X102250500Y-128114734D01*
X102250500Y-127885266D01*
X102220548Y-127657762D01*
X102215079Y-127637353D01*
X105615400Y-127637353D01*
X105615400Y-127795046D01*
X105646161Y-127949689D01*
X105646164Y-127949701D01*
X105706502Y-128095372D01*
X105706509Y-128095385D01*
X105794110Y-128226488D01*
X105794113Y-128226492D01*
X105905607Y-128337986D01*
X105905611Y-128337989D01*
X106036714Y-128425590D01*
X106036727Y-128425597D01*
X106182398Y-128485935D01*
X106182403Y-128485937D01*
X106337053Y-128516699D01*
X106337056Y-128516700D01*
X106337058Y-128516700D01*
X106494744Y-128516700D01*
X106494745Y-128516699D01*
X106649397Y-128485937D01*
X106795079Y-128425594D01*
X106926189Y-128337989D01*
X107037689Y-128226489D01*
X107125294Y-128095379D01*
X107185637Y-127949697D01*
X107216400Y-127795042D01*
X107216400Y-127637358D01*
X107216400Y-127637355D01*
X107216399Y-127637353D01*
X107185638Y-127482710D01*
X107185637Y-127482703D01*
X107159690Y-127420060D01*
X107135856Y-127362518D01*
X107125295Y-127337024D01*
X107125294Y-127337021D01*
X107125292Y-127337018D01*
X107125290Y-127337014D01*
X107114692Y-127321153D01*
X109373500Y-127321153D01*
X109373500Y-127478846D01*
X109404261Y-127633489D01*
X109404264Y-127633501D01*
X109464602Y-127779172D01*
X109464609Y-127779185D01*
X109552210Y-127910288D01*
X109552213Y-127910292D01*
X109663707Y-128021786D01*
X109663711Y-128021789D01*
X109794814Y-128109390D01*
X109794827Y-128109397D01*
X109940498Y-128169735D01*
X109940503Y-128169737D01*
X110078930Y-128197272D01*
X110095153Y-128200499D01*
X110095156Y-128200500D01*
X110095158Y-128200500D01*
X110252844Y-128200500D01*
X110252845Y-128200499D01*
X110407497Y-128169737D01*
X110553179Y-128109394D01*
X110684289Y-128021789D01*
X110795789Y-127910289D01*
X110883394Y-127779179D01*
X110943737Y-127633497D01*
X110974500Y-127478842D01*
X110974500Y-127321158D01*
X110974500Y-127321155D01*
X110974499Y-127321153D01*
X110955196Y-127224112D01*
X110943737Y-127166503D01*
X110932968Y-127140504D01*
X110883397Y-127020827D01*
X110883390Y-127020814D01*
X110795789Y-126889711D01*
X110795786Y-126889707D01*
X110684292Y-126778213D01*
X110684288Y-126778210D01*
X110553185Y-126690609D01*
X110553172Y-126690602D01*
X110407501Y-126630264D01*
X110407489Y-126630261D01*
X110252845Y-126599500D01*
X110252842Y-126599500D01*
X110095158Y-126599500D01*
X110095155Y-126599500D01*
X109940510Y-126630261D01*
X109940498Y-126630264D01*
X109794827Y-126690602D01*
X109794814Y-126690609D01*
X109663711Y-126778210D01*
X109663707Y-126778213D01*
X109552213Y-126889707D01*
X109552210Y-126889711D01*
X109464609Y-127020814D01*
X109464602Y-127020827D01*
X109404264Y-127166498D01*
X109404261Y-127166510D01*
X109373500Y-127321153D01*
X107114692Y-127321153D01*
X107037689Y-127205911D01*
X107037686Y-127205907D01*
X106926192Y-127094413D01*
X106926188Y-127094410D01*
X106795085Y-127006809D01*
X106795072Y-127006802D01*
X106649401Y-126946464D01*
X106649389Y-126946461D01*
X106494745Y-126915700D01*
X106494742Y-126915700D01*
X106337058Y-126915700D01*
X106337055Y-126915700D01*
X106182410Y-126946461D01*
X106182398Y-126946464D01*
X106036727Y-127006802D01*
X106036714Y-127006809D01*
X105905611Y-127094410D01*
X105905607Y-127094413D01*
X105794113Y-127205907D01*
X105794110Y-127205911D01*
X105706509Y-127337014D01*
X105706502Y-127337027D01*
X105646164Y-127482698D01*
X105646161Y-127482710D01*
X105615400Y-127637353D01*
X102215079Y-127637353D01*
X102161158Y-127436113D01*
X102073344Y-127224112D01*
X101958611Y-127025388D01*
X101958608Y-127025385D01*
X101958607Y-127025382D01*
X101818918Y-126843338D01*
X101818911Y-126843330D01*
X101656670Y-126681089D01*
X101656661Y-126681081D01*
X101474617Y-126541392D01*
X101275890Y-126426657D01*
X101275876Y-126426650D01*
X101063887Y-126338842D01*
X100842238Y-126279452D01*
X100789289Y-126272481D01*
X100614741Y-126249500D01*
X100614734Y-126249500D01*
X100385266Y-126249500D01*
X100385258Y-126249500D01*
X100168715Y-126278009D01*
X100157762Y-126279452D01*
X100104188Y-126293807D01*
X99936112Y-126338842D01*
X99724123Y-126426650D01*
X99724109Y-126426657D01*
X99525382Y-126541392D01*
X99343338Y-126681081D01*
X99181081Y-126843338D01*
X99041392Y-127025382D01*
X98926657Y-127224109D01*
X98926650Y-127224123D01*
X98838842Y-127436112D01*
X98807029Y-127554842D01*
X98779453Y-127657761D01*
X98779451Y-127657770D01*
X98749500Y-127885258D01*
X97143956Y-127885258D01*
X97211750Y-127817464D01*
X97215188Y-127812319D01*
X97215189Y-127812317D01*
X97215190Y-127812316D01*
X97321185Y-127653684D01*
X97321192Y-127653671D01*
X97396569Y-127471692D01*
X97396569Y-127471690D01*
X97404862Y-127430000D01*
X96601988Y-127430000D01*
X96619205Y-127420060D01*
X96675060Y-127364205D01*
X96714556Y-127295796D01*
X96735000Y-127219496D01*
X96735000Y-127140504D01*
X96714556Y-127064204D01*
X96675060Y-126995795D01*
X96619205Y-126939940D01*
X96601988Y-126930000D01*
X97404862Y-126930000D01*
X97396569Y-126888309D01*
X97396569Y-126888307D01*
X97321192Y-126706328D01*
X97321185Y-126706315D01*
X97211751Y-126542537D01*
X97211748Y-126542533D01*
X97072466Y-126403251D01*
X97072462Y-126403248D01*
X96908684Y-126293814D01*
X96908671Y-126293807D01*
X96726693Y-126218430D01*
X96726681Y-126218427D01*
X96533495Y-126180000D01*
X96135000Y-126180000D01*
X96135000Y-126880000D01*
X95635000Y-126880000D01*
X95635000Y-126180000D01*
X95236504Y-126180000D01*
X95043318Y-126218427D01*
X95043306Y-126218430D01*
X94861328Y-126293807D01*
X94861315Y-126293814D01*
X94697537Y-126403248D01*
X94697533Y-126403251D01*
X94558251Y-126542533D01*
X94558248Y-126542537D01*
X94448814Y-126706315D01*
X94448807Y-126706328D01*
X94373430Y-126888307D01*
X94373430Y-126888309D01*
X94365138Y-126930000D01*
X93104862Y-126930000D01*
X93096569Y-126888309D01*
X93096569Y-126888307D01*
X93021192Y-126706328D01*
X93021185Y-126706315D01*
X92911751Y-126542537D01*
X92911748Y-126542533D01*
X92772466Y-126403251D01*
X92772462Y-126403248D01*
X92608684Y-126293814D01*
X92608671Y-126293807D01*
X92426693Y-126218430D01*
X92426681Y-126218427D01*
X92233495Y-126180000D01*
X91985000Y-126180000D01*
X91985000Y-126880000D01*
X91485000Y-126880000D01*
X91485000Y-126180000D01*
X91236504Y-126180000D01*
X91043318Y-126218427D01*
X91043306Y-126218430D01*
X90861328Y-126293807D01*
X90861315Y-126293814D01*
X90697537Y-126403248D01*
X90697533Y-126403251D01*
X90558251Y-126542533D01*
X90558248Y-126542537D01*
X90448814Y-126706315D01*
X90448807Y-126706328D01*
X90373430Y-126888307D01*
X90373430Y-126888309D01*
X90365138Y-126930000D01*
X89500500Y-126930000D01*
X89500500Y-120885258D01*
X109499500Y-120885258D01*
X109499500Y-121114741D01*
X109511859Y-121208611D01*
X109529452Y-121342238D01*
X109571858Y-121500500D01*
X109588842Y-121563887D01*
X109676650Y-121775876D01*
X109676657Y-121775890D01*
X109791392Y-121974617D01*
X109931081Y-122156661D01*
X109931089Y-122156670D01*
X110093330Y-122318911D01*
X110093338Y-122318918D01*
X110275382Y-122458607D01*
X110275385Y-122458608D01*
X110275388Y-122458611D01*
X110474112Y-122573344D01*
X110474117Y-122573346D01*
X110474123Y-122573349D01*
X110522384Y-122593339D01*
X110686113Y-122661158D01*
X110907762Y-122720548D01*
X111135266Y-122750500D01*
X111135273Y-122750500D01*
X111364727Y-122750500D01*
X111364734Y-122750500D01*
X111592238Y-122720548D01*
X111813887Y-122661158D01*
X112025888Y-122573344D01*
X112224612Y-122458611D01*
X112406661Y-122318919D01*
X112406665Y-122318914D01*
X112406670Y-122318911D01*
X112568911Y-122156670D01*
X112568914Y-122156665D01*
X112568919Y-122156661D01*
X112708611Y-121974612D01*
X112823344Y-121775888D01*
X112911158Y-121563887D01*
X112970548Y-121342238D01*
X113000500Y-121114734D01*
X113000500Y-120885266D01*
X112970548Y-120657762D01*
X112911158Y-120436113D01*
X112840170Y-120264734D01*
X112823349Y-120224123D01*
X112823346Y-120224117D01*
X112823344Y-120224112D01*
X112708611Y-120025388D01*
X112708608Y-120025385D01*
X112708607Y-120025382D01*
X112568918Y-119843338D01*
X112568911Y-119843330D01*
X112406670Y-119681089D01*
X112406661Y-119681081D01*
X112224617Y-119541392D01*
X112025890Y-119426657D01*
X112025876Y-119426650D01*
X111813887Y-119338842D01*
X111793566Y-119333397D01*
X111592238Y-119279452D01*
X111554215Y-119274446D01*
X111364741Y-119249500D01*
X111364734Y-119249500D01*
X111135266Y-119249500D01*
X111135258Y-119249500D01*
X110918715Y-119278009D01*
X110907762Y-119279452D01*
X110814076Y-119304554D01*
X110686112Y-119338842D01*
X110474123Y-119426650D01*
X110474109Y-119426657D01*
X110275382Y-119541392D01*
X110093338Y-119681081D01*
X109931081Y-119843338D01*
X109791392Y-120025382D01*
X109676657Y-120224109D01*
X109676650Y-120224123D01*
X109588842Y-120436112D01*
X109529453Y-120657759D01*
X109529451Y-120657770D01*
X109499500Y-120885258D01*
X89500500Y-120885258D01*
X89500500Y-116131902D01*
X95249500Y-116131902D01*
X95249500Y-116368097D01*
X95286446Y-116601368D01*
X95359433Y-116825996D01*
X95427861Y-116960292D01*
X95466657Y-117036433D01*
X95605483Y-117227510D01*
X95772490Y-117394517D01*
X95963567Y-117533343D01*
X96062991Y-117584002D01*
X96174003Y-117640566D01*
X96174005Y-117640566D01*
X96174008Y-117640568D01*
X96294412Y-117679689D01*
X96398631Y-117713553D01*
X96631903Y-117750500D01*
X96631908Y-117750500D01*
X96868097Y-117750500D01*
X97101368Y-117713553D01*
X97325992Y-117640568D01*
X97536433Y-117533343D01*
X97727510Y-117394517D01*
X97894517Y-117227510D01*
X98033343Y-117036433D01*
X98140568Y-116825992D01*
X98213553Y-116601368D01*
X98219076Y-116566498D01*
X98250500Y-116368097D01*
X98250500Y-116131902D01*
X99749500Y-116131902D01*
X99749500Y-116368097D01*
X99786446Y-116601368D01*
X99859433Y-116825996D01*
X99927861Y-116960292D01*
X99966657Y-117036433D01*
X100105483Y-117227510D01*
X100272490Y-117394517D01*
X100463567Y-117533343D01*
X100562991Y-117584002D01*
X100674003Y-117640566D01*
X100674005Y-117640566D01*
X100674008Y-117640568D01*
X100794412Y-117679689D01*
X100898631Y-117713553D01*
X101131903Y-117750500D01*
X101131908Y-117750500D01*
X101368097Y-117750500D01*
X101601368Y-117713553D01*
X101825992Y-117640568D01*
X102036433Y-117533343D01*
X102227510Y-117394517D01*
X102394517Y-117227510D01*
X102533343Y-117036433D01*
X102640568Y-116825992D01*
X102713553Y-116601368D01*
X102719076Y-116566498D01*
X102750500Y-116368097D01*
X102750500Y-116131902D01*
X102713553Y-115898631D01*
X102663072Y-115743267D01*
X102640568Y-115674008D01*
X102640566Y-115674005D01*
X102640566Y-115674003D01*
X102564471Y-115524659D01*
X102533343Y-115463567D01*
X102394517Y-115272490D01*
X102227510Y-115105483D01*
X102036433Y-114966657D01*
X101998164Y-114947158D01*
X101825996Y-114859433D01*
X101601368Y-114786446D01*
X101368097Y-114749500D01*
X101368092Y-114749500D01*
X101131908Y-114749500D01*
X101131903Y-114749500D01*
X100898631Y-114786446D01*
X100674003Y-114859433D01*
X100463566Y-114966657D01*
X100394967Y-115016498D01*
X100272490Y-115105483D01*
X100272488Y-115105485D01*
X100272487Y-115105485D01*
X100105485Y-115272487D01*
X100105485Y-115272488D01*
X100105483Y-115272490D01*
X100080861Y-115306379D01*
X99966657Y-115463566D01*
X99859433Y-115674003D01*
X99786446Y-115898631D01*
X99749500Y-116131902D01*
X98250500Y-116131902D01*
X98213553Y-115898631D01*
X98163072Y-115743267D01*
X98140568Y-115674008D01*
X98140566Y-115674005D01*
X98140566Y-115674003D01*
X98064471Y-115524659D01*
X98033343Y-115463567D01*
X97894517Y-115272490D01*
X97727510Y-115105483D01*
X97536433Y-114966657D01*
X97498164Y-114947158D01*
X97325996Y-114859433D01*
X97101368Y-114786446D01*
X96868097Y-114749500D01*
X96868092Y-114749500D01*
X96631908Y-114749500D01*
X96631903Y-114749500D01*
X96398631Y-114786446D01*
X96174003Y-114859433D01*
X95963566Y-114966657D01*
X95894967Y-115016498D01*
X95772490Y-115105483D01*
X95772488Y-115105485D01*
X95772487Y-115105485D01*
X95605485Y-115272487D01*
X95605485Y-115272488D01*
X95605483Y-115272490D01*
X95580861Y-115306379D01*
X95466657Y-115463566D01*
X95359433Y-115674003D01*
X95286446Y-115898631D01*
X95249500Y-116131902D01*
X89500500Y-116131902D01*
X89500500Y-109631902D01*
X95249500Y-109631902D01*
X95249500Y-109868097D01*
X95286446Y-110101368D01*
X95359433Y-110325996D01*
X95466657Y-110536433D01*
X95605483Y-110727510D01*
X95772490Y-110894517D01*
X95963567Y-111033343D01*
X96062991Y-111084002D01*
X96174003Y-111140566D01*
X96174005Y-111140566D01*
X96174008Y-111140568D01*
X96294412Y-111179689D01*
X96398631Y-111213553D01*
X96631903Y-111250500D01*
X96631908Y-111250500D01*
X96868097Y-111250500D01*
X97101368Y-111213553D01*
X97325992Y-111140568D01*
X97536433Y-111033343D01*
X97727510Y-110894517D01*
X97894517Y-110727510D01*
X98033343Y-110536433D01*
X98140568Y-110325992D01*
X98213553Y-110101368D01*
X98250500Y-109868097D01*
X98250500Y-109631902D01*
X99749500Y-109631902D01*
X99749500Y-109868097D01*
X99786446Y-110101368D01*
X99859433Y-110325996D01*
X99966657Y-110536433D01*
X100105483Y-110727510D01*
X100272490Y-110894517D01*
X100463567Y-111033343D01*
X100562991Y-111084002D01*
X100674003Y-111140566D01*
X100674005Y-111140566D01*
X100674008Y-111140568D01*
X100794412Y-111179689D01*
X100898631Y-111213553D01*
X101131903Y-111250500D01*
X101131908Y-111250500D01*
X101368097Y-111250500D01*
X101601368Y-111213553D01*
X101825992Y-111140568D01*
X102036433Y-111033343D01*
X102227510Y-110894517D01*
X102394517Y-110727510D01*
X102533343Y-110536433D01*
X102640568Y-110325992D01*
X102713553Y-110101368D01*
X102750500Y-109868097D01*
X102750500Y-109631902D01*
X102713553Y-109398631D01*
X102640566Y-109174003D01*
X102533342Y-108963566D01*
X102394517Y-108772490D01*
X102227510Y-108605483D01*
X102036433Y-108466657D01*
X101825996Y-108359433D01*
X101601368Y-108286446D01*
X101368097Y-108249500D01*
X101368092Y-108249500D01*
X101131908Y-108249500D01*
X101131903Y-108249500D01*
X100898631Y-108286446D01*
X100674003Y-108359433D01*
X100463566Y-108466657D01*
X100354550Y-108545862D01*
X100272490Y-108605483D01*
X100272488Y-108605485D01*
X100272487Y-108605485D01*
X100105485Y-108772487D01*
X100105485Y-108772488D01*
X100105483Y-108772490D01*
X100045862Y-108854550D01*
X99966657Y-108963566D01*
X99859433Y-109174003D01*
X99786446Y-109398631D01*
X99749500Y-109631902D01*
X98250500Y-109631902D01*
X98213553Y-109398631D01*
X98140566Y-109174003D01*
X98033342Y-108963566D01*
X97894517Y-108772490D01*
X97727510Y-108605483D01*
X97536433Y-108466657D01*
X97325996Y-108359433D01*
X97101368Y-108286446D01*
X96868097Y-108249500D01*
X96868092Y-108249500D01*
X96631908Y-108249500D01*
X96631903Y-108249500D01*
X96398631Y-108286446D01*
X96174003Y-108359433D01*
X95963566Y-108466657D01*
X95854550Y-108545862D01*
X95772490Y-108605483D01*
X95772488Y-108605485D01*
X95772487Y-108605485D01*
X95605485Y-108772487D01*
X95605485Y-108772488D01*
X95605483Y-108772490D01*
X95545862Y-108854550D01*
X95466657Y-108963566D01*
X95359433Y-109174003D01*
X95286446Y-109398631D01*
X95249500Y-109631902D01*
X89500500Y-109631902D01*
X89500500Y-98320000D01*
X90365138Y-98320000D01*
X91168012Y-98320000D01*
X91150795Y-98329940D01*
X91094940Y-98385795D01*
X91055444Y-98454204D01*
X91035000Y-98530504D01*
X91035000Y-98609496D01*
X91055444Y-98685796D01*
X91094940Y-98754205D01*
X91150795Y-98810060D01*
X91168012Y-98820000D01*
X90365138Y-98820000D01*
X90373430Y-98861690D01*
X90373430Y-98861692D01*
X90448807Y-99043671D01*
X90448814Y-99043684D01*
X90558248Y-99207462D01*
X90558251Y-99207466D01*
X90697533Y-99346748D01*
X90697537Y-99346751D01*
X90861315Y-99456185D01*
X90861328Y-99456192D01*
X91043306Y-99531569D01*
X91043318Y-99531572D01*
X91236504Y-99569999D01*
X91236508Y-99570000D01*
X91485000Y-99570000D01*
X91485000Y-98870000D01*
X91985000Y-98870000D01*
X91985000Y-99570000D01*
X92233492Y-99570000D01*
X92233495Y-99569999D01*
X92426681Y-99531572D01*
X92426693Y-99531569D01*
X92608671Y-99456192D01*
X92608684Y-99456185D01*
X92772462Y-99346751D01*
X92772466Y-99346748D01*
X92911748Y-99207466D01*
X92911751Y-99207462D01*
X93021185Y-99043684D01*
X93021192Y-99043671D01*
X93096569Y-98861692D01*
X93096569Y-98861690D01*
X93104862Y-98820000D01*
X92301988Y-98820000D01*
X92319205Y-98810060D01*
X92375060Y-98754205D01*
X92414556Y-98685796D01*
X92435000Y-98609496D01*
X92435000Y-98530504D01*
X92414556Y-98454204D01*
X92375060Y-98385795D01*
X92319205Y-98329940D01*
X92301988Y-98320000D01*
X93104862Y-98320000D01*
X94365138Y-98320000D01*
X95168012Y-98320000D01*
X95150795Y-98329940D01*
X95094940Y-98385795D01*
X95055444Y-98454204D01*
X95035000Y-98530504D01*
X95035000Y-98609496D01*
X95055444Y-98685796D01*
X95094940Y-98754205D01*
X95150795Y-98810060D01*
X95168012Y-98820000D01*
X94365138Y-98820000D01*
X94373430Y-98861690D01*
X94373430Y-98861692D01*
X94448807Y-99043671D01*
X94448814Y-99043684D01*
X94558248Y-99207462D01*
X94558251Y-99207466D01*
X94697533Y-99346748D01*
X94697537Y-99346751D01*
X94861315Y-99456185D01*
X94861328Y-99456192D01*
X95043306Y-99531569D01*
X95043318Y-99531572D01*
X95236504Y-99569999D01*
X95236508Y-99570000D01*
X95635000Y-99570000D01*
X95635000Y-98870000D01*
X96135000Y-98870000D01*
X96135000Y-99570000D01*
X96533492Y-99570000D01*
X96533495Y-99569999D01*
X96726681Y-99531572D01*
X96726693Y-99531569D01*
X96908671Y-99456192D01*
X96908675Y-99456190D01*
X96912731Y-99453480D01*
X96979408Y-99432598D01*
X97046789Y-99451078D01*
X97093482Y-99503054D01*
X97103246Y-99532385D01*
X97119062Y-99611892D01*
X97119064Y-99611901D01*
X97179402Y-99757572D01*
X97179409Y-99757585D01*
X97267010Y-99888688D01*
X97267013Y-99888692D01*
X97378507Y-100000186D01*
X97378511Y-100000189D01*
X97509614Y-100087790D01*
X97509627Y-100087797D01*
X97655298Y-100148135D01*
X97655303Y-100148137D01*
X97733166Y-100163625D01*
X97809946Y-100178898D01*
X97809949Y-100178898D01*
X97809958Y-100178900D01*
X97809966Y-100178900D01*
X97812462Y-100179146D01*
X97813696Y-100179644D01*
X97815932Y-100180089D01*
X97815847Y-100180512D01*
X97877251Y-100205304D01*
X97903417Y-100233659D01*
X97950610Y-100304288D01*
X97950613Y-100304292D01*
X98062107Y-100415786D01*
X98062111Y-100415789D01*
X98193214Y-100503390D01*
X98193227Y-100503397D01*
X98338898Y-100563735D01*
X98338903Y-100563737D01*
X98493553Y-100594499D01*
X98493556Y-100594500D01*
X98493558Y-100594500D01*
X98651244Y-100594500D01*
X98651245Y-100594499D01*
X98805897Y-100563737D01*
X98951579Y-100503394D01*
X99082689Y-100415789D01*
X99194189Y-100304289D01*
X99281794Y-100173179D01*
X99292168Y-100148135D01*
X99317163Y-100087790D01*
X99342137Y-100027497D01*
X99372900Y-99872842D01*
X99372900Y-99715158D01*
X99372900Y-99715155D01*
X99372899Y-99715153D01*
X99351870Y-99609433D01*
X99342137Y-99560503D01*
X99330490Y-99532385D01*
X99281797Y-99414827D01*
X99281790Y-99414814D01*
X99194189Y-99283711D01*
X99194186Y-99283707D01*
X99082692Y-99172213D01*
X99082688Y-99172210D01*
X98951585Y-99084609D01*
X98951572Y-99084602D01*
X98805901Y-99024264D01*
X98805889Y-99024261D01*
X98651240Y-98993498D01*
X98648724Y-98993251D01*
X98647491Y-98992753D01*
X98645268Y-98992311D01*
X98645351Y-98991889D01*
X98583938Y-98967087D01*
X98557782Y-98938740D01*
X98510589Y-98868110D01*
X98399092Y-98756613D01*
X98399088Y-98756610D01*
X98267985Y-98669009D01*
X98267972Y-98669002D01*
X98122301Y-98608664D01*
X98122289Y-98608661D01*
X97967645Y-98577900D01*
X97967642Y-98577900D01*
X97809958Y-98577900D01*
X97809955Y-98577900D01*
X97655310Y-98608661D01*
X97655298Y-98608664D01*
X97509627Y-98669002D01*
X97509614Y-98669009D01*
X97378511Y-98756610D01*
X97378507Y-98756613D01*
X97351440Y-98783681D01*
X97290117Y-98817166D01*
X97263759Y-98820000D01*
X96601988Y-98820000D01*
X96619205Y-98810060D01*
X96675060Y-98754205D01*
X96714556Y-98685796D01*
X96735000Y-98609496D01*
X96735000Y-98530504D01*
X96714556Y-98454204D01*
X96675060Y-98385795D01*
X96619205Y-98329940D01*
X96601988Y-98320000D01*
X97404862Y-98320000D01*
X97396569Y-98278309D01*
X97396569Y-98278307D01*
X97321192Y-98096328D01*
X97321185Y-98096315D01*
X97211751Y-97932537D01*
X97211748Y-97932533D01*
X97072466Y-97793251D01*
X97072462Y-97793248D01*
X96908684Y-97683814D01*
X96908671Y-97683807D01*
X96726693Y-97608430D01*
X96726681Y-97608427D01*
X96533495Y-97570000D01*
X96135000Y-97570000D01*
X96135000Y-98270000D01*
X95635000Y-98270000D01*
X95635000Y-97570000D01*
X95236504Y-97570000D01*
X95043318Y-97608427D01*
X95043306Y-97608430D01*
X94861328Y-97683807D01*
X94861315Y-97683814D01*
X94697537Y-97793248D01*
X94697533Y-97793251D01*
X94558251Y-97932533D01*
X94558248Y-97932537D01*
X94448814Y-98096315D01*
X94448807Y-98096328D01*
X94373430Y-98278307D01*
X94373430Y-98278309D01*
X94365138Y-98320000D01*
X93104862Y-98320000D01*
X93096569Y-98278309D01*
X93096569Y-98278307D01*
X93021192Y-98096328D01*
X93021185Y-98096315D01*
X92911751Y-97932537D01*
X92911748Y-97932533D01*
X92772466Y-97793251D01*
X92772462Y-97793248D01*
X92608684Y-97683814D01*
X92608671Y-97683807D01*
X92426693Y-97608430D01*
X92426681Y-97608427D01*
X92233495Y-97570000D01*
X91985000Y-97570000D01*
X91985000Y-98270000D01*
X91485000Y-98270000D01*
X91485000Y-97570000D01*
X91236504Y-97570000D01*
X91043318Y-97608427D01*
X91043306Y-97608430D01*
X90861328Y-97683807D01*
X90861315Y-97683814D01*
X90697537Y-97793248D01*
X90697533Y-97793251D01*
X90558251Y-97932533D01*
X90558248Y-97932537D01*
X90448814Y-98096315D01*
X90448807Y-98096328D01*
X90373430Y-98278307D01*
X90373430Y-98278309D01*
X90365138Y-98320000D01*
X89500500Y-98320000D01*
X89500500Y-95921153D01*
X98199500Y-95921153D01*
X98199500Y-96078846D01*
X98230261Y-96233489D01*
X98230264Y-96233501D01*
X98290602Y-96379172D01*
X98290609Y-96379185D01*
X98378210Y-96510288D01*
X98378213Y-96510292D01*
X98489707Y-96621786D01*
X98489711Y-96621789D01*
X98620814Y-96709390D01*
X98620827Y-96709397D01*
X98766498Y-96769735D01*
X98766503Y-96769737D01*
X98921153Y-96800499D01*
X98921156Y-96800500D01*
X98921158Y-96800500D01*
X99078844Y-96800500D01*
X99078845Y-96800499D01*
X99233497Y-96769737D01*
X99379179Y-96709394D01*
X99510289Y-96621789D01*
X99621789Y-96510289D01*
X99709394Y-96379179D01*
X99769737Y-96233497D01*
X99800500Y-96078842D01*
X99800500Y-95921158D01*
X99800500Y-95921155D01*
X99800499Y-95921153D01*
X99774353Y-95789711D01*
X99769737Y-95766503D01*
X99769735Y-95766498D01*
X99709397Y-95620827D01*
X99709390Y-95620814D01*
X99621789Y-95489711D01*
X99621786Y-95489707D01*
X99510292Y-95378213D01*
X99510288Y-95378210D01*
X99379185Y-95290609D01*
X99379172Y-95290602D01*
X99233501Y-95230264D01*
X99233489Y-95230261D01*
X99078845Y-95199500D01*
X99078842Y-95199500D01*
X98921158Y-95199500D01*
X98921155Y-95199500D01*
X98766510Y-95230261D01*
X98766498Y-95230264D01*
X98620827Y-95290602D01*
X98620814Y-95290609D01*
X98489711Y-95378210D01*
X98489707Y-95378213D01*
X98378213Y-95489707D01*
X98378210Y-95489711D01*
X98290609Y-95620814D01*
X98290602Y-95620827D01*
X98230264Y-95766498D01*
X98230261Y-95766510D01*
X98199500Y-95921153D01*
X89500500Y-95921153D01*
X89500500Y-93921153D01*
X98449500Y-93921153D01*
X98449500Y-94078846D01*
X98480261Y-94233489D01*
X98480264Y-94233501D01*
X98540602Y-94379172D01*
X98540609Y-94379185D01*
X98628210Y-94510288D01*
X98628213Y-94510292D01*
X98739707Y-94621786D01*
X98739711Y-94621789D01*
X98870814Y-94709390D01*
X98870827Y-94709397D01*
X98971907Y-94751265D01*
X99016503Y-94769737D01*
X99135912Y-94793489D01*
X99171153Y-94800499D01*
X99171156Y-94800500D01*
X99171158Y-94800500D01*
X99328844Y-94800500D01*
X99328845Y-94800499D01*
X99483497Y-94769737D01*
X99629179Y-94709394D01*
X99760289Y-94621789D01*
X99871789Y-94510289D01*
X99959394Y-94379179D01*
X100019737Y-94233497D01*
X100044729Y-94107853D01*
X112392000Y-94107853D01*
X112392000Y-94265546D01*
X112422761Y-94420189D01*
X112422764Y-94420201D01*
X112483102Y-94565872D01*
X112483109Y-94565885D01*
X112570710Y-94696988D01*
X112570713Y-94696992D01*
X112682207Y-94808486D01*
X112682211Y-94808489D01*
X112813314Y-94896090D01*
X112813327Y-94896097D01*
X112926563Y-94943000D01*
X112959003Y-94956437D01*
X113111597Y-94986790D01*
X113113653Y-94987199D01*
X113113656Y-94987200D01*
X113113658Y-94987200D01*
X113271344Y-94987200D01*
X113271345Y-94987199D01*
X113425997Y-94956437D01*
X113571679Y-94896094D01*
X113636485Y-94852792D01*
X113659009Y-94837742D01*
X113725686Y-94816864D01*
X113793066Y-94835348D01*
X113839757Y-94887327D01*
X113851900Y-94940844D01*
X113851900Y-97188800D01*
X113832215Y-97255839D01*
X113779411Y-97301594D01*
X113727900Y-97312800D01*
X113716855Y-97312800D01*
X113562210Y-97343561D01*
X113562198Y-97343564D01*
X113416527Y-97403902D01*
X113416514Y-97403909D01*
X113285411Y-97491510D01*
X113285407Y-97491513D01*
X113173913Y-97603007D01*
X113173910Y-97603011D01*
X113086309Y-97734114D01*
X113086302Y-97734127D01*
X113025964Y-97879798D01*
X113025961Y-97879810D01*
X112995200Y-98034453D01*
X112995200Y-98192146D01*
X113025961Y-98346789D01*
X113025964Y-98346801D01*
X113086302Y-98492472D01*
X113086309Y-98492485D01*
X113173910Y-98623588D01*
X113173913Y-98623592D01*
X113285407Y-98735086D01*
X113285411Y-98735089D01*
X113416514Y-98822690D01*
X113416527Y-98822697D01*
X113562198Y-98883035D01*
X113562203Y-98883037D01*
X113716853Y-98913799D01*
X113716856Y-98913800D01*
X113716858Y-98913800D01*
X113727900Y-98913800D01*
X113794939Y-98933485D01*
X113840694Y-98986289D01*
X113851900Y-99037800D01*
X113851900Y-124883109D01*
X113832215Y-124950148D01*
X113779411Y-124995903D01*
X113710253Y-125005847D01*
X113659009Y-124986211D01*
X113580285Y-124933609D01*
X113580272Y-124933602D01*
X113434601Y-124873264D01*
X113434589Y-124873261D01*
X113279945Y-124842500D01*
X113279942Y-124842500D01*
X113122258Y-124842500D01*
X113122255Y-124842500D01*
X112967610Y-124873261D01*
X112967598Y-124873264D01*
X112821927Y-124933602D01*
X112821914Y-124933609D01*
X112690811Y-125021210D01*
X112690807Y-125021213D01*
X112579313Y-125132707D01*
X112579310Y-125132711D01*
X112491709Y-125263814D01*
X112491702Y-125263827D01*
X112431364Y-125409498D01*
X112431361Y-125409510D01*
X112400600Y-125564153D01*
X112400600Y-125721846D01*
X112431361Y-125876489D01*
X112431364Y-125876501D01*
X112491702Y-126022172D01*
X112491709Y-126022185D01*
X112579309Y-126153287D01*
X112579310Y-126153288D01*
X112579311Y-126153289D01*
X112637182Y-126211160D01*
X112670666Y-126272481D01*
X112673500Y-126298840D01*
X112673500Y-126896234D01*
X112653815Y-126963273D01*
X112652602Y-126965125D01*
X112564609Y-127096814D01*
X112564602Y-127096827D01*
X112504264Y-127242498D01*
X112504261Y-127242510D01*
X112473500Y-127397153D01*
X112473500Y-127554846D01*
X112504261Y-127709489D01*
X112504264Y-127709501D01*
X112564602Y-127855172D01*
X112564609Y-127855185D01*
X112652210Y-127986288D01*
X112652213Y-127986292D01*
X112763707Y-128097786D01*
X112763711Y-128097789D01*
X112894814Y-128185390D01*
X112894827Y-128185397D01*
X112994041Y-128226492D01*
X113040503Y-128245737D01*
X113192021Y-128275876D01*
X113195153Y-128276499D01*
X113195156Y-128276500D01*
X113195158Y-128276500D01*
X113352844Y-128276500D01*
X113352845Y-128276499D01*
X113507497Y-128245737D01*
X113616710Y-128200500D01*
X113658808Y-128183063D01*
X113659514Y-128184767D01*
X113719455Y-128172280D01*
X113784702Y-128197272D01*
X113826079Y-128253572D01*
X113830449Y-128323305D01*
X113797201Y-128383562D01*
X113735337Y-128445426D01*
X113674014Y-128478911D01*
X113671848Y-128479362D01*
X113516508Y-128510261D01*
X113516498Y-128510264D01*
X113370827Y-128570602D01*
X113370814Y-128570609D01*
X113239711Y-128658210D01*
X113239707Y-128658213D01*
X113128213Y-128769707D01*
X113128210Y-128769711D01*
X113040609Y-128900814D01*
X113040602Y-128900827D01*
X112980264Y-129046498D01*
X112980261Y-129046510D01*
X112949500Y-129201153D01*
X112949500Y-129358846D01*
X112980261Y-129513489D01*
X112980264Y-129513501D01*
X113040602Y-129659172D01*
X113040609Y-129659185D01*
X113128210Y-129790288D01*
X113128213Y-129790292D01*
X113239707Y-129901786D01*
X113239711Y-129901789D01*
X113370814Y-129989390D01*
X113370827Y-129989397D01*
X113516498Y-130049735D01*
X113516503Y-130049737D01*
X113671153Y-130080499D01*
X113671156Y-130080500D01*
X113671158Y-130080500D01*
X113828844Y-130080500D01*
X113828845Y-130080499D01*
X113983497Y-130049737D01*
X114129179Y-129989394D01*
X114260289Y-129901789D01*
X114371789Y-129790289D01*
X114459394Y-129659179D01*
X114519737Y-129513497D01*
X114544538Y-129388814D01*
X114550638Y-129358150D01*
X114583023Y-129296239D01*
X114584513Y-129294721D01*
X114932920Y-128946316D01*
X115011977Y-128809384D01*
X115052901Y-128656657D01*
X115052901Y-128498542D01*
X115052901Y-128490947D01*
X115052900Y-128490929D01*
X115052900Y-127385258D01*
X148749500Y-127385258D01*
X148749500Y-127614741D01*
X148771149Y-127779172D01*
X148779452Y-127842238D01*
X148818050Y-127986288D01*
X148838842Y-128063887D01*
X148926650Y-128275876D01*
X148926657Y-128275890D01*
X149041392Y-128474617D01*
X149181081Y-128656661D01*
X149181089Y-128656670D01*
X149343330Y-128818911D01*
X149343338Y-128818918D01*
X149525382Y-128958607D01*
X149525385Y-128958608D01*
X149525388Y-128958611D01*
X149724112Y-129073344D01*
X149724117Y-129073346D01*
X149724123Y-129073349D01*
X149815480Y-129111190D01*
X149936113Y-129161158D01*
X150157762Y-129220548D01*
X150385266Y-129250500D01*
X150385273Y-129250500D01*
X150614727Y-129250500D01*
X150614734Y-129250500D01*
X150842238Y-129220548D01*
X151063887Y-129161158D01*
X151275888Y-129073344D01*
X151474612Y-128958611D01*
X151656661Y-128818919D01*
X151656665Y-128818914D01*
X151656670Y-128818911D01*
X151818911Y-128656670D01*
X151818914Y-128656665D01*
X151818919Y-128656661D01*
X151958611Y-128474612D01*
X152073344Y-128275888D01*
X152161158Y-128063887D01*
X152220548Y-127842238D01*
X152250500Y-127614734D01*
X152250500Y-127385266D01*
X152220548Y-127157762D01*
X152161158Y-126936113D01*
X152111190Y-126815480D01*
X152073349Y-126724123D01*
X152073346Y-126724117D01*
X152073344Y-126724112D01*
X151958611Y-126525388D01*
X151958608Y-126525385D01*
X151958607Y-126525382D01*
X151857764Y-126393962D01*
X151818919Y-126343339D01*
X151818918Y-126343338D01*
X151818911Y-126343330D01*
X151656670Y-126181089D01*
X151656661Y-126181081D01*
X151474617Y-126041392D01*
X151441349Y-126022185D01*
X151275888Y-125926656D01*
X151275876Y-125926650D01*
X151063887Y-125838842D01*
X150842238Y-125779452D01*
X150804215Y-125774446D01*
X150614741Y-125749500D01*
X150614734Y-125749500D01*
X150385266Y-125749500D01*
X150385258Y-125749500D01*
X150168715Y-125778009D01*
X150157762Y-125779452D01*
X150064076Y-125804554D01*
X149936112Y-125838842D01*
X149724123Y-125926650D01*
X149724109Y-125926657D01*
X149525382Y-126041392D01*
X149343338Y-126181081D01*
X149181081Y-126343338D01*
X149041392Y-126525382D01*
X148926657Y-126724109D01*
X148926650Y-126724123D01*
X148838842Y-126936112D01*
X148779453Y-127157759D01*
X148779451Y-127157770D01*
X148749500Y-127385258D01*
X115052900Y-127385258D01*
X115052900Y-126593353D01*
X115072585Y-126526314D01*
X115125389Y-126480559D01*
X115194547Y-126470615D01*
X115245788Y-126490249D01*
X115326821Y-126544394D01*
X115326823Y-126544395D01*
X115326827Y-126544397D01*
X115472498Y-126604735D01*
X115472503Y-126604737D01*
X115600820Y-126630261D01*
X115627153Y-126635499D01*
X115627156Y-126635500D01*
X115627158Y-126635500D01*
X115784844Y-126635500D01*
X115784845Y-126635499D01*
X115939497Y-126604737D01*
X116085179Y-126544394D01*
X116216289Y-126456789D01*
X116327789Y-126345289D01*
X116415394Y-126214179D01*
X116475737Y-126068497D01*
X116506500Y-125913842D01*
X116506500Y-125756158D01*
X116506500Y-125756155D01*
X116506499Y-125756153D01*
X116486710Y-125656670D01*
X116475737Y-125601503D01*
X116433900Y-125500499D01*
X116415397Y-125455827D01*
X116415390Y-125455814D01*
X116327789Y-125324711D01*
X116327786Y-125324707D01*
X116216292Y-125213213D01*
X116216288Y-125213210D01*
X116085185Y-125125609D01*
X116085172Y-125125602D01*
X115939501Y-125065264D01*
X115939489Y-125065261D01*
X115784845Y-125034500D01*
X115784842Y-125034500D01*
X115627158Y-125034500D01*
X115627155Y-125034500D01*
X115472510Y-125065261D01*
X115472498Y-125065264D01*
X115326827Y-125125602D01*
X115326814Y-125125609D01*
X115245791Y-125179748D01*
X115179113Y-125200626D01*
X115111733Y-125182141D01*
X115065043Y-125130163D01*
X115052900Y-125076646D01*
X115052900Y-124385258D01*
X135749500Y-124385258D01*
X135749500Y-124614741D01*
X135774446Y-124804215D01*
X135779452Y-124842238D01*
X135827407Y-125021210D01*
X135838842Y-125063887D01*
X135926650Y-125275876D01*
X135926657Y-125275890D01*
X136041392Y-125474617D01*
X136181081Y-125656661D01*
X136181089Y-125656670D01*
X136343330Y-125818911D01*
X136343338Y-125818918D01*
X136525382Y-125958607D01*
X136525385Y-125958608D01*
X136525388Y-125958611D01*
X136724112Y-126073344D01*
X136724117Y-126073346D01*
X136724123Y-126073349D01*
X136815480Y-126111190D01*
X136936113Y-126161158D01*
X137157762Y-126220548D01*
X137385266Y-126250500D01*
X137385273Y-126250500D01*
X137614727Y-126250500D01*
X137614734Y-126250500D01*
X137842238Y-126220548D01*
X138063887Y-126161158D01*
X138275888Y-126073344D01*
X138474612Y-125958611D01*
X138656661Y-125818919D01*
X138656665Y-125818914D01*
X138656670Y-125818911D01*
X138818911Y-125656670D01*
X138818914Y-125656665D01*
X138818919Y-125656661D01*
X138958611Y-125474612D01*
X139073344Y-125275888D01*
X139161158Y-125063887D01*
X139220548Y-124842238D01*
X139250500Y-124614734D01*
X139250500Y-124385266D01*
X139220548Y-124157762D01*
X139161158Y-123936113D01*
X139073344Y-123724112D01*
X139022044Y-123635258D01*
X145749500Y-123635258D01*
X145749500Y-123864741D01*
X145774446Y-124054215D01*
X145779452Y-124092238D01*
X145821858Y-124250500D01*
X145838842Y-124313887D01*
X145926650Y-124525876D01*
X145926657Y-124525890D01*
X146041392Y-124724617D01*
X146181081Y-124906661D01*
X146181089Y-124906670D01*
X146343330Y-125068911D01*
X146343338Y-125068918D01*
X146525382Y-125208607D01*
X146525385Y-125208608D01*
X146525388Y-125208611D01*
X146724112Y-125323344D01*
X146724117Y-125323346D01*
X146724123Y-125323349D01*
X146815480Y-125361190D01*
X146936113Y-125411158D01*
X147157762Y-125470548D01*
X147385266Y-125500500D01*
X147385273Y-125500500D01*
X147614727Y-125500500D01*
X147614734Y-125500500D01*
X147842238Y-125470548D01*
X148063887Y-125411158D01*
X148275888Y-125323344D01*
X148474612Y-125208611D01*
X148656661Y-125068919D01*
X148656665Y-125068914D01*
X148656670Y-125068911D01*
X148818911Y-124906670D01*
X148818914Y-124906665D01*
X148818919Y-124906661D01*
X148958611Y-124724612D01*
X149073344Y-124525888D01*
X149161158Y-124313887D01*
X149220548Y-124092238D01*
X149250500Y-123864734D01*
X149250500Y-123635266D01*
X149220548Y-123407762D01*
X149161158Y-123186113D01*
X149110530Y-123063887D01*
X149073349Y-122974123D01*
X149073346Y-122974117D01*
X149073344Y-122974112D01*
X148958611Y-122775388D01*
X148958608Y-122775385D01*
X148958607Y-122775382D01*
X148826109Y-122602709D01*
X148818919Y-122593339D01*
X148818918Y-122593338D01*
X148818911Y-122593330D01*
X148656670Y-122431089D01*
X148656661Y-122431081D01*
X148596944Y-122385258D01*
X149749500Y-122385258D01*
X149749500Y-122614741D01*
X149767374Y-122750499D01*
X149779452Y-122842238D01*
X149814787Y-122974112D01*
X149838842Y-123063887D01*
X149926650Y-123275876D01*
X149926657Y-123275890D01*
X150041392Y-123474617D01*
X150181081Y-123656661D01*
X150181089Y-123656670D01*
X150343330Y-123818911D01*
X150343338Y-123818918D01*
X150525382Y-123958607D01*
X150525385Y-123958608D01*
X150525388Y-123958611D01*
X150724112Y-124073344D01*
X150724117Y-124073346D01*
X150724123Y-124073349D01*
X150815480Y-124111190D01*
X150936113Y-124161158D01*
X151157762Y-124220548D01*
X151385266Y-124250500D01*
X151385273Y-124250500D01*
X151614727Y-124250500D01*
X151614734Y-124250500D01*
X151842238Y-124220548D01*
X152063887Y-124161158D01*
X152275888Y-124073344D01*
X152474612Y-123958611D01*
X152656661Y-123818919D01*
X152656665Y-123818914D01*
X152656670Y-123818911D01*
X152818911Y-123656670D01*
X152818914Y-123656665D01*
X152818919Y-123656661D01*
X152958611Y-123474612D01*
X153073344Y-123275888D01*
X153161158Y-123063887D01*
X153220548Y-122842238D01*
X153250500Y-122614734D01*
X153250500Y-122385266D01*
X153220548Y-122157762D01*
X153161158Y-121936113D01*
X153094791Y-121775890D01*
X153073349Y-121724123D01*
X153073346Y-121724117D01*
X153073344Y-121724112D01*
X152958611Y-121525388D01*
X152958608Y-121525385D01*
X152958607Y-121525382D01*
X152818918Y-121343338D01*
X152818911Y-121343330D01*
X152656670Y-121181089D01*
X152656661Y-121181081D01*
X152474617Y-121041392D01*
X152275890Y-120926657D01*
X152275876Y-120926650D01*
X152063887Y-120838842D01*
X151842238Y-120779452D01*
X151804215Y-120774446D01*
X151614741Y-120749500D01*
X151614734Y-120749500D01*
X151385266Y-120749500D01*
X151385258Y-120749500D01*
X151168715Y-120778009D01*
X151157762Y-120779452D01*
X151064076Y-120804554D01*
X150936112Y-120838842D01*
X150724123Y-120926650D01*
X150724109Y-120926657D01*
X150525382Y-121041392D01*
X150343338Y-121181081D01*
X150181081Y-121343338D01*
X150041392Y-121525382D01*
X149926657Y-121724109D01*
X149926650Y-121724123D01*
X149838842Y-121936112D01*
X149779453Y-122157759D01*
X149779451Y-122157770D01*
X149749500Y-122385258D01*
X148596944Y-122385258D01*
X148474617Y-122291392D01*
X148275890Y-122176657D01*
X148275876Y-122176650D01*
X148063887Y-122088842D01*
X147842238Y-122029452D01*
X147804215Y-122024446D01*
X147614741Y-121999500D01*
X147614734Y-121999500D01*
X147385266Y-121999500D01*
X147385258Y-121999500D01*
X147168715Y-122028009D01*
X147157762Y-122029452D01*
X147064076Y-122054554D01*
X146936112Y-122088842D01*
X146724123Y-122176650D01*
X146724109Y-122176657D01*
X146525382Y-122291392D01*
X146343338Y-122431081D01*
X146181081Y-122593338D01*
X146041392Y-122775382D01*
X145926657Y-122974109D01*
X145926650Y-122974123D01*
X145838842Y-123186112D01*
X145779453Y-123407759D01*
X145779451Y-123407770D01*
X145749500Y-123635258D01*
X139022044Y-123635258D01*
X138958611Y-123525388D01*
X138958608Y-123525385D01*
X138958607Y-123525382D01*
X138818918Y-123343338D01*
X138818911Y-123343330D01*
X138656670Y-123181089D01*
X138656661Y-123181081D01*
X138474617Y-123041392D01*
X138275890Y-122926657D01*
X138275876Y-122926650D01*
X138063887Y-122838842D01*
X137842238Y-122779452D01*
X137804215Y-122774446D01*
X137614741Y-122749500D01*
X137614734Y-122749500D01*
X137385266Y-122749500D01*
X137385258Y-122749500D01*
X137168715Y-122778009D01*
X137157762Y-122779452D01*
X137074331Y-122801807D01*
X136936112Y-122838842D01*
X136724123Y-122926650D01*
X136724109Y-122926657D01*
X136525382Y-123041392D01*
X136343338Y-123181081D01*
X136181081Y-123343338D01*
X136041392Y-123525382D01*
X135926657Y-123724109D01*
X135926650Y-123724123D01*
X135838842Y-123936112D01*
X135779453Y-124157759D01*
X135779451Y-124157770D01*
X135749500Y-124385258D01*
X115052900Y-124385258D01*
X115052900Y-123233253D01*
X131780700Y-123233253D01*
X131780700Y-123390946D01*
X131811461Y-123545589D01*
X131811464Y-123545601D01*
X131871802Y-123691272D01*
X131871809Y-123691285D01*
X131959410Y-123822388D01*
X131959413Y-123822392D01*
X132070907Y-123933886D01*
X132070911Y-123933889D01*
X132202014Y-124021490D01*
X132202027Y-124021497D01*
X132327194Y-124073342D01*
X132347703Y-124081837D01*
X132502353Y-124112599D01*
X132502356Y-124112600D01*
X132502358Y-124112600D01*
X132660044Y-124112600D01*
X132660045Y-124112599D01*
X132814697Y-124081837D01*
X132960379Y-124021494D01*
X133091489Y-123933889D01*
X133202989Y-123822389D01*
X133290594Y-123691279D01*
X133350937Y-123545597D01*
X133381700Y-123390942D01*
X133381700Y-123233258D01*
X133381700Y-123233255D01*
X133381699Y-123233253D01*
X133350938Y-123078610D01*
X133350937Y-123078603D01*
X133350935Y-123078598D01*
X133290597Y-122932927D01*
X133290590Y-122932914D01*
X133202989Y-122801811D01*
X133202986Y-122801807D01*
X133091492Y-122690313D01*
X133091488Y-122690310D01*
X132960385Y-122602709D01*
X132960372Y-122602702D01*
X132814701Y-122542364D01*
X132814689Y-122542361D01*
X132660045Y-122511600D01*
X132660042Y-122511600D01*
X132502358Y-122511600D01*
X132502355Y-122511600D01*
X132347710Y-122542361D01*
X132347698Y-122542364D01*
X132202027Y-122602702D01*
X132202014Y-122602709D01*
X132070911Y-122690310D01*
X132070907Y-122690313D01*
X131959413Y-122801807D01*
X131959410Y-122801811D01*
X131871809Y-122932914D01*
X131871802Y-122932927D01*
X131811464Y-123078598D01*
X131811461Y-123078610D01*
X131780700Y-123233253D01*
X115052900Y-123233253D01*
X115052900Y-120035258D01*
X116549500Y-120035258D01*
X116549500Y-120264741D01*
X116561952Y-120359315D01*
X116579452Y-120492238D01*
X116588469Y-120525890D01*
X116638842Y-120713887D01*
X116726650Y-120925876D01*
X116726657Y-120925890D01*
X116841392Y-121124617D01*
X116981081Y-121306661D01*
X116981089Y-121306670D01*
X117143330Y-121468911D01*
X117143338Y-121468918D01*
X117143339Y-121468919D01*
X117145462Y-121470548D01*
X117325382Y-121608607D01*
X117325385Y-121608608D01*
X117325388Y-121608611D01*
X117524112Y-121723344D01*
X117524117Y-121723346D01*
X117524123Y-121723349D01*
X117615480Y-121761190D01*
X117736113Y-121811158D01*
X117957762Y-121870548D01*
X118185266Y-121900500D01*
X118185273Y-121900500D01*
X118414727Y-121900500D01*
X118414734Y-121900500D01*
X118642238Y-121870548D01*
X118863887Y-121811158D01*
X119075888Y-121723344D01*
X119274612Y-121608611D01*
X119456661Y-121468919D01*
X119456665Y-121468914D01*
X119456670Y-121468911D01*
X119618911Y-121306670D01*
X119618914Y-121306665D01*
X119618919Y-121306661D01*
X119758611Y-121124612D01*
X119873344Y-120925888D01*
X119961158Y-120713887D01*
X120020548Y-120492238D01*
X120050500Y-120264734D01*
X120050500Y-120035266D01*
X120020548Y-119807762D01*
X119974326Y-119635258D01*
X121249500Y-119635258D01*
X121249500Y-119864741D01*
X121270650Y-120025382D01*
X121279452Y-120092238D01*
X121314787Y-120224112D01*
X121338842Y-120313887D01*
X121426650Y-120525876D01*
X121426657Y-120525890D01*
X121541392Y-120724617D01*
X121681081Y-120906661D01*
X121681089Y-120906670D01*
X121843330Y-121068911D01*
X121843338Y-121068918D01*
X122025382Y-121208607D01*
X122025385Y-121208608D01*
X122025388Y-121208611D01*
X122224112Y-121323344D01*
X122224117Y-121323346D01*
X122224123Y-121323349D01*
X122272384Y-121343339D01*
X122436113Y-121411158D01*
X122657762Y-121470548D01*
X122885266Y-121500500D01*
X122885273Y-121500500D01*
X123114727Y-121500500D01*
X123114734Y-121500500D01*
X123342238Y-121470548D01*
X123563887Y-121411158D01*
X123775888Y-121323344D01*
X123974612Y-121208611D01*
X124156661Y-121068919D01*
X124156665Y-121068914D01*
X124156670Y-121068911D01*
X124318911Y-120906670D01*
X124318914Y-120906665D01*
X124318919Y-120906661D01*
X124458611Y-120724612D01*
X124573344Y-120525888D01*
X124605782Y-120447577D01*
X153845975Y-120447577D01*
X153951236Y-120491178D01*
X153951240Y-120491179D01*
X154096126Y-120519999D01*
X154096129Y-120520000D01*
X154243871Y-120520000D01*
X154243873Y-120519999D01*
X154388760Y-120491179D01*
X154388775Y-120491175D01*
X154494024Y-120447578D01*
X154494024Y-120447577D01*
X155045975Y-120447577D01*
X155151236Y-120491178D01*
X155151240Y-120491179D01*
X155296126Y-120519999D01*
X155296129Y-120520000D01*
X155443871Y-120520000D01*
X155443873Y-120519999D01*
X155588760Y-120491179D01*
X155588775Y-120491175D01*
X155694024Y-120447578D01*
X155694024Y-120447577D01*
X156245975Y-120447577D01*
X156351236Y-120491178D01*
X156351240Y-120491179D01*
X156496126Y-120519999D01*
X156496129Y-120520000D01*
X156643871Y-120520000D01*
X156643873Y-120519999D01*
X156788760Y-120491179D01*
X156788775Y-120491175D01*
X156894024Y-120447578D01*
X156894024Y-120447577D01*
X157445975Y-120447577D01*
X157551236Y-120491178D01*
X157551240Y-120491179D01*
X157696126Y-120519999D01*
X157696129Y-120520000D01*
X157843871Y-120520000D01*
X157843873Y-120519999D01*
X157988760Y-120491179D01*
X157988775Y-120491175D01*
X158094024Y-120447578D01*
X158094024Y-120447577D01*
X157770001Y-120123554D01*
X157770000Y-120123554D01*
X157445975Y-120447577D01*
X156894024Y-120447577D01*
X156570001Y-120123554D01*
X156570000Y-120123554D01*
X156245975Y-120447577D01*
X155694024Y-120447577D01*
X155370001Y-120123554D01*
X155370000Y-120123554D01*
X155045975Y-120447577D01*
X154494024Y-120447577D01*
X154170001Y-120123554D01*
X154170000Y-120123554D01*
X153845975Y-120447577D01*
X124605782Y-120447577D01*
X124661158Y-120313887D01*
X124720548Y-120092238D01*
X124750500Y-119864734D01*
X124750500Y-119635266D01*
X124720548Y-119407762D01*
X124661158Y-119186113D01*
X124592242Y-119019735D01*
X124573349Y-118974123D01*
X124573346Y-118974117D01*
X124573344Y-118974112D01*
X124458611Y-118775388D01*
X124458608Y-118775385D01*
X124458607Y-118775382D01*
X124318918Y-118593338D01*
X124318911Y-118593330D01*
X124156670Y-118431089D01*
X124156661Y-118431081D01*
X123981942Y-118297013D01*
X123974616Y-118291392D01*
X123974615Y-118291391D01*
X123974612Y-118291389D01*
X123775888Y-118176656D01*
X123775876Y-118176650D01*
X123563887Y-118088842D01*
X123527122Y-118078991D01*
X123342238Y-118029452D01*
X123304215Y-118024446D01*
X123114741Y-117999500D01*
X123114734Y-117999500D01*
X122885266Y-117999500D01*
X122885258Y-117999500D01*
X122668715Y-118028009D01*
X122657762Y-118029452D01*
X122624319Y-118038413D01*
X122436112Y-118088842D01*
X122224123Y-118176650D01*
X122224109Y-118176657D01*
X122025382Y-118291392D01*
X121843338Y-118431081D01*
X121681081Y-118593338D01*
X121541392Y-118775382D01*
X121426657Y-118974109D01*
X121426650Y-118974123D01*
X121343284Y-119175388D01*
X121338842Y-119186113D01*
X121283211Y-119393735D01*
X121279453Y-119407759D01*
X121279451Y-119407770D01*
X121249500Y-119635258D01*
X119974326Y-119635258D01*
X119961158Y-119586113D01*
X119895106Y-119426650D01*
X119873349Y-119374123D01*
X119873346Y-119374117D01*
X119873344Y-119374112D01*
X119758611Y-119175388D01*
X119758608Y-119175385D01*
X119758607Y-119175382D01*
X119626471Y-119003181D01*
X119618919Y-118993339D01*
X119618918Y-118993338D01*
X119618911Y-118993330D01*
X119456670Y-118831089D01*
X119456661Y-118831081D01*
X119274617Y-118691392D01*
X119075890Y-118576657D01*
X119075876Y-118576650D01*
X118863887Y-118488842D01*
X118831332Y-118480119D01*
X118642238Y-118429452D01*
X118604215Y-118424446D01*
X118414741Y-118399500D01*
X118414734Y-118399500D01*
X118185266Y-118399500D01*
X118185258Y-118399500D01*
X117968715Y-118428009D01*
X117957762Y-118429452D01*
X117951653Y-118431089D01*
X117736112Y-118488842D01*
X117524123Y-118576650D01*
X117524109Y-118576657D01*
X117325382Y-118691392D01*
X117143338Y-118831081D01*
X116981081Y-118993338D01*
X116841392Y-119175382D01*
X116726657Y-119374109D01*
X116726650Y-119374123D01*
X116638842Y-119586112D01*
X116612286Y-119685224D01*
X116584241Y-119789891D01*
X116579453Y-119807759D01*
X116579451Y-119807770D01*
X116549500Y-120035258D01*
X115052900Y-120035258D01*
X115052900Y-116702155D01*
X126000000Y-116702155D01*
X126000000Y-117750000D01*
X127201518Y-117750000D01*
X127190889Y-117768409D01*
X127150000Y-117921009D01*
X127150000Y-118078991D01*
X127190889Y-118231591D01*
X127201518Y-118250000D01*
X126000000Y-118250000D01*
X126000000Y-119297844D01*
X126006401Y-119357372D01*
X126006403Y-119357379D01*
X126056645Y-119492086D01*
X126056649Y-119492093D01*
X126142809Y-119607187D01*
X126142812Y-119607190D01*
X126257906Y-119693350D01*
X126257913Y-119693354D01*
X126392620Y-119743596D01*
X126392627Y-119743598D01*
X126452155Y-119749999D01*
X126452172Y-119750000D01*
X127500000Y-119750000D01*
X127500000Y-118548482D01*
X127518409Y-118559111D01*
X127671009Y-118600000D01*
X127828991Y-118600000D01*
X127981591Y-118559111D01*
X128000000Y-118548482D01*
X128000000Y-119750000D01*
X129047828Y-119750000D01*
X129047844Y-119749999D01*
X129107372Y-119743598D01*
X129107379Y-119743596D01*
X129234654Y-119696126D01*
X153420000Y-119696126D01*
X153420000Y-119843873D01*
X153448820Y-119988759D01*
X153448822Y-119988767D01*
X153492421Y-120094024D01*
X153816446Y-119770000D01*
X153816446Y-119769999D01*
X153796556Y-119750109D01*
X154070000Y-119750109D01*
X154070000Y-119789891D01*
X154085224Y-119826645D01*
X154113355Y-119854776D01*
X154150109Y-119870000D01*
X154189891Y-119870000D01*
X154226645Y-119854776D01*
X154254776Y-119826645D01*
X154270000Y-119789891D01*
X154270000Y-119770000D01*
X154523554Y-119770000D01*
X154770000Y-120016446D01*
X155016446Y-119770000D01*
X154996555Y-119750109D01*
X155270000Y-119750109D01*
X155270000Y-119789891D01*
X155285224Y-119826645D01*
X155313355Y-119854776D01*
X155350109Y-119870000D01*
X155389891Y-119870000D01*
X155426645Y-119854776D01*
X155454776Y-119826645D01*
X155470000Y-119789891D01*
X155470000Y-119770000D01*
X155723554Y-119770000D01*
X155970000Y-120016446D01*
X156216446Y-119770000D01*
X156196555Y-119750109D01*
X156470000Y-119750109D01*
X156470000Y-119789891D01*
X156485224Y-119826645D01*
X156513355Y-119854776D01*
X156550109Y-119870000D01*
X156589891Y-119870000D01*
X156626645Y-119854776D01*
X156654776Y-119826645D01*
X156670000Y-119789891D01*
X156670000Y-119770000D01*
X156923554Y-119770000D01*
X157170000Y-120016446D01*
X157416446Y-119770000D01*
X157396555Y-119750109D01*
X157670000Y-119750109D01*
X157670000Y-119789891D01*
X157685224Y-119826645D01*
X157713355Y-119854776D01*
X157750109Y-119870000D01*
X157789891Y-119870000D01*
X157826645Y-119854776D01*
X157854776Y-119826645D01*
X157870000Y-119789891D01*
X157870000Y-119769999D01*
X158123554Y-119769999D01*
X158123554Y-119770001D01*
X158447577Y-120094024D01*
X158447578Y-120094024D01*
X158491175Y-119988775D01*
X158491179Y-119988760D01*
X158519999Y-119843873D01*
X158520000Y-119843871D01*
X158520000Y-119696128D01*
X158519999Y-119696126D01*
X158491179Y-119551240D01*
X158491178Y-119551236D01*
X158447577Y-119445975D01*
X158123554Y-119769999D01*
X157870000Y-119769999D01*
X157870000Y-119750109D01*
X157854776Y-119713355D01*
X157826645Y-119685224D01*
X157789891Y-119670000D01*
X157750109Y-119670000D01*
X157713355Y-119685224D01*
X157685224Y-119713355D01*
X157670000Y-119750109D01*
X157396555Y-119750109D01*
X157170000Y-119523554D01*
X156923554Y-119770000D01*
X156670000Y-119770000D01*
X156670000Y-119750109D01*
X156654776Y-119713355D01*
X156626645Y-119685224D01*
X156589891Y-119670000D01*
X156550109Y-119670000D01*
X156513355Y-119685224D01*
X156485224Y-119713355D01*
X156470000Y-119750109D01*
X156196555Y-119750109D01*
X155970000Y-119523554D01*
X155723554Y-119770000D01*
X155470000Y-119770000D01*
X155470000Y-119750109D01*
X155454776Y-119713355D01*
X155426645Y-119685224D01*
X155389891Y-119670000D01*
X155350109Y-119670000D01*
X155313355Y-119685224D01*
X155285224Y-119713355D01*
X155270000Y-119750109D01*
X154996555Y-119750109D01*
X154770000Y-119523554D01*
X154523554Y-119770000D01*
X154270000Y-119770000D01*
X154270000Y-119750109D01*
X154254776Y-119713355D01*
X154226645Y-119685224D01*
X154189891Y-119670000D01*
X154150109Y-119670000D01*
X154113355Y-119685224D01*
X154085224Y-119713355D01*
X154070000Y-119750109D01*
X153796556Y-119750109D01*
X153492421Y-119445974D01*
X153492420Y-119445974D01*
X153448823Y-119551228D01*
X153448820Y-119551240D01*
X153420000Y-119696126D01*
X129234654Y-119696126D01*
X129242086Y-119693354D01*
X129242093Y-119693350D01*
X129357187Y-119607190D01*
X129357190Y-119607187D01*
X129443350Y-119492093D01*
X129443354Y-119492086D01*
X129493596Y-119357379D01*
X129493598Y-119357372D01*
X129499999Y-119297844D01*
X129500000Y-119297827D01*
X129500000Y-119170000D01*
X153923554Y-119170000D01*
X154170000Y-119416446D01*
X154416446Y-119170000D01*
X155123554Y-119170000D01*
X155370000Y-119416446D01*
X155616446Y-119170000D01*
X156323554Y-119170000D01*
X156570000Y-119416446D01*
X156816446Y-119170000D01*
X157523554Y-119170000D01*
X157770000Y-119416446D01*
X158016446Y-119170000D01*
X157770000Y-118923554D01*
X157523554Y-119170000D01*
X156816446Y-119170000D01*
X156570000Y-118923554D01*
X156323554Y-119170000D01*
X155616446Y-119170000D01*
X155370000Y-118923554D01*
X155123554Y-119170000D01*
X154416446Y-119170000D01*
X154170000Y-118923554D01*
X153923554Y-119170000D01*
X129500000Y-119170000D01*
X129500000Y-118496126D01*
X153420000Y-118496126D01*
X153420000Y-118643873D01*
X153448820Y-118788759D01*
X153448822Y-118788767D01*
X153492421Y-118894024D01*
X153816446Y-118570000D01*
X153816446Y-118569999D01*
X153796556Y-118550109D01*
X154070000Y-118550109D01*
X154070000Y-118589891D01*
X154085224Y-118626645D01*
X154113355Y-118654776D01*
X154150109Y-118670000D01*
X154189891Y-118670000D01*
X154226645Y-118654776D01*
X154254776Y-118626645D01*
X154270000Y-118589891D01*
X154270000Y-118570000D01*
X154523554Y-118570000D01*
X154770000Y-118816446D01*
X155016446Y-118570000D01*
X154996555Y-118550109D01*
X155270000Y-118550109D01*
X155270000Y-118589891D01*
X155285224Y-118626645D01*
X155313355Y-118654776D01*
X155350109Y-118670000D01*
X155389891Y-118670000D01*
X155426645Y-118654776D01*
X155454776Y-118626645D01*
X155470000Y-118589891D01*
X155470000Y-118570000D01*
X155723554Y-118570000D01*
X155970000Y-118816446D01*
X156216446Y-118570000D01*
X156196555Y-118550109D01*
X156470000Y-118550109D01*
X156470000Y-118589891D01*
X156485224Y-118626645D01*
X156513355Y-118654776D01*
X156550109Y-118670000D01*
X156589891Y-118670000D01*
X156626645Y-118654776D01*
X156654776Y-118626645D01*
X156670000Y-118589891D01*
X156670000Y-118570000D01*
X156923554Y-118570000D01*
X157170000Y-118816446D01*
X157416446Y-118570000D01*
X157396555Y-118550109D01*
X157670000Y-118550109D01*
X157670000Y-118589891D01*
X157685224Y-118626645D01*
X157713355Y-118654776D01*
X157750109Y-118670000D01*
X157789891Y-118670000D01*
X157826645Y-118654776D01*
X157854776Y-118626645D01*
X157870000Y-118589891D01*
X157870000Y-118569999D01*
X158123554Y-118569999D01*
X158123554Y-118570001D01*
X158447577Y-118894024D01*
X158447578Y-118894024D01*
X158491175Y-118788775D01*
X158491179Y-118788760D01*
X158519999Y-118643873D01*
X158520000Y-118643871D01*
X158520000Y-118496128D01*
X158519999Y-118496126D01*
X158491179Y-118351240D01*
X158491178Y-118351236D01*
X158447577Y-118245975D01*
X158123554Y-118569999D01*
X157870000Y-118569999D01*
X157870000Y-118550109D01*
X157854776Y-118513355D01*
X157826645Y-118485224D01*
X157789891Y-118470000D01*
X157750109Y-118470000D01*
X157713355Y-118485224D01*
X157685224Y-118513355D01*
X157670000Y-118550109D01*
X157396555Y-118550109D01*
X157170000Y-118323554D01*
X156923554Y-118570000D01*
X156670000Y-118570000D01*
X156670000Y-118550109D01*
X156654776Y-118513355D01*
X156626645Y-118485224D01*
X156589891Y-118470000D01*
X156550109Y-118470000D01*
X156513355Y-118485224D01*
X156485224Y-118513355D01*
X156470000Y-118550109D01*
X156196555Y-118550109D01*
X155970000Y-118323554D01*
X155723554Y-118570000D01*
X155470000Y-118570000D01*
X155470000Y-118550109D01*
X155454776Y-118513355D01*
X155426645Y-118485224D01*
X155389891Y-118470000D01*
X155350109Y-118470000D01*
X155313355Y-118485224D01*
X155285224Y-118513355D01*
X155270000Y-118550109D01*
X154996555Y-118550109D01*
X154770000Y-118323554D01*
X154523554Y-118570000D01*
X154270000Y-118570000D01*
X154270000Y-118550109D01*
X154254776Y-118513355D01*
X154226645Y-118485224D01*
X154189891Y-118470000D01*
X154150109Y-118470000D01*
X154113355Y-118485224D01*
X154085224Y-118513355D01*
X154070000Y-118550109D01*
X153796556Y-118550109D01*
X153492421Y-118245974D01*
X153492420Y-118245974D01*
X153448823Y-118351228D01*
X153448820Y-118351240D01*
X153420000Y-118496126D01*
X129500000Y-118496126D01*
X129500000Y-118250000D01*
X128298482Y-118250000D01*
X128309111Y-118231591D01*
X128350000Y-118078991D01*
X128350000Y-117970000D01*
X153923554Y-117970000D01*
X154170000Y-118216446D01*
X154416446Y-117970000D01*
X155123554Y-117970000D01*
X155370000Y-118216446D01*
X155616446Y-117970000D01*
X156323554Y-117970000D01*
X156570000Y-118216446D01*
X156816446Y-117970000D01*
X157523554Y-117970000D01*
X157770000Y-118216446D01*
X158016446Y-117970000D01*
X157770000Y-117723554D01*
X157523554Y-117970000D01*
X156816446Y-117970000D01*
X156570000Y-117723554D01*
X156323554Y-117970000D01*
X155616446Y-117970000D01*
X155370000Y-117723554D01*
X155123554Y-117970000D01*
X154416446Y-117970000D01*
X154170000Y-117723554D01*
X153923554Y-117970000D01*
X128350000Y-117970000D01*
X128350000Y-117921009D01*
X128309111Y-117768409D01*
X128298482Y-117750000D01*
X129500000Y-117750000D01*
X129500000Y-117296126D01*
X153420000Y-117296126D01*
X153420000Y-117443873D01*
X153448820Y-117588759D01*
X153448822Y-117588767D01*
X153492421Y-117694024D01*
X153816446Y-117370000D01*
X153816446Y-117369999D01*
X153796556Y-117350109D01*
X154070000Y-117350109D01*
X154070000Y-117389891D01*
X154085224Y-117426645D01*
X154113355Y-117454776D01*
X154150109Y-117470000D01*
X154189891Y-117470000D01*
X154226645Y-117454776D01*
X154254776Y-117426645D01*
X154270000Y-117389891D01*
X154270000Y-117370000D01*
X154523554Y-117370000D01*
X154770000Y-117616446D01*
X155016446Y-117370000D01*
X154996555Y-117350109D01*
X155270000Y-117350109D01*
X155270000Y-117389891D01*
X155285224Y-117426645D01*
X155313355Y-117454776D01*
X155350109Y-117470000D01*
X155389891Y-117470000D01*
X155426645Y-117454776D01*
X155454776Y-117426645D01*
X155470000Y-117389891D01*
X155470000Y-117370000D01*
X155723554Y-117370000D01*
X155970000Y-117616446D01*
X156216446Y-117370000D01*
X156196555Y-117350109D01*
X156470000Y-117350109D01*
X156470000Y-117389891D01*
X156485224Y-117426645D01*
X156513355Y-117454776D01*
X156550109Y-117470000D01*
X156589891Y-117470000D01*
X156626645Y-117454776D01*
X156654776Y-117426645D01*
X156670000Y-117389891D01*
X156670000Y-117370000D01*
X156923554Y-117370000D01*
X157170000Y-117616446D01*
X157416446Y-117370000D01*
X157396555Y-117350109D01*
X157670000Y-117350109D01*
X157670000Y-117389891D01*
X157685224Y-117426645D01*
X157713355Y-117454776D01*
X157750109Y-117470000D01*
X157789891Y-117470000D01*
X157826645Y-117454776D01*
X157854776Y-117426645D01*
X157870000Y-117389891D01*
X157870000Y-117369999D01*
X158123554Y-117369999D01*
X158123554Y-117370001D01*
X158447577Y-117694024D01*
X158447578Y-117694024D01*
X158491175Y-117588775D01*
X158491179Y-117588760D01*
X158519999Y-117443873D01*
X158520000Y-117443871D01*
X158520000Y-117296128D01*
X158519999Y-117296126D01*
X158491179Y-117151240D01*
X158491178Y-117151236D01*
X158447577Y-117045975D01*
X158123554Y-117369999D01*
X157870000Y-117369999D01*
X157870000Y-117350109D01*
X157854776Y-117313355D01*
X157826645Y-117285224D01*
X157789891Y-117270000D01*
X157750109Y-117270000D01*
X157713355Y-117285224D01*
X157685224Y-117313355D01*
X157670000Y-117350109D01*
X157396555Y-117350109D01*
X157170000Y-117123554D01*
X156923554Y-117370000D01*
X156670000Y-117370000D01*
X156670000Y-117350109D01*
X156654776Y-117313355D01*
X156626645Y-117285224D01*
X156589891Y-117270000D01*
X156550109Y-117270000D01*
X156513355Y-117285224D01*
X156485224Y-117313355D01*
X156470000Y-117350109D01*
X156196555Y-117350109D01*
X155970000Y-117123554D01*
X155723554Y-117370000D01*
X155470000Y-117370000D01*
X155470000Y-117350109D01*
X155454776Y-117313355D01*
X155426645Y-117285224D01*
X155389891Y-117270000D01*
X155350109Y-117270000D01*
X155313355Y-117285224D01*
X155285224Y-117313355D01*
X155270000Y-117350109D01*
X154996555Y-117350109D01*
X154770000Y-117123554D01*
X154523554Y-117370000D01*
X154270000Y-117370000D01*
X154270000Y-117350109D01*
X154254776Y-117313355D01*
X154226645Y-117285224D01*
X154189891Y-117270000D01*
X154150109Y-117270000D01*
X154113355Y-117285224D01*
X154085224Y-117313355D01*
X154070000Y-117350109D01*
X153796556Y-117350109D01*
X153492421Y-117045974D01*
X153492420Y-117045974D01*
X153448823Y-117151228D01*
X153448820Y-117151240D01*
X153420000Y-117296126D01*
X129500000Y-117296126D01*
X129500000Y-116702172D01*
X129499999Y-116702155D01*
X129493598Y-116642627D01*
X129493596Y-116642620D01*
X129443354Y-116507913D01*
X129443350Y-116507906D01*
X129392049Y-116439377D01*
X129357190Y-116392812D01*
X129357187Y-116392809D01*
X129328259Y-116371153D01*
X147699500Y-116371153D01*
X147699500Y-116528846D01*
X147730261Y-116683489D01*
X147730264Y-116683501D01*
X147790602Y-116829172D01*
X147790609Y-116829185D01*
X147878210Y-116960288D01*
X147878213Y-116960292D01*
X147989707Y-117071786D01*
X147989711Y-117071789D01*
X148120814Y-117159390D01*
X148120827Y-117159397D01*
X148266498Y-117219735D01*
X148266503Y-117219737D01*
X148421153Y-117250499D01*
X148421156Y-117250500D01*
X148421158Y-117250500D01*
X148578844Y-117250500D01*
X148578845Y-117250499D01*
X148733497Y-117219737D01*
X148840348Y-117175478D01*
X148840349Y-117175478D01*
X148858364Y-117168015D01*
X148879179Y-117159394D01*
X149010289Y-117071789D01*
X149121789Y-116960289D01*
X149209394Y-116829179D01*
X149210713Y-116825996D01*
X149215926Y-116813407D01*
X149233906Y-116770000D01*
X153923554Y-116770000D01*
X154170000Y-117016446D01*
X154416446Y-116770000D01*
X155123554Y-116770000D01*
X155370000Y-117016446D01*
X155616446Y-116770000D01*
X156323554Y-116770000D01*
X156570000Y-117016446D01*
X156816446Y-116770000D01*
X157523554Y-116770000D01*
X157770000Y-117016446D01*
X158016446Y-116770000D01*
X157770000Y-116523554D01*
X157523554Y-116770000D01*
X156816446Y-116770000D01*
X156570000Y-116523554D01*
X156323554Y-116770000D01*
X155616446Y-116770000D01*
X155370000Y-116523554D01*
X155123554Y-116770000D01*
X154416446Y-116770000D01*
X154170000Y-116523554D01*
X153923554Y-116770000D01*
X149233906Y-116770000D01*
X149269737Y-116683497D01*
X149300500Y-116528842D01*
X149300500Y-116371158D01*
X149300500Y-116371155D01*
X149300499Y-116371153D01*
X149280378Y-116270000D01*
X149269737Y-116216503D01*
X149219876Y-116096126D01*
X153420000Y-116096126D01*
X153420000Y-116243873D01*
X153448820Y-116388759D01*
X153448822Y-116388767D01*
X153492421Y-116494024D01*
X153816446Y-116170000D01*
X153816446Y-116169999D01*
X153796556Y-116150109D01*
X154070000Y-116150109D01*
X154070000Y-116189891D01*
X154085224Y-116226645D01*
X154113355Y-116254776D01*
X154150109Y-116270000D01*
X154189891Y-116270000D01*
X154226645Y-116254776D01*
X154254776Y-116226645D01*
X154270000Y-116189891D01*
X154270000Y-116170000D01*
X154523554Y-116170000D01*
X154770000Y-116416446D01*
X155016446Y-116170000D01*
X154996555Y-116150109D01*
X155270000Y-116150109D01*
X155270000Y-116189891D01*
X155285224Y-116226645D01*
X155313355Y-116254776D01*
X155350109Y-116270000D01*
X155389891Y-116270000D01*
X155426645Y-116254776D01*
X155454776Y-116226645D01*
X155470000Y-116189891D01*
X155470000Y-116170000D01*
X155723554Y-116170000D01*
X155970000Y-116416446D01*
X156216446Y-116170000D01*
X156196555Y-116150109D01*
X156470000Y-116150109D01*
X156470000Y-116189891D01*
X156485224Y-116226645D01*
X156513355Y-116254776D01*
X156550109Y-116270000D01*
X156589891Y-116270000D01*
X156626645Y-116254776D01*
X156654776Y-116226645D01*
X156670000Y-116189891D01*
X156670000Y-116170000D01*
X156923554Y-116170000D01*
X157170000Y-116416446D01*
X157416446Y-116170000D01*
X157396555Y-116150109D01*
X157670000Y-116150109D01*
X157670000Y-116189891D01*
X157685224Y-116226645D01*
X157713355Y-116254776D01*
X157750109Y-116270000D01*
X157789891Y-116270000D01*
X157826645Y-116254776D01*
X157854776Y-116226645D01*
X157870000Y-116189891D01*
X157870000Y-116150109D01*
X157854776Y-116113355D01*
X157826645Y-116085224D01*
X157789891Y-116070000D01*
X157750109Y-116070000D01*
X157713355Y-116085224D01*
X157685224Y-116113355D01*
X157670000Y-116150109D01*
X157396555Y-116150109D01*
X157170000Y-115923554D01*
X156923554Y-116170000D01*
X156670000Y-116170000D01*
X156670000Y-116150109D01*
X156654776Y-116113355D01*
X156626645Y-116085224D01*
X156589891Y-116070000D01*
X156550109Y-116070000D01*
X156513355Y-116085224D01*
X156485224Y-116113355D01*
X156470000Y-116150109D01*
X156196555Y-116150109D01*
X155970000Y-115923554D01*
X155723554Y-116170000D01*
X155470000Y-116170000D01*
X155470000Y-116150109D01*
X155454776Y-116113355D01*
X155426645Y-116085224D01*
X155389891Y-116070000D01*
X155350109Y-116070000D01*
X155313355Y-116085224D01*
X155285224Y-116113355D01*
X155270000Y-116150109D01*
X154996555Y-116150109D01*
X154770000Y-115923554D01*
X154523554Y-116170000D01*
X154270000Y-116170000D01*
X154270000Y-116150109D01*
X154254776Y-116113355D01*
X154226645Y-116085224D01*
X154189891Y-116070000D01*
X154150109Y-116070000D01*
X154113355Y-116085224D01*
X154085224Y-116113355D01*
X154070000Y-116150109D01*
X153796556Y-116150109D01*
X153492421Y-115845974D01*
X153492420Y-115845974D01*
X153448823Y-115951228D01*
X153448820Y-115951240D01*
X153420000Y-116096126D01*
X149219876Y-116096126D01*
X149209394Y-116070821D01*
X149196842Y-116052037D01*
X149192863Y-116043540D01*
X149188924Y-116017907D01*
X149181175Y-115993158D01*
X149183705Y-115983933D01*
X149182253Y-115974481D01*
X149192796Y-115950790D01*
X149199658Y-115925778D01*
X149207585Y-115917562D01*
X149210663Y-115910648D01*
X149220469Y-115904211D01*
X149236268Y-115887839D01*
X149260286Y-115871791D01*
X149260285Y-115871791D01*
X149260289Y-115871789D01*
X149371789Y-115760289D01*
X149459394Y-115629179D01*
X149497870Y-115536289D01*
X149516041Y-115492420D01*
X153845974Y-115492420D01*
X153845974Y-115492421D01*
X154170000Y-115816446D01*
X154170001Y-115816446D01*
X154494024Y-115492421D01*
X154494022Y-115492420D01*
X155045974Y-115492420D01*
X155045974Y-115492421D01*
X155370000Y-115816446D01*
X155370001Y-115816446D01*
X155694024Y-115492421D01*
X155694022Y-115492420D01*
X156245974Y-115492420D01*
X156245974Y-115492421D01*
X156570000Y-115816446D01*
X156570001Y-115816446D01*
X156894024Y-115492421D01*
X156894022Y-115492420D01*
X157445974Y-115492420D01*
X157445974Y-115492421D01*
X157946777Y-115993223D01*
X158447577Y-116494024D01*
X158447578Y-116494024D01*
X158491175Y-116388775D01*
X158491179Y-116388760D01*
X158519999Y-116243873D01*
X158520000Y-116243871D01*
X158520000Y-116096128D01*
X158519999Y-116096126D01*
X158491179Y-115951240D01*
X158491177Y-115951232D01*
X158443765Y-115836768D01*
X158436296Y-115767298D01*
X158467571Y-115704819D01*
X158527660Y-115669167D01*
X158597485Y-115671661D01*
X158627212Y-115686210D01*
X158700821Y-115735394D01*
X158700823Y-115735395D01*
X158700827Y-115735397D01*
X158846498Y-115795735D01*
X158846503Y-115795737D01*
X159001153Y-115826499D01*
X159001156Y-115826500D01*
X159001158Y-115826500D01*
X159158844Y-115826500D01*
X159158845Y-115826499D01*
X159313497Y-115795737D01*
X159459179Y-115735394D01*
X159590289Y-115647789D01*
X159701789Y-115536289D01*
X159789394Y-115405179D01*
X159849737Y-115259497D01*
X159880500Y-115104842D01*
X159880500Y-114947158D01*
X159880500Y-114947155D01*
X159880499Y-114947153D01*
X159865317Y-114870827D01*
X159849737Y-114792503D01*
X159827870Y-114739711D01*
X159789397Y-114646827D01*
X159789390Y-114646814D01*
X159701789Y-114515711D01*
X159701786Y-114515707D01*
X159590292Y-114404213D01*
X159590288Y-114404210D01*
X159459185Y-114316609D01*
X159459172Y-114316602D01*
X159313501Y-114256264D01*
X159313489Y-114256261D01*
X159158845Y-114225500D01*
X159158842Y-114225500D01*
X159001158Y-114225500D01*
X159001155Y-114225500D01*
X158846510Y-114256261D01*
X158846498Y-114256264D01*
X158700827Y-114316602D01*
X158700814Y-114316609D01*
X158569711Y-114404210D01*
X158569707Y-114404213D01*
X158458213Y-114515707D01*
X158458210Y-114515711D01*
X158370609Y-114646814D01*
X158370602Y-114646827D01*
X158310264Y-114792498D01*
X158310261Y-114792510D01*
X158279500Y-114947153D01*
X158279500Y-115104846D01*
X158310261Y-115259489D01*
X158310264Y-115259501D01*
X158365440Y-115392710D01*
X158372909Y-115462180D01*
X158341633Y-115524659D01*
X158281544Y-115560310D01*
X158211719Y-115557816D01*
X158181988Y-115543264D01*
X158125264Y-115505362D01*
X158125254Y-115505357D01*
X157988767Y-115448822D01*
X157988759Y-115448820D01*
X157843872Y-115420000D01*
X157696128Y-115420000D01*
X157551240Y-115448820D01*
X157551228Y-115448823D01*
X157445974Y-115492420D01*
X156894022Y-115492420D01*
X156788767Y-115448822D01*
X156788759Y-115448820D01*
X156643872Y-115420000D01*
X156496128Y-115420000D01*
X156351240Y-115448820D01*
X156351228Y-115448823D01*
X156245974Y-115492420D01*
X155694022Y-115492420D01*
X155588767Y-115448822D01*
X155588759Y-115448820D01*
X155443872Y-115420000D01*
X155296128Y-115420000D01*
X155151240Y-115448820D01*
X155151228Y-115448823D01*
X155045974Y-115492420D01*
X154494022Y-115492420D01*
X154388767Y-115448822D01*
X154388759Y-115448820D01*
X154243872Y-115420000D01*
X154096128Y-115420000D01*
X153951240Y-115448820D01*
X153951228Y-115448823D01*
X153845974Y-115492420D01*
X149516041Y-115492420D01*
X149518787Y-115485791D01*
X149518787Y-115485789D01*
X149519737Y-115483497D01*
X149550500Y-115328842D01*
X149550500Y-115171158D01*
X149550500Y-115171155D01*
X149550499Y-115171153D01*
X149537436Y-115105483D01*
X149519737Y-115016503D01*
X149491014Y-114947158D01*
X149459397Y-114870827D01*
X149459390Y-114870814D01*
X149371789Y-114739711D01*
X149371786Y-114739707D01*
X149260292Y-114628213D01*
X149260288Y-114628210D01*
X149129185Y-114540609D01*
X149129172Y-114540602D01*
X148983501Y-114480264D01*
X148983489Y-114480261D01*
X148828845Y-114449500D01*
X148828842Y-114449500D01*
X148671158Y-114449500D01*
X148671155Y-114449500D01*
X148516510Y-114480261D01*
X148516498Y-114480264D01*
X148370827Y-114540602D01*
X148370814Y-114540609D01*
X148239711Y-114628210D01*
X148239707Y-114628213D01*
X148128213Y-114739707D01*
X148128210Y-114739711D01*
X148040609Y-114870814D01*
X148040602Y-114870827D01*
X147980264Y-115016498D01*
X147980261Y-115016510D01*
X147949500Y-115171153D01*
X147949500Y-115328846D01*
X147980261Y-115483489D01*
X147980264Y-115483501D01*
X148040604Y-115629176D01*
X148047946Y-115640164D01*
X148068824Y-115706841D01*
X148050340Y-115774222D01*
X148013738Y-115812155D01*
X147989712Y-115828209D01*
X147989707Y-115828213D01*
X147878213Y-115939707D01*
X147878210Y-115939711D01*
X147790609Y-116070814D01*
X147790602Y-116070827D01*
X147730264Y-116216498D01*
X147730261Y-116216510D01*
X147699500Y-116371153D01*
X129328259Y-116371153D01*
X129242093Y-116306649D01*
X129242086Y-116306645D01*
X129107379Y-116256403D01*
X129107372Y-116256401D01*
X129047844Y-116250000D01*
X128000000Y-116250000D01*
X128000000Y-117451517D01*
X127981591Y-117440889D01*
X127828991Y-117400000D01*
X127671009Y-117400000D01*
X127518409Y-117440889D01*
X127500000Y-117451517D01*
X127500000Y-116250000D01*
X126452155Y-116250000D01*
X126392627Y-116256401D01*
X126392620Y-116256403D01*
X126257913Y-116306645D01*
X126257906Y-116306649D01*
X126142812Y-116392809D01*
X126142809Y-116392812D01*
X126056649Y-116507906D01*
X126056645Y-116507913D01*
X126006403Y-116642620D01*
X126006401Y-116642627D01*
X126000000Y-116702155D01*
X115052900Y-116702155D01*
X115052900Y-114848353D01*
X133571700Y-114848353D01*
X133571700Y-115006046D01*
X133602461Y-115160689D01*
X133602464Y-115160701D01*
X133662802Y-115306372D01*
X133662809Y-115306385D01*
X133750410Y-115437488D01*
X133750413Y-115437492D01*
X133861907Y-115548986D01*
X133861911Y-115548989D01*
X133993014Y-115636590D01*
X133993027Y-115636597D01*
X134138698Y-115696935D01*
X134138703Y-115696937D01*
X134293353Y-115727699D01*
X134293356Y-115727700D01*
X134293358Y-115727700D01*
X134451044Y-115727700D01*
X134451045Y-115727699D01*
X134605697Y-115696937D01*
X134751379Y-115636594D01*
X134882489Y-115548989D01*
X134993989Y-115437489D01*
X135081594Y-115306379D01*
X135141937Y-115160697D01*
X135172700Y-115006042D01*
X135172700Y-114848358D01*
X135172700Y-114848355D01*
X135172699Y-114848353D01*
X135153036Y-114749500D01*
X135141937Y-114693703D01*
X135141935Y-114693698D01*
X135081597Y-114548027D01*
X135081590Y-114548014D01*
X134993989Y-114416911D01*
X134993986Y-114416907D01*
X134882492Y-114305413D01*
X134882487Y-114305409D01*
X134751385Y-114217809D01*
X134751372Y-114217802D01*
X134605701Y-114157464D01*
X134605689Y-114157461D01*
X134451045Y-114126700D01*
X134451042Y-114126700D01*
X134293358Y-114126700D01*
X134293355Y-114126700D01*
X134138710Y-114157461D01*
X134138698Y-114157464D01*
X133993027Y-114217802D01*
X133993014Y-114217809D01*
X133861913Y-114305409D01*
X133861907Y-114305413D01*
X133750413Y-114416907D01*
X133750410Y-114416911D01*
X133662809Y-114548014D01*
X133662802Y-114548027D01*
X133602464Y-114693698D01*
X133602461Y-114693710D01*
X133571700Y-114848353D01*
X115052900Y-114848353D01*
X115052900Y-105135258D01*
X116999500Y-105135258D01*
X116999500Y-105364741D01*
X117024446Y-105554215D01*
X117029452Y-105592238D01*
X117029453Y-105592240D01*
X117088842Y-105813887D01*
X117176650Y-106025876D01*
X117176657Y-106025890D01*
X117291392Y-106224617D01*
X117431081Y-106406661D01*
X117431089Y-106406670D01*
X117593330Y-106568911D01*
X117593338Y-106568918D01*
X117775382Y-106708607D01*
X117775385Y-106708608D01*
X117775388Y-106708611D01*
X117974112Y-106823344D01*
X117974117Y-106823346D01*
X117974123Y-106823349D01*
X118065480Y-106861190D01*
X118186113Y-106911158D01*
X118407762Y-106970548D01*
X118635266Y-107000500D01*
X118635273Y-107000500D01*
X118864727Y-107000500D01*
X118864734Y-107000500D01*
X119092238Y-106970548D01*
X119313887Y-106911158D01*
X119525888Y-106823344D01*
X119724612Y-106708611D01*
X119906661Y-106568919D01*
X119906665Y-106568914D01*
X119906670Y-106568911D01*
X120068911Y-106406670D01*
X120068914Y-106406665D01*
X120068919Y-106406661D01*
X120208611Y-106224612D01*
X120323344Y-106025888D01*
X120411158Y-105813887D01*
X120470548Y-105592238D01*
X120500500Y-105364734D01*
X120500500Y-105135266D01*
X120470548Y-104907762D01*
X120411158Y-104686113D01*
X120323344Y-104474112D01*
X120208611Y-104275388D01*
X120208608Y-104275385D01*
X120208607Y-104275382D01*
X120068918Y-104093338D01*
X120068911Y-104093330D01*
X119906670Y-103931089D01*
X119906661Y-103931081D01*
X119724617Y-103791392D01*
X119525890Y-103676657D01*
X119525876Y-103676650D01*
X119313887Y-103588842D01*
X119092238Y-103529452D01*
X119054215Y-103524446D01*
X118864741Y-103499500D01*
X118864734Y-103499500D01*
X118635266Y-103499500D01*
X118635258Y-103499500D01*
X118418715Y-103528009D01*
X118407762Y-103529452D01*
X118314076Y-103554554D01*
X118186112Y-103588842D01*
X117974123Y-103676650D01*
X117974109Y-103676657D01*
X117775382Y-103791392D01*
X117593338Y-103931081D01*
X117431081Y-104093338D01*
X117291392Y-104275382D01*
X117176657Y-104474109D01*
X117176650Y-104474123D01*
X117088842Y-104686112D01*
X117029453Y-104907759D01*
X117029451Y-104907770D01*
X116999500Y-105135258D01*
X115052900Y-105135258D01*
X115052900Y-101385258D01*
X117249500Y-101385258D01*
X117249500Y-101614741D01*
X117272105Y-101786433D01*
X117279452Y-101842238D01*
X117279453Y-101842240D01*
X117338842Y-102063887D01*
X117426650Y-102275876D01*
X117426657Y-102275890D01*
X117541392Y-102474617D01*
X117681081Y-102656661D01*
X117681089Y-102656670D01*
X117843330Y-102818911D01*
X117843338Y-102818918D01*
X118025382Y-102958607D01*
X118025385Y-102958608D01*
X118025388Y-102958611D01*
X118224112Y-103073344D01*
X118224117Y-103073346D01*
X118224123Y-103073349D01*
X118315480Y-103111190D01*
X118436113Y-103161158D01*
X118657762Y-103220548D01*
X118885266Y-103250500D01*
X118885273Y-103250500D01*
X119114727Y-103250500D01*
X119114734Y-103250500D01*
X119342238Y-103220548D01*
X119563887Y-103161158D01*
X119775888Y-103073344D01*
X119974612Y-102958611D01*
X120156661Y-102818919D01*
X120156665Y-102818914D01*
X120156670Y-102818911D01*
X120318911Y-102656670D01*
X120318914Y-102656665D01*
X120318919Y-102656661D01*
X120458611Y-102474612D01*
X120573344Y-102275888D01*
X120661158Y-102063887D01*
X120720548Y-101842238D01*
X120750500Y-101614734D01*
X120750500Y-101385266D01*
X120720548Y-101157762D01*
X120661158Y-100936113D01*
X120573344Y-100724112D01*
X120458611Y-100525388D01*
X120458608Y-100525385D01*
X120458607Y-100525382D01*
X120318918Y-100343338D01*
X120318911Y-100343330D01*
X120156670Y-100181089D01*
X120156661Y-100181081D01*
X119974617Y-100041392D01*
X119775890Y-99926657D01*
X119775876Y-99926650D01*
X119563887Y-99838842D01*
X119342238Y-99779452D01*
X119304215Y-99774446D01*
X119114741Y-99749500D01*
X119114734Y-99749500D01*
X118885266Y-99749500D01*
X118885258Y-99749500D01*
X118668715Y-99778009D01*
X118657762Y-99779452D01*
X118564076Y-99804554D01*
X118436112Y-99838842D01*
X118224123Y-99926650D01*
X118224109Y-99926657D01*
X118025382Y-100041392D01*
X117843338Y-100181081D01*
X117681081Y-100343338D01*
X117541392Y-100525382D01*
X117426657Y-100724109D01*
X117426650Y-100724123D01*
X117338842Y-100936112D01*
X117338842Y-100936113D01*
X117290082Y-101118092D01*
X117279453Y-101157759D01*
X117279451Y-101157770D01*
X117249500Y-101385258D01*
X115052900Y-101385258D01*
X115052900Y-98021153D01*
X119761500Y-98021153D01*
X119761500Y-98178846D01*
X119792261Y-98333489D01*
X119792264Y-98333501D01*
X119852602Y-98479172D01*
X119852609Y-98479185D01*
X119940210Y-98610288D01*
X119940213Y-98610292D01*
X120051707Y-98721786D01*
X120051711Y-98721789D01*
X120182814Y-98809390D01*
X120182827Y-98809397D01*
X120324575Y-98868110D01*
X120328503Y-98869737D01*
X120483153Y-98900499D01*
X120483156Y-98900500D01*
X120483158Y-98900500D01*
X120640844Y-98900500D01*
X120640845Y-98900499D01*
X120795497Y-98869737D01*
X120941179Y-98809394D01*
X121072289Y-98721789D01*
X121183789Y-98610289D01*
X121271394Y-98479179D01*
X121331737Y-98333497D01*
X121362500Y-98178842D01*
X121362500Y-98021158D01*
X121362500Y-98021155D01*
X121362499Y-98021153D01*
X121331737Y-97866503D01*
X121323908Y-97847602D01*
X121271397Y-97720827D01*
X121271390Y-97720814D01*
X121183789Y-97589711D01*
X121183786Y-97589707D01*
X121072292Y-97478213D01*
X121072288Y-97478210D01*
X120941185Y-97390609D01*
X120941172Y-97390602D01*
X120795501Y-97330264D01*
X120795489Y-97330261D01*
X120640845Y-97299500D01*
X120640842Y-97299500D01*
X120483158Y-97299500D01*
X120483155Y-97299500D01*
X120328510Y-97330261D01*
X120328498Y-97330264D01*
X120182827Y-97390602D01*
X120182814Y-97390609D01*
X120051711Y-97478210D01*
X120051707Y-97478213D01*
X119940213Y-97589707D01*
X119940210Y-97589711D01*
X119852609Y-97720814D01*
X119852602Y-97720827D01*
X119792264Y-97866498D01*
X119792261Y-97866510D01*
X119761500Y-98021153D01*
X115052900Y-98021153D01*
X115052900Y-95099584D01*
X115072585Y-95032545D01*
X115125389Y-94986790D01*
X115194547Y-94976846D01*
X115245791Y-94996482D01*
X115328714Y-95051890D01*
X115328727Y-95051897D01*
X115474398Y-95112235D01*
X115474403Y-95112237D01*
X115629053Y-95142999D01*
X115629056Y-95143000D01*
X115629058Y-95143000D01*
X115786744Y-95143000D01*
X115786745Y-95142999D01*
X115941397Y-95112237D01*
X116087079Y-95051894D01*
X116218189Y-94964289D01*
X116329689Y-94852789D01*
X116417294Y-94721679D01*
X116477637Y-94575997D01*
X116508400Y-94421342D01*
X116508400Y-94263658D01*
X116508400Y-94263655D01*
X116508399Y-94263653D01*
X116502401Y-94233501D01*
X116477637Y-94109003D01*
X116453076Y-94049707D01*
X116417297Y-93963327D01*
X116417290Y-93963314D01*
X116329689Y-93832211D01*
X116329686Y-93832207D01*
X116218192Y-93720713D01*
X116218188Y-93720710D01*
X116087085Y-93633109D01*
X116087072Y-93633102D01*
X115941401Y-93572764D01*
X115941389Y-93572761D01*
X115786745Y-93542000D01*
X115786742Y-93542000D01*
X115629058Y-93542000D01*
X115629055Y-93542000D01*
X115474410Y-93572761D01*
X115474398Y-93572764D01*
X115328727Y-93633102D01*
X115328714Y-93633109D01*
X115197025Y-93721102D01*
X115130347Y-93741980D01*
X115128134Y-93742000D01*
X114752498Y-93742000D01*
X114719562Y-93732631D01*
X114715967Y-93732741D01*
X114710427Y-93730032D01*
X114687232Y-93723434D01*
X114674995Y-93715859D01*
X114665316Y-93706180D01*
X114578504Y-93656060D01*
X114528385Y-93627123D01*
X114375657Y-93586199D01*
X114217543Y-93586199D01*
X114209947Y-93586199D01*
X114209931Y-93586200D01*
X113772266Y-93586200D01*
X113705227Y-93566515D01*
X113703375Y-93565302D01*
X113571685Y-93477309D01*
X113571672Y-93477302D01*
X113426001Y-93416964D01*
X113425989Y-93416961D01*
X113271345Y-93386200D01*
X113271342Y-93386200D01*
X113113658Y-93386200D01*
X113113655Y-93386200D01*
X112959010Y-93416961D01*
X112958998Y-93416964D01*
X112813327Y-93477302D01*
X112813314Y-93477309D01*
X112682211Y-93564910D01*
X112682207Y-93564913D01*
X112570713Y-93676407D01*
X112570710Y-93676411D01*
X112483109Y-93807514D01*
X112483102Y-93807527D01*
X112422764Y-93953198D01*
X112422761Y-93953210D01*
X112392000Y-94107853D01*
X100044729Y-94107853D01*
X100050500Y-94078842D01*
X100050500Y-93921158D01*
X100050500Y-93921155D01*
X100050499Y-93921153D01*
X100019737Y-93766503D01*
X100009500Y-93741789D01*
X99959397Y-93620827D01*
X99959390Y-93620814D01*
X99871789Y-93489711D01*
X99871786Y-93489707D01*
X99760292Y-93378213D01*
X99760288Y-93378210D01*
X99629185Y-93290609D01*
X99629172Y-93290602D01*
X99483501Y-93230264D01*
X99483489Y-93230261D01*
X99328845Y-93199500D01*
X99328842Y-93199500D01*
X99171158Y-93199500D01*
X99171155Y-93199500D01*
X99016510Y-93230261D01*
X99016498Y-93230264D01*
X98870827Y-93290602D01*
X98870814Y-93290609D01*
X98739711Y-93378210D01*
X98739707Y-93378213D01*
X98628213Y-93489707D01*
X98628210Y-93489711D01*
X98540609Y-93620814D01*
X98540602Y-93620827D01*
X98480264Y-93766498D01*
X98480261Y-93766510D01*
X98449500Y-93921153D01*
X89500500Y-93921153D01*
X89500500Y-88525443D01*
X89520185Y-88458404D01*
X89572989Y-88412649D01*
X89642147Y-88402705D01*
X89705703Y-88431730D01*
X89712181Y-88437762D01*
X89843330Y-88568911D01*
X89843338Y-88568918D01*
X90025382Y-88708607D01*
X90025385Y-88708608D01*
X90025388Y-88708611D01*
X90224112Y-88823344D01*
X90224117Y-88823346D01*
X90224123Y-88823349D01*
X90306598Y-88857511D01*
X90436113Y-88911158D01*
X90625768Y-88961975D01*
X90685427Y-88998339D01*
X90715956Y-89061185D01*
X90707662Y-89130561D01*
X90681355Y-89169430D01*
X90558248Y-89292537D01*
X90448814Y-89456315D01*
X90448807Y-89456328D01*
X90373430Y-89638307D01*
X90373430Y-89638309D01*
X90365138Y-89680000D01*
X91168012Y-89680000D01*
X91150795Y-89689940D01*
X91094940Y-89745795D01*
X91055444Y-89814204D01*
X91035000Y-89890504D01*
X91035000Y-89969496D01*
X91055444Y-90045796D01*
X91094940Y-90114205D01*
X91150795Y-90170060D01*
X91168012Y-90180000D01*
X90365138Y-90180000D01*
X90373430Y-90221690D01*
X90373430Y-90221692D01*
X90448807Y-90403671D01*
X90448814Y-90403684D01*
X90558248Y-90567462D01*
X90558251Y-90567466D01*
X90697533Y-90706748D01*
X90697537Y-90706751D01*
X90861315Y-90816185D01*
X90861328Y-90816192D01*
X91043306Y-90891569D01*
X91043318Y-90891572D01*
X91236504Y-90929999D01*
X91236508Y-90930000D01*
X91485000Y-90930000D01*
X91485000Y-90230000D01*
X91985000Y-90230000D01*
X91985000Y-90930000D01*
X92233492Y-90930000D01*
X92233495Y-90929999D01*
X92426681Y-90891572D01*
X92426693Y-90891569D01*
X92608671Y-90816192D01*
X92608684Y-90816185D01*
X92772462Y-90706751D01*
X92772466Y-90706748D01*
X92911748Y-90567466D01*
X92911751Y-90567462D01*
X93021185Y-90403684D01*
X93021192Y-90403671D01*
X93096569Y-90221692D01*
X93096569Y-90221690D01*
X93104862Y-90180000D01*
X92301988Y-90180000D01*
X92319205Y-90170060D01*
X92375060Y-90114205D01*
X92414556Y-90045796D01*
X92435000Y-89969496D01*
X92435000Y-89890504D01*
X92414556Y-89814204D01*
X92375060Y-89745795D01*
X92319205Y-89689940D01*
X92301988Y-89680000D01*
X93104862Y-89680000D01*
X93096569Y-89638309D01*
X93096569Y-89638307D01*
X93021192Y-89456328D01*
X93021185Y-89456315D01*
X92911751Y-89292537D01*
X92911748Y-89292533D01*
X92772466Y-89153251D01*
X92772462Y-89153248D01*
X92608684Y-89043814D01*
X92608671Y-89043807D01*
X92426693Y-88968430D01*
X92426681Y-88968427D01*
X92233495Y-88930000D01*
X92051385Y-88930000D01*
X91984346Y-88910315D01*
X91938591Y-88857511D01*
X91928647Y-88788353D01*
X91957672Y-88724797D01*
X91975898Y-88707625D01*
X92055607Y-88646460D01*
X92156661Y-88568919D01*
X92156665Y-88568914D01*
X92156670Y-88568911D01*
X92318911Y-88406670D01*
X92318914Y-88406665D01*
X92318919Y-88406661D01*
X92458611Y-88224612D01*
X92573344Y-88025888D01*
X92661158Y-87813887D01*
X92680226Y-87742723D01*
X92716590Y-87683064D01*
X92779436Y-87652535D01*
X92848812Y-87660829D01*
X92902690Y-87705315D01*
X92919773Y-87742721D01*
X92935255Y-87800499D01*
X92938842Y-87813887D01*
X93026650Y-88025876D01*
X93026657Y-88025890D01*
X93141392Y-88224617D01*
X93281081Y-88406661D01*
X93281089Y-88406670D01*
X93443330Y-88568911D01*
X93443338Y-88568918D01*
X93625382Y-88708607D01*
X93625385Y-88708608D01*
X93625388Y-88708611D01*
X93824112Y-88823344D01*
X93824117Y-88823346D01*
X93824123Y-88823349D01*
X93906598Y-88857511D01*
X94036113Y-88911158D01*
X94257762Y-88970548D01*
X94485266Y-89000500D01*
X94485273Y-89000500D01*
X94550923Y-89000500D01*
X94617962Y-89020185D01*
X94663717Y-89072989D01*
X94673661Y-89142147D01*
X94644636Y-89205703D01*
X94638604Y-89212181D01*
X94558251Y-89292533D01*
X94558248Y-89292537D01*
X94448814Y-89456315D01*
X94448807Y-89456328D01*
X94373430Y-89638307D01*
X94373430Y-89638309D01*
X94365138Y-89680000D01*
X95168012Y-89680000D01*
X95150795Y-89689940D01*
X95094940Y-89745795D01*
X95055444Y-89814204D01*
X95035000Y-89890504D01*
X95035000Y-89969496D01*
X95055444Y-90045796D01*
X95094940Y-90114205D01*
X95150795Y-90170060D01*
X95168012Y-90180000D01*
X94365138Y-90180000D01*
X94373430Y-90221690D01*
X94373430Y-90221692D01*
X94448807Y-90403671D01*
X94448814Y-90403684D01*
X94558248Y-90567462D01*
X94558251Y-90567466D01*
X94697533Y-90706748D01*
X94697537Y-90706751D01*
X94861315Y-90816185D01*
X94861328Y-90816192D01*
X95043306Y-90891569D01*
X95043318Y-90891572D01*
X95236504Y-90929999D01*
X95236508Y-90930000D01*
X95635000Y-90930000D01*
X95635000Y-90230000D01*
X96135000Y-90230000D01*
X96135000Y-90930000D01*
X96533492Y-90930000D01*
X96533495Y-90929999D01*
X96726681Y-90891572D01*
X96726693Y-90891569D01*
X96908671Y-90816192D01*
X96908684Y-90816185D01*
X97072462Y-90706751D01*
X97072466Y-90706748D01*
X97211748Y-90567466D01*
X97211751Y-90567462D01*
X97321185Y-90403684D01*
X97321192Y-90403671D01*
X97396569Y-90221692D01*
X97396569Y-90221690D01*
X97404862Y-90180000D01*
X96601988Y-90180000D01*
X96619205Y-90170060D01*
X96675060Y-90114205D01*
X96714556Y-90045796D01*
X96735000Y-89969496D01*
X96735000Y-89890504D01*
X96714556Y-89814204D01*
X96675060Y-89745795D01*
X96619205Y-89689940D01*
X96601988Y-89680000D01*
X97404862Y-89680000D01*
X97396569Y-89638309D01*
X97396569Y-89638307D01*
X97321192Y-89456328D01*
X97321185Y-89456315D01*
X97211751Y-89292537D01*
X97211748Y-89292533D01*
X97072466Y-89153251D01*
X97072462Y-89153248D01*
X96908684Y-89043814D01*
X96908671Y-89043807D01*
X96726693Y-88968430D01*
X96726681Y-88968427D01*
X96678891Y-88958921D01*
X107099501Y-88958921D01*
X107128342Y-89103907D01*
X107128345Y-89103917D01*
X107184914Y-89240488D01*
X107184921Y-89240501D01*
X107267050Y-89363415D01*
X107267053Y-89363419D01*
X107371582Y-89467948D01*
X107371586Y-89467951D01*
X107494500Y-89550080D01*
X107494513Y-89550087D01*
X107631084Y-89606656D01*
X107631089Y-89606658D01*
X107631093Y-89606658D01*
X107631094Y-89606659D01*
X107776080Y-89635500D01*
X107776083Y-89635500D01*
X107923921Y-89635500D01*
X108064364Y-89607563D01*
X108133955Y-89613790D01*
X108189133Y-89656652D01*
X108212378Y-89722542D01*
X108204255Y-89770002D01*
X108205111Y-89770262D01*
X108203341Y-89776094D01*
X108174501Y-89921080D01*
X108174501Y-89921083D01*
X108174501Y-90068919D01*
X108174501Y-90068921D01*
X108174500Y-90068921D01*
X108203341Y-90213907D01*
X108203344Y-90213917D01*
X108259913Y-90350488D01*
X108259920Y-90350501D01*
X108342049Y-90473415D01*
X108342052Y-90473419D01*
X108446581Y-90577948D01*
X108446585Y-90577951D01*
X108478682Y-90599398D01*
X108523487Y-90653010D01*
X108532194Y-90722335D01*
X108502039Y-90785363D01*
X108478681Y-90805603D01*
X108456390Y-90820497D01*
X108389712Y-90841374D01*
X108322332Y-90822889D01*
X108318609Y-90820496D01*
X108205501Y-90744919D01*
X108205488Y-90744912D01*
X108068917Y-90688343D01*
X108068907Y-90688340D01*
X107923921Y-90659500D01*
X107923919Y-90659500D01*
X107776083Y-90659500D01*
X107776081Y-90659500D01*
X107631094Y-90688340D01*
X107631084Y-90688343D01*
X107494513Y-90744912D01*
X107494500Y-90744919D01*
X107371586Y-90827048D01*
X107371582Y-90827051D01*
X107267053Y-90931580D01*
X107267050Y-90931584D01*
X107184921Y-91054498D01*
X107184914Y-91054511D01*
X107128345Y-91191082D01*
X107128342Y-91191092D01*
X107099502Y-91336078D01*
X107099502Y-91336081D01*
X107099502Y-91483917D01*
X107099502Y-91483919D01*
X107099501Y-91483919D01*
X107128342Y-91628905D01*
X107128345Y-91628915D01*
X107184914Y-91765486D01*
X107184921Y-91765499D01*
X107267050Y-91888413D01*
X107267053Y-91888417D01*
X107371582Y-91992946D01*
X107371586Y-91992949D01*
X107494500Y-92075078D01*
X107494513Y-92075085D01*
X107631084Y-92131654D01*
X107631089Y-92131656D01*
X107631093Y-92131656D01*
X107631094Y-92131657D01*
X107776080Y-92160498D01*
X107776083Y-92160498D01*
X107923921Y-92160498D01*
X108021462Y-92141094D01*
X108068913Y-92131656D01*
X108205495Y-92075082D01*
X108318612Y-91999499D01*
X108385286Y-91978623D01*
X108452666Y-91997107D01*
X108456391Y-91999501D01*
X108569499Y-92075078D01*
X108569512Y-92075085D01*
X108706083Y-92131654D01*
X108706088Y-92131656D01*
X108706092Y-92131656D01*
X108706093Y-92131657D01*
X108851079Y-92160498D01*
X108851082Y-92160498D01*
X108998920Y-92160498D01*
X109096461Y-92141094D01*
X109143912Y-92131656D01*
X109280494Y-92075082D01*
X109393611Y-91999499D01*
X109460285Y-91978623D01*
X109527665Y-91997107D01*
X109531390Y-91999501D01*
X109644498Y-92075078D01*
X109644511Y-92075085D01*
X109781082Y-92131654D01*
X109781087Y-92131656D01*
X109781091Y-92131656D01*
X109781092Y-92131657D01*
X109926078Y-92160498D01*
X109926081Y-92160498D01*
X110073919Y-92160498D01*
X110171460Y-92141094D01*
X110218911Y-92131656D01*
X110355493Y-92075082D01*
X110478414Y-91992949D01*
X110582949Y-91888414D01*
X110665082Y-91765493D01*
X110721656Y-91628911D01*
X110750498Y-91483917D01*
X110750498Y-91336081D01*
X110750498Y-91336078D01*
X110721657Y-91191092D01*
X110721656Y-91191091D01*
X110721656Y-91191087D01*
X110721654Y-91191082D01*
X110665085Y-91054511D01*
X110665078Y-91054498D01*
X110582949Y-90931584D01*
X110582946Y-90931580D01*
X110478417Y-90827051D01*
X110478413Y-90827048D01*
X110355499Y-90744919D01*
X110355486Y-90744912D01*
X110218915Y-90688343D01*
X110218905Y-90688340D01*
X110073919Y-90659500D01*
X110073917Y-90659500D01*
X109926081Y-90659500D01*
X109926079Y-90659500D01*
X109781092Y-90688340D01*
X109781082Y-90688343D01*
X109644511Y-90744912D01*
X109644493Y-90744922D01*
X109531389Y-90820496D01*
X109464712Y-90841374D01*
X109397332Y-90822889D01*
X109393609Y-90820497D01*
X109387166Y-90816192D01*
X109371317Y-90805601D01*
X109326513Y-90751991D01*
X109317804Y-90682666D01*
X109347958Y-90619639D01*
X109371317Y-90599398D01*
X109403415Y-90577951D01*
X109507950Y-90473416D01*
X109590083Y-90350495D01*
X109646657Y-90213913D01*
X109675499Y-90068919D01*
X109675499Y-89921083D01*
X109675499Y-89921080D01*
X109646658Y-89776094D01*
X109646657Y-89776093D01*
X109646657Y-89776089D01*
X109646655Y-89776084D01*
X109644889Y-89770262D01*
X109646156Y-89769877D01*
X109639413Y-89707166D01*
X109670686Y-89644686D01*
X109730774Y-89609032D01*
X109785635Y-89607563D01*
X109926078Y-89635500D01*
X109926081Y-89635500D01*
X110073919Y-89635500D01*
X110214361Y-89607563D01*
X110218911Y-89606658D01*
X110355493Y-89550084D01*
X110478414Y-89467951D01*
X110582949Y-89363416D01*
X110665082Y-89240495D01*
X110721656Y-89103913D01*
X110748185Y-88970548D01*
X110750498Y-88958921D01*
X110750498Y-88811080D01*
X110721657Y-88666094D01*
X110721656Y-88666093D01*
X110721656Y-88666089D01*
X110681404Y-88568911D01*
X110665085Y-88529513D01*
X110665078Y-88529500D01*
X110582949Y-88406586D01*
X110582946Y-88406582D01*
X110478417Y-88302053D01*
X110478413Y-88302050D01*
X110355499Y-88219921D01*
X110355486Y-88219914D01*
X110218915Y-88163345D01*
X110218905Y-88163342D01*
X110073919Y-88134502D01*
X110073917Y-88134502D01*
X109926081Y-88134502D01*
X109926079Y-88134502D01*
X109785634Y-88162439D01*
X109716042Y-88156212D01*
X109660865Y-88113349D01*
X109637620Y-88047460D01*
X109645748Y-87999999D01*
X109644889Y-87999739D01*
X109646653Y-87993919D01*
X109646657Y-87993912D01*
X109657334Y-87940235D01*
X109675499Y-87848920D01*
X109675499Y-87701079D01*
X109646658Y-87556093D01*
X109646657Y-87556092D01*
X109646657Y-87556088D01*
X109644002Y-87549679D01*
X109590086Y-87419512D01*
X109590079Y-87419499D01*
X109507950Y-87296585D01*
X109507947Y-87296581D01*
X109403418Y-87192052D01*
X109403414Y-87192049D01*
X109280500Y-87109920D01*
X109280487Y-87109913D01*
X109143916Y-87053344D01*
X109143906Y-87053341D01*
X108998920Y-87024501D01*
X108998918Y-87024501D01*
X108851082Y-87024501D01*
X108851080Y-87024501D01*
X108706093Y-87053341D01*
X108706083Y-87053344D01*
X108569512Y-87109913D01*
X108569499Y-87109920D01*
X108446585Y-87192049D01*
X108446581Y-87192052D01*
X108342052Y-87296581D01*
X108342049Y-87296585D01*
X108259920Y-87419499D01*
X108259913Y-87419512D01*
X108203344Y-87556083D01*
X108203341Y-87556093D01*
X108174501Y-87701079D01*
X108174501Y-87701082D01*
X108174501Y-87848918D01*
X108174501Y-87848920D01*
X108174500Y-87848920D01*
X108203341Y-87993906D01*
X108205111Y-87999739D01*
X108203845Y-88000122D01*
X108210586Y-88062844D01*
X108179308Y-88125322D01*
X108119217Y-88160972D01*
X108064365Y-88162439D01*
X107923921Y-88134502D01*
X107923919Y-88134502D01*
X107776083Y-88134502D01*
X107776081Y-88134502D01*
X107631094Y-88163342D01*
X107631084Y-88163345D01*
X107494513Y-88219914D01*
X107494500Y-88219921D01*
X107371586Y-88302050D01*
X107371582Y-88302053D01*
X107267053Y-88406582D01*
X107267050Y-88406586D01*
X107184921Y-88529500D01*
X107184914Y-88529513D01*
X107128345Y-88666084D01*
X107128342Y-88666094D01*
X107099502Y-88811080D01*
X107099502Y-88811083D01*
X107099502Y-88958919D01*
X107099502Y-88958921D01*
X107099501Y-88958921D01*
X96678891Y-88958921D01*
X96533495Y-88930000D01*
X96135000Y-88930000D01*
X96135000Y-89630000D01*
X95635000Y-89630000D01*
X95635000Y-88943580D01*
X95588928Y-88911660D01*
X95584346Y-88910315D01*
X95538591Y-88857511D01*
X95528647Y-88788353D01*
X95530724Y-88783803D01*
X95530648Y-88783097D01*
X95535325Y-88773729D01*
X95557672Y-88724797D01*
X95561610Y-88721085D01*
X95561860Y-88720587D01*
X95562620Y-88720134D01*
X95575900Y-88707623D01*
X95577215Y-88706614D01*
X95577216Y-88706613D01*
X95630034Y-88666084D01*
X95756661Y-88568919D01*
X95756665Y-88568914D01*
X95756670Y-88568911D01*
X95918911Y-88406670D01*
X95918914Y-88406665D01*
X95918919Y-88406661D01*
X96058611Y-88224612D01*
X96173344Y-88025888D01*
X96261158Y-87813887D01*
X96320548Y-87592238D01*
X96350500Y-87364734D01*
X96350500Y-87135266D01*
X96320548Y-86907762D01*
X96261158Y-86686113D01*
X96203343Y-86546535D01*
X96173349Y-86474123D01*
X96173346Y-86474117D01*
X96173344Y-86474112D01*
X96058611Y-86275388D01*
X96058608Y-86275385D01*
X96058607Y-86275382D01*
X95918918Y-86093338D01*
X95918911Y-86093330D01*
X95756670Y-85931089D01*
X95756661Y-85931081D01*
X95574617Y-85791392D01*
X95471551Y-85731887D01*
X95423335Y-85681320D01*
X95410113Y-85612713D01*
X95436081Y-85547848D01*
X95492995Y-85507320D01*
X95533551Y-85500500D01*
X101556059Y-85500500D01*
X101623098Y-85520185D01*
G37*
%TD.AperFunction*%
%TD*%
M02*
