M48
; DRILL file KiCad 10.0.0 date 2026-06-21T06:51:05
; FORMAT={-:-/ absolute / inch / decimal}
; #@! TF.CreationDate,2026-06-21T06:51:05+07:00
; #@! TF.GenerationSoftware,Kicad,Pcbnew,10.0.0
; #@! TF.FileFunction,Plated,1,4,PTH
FMAT,2
INCH
; #@! TA.AperFunction,Plated,PTH,ComponentDrill
T1C0.0079
; #@! TA.AperFunction,Plated,PTH,ComponentDrill
T2C0.0080
; #@! TA.AperFunction,Plated,PTH,ViaDrill
T3C0.0118
; #@! TA.AperFunction,Plated,PTH,ComponentDrill
T4C0.0118
; #@! TA.AperFunction,Plated,PTH,ComponentDrill
T5C0.0236
; #@! TA.AperFunction,Plated,PTH,ComponentDrill
T6C0.0276
; #@! TA.AperFunction,Plated,PTH,ComponentDrill
T7C0.0433
; #@! TA.AperFunction,Plated,PTH,ComponentDrill
T8C0.0472
%
G90
G05
T1
X6.0697Y-4.5736
X6.0697Y-4.6209
X6.0697Y-4.6681
X6.0697Y-4.7154
X6.1169Y-4.5736
X6.1169Y-4.6209
X6.1169Y-4.6681
X6.1169Y-4.7154
X6.1642Y-4.5736
X6.1642Y-4.6209
X6.1642Y-4.6681
X6.1642Y-4.7154
X6.2114Y-4.5736
X6.2114Y-4.6209
X6.2114Y-4.6681
X6.2114Y-4.7154
T2
X4.2461Y-3.4994
X4.2461Y-3.5988
X4.2884Y-3.4557
X4.2884Y-3.4994
X4.2884Y-3.5431
X4.2884Y-3.5988
X4.3307Y-3.4994
X4.3307Y-3.5988
T3
X3.6943Y-3.9577
X3.6982Y-5.2657
X3.7482Y-5.2572
X3.8484Y-5.187
X3.8539Y-3.9125
X3.8808Y-3.9289
X3.8976Y-3.4123
X3.8976Y-3.7795
X3.9075Y-3.7008
X3.9272Y-5.2854
X3.9284Y-5.3556
X4.0251Y-3.3957
X4.0268Y-4.0549
X4.0418Y-3.4402
X4.0549Y-4.4783
X4.0551Y-3.5988
X4.0699Y-4.8376
X4.0787Y-3.8622
X4.1091Y-5.2488
X4.1321Y-5.109
X4.1452Y-5.3442
X4.1835Y-4.3331
X4.1883Y-3.4319
X4.1896Y-5.0282
X4.2126Y-4.8622
X4.2217Y-4.0807
X4.228Y-3.4016
X4.2514Y-5.3943
X4.3376Y-5.0157
X4.3504Y-4.8917
X4.364Y-5.3112
X4.3795Y-5.1572
X4.439Y-3.3957
X4.4564Y-3.7081
X4.4567Y-4.9466
X4.4587Y-3.5728
X4.4596Y-5.0187
X4.4783Y-5.0898
X4.4801Y-3.8627
X4.498Y-5.2756
X4.498Y-5.3248
X4.498Y-5.4331
X4.5554Y-4.9541
X4.5554Y-3.7143
X4.5969Y-4.4877
X4.6114Y-4.3472
X4.6386Y-5.2953
X4.6598Y-5.4092
X4.7465Y-3.8622
X4.8283Y-3.7228
X4.8673Y-5.4192
X4.8756Y-3.7008
X4.8756Y-3.7323
X4.8776Y-3.7913
X4.9493Y-5.1659
X4.9778Y-5.2042
X4.999Y-4.4855
X5.061Y-3.8802
X5.0955Y-5.3346
X5.1791Y-5.3961
X5.2197Y-4.8548
X5.2699Y-5.278
X5.2902Y-4.5247
X5.3142Y-5.4232
X5.3445Y-4.2088
X5.4617Y-5.1003
X5.8465Y-4.5846
X5.8563Y-4.5374
X5.9426Y-4.4242
X5.9449Y-4.4715
X6.0039Y-4.3602
X6.122Y-4.4685
X6.251Y-5.0311
X6.263Y-4.5286
X6.281Y-4.8521
X6.3248Y-4.4587
X6.3248Y-4.5984
X6.326Y-4.6555
X6.3769Y-4.6702
X6.378Y-4.4882
X6.3823Y-4.9389
T4
X6.372Y-5.3248
T5
X4.5236Y-3.4055
X4.6654Y-3.4055
X4.8071Y-3.4055
X4.9488Y-3.4055
X5.0906Y-3.4055
T6
X3.7756Y-5.4528
X3.9213Y-5.4528
X4.0906Y-5.4528
X4.2362Y-5.4528
T7
X3.8091Y-4.3209
X3.8091Y-4.5768
X3.9862Y-4.3209
X3.9862Y-4.5768
X5.4232Y-3.7205
X5.4232Y-3.9764
X5.6004Y-3.7205
X5.6004Y-3.9764
T8
X3.5827Y-3.435
X3.7244Y-3.435
X3.9567Y-5.0394
X4.3799Y-4.7638
X4.6575Y-4.7303
X4.6752Y-4.1437
X4.685Y-3.9961
X4.8425Y-4.7146
X5.0295Y-4.6457
X5.4134Y-4.9016
X5.5315Y-5.3346
X5.8071Y-4.872
X5.9252Y-5.0197
X5.9646Y-4.8228
T5
G00X3.6274Y-3.5406
M15
G01X3.5959Y-3.5406
M16
G05
G00X3.6274Y-3.8807
M15
G01X3.5959Y-3.8807
M16
G05
G00X3.6274Y-5.0071
M15
G01X3.5959Y-5.0071
M16
G05
G00X3.6274Y-5.3472
M15
G01X3.5959Y-5.3472
M16
G05
G00X3.7967Y-3.5406
M15
G01X3.7533Y-3.5406
M16
G05
G00X3.7967Y-3.8807
M15
G01X3.7533Y-3.8807
M16
G05
G00X3.7967Y-5.0071
M15
G01X3.7533Y-5.0071
M16
G05
G00X3.7967Y-5.3472
M15
G01X3.7533Y-5.3472
M16
G05
M30
