ISO-10303-21;
HEADER;
/* Generated by software containing ST-Developer
 * from STEP Tools, Inc. (www.steptools.com) 
 */

FILE_DESCRIPTION(
/* description */ (''),
/* implementation_level */ '2;1');

FILE_NAME(
/* name */ 'Battery to PCB dock.step',
/* time_stamp */ '2026-06-27T03:10:39+07:00',
/* author */ (''),
/* organization */ (''),
/* preprocessor_version */ 'ST-DEVELOPER v20.1',
/* originating_system */ 'Autodesk Translation Framework v15.8.0.0',
/* authorisation */ '');

FILE_SCHEMA (('AUTOMOTIVE_DESIGN { 1 0 10303 214 3 1 1 }'));
ENDSEC;

DATA;
#10=MECHANICAL_DESIGN_GEOMETRIC_PRESENTATION_REPRESENTATION('',(#13),#1086);
#11=SHAPE_REPRESENTATION_RELATIONSHIP('SRR','None',#1092,#12);
#12=ADVANCED_BREP_SHAPE_REPRESENTATION('',(#14),#1085);
#13=STYLED_ITEM('',(#1102),#14);
#14=MANIFOLD_SOLID_BREP('Battery to PCB',#658);
#15=FACE_BOUND('',#68,.T.);
#16=FACE_BOUND('',#88,.T.);
#17=CYLINDRICAL_SURFACE('',#662,0.8115);
#18=CYLINDRICAL_SURFACE('',#666,0.8115);
#19=CYLINDRICAL_SURFACE('',#670,0.8115);
#20=CYLINDRICAL_SURFACE('',#674,0.8115);
#21=CYLINDRICAL_SURFACE('',#685,0.500000000000025);
#22=CYLINDRICAL_SURFACE('',#688,0.500000000000007);
#23=CYLINDRICAL_SURFACE('',#691,0.500000000000009);
#24=CYLINDRICAL_SURFACE('',#694,0.500000000000025);
#25=CYLINDRICAL_SURFACE('',#709,9.);
#26=FACE_OUTER_BOUND('',#59,.T.);
#27=FACE_OUTER_BOUND('',#60,.T.);
#28=FACE_OUTER_BOUND('',#61,.T.);
#29=FACE_OUTER_BOUND('',#62,.T.);
#30=FACE_OUTER_BOUND('',#63,.T.);
#31=FACE_OUTER_BOUND('',#64,.T.);
#32=FACE_OUTER_BOUND('',#65,.T.);
#33=FACE_OUTER_BOUND('',#66,.T.);
#34=FACE_OUTER_BOUND('',#67,.T.);
#35=FACE_OUTER_BOUND('',#69,.T.);
#36=FACE_OUTER_BOUND('',#70,.T.);
#37=FACE_OUTER_BOUND('',#71,.T.);
#38=FACE_OUTER_BOUND('',#72,.T.);
#39=FACE_OUTER_BOUND('',#73,.T.);
#40=FACE_OUTER_BOUND('',#74,.T.);
#41=FACE_OUTER_BOUND('',#75,.T.);
#42=FACE_OUTER_BOUND('',#76,.T.);
#43=FACE_OUTER_BOUND('',#77,.T.);
#44=FACE_OUTER_BOUND('',#78,.T.);
#45=FACE_OUTER_BOUND('',#79,.T.);
#46=FACE_OUTER_BOUND('',#80,.T.);
#47=FACE_OUTER_BOUND('',#81,.T.);
#48=FACE_OUTER_BOUND('',#82,.T.);
#49=FACE_OUTER_BOUND('',#83,.T.);
#50=FACE_OUTER_BOUND('',#84,.T.);
#51=FACE_OUTER_BOUND('',#85,.T.);
#52=FACE_OUTER_BOUND('',#86,.T.);
#53=FACE_OUTER_BOUND('',#87,.T.);
#54=FACE_OUTER_BOUND('',#89,.T.);
#55=FACE_OUTER_BOUND('',#90,.T.);
#56=FACE_OUTER_BOUND('',#91,.T.);
#57=FACE_OUTER_BOUND('',#92,.T.);
#58=FACE_OUTER_BOUND('',#93,.T.);
#59=EDGE_LOOP('',(#415,#416,#417));
#60=EDGE_LOOP('',(#418,#419,#420,#421));
#61=EDGE_LOOP('',(#422,#423,#424));
#62=EDGE_LOOP('',(#425,#426,#427,#428));
#63=EDGE_LOOP('',(#429,#430,#431));
#64=EDGE_LOOP('',(#432,#433,#434,#435));
#65=EDGE_LOOP('',(#436,#437,#438));
#66=EDGE_LOOP('',(#439,#440,#441,#442));
#67=EDGE_LOOP('',(#443,#444,#445,#446,#447,#448,#449,#450));
#68=EDGE_LOOP('',(#451,#452,#453,#454,#455,#456,#457,#458));
#69=EDGE_LOOP('',(#459,#460,#461,#462,#463,#464,#465,#466));
#70=EDGE_LOOP('',(#467,#468,#469,#470,#471,#472,#473,#474,#475));
#71=EDGE_LOOP('',(#476,#477,#478,#479));
#72=EDGE_LOOP('',(#480,#481,#482,#483));
#73=EDGE_LOOP('',(#484,#485,#486,#487));
#74=EDGE_LOOP('',(#488,#489,#490,#491));
#75=EDGE_LOOP('',(#492,#493,#494,#495));
#76=EDGE_LOOP('',(#496,#497,#498,#499));
#77=EDGE_LOOP('',(#500,#501,#502,#503));
#78=EDGE_LOOP('',(#504,#505,#506,#507));
#79=EDGE_LOOP('',(#508,#509,#510,#511,#512,#513));
#80=EDGE_LOOP('',(#514,#515,#516,#517,#518,#519,#520,#521));
#81=EDGE_LOOP('',(#522,#523,#524,#525,#526,#527,#528));
#82=EDGE_LOOP('',(#529,#530,#531,#532));
#83=EDGE_LOOP('',(#533,#534,#535,#536));
#84=EDGE_LOOP('',(#537,#538,#539,#540,#541,#542,#543,#544));
#85=EDGE_LOOP('',(#545,#546,#547,#548));
#86=EDGE_LOOP('',(#549,#550,#551,#552));
#87=EDGE_LOOP('',(#553,#554,#555,#556));
#88=EDGE_LOOP('',(#557,#558,#559,#560,#561,#562,#563,#564));
#89=EDGE_LOOP('',(#565,#566,#567,#568));
#90=EDGE_LOOP('',(#569,#570,#571,#572,#573,#574));
#91=EDGE_LOOP('',(#575,#576,#577,#578,#579,#580,#581,#582));
#92=EDGE_LOOP('',(#583,#584,#585,#586,#587,#588,#589,#590,#591,#592,#593,
#594,#595,#596));
#93=EDGE_LOOP('',(#597,#598,#599,#600));
#94=CIRCLE('',#661,0.8115);
#95=CIRCLE('',#663,0.8115);
#96=CIRCLE('',#665,0.8115);
#97=CIRCLE('',#667,0.8115);
#98=CIRCLE('',#669,0.8115);
#99=CIRCLE('',#671,0.8115);
#100=CIRCLE('',#673,0.8115);
#101=CIRCLE('',#675,0.8115);
#102=CIRCLE('',#677,0.500000000000009);
#103=CIRCLE('',#678,0.500000000000025);
#104=CIRCLE('',#679,0.500000000000025);
#105=CIRCLE('',#680,0.500000000000007);
#106=CIRCLE('',#683,9.);
#107=CIRCLE('',#686,0.500000000000025);
#108=CIRCLE('',#689,0.500000000000007);
#109=CIRCLE('',#692,0.500000000000009);
#110=CIRCLE('',#695,0.500000000000025);
#111=CIRCLE('',#699,9.);
#112=CIRCLE('',#707,9.);
#113=CIRCLE('',#710,9.);
#114=LINE('',#898,#187);
#115=LINE('',#901,#188);
#116=LINE('',#904,#189);
#117=LINE('',#907,#190);
#118=LINE('',#911,#191);
#119=LINE('',#914,#192);
#120=LINE('',#917,#193);
#121=LINE('',#920,#194);
#122=LINE('',#924,#195);
#123=LINE('',#927,#196);
#124=LINE('',#930,#197);
#125=LINE('',#933,#198);
#126=LINE('',#937,#199);
#127=LINE('',#940,#200);
#128=LINE('',#943,#201);
#129=LINE('',#946,#202);
#130=LINE('',#948,#203);
#131=LINE('',#950,#204);
#132=LINE('',#952,#205);
#133=LINE('',#953,#206);
#134=LINE('',#956,#207);
#135=LINE('',#960,#208);
#136=LINE('',#964,#209);
#137=LINE('',#968,#210);
#138=LINE('',#971,#211);
#139=LINE('',#973,#212);
#140=LINE('',#975,#213);
#141=LINE('',#976,#214);
#142=LINE('',#979,#215);
#143=LINE('',#981,#216);
#144=LINE('',#983,#217);
#145=LINE('',#985,#218);
#146=LINE('',#988,#219);
#147=LINE('',#991,#220);
#148=LINE('',#993,#221);
#149=LINE('',#994,#222);
#150=LINE('',#998,#223);
#151=LINE('',#1001,#224);
#152=LINE('',#1002,#225);
#153=LINE('',#1006,#226);
#154=LINE('',#1009,#227);
#155=LINE('',#1010,#228);
#156=LINE('',#1014,#229);
#157=LINE('',#1017,#230);
#158=LINE('',#1018,#231);
#159=LINE('',#1023,#232);
#160=LINE('',#1024,#233);
#161=LINE('',#1027,#234);
#162=LINE('',#1029,#235);
#163=LINE('',#1031,#236);
#164=LINE('',#1033,#237);
#165=LINE('',#1034,#238);
#166=LINE('',#1037,#239);
#167=LINE('',#1040,#240);
#168=LINE('',#1043,#241);
#169=LINE('',#1044,#242);
#170=LINE('',#1047,#243);
#171=LINE('',#1049,#244);
#172=LINE('',#1050,#245);
#173=LINE('',#1053,#246);
#174=LINE('',#1055,#247);
#175=LINE('',#1057,#248);
#176=LINE('',#1059,#249);
#177=LINE('',#1061,#250);
#178=LINE('',#1062,#251);
#179=LINE('',#1064,#252);
#180=LINE('',#1066,#253);
#181=LINE('',#1067,#254);
#182=LINE('',#1069,#255);
#183=LINE('',#1073,#256);
#184=LINE('',#1075,#257);
#185=LINE('',#1079,#258);
#186=LINE('',#1081,#259);
#187=VECTOR('',#717,10.);
#188=VECTOR('',#720,10.);
#189=VECTOR('',#723,10.);
#190=VECTOR('',#726,10.);
#191=VECTOR('',#729,10.);
#192=VECTOR('',#732,10.);
#193=VECTOR('',#735,10.);
#194=VECTOR('',#738,10.);
#195=VECTOR('',#741,10.);
#196=VECTOR('',#744,10.);
#197=VECTOR('',#747,10.);
#198=VECTOR('',#750,10.);
#199=VECTOR('',#753,10.);
#200=VECTOR('',#756,10.);
#201=VECTOR('',#759,10.);
#202=VECTOR('',#762,10.);
#203=VECTOR('',#765,10.);
#204=VECTOR('',#766,10.);
#205=VECTOR('',#767,10.);
#206=VECTOR('',#768,10.);
#207=VECTOR('',#769,10.);
#208=VECTOR('',#772,10.);
#209=VECTOR('',#775,10.);
#210=VECTOR('',#778,10.);
#211=VECTOR('',#783,10.);
#212=VECTOR('',#784,10.);
#213=VECTOR('',#785,10.);
#214=VECTOR('',#786,10.);
#215=VECTOR('',#789,10.);
#216=VECTOR('',#790,10.);
#217=VECTOR('',#791,10.);
#218=VECTOR('',#792,10.);
#219=VECTOR('',#795,10.);
#220=VECTOR('',#798,10.);
#221=VECTOR('',#799,10.);
#222=VECTOR('',#800,10.);
#223=VECTOR('',#805,10.);
#224=VECTOR('',#808,10.);
#225=VECTOR('',#809,10.);
#226=VECTOR('',#814,10.);
#227=VECTOR('',#817,10.);
#228=VECTOR('',#818,10.);
#229=VECTOR('',#823,10.);
#230=VECTOR('',#826,10.);
#231=VECTOR('',#827,10.);
#232=VECTOR('',#834,10.);
#233=VECTOR('',#835,10.);
#234=VECTOR('',#838,10.);
#235=VECTOR('',#839,10.);
#236=VECTOR('',#840,10.);
#237=VECTOR('',#841,10.);
#238=VECTOR('',#842,10.);
#239=VECTOR('',#845,10.);
#240=VECTOR('',#848,10.);
#241=VECTOR('',#851,10.);
#242=VECTOR('',#852,10.);
#243=VECTOR('',#855,10.);
#244=VECTOR('',#856,10.);
#245=VECTOR('',#857,10.);
#246=VECTOR('',#860,10.);
#247=VECTOR('',#861,10.);
#248=VECTOR('',#862,10.);
#249=VECTOR('',#863,10.);
#250=VECTOR('',#864,10.);
#251=VECTOR('',#865,10.);
#252=VECTOR('',#868,10.);
#253=VECTOR('',#871,10.);
#254=VECTOR('',#872,10.);
#255=VECTOR('',#875,10.);
#256=VECTOR('',#880,10.);
#257=VECTOR('',#883,10.);
#258=VECTOR('',#888,10.);
#259=VECTOR('',#891,10.);
#260=VERTEX_POINT('',#896);
#261=VERTEX_POINT('',#897);
#262=VERTEX_POINT('',#899);
#263=VERTEX_POINT('',#903);
#264=VERTEX_POINT('',#905);
#265=VERTEX_POINT('',#909);
#266=VERTEX_POINT('',#910);
#267=VERTEX_POINT('',#912);
#268=VERTEX_POINT('',#916);
#269=VERTEX_POINT('',#918);
#270=VERTEX_POINT('',#922);
#271=VERTEX_POINT('',#923);
#272=VERTEX_POINT('',#925);
#273=VERTEX_POINT('',#929);
#274=VERTEX_POINT('',#931);
#275=VERTEX_POINT('',#935);
#276=VERTEX_POINT('',#936);
#277=VERTEX_POINT('',#938);
#278=VERTEX_POINT('',#942);
#279=VERTEX_POINT('',#944);
#280=VERTEX_POINT('',#949);
#281=VERTEX_POINT('',#951);
#282=VERTEX_POINT('',#954);
#283=VERTEX_POINT('',#955);
#284=VERTEX_POINT('',#957);
#285=VERTEX_POINT('',#959);
#286=VERTEX_POINT('',#961);
#287=VERTEX_POINT('',#963);
#288=VERTEX_POINT('',#965);
#289=VERTEX_POINT('',#967);
#290=VERTEX_POINT('',#972);
#291=VERTEX_POINT('',#974);
#292=VERTEX_POINT('',#978);
#293=VERTEX_POINT('',#980);
#294=VERTEX_POINT('',#982);
#295=VERTEX_POINT('',#984);
#296=VERTEX_POINT('',#986);
#297=VERTEX_POINT('',#990);
#298=VERTEX_POINT('',#992);
#299=VERTEX_POINT('',#996);
#300=VERTEX_POINT('',#1000);
#301=VERTEX_POINT('',#1004);
#302=VERTEX_POINT('',#1008);
#303=VERTEX_POINT('',#1012);
#304=VERTEX_POINT('',#1016);
#305=VERTEX_POINT('',#1022);
#306=VERTEX_POINT('',#1026);
#307=VERTEX_POINT('',#1028);
#308=VERTEX_POINT('',#1030);
#309=VERTEX_POINT('',#1032);
#310=VERTEX_POINT('',#1036);
#311=VERTEX_POINT('',#1038);
#312=VERTEX_POINT('',#1042);
#313=VERTEX_POINT('',#1046);
#314=VERTEX_POINT('',#1048);
#315=VERTEX_POINT('',#1052);
#316=VERTEX_POINT('',#1054);
#317=VERTEX_POINT('',#1056);
#318=VERTEX_POINT('',#1058);
#319=VERTEX_POINT('',#1060);
#320=VERTEX_POINT('',#1071);
#321=VERTEX_POINT('',#1077);
#322=EDGE_CURVE('',#260,#261,#114,.T.);
#323=EDGE_CURVE('',#262,#260,#94,.T.);
#324=EDGE_CURVE('',#261,#262,#115,.T.);
#325=EDGE_CURVE('',#263,#260,#116,.F.);
#326=EDGE_CURVE('',#264,#263,#95,.T.);
#327=EDGE_CURVE('',#262,#264,#117,.T.);
#328=EDGE_CURVE('',#265,#266,#118,.T.);
#329=EDGE_CURVE('',#267,#265,#96,.T.);
#330=EDGE_CURVE('',#266,#267,#119,.T.);
#331=EDGE_CURVE('',#268,#265,#120,.F.);
#332=EDGE_CURVE('',#269,#268,#97,.T.);
#333=EDGE_CURVE('',#267,#269,#121,.T.);
#334=EDGE_CURVE('',#270,#271,#122,.T.);
#335=EDGE_CURVE('',#272,#270,#98,.T.);
#336=EDGE_CURVE('',#271,#272,#123,.T.);
#337=EDGE_CURVE('',#273,#270,#124,.T.);
#338=EDGE_CURVE('',#274,#273,#99,.T.);
#339=EDGE_CURVE('',#272,#274,#125,.F.);
#340=EDGE_CURVE('',#275,#276,#126,.T.);
#341=EDGE_CURVE('',#277,#275,#100,.T.);
#342=EDGE_CURVE('',#276,#277,#127,.T.);
#343=EDGE_CURVE('',#278,#275,#128,.T.);
#344=EDGE_CURVE('',#279,#278,#101,.T.);
#345=EDGE_CURVE('',#277,#279,#129,.F.);
#346=EDGE_CURVE('',#273,#269,#130,.T.);
#347=EDGE_CURVE('',#271,#280,#131,.T.);
#348=EDGE_CURVE('',#280,#281,#132,.T.);
#349=EDGE_CURVE('',#281,#266,#133,.T.);
#350=EDGE_CURVE('',#282,#283,#134,.T.);
#351=EDGE_CURVE('',#283,#284,#102,.T.);
#352=EDGE_CURVE('',#284,#285,#135,.T.);
#353=EDGE_CURVE('',#285,#286,#103,.T.);
#354=EDGE_CURVE('',#286,#287,#136,.T.);
#355=EDGE_CURVE('',#287,#288,#104,.T.);
#356=EDGE_CURVE('',#288,#289,#137,.T.);
#357=EDGE_CURVE('',#289,#282,#105,.T.);
#358=EDGE_CURVE('',#278,#264,#138,.T.);
#359=EDGE_CURVE('',#276,#290,#139,.T.);
#360=EDGE_CURVE('',#291,#290,#140,.T.);
#361=EDGE_CURVE('',#291,#261,#141,.T.);
#362=EDGE_CURVE('',#292,#279,#142,.T.);
#363=EDGE_CURVE('',#293,#292,#143,.T.);
#364=EDGE_CURVE('',#294,#293,#144,.T.);
#365=EDGE_CURVE('',#295,#294,#145,.T.);
#366=EDGE_CURVE('',#296,#295,#106,.T.);
#367=EDGE_CURVE('',#290,#296,#146,.T.);
#368=EDGE_CURVE('',#297,#286,#147,.T.);
#369=EDGE_CURVE('',#298,#297,#148,.T.);
#370=EDGE_CURVE('',#298,#287,#149,.T.);
#371=EDGE_CURVE('',#299,#298,#107,.T.);
#372=EDGE_CURVE('',#299,#288,#150,.T.);
#373=EDGE_CURVE('',#300,#299,#151,.T.);
#374=EDGE_CURVE('',#300,#289,#152,.T.);
#375=EDGE_CURVE('',#301,#300,#108,.T.);
#376=EDGE_CURVE('',#301,#282,#153,.T.);
#377=EDGE_CURVE('',#302,#301,#154,.T.);
#378=EDGE_CURVE('',#302,#283,#155,.T.);
#379=EDGE_CURVE('',#303,#302,#109,.T.);
#380=EDGE_CURVE('',#303,#284,#156,.T.);
#381=EDGE_CURVE('',#304,#303,#157,.T.);
#382=EDGE_CURVE('',#304,#285,#158,.T.);
#383=EDGE_CURVE('',#297,#304,#110,.T.);
#384=EDGE_CURVE('',#263,#305,#159,.T.);
#385=EDGE_CURVE('',#305,#292,#160,.T.);
#386=EDGE_CURVE('',#268,#306,#161,.T.);
#387=EDGE_CURVE('',#306,#307,#162,.T.);
#388=EDGE_CURVE('',#307,#308,#163,.T.);
#389=EDGE_CURVE('',#308,#309,#164,.T.);
#390=EDGE_CURVE('',#309,#274,#165,.T.);
#391=EDGE_CURVE('',#310,#281,#166,.T.);
#392=EDGE_CURVE('',#311,#310,#111,.T.);
#393=EDGE_CURVE('',#306,#311,#167,.T.);
#394=EDGE_CURVE('',#280,#312,#168,.T.);
#395=EDGE_CURVE('',#312,#310,#169,.T.);
#396=EDGE_CURVE('',#313,#294,#170,.T.);
#397=EDGE_CURVE('',#314,#313,#171,.T.);
#398=EDGE_CURVE('',#295,#314,#172,.T.);
#399=EDGE_CURVE('',#293,#315,#173,.T.);
#400=EDGE_CURVE('',#315,#316,#174,.T.);
#401=EDGE_CURVE('',#316,#317,#175,.T.);
#402=EDGE_CURVE('',#317,#318,#176,.T.);
#403=EDGE_CURVE('',#318,#319,#177,.T.);
#404=EDGE_CURVE('',#319,#313,#178,.T.);
#405=EDGE_CURVE('',#305,#315,#179,.T.);
#406=EDGE_CURVE('',#308,#317,#180,.T.);
#407=EDGE_CURVE('',#318,#307,#181,.T.);
#408=EDGE_CURVE('',#316,#309,#182,.T.);
#409=EDGE_CURVE('',#314,#320,#112,.T.);
#410=EDGE_CURVE('',#320,#319,#183,.T.);
#411=EDGE_CURVE('',#320,#311,#184,.T.);
#412=EDGE_CURVE('',#312,#321,#113,.T.);
#413=EDGE_CURVE('',#321,#296,#185,.T.);
#414=EDGE_CURVE('',#321,#291,#186,.T.);
#415=ORIENTED_EDGE('',*,*,#322,.F.);
#416=ORIENTED_EDGE('',*,*,#323,.F.);
#417=ORIENTED_EDGE('',*,*,#324,.F.);
#418=ORIENTED_EDGE('',*,*,#325,.F.);
#419=ORIENTED_EDGE('',*,*,#326,.F.);
#420=ORIENTED_EDGE('',*,*,#327,.F.);
#421=ORIENTED_EDGE('',*,*,#323,.T.);
#422=ORIENTED_EDGE('',*,*,#328,.F.);
#423=ORIENTED_EDGE('',*,*,#329,.F.);
#424=ORIENTED_EDGE('',*,*,#330,.F.);
#425=ORIENTED_EDGE('',*,*,#331,.F.);
#426=ORIENTED_EDGE('',*,*,#332,.F.);
#427=ORIENTED_EDGE('',*,*,#333,.F.);
#428=ORIENTED_EDGE('',*,*,#329,.T.);
#429=ORIENTED_EDGE('',*,*,#334,.F.);
#430=ORIENTED_EDGE('',*,*,#335,.F.);
#431=ORIENTED_EDGE('',*,*,#336,.F.);
#432=ORIENTED_EDGE('',*,*,#337,.F.);
#433=ORIENTED_EDGE('',*,*,#338,.F.);
#434=ORIENTED_EDGE('',*,*,#339,.F.);
#435=ORIENTED_EDGE('',*,*,#335,.T.);
#436=ORIENTED_EDGE('',*,*,#340,.F.);
#437=ORIENTED_EDGE('',*,*,#341,.F.);
#438=ORIENTED_EDGE('',*,*,#342,.F.);
#439=ORIENTED_EDGE('',*,*,#343,.F.);
#440=ORIENTED_EDGE('',*,*,#344,.F.);
#441=ORIENTED_EDGE('',*,*,#345,.F.);
#442=ORIENTED_EDGE('',*,*,#341,.T.);
#443=ORIENTED_EDGE('',*,*,#330,.T.);
#444=ORIENTED_EDGE('',*,*,#333,.T.);
#445=ORIENTED_EDGE('',*,*,#346,.F.);
#446=ORIENTED_EDGE('',*,*,#337,.T.);
#447=ORIENTED_EDGE('',*,*,#334,.T.);
#448=ORIENTED_EDGE('',*,*,#347,.T.);
#449=ORIENTED_EDGE('',*,*,#348,.T.);
#450=ORIENTED_EDGE('',*,*,#349,.T.);
#451=ORIENTED_EDGE('',*,*,#350,.T.);
#452=ORIENTED_EDGE('',*,*,#351,.T.);
#453=ORIENTED_EDGE('',*,*,#352,.T.);
#454=ORIENTED_EDGE('',*,*,#353,.T.);
#455=ORIENTED_EDGE('',*,*,#354,.T.);
#456=ORIENTED_EDGE('',*,*,#355,.T.);
#457=ORIENTED_EDGE('',*,*,#356,.T.);
#458=ORIENTED_EDGE('',*,*,#357,.T.);
#459=ORIENTED_EDGE('',*,*,#324,.T.);
#460=ORIENTED_EDGE('',*,*,#327,.T.);
#461=ORIENTED_EDGE('',*,*,#358,.F.);
#462=ORIENTED_EDGE('',*,*,#343,.T.);
#463=ORIENTED_EDGE('',*,*,#340,.T.);
#464=ORIENTED_EDGE('',*,*,#359,.T.);
#465=ORIENTED_EDGE('',*,*,#360,.F.);
#466=ORIENTED_EDGE('',*,*,#361,.T.);
#467=ORIENTED_EDGE('',*,*,#342,.T.);
#468=ORIENTED_EDGE('',*,*,#345,.T.);
#469=ORIENTED_EDGE('',*,*,#362,.F.);
#470=ORIENTED_EDGE('',*,*,#363,.F.);
#471=ORIENTED_EDGE('',*,*,#364,.F.);
#472=ORIENTED_EDGE('',*,*,#365,.F.);
#473=ORIENTED_EDGE('',*,*,#366,.F.);
#474=ORIENTED_EDGE('',*,*,#367,.F.);
#475=ORIENTED_EDGE('',*,*,#359,.F.);
#476=ORIENTED_EDGE('',*,*,#354,.F.);
#477=ORIENTED_EDGE('',*,*,#368,.F.);
#478=ORIENTED_EDGE('',*,*,#369,.F.);
#479=ORIENTED_EDGE('',*,*,#370,.T.);
#480=ORIENTED_EDGE('',*,*,#355,.F.);
#481=ORIENTED_EDGE('',*,*,#370,.F.);
#482=ORIENTED_EDGE('',*,*,#371,.F.);
#483=ORIENTED_EDGE('',*,*,#372,.T.);
#484=ORIENTED_EDGE('',*,*,#356,.F.);
#485=ORIENTED_EDGE('',*,*,#372,.F.);
#486=ORIENTED_EDGE('',*,*,#373,.F.);
#487=ORIENTED_EDGE('',*,*,#374,.T.);
#488=ORIENTED_EDGE('',*,*,#357,.F.);
#489=ORIENTED_EDGE('',*,*,#374,.F.);
#490=ORIENTED_EDGE('',*,*,#375,.F.);
#491=ORIENTED_EDGE('',*,*,#376,.T.);
#492=ORIENTED_EDGE('',*,*,#350,.F.);
#493=ORIENTED_EDGE('',*,*,#376,.F.);
#494=ORIENTED_EDGE('',*,*,#377,.F.);
#495=ORIENTED_EDGE('',*,*,#378,.T.);
#496=ORIENTED_EDGE('',*,*,#351,.F.);
#497=ORIENTED_EDGE('',*,*,#378,.F.);
#498=ORIENTED_EDGE('',*,*,#379,.F.);
#499=ORIENTED_EDGE('',*,*,#380,.T.);
#500=ORIENTED_EDGE('',*,*,#352,.F.);
#501=ORIENTED_EDGE('',*,*,#380,.F.);
#502=ORIENTED_EDGE('',*,*,#381,.F.);
#503=ORIENTED_EDGE('',*,*,#382,.T.);
#504=ORIENTED_EDGE('',*,*,#353,.F.);
#505=ORIENTED_EDGE('',*,*,#382,.F.);
#506=ORIENTED_EDGE('',*,*,#383,.F.);
#507=ORIENTED_EDGE('',*,*,#368,.T.);
#508=ORIENTED_EDGE('',*,*,#326,.T.);
#509=ORIENTED_EDGE('',*,*,#384,.T.);
#510=ORIENTED_EDGE('',*,*,#385,.T.);
#511=ORIENTED_EDGE('',*,*,#362,.T.);
#512=ORIENTED_EDGE('',*,*,#344,.T.);
#513=ORIENTED_EDGE('',*,*,#358,.T.);
#514=ORIENTED_EDGE('',*,*,#332,.T.);
#515=ORIENTED_EDGE('',*,*,#386,.T.);
#516=ORIENTED_EDGE('',*,*,#387,.T.);
#517=ORIENTED_EDGE('',*,*,#388,.T.);
#518=ORIENTED_EDGE('',*,*,#389,.T.);
#519=ORIENTED_EDGE('',*,*,#390,.T.);
#520=ORIENTED_EDGE('',*,*,#338,.T.);
#521=ORIENTED_EDGE('',*,*,#346,.T.);
#522=ORIENTED_EDGE('',*,*,#328,.T.);
#523=ORIENTED_EDGE('',*,*,#349,.F.);
#524=ORIENTED_EDGE('',*,*,#391,.F.);
#525=ORIENTED_EDGE('',*,*,#392,.F.);
#526=ORIENTED_EDGE('',*,*,#393,.F.);
#527=ORIENTED_EDGE('',*,*,#386,.F.);
#528=ORIENTED_EDGE('',*,*,#331,.T.);
#529=ORIENTED_EDGE('',*,*,#391,.T.);
#530=ORIENTED_EDGE('',*,*,#348,.F.);
#531=ORIENTED_EDGE('',*,*,#394,.T.);
#532=ORIENTED_EDGE('',*,*,#395,.T.);
#533=ORIENTED_EDGE('',*,*,#365,.T.);
#534=ORIENTED_EDGE('',*,*,#396,.F.);
#535=ORIENTED_EDGE('',*,*,#397,.F.);
#536=ORIENTED_EDGE('',*,*,#398,.F.);
#537=ORIENTED_EDGE('',*,*,#364,.T.);
#538=ORIENTED_EDGE('',*,*,#399,.T.);
#539=ORIENTED_EDGE('',*,*,#400,.T.);
#540=ORIENTED_EDGE('',*,*,#401,.T.);
#541=ORIENTED_EDGE('',*,*,#402,.T.);
#542=ORIENTED_EDGE('',*,*,#403,.T.);
#543=ORIENTED_EDGE('',*,*,#404,.T.);
#544=ORIENTED_EDGE('',*,*,#396,.T.);
#545=ORIENTED_EDGE('',*,*,#363,.T.);
#546=ORIENTED_EDGE('',*,*,#385,.F.);
#547=ORIENTED_EDGE('',*,*,#405,.T.);
#548=ORIENTED_EDGE('',*,*,#399,.F.);
#549=ORIENTED_EDGE('',*,*,#406,.F.);
#550=ORIENTED_EDGE('',*,*,#388,.F.);
#551=ORIENTED_EDGE('',*,*,#407,.F.);
#552=ORIENTED_EDGE('',*,*,#402,.F.);
#553=ORIENTED_EDGE('',*,*,#406,.T.);
#554=ORIENTED_EDGE('',*,*,#401,.F.);
#555=ORIENTED_EDGE('',*,*,#408,.T.);
#556=ORIENTED_EDGE('',*,*,#389,.F.);
#557=ORIENTED_EDGE('',*,*,#377,.T.);
#558=ORIENTED_EDGE('',*,*,#375,.T.);
#559=ORIENTED_EDGE('',*,*,#373,.T.);
#560=ORIENTED_EDGE('',*,*,#371,.T.);
#561=ORIENTED_EDGE('',*,*,#369,.T.);
#562=ORIENTED_EDGE('',*,*,#383,.T.);
#563=ORIENTED_EDGE('',*,*,#381,.T.);
#564=ORIENTED_EDGE('',*,*,#379,.T.);
#565=ORIENTED_EDGE('',*,*,#409,.F.);
#566=ORIENTED_EDGE('',*,*,#397,.T.);
#567=ORIENTED_EDGE('',*,*,#404,.F.);
#568=ORIENTED_EDGE('',*,*,#410,.F.);
#569=ORIENTED_EDGE('',*,*,#393,.T.);
#570=ORIENTED_EDGE('',*,*,#411,.F.);
#571=ORIENTED_EDGE('',*,*,#410,.T.);
#572=ORIENTED_EDGE('',*,*,#403,.F.);
#573=ORIENTED_EDGE('',*,*,#407,.T.);
#574=ORIENTED_EDGE('',*,*,#387,.F.);
#575=ORIENTED_EDGE('',*,*,#392,.T.);
#576=ORIENTED_EDGE('',*,*,#395,.F.);
#577=ORIENTED_EDGE('',*,*,#412,.T.);
#578=ORIENTED_EDGE('',*,*,#413,.T.);
#579=ORIENTED_EDGE('',*,*,#366,.T.);
#580=ORIENTED_EDGE('',*,*,#398,.T.);
#581=ORIENTED_EDGE('',*,*,#409,.T.);
#582=ORIENTED_EDGE('',*,*,#411,.T.);
#583=ORIENTED_EDGE('',*,*,#322,.T.);
#584=ORIENTED_EDGE('',*,*,#361,.F.);
#585=ORIENTED_EDGE('',*,*,#414,.F.);
#586=ORIENTED_EDGE('',*,*,#412,.F.);
#587=ORIENTED_EDGE('',*,*,#394,.F.);
#588=ORIENTED_EDGE('',*,*,#347,.F.);
#589=ORIENTED_EDGE('',*,*,#336,.T.);
#590=ORIENTED_EDGE('',*,*,#339,.T.);
#591=ORIENTED_EDGE('',*,*,#390,.F.);
#592=ORIENTED_EDGE('',*,*,#408,.F.);
#593=ORIENTED_EDGE('',*,*,#400,.F.);
#594=ORIENTED_EDGE('',*,*,#405,.F.);
#595=ORIENTED_EDGE('',*,*,#384,.F.);
#596=ORIENTED_EDGE('',*,*,#325,.T.);
#597=ORIENTED_EDGE('',*,*,#367,.T.);
#598=ORIENTED_EDGE('',*,*,#413,.F.);
#599=ORIENTED_EDGE('',*,*,#414,.T.);
#600=ORIENTED_EDGE('',*,*,#360,.T.);
#601=PLANE('',#660);
#602=PLANE('',#664);
#603=PLANE('',#668);
#604=PLANE('',#672);
#605=PLANE('',#676);
#606=PLANE('',#681);
#607=PLANE('',#682);
#608=PLANE('',#684);
#609=PLANE('',#687);
#610=PLANE('',#690);
#611=PLANE('',#693);
#612=PLANE('',#696);
#613=PLANE('',#697);
#614=PLANE('',#698);
#615=PLANE('',#700);
#616=PLANE('',#701);
#617=PLANE('',#702);
#618=PLANE('',#703);
#619=PLANE('',#704);
#620=PLANE('',#705);
#621=PLANE('',#706);
#622=PLANE('',#708);
#623=PLANE('',#711);
#624=PLANE('',#712);
#625=ADVANCED_FACE('',(#26),#601,.T.);
#626=ADVANCED_FACE('',(#27),#17,.F.);
#627=ADVANCED_FACE('',(#28),#602,.T.);
#628=ADVANCED_FACE('',(#29),#18,.F.);
#629=ADVANCED_FACE('',(#30),#603,.T.);
#630=ADVANCED_FACE('',(#31),#19,.F.);
#631=ADVANCED_FACE('',(#32),#604,.T.);
#632=ADVANCED_FACE('',(#33),#20,.F.);
#633=ADVANCED_FACE('',(#34,#15),#605,.T.);
#634=ADVANCED_FACE('',(#35),#606,.T.);
#635=ADVANCED_FACE('',(#36),#607,.F.);
#636=ADVANCED_FACE('',(#37),#608,.F.);
#637=ADVANCED_FACE('',(#38),#21,.F.);
#638=ADVANCED_FACE('',(#39),#609,.F.);
#639=ADVANCED_FACE('',(#40),#22,.F.);
#640=ADVANCED_FACE('',(#41),#610,.F.);
#641=ADVANCED_FACE('',(#42),#23,.F.);
#642=ADVANCED_FACE('',(#43),#611,.F.);
#643=ADVANCED_FACE('',(#44),#24,.F.);
#644=ADVANCED_FACE('',(#45),#612,.T.);
#645=ADVANCED_FACE('',(#46),#613,.T.);
#646=ADVANCED_FACE('',(#47),#614,.F.);
#647=ADVANCED_FACE('',(#48),#615,.T.);
#648=ADVANCED_FACE('',(#49),#616,.T.);
#649=ADVANCED_FACE('',(#50),#617,.T.);
#650=ADVANCED_FACE('',(#51),#618,.T.);
#651=ADVANCED_FACE('',(#52),#619,.T.);
#652=ADVANCED_FACE('',(#53,#16),#620,.T.);
#653=ADVANCED_FACE('',(#54),#621,.T.);
#654=ADVANCED_FACE('',(#55),#622,.T.);
#655=ADVANCED_FACE('',(#56),#25,.F.);
#656=ADVANCED_FACE('',(#57),#623,.F.);
#657=ADVANCED_FACE('',(#58),#624,.T.);
#658=CLOSED_SHELL('',(#625,#626,#627,#628,#629,#630,#631,#632,#633,#634,
#635,#636,#637,#638,#639,#640,#641,#642,#643,#644,#645,#646,#647,#648,#649,
#650,#651,#652,#653,#654,#655,#656,#657));
#659=AXIS2_PLACEMENT_3D('',#894,#713,#714);
#660=AXIS2_PLACEMENT_3D('',#895,#715,#716);
#661=AXIS2_PLACEMENT_3D('',#900,#718,#719);
#662=AXIS2_PLACEMENT_3D('',#902,#721,#722);
#663=AXIS2_PLACEMENT_3D('',#906,#724,#725);
#664=AXIS2_PLACEMENT_3D('',#908,#727,#728);
#665=AXIS2_PLACEMENT_3D('',#913,#730,#731);
#666=AXIS2_PLACEMENT_3D('',#915,#733,#734);
#667=AXIS2_PLACEMENT_3D('',#919,#736,#737);
#668=AXIS2_PLACEMENT_3D('',#921,#739,#740);
#669=AXIS2_PLACEMENT_3D('',#926,#742,#743);
#670=AXIS2_PLACEMENT_3D('',#928,#745,#746);
#671=AXIS2_PLACEMENT_3D('',#932,#748,#749);
#672=AXIS2_PLACEMENT_3D('',#934,#751,#752);
#673=AXIS2_PLACEMENT_3D('',#939,#754,#755);
#674=AXIS2_PLACEMENT_3D('',#941,#757,#758);
#675=AXIS2_PLACEMENT_3D('',#945,#760,#761);
#676=AXIS2_PLACEMENT_3D('',#947,#763,#764);
#677=AXIS2_PLACEMENT_3D('',#958,#770,#771);
#678=AXIS2_PLACEMENT_3D('',#962,#773,#774);
#679=AXIS2_PLACEMENT_3D('',#966,#776,#777);
#680=AXIS2_PLACEMENT_3D('',#969,#779,#780);
#681=AXIS2_PLACEMENT_3D('',#970,#781,#782);
#682=AXIS2_PLACEMENT_3D('',#977,#787,#788);
#683=AXIS2_PLACEMENT_3D('',#987,#793,#794);
#684=AXIS2_PLACEMENT_3D('',#989,#796,#797);
#685=AXIS2_PLACEMENT_3D('',#995,#801,#802);
#686=AXIS2_PLACEMENT_3D('',#997,#803,#804);
#687=AXIS2_PLACEMENT_3D('',#999,#806,#807);
#688=AXIS2_PLACEMENT_3D('',#1003,#810,#811);
#689=AXIS2_PLACEMENT_3D('',#1005,#812,#813);
#690=AXIS2_PLACEMENT_3D('',#1007,#815,#816);
#691=AXIS2_PLACEMENT_3D('',#1011,#819,#820);
#692=AXIS2_PLACEMENT_3D('',#1013,#821,#822);
#693=AXIS2_PLACEMENT_3D('',#1015,#824,#825);
#694=AXIS2_PLACEMENT_3D('',#1019,#828,#829);
#695=AXIS2_PLACEMENT_3D('',#1020,#830,#831);
#696=AXIS2_PLACEMENT_3D('',#1021,#832,#833);
#697=AXIS2_PLACEMENT_3D('',#1025,#836,#837);
#698=AXIS2_PLACEMENT_3D('',#1035,#843,#844);
#699=AXIS2_PLACEMENT_3D('',#1039,#846,#847);
#700=AXIS2_PLACEMENT_3D('',#1041,#849,#850);
#701=AXIS2_PLACEMENT_3D('',#1045,#853,#854);
#702=AXIS2_PLACEMENT_3D('',#1051,#858,#859);
#703=AXIS2_PLACEMENT_3D('',#1063,#866,#867);
#704=AXIS2_PLACEMENT_3D('',#1065,#869,#870);
#705=AXIS2_PLACEMENT_3D('',#1068,#873,#874);
#706=AXIS2_PLACEMENT_3D('',#1070,#876,#877);
#707=AXIS2_PLACEMENT_3D('',#1072,#878,#879);
#708=AXIS2_PLACEMENT_3D('',#1074,#881,#882);
#709=AXIS2_PLACEMENT_3D('',#1076,#884,#885);
#710=AXIS2_PLACEMENT_3D('',#1078,#886,#887);
#711=AXIS2_PLACEMENT_3D('',#1080,#889,#890);
#712=AXIS2_PLACEMENT_3D('',#1082,#892,#893);
#713=DIRECTION('axis',(0.,0.,1.));
#714=DIRECTION('refdir',(1.,0.,0.));
#715=DIRECTION('center_axis',(0.,1.,0.));
#716=DIRECTION('ref_axis',(1.,0.,0.));
#717=DIRECTION('',(0.,0.,-1.));
#718=DIRECTION('center_axis',(0.,-1.,0.));
#719=DIRECTION('ref_axis',(1.,0.,0.));
#720=DIRECTION('',(1.,0.,0.));
#721=DIRECTION('center_axis',(0.,-1.,0.));
#722=DIRECTION('ref_axis',(1.,0.,0.));
#723=DIRECTION('',(0.,1.,0.));
#724=DIRECTION('center_axis',(0.,-1.,0.));
#725=DIRECTION('ref_axis',(1.,0.,0.));
#726=DIRECTION('',(0.,1.,0.));
#727=DIRECTION('center_axis',(0.,1.,0.));
#728=DIRECTION('ref_axis',(1.,0.,0.));
#729=DIRECTION('',(0.,0.,1.));
#730=DIRECTION('center_axis',(0.,-1.,0.));
#731=DIRECTION('ref_axis',(1.,0.,0.));
#732=DIRECTION('',(-1.,0.,0.));
#733=DIRECTION('center_axis',(0.,-1.,0.));
#734=DIRECTION('ref_axis',(1.,0.,0.));
#735=DIRECTION('',(0.,1.,0.));
#736=DIRECTION('center_axis',(0.,-1.,0.));
#737=DIRECTION('ref_axis',(1.,0.,0.));
#738=DIRECTION('',(0.,1.,0.));
#739=DIRECTION('center_axis',(0.,1.,0.));
#740=DIRECTION('ref_axis',(1.,0.,0.));
#741=DIRECTION('',(-1.,0.,0.));
#742=DIRECTION('center_axis',(0.,-1.,0.));
#743=DIRECTION('ref_axis',(1.,0.,0.));
#744=DIRECTION('',(0.,0.,-1.));
#745=DIRECTION('center_axis',(0.,-1.,0.));
#746=DIRECTION('ref_axis',(1.,0.,0.));
#747=DIRECTION('',(0.,-1.,0.));
#748=DIRECTION('center_axis',(0.,-1.,0.));
#749=DIRECTION('ref_axis',(1.,0.,0.));
#750=DIRECTION('',(0.,-1.,0.));
#751=DIRECTION('center_axis',(0.,1.,0.));
#752=DIRECTION('ref_axis',(1.,0.,0.));
#753=DIRECTION('',(1.,0.,0.));
#754=DIRECTION('center_axis',(0.,-1.,0.));
#755=DIRECTION('ref_axis',(1.,0.,0.));
#756=DIRECTION('',(0.,0.,1.));
#757=DIRECTION('center_axis',(0.,-1.,0.));
#758=DIRECTION('ref_axis',(1.,0.,0.));
#759=DIRECTION('',(0.,-1.,0.));
#760=DIRECTION('center_axis',(0.,-1.,0.));
#761=DIRECTION('ref_axis',(1.,0.,0.));
#762=DIRECTION('',(0.,-1.,0.));
#763=DIRECTION('center_axis',(0.,0.,1.));
#764=DIRECTION('ref_axis',(0.,-1.,0.));
#765=DIRECTION('',(1.,0.,0.));
#766=DIRECTION('',(0.,-1.,0.));
#767=DIRECTION('',(1.,0.,0.));
#768=DIRECTION('',(0.,1.,0.));
#769=DIRECTION('',(-4.0252562770125E-31,1.,0.));
#770=DIRECTION('center_axis',(0.,0.,-1.));
#771=DIRECTION('ref_axis',(2.2444084115564E-30,1.,-3.42721020645157E-15));
#772=DIRECTION('',(1.,-2.24514844687184E-30,0.));
#773=DIRECTION('center_axis',(0.,0.,-1.));
#774=DIRECTION('ref_axis',(1.,5.32907051820049E-14,7.72329060608622E-16));
#775=DIRECTION('',(4.0252562770125E-31,-1.,0.));
#776=DIRECTION('center_axis',(0.,0.,-1.));
#777=DIRECTION('ref_axis',(7.10542735760065E-14,-1.,3.42721020645163E-15));
#778=DIRECTION('',(-1.,-6.53072367426568E-16,0.));
#779=DIRECTION('center_axis',(0.,0.,-1.));
#780=DIRECTION('ref_axis',(-1.,-1.77635683940023E-14,-7.72329060608744E-16));
#781=DIRECTION('center_axis',(0.,0.,-1.));
#782=DIRECTION('ref_axis',(0.,1.,0.));
#783=DIRECTION('',(-1.,0.,0.));
#784=DIRECTION('',(0.,-1.,0.));
#785=DIRECTION('',(1.,0.,0.));
#786=DIRECTION('',(0.,1.,0.));
#787=DIRECTION('center_axis',(-1.,0.,0.));
#788=DIRECTION('ref_axis',(0.,-1.,0.));
#789=DIRECTION('',(0.,0.,-1.));
#790=DIRECTION('',(0.,1.,1.80226142290718E-16));
#791=DIRECTION('',(0.,0.,-1.));
#792=DIRECTION('',(0.,1.,0.));
#793=DIRECTION('center_axis',(1.,0.,0.));
#794=DIRECTION('ref_axis',(0.,0.,-1.));
#795=DIRECTION('',(0.,0.,1.));
#796=DIRECTION('center_axis',(1.,4.0252562770125E-31,7.72329060608805E-16));
#797=DIRECTION('ref_axis',(2.24832298242789E-30,1.,-3.43227873367804E-15));
#798=DIRECTION('',(-7.72329060608805E-16,3.42721020645157E-15,1.));
#799=DIRECTION('',(-4.0252562770125E-31,1.,0.));
#800=DIRECTION('',(-7.72329060608805E-16,3.42721020645157E-15,1.));
#801=DIRECTION('center_axis',(-7.72329060608805E-16,3.42721020645157E-15,
1.));
#802=DIRECTION('ref_axis',(7.10542735760065E-14,-1.,3.42721020645163E-15));
#803=DIRECTION('center_axis',(0.,0.,1.));
#804=DIRECTION('ref_axis',(7.10542735760065E-14,-1.,3.42721020645163E-15));
#805=DIRECTION('',(-7.72329060608805E-16,3.42721020645157E-15,1.));
#806=DIRECTION('center_axis',(6.53072367426568E-16,-1.,3.42721020645157E-15));
#807=DIRECTION('ref_axis',(1.,6.5307236742657E-16,6.26323074574894E-16));
#808=DIRECTION('',(1.,6.53072367426568E-16,0.));
#809=DIRECTION('',(-7.72329060608805E-16,3.42721020645157E-15,1.));
#810=DIRECTION('center_axis',(-7.72329060608805E-16,3.42721020645157E-15,
1.));
#811=DIRECTION('ref_axis',(-1.,-1.77635683940023E-14,-7.72329060608744E-16));
#812=DIRECTION('center_axis',(0.,0.,1.));
#813=DIRECTION('ref_axis',(-1.,-1.77635683940023E-14,-7.72329060608744E-16));
#814=DIRECTION('',(-7.72329060608805E-16,3.42721020645157E-15,1.));
#815=DIRECTION('center_axis',(-1.,-4.0252562770125E-31,-7.72329060608805E-16));
#816=DIRECTION('ref_axis',(-2.24832298242789E-30,-1.,3.43227873367804E-15));
#817=DIRECTION('',(4.0252562770125E-31,-1.,0.));
#818=DIRECTION('',(-7.72329060608805E-16,3.42721020645157E-15,1.));
#819=DIRECTION('center_axis',(-7.72329060608805E-16,3.42721020645157E-15,
1.));
#820=DIRECTION('ref_axis',(2.2444084115564E-30,1.,-3.42721020645157E-15));
#821=DIRECTION('center_axis',(0.,0.,1.));
#822=DIRECTION('ref_axis',(2.2444084115564E-30,1.,-3.42721020645157E-15));
#823=DIRECTION('',(-7.72329060608805E-16,3.42721020645157E-15,1.));
#824=DIRECTION('center_axis',(2.24514844687184E-30,1.,-3.42721020645157E-15));
#825=DIRECTION('ref_axis',(-1.,9.86076131526271E-32,-6.26323074574896E-16));
#826=DIRECTION('',(-1.,2.24514844687184E-30,0.));
#827=DIRECTION('',(-7.72329060608805E-16,3.42721020645157E-15,1.));
#828=DIRECTION('center_axis',(-7.72329060608805E-16,3.42721020645157E-15,
1.));
#829=DIRECTION('ref_axis',(1.,5.32907051820049E-14,7.72329060608622E-16));
#830=DIRECTION('center_axis',(0.,0.,1.));
#831=DIRECTION('ref_axis',(1.,5.32907051820049E-14,7.72329060608622E-16));
#832=DIRECTION('center_axis',(0.,1.,0.));
#833=DIRECTION('ref_axis',(0.,0.,1.));
#834=DIRECTION('',(0.,0.,1.));
#835=DIRECTION('',(1.,0.,0.));
#836=DIRECTION('center_axis',(0.,1.,0.));
#837=DIRECTION('ref_axis',(0.,0.,1.));
#838=DIRECTION('',(0.,0.,-1.));
#839=DIRECTION('',(-1.,0.,0.));
#840=DIRECTION('',(0.,0.,1.));
#841=DIRECTION('',(-1.,0.,0.));
#842=DIRECTION('',(0.,0.,1.));
#843=DIRECTION('center_axis',(-1.,0.,0.));
#844=DIRECTION('ref_axis',(0.,-1.,0.));
#845=DIRECTION('',(0.,0.,1.));
#846=DIRECTION('center_axis',(1.,0.,0.));
#847=DIRECTION('ref_axis',(0.,0.,-1.));
#848=DIRECTION('',(0.,-1.,0.));
#849=DIRECTION('center_axis',(0.,-1.,0.));
#850=DIRECTION('ref_axis',(0.,0.,-1.));
#851=DIRECTION('',(0.,0.,-1.));
#852=DIRECTION('',(1.,0.,0.));
#853=DIRECTION('center_axis',(0.,0.,1.));
#854=DIRECTION('ref_axis',(0.,1.,0.));
#855=DIRECTION('',(1.,0.,0.));
#856=DIRECTION('',(0.,1.,0.));
#857=DIRECTION('',(-1.,0.,0.));
#858=DIRECTION('center_axis',(0.,1.,0.));
#859=DIRECTION('ref_axis',(0.,0.,1.));
#860=DIRECTION('',(-1.,0.,0.));
#861=DIRECTION('',(0.,0.,1.));
#862=DIRECTION('',(1.,0.,0.));
#863=DIRECTION('',(0.,0.,-1.));
#864=DIRECTION('',(1.,0.,0.));
#865=DIRECTION('',(0.,0.,-1.));
#866=DIRECTION('center_axis',(0.,-1.80226142290718E-16,1.));
#867=DIRECTION('ref_axis',(-1.92241218443432E-15,-1.,-1.80226142290718E-16));
#868=DIRECTION('',(0.,-1.,-1.80226142290718E-16));
#869=DIRECTION('center_axis',(-1.,0.,0.));
#870=DIRECTION('ref_axis',(0.,0.,1.));
#871=DIRECTION('',(0.,-1.,0.));
#872=DIRECTION('',(0.,1.,0.));
#873=DIRECTION('center_axis',(0.,0.,-1.));
#874=DIRECTION('ref_axis',(1.92241218443432E-15,1.,0.));
#875=DIRECTION('',(0.,1.,0.));
#876=DIRECTION('center_axis',(1.,0.,0.));
#877=DIRECTION('ref_axis',(0.,1.,0.));
#878=DIRECTION('center_axis',(1.,0.,0.));
#879=DIRECTION('ref_axis',(0.,0.,-1.));
#880=DIRECTION('',(0.,1.,0.));
#881=DIRECTION('center_axis',(0.,0.,-1.));
#882=DIRECTION('ref_axis',(0.,-1.,0.));
#883=DIRECTION('',(1.,0.,0.));
#884=DIRECTION('center_axis',(1.,0.,0.));
#885=DIRECTION('ref_axis',(0.,1.,-2.83276944882399E-16));
#886=DIRECTION('center_axis',(-1.,0.,0.));
#887=DIRECTION('ref_axis',(0.,0.,-1.));
#888=DIRECTION('',(1.,0.,0.));
#889=DIRECTION('center_axis',(1.,0.,0.));
#890=DIRECTION('ref_axis',(0.,0.,-1.));
#891=DIRECTION('',(0.,0.,-1.));
#892=DIRECTION('center_axis',(0.,-1.,0.));
#893=DIRECTION('ref_axis',(0.,0.,-1.));
#894=CARTESIAN_POINT('',(0.,0.,0.));
#895=CARTESIAN_POINT('Origin',(72.7590341814387,4.8,-1.39467810270306));
#896=CARTESIAN_POINT('',(73.,4.8,-0.619779577549555));
#897=CARTESIAN_POINT('',(73.,4.8,-1.00000001490116));
#898=CARTESIAN_POINT('',(73.,4.8,4.55266102687956));
#899=CARTESIAN_POINT('',(73.46809091895,4.8,-1.00000001490142));
#900=CARTESIAN_POINT('Origin',(72.7590341814387,4.8,-1.39467810270306));
#901=CARTESIAN_POINT('',(68.3795170907194,4.8,-1.00000001490116));
#902=CARTESIAN_POINT('Origin',(72.7590341814387,10.8,-1.39467810270306));
#903=CARTESIAN_POINT('',(73.,8.75000010430813,-0.619779577549555));
#904=CARTESIAN_POINT('',(73.,10.8,-0.619779577549555));
#905=CARTESIAN_POINT('',(73.46809091895,8.75000010430813,-1.00000001490142));
#906=CARTESIAN_POINT('Origin',(72.7590341814387,8.75000010430813,-1.39467810270306));
#907=CARTESIAN_POINT('',(73.4680909189492,10.8,-1.00000001490116));
#908=CARTESIAN_POINT('Origin',(142.119564133762,4.8,22.2953394623561));
#909=CARTESIAN_POINT('',(142.000002115965,4.8,21.4926955974321));
#910=CARTESIAN_POINT('',(142.000002115965,4.8,22.0000003278255));
#911=CARTESIAN_POINT('',(142.000002115965,4.8,11.1476697311781));
#912=CARTESIAN_POINT('',(141.363715573788,4.8,22.0000003278255));
#913=CARTESIAN_POINT('Origin',(142.119564133762,4.8,22.2953394623561));
#914=CARTESIAN_POINT('',(103.059782066881,4.8,22.0000003278255));
#915=CARTESIAN_POINT('Origin',(142.119564133762,10.8,22.2953394623561));
#916=CARTESIAN_POINT('',(142.000002115965,8.75000010430813,21.4926955974321));
#917=CARTESIAN_POINT('',(142.000002115965,10.8,21.4926955974321));
#918=CARTESIAN_POINT('',(141.363715573788,8.75000010430813,22.0000003278255));
#919=CARTESIAN_POINT('Origin',(142.119564133762,8.75000010430813,22.2953394623561));
#920=CARTESIAN_POINT('',(141.363715573788,10.8,22.0000003278255));
#921=CARTESIAN_POINT('Origin',(73.2324152638347,4.8,22.1529347382126));
#922=CARTESIAN_POINT('',(74.029374055818,4.8,22.0000003278255));
#923=CARTESIAN_POINT('',(73.,4.8,22.0000003278255));
#924=CARTESIAN_POINT('',(68.6162076319173,4.8,22.0000003278255));
#925=CARTESIAN_POINT('',(73.,4.8,21.375428857118));
#926=CARTESIAN_POINT('Origin',(73.2324152638347,4.8,22.1529347382126));
#927=CARTESIAN_POINT('',(73.,4.8,16.3264674473374));
#928=CARTESIAN_POINT('Origin',(73.2324152638347,10.8,22.1529347382126));
#929=CARTESIAN_POINT('',(74.029374055818,8.75000010430813,22.0000003278255));
#930=CARTESIAN_POINT('',(74.029374055818,10.8,22.0000003278255));
#931=CARTESIAN_POINT('',(73.,8.75000010430813,21.375428857118));
#932=CARTESIAN_POINT('Origin',(73.2324152638347,8.75000010430813,22.1529347382126));
#933=CARTESIAN_POINT('',(73.,10.8,21.375428857118));
#934=CARTESIAN_POINT('Origin',(142.181957897525,4.8,-1.27464589991665));
#935=CARTESIAN_POINT('',(141.41834681337,4.8,-1.00000001490116));
#936=CARTESIAN_POINT('',(142.000002115965,4.8,-1.00000001490116));
#937=CARTESIAN_POINT('',(103.090978948762,4.8,-1.00000001490116));
#938=CARTESIAN_POINT('',(142.000002115965,4.8,-0.483808151982863));
#939=CARTESIAN_POINT('Origin',(142.181957897525,4.8,-1.27464589991665));
#940=CARTESIAN_POINT('',(142.000002115965,4.8,-0.637322949958324));
#941=CARTESIAN_POINT('Origin',(142.181957897525,10.8,-1.27464589991665));
#942=CARTESIAN_POINT('',(141.41834681337,8.75000010430813,-1.00000001490116));
#943=CARTESIAN_POINT('',(141.41834681337,10.8,-1.00000001490116));
#944=CARTESIAN_POINT('',(142.000002115965,8.75000010430813,-0.483808151982863));
#945=CARTESIAN_POINT('Origin',(142.181957897525,8.75000010430813,-1.27464589991665));
#946=CARTESIAN_POINT('',(142.000002115965,10.8,-0.483808151982863));
#947=CARTESIAN_POINT('Origin',(64.,2.39999994635582,22.0000003278255));
#948=CARTESIAN_POINT('',(64.,8.75000010430813,22.0000003278255));
#949=CARTESIAN_POINT('',(73.,-8.00000011920929,22.0000003278255));
#950=CARTESIAN_POINT('',(73.,-0.200000070035458,22.0000003278255));
#951=CARTESIAN_POINT('',(142.000002115965,-8.00000011920929,22.0000003278255));
#952=CARTESIAN_POINT('',(64.,-8.00000011920929,22.0000003278255));
#953=CARTESIAN_POINT('',(142.000002115965,6.20000004768372,22.0000003278255));
#954=CARTESIAN_POINT('',(86.9097797724213,6.47555925237981,22.0000003278255));
#955=CARTESIAN_POINT('',(86.9097797724213,6.67555925237981,22.0000003278255));
#956=CARTESIAN_POINT('',(86.9097797724213,4.53777959936781,22.0000003278255));
#957=CARTESIAN_POINT('',(87.4097797724214,7.17555925237981,22.0000003278255));
#958=CARTESIAN_POINT('Origin',(87.4097797724214,6.6755592523798,22.0000003278255));
#959=CARTESIAN_POINT('',(89.1097797724213,7.1755592523798,22.0000003278255));
#960=CARTESIAN_POINT('',(76.5548898862107,7.17555925237981,22.0000003278255));
#961=CARTESIAN_POINT('',(89.6097797724213,6.67555925237981,22.0000003278255));
#962=CARTESIAN_POINT('Origin',(89.1097797724213,6.67555925237978,22.0000003278255));
#963=CARTESIAN_POINT('',(89.6097797724213,6.47555925237981,22.0000003278255));
#964=CARTESIAN_POINT('',(89.6097797724213,4.43777959936781,22.0000003278255));
#965=CARTESIAN_POINT('',(89.1097797724213,5.97555925237981,22.0000003278255));
#966=CARTESIAN_POINT('Origin',(89.1097797724213,6.47555925237984,22.0000003278255));
#967=CARTESIAN_POINT('',(87.4097797724214,5.97555925237981,22.0000003278255));
#968=CARTESIAN_POINT('',(75.7048898862107,5.9755592523798,22.0000003278255));
#969=CARTESIAN_POINT('Origin',(87.4097797724214,6.47555925237982,22.0000003278255));
#970=CARTESIAN_POINT('Origin',(64.,-8.00000011920929,-1.00000001490116));
#971=CARTESIAN_POINT('',(64.,8.75000010430813,-1.00000001490116));
#972=CARTESIAN_POINT('',(142.000002115965,-8.00000011920929,-1.00000001490116));
#973=CARTESIAN_POINT('',(142.000002115965,1.00000001490116,-1.00000001490116));
#974=CARTESIAN_POINT('',(73.,-8.00000011920929,-1.00000001490116));
#975=CARTESIAN_POINT('',(64.,-8.00000011920929,-1.00000001490116));
#976=CARTESIAN_POINT('',(73.,7.00000010430813,-1.00000001490116));
#977=CARTESIAN_POINT('Origin',(142.000002115965,10.0000001490116,0.));
#978=CARTESIAN_POINT('',(142.000002115965,8.75000010430813,1.50000002235174));
#979=CARTESIAN_POINT('',(142.000002115965,8.75000010430813,-0.500000007450581));
#980=CARTESIAN_POINT('',(142.000002115965,2.39999994635582,1.50000002235174));
#981=CARTESIAN_POINT('',(142.000002115965,8.50000012665987,1.50000002235174));
#982=CARTESIAN_POINT('',(142.000002115965,2.39999994635582,2.00000014901161));
#983=CARTESIAN_POINT('',(142.000002115965,2.39999994635582,-0.500000007450581));
#984=CARTESIAN_POINT('',(142.000002115965,-4.04196023416775,2.00000014901161));
#985=CARTESIAN_POINT('',(142.000002115965,4.45000004768372,2.00000014901161));
#986=CARTESIAN_POINT('',(142.000002115965,-8.00000011920929,1.55572824812903));
#987=CARTESIAN_POINT('Origin',(142.000002115965,-7.00000010430813,10.5000001564622));
#988=CARTESIAN_POINT('',(142.000002115965,-8.00000011920929,0.777864124064517));
#989=CARTESIAN_POINT('Origin',(89.6097797724213,6.4755592523798,19.1302802686912));
#990=CARTESIAN_POINT('',(89.6097797724213,6.6755592523798,19.5999995619059));
#991=CARTESIAN_POINT('',(89.6097797724213,6.6755592523798,19.1302802686912));
#992=CARTESIAN_POINT('',(89.6097797724213,6.4755592523798,19.5999995619059));
#993=CARTESIAN_POINT('',(89.6097797724213,4.4277172814978,19.5999995619059));
#994=CARTESIAN_POINT('',(89.6097797724213,6.4755592523798,19.1302802686912));
#995=CARTESIAN_POINT('Origin',(89.1097797724213,6.47555925237983,19.1302802686912));
#996=CARTESIAN_POINT('',(89.1097797724213,5.9755592523798,19.5999995619059));
#997=CARTESIAN_POINT('Origin',(89.1097797724213,6.47555925237983,19.5999995619059));
#998=CARTESIAN_POINT('',(89.1097797724213,5.9755592523798,19.1302802686912));
#999=CARTESIAN_POINT('Origin',(87.4097797724214,5.9755592523798,19.1302802686912));
#1000=CARTESIAN_POINT('',(87.4097797724214,5.9755592523798,19.5999995619059));
#1001=CARTESIAN_POINT('',(75.7048898862107,5.97555925237979,19.5999995619059));
#1002=CARTESIAN_POINT('',(87.4097797724214,5.9755592523798,19.1302802686912));
#1003=CARTESIAN_POINT('Origin',(87.4097797724214,6.47555925237981,19.1302802686912));
#1004=CARTESIAN_POINT('',(86.9097797724213,6.4755592523798,19.5999995619059));
#1005=CARTESIAN_POINT('Origin',(87.4097797724214,6.47555925237981,19.5999995619059));
#1006=CARTESIAN_POINT('',(86.9097797724213,6.4755592523798,19.1302802686912));
#1007=CARTESIAN_POINT('Origin',(86.9097797724213,6.6755592523798,19.1302802686912));
#1008=CARTESIAN_POINT('',(86.9097797724213,6.6755592523798,19.5999995619059));
#1009=CARTESIAN_POINT('',(86.9097797724213,4.52771728149779,19.5999995619059));
#1010=CARTESIAN_POINT('',(86.9097797724213,6.6755592523798,19.1302802686912));
#1011=CARTESIAN_POINT('Origin',(87.4097797724214,6.67555925237979,19.1302802686912));
#1012=CARTESIAN_POINT('',(87.4097797724214,7.1755592523798,19.5999995619059));
#1013=CARTESIAN_POINT('Origin',(87.4097797724214,6.67555925237979,19.5999995619059));
#1014=CARTESIAN_POINT('',(87.4097797724214,7.1755592523798,19.1302802686912));
#1015=CARTESIAN_POINT('Origin',(89.1097797724213,7.1755592523798,19.1302802686912));
#1016=CARTESIAN_POINT('',(89.1097797724213,7.1755592523798,19.5999995619059));
#1017=CARTESIAN_POINT('',(76.5548898862107,7.1755592523798,19.5999995619059));
#1018=CARTESIAN_POINT('',(89.1097797724213,7.1755592523798,19.1302802686912));
#1019=CARTESIAN_POINT('Origin',(89.1097797724213,6.67555925237977,19.1302802686912));
#1020=CARTESIAN_POINT('Origin',(89.1097797724213,6.67555925237977,19.5999995619059));
#1021=CARTESIAN_POINT('Origin',(64.,8.75000010430813,-1.00000001490116));
#1022=CARTESIAN_POINT('',(73.,8.75000010430813,1.50000002235174));
#1023=CARTESIAN_POINT('',(73.,8.75000010430813,-0.375000005587935));
#1024=CARTESIAN_POINT('',(64.,8.75000010430813,1.50000002235174));
#1025=CARTESIAN_POINT('Origin',(64.,8.75000010430813,19.5999995619059));
#1026=CARTESIAN_POINT('',(142.000002115965,8.75,10.0000001490116));
#1027=CARTESIAN_POINT('',(142.000002115965,8.75000010430813,9.79999978095293));
#1028=CARTESIAN_POINT('',(122.742560948846,8.75,10.0000001490116));
#1029=CARTESIAN_POINT('',(144.000002145767,8.75,10.0000001490116));
#1030=CARTESIAN_POINT('',(122.742560948846,8.75000010430813,19.5999995619059));
#1031=CARTESIAN_POINT('',(122.742560948846,8.75,10.0000001490116));
#1032=CARTESIAN_POINT('',(73.,8.75000010430813,19.5999995619059));
#1033=CARTESIAN_POINT('',(64.,8.75000010430813,19.5999995619059));
#1034=CARTESIAN_POINT('',(73.,8.75000010430813,20.1999997533858));
#1035=CARTESIAN_POINT('Origin',(142.000002115965,10.0000001490116,0.));
#1036=CARTESIAN_POINT('',(142.000002115965,-8.00000011920929,19.4442720647953));
#1037=CARTESIAN_POINT('',(142.000002115965,-8.00000011920929,11.0000001639128));
#1038=CARTESIAN_POINT('',(142.000002115965,1.98610027308302,10.0000001490116));
#1039=CARTESIAN_POINT('Origin',(142.000002115965,-7.00000010430813,10.5000001564622));
#1040=CARTESIAN_POINT('',(142.000002115965,4.45000004768372,10.0000001490116));
#1041=CARTESIAN_POINT('Origin',(64.,-8.00000011920929,22.0000003278255));
#1042=CARTESIAN_POINT('',(73.,-8.00000011920929,19.4442720647953));
#1043=CARTESIAN_POINT('',(73.,-8.00000011920929,16.2500002421439));
#1044=CARTESIAN_POINT('',(64.,-8.00000011920929,19.4442720647953));
#1045=CARTESIAN_POINT('Origin',(139.500002145767,-1.10000005364418,2.00000014901161));
#1046=CARTESIAN_POINT('',(135.000002145767,2.39999994635582,2.00000014901161));
#1047=CARTESIAN_POINT('',(101.750001072884,2.39999994635582,2.00000014901161));
#1048=CARTESIAN_POINT('',(135.000002145767,-4.04196023416775,2.00000014901161));
#1049=CARTESIAN_POINT('',(135.000002145767,-1.10000005364418,2.00000014901161));
#1050=CARTESIAN_POINT('',(64.,-4.04196023416775,2.00000014901161));
#1051=CARTESIAN_POINT('Origin',(64.,2.39999994635582,-1.00000001490116));
#1052=CARTESIAN_POINT('',(73.,2.39999994635582,1.50000002235174));
#1053=CARTESIAN_POINT('',(64.,2.39999994635582,1.50000002235174));
#1054=CARTESIAN_POINT('',(73.,2.39999994635582,19.5999995619059));
#1055=CARTESIAN_POINT('',(73.,2.39999994635582,4.75000007078052));
#1056=CARTESIAN_POINT('',(122.742560948846,2.39999994635582,19.5999995619059));
#1057=CARTESIAN_POINT('',(64.,2.39999994635582,19.5999995619059));
#1058=CARTESIAN_POINT('',(122.742560948846,2.39999994635582,10.0000001490116));
#1059=CARTESIAN_POINT('',(122.742560948846,2.39999994635582,4.50000006705523));
#1060=CARTESIAN_POINT('',(135.000002145767,2.39999994635582,10.0000001490116));
#1061=CARTESIAN_POINT('',(104.000001072884,2.39999994635582,10.0000001490116));
#1062=CARTESIAN_POINT('',(135.000002145767,2.39999994635582,2.50000006705523));
#1063=CARTESIAN_POINT('Origin',(64.,7.00000010430813,1.50000002235174));
#1064=CARTESIAN_POINT('',(73.,5.84496890588504,1.50000002235174));
#1065=CARTESIAN_POINT('Origin',(122.742560948846,0.,10.0000001490116));
#1066=CARTESIAN_POINT('',(122.742560948846,1.1899376553079,19.5999995619059));
#1067=CARTESIAN_POINT('',(122.742560948846,0.,10.0000001490116));
#1068=CARTESIAN_POINT('Origin',(64.,2.37987531061579,19.5999995619059));
#1069=CARTESIAN_POINT('',(73.,7.00000010430813,19.5999995619059));
#1070=CARTESIAN_POINT('Origin',(135.000002145767,-1.10000005364418,6.00000014901161));
#1071=CARTESIAN_POINT('',(135.000002145767,1.98610027308302,10.0000001490116));
#1072=CARTESIAN_POINT('Origin',(135.000002145767,-7.00000010430813,10.5000001564622));
#1073=CARTESIAN_POINT('',(135.000002145767,-1.10000005364418,10.0000001490116));
#1074=CARTESIAN_POINT('Origin',(139.500002145767,-1.10000005364418,10.0000001490116));
#1075=CARTESIAN_POINT('',(64.,1.98610027308302,10.0000001490116));
#1076=CARTESIAN_POINT('Origin',(64.,-7.00000010430813,10.5000001564622));
#1077=CARTESIAN_POINT('',(73.,-8.00000011920929,1.55572824812903));
#1078=CARTESIAN_POINT('Origin',(73.,-7.00000010430813,10.5000001564622));
#1079=CARTESIAN_POINT('',(64.,-8.00000011920929,1.55572824812903));
#1080=CARTESIAN_POINT('Origin',(73.,-2.80000008642673,10.5000001564622));
#1081=CARTESIAN_POINT('',(73.,-8.00000011920929,6.02786420229561));
#1082=CARTESIAN_POINT('Origin',(64.,-8.00000011920929,1.55572824812903));
#1083=UNCERTAINTY_MEASURE_WITH_UNIT(LENGTH_MEASURE(0.01),#1087,
'DISTANCE_ACCURACY_VALUE',
'Maximum model space distance between geometric entities at asserted c
onnectivities');
#1084=UNCERTAINTY_MEASURE_WITH_UNIT(LENGTH_MEASURE(0.01),#1087,
'DISTANCE_ACCURACY_VALUE',
'Maximum model space distance between geometric entities at asserted c
onnectivities');
#1085=(
GEOMETRIC_REPRESENTATION_CONTEXT(3)
GLOBAL_UNCERTAINTY_ASSIGNED_CONTEXT((#1083))
GLOBAL_UNIT_ASSIGNED_CONTEXT((#1087,#1088,#1089))
REPRESENTATION_CONTEXT('','3D')
);
#1086=(
GEOMETRIC_REPRESENTATION_CONTEXT(3)
GLOBAL_UNCERTAINTY_ASSIGNED_CONTEXT((#1084))
GLOBAL_UNIT_ASSIGNED_CONTEXT((#1087,#1088,#1089))
REPRESENTATION_CONTEXT('','3D')
);
#1087=(
LENGTH_UNIT()
NAMED_UNIT(*)
SI_UNIT(.MILLI.,.METRE.)
);
#1088=(
NAMED_UNIT(*)
PLANE_ANGLE_UNIT()
SI_UNIT($,.RADIAN.)
);
#1089=(
NAMED_UNIT(*)
SI_UNIT($,.STERADIAN.)
SOLID_ANGLE_UNIT()
);
#1090=SHAPE_DEFINITION_REPRESENTATION(#1091,#1092);
#1091=PRODUCT_DEFINITION_SHAPE('',$,#1094);
#1092=SHAPE_REPRESENTATION('',(#659),#1085);
#1093=PRODUCT_DEFINITION_CONTEXT('part definition',#1098,'design');
#1094=PRODUCT_DEFINITION('casing','casing v17',#1095,#1093);
#1095=PRODUCT_DEFINITION_FORMATION('',$,#1100);
#1096=PRODUCT_RELATED_PRODUCT_CATEGORY('casing v17','casing v17',(#1100));
#1097=APPLICATION_PROTOCOL_DEFINITION('international standard',
'automotive_design',2009,#1098);
#1098=APPLICATION_CONTEXT(
'Core Data for Automotive Mechanical Design Process');
#1099=PRODUCT_CONTEXT('part definition',#1098,'mechanical');
#1100=PRODUCT('casing','casing v17',$,(#1099));
#1101=PRESENTATION_STYLE_ASSIGNMENT((#1104));
#1102=PRESENTATION_STYLE_ASSIGNMENT((#1105));
#1103=PRESENTATION_STYLE_ASSIGNMENT((#1106));
#1104=SURFACE_STYLE_USAGE(.BOTH.,#1107);
#1105=SURFACE_STYLE_USAGE(.BOTH.,#1108);
#1106=SURFACE_STYLE_USAGE(.BOTH.,#1109);
#1107=SURFACE_SIDE_STYLE('',(#1110));
#1108=SURFACE_SIDE_STYLE('',(#1111));
#1109=SURFACE_SIDE_STYLE('',(#1112));
#1110=SURFACE_STYLE_FILL_AREA(#1113);
#1111=SURFACE_STYLE_FILL_AREA(#1114);
#1112=SURFACE_STYLE_FILL_AREA(#1115);
#1113=FILL_AREA_STYLE('Steel - Satin',(#1116));
#1114=FILL_AREA_STYLE('EPX 82 (with Carbon M2 M3 L1 3D Printers)',(#1117));
#1115=FILL_AREA_STYLE('Acrylic (Clear)',(#1118));
#1116=FILL_AREA_STYLE_COLOUR('Steel - Satin',#1119);
#1117=FILL_AREA_STYLE_COLOUR(
'EPX 82 (with Carbon M2 M3 L1 3D Printers)',#1120);
#1118=FILL_AREA_STYLE_COLOUR('Acrylic (Clear)',#1121);
#1119=COLOUR_RGB('Steel - Satin',0.627450980392157,0.627450980392157,0.627450980392157);
#1120=COLOUR_RGB('EPX 82 (with Carbon M2 M3 L1 3D Printers)',0.247058823529412,
0.247058823529412,0.247058823529412);
#1121=COLOUR_RGB('Acrylic (Clear)',0.964705882352941,0.964705882352941,
0.952941176470588);
ENDSEC;
END-ISO-10303-21;
