ISO-10303-21;
HEADER;
/* Generated by software containing ST-Developer
 * from STEP Tools, Inc. (www.steptools.com) 
 */

FILE_DESCRIPTION(
/* description */ (''),
/* implementation_level */ '2;1');

FILE_NAME(
/* name */ 'Top.step',
/* time_stamp */ '2026-06-27T03:09:30+07:00',
/* author */ (''),
/* organization */ (''),
/* preprocessor_version */ 'ST-DEVELOPER v20.1',
/* originating_system */ 'Autodesk Translation Framework v15.8.0.0',
/* authorisation */ '');

FILE_SCHEMA (('AUTOMOTIVE_DESIGN { 1 0 10303 214 3 1 1 }'));
ENDSEC;

DATA;
#10=MECHANICAL_DESIGN_GEOMETRIC_PRESENTATION_REPRESENTATION('',(#13,#14,
#15,#16,#17),#981);
#11=SHAPE_REPRESENTATION_RELATIONSHIP('SRR','None',#987,#12);
#12=ADVANCED_BREP_SHAPE_REPRESENTATION('',(#18,#19,#20,#21,#22),#980);
#13=STYLED_ITEM('',(#997),#18);
#14=STYLED_ITEM('',(#998),#19);
#15=STYLED_ITEM('',(#998),#20);
#16=STYLED_ITEM('',(#998),#21);
#17=STYLED_ITEM('',(#998),#22);
#18=MANIFOLD_SOLID_BREP('Top (1)',#573);
#19=MANIFOLD_SOLID_BREP('Body13',#574);
#20=MANIFOLD_SOLID_BREP('Body14',#575);
#21=MANIFOLD_SOLID_BREP('Body15',#576);
#22=MANIFOLD_SOLID_BREP('Body16',#577);
#23=FACE_BOUND('',#107,.T.);
#24=FACE_BOUND('',#108,.T.);
#25=FACE_BOUND('',#109,.T.);
#26=FACE_BOUND('',#110,.T.);
#27=FACE_BOUND('',#111,.T.);
#28=FACE_BOUND('',#112,.T.);
#29=FACE_BOUND('',#113,.T.);
#30=FACE_BOUND('',#114,.T.);
#31=FACE_BOUND('',#116,.T.);
#32=FACE_BOUND('',#117,.T.);
#33=FACE_BOUND('',#118,.T.);
#34=FACE_BOUND('',#119,.T.);
#35=FACE_BOUND('',#120,.T.);
#36=FACE_BOUND('',#130,.T.);
#37=FACE_BOUND('',#131,.T.);
#38=FACE_BOUND('',#132,.T.);
#39=FACE_BOUND('',#133,.T.);
#40=PLANE('',#591);
#41=PLANE('',#595);
#42=PLANE('',#599);
#43=PLANE('',#603);
#44=PLANE('',#607);
#45=PLANE('',#612);
#46=PLANE('',#621);
#47=PLANE('',#622);
#48=PLANE('',#623);
#49=PLANE('',#624);
#50=PLANE('',#625);
#51=PLANE('',#626);
#52=PLANE('',#630);
#53=PLANE('',#631);
#54=PLANE('',#635);
#55=PLANE('',#636);
#56=PLANE('',#640);
#57=PLANE('',#641);
#58=PLANE('',#645);
#59=FACE_OUTER_BOUND('',#94,.T.);
#60=FACE_OUTER_BOUND('',#95,.T.);
#61=FACE_OUTER_BOUND('',#96,.T.);
#62=FACE_OUTER_BOUND('',#97,.T.);
#63=FACE_OUTER_BOUND('',#98,.T.);
#64=FACE_OUTER_BOUND('',#99,.T.);
#65=FACE_OUTER_BOUND('',#100,.T.);
#66=FACE_OUTER_BOUND('',#101,.T.);
#67=FACE_OUTER_BOUND('',#102,.T.);
#68=FACE_OUTER_BOUND('',#103,.T.);
#69=FACE_OUTER_BOUND('',#104,.T.);
#70=FACE_OUTER_BOUND('',#105,.T.);
#71=FACE_OUTER_BOUND('',#106,.T.);
#72=FACE_OUTER_BOUND('',#115,.T.);
#73=FACE_OUTER_BOUND('',#121,.T.);
#74=FACE_OUTER_BOUND('',#122,.T.);
#75=FACE_OUTER_BOUND('',#123,.T.);
#76=FACE_OUTER_BOUND('',#124,.T.);
#77=FACE_OUTER_BOUND('',#125,.T.);
#78=FACE_OUTER_BOUND('',#126,.T.);
#79=FACE_OUTER_BOUND('',#127,.T.);
#80=FACE_OUTER_BOUND('',#128,.T.);
#81=FACE_OUTER_BOUND('',#129,.T.);
#82=FACE_OUTER_BOUND('',#134,.T.);
#83=FACE_OUTER_BOUND('',#135,.T.);
#84=FACE_OUTER_BOUND('',#136,.T.);
#85=FACE_OUTER_BOUND('',#137,.T.);
#86=FACE_OUTER_BOUND('',#138,.T.);
#87=FACE_OUTER_BOUND('',#139,.T.);
#88=FACE_OUTER_BOUND('',#140,.T.);
#89=FACE_OUTER_BOUND('',#141,.T.);
#90=FACE_OUTER_BOUND('',#142,.T.);
#91=FACE_OUTER_BOUND('',#143,.T.);
#92=FACE_OUTER_BOUND('',#144,.T.);
#93=FACE_OUTER_BOUND('',#145,.T.);
#94=EDGE_LOOP('',(#378,#379,#380,#381));
#95=EDGE_LOOP('',(#382,#383,#384,#385));
#96=EDGE_LOOP('',(#386,#387,#388,#389));
#97=EDGE_LOOP('',(#390,#391,#392,#393));
#98=EDGE_LOOP('',(#394,#395,#396,#397));
#99=EDGE_LOOP('',(#398,#399,#400,#401));
#100=EDGE_LOOP('',(#402,#403,#404,#405));
#101=EDGE_LOOP('',(#406,#407,#408,#409));
#102=EDGE_LOOP('',(#410,#411,#412,#413));
#103=EDGE_LOOP('',(#414,#415,#416,#417));
#104=EDGE_LOOP('',(#418,#419,#420,#421));
#105=EDGE_LOOP('',(#422,#423,#424,#425));
#106=EDGE_LOOP('',(#426,#427,#428,#429,#430,#431,#432,#433));
#107=EDGE_LOOP('',(#434));
#108=EDGE_LOOP('',(#435));
#109=EDGE_LOOP('',(#436));
#110=EDGE_LOOP('',(#437));
#111=EDGE_LOOP('',(#438));
#112=EDGE_LOOP('',(#439));
#113=EDGE_LOOP('',(#440));
#114=EDGE_LOOP('',(#441));
#115=EDGE_LOOP('',(#442,#443,#444,#445,#446,#447,#448,#449));
#116=EDGE_LOOP('',(#450,#451,#452,#453));
#117=EDGE_LOOP('',(#454));
#118=EDGE_LOOP('',(#455));
#119=EDGE_LOOP('',(#456));
#120=EDGE_LOOP('',(#457));
#121=EDGE_LOOP('',(#458,#459,#460,#461));
#122=EDGE_LOOP('',(#462,#463,#464,#465));
#123=EDGE_LOOP('',(#466,#467,#468,#469));
#124=EDGE_LOOP('',(#470,#471,#472,#473));
#125=EDGE_LOOP('',(#474,#475,#476,#477));
#126=EDGE_LOOP('',(#478,#479,#480,#481));
#127=EDGE_LOOP('',(#482,#483,#484,#485));
#128=EDGE_LOOP('',(#486,#487,#488,#489));
#129=EDGE_LOOP('',(#490,#491,#492,#493));
#130=EDGE_LOOP('',(#494));
#131=EDGE_LOOP('',(#495));
#132=EDGE_LOOP('',(#496));
#133=EDGE_LOOP('',(#497));
#134=EDGE_LOOP('',(#498));
#135=EDGE_LOOP('',(#499,#500,#501,#502));
#136=EDGE_LOOP('',(#503));
#137=EDGE_LOOP('',(#504));
#138=EDGE_LOOP('',(#505,#506,#507,#508));
#139=EDGE_LOOP('',(#509));
#140=EDGE_LOOP('',(#510));
#141=EDGE_LOOP('',(#511,#512,#513,#514));
#142=EDGE_LOOP('',(#515));
#143=EDGE_LOOP('',(#516));
#144=EDGE_LOOP('',(#517,#518,#519,#520));
#145=EDGE_LOOP('',(#521));
#146=LINE('',#827,#186);
#147=LINE('',#833,#187);
#148=LINE('',#839,#188);
#149=LINE('',#845,#189);
#150=LINE('',#850,#190);
#151=LINE('',#852,#191);
#152=LINE('',#854,#192);
#153=LINE('',#855,#193);
#154=LINE('',#861,#194);
#155=LINE('',#864,#195);
#156=LINE('',#866,#196);
#157=LINE('',#867,#197);
#158=LINE('',#873,#198);
#159=LINE('',#876,#199);
#160=LINE('',#878,#200);
#161=LINE('',#879,#201);
#162=LINE('',#885,#202);
#163=LINE('',#888,#203);
#164=LINE('',#890,#204);
#165=LINE('',#891,#205);
#166=LINE('',#907,#206);
#167=LINE('',#909,#207);
#168=LINE('',#911,#208);
#169=LINE('',#912,#209);
#170=LINE('',#916,#210);
#171=LINE('',#920,#211);
#172=LINE('',#924,#212);
#173=LINE('',#928,#213);
#174=LINE('',#931,#214);
#175=LINE('',#933,#215);
#176=LINE('',#934,#216);
#177=LINE('',#937,#217);
#178=LINE('',#938,#218);
#179=LINE('',#941,#219);
#180=LINE('',#942,#220);
#181=LINE('',#944,#221);
#182=LINE('',#952,#222);
#183=LINE('',#960,#223);
#184=LINE('',#968,#224);
#185=LINE('',#976,#225);
#186=VECTOR('',#652,0.999999999999996);
#187=VECTOR('',#659,0.999999999999996);
#188=VECTOR('',#666,0.999999999999996);
#189=VECTOR('',#673,0.999999999999996);
#190=VECTOR('',#678,10.);
#191=VECTOR('',#679,10.);
#192=VECTOR('',#680,10.);
#193=VECTOR('',#681,10.);
#194=VECTOR('',#688,10.);
#195=VECTOR('',#691,10.);
#196=VECTOR('',#692,10.);
#197=VECTOR('',#693,10.);
#198=VECTOR('',#700,10.);
#199=VECTOR('',#703,10.);
#200=VECTOR('',#704,10.);
#201=VECTOR('',#705,10.);
#202=VECTOR('',#712,10.);
#203=VECTOR('',#715,10.);
#204=VECTOR('',#716,10.);
#205=VECTOR('',#717,10.);
#206=VECTOR('',#736,10.);
#207=VECTOR('',#737,10.);
#208=VECTOR('',#738,10.);
#209=VECTOR('',#739,10.);
#210=VECTOR('',#744,0.223606792751978);
#211=VECTOR('',#749,0.223499999999994);
#212=VECTOR('',#754,0.223606792751978);
#213=VECTOR('',#759,0.223606792751978);
#214=VECTOR('',#762,10.);
#215=VECTOR('',#763,10.);
#216=VECTOR('',#764,10.);
#217=VECTOR('',#767,10.);
#218=VECTOR('',#768,10.);
#219=VECTOR('',#771,10.);
#220=VECTOR('',#772,10.);
#221=VECTOR('',#775,10.);
#222=VECTOR('',#786,0.223606792751978);
#223=VECTOR('',#797,0.223606792751978);
#224=VECTOR('',#808,0.223499999999994);
#225=VECTOR('',#819,0.223606792751978);
#226=CIRCLE('',#580,0.8115);
#227=CIRCLE('',#581,0.8115);
#228=CIRCLE('',#583,0.8115);
#229=CIRCLE('',#584,0.8115);
#230=CIRCLE('',#586,0.8115);
#231=CIRCLE('',#587,0.8115);
#232=CIRCLE('',#589,0.8115);
#233=CIRCLE('',#590,0.8115);
#234=CIRCLE('',#593,1.99999999999942);
#235=CIRCLE('',#594,1.99999999999942);
#236=CIRCLE('',#597,1.99999999999999);
#237=CIRCLE('',#598,1.99999999999999);
#238=CIRCLE('',#601,2.);
#239=CIRCLE('',#602,2.);
#240=CIRCLE('',#605,2.00000000000001);
#241=CIRCLE('',#606,2.00000000000001);
#242=CIRCLE('',#608,0.223606792751978);
#243=CIRCLE('',#609,0.223606792751978);
#244=CIRCLE('',#610,0.223606792751978);
#245=CIRCLE('',#611,0.223499999999994);
#246=CIRCLE('',#614,0.223606792751978);
#247=CIRCLE('',#616,0.223499999999994);
#248=CIRCLE('',#618,0.223606792751978);
#249=CIRCLE('',#620,0.223606792751978);
#250=CIRCLE('',#627,0.223606792751978);
#251=CIRCLE('',#629,0.223606792751978);
#252=CIRCLE('',#632,0.223606792751978);
#253=CIRCLE('',#634,0.223606792751978);
#254=CIRCLE('',#637,0.223499999999994);
#255=CIRCLE('',#639,0.223499999999994);
#256=CIRCLE('',#642,0.223606792751978);
#257=CIRCLE('',#644,0.223606792751978);
#258=VERTEX_POINT('',#824);
#259=VERTEX_POINT('',#826);
#260=VERTEX_POINT('',#830);
#261=VERTEX_POINT('',#832);
#262=VERTEX_POINT('',#836);
#263=VERTEX_POINT('',#838);
#264=VERTEX_POINT('',#842);
#265=VERTEX_POINT('',#844);
#266=VERTEX_POINT('',#848);
#267=VERTEX_POINT('',#849);
#268=VERTEX_POINT('',#851);
#269=VERTEX_POINT('',#853);
#270=VERTEX_POINT('',#857);
#271=VERTEX_POINT('',#859);
#272=VERTEX_POINT('',#863);
#273=VERTEX_POINT('',#865);
#274=VERTEX_POINT('',#869);
#275=VERTEX_POINT('',#871);
#276=VERTEX_POINT('',#875);
#277=VERTEX_POINT('',#877);
#278=VERTEX_POINT('',#881);
#279=VERTEX_POINT('',#883);
#280=VERTEX_POINT('',#887);
#281=VERTEX_POINT('',#889);
#282=VERTEX_POINT('',#896);
#283=VERTEX_POINT('',#898);
#284=VERTEX_POINT('',#900);
#285=VERTEX_POINT('',#902);
#286=VERTEX_POINT('',#905);
#287=VERTEX_POINT('',#906);
#288=VERTEX_POINT('',#908);
#289=VERTEX_POINT('',#910);
#290=VERTEX_POINT('',#914);
#291=VERTEX_POINT('',#918);
#292=VERTEX_POINT('',#922);
#293=VERTEX_POINT('',#926);
#294=VERTEX_POINT('',#930);
#295=VERTEX_POINT('',#932);
#296=VERTEX_POINT('',#936);
#297=VERTEX_POINT('',#940);
#298=VERTEX_POINT('',#947);
#299=VERTEX_POINT('',#950);
#300=VERTEX_POINT('',#955);
#301=VERTEX_POINT('',#958);
#302=VERTEX_POINT('',#963);
#303=VERTEX_POINT('',#966);
#304=VERTEX_POINT('',#971);
#305=VERTEX_POINT('',#974);
#306=EDGE_CURVE('',#258,#258,#226,.T.);
#307=EDGE_CURVE('',#258,#259,#146,.T.);
#308=EDGE_CURVE('',#259,#259,#227,.F.);
#309=EDGE_CURVE('',#260,#260,#228,.T.);
#310=EDGE_CURVE('',#260,#261,#147,.T.);
#311=EDGE_CURVE('',#261,#261,#229,.F.);
#312=EDGE_CURVE('',#262,#262,#230,.T.);
#313=EDGE_CURVE('',#262,#263,#148,.T.);
#314=EDGE_CURVE('',#263,#263,#231,.F.);
#315=EDGE_CURVE('',#264,#264,#232,.T.);
#316=EDGE_CURVE('',#264,#265,#149,.T.);
#317=EDGE_CURVE('',#265,#265,#233,.F.);
#318=EDGE_CURVE('',#266,#267,#150,.T.);
#319=EDGE_CURVE('',#267,#268,#151,.T.);
#320=EDGE_CURVE('',#269,#268,#152,.T.);
#321=EDGE_CURVE('',#266,#269,#153,.T.);
#322=EDGE_CURVE('',#270,#266,#234,.T.);
#323=EDGE_CURVE('',#271,#269,#235,.T.);
#324=EDGE_CURVE('',#270,#271,#154,.T.);
#325=EDGE_CURVE('',#272,#270,#155,.T.);
#326=EDGE_CURVE('',#273,#271,#156,.T.);
#327=EDGE_CURVE('',#272,#273,#157,.T.);
#328=EDGE_CURVE('',#274,#272,#236,.T.);
#329=EDGE_CURVE('',#275,#273,#237,.T.);
#330=EDGE_CURVE('',#274,#275,#158,.T.);
#331=EDGE_CURVE('',#276,#274,#159,.T.);
#332=EDGE_CURVE('',#277,#275,#160,.T.);
#333=EDGE_CURVE('',#276,#277,#161,.T.);
#334=EDGE_CURVE('',#278,#276,#238,.T.);
#335=EDGE_CURVE('',#279,#277,#239,.T.);
#336=EDGE_CURVE('',#278,#279,#162,.T.);
#337=EDGE_CURVE('',#280,#278,#163,.T.);
#338=EDGE_CURVE('',#281,#279,#164,.T.);
#339=EDGE_CURVE('',#280,#281,#165,.T.);
#340=EDGE_CURVE('',#267,#280,#240,.T.);
#341=EDGE_CURVE('',#268,#281,#241,.T.);
#342=EDGE_CURVE('',#282,#282,#242,.T.);
#343=EDGE_CURVE('',#283,#283,#243,.T.);
#344=EDGE_CURVE('',#284,#284,#244,.T.);
#345=EDGE_CURVE('',#285,#285,#245,.T.);
#346=EDGE_CURVE('',#286,#287,#166,.T.);
#347=EDGE_CURVE('',#287,#288,#167,.T.);
#348=EDGE_CURVE('',#288,#289,#168,.T.);
#349=EDGE_CURVE('',#289,#286,#169,.T.);
#350=EDGE_CURVE('',#290,#290,#246,.T.);
#351=EDGE_CURVE('',#290,#282,#170,.T.);
#352=EDGE_CURVE('',#291,#291,#247,.T.);
#353=EDGE_CURVE('',#291,#285,#171,.T.);
#354=EDGE_CURVE('',#292,#292,#248,.T.);
#355=EDGE_CURVE('',#292,#283,#172,.T.);
#356=EDGE_CURVE('',#293,#293,#249,.T.);
#357=EDGE_CURVE('',#293,#284,#173,.T.);
#358=EDGE_CURVE('',#294,#288,#174,.T.);
#359=EDGE_CURVE('',#295,#294,#175,.T.);
#360=EDGE_CURVE('',#295,#289,#176,.T.);
#361=EDGE_CURVE('',#296,#295,#177,.T.);
#362=EDGE_CURVE('',#296,#286,#178,.T.);
#363=EDGE_CURVE('',#297,#296,#179,.T.);
#364=EDGE_CURVE('',#287,#297,#180,.T.);
#365=EDGE_CURVE('',#294,#297,#181,.T.);
#366=EDGE_CURVE('',#298,#298,#250,.T.);
#367=EDGE_CURVE('',#299,#299,#251,.T.);
#368=EDGE_CURVE('',#299,#298,#182,.T.);
#369=EDGE_CURVE('',#300,#300,#252,.T.);
#370=EDGE_CURVE('',#301,#301,#253,.T.);
#371=EDGE_CURVE('',#301,#300,#183,.T.);
#372=EDGE_CURVE('',#302,#302,#254,.T.);
#373=EDGE_CURVE('',#303,#303,#255,.T.);
#374=EDGE_CURVE('',#303,#302,#184,.T.);
#375=EDGE_CURVE('',#304,#304,#256,.T.);
#376=EDGE_CURVE('',#305,#305,#257,.T.);
#377=EDGE_CURVE('',#305,#304,#185,.T.);
#378=ORIENTED_EDGE('',*,*,#306,.F.);
#379=ORIENTED_EDGE('',*,*,#307,.T.);
#380=ORIENTED_EDGE('',*,*,#308,.F.);
#381=ORIENTED_EDGE('',*,*,#307,.F.);
#382=ORIENTED_EDGE('',*,*,#309,.F.);
#383=ORIENTED_EDGE('',*,*,#310,.T.);
#384=ORIENTED_EDGE('',*,*,#311,.F.);
#385=ORIENTED_EDGE('',*,*,#310,.F.);
#386=ORIENTED_EDGE('',*,*,#312,.F.);
#387=ORIENTED_EDGE('',*,*,#313,.T.);
#388=ORIENTED_EDGE('',*,*,#314,.F.);
#389=ORIENTED_EDGE('',*,*,#313,.F.);
#390=ORIENTED_EDGE('',*,*,#315,.F.);
#391=ORIENTED_EDGE('',*,*,#316,.T.);
#392=ORIENTED_EDGE('',*,*,#317,.F.);
#393=ORIENTED_EDGE('',*,*,#316,.F.);
#394=ORIENTED_EDGE('',*,*,#318,.T.);
#395=ORIENTED_EDGE('',*,*,#319,.T.);
#396=ORIENTED_EDGE('',*,*,#320,.F.);
#397=ORIENTED_EDGE('',*,*,#321,.F.);
#398=ORIENTED_EDGE('',*,*,#322,.T.);
#399=ORIENTED_EDGE('',*,*,#321,.T.);
#400=ORIENTED_EDGE('',*,*,#323,.F.);
#401=ORIENTED_EDGE('',*,*,#324,.F.);
#402=ORIENTED_EDGE('',*,*,#325,.T.);
#403=ORIENTED_EDGE('',*,*,#324,.T.);
#404=ORIENTED_EDGE('',*,*,#326,.F.);
#405=ORIENTED_EDGE('',*,*,#327,.F.);
#406=ORIENTED_EDGE('',*,*,#328,.T.);
#407=ORIENTED_EDGE('',*,*,#327,.T.);
#408=ORIENTED_EDGE('',*,*,#329,.F.);
#409=ORIENTED_EDGE('',*,*,#330,.F.);
#410=ORIENTED_EDGE('',*,*,#331,.T.);
#411=ORIENTED_EDGE('',*,*,#330,.T.);
#412=ORIENTED_EDGE('',*,*,#332,.F.);
#413=ORIENTED_EDGE('',*,*,#333,.F.);
#414=ORIENTED_EDGE('',*,*,#334,.T.);
#415=ORIENTED_EDGE('',*,*,#333,.T.);
#416=ORIENTED_EDGE('',*,*,#335,.F.);
#417=ORIENTED_EDGE('',*,*,#336,.F.);
#418=ORIENTED_EDGE('',*,*,#337,.T.);
#419=ORIENTED_EDGE('',*,*,#336,.T.);
#420=ORIENTED_EDGE('',*,*,#338,.F.);
#421=ORIENTED_EDGE('',*,*,#339,.F.);
#422=ORIENTED_EDGE('',*,*,#340,.T.);
#423=ORIENTED_EDGE('',*,*,#339,.T.);
#424=ORIENTED_EDGE('',*,*,#341,.F.);
#425=ORIENTED_EDGE('',*,*,#319,.F.);
#426=ORIENTED_EDGE('',*,*,#341,.T.);
#427=ORIENTED_EDGE('',*,*,#338,.T.);
#428=ORIENTED_EDGE('',*,*,#335,.T.);
#429=ORIENTED_EDGE('',*,*,#332,.T.);
#430=ORIENTED_EDGE('',*,*,#329,.T.);
#431=ORIENTED_EDGE('',*,*,#326,.T.);
#432=ORIENTED_EDGE('',*,*,#323,.T.);
#433=ORIENTED_EDGE('',*,*,#320,.T.);
#434=ORIENTED_EDGE('',*,*,#342,.T.);
#435=ORIENTED_EDGE('',*,*,#343,.T.);
#436=ORIENTED_EDGE('',*,*,#344,.T.);
#437=ORIENTED_EDGE('',*,*,#345,.T.);
#438=ORIENTED_EDGE('',*,*,#315,.T.);
#439=ORIENTED_EDGE('',*,*,#312,.T.);
#440=ORIENTED_EDGE('',*,*,#309,.T.);
#441=ORIENTED_EDGE('',*,*,#306,.T.);
#442=ORIENTED_EDGE('',*,*,#340,.F.);
#443=ORIENTED_EDGE('',*,*,#318,.F.);
#444=ORIENTED_EDGE('',*,*,#322,.F.);
#445=ORIENTED_EDGE('',*,*,#325,.F.);
#446=ORIENTED_EDGE('',*,*,#328,.F.);
#447=ORIENTED_EDGE('',*,*,#331,.F.);
#448=ORIENTED_EDGE('',*,*,#334,.F.);
#449=ORIENTED_EDGE('',*,*,#337,.F.);
#450=ORIENTED_EDGE('',*,*,#346,.T.);
#451=ORIENTED_EDGE('',*,*,#347,.T.);
#452=ORIENTED_EDGE('',*,*,#348,.T.);
#453=ORIENTED_EDGE('',*,*,#349,.T.);
#454=ORIENTED_EDGE('',*,*,#317,.T.);
#455=ORIENTED_EDGE('',*,*,#314,.T.);
#456=ORIENTED_EDGE('',*,*,#311,.T.);
#457=ORIENTED_EDGE('',*,*,#308,.T.);
#458=ORIENTED_EDGE('',*,*,#350,.F.);
#459=ORIENTED_EDGE('',*,*,#351,.T.);
#460=ORIENTED_EDGE('',*,*,#342,.F.);
#461=ORIENTED_EDGE('',*,*,#351,.F.);
#462=ORIENTED_EDGE('',*,*,#352,.F.);
#463=ORIENTED_EDGE('',*,*,#353,.T.);
#464=ORIENTED_EDGE('',*,*,#345,.F.);
#465=ORIENTED_EDGE('',*,*,#353,.F.);
#466=ORIENTED_EDGE('',*,*,#354,.F.);
#467=ORIENTED_EDGE('',*,*,#355,.T.);
#468=ORIENTED_EDGE('',*,*,#343,.F.);
#469=ORIENTED_EDGE('',*,*,#355,.F.);
#470=ORIENTED_EDGE('',*,*,#356,.F.);
#471=ORIENTED_EDGE('',*,*,#357,.T.);
#472=ORIENTED_EDGE('',*,*,#344,.F.);
#473=ORIENTED_EDGE('',*,*,#357,.F.);
#474=ORIENTED_EDGE('',*,*,#358,.F.);
#475=ORIENTED_EDGE('',*,*,#359,.F.);
#476=ORIENTED_EDGE('',*,*,#360,.T.);
#477=ORIENTED_EDGE('',*,*,#348,.F.);
#478=ORIENTED_EDGE('',*,*,#360,.F.);
#479=ORIENTED_EDGE('',*,*,#361,.F.);
#480=ORIENTED_EDGE('',*,*,#362,.T.);
#481=ORIENTED_EDGE('',*,*,#349,.F.);
#482=ORIENTED_EDGE('',*,*,#362,.F.);
#483=ORIENTED_EDGE('',*,*,#363,.F.);
#484=ORIENTED_EDGE('',*,*,#364,.F.);
#485=ORIENTED_EDGE('',*,*,#346,.F.);
#486=ORIENTED_EDGE('',*,*,#364,.T.);
#487=ORIENTED_EDGE('',*,*,#365,.F.);
#488=ORIENTED_EDGE('',*,*,#358,.T.);
#489=ORIENTED_EDGE('',*,*,#347,.F.);
#490=ORIENTED_EDGE('',*,*,#365,.T.);
#491=ORIENTED_EDGE('',*,*,#363,.T.);
#492=ORIENTED_EDGE('',*,*,#361,.T.);
#493=ORIENTED_EDGE('',*,*,#359,.T.);
#494=ORIENTED_EDGE('',*,*,#356,.T.);
#495=ORIENTED_EDGE('',*,*,#354,.T.);
#496=ORIENTED_EDGE('',*,*,#352,.T.);
#497=ORIENTED_EDGE('',*,*,#350,.T.);
#498=ORIENTED_EDGE('',*,*,#366,.T.);
#499=ORIENTED_EDGE('',*,*,#367,.F.);
#500=ORIENTED_EDGE('',*,*,#368,.T.);
#501=ORIENTED_EDGE('',*,*,#366,.F.);
#502=ORIENTED_EDGE('',*,*,#368,.F.);
#503=ORIENTED_EDGE('',*,*,#367,.T.);
#504=ORIENTED_EDGE('',*,*,#369,.T.);
#505=ORIENTED_EDGE('',*,*,#370,.F.);
#506=ORIENTED_EDGE('',*,*,#371,.T.);
#507=ORIENTED_EDGE('',*,*,#369,.F.);
#508=ORIENTED_EDGE('',*,*,#371,.F.);
#509=ORIENTED_EDGE('',*,*,#370,.T.);
#510=ORIENTED_EDGE('',*,*,#372,.T.);
#511=ORIENTED_EDGE('',*,*,#373,.F.);
#512=ORIENTED_EDGE('',*,*,#374,.T.);
#513=ORIENTED_EDGE('',*,*,#372,.F.);
#514=ORIENTED_EDGE('',*,*,#374,.F.);
#515=ORIENTED_EDGE('',*,*,#373,.T.);
#516=ORIENTED_EDGE('',*,*,#375,.T.);
#517=ORIENTED_EDGE('',*,*,#376,.F.);
#518=ORIENTED_EDGE('',*,*,#377,.T.);
#519=ORIENTED_EDGE('',*,*,#375,.F.);
#520=ORIENTED_EDGE('',*,*,#377,.F.);
#521=ORIENTED_EDGE('',*,*,#376,.T.);
#522=CYLINDRICAL_SURFACE('',#579,0.8115);
#523=CYLINDRICAL_SURFACE('',#582,0.8115);
#524=CYLINDRICAL_SURFACE('',#585,0.8115);
#525=CYLINDRICAL_SURFACE('',#588,0.8115);
#526=CYLINDRICAL_SURFACE('',#592,1.99999999999942);
#527=CYLINDRICAL_SURFACE('',#596,1.99999999999999);
#528=CYLINDRICAL_SURFACE('',#600,2.);
#529=CYLINDRICAL_SURFACE('',#604,2.00000000000001);
#530=CYLINDRICAL_SURFACE('',#613,0.223606792751978);
#531=CYLINDRICAL_SURFACE('',#615,0.223499999999994);
#532=CYLINDRICAL_SURFACE('',#617,0.223606792751978);
#533=CYLINDRICAL_SURFACE('',#619,0.223606792751978);
#534=CYLINDRICAL_SURFACE('',#628,0.223606792751978);
#535=CYLINDRICAL_SURFACE('',#633,0.223606792751978);
#536=CYLINDRICAL_SURFACE('',#638,0.223499999999994);
#537=CYLINDRICAL_SURFACE('',#643,0.223606792751978);
#538=ADVANCED_FACE('',(#59),#522,.F.);
#539=ADVANCED_FACE('',(#60),#523,.F.);
#540=ADVANCED_FACE('',(#61),#524,.F.);
#541=ADVANCED_FACE('',(#62),#525,.F.);
#542=ADVANCED_FACE('',(#63),#40,.T.);
#543=ADVANCED_FACE('',(#64),#526,.T.);
#544=ADVANCED_FACE('',(#65),#41,.T.);
#545=ADVANCED_FACE('',(#66),#527,.T.);
#546=ADVANCED_FACE('',(#67),#42,.T.);
#547=ADVANCED_FACE('',(#68),#528,.T.);
#548=ADVANCED_FACE('',(#69),#43,.T.);
#549=ADVANCED_FACE('',(#70),#529,.T.);
#550=ADVANCED_FACE('',(#71,#23,#24,#25,#26,#27,#28,#29,#30),#44,.T.);
#551=ADVANCED_FACE('',(#72,#31,#32,#33,#34,#35),#45,.F.);
#552=ADVANCED_FACE('',(#73),#530,.F.);
#553=ADVANCED_FACE('',(#74),#531,.F.);
#554=ADVANCED_FACE('',(#75),#532,.F.);
#555=ADVANCED_FACE('',(#76),#533,.F.);
#556=ADVANCED_FACE('',(#77),#46,.T.);
#557=ADVANCED_FACE('',(#78),#47,.T.);
#558=ADVANCED_FACE('',(#79),#48,.T.);
#559=ADVANCED_FACE('',(#80),#49,.T.);
#560=ADVANCED_FACE('',(#81,#36,#37,#38,#39),#50,.F.);
#561=ADVANCED_FACE('',(#82),#51,.F.);
#562=ADVANCED_FACE('',(#83),#534,.T.);
#563=ADVANCED_FACE('',(#84),#52,.T.);
#564=ADVANCED_FACE('',(#85),#53,.F.);
#565=ADVANCED_FACE('',(#86),#535,.T.);
#566=ADVANCED_FACE('',(#87),#54,.T.);
#567=ADVANCED_FACE('',(#88),#55,.F.);
#568=ADVANCED_FACE('',(#89),#536,.T.);
#569=ADVANCED_FACE('',(#90),#56,.T.);
#570=ADVANCED_FACE('',(#91),#57,.F.);
#571=ADVANCED_FACE('',(#92),#537,.T.);
#572=ADVANCED_FACE('',(#93),#58,.T.);
#573=CLOSED_SHELL('',(#538,#539,#540,#541,#542,#543,#544,#545,#546,#547,
#548,#549,#550,#551,#552,#553,#554,#555,#556,#557,#558,#559,#560));
#574=CLOSED_SHELL('',(#561,#562,#563));
#575=CLOSED_SHELL('',(#564,#565,#566));
#576=CLOSED_SHELL('',(#567,#568,#569));
#577=CLOSED_SHELL('',(#570,#571,#572));
#578=AXIS2_PLACEMENT_3D('',#822,#646,#647);
#579=AXIS2_PLACEMENT_3D('',#823,#648,#649);
#580=AXIS2_PLACEMENT_3D('',#825,#650,#651);
#581=AXIS2_PLACEMENT_3D('',#828,#653,#654);
#582=AXIS2_PLACEMENT_3D('',#829,#655,#656);
#583=AXIS2_PLACEMENT_3D('',#831,#657,#658);
#584=AXIS2_PLACEMENT_3D('',#834,#660,#661);
#585=AXIS2_PLACEMENT_3D('',#835,#662,#663);
#586=AXIS2_PLACEMENT_3D('',#837,#664,#665);
#587=AXIS2_PLACEMENT_3D('',#840,#667,#668);
#588=AXIS2_PLACEMENT_3D('',#841,#669,#670);
#589=AXIS2_PLACEMENT_3D('',#843,#671,#672);
#590=AXIS2_PLACEMENT_3D('',#846,#674,#675);
#591=AXIS2_PLACEMENT_3D('',#847,#676,#677);
#592=AXIS2_PLACEMENT_3D('',#856,#682,#683);
#593=AXIS2_PLACEMENT_3D('',#858,#684,#685);
#594=AXIS2_PLACEMENT_3D('',#860,#686,#687);
#595=AXIS2_PLACEMENT_3D('',#862,#689,#690);
#596=AXIS2_PLACEMENT_3D('',#868,#694,#695);
#597=AXIS2_PLACEMENT_3D('',#870,#696,#697);
#598=AXIS2_PLACEMENT_3D('',#872,#698,#699);
#599=AXIS2_PLACEMENT_3D('',#874,#701,#702);
#600=AXIS2_PLACEMENT_3D('',#880,#706,#707);
#601=AXIS2_PLACEMENT_3D('',#882,#708,#709);
#602=AXIS2_PLACEMENT_3D('',#884,#710,#711);
#603=AXIS2_PLACEMENT_3D('',#886,#713,#714);
#604=AXIS2_PLACEMENT_3D('',#892,#718,#719);
#605=AXIS2_PLACEMENT_3D('',#893,#720,#721);
#606=AXIS2_PLACEMENT_3D('',#894,#722,#723);
#607=AXIS2_PLACEMENT_3D('',#895,#724,#725);
#608=AXIS2_PLACEMENT_3D('',#897,#726,#727);
#609=AXIS2_PLACEMENT_3D('',#899,#728,#729);
#610=AXIS2_PLACEMENT_3D('',#901,#730,#731);
#611=AXIS2_PLACEMENT_3D('',#903,#732,#733);
#612=AXIS2_PLACEMENT_3D('',#904,#734,#735);
#613=AXIS2_PLACEMENT_3D('',#913,#740,#741);
#614=AXIS2_PLACEMENT_3D('',#915,#742,#743);
#615=AXIS2_PLACEMENT_3D('',#917,#745,#746);
#616=AXIS2_PLACEMENT_3D('',#919,#747,#748);
#617=AXIS2_PLACEMENT_3D('',#921,#750,#751);
#618=AXIS2_PLACEMENT_3D('',#923,#752,#753);
#619=AXIS2_PLACEMENT_3D('',#925,#755,#756);
#620=AXIS2_PLACEMENT_3D('',#927,#757,#758);
#621=AXIS2_PLACEMENT_3D('',#929,#760,#761);
#622=AXIS2_PLACEMENT_3D('',#935,#765,#766);
#623=AXIS2_PLACEMENT_3D('',#939,#769,#770);
#624=AXIS2_PLACEMENT_3D('',#943,#773,#774);
#625=AXIS2_PLACEMENT_3D('',#945,#776,#777);
#626=AXIS2_PLACEMENT_3D('',#946,#778,#779);
#627=AXIS2_PLACEMENT_3D('',#948,#780,#781);
#628=AXIS2_PLACEMENT_3D('',#949,#782,#783);
#629=AXIS2_PLACEMENT_3D('',#951,#784,#785);
#630=AXIS2_PLACEMENT_3D('',#953,#787,#788);
#631=AXIS2_PLACEMENT_3D('',#954,#789,#790);
#632=AXIS2_PLACEMENT_3D('',#956,#791,#792);
#633=AXIS2_PLACEMENT_3D('',#957,#793,#794);
#634=AXIS2_PLACEMENT_3D('',#959,#795,#796);
#635=AXIS2_PLACEMENT_3D('',#961,#798,#799);
#636=AXIS2_PLACEMENT_3D('',#962,#800,#801);
#637=AXIS2_PLACEMENT_3D('',#964,#802,#803);
#638=AXIS2_PLACEMENT_3D('',#965,#804,#805);
#639=AXIS2_PLACEMENT_3D('',#967,#806,#807);
#640=AXIS2_PLACEMENT_3D('',#969,#809,#810);
#641=AXIS2_PLACEMENT_3D('',#970,#811,#812);
#642=AXIS2_PLACEMENT_3D('',#972,#813,#814);
#643=AXIS2_PLACEMENT_3D('',#973,#815,#816);
#644=AXIS2_PLACEMENT_3D('',#975,#817,#818);
#645=AXIS2_PLACEMENT_3D('',#977,#820,#821);
#646=DIRECTION('axis',(0.,0.,1.));
#647=DIRECTION('refdir',(1.,0.,0.));
#648=DIRECTION('center_axis',(0.,-1.,0.));
#649=DIRECTION('ref_axis',(1.,0.,0.));
#650=DIRECTION('center_axis',(0.,-1.,-3.86252079633945E-16));
#651=DIRECTION('ref_axis',(1.,0.,0.));
#652=DIRECTION('',(0.,-1.,0.));
#653=DIRECTION('center_axis',(0.,-1.,-3.86252079633945E-16));
#654=DIRECTION('ref_axis',(1.,0.,0.));
#655=DIRECTION('center_axis',(0.,-1.,0.));
#656=DIRECTION('ref_axis',(1.,0.,0.));
#657=DIRECTION('center_axis',(0.,-1.,-3.86252079633945E-16));
#658=DIRECTION('ref_axis',(1.,0.,0.));
#659=DIRECTION('',(0.,-1.,0.));
#660=DIRECTION('center_axis',(0.,-1.,-3.86252079633945E-16));
#661=DIRECTION('ref_axis',(1.,0.,0.));
#662=DIRECTION('center_axis',(0.,-1.,0.));
#663=DIRECTION('ref_axis',(1.,0.,0.));
#664=DIRECTION('center_axis',(0.,-1.,-3.86252079633945E-16));
#665=DIRECTION('ref_axis',(1.,0.,0.));
#666=DIRECTION('',(0.,-1.,0.));
#667=DIRECTION('center_axis',(0.,-1.,-3.86252079633945E-16));
#668=DIRECTION('ref_axis',(1.,0.,0.));
#669=DIRECTION('center_axis',(0.,-1.,0.));
#670=DIRECTION('ref_axis',(1.,0.,0.));
#671=DIRECTION('center_axis',(0.,-1.,-3.86252079633945E-16));
#672=DIRECTION('ref_axis',(1.,0.,0.));
#673=DIRECTION('',(0.,-1.,0.));
#674=DIRECTION('center_axis',(0.,-1.,-3.86252079633945E-16));
#675=DIRECTION('ref_axis',(1.,0.,0.));
#676=DIRECTION('center_axis',(-1.,0.,0.));
#677=DIRECTION('ref_axis',(0.,-9.65630199084834E-17,1.));
#678=DIRECTION('',(0.,-9.65630199084834E-17,1.));
#679=DIRECTION('',(0.,1.,0.));
#680=DIRECTION('',(0.,-9.65630199084834E-17,1.));
#681=DIRECTION('',(0.,1.,0.));
#682=DIRECTION('center_axis',(0.,1.,0.));
#683=DIRECTION('ref_axis',(-4.44089209850191E-14,0.,-1.));
#684=DIRECTION('center_axis',(-2.21867129593538E-28,1.,-4.99600361081465E-15));
#685=DIRECTION('ref_axis',(-4.44089209850191E-14,-4.99600361081465E-15,
-1.));
#686=DIRECTION('center_axis',(-2.21867129593538E-28,1.,-4.99600361081465E-15));
#687=DIRECTION('ref_axis',(-4.44089209850191E-14,-4.99600361081465E-15,
-1.));
#688=DIRECTION('',(0.,1.,0.));
#689=DIRECTION('center_axis',(-8.43125877872734E-15,0.,-1.));
#690=DIRECTION('ref_axis',(-1.,-6.43607540360865E-17,8.43125877872734E-15));
#691=DIRECTION('',(-1.,-6.43607540360865E-17,8.43125877872734E-15));
#692=DIRECTION('',(-1.,-6.43607540360865E-17,8.43125877872734E-15));
#693=DIRECTION('',(0.,1.,0.));
#694=DIRECTION('center_axis',(0.,1.,0.));
#695=DIRECTION('ref_axis',(1.,0.,4.16333634234435E-16));
#696=DIRECTION('center_axis',(-5.5511151231258E-16,1.,-2.3111159332647E-31));
#697=DIRECTION('ref_axis',(1.,5.5511151231258E-16,4.16333634234435E-16));
#698=DIRECTION('center_axis',(-5.5511151231258E-16,1.,-2.3111159332647E-31));
#699=DIRECTION('ref_axis',(1.,5.5511151231258E-16,4.16333634234435E-16));
#700=DIRECTION('',(0.,1.,0.));
#701=DIRECTION('center_axis',(1.,0.,2.31751247780367E-15));
#702=DIRECTION('ref_axis',(2.31751247780367E-15,3.86252079633945E-16,-1.));
#703=DIRECTION('',(2.31751247780367E-15,3.86252079633945E-16,-1.));
#704=DIRECTION('',(2.31751247780367E-15,3.86252079633945E-16,-1.));
#705=DIRECTION('',(0.,1.,0.));
#706=DIRECTION('center_axis',(0.,1.,0.));
#707=DIRECTION('ref_axis',(0.,0.,1.));
#708=DIRECTION('center_axis',(0.,1.,0.));
#709=DIRECTION('ref_axis',(0.,0.,1.));
#710=DIRECTION('center_axis',(0.,1.,0.));
#711=DIRECTION('ref_axis',(0.,0.,1.));
#712=DIRECTION('',(0.,1.,0.));
#713=DIRECTION('center_axis',(0.,0.,1.));
#714=DIRECTION('ref_axis',(1.,0.,0.));
#715=DIRECTION('',(1.,0.,0.));
#716=DIRECTION('',(1.,0.,0.));
#717=DIRECTION('',(0.,1.,0.));
#718=DIRECTION('center_axis',(0.,1.,0.));
#719=DIRECTION('ref_axis',(-1.,0.,6.6613381477509E-15));
#720=DIRECTION('center_axis',(0.,1.,0.));
#721=DIRECTION('ref_axis',(-1.,0.,6.6613381477509E-15));
#722=DIRECTION('center_axis',(0.,1.,0.));
#723=DIRECTION('ref_axis',(-1.,0.,6.6613381477509E-15));
#724=DIRECTION('center_axis',(0.,1.,3.86252079633945E-16));
#725=DIRECTION('ref_axis',(1.,0.,0.));
#726=DIRECTION('center_axis',(0.,-1.,0.));
#727=DIRECTION('ref_axis',(1.,0.,0.));
#728=DIRECTION('center_axis',(0.,-1.,0.));
#729=DIRECTION('ref_axis',(1.,0.,0.));
#730=DIRECTION('center_axis',(0.,-1.,0.));
#731=DIRECTION('ref_axis',(1.,0.,0.));
#732=DIRECTION('center_axis',(0.,-1.,0.));
#733=DIRECTION('ref_axis',(1.,0.,0.));
#734=DIRECTION('center_axis',(0.,1.,3.86252079633945E-16));
#735=DIRECTION('ref_axis',(1.,0.,0.));
#736=DIRECTION('',(0.,3.86252079633945E-16,-1.));
#737=DIRECTION('',(-1.,0.,0.));
#738=DIRECTION('',(0.,-3.86252079633945E-16,1.));
#739=DIRECTION('',(1.,0.,0.));
#740=DIRECTION('center_axis',(0.,-1.,0.));
#741=DIRECTION('ref_axis',(1.,0.,0.));
#742=DIRECTION('center_axis',(0.,1.,0.));
#743=DIRECTION('ref_axis',(1.,0.,0.));
#744=DIRECTION('',(0.,1.,0.));
#745=DIRECTION('center_axis',(0.,-1.,0.));
#746=DIRECTION('ref_axis',(1.,0.,0.));
#747=DIRECTION('center_axis',(0.,1.,0.));
#748=DIRECTION('ref_axis',(1.,0.,0.));
#749=DIRECTION('',(0.,1.,0.));
#750=DIRECTION('center_axis',(0.,-1.,0.));
#751=DIRECTION('ref_axis',(1.,0.,0.));
#752=DIRECTION('center_axis',(0.,1.,0.));
#753=DIRECTION('ref_axis',(1.,0.,0.));
#754=DIRECTION('',(0.,1.,0.));
#755=DIRECTION('center_axis',(0.,-1.,0.));
#756=DIRECTION('ref_axis',(1.,0.,0.));
#757=DIRECTION('center_axis',(0.,1.,0.));
#758=DIRECTION('ref_axis',(1.,0.,0.));
#759=DIRECTION('',(0.,1.,0.));
#760=DIRECTION('center_axis',(-1.,0.,0.));
#761=DIRECTION('ref_axis',(0.,0.,-1.));
#762=DIRECTION('',(0.,1.,0.));
#763=DIRECTION('',(0.,0.,-1.));
#764=DIRECTION('',(0.,1.,0.));
#765=DIRECTION('center_axis',(0.,0.,1.));
#766=DIRECTION('ref_axis',(-1.,0.,0.));
#767=DIRECTION('',(-1.,0.,0.));
#768=DIRECTION('',(0.,1.,0.));
#769=DIRECTION('center_axis',(1.,0.,0.));
#770=DIRECTION('ref_axis',(0.,0.,1.));
#771=DIRECTION('',(0.,0.,1.));
#772=DIRECTION('',(0.,-1.,0.));
#773=DIRECTION('center_axis',(0.,0.,-1.));
#774=DIRECTION('ref_axis',(1.,0.,0.));
#775=DIRECTION('',(1.,0.,0.));
#776=DIRECTION('center_axis',(0.,1.,0.));
#777=DIRECTION('ref_axis',(1.,0.,0.));
#778=DIRECTION('center_axis',(0.,1.,0.));
#779=DIRECTION('ref_axis',(1.,0.,0.));
#780=DIRECTION('center_axis',(0.,-1.,0.));
#781=DIRECTION('ref_axis',(1.,0.,0.));
#782=DIRECTION('center_axis',(0.,1.,0.));
#783=DIRECTION('ref_axis',(1.,0.,0.));
#784=DIRECTION('center_axis',(0.,1.,0.));
#785=DIRECTION('ref_axis',(1.,0.,0.));
#786=DIRECTION('',(0.,-1.,0.));
#787=DIRECTION('center_axis',(0.,1.,0.));
#788=DIRECTION('ref_axis',(1.,0.,0.));
#789=DIRECTION('center_axis',(0.,1.,0.));
#790=DIRECTION('ref_axis',(1.,0.,0.));
#791=DIRECTION('center_axis',(0.,-1.,0.));
#792=DIRECTION('ref_axis',(1.,0.,0.));
#793=DIRECTION('center_axis',(0.,1.,0.));
#794=DIRECTION('ref_axis',(1.,0.,0.));
#795=DIRECTION('center_axis',(0.,1.,0.));
#796=DIRECTION('ref_axis',(1.,0.,0.));
#797=DIRECTION('',(0.,-1.,0.));
#798=DIRECTION('center_axis',(0.,1.,0.));
#799=DIRECTION('ref_axis',(1.,0.,0.));
#800=DIRECTION('center_axis',(0.,1.,0.));
#801=DIRECTION('ref_axis',(1.,0.,0.));
#802=DIRECTION('center_axis',(0.,-1.,0.));
#803=DIRECTION('ref_axis',(1.,0.,0.));
#804=DIRECTION('center_axis',(0.,1.,0.));
#805=DIRECTION('ref_axis',(1.,0.,0.));
#806=DIRECTION('center_axis',(0.,1.,0.));
#807=DIRECTION('ref_axis',(1.,0.,0.));
#808=DIRECTION('',(0.,-1.,0.));
#809=DIRECTION('center_axis',(0.,1.,0.));
#810=DIRECTION('ref_axis',(1.,0.,0.));
#811=DIRECTION('center_axis',(0.,1.,0.));
#812=DIRECTION('ref_axis',(1.,0.,0.));
#813=DIRECTION('center_axis',(0.,-1.,0.));
#814=DIRECTION('ref_axis',(1.,0.,0.));
#815=DIRECTION('center_axis',(0.,1.,0.));
#816=DIRECTION('ref_axis',(1.,0.,0.));
#817=DIRECTION('center_axis',(0.,1.,0.));
#818=DIRECTION('ref_axis',(1.,0.,0.));
#819=DIRECTION('',(0.,-1.,0.));
#820=DIRECTION('center_axis',(0.,1.,0.));
#821=DIRECTION('ref_axis',(1.,0.,0.));
#822=CARTESIAN_POINT('',(0.,0.,0.));
#823=CARTESIAN_POINT('Origin',(72.7590341814387,10.8,-1.39467810270306));
#824=CARTESIAN_POINT('',(71.9475341814387,10.75,-1.39467810270306));
#825=CARTESIAN_POINT('Origin',(72.7590341814387,10.75,-1.39467810270306));
#826=CARTESIAN_POINT('',(71.9475341814387,8.75000000000001,-1.39467810270306));
#827=CARTESIAN_POINT('',(71.9475341814387,10.8,-1.39467810270306));
#828=CARTESIAN_POINT('Origin',(72.7590341814387,8.75000000000001,-1.39467810270306));
#829=CARTESIAN_POINT('Origin',(142.119564133762,10.8,22.2953394623561));
#830=CARTESIAN_POINT('',(141.308064133762,10.75,22.2953394623561));
#831=CARTESIAN_POINT('Origin',(142.119564133762,10.75,22.2953394623561));
#832=CARTESIAN_POINT('',(141.308064133762,8.75000000000001,22.2953394623561));
#833=CARTESIAN_POINT('',(141.308064133762,10.8,22.2953394623561));
#834=CARTESIAN_POINT('Origin',(142.119564133762,8.75000000000001,22.2953394623561));
#835=CARTESIAN_POINT('Origin',(73.2324152638347,10.8,22.1529347382126));
#836=CARTESIAN_POINT('',(72.4209152638347,10.75,22.1529347382126));
#837=CARTESIAN_POINT('Origin',(73.2324152638347,10.75,22.1529347382126));
#838=CARTESIAN_POINT('',(72.4209152638347,8.75000000000001,22.1529347382126));
#839=CARTESIAN_POINT('',(72.4209152638347,10.8,22.1529347382126));
#840=CARTESIAN_POINT('Origin',(73.2324152638347,8.75000000000001,22.1529347382126));
#841=CARTESIAN_POINT('Origin',(142.181957897525,10.8,-1.27464589991665));
#842=CARTESIAN_POINT('',(141.370457897525,10.75,-1.27464589991665));
#843=CARTESIAN_POINT('Origin',(142.181957897525,10.75,-1.27464589991665));
#844=CARTESIAN_POINT('',(141.370457897525,8.75000000000001,-1.27464589991665));
#845=CARTESIAN_POINT('',(141.370457897525,10.8,-1.27464589991665));
#846=CARTESIAN_POINT('Origin',(142.181957897525,8.75000000000001,-1.27464589991665));
#847=CARTESIAN_POINT('Origin',(71.0000010579824,8.75,-0.994786377032239));
#848=CARTESIAN_POINT('',(71.000001057983,8.75,-0.994786377032239));
#849=CARTESIAN_POINT('',(71.0000010579824,8.75,22.0000003576279));
#850=CARTESIAN_POINT('',(71.0000010579824,8.75,-0.994786377032239));
#851=CARTESIAN_POINT('',(71.0000010579824,10.75,22.0000003576279));
#852=CARTESIAN_POINT('',(71.0000010579824,8.75,22.0000003576279));
#853=CARTESIAN_POINT('',(71.000001057983,10.75,-0.99478637703224));
#854=CARTESIAN_POINT('',(71.0000010579824,10.75,-0.994786377032239));
#855=CARTESIAN_POINT('',(71.000001057983,8.75,-0.994786377032239));
#856=CARTESIAN_POINT('Origin',(73.0000010579825,8.75,-0.994786377032239));
#857=CARTESIAN_POINT('',(73.0000010579824,8.74999999999999,-2.99478637703166));
#858=CARTESIAN_POINT('Origin',(73.0000010579825,8.75,-0.994786377032239));
#859=CARTESIAN_POINT('',(73.0000010579824,10.75,-2.99478637703166));
#860=CARTESIAN_POINT('Origin',(73.0000010579825,10.75,-0.994786377032239));
#861=CARTESIAN_POINT('',(73.0000010579824,8.74999999999999,-2.99478637703166));
#862=CARTESIAN_POINT('Origin',(142.000002145767,8.75,-2.99478637703224));
#863=CARTESIAN_POINT('',(142.000002145767,8.75,-2.99478637703224));
#864=CARTESIAN_POINT('',(142.000002145767,8.75,-2.99478637703224));
#865=CARTESIAN_POINT('',(142.000002145767,10.75,-2.99478637703224));
#866=CARTESIAN_POINT('',(142.000002145767,10.75,-2.99478637703224));
#867=CARTESIAN_POINT('',(142.000002145767,8.75,-2.99478637703224));
#868=CARTESIAN_POINT('Origin',(142.000002145767,8.75,-0.994786377032248));
#869=CARTESIAN_POINT('',(144.000002145767,8.75,-0.994786377032248));
#870=CARTESIAN_POINT('Origin',(142.000002145767,8.75,-0.994786377032248));
#871=CARTESIAN_POINT('',(144.000002145767,10.75,-0.994786377032248));
#872=CARTESIAN_POINT('Origin',(142.000002145767,10.75,-0.994786377032248));
#873=CARTESIAN_POINT('',(144.000002145767,8.75,-0.994786377032248));
#874=CARTESIAN_POINT('Origin',(144.000002145767,8.74999999999999,22.0000003576272));
#875=CARTESIAN_POINT('',(144.000002145767,8.75,22.0000003576272));
#876=CARTESIAN_POINT('',(144.000002145767,8.74999999999999,22.0000003576272));
#877=CARTESIAN_POINT('',(144.000002145767,10.75,22.0000003576272));
#878=CARTESIAN_POINT('',(144.000002145767,10.75,22.0000003576272));
#879=CARTESIAN_POINT('',(144.000002145767,8.75,22.0000003576272));
#880=CARTESIAN_POINT('Origin',(142.000002145767,8.75,22.0000003576279));
#881=CARTESIAN_POINT('',(142.000002145767,8.75,24.0000003576279));
#882=CARTESIAN_POINT('Origin',(142.000002145767,8.75,22.0000003576279));
#883=CARTESIAN_POINT('',(142.000002145767,10.75,24.0000003576279));
#884=CARTESIAN_POINT('Origin',(142.000002145767,10.75,22.0000003576279));
#885=CARTESIAN_POINT('',(142.000002145767,8.75,24.0000003576279));
#886=CARTESIAN_POINT('Origin',(73.0000010579824,8.75,24.0000003576279));
#887=CARTESIAN_POINT('',(73.0000010579824,8.75,24.0000003576279));
#888=CARTESIAN_POINT('',(73.0000010579824,8.75,24.0000003576279));
#889=CARTESIAN_POINT('',(73.0000010579824,10.75,24.0000003576279));
#890=CARTESIAN_POINT('',(73.0000010579824,10.75,24.0000003576279));
#891=CARTESIAN_POINT('',(73.0000010579824,8.75,24.0000003576279));
#892=CARTESIAN_POINT('Origin',(73.0000010579825,8.75,22.0000003576279));
#893=CARTESIAN_POINT('Origin',(73.0000010579825,8.75,22.0000003576279));
#894=CARTESIAN_POINT('Origin',(73.0000010579825,10.75,22.0000003576279));
#895=CARTESIAN_POINT('Origin',(107.500001601875,10.75,10.5026069902978));
#896=CARTESIAN_POINT('',(76.1763914995749,10.75,17.2999996133149));
#897=CARTESIAN_POINT('Origin',(76.3999982923269,10.75,17.2999996133149));
#898=CARTESIAN_POINT('',(73.5763915576895,10.75,17.2999996133149));
#899=CARTESIAN_POINT('Origin',(73.7999983504415,10.75,17.2999996133149));
#900=CARTESIAN_POINT('',(78.7763914414604,10.75,17.2999996133149));
#901=CARTESIAN_POINT('Origin',(78.9999982342124,10.75,17.2999996133149));
#902=CARTESIAN_POINT('',(81.3764981760979,10.75,17.2999996133149));
#903=CARTESIAN_POINT('Origin',(81.5999981760979,10.75,17.2999996133149));
#904=CARTESIAN_POINT('Origin',(107.500001601875,8.75000000000001,10.5026069902978));
#905=CARTESIAN_POINT('',(82.4818974736068,8.75,18.6984827432432));
#906=CARTESIAN_POINT('',(82.4818974736068,8.75,15.9344334014986));
#907=CARTESIAN_POINT('',(82.4818974736068,8.75,14.6005448667705));
#908=CARTESIAN_POINT('',(73.0000010877848,8.75,15.9344334014986));
#909=CARTESIAN_POINT('',(94.9909495377408,8.75,15.9344334014986));
#910=CARTESIAN_POINT('',(73.0000010877848,8.75,18.6984827432432));
#911=CARTESIAN_POINT('',(73.0000010877848,8.75,13.2185201958982));
#912=CARTESIAN_POINT('',(90.2500013448298,8.75,18.6984827432432));
#913=CARTESIAN_POINT('Origin',(76.3999982923269,7.5,17.2999996133149));
#914=CARTESIAN_POINT('',(76.1763914995749,5.2,17.2999996133149));
#915=CARTESIAN_POINT('Origin',(76.3999982923269,5.2,17.2999996133149));
#916=CARTESIAN_POINT('',(76.1763914995749,7.5,17.2999996133149));
#917=CARTESIAN_POINT('Origin',(81.5999981760979,7.5,17.2999996133149));
#918=CARTESIAN_POINT('',(81.3764981760979,5.2,17.2999996133149));
#919=CARTESIAN_POINT('Origin',(81.5999981760979,5.2,17.2999996133149));
#920=CARTESIAN_POINT('',(81.3764981760979,7.5,17.2999996133149));
#921=CARTESIAN_POINT('Origin',(73.7999983504415,7.5,17.2999996133149));
#922=CARTESIAN_POINT('',(73.5763915576895,5.2,17.2999996133149));
#923=CARTESIAN_POINT('Origin',(73.7999983504415,5.2,17.2999996133149));
#924=CARTESIAN_POINT('',(73.5763915576895,7.5,17.2999996133149));
#925=CARTESIAN_POINT('Origin',(78.9999982342124,7.5,17.2999996133149));
#926=CARTESIAN_POINT('',(78.7763914414604,5.2,17.2999996133149));
#927=CARTESIAN_POINT('Origin',(78.9999982342124,5.2,17.2999996133149));
#928=CARTESIAN_POINT('',(78.7763914414604,7.5,17.2999996133149));
#929=CARTESIAN_POINT('Origin',(73.0000010877848,7.5,18.6984827432432));
#930=CARTESIAN_POINT('',(73.0000010877848,5.2,15.9344334014986));
#931=CARTESIAN_POINT('',(73.0000010877848,7.5,15.9344334014986));
#932=CARTESIAN_POINT('',(73.0000010877848,5.2,18.6984827432432));
#933=CARTESIAN_POINT('',(73.0000010877848,5.2,18.6984827432432));
#934=CARTESIAN_POINT('',(73.0000010877848,7.5,18.6984827432432));
#935=CARTESIAN_POINT('Origin',(82.4818974736068,7.5,18.6984827432432));
#936=CARTESIAN_POINT('',(82.4818974736068,5.2,18.6984827432432));
#937=CARTESIAN_POINT('',(82.4818974736068,5.2,18.6984827432432));
#938=CARTESIAN_POINT('',(82.4818974736068,7.5,18.6984827432432));
#939=CARTESIAN_POINT('Origin',(82.4818974736068,7.5,15.9344334014986));
#940=CARTESIAN_POINT('',(82.4818974736068,5.2,15.9344334014986));
#941=CARTESIAN_POINT('',(82.4818974736068,5.2,15.9344334014986));
#942=CARTESIAN_POINT('',(82.4818974736068,7.5,15.9344334014986));
#943=CARTESIAN_POINT('Origin',(73.0000010877848,7.5,15.9344334014986));
#944=CARTESIAN_POINT('',(73.0000010877848,5.2,15.9344334014986));
#945=CARTESIAN_POINT('Origin',(77.7409492806958,5.2,17.3164580723709));
#946=CARTESIAN_POINT('Origin',(78.9999982342124,5.2,17.2999996133149));
#947=CARTESIAN_POINT('',(78.7763914414604,5.2,17.2999996133149));
#948=CARTESIAN_POINT('Origin',(78.9999982342124,5.2,17.2999996133149));
#949=CARTESIAN_POINT('Origin',(78.9999982342124,7.5,17.2999996133149));
#950=CARTESIAN_POINT('',(78.7763914414604,10.75,17.2999996133149));
#951=CARTESIAN_POINT('Origin',(78.9999982342124,10.75,17.2999996133149));
#952=CARTESIAN_POINT('',(78.7763914414604,7.5,17.2999996133149));
#953=CARTESIAN_POINT('Origin',(78.9999982342124,10.75,17.2999996133149));
#954=CARTESIAN_POINT('Origin',(76.3999982923269,5.2,17.2999996133149));
#955=CARTESIAN_POINT('',(76.1763914995749,5.2,17.2999996133149));
#956=CARTESIAN_POINT('Origin',(76.3999982923269,5.2,17.2999996133149));
#957=CARTESIAN_POINT('Origin',(76.3999982923269,7.5,17.2999996133149));
#958=CARTESIAN_POINT('',(76.1763914995749,10.75,17.2999996133149));
#959=CARTESIAN_POINT('Origin',(76.3999982923269,10.75,17.2999996133149));
#960=CARTESIAN_POINT('',(76.1763914995749,7.5,17.2999996133149));
#961=CARTESIAN_POINT('Origin',(76.3999982923269,10.75,17.2999996133149));
#962=CARTESIAN_POINT('Origin',(81.5999981760979,5.2,17.2999996133149));
#963=CARTESIAN_POINT('',(81.3764981760979,5.2,17.2999996133149));
#964=CARTESIAN_POINT('Origin',(81.5999981760979,5.2,17.2999996133149));
#965=CARTESIAN_POINT('Origin',(81.5999981760979,7.5,17.2999996133149));
#966=CARTESIAN_POINT('',(81.3764981760979,10.75,17.2999996133149));
#967=CARTESIAN_POINT('Origin',(81.5999981760979,10.75,17.2999996133149));
#968=CARTESIAN_POINT('',(81.3764981760979,7.5,17.2999996133149));
#969=CARTESIAN_POINT('Origin',(81.5999981760979,10.75,17.2999996133149));
#970=CARTESIAN_POINT('Origin',(73.7999983504415,5.2,17.2999996133149));
#971=CARTESIAN_POINT('',(73.5763915576895,5.2,17.2999996133149));
#972=CARTESIAN_POINT('Origin',(73.7999983504415,5.2,17.2999996133149));
#973=CARTESIAN_POINT('Origin',(73.7999983504415,7.5,17.2999996133149));
#974=CARTESIAN_POINT('',(73.5763915576895,10.75,17.2999996133149));
#975=CARTESIAN_POINT('Origin',(73.7999983504415,10.75,17.2999996133149));
#976=CARTESIAN_POINT('',(73.5763915576895,7.5,17.2999996133149));
#977=CARTESIAN_POINT('Origin',(73.7999983504415,10.75,17.2999996133149));
#978=UNCERTAINTY_MEASURE_WITH_UNIT(LENGTH_MEASURE(0.01),#982,
'DISTANCE_ACCURACY_VALUE',
'Maximum model space distance between geometric entities at asserted c
onnectivities');
#979=UNCERTAINTY_MEASURE_WITH_UNIT(LENGTH_MEASURE(0.01),#982,
'DISTANCE_ACCURACY_VALUE',
'Maximum model space distance between geometric entities at asserted c
onnectivities');
#980=(
GEOMETRIC_REPRESENTATION_CONTEXT(3)
GLOBAL_UNCERTAINTY_ASSIGNED_CONTEXT((#978))
GLOBAL_UNIT_ASSIGNED_CONTEXT((#982,#983,#984))
REPRESENTATION_CONTEXT('','3D')
);
#981=(
GEOMETRIC_REPRESENTATION_CONTEXT(3)
GLOBAL_UNCERTAINTY_ASSIGNED_CONTEXT((#979))
GLOBAL_UNIT_ASSIGNED_CONTEXT((#982,#983,#984))
REPRESENTATION_CONTEXT('','3D')
);
#982=(
LENGTH_UNIT()
NAMED_UNIT(*)
SI_UNIT(.MILLI.,.METRE.)
);
#983=(
NAMED_UNIT(*)
PLANE_ANGLE_UNIT()
SI_UNIT($,.RADIAN.)
);
#984=(
NAMED_UNIT(*)
SI_UNIT($,.STERADIAN.)
SOLID_ANGLE_UNIT()
);
#985=SHAPE_DEFINITION_REPRESENTATION(#986,#987);
#986=PRODUCT_DEFINITION_SHAPE('',$,#989);
#987=SHAPE_REPRESENTATION('',(#578),#980);
#988=PRODUCT_DEFINITION_CONTEXT('part definition',#993,'design');
#989=PRODUCT_DEFINITION('casing','casing v17',#990,#988);
#990=PRODUCT_DEFINITION_FORMATION('',$,#995);
#991=PRODUCT_RELATED_PRODUCT_CATEGORY('casing v17','casing v17',(#995));
#992=APPLICATION_PROTOCOL_DEFINITION('international standard',
'automotive_design',2009,#993);
#993=APPLICATION_CONTEXT(
'Core Data for Automotive Mechanical Design Process');
#994=PRODUCT_CONTEXT('part definition',#993,'mechanical');
#995=PRODUCT('casing','casing v17',$,(#994));
#996=PRESENTATION_STYLE_ASSIGNMENT((#999));
#997=PRESENTATION_STYLE_ASSIGNMENT((#1000));
#998=PRESENTATION_STYLE_ASSIGNMENT((#1001));
#999=SURFACE_STYLE_USAGE(.BOTH.,#1002);
#1000=SURFACE_STYLE_USAGE(.BOTH.,#1003);
#1001=SURFACE_STYLE_USAGE(.BOTH.,#1004);
#1002=SURFACE_SIDE_STYLE('',(#1005));
#1003=SURFACE_SIDE_STYLE('',(#1006));
#1004=SURFACE_SIDE_STYLE('',(#1007));
#1005=SURFACE_STYLE_FILL_AREA(#1008);
#1006=SURFACE_STYLE_FILL_AREA(#1009);
#1007=SURFACE_STYLE_FILL_AREA(#1010);
#1008=FILL_AREA_STYLE('Steel - Satin',(#1011));
#1009=FILL_AREA_STYLE('EPX 82 (with Carbon M2 M3 L1 3D Printers)',(#1012));
#1010=FILL_AREA_STYLE('Acrylic (Clear)',(#1013));
#1011=FILL_AREA_STYLE_COLOUR('Steel - Satin',#1014);
#1012=FILL_AREA_STYLE_COLOUR(
'EPX 82 (with Carbon M2 M3 L1 3D Printers)',#1015);
#1013=FILL_AREA_STYLE_COLOUR('Acrylic (Clear)',#1016);
#1014=COLOUR_RGB('Steel - Satin',0.627450980392157,0.627450980392157,0.627450980392157);
#1015=COLOUR_RGB('EPX 82 (with Carbon M2 M3 L1 3D Printers)',0.247058823529412,
0.247058823529412,0.247058823529412);
#1016=COLOUR_RGB('Acrylic (Clear)',0.964705882352941,0.964705882352941,
0.952941176470588);
ENDSEC;
END-ISO-10303-21;
