ISO-10303-21;
HEADER;
/* Generated by software containing ST-Developer
 * from STEP Tools, Inc. (www.steptools.com) 
 */

FILE_DESCRIPTION(
/* description */ (''),
/* implementation_level */ '2;1');

FILE_NAME(
/* name */ 'upper.step',
/* time_stamp */ '2026-06-21T06:12:54+07:00',
/* author */ (''),
/* organization */ (''),
/* preprocessor_version */ 'ST-DEVELOPER v20.1',
/* originating_system */ 'Autodesk Translation Framework v15.8.0.0',
/* authorisation */ '');

FILE_SCHEMA (('AUTOMOTIVE_DESIGN { 1 0 10303 214 3 1 1 }'));
ENDSEC;

DATA;
#10=MECHANICAL_DESIGN_GEOMETRIC_PRESENTATION_REPRESENTATION('',(#13),#1127);
#11=SHAPE_REPRESENTATION_RELATIONSHIP('SRR','None',#1133,#12);
#12=ADVANCED_BREP_SHAPE_REPRESENTATION('',(#14),#1126);
#13=STYLED_ITEM('',(#1142),#14);
#14=MANIFOLD_SOLID_BREP('Upper',#711);
#15=FACE_BOUND('',#106,.T.);
#16=FACE_BOUND('',#107,.T.);
#17=FACE_BOUND('',#108,.T.);
#18=FACE_BOUND('',#109,.T.);
#19=FACE_BOUND('',#110,.T.);
#20=FACE_BOUND('',#111,.T.);
#21=FACE_BOUND('',#113,.T.);
#22=FACE_BOUND('',#114,.T.);
#23=FACE_BOUND('',#115,.T.);
#24=FACE_BOUND('',#116,.T.);
#25=FACE_BOUND('',#117,.T.);
#26=FACE_BOUND('',#118,.T.);
#27=CIRCLE('',#727,1.00000000000001);
#28=CIRCLE('',#728,1.00000000000001);
#29=CIRCLE('',#731,1.00000000000001);
#30=CIRCLE('',#732,1.00000000000001);
#31=CIRCLE('',#735,1.00000000000001);
#32=CIRCLE('',#736,1.00000000000001);
#33=CIRCLE('',#739,1.00000000000001);
#34=CIRCLE('',#740,1.00000000000001);
#35=CYLINDRICAL_SURFACE('',#726,1.00000000000001);
#36=CYLINDRICAL_SURFACE('',#730,1.00000000000001);
#37=CYLINDRICAL_SURFACE('',#734,1.00000000000001);
#38=CYLINDRICAL_SURFACE('',#738,1.00000000000001);
#39=FACE_OUTER_BOUND('',#73,.T.);
#40=FACE_OUTER_BOUND('',#74,.T.);
#41=FACE_OUTER_BOUND('',#75,.T.);
#42=FACE_OUTER_BOUND('',#76,.T.);
#43=FACE_OUTER_BOUND('',#77,.T.);
#44=FACE_OUTER_BOUND('',#78,.T.);
#45=FACE_OUTER_BOUND('',#79,.T.);
#46=FACE_OUTER_BOUND('',#80,.T.);
#47=FACE_OUTER_BOUND('',#81,.T.);
#48=FACE_OUTER_BOUND('',#82,.T.);
#49=FACE_OUTER_BOUND('',#83,.T.);
#50=FACE_OUTER_BOUND('',#84,.T.);
#51=FACE_OUTER_BOUND('',#85,.T.);
#52=FACE_OUTER_BOUND('',#86,.T.);
#53=FACE_OUTER_BOUND('',#87,.T.);
#54=FACE_OUTER_BOUND('',#88,.T.);
#55=FACE_OUTER_BOUND('',#89,.T.);
#56=FACE_OUTER_BOUND('',#90,.T.);
#57=FACE_OUTER_BOUND('',#91,.T.);
#58=FACE_OUTER_BOUND('',#92,.T.);
#59=FACE_OUTER_BOUND('',#93,.T.);
#60=FACE_OUTER_BOUND('',#94,.T.);
#61=FACE_OUTER_BOUND('',#95,.T.);
#62=FACE_OUTER_BOUND('',#96,.T.);
#63=FACE_OUTER_BOUND('',#97,.T.);
#64=FACE_OUTER_BOUND('',#98,.T.);
#65=FACE_OUTER_BOUND('',#99,.T.);
#66=FACE_OUTER_BOUND('',#100,.T.);
#67=FACE_OUTER_BOUND('',#101,.T.);
#68=FACE_OUTER_BOUND('',#102,.T.);
#69=FACE_OUTER_BOUND('',#103,.T.);
#70=FACE_OUTER_BOUND('',#104,.T.);
#71=FACE_OUTER_BOUND('',#105,.T.);
#72=FACE_OUTER_BOUND('',#112,.T.);
#73=EDGE_LOOP('',(#455,#456,#457,#458));
#74=EDGE_LOOP('',(#459,#460,#461,#462));
#75=EDGE_LOOP('',(#463,#464,#465,#466));
#76=EDGE_LOOP('',(#467,#468,#469,#470));
#77=EDGE_LOOP('',(#471,#472,#473,#474));
#78=EDGE_LOOP('',(#475,#476,#477,#478));
#79=EDGE_LOOP('',(#479,#480,#481,#482));
#80=EDGE_LOOP('',(#483,#484,#485,#486));
#81=EDGE_LOOP('',(#487,#488,#489,#490));
#82=EDGE_LOOP('',(#491,#492,#493,#494));
#83=EDGE_LOOP('',(#495,#496,#497,#498));
#84=EDGE_LOOP('',(#499,#500,#501,#502));
#85=EDGE_LOOP('',(#503,#504,#505,#506));
#86=EDGE_LOOP('',(#507,#508,#509,#510));
#87=EDGE_LOOP('',(#511,#512,#513,#514));
#88=EDGE_LOOP('',(#515,#516,#517,#518));
#89=EDGE_LOOP('',(#519,#520,#521,#522));
#90=EDGE_LOOP('',(#523,#524,#525,#526));
#91=EDGE_LOOP('',(#527,#528,#529,#530));
#92=EDGE_LOOP('',(#531,#532,#533,#534));
#93=EDGE_LOOP('',(#535,#536,#537,#538));
#94=EDGE_LOOP('',(#539,#540,#541,#542));
#95=EDGE_LOOP('',(#543,#544,#545,#546));
#96=EDGE_LOOP('',(#547,#548,#549,#550));
#97=EDGE_LOOP('',(#551,#552,#553,#554));
#98=EDGE_LOOP('',(#555,#556,#557,#558));
#99=EDGE_LOOP('',(#559,#560,#561,#562));
#100=EDGE_LOOP('',(#563,#564,#565,#566));
#101=EDGE_LOOP('',(#567,#568,#569,#570));
#102=EDGE_LOOP('',(#571,#572,#573,#574));
#103=EDGE_LOOP('',(#575,#576,#577,#578));
#104=EDGE_LOOP('',(#579,#580,#581,#582));
#105=EDGE_LOOP('',(#583,#584,#585,#586));
#106=EDGE_LOOP('',(#587,#588,#589,#590));
#107=EDGE_LOOP('',(#591,#592,#593,#594));
#108=EDGE_LOOP('',(#595,#596,#597,#598,#599,#600,#601,#602));
#109=EDGE_LOOP('',(#603,#604,#605,#606));
#110=EDGE_LOOP('',(#607,#608,#609,#610));
#111=EDGE_LOOP('',(#611,#612,#613,#614));
#112=EDGE_LOOP('',(#615,#616,#617,#618));
#113=EDGE_LOOP('',(#619,#620,#621,#622));
#114=EDGE_LOOP('',(#623,#624,#625,#626));
#115=EDGE_LOOP('',(#627,#628,#629,#630,#631,#632,#633,#634));
#116=EDGE_LOOP('',(#635,#636,#637,#638));
#117=EDGE_LOOP('',(#639,#640,#641,#642));
#118=EDGE_LOOP('',(#643,#644,#645,#646));
#119=LINE('',#933,#207);
#120=LINE('',#935,#208);
#121=LINE('',#937,#209);
#122=LINE('',#938,#210);
#123=LINE('',#941,#211);
#124=LINE('',#943,#212);
#125=LINE('',#944,#213);
#126=LINE('',#947,#214);
#127=LINE('',#949,#215);
#128=LINE('',#950,#216);
#129=LINE('',#952,#217);
#130=LINE('',#953,#218);
#131=LINE('',#957,#219);
#132=LINE('',#959,#220);
#133=LINE('',#961,#221);
#134=LINE('',#962,#222);
#135=LINE('',#965,#223);
#136=LINE('',#967,#224);
#137=LINE('',#968,#225);
#138=LINE('',#971,#226);
#139=LINE('',#973,#227);
#140=LINE('',#974,#228);
#141=LINE('',#976,#229);
#142=LINE('',#977,#230);
#143=LINE('',#981,#231);
#144=LINE('',#983,#232);
#145=LINE('',#985,#233);
#146=LINE('',#986,#234);
#147=LINE('',#989,#235);
#148=LINE('',#991,#236);
#149=LINE('',#992,#237);
#150=LINE('',#995,#238);
#151=LINE('',#997,#239);
#152=LINE('',#998,#240);
#153=LINE('',#1000,#241);
#154=LINE('',#1001,#242);
#155=LINE('',#1005,#243);
#156=LINE('',#1007,#244);
#157=LINE('',#1009,#245);
#158=LINE('',#1010,#246);
#159=LINE('',#1016,#247);
#160=LINE('',#1019,#248);
#161=LINE('',#1021,#249);
#162=LINE('',#1022,#250);
#163=LINE('',#1028,#251);
#164=LINE('',#1031,#252);
#165=LINE('',#1033,#253);
#166=LINE('',#1034,#254);
#167=LINE('',#1040,#255);
#168=LINE('',#1043,#256);
#169=LINE('',#1045,#257);
#170=LINE('',#1046,#258);
#171=LINE('',#1053,#259);
#172=LINE('',#1055,#260);
#173=LINE('',#1057,#261);
#174=LINE('',#1058,#262);
#175=LINE('',#1061,#263);
#176=LINE('',#1063,#264);
#177=LINE('',#1064,#265);
#178=LINE('',#1067,#266);
#179=LINE('',#1069,#267);
#180=LINE('',#1070,#268);
#181=LINE('',#1072,#269);
#182=LINE('',#1073,#270);
#183=LINE('',#1077,#271);
#184=LINE('',#1079,#272);
#185=LINE('',#1081,#273);
#186=LINE('',#1082,#274);
#187=LINE('',#1085,#275);
#188=LINE('',#1087,#276);
#189=LINE('',#1088,#277);
#190=LINE('',#1091,#278);
#191=LINE('',#1093,#279);
#192=LINE('',#1094,#280);
#193=LINE('',#1096,#281);
#194=LINE('',#1097,#282);
#195=LINE('',#1101,#283);
#196=LINE('',#1103,#284);
#197=LINE('',#1105,#285);
#198=LINE('',#1106,#286);
#199=LINE('',#1109,#287);
#200=LINE('',#1111,#288);
#201=LINE('',#1112,#289);
#202=LINE('',#1115,#290);
#203=LINE('',#1117,#291);
#204=LINE('',#1118,#292);
#205=LINE('',#1120,#293);
#206=LINE('',#1121,#294);
#207=VECTOR('',#759,10.);
#208=VECTOR('',#760,10.);
#209=VECTOR('',#761,10.);
#210=VECTOR('',#762,10.);
#211=VECTOR('',#765,10.);
#212=VECTOR('',#766,10.);
#213=VECTOR('',#767,10.);
#214=VECTOR('',#770,10.);
#215=VECTOR('',#771,10.);
#216=VECTOR('',#772,10.);
#217=VECTOR('',#775,10.);
#218=VECTOR('',#776,10.);
#219=VECTOR('',#779,10.);
#220=VECTOR('',#780,10.);
#221=VECTOR('',#781,10.);
#222=VECTOR('',#782,10.);
#223=VECTOR('',#785,10.);
#224=VECTOR('',#786,10.);
#225=VECTOR('',#787,10.);
#226=VECTOR('',#790,10.);
#227=VECTOR('',#791,10.);
#228=VECTOR('',#792,10.);
#229=VECTOR('',#795,10.);
#230=VECTOR('',#796,10.);
#231=VECTOR('',#799,10.);
#232=VECTOR('',#800,10.);
#233=VECTOR('',#801,10.);
#234=VECTOR('',#802,10.);
#235=VECTOR('',#805,10.);
#236=VECTOR('',#806,10.);
#237=VECTOR('',#807,10.);
#238=VECTOR('',#810,10.);
#239=VECTOR('',#811,10.);
#240=VECTOR('',#812,10.);
#241=VECTOR('',#815,10.);
#242=VECTOR('',#816,10.);
#243=VECTOR('',#819,10.);
#244=VECTOR('',#820,10.);
#245=VECTOR('',#821,10.);
#246=VECTOR('',#822,10.);
#247=VECTOR('',#829,10.);
#248=VECTOR('',#832,10.);
#249=VECTOR('',#833,10.);
#250=VECTOR('',#834,10.);
#251=VECTOR('',#841,10.);
#252=VECTOR('',#844,10.);
#253=VECTOR('',#845,10.);
#254=VECTOR('',#846,10.);
#255=VECTOR('',#853,10.);
#256=VECTOR('',#856,10.);
#257=VECTOR('',#857,10.);
#258=VECTOR('',#858,10.);
#259=VECTOR('',#867,10.);
#260=VECTOR('',#868,10.);
#261=VECTOR('',#869,10.);
#262=VECTOR('',#870,10.);
#263=VECTOR('',#873,10.);
#264=VECTOR('',#874,10.);
#265=VECTOR('',#875,10.);
#266=VECTOR('',#878,10.);
#267=VECTOR('',#879,10.);
#268=VECTOR('',#880,10.);
#269=VECTOR('',#883,10.);
#270=VECTOR('',#884,10.);
#271=VECTOR('',#887,10.);
#272=VECTOR('',#888,10.);
#273=VECTOR('',#889,10.);
#274=VECTOR('',#890,10.);
#275=VECTOR('',#893,10.);
#276=VECTOR('',#894,10.);
#277=VECTOR('',#895,10.);
#278=VECTOR('',#898,10.);
#279=VECTOR('',#899,10.);
#280=VECTOR('',#900,10.);
#281=VECTOR('',#903,10.);
#282=VECTOR('',#904,10.);
#283=VECTOR('',#907,10.);
#284=VECTOR('',#908,10.);
#285=VECTOR('',#909,10.);
#286=VECTOR('',#910,10.);
#287=VECTOR('',#913,10.);
#288=VECTOR('',#914,10.);
#289=VECTOR('',#915,10.);
#290=VECTOR('',#918,10.);
#291=VECTOR('',#919,10.);
#292=VECTOR('',#920,10.);
#293=VECTOR('',#923,10.);
#294=VECTOR('',#924,10.);
#295=VERTEX_POINT('',#931);
#296=VERTEX_POINT('',#932);
#297=VERTEX_POINT('',#934);
#298=VERTEX_POINT('',#936);
#299=VERTEX_POINT('',#940);
#300=VERTEX_POINT('',#942);
#301=VERTEX_POINT('',#946);
#302=VERTEX_POINT('',#948);
#303=VERTEX_POINT('',#955);
#304=VERTEX_POINT('',#956);
#305=VERTEX_POINT('',#958);
#306=VERTEX_POINT('',#960);
#307=VERTEX_POINT('',#964);
#308=VERTEX_POINT('',#966);
#309=VERTEX_POINT('',#970);
#310=VERTEX_POINT('',#972);
#311=VERTEX_POINT('',#979);
#312=VERTEX_POINT('',#980);
#313=VERTEX_POINT('',#982);
#314=VERTEX_POINT('',#984);
#315=VERTEX_POINT('',#988);
#316=VERTEX_POINT('',#990);
#317=VERTEX_POINT('',#994);
#318=VERTEX_POINT('',#996);
#319=VERTEX_POINT('',#1003);
#320=VERTEX_POINT('',#1004);
#321=VERTEX_POINT('',#1006);
#322=VERTEX_POINT('',#1008);
#323=VERTEX_POINT('',#1012);
#324=VERTEX_POINT('',#1014);
#325=VERTEX_POINT('',#1018);
#326=VERTEX_POINT('',#1020);
#327=VERTEX_POINT('',#1024);
#328=VERTEX_POINT('',#1026);
#329=VERTEX_POINT('',#1030);
#330=VERTEX_POINT('',#1032);
#331=VERTEX_POINT('',#1036);
#332=VERTEX_POINT('',#1038);
#333=VERTEX_POINT('',#1042);
#334=VERTEX_POINT('',#1044);
#335=VERTEX_POINT('',#1051);
#336=VERTEX_POINT('',#1052);
#337=VERTEX_POINT('',#1054);
#338=VERTEX_POINT('',#1056);
#339=VERTEX_POINT('',#1060);
#340=VERTEX_POINT('',#1062);
#341=VERTEX_POINT('',#1066);
#342=VERTEX_POINT('',#1068);
#343=VERTEX_POINT('',#1075);
#344=VERTEX_POINT('',#1076);
#345=VERTEX_POINT('',#1078);
#346=VERTEX_POINT('',#1080);
#347=VERTEX_POINT('',#1084);
#348=VERTEX_POINT('',#1086);
#349=VERTEX_POINT('',#1090);
#350=VERTEX_POINT('',#1092);
#351=VERTEX_POINT('',#1099);
#352=VERTEX_POINT('',#1100);
#353=VERTEX_POINT('',#1102);
#354=VERTEX_POINT('',#1104);
#355=VERTEX_POINT('',#1108);
#356=VERTEX_POINT('',#1110);
#357=VERTEX_POINT('',#1114);
#358=VERTEX_POINT('',#1116);
#359=EDGE_CURVE('',#295,#296,#119,.T.);
#360=EDGE_CURVE('',#296,#297,#120,.T.);
#361=EDGE_CURVE('',#298,#297,#121,.T.);
#362=EDGE_CURVE('',#295,#298,#122,.T.);
#363=EDGE_CURVE('',#299,#295,#123,.T.);
#364=EDGE_CURVE('',#300,#298,#124,.T.);
#365=EDGE_CURVE('',#299,#300,#125,.T.);
#366=EDGE_CURVE('',#301,#299,#126,.T.);
#367=EDGE_CURVE('',#302,#300,#127,.T.);
#368=EDGE_CURVE('',#301,#302,#128,.T.);
#369=EDGE_CURVE('',#296,#301,#129,.T.);
#370=EDGE_CURVE('',#297,#302,#130,.T.);
#371=EDGE_CURVE('',#303,#304,#131,.T.);
#372=EDGE_CURVE('',#304,#305,#132,.T.);
#373=EDGE_CURVE('',#306,#305,#133,.T.);
#374=EDGE_CURVE('',#303,#306,#134,.T.);
#375=EDGE_CURVE('',#307,#303,#135,.T.);
#376=EDGE_CURVE('',#308,#306,#136,.T.);
#377=EDGE_CURVE('',#307,#308,#137,.T.);
#378=EDGE_CURVE('',#309,#307,#138,.T.);
#379=EDGE_CURVE('',#310,#308,#139,.T.);
#380=EDGE_CURVE('',#309,#310,#140,.T.);
#381=EDGE_CURVE('',#304,#309,#141,.T.);
#382=EDGE_CURVE('',#305,#310,#142,.T.);
#383=EDGE_CURVE('',#311,#312,#143,.T.);
#384=EDGE_CURVE('',#312,#313,#144,.T.);
#385=EDGE_CURVE('',#314,#313,#145,.T.);
#386=EDGE_CURVE('',#311,#314,#146,.T.);
#387=EDGE_CURVE('',#315,#311,#147,.T.);
#388=EDGE_CURVE('',#316,#314,#148,.T.);
#389=EDGE_CURVE('',#315,#316,#149,.T.);
#390=EDGE_CURVE('',#317,#315,#150,.T.);
#391=EDGE_CURVE('',#318,#316,#151,.T.);
#392=EDGE_CURVE('',#317,#318,#152,.T.);
#393=EDGE_CURVE('',#312,#317,#153,.T.);
#394=EDGE_CURVE('',#313,#318,#154,.T.);
#395=EDGE_CURVE('',#319,#320,#155,.T.);
#396=EDGE_CURVE('',#320,#321,#156,.T.);
#397=EDGE_CURVE('',#322,#321,#157,.T.);
#398=EDGE_CURVE('',#319,#322,#158,.T.);
#399=EDGE_CURVE('',#323,#319,#27,.T.);
#400=EDGE_CURVE('',#324,#322,#28,.T.);
#401=EDGE_CURVE('',#323,#324,#159,.T.);
#402=EDGE_CURVE('',#325,#323,#160,.T.);
#403=EDGE_CURVE('',#326,#324,#161,.T.);
#404=EDGE_CURVE('',#325,#326,#162,.T.);
#405=EDGE_CURVE('',#327,#325,#29,.T.);
#406=EDGE_CURVE('',#328,#326,#30,.T.);
#407=EDGE_CURVE('',#327,#328,#163,.T.);
#408=EDGE_CURVE('',#329,#327,#164,.T.);
#409=EDGE_CURVE('',#330,#328,#165,.T.);
#410=EDGE_CURVE('',#329,#330,#166,.T.);
#411=EDGE_CURVE('',#331,#329,#31,.T.);
#412=EDGE_CURVE('',#332,#330,#32,.T.);
#413=EDGE_CURVE('',#331,#332,#167,.T.);
#414=EDGE_CURVE('',#333,#331,#168,.T.);
#415=EDGE_CURVE('',#334,#332,#169,.T.);
#416=EDGE_CURVE('',#333,#334,#170,.T.);
#417=EDGE_CURVE('',#320,#333,#33,.T.);
#418=EDGE_CURVE('',#321,#334,#34,.T.);
#419=EDGE_CURVE('',#335,#336,#171,.T.);
#420=EDGE_CURVE('',#336,#337,#172,.T.);
#421=EDGE_CURVE('',#338,#337,#173,.T.);
#422=EDGE_CURVE('',#335,#338,#174,.T.);
#423=EDGE_CURVE('',#339,#335,#175,.T.);
#424=EDGE_CURVE('',#340,#338,#176,.T.);
#425=EDGE_CURVE('',#339,#340,#177,.T.);
#426=EDGE_CURVE('',#341,#339,#178,.T.);
#427=EDGE_CURVE('',#342,#340,#179,.T.);
#428=EDGE_CURVE('',#341,#342,#180,.T.);
#429=EDGE_CURVE('',#336,#341,#181,.T.);
#430=EDGE_CURVE('',#337,#342,#182,.T.);
#431=EDGE_CURVE('',#343,#344,#183,.T.);
#432=EDGE_CURVE('',#344,#345,#184,.T.);
#433=EDGE_CURVE('',#346,#345,#185,.T.);
#434=EDGE_CURVE('',#343,#346,#186,.T.);
#435=EDGE_CURVE('',#347,#343,#187,.T.);
#436=EDGE_CURVE('',#348,#346,#188,.T.);
#437=EDGE_CURVE('',#347,#348,#189,.T.);
#438=EDGE_CURVE('',#349,#347,#190,.T.);
#439=EDGE_CURVE('',#350,#348,#191,.T.);
#440=EDGE_CURVE('',#349,#350,#192,.T.);
#441=EDGE_CURVE('',#344,#349,#193,.T.);
#442=EDGE_CURVE('',#345,#350,#194,.T.);
#443=EDGE_CURVE('',#351,#352,#195,.T.);
#444=EDGE_CURVE('',#352,#353,#196,.T.);
#445=EDGE_CURVE('',#354,#353,#197,.T.);
#446=EDGE_CURVE('',#351,#354,#198,.T.);
#447=EDGE_CURVE('',#355,#351,#199,.T.);
#448=EDGE_CURVE('',#356,#354,#200,.T.);
#449=EDGE_CURVE('',#355,#356,#201,.T.);
#450=EDGE_CURVE('',#357,#355,#202,.T.);
#451=EDGE_CURVE('',#358,#356,#203,.T.);
#452=EDGE_CURVE('',#357,#358,#204,.T.);
#453=EDGE_CURVE('',#352,#357,#205,.T.);
#454=EDGE_CURVE('',#353,#358,#206,.T.);
#455=ORIENTED_EDGE('',*,*,#359,.T.);
#456=ORIENTED_EDGE('',*,*,#360,.T.);
#457=ORIENTED_EDGE('',*,*,#361,.F.);
#458=ORIENTED_EDGE('',*,*,#362,.F.);
#459=ORIENTED_EDGE('',*,*,#363,.T.);
#460=ORIENTED_EDGE('',*,*,#362,.T.);
#461=ORIENTED_EDGE('',*,*,#364,.F.);
#462=ORIENTED_EDGE('',*,*,#365,.F.);
#463=ORIENTED_EDGE('',*,*,#366,.T.);
#464=ORIENTED_EDGE('',*,*,#365,.T.);
#465=ORIENTED_EDGE('',*,*,#367,.F.);
#466=ORIENTED_EDGE('',*,*,#368,.F.);
#467=ORIENTED_EDGE('',*,*,#369,.T.);
#468=ORIENTED_EDGE('',*,*,#368,.T.);
#469=ORIENTED_EDGE('',*,*,#370,.F.);
#470=ORIENTED_EDGE('',*,*,#360,.F.);
#471=ORIENTED_EDGE('',*,*,#371,.T.);
#472=ORIENTED_EDGE('',*,*,#372,.T.);
#473=ORIENTED_EDGE('',*,*,#373,.F.);
#474=ORIENTED_EDGE('',*,*,#374,.F.);
#475=ORIENTED_EDGE('',*,*,#375,.T.);
#476=ORIENTED_EDGE('',*,*,#374,.T.);
#477=ORIENTED_EDGE('',*,*,#376,.F.);
#478=ORIENTED_EDGE('',*,*,#377,.F.);
#479=ORIENTED_EDGE('',*,*,#378,.T.);
#480=ORIENTED_EDGE('',*,*,#377,.T.);
#481=ORIENTED_EDGE('',*,*,#379,.F.);
#482=ORIENTED_EDGE('',*,*,#380,.F.);
#483=ORIENTED_EDGE('',*,*,#381,.T.);
#484=ORIENTED_EDGE('',*,*,#380,.T.);
#485=ORIENTED_EDGE('',*,*,#382,.F.);
#486=ORIENTED_EDGE('',*,*,#372,.F.);
#487=ORIENTED_EDGE('',*,*,#383,.T.);
#488=ORIENTED_EDGE('',*,*,#384,.T.);
#489=ORIENTED_EDGE('',*,*,#385,.F.);
#490=ORIENTED_EDGE('',*,*,#386,.F.);
#491=ORIENTED_EDGE('',*,*,#387,.T.);
#492=ORIENTED_EDGE('',*,*,#386,.T.);
#493=ORIENTED_EDGE('',*,*,#388,.F.);
#494=ORIENTED_EDGE('',*,*,#389,.F.);
#495=ORIENTED_EDGE('',*,*,#390,.T.);
#496=ORIENTED_EDGE('',*,*,#389,.T.);
#497=ORIENTED_EDGE('',*,*,#391,.F.);
#498=ORIENTED_EDGE('',*,*,#392,.F.);
#499=ORIENTED_EDGE('',*,*,#393,.T.);
#500=ORIENTED_EDGE('',*,*,#392,.T.);
#501=ORIENTED_EDGE('',*,*,#394,.F.);
#502=ORIENTED_EDGE('',*,*,#384,.F.);
#503=ORIENTED_EDGE('',*,*,#395,.T.);
#504=ORIENTED_EDGE('',*,*,#396,.T.);
#505=ORIENTED_EDGE('',*,*,#397,.F.);
#506=ORIENTED_EDGE('',*,*,#398,.F.);
#507=ORIENTED_EDGE('',*,*,#399,.T.);
#508=ORIENTED_EDGE('',*,*,#398,.T.);
#509=ORIENTED_EDGE('',*,*,#400,.F.);
#510=ORIENTED_EDGE('',*,*,#401,.F.);
#511=ORIENTED_EDGE('',*,*,#402,.T.);
#512=ORIENTED_EDGE('',*,*,#401,.T.);
#513=ORIENTED_EDGE('',*,*,#403,.F.);
#514=ORIENTED_EDGE('',*,*,#404,.F.);
#515=ORIENTED_EDGE('',*,*,#405,.T.);
#516=ORIENTED_EDGE('',*,*,#404,.T.);
#517=ORIENTED_EDGE('',*,*,#406,.F.);
#518=ORIENTED_EDGE('',*,*,#407,.F.);
#519=ORIENTED_EDGE('',*,*,#408,.T.);
#520=ORIENTED_EDGE('',*,*,#407,.T.);
#521=ORIENTED_EDGE('',*,*,#409,.F.);
#522=ORIENTED_EDGE('',*,*,#410,.F.);
#523=ORIENTED_EDGE('',*,*,#411,.T.);
#524=ORIENTED_EDGE('',*,*,#410,.T.);
#525=ORIENTED_EDGE('',*,*,#412,.F.);
#526=ORIENTED_EDGE('',*,*,#413,.F.);
#527=ORIENTED_EDGE('',*,*,#414,.T.);
#528=ORIENTED_EDGE('',*,*,#413,.T.);
#529=ORIENTED_EDGE('',*,*,#415,.F.);
#530=ORIENTED_EDGE('',*,*,#416,.F.);
#531=ORIENTED_EDGE('',*,*,#417,.T.);
#532=ORIENTED_EDGE('',*,*,#416,.T.);
#533=ORIENTED_EDGE('',*,*,#418,.F.);
#534=ORIENTED_EDGE('',*,*,#396,.F.);
#535=ORIENTED_EDGE('',*,*,#419,.T.);
#536=ORIENTED_EDGE('',*,*,#420,.T.);
#537=ORIENTED_EDGE('',*,*,#421,.F.);
#538=ORIENTED_EDGE('',*,*,#422,.F.);
#539=ORIENTED_EDGE('',*,*,#423,.T.);
#540=ORIENTED_EDGE('',*,*,#422,.T.);
#541=ORIENTED_EDGE('',*,*,#424,.F.);
#542=ORIENTED_EDGE('',*,*,#425,.F.);
#543=ORIENTED_EDGE('',*,*,#426,.T.);
#544=ORIENTED_EDGE('',*,*,#425,.T.);
#545=ORIENTED_EDGE('',*,*,#427,.F.);
#546=ORIENTED_EDGE('',*,*,#428,.F.);
#547=ORIENTED_EDGE('',*,*,#429,.T.);
#548=ORIENTED_EDGE('',*,*,#428,.T.);
#549=ORIENTED_EDGE('',*,*,#430,.F.);
#550=ORIENTED_EDGE('',*,*,#420,.F.);
#551=ORIENTED_EDGE('',*,*,#431,.T.);
#552=ORIENTED_EDGE('',*,*,#432,.T.);
#553=ORIENTED_EDGE('',*,*,#433,.F.);
#554=ORIENTED_EDGE('',*,*,#434,.F.);
#555=ORIENTED_EDGE('',*,*,#435,.T.);
#556=ORIENTED_EDGE('',*,*,#434,.T.);
#557=ORIENTED_EDGE('',*,*,#436,.F.);
#558=ORIENTED_EDGE('',*,*,#437,.F.);
#559=ORIENTED_EDGE('',*,*,#438,.T.);
#560=ORIENTED_EDGE('',*,*,#437,.T.);
#561=ORIENTED_EDGE('',*,*,#439,.F.);
#562=ORIENTED_EDGE('',*,*,#440,.F.);
#563=ORIENTED_EDGE('',*,*,#441,.T.);
#564=ORIENTED_EDGE('',*,*,#440,.T.);
#565=ORIENTED_EDGE('',*,*,#442,.F.);
#566=ORIENTED_EDGE('',*,*,#432,.F.);
#567=ORIENTED_EDGE('',*,*,#443,.T.);
#568=ORIENTED_EDGE('',*,*,#444,.T.);
#569=ORIENTED_EDGE('',*,*,#445,.F.);
#570=ORIENTED_EDGE('',*,*,#446,.F.);
#571=ORIENTED_EDGE('',*,*,#447,.T.);
#572=ORIENTED_EDGE('',*,*,#446,.T.);
#573=ORIENTED_EDGE('',*,*,#448,.F.);
#574=ORIENTED_EDGE('',*,*,#449,.F.);
#575=ORIENTED_EDGE('',*,*,#450,.T.);
#576=ORIENTED_EDGE('',*,*,#449,.T.);
#577=ORIENTED_EDGE('',*,*,#451,.F.);
#578=ORIENTED_EDGE('',*,*,#452,.F.);
#579=ORIENTED_EDGE('',*,*,#453,.T.);
#580=ORIENTED_EDGE('',*,*,#452,.T.);
#581=ORIENTED_EDGE('',*,*,#454,.F.);
#582=ORIENTED_EDGE('',*,*,#444,.F.);
#583=ORIENTED_EDGE('',*,*,#454,.T.);
#584=ORIENTED_EDGE('',*,*,#451,.T.);
#585=ORIENTED_EDGE('',*,*,#448,.T.);
#586=ORIENTED_EDGE('',*,*,#445,.T.);
#587=ORIENTED_EDGE('',*,*,#442,.T.);
#588=ORIENTED_EDGE('',*,*,#439,.T.);
#589=ORIENTED_EDGE('',*,*,#436,.T.);
#590=ORIENTED_EDGE('',*,*,#433,.T.);
#591=ORIENTED_EDGE('',*,*,#430,.T.);
#592=ORIENTED_EDGE('',*,*,#427,.T.);
#593=ORIENTED_EDGE('',*,*,#424,.T.);
#594=ORIENTED_EDGE('',*,*,#421,.T.);
#595=ORIENTED_EDGE('',*,*,#418,.T.);
#596=ORIENTED_EDGE('',*,*,#415,.T.);
#597=ORIENTED_EDGE('',*,*,#412,.T.);
#598=ORIENTED_EDGE('',*,*,#409,.T.);
#599=ORIENTED_EDGE('',*,*,#406,.T.);
#600=ORIENTED_EDGE('',*,*,#403,.T.);
#601=ORIENTED_EDGE('',*,*,#400,.T.);
#602=ORIENTED_EDGE('',*,*,#397,.T.);
#603=ORIENTED_EDGE('',*,*,#394,.T.);
#604=ORIENTED_EDGE('',*,*,#391,.T.);
#605=ORIENTED_EDGE('',*,*,#388,.T.);
#606=ORIENTED_EDGE('',*,*,#385,.T.);
#607=ORIENTED_EDGE('',*,*,#382,.T.);
#608=ORIENTED_EDGE('',*,*,#379,.T.);
#609=ORIENTED_EDGE('',*,*,#376,.T.);
#610=ORIENTED_EDGE('',*,*,#373,.T.);
#611=ORIENTED_EDGE('',*,*,#370,.T.);
#612=ORIENTED_EDGE('',*,*,#367,.T.);
#613=ORIENTED_EDGE('',*,*,#364,.T.);
#614=ORIENTED_EDGE('',*,*,#361,.T.);
#615=ORIENTED_EDGE('',*,*,#453,.F.);
#616=ORIENTED_EDGE('',*,*,#443,.F.);
#617=ORIENTED_EDGE('',*,*,#447,.F.);
#618=ORIENTED_EDGE('',*,*,#450,.F.);
#619=ORIENTED_EDGE('',*,*,#441,.F.);
#620=ORIENTED_EDGE('',*,*,#431,.F.);
#621=ORIENTED_EDGE('',*,*,#435,.F.);
#622=ORIENTED_EDGE('',*,*,#438,.F.);
#623=ORIENTED_EDGE('',*,*,#429,.F.);
#624=ORIENTED_EDGE('',*,*,#419,.F.);
#625=ORIENTED_EDGE('',*,*,#423,.F.);
#626=ORIENTED_EDGE('',*,*,#426,.F.);
#627=ORIENTED_EDGE('',*,*,#417,.F.);
#628=ORIENTED_EDGE('',*,*,#395,.F.);
#629=ORIENTED_EDGE('',*,*,#399,.F.);
#630=ORIENTED_EDGE('',*,*,#402,.F.);
#631=ORIENTED_EDGE('',*,*,#405,.F.);
#632=ORIENTED_EDGE('',*,*,#408,.F.);
#633=ORIENTED_EDGE('',*,*,#411,.F.);
#634=ORIENTED_EDGE('',*,*,#414,.F.);
#635=ORIENTED_EDGE('',*,*,#393,.F.);
#636=ORIENTED_EDGE('',*,*,#383,.F.);
#637=ORIENTED_EDGE('',*,*,#387,.F.);
#638=ORIENTED_EDGE('',*,*,#390,.F.);
#639=ORIENTED_EDGE('',*,*,#381,.F.);
#640=ORIENTED_EDGE('',*,*,#371,.F.);
#641=ORIENTED_EDGE('',*,*,#375,.F.);
#642=ORIENTED_EDGE('',*,*,#378,.F.);
#643=ORIENTED_EDGE('',*,*,#369,.F.);
#644=ORIENTED_EDGE('',*,*,#359,.F.);
#645=ORIENTED_EDGE('',*,*,#363,.F.);
#646=ORIENTED_EDGE('',*,*,#366,.F.);
#647=PLANE('',#713);
#648=PLANE('',#714);
#649=PLANE('',#715);
#650=PLANE('',#716);
#651=PLANE('',#717);
#652=PLANE('',#718);
#653=PLANE('',#719);
#654=PLANE('',#720);
#655=PLANE('',#721);
#656=PLANE('',#722);
#657=PLANE('',#723);
#658=PLANE('',#724);
#659=PLANE('',#725);
#660=PLANE('',#729);
#661=PLANE('',#733);
#662=PLANE('',#737);
#663=PLANE('',#741);
#664=PLANE('',#742);
#665=PLANE('',#743);
#666=PLANE('',#744);
#667=PLANE('',#745);
#668=PLANE('',#746);
#669=PLANE('',#747);
#670=PLANE('',#748);
#671=PLANE('',#749);
#672=PLANE('',#750);
#673=PLANE('',#751);
#674=PLANE('',#752);
#675=PLANE('',#753);
#676=PLANE('',#754);
#677=ADVANCED_FACE('',(#39),#647,.T.);
#678=ADVANCED_FACE('',(#40),#648,.T.);
#679=ADVANCED_FACE('',(#41),#649,.T.);
#680=ADVANCED_FACE('',(#42),#650,.T.);
#681=ADVANCED_FACE('',(#43),#651,.T.);
#682=ADVANCED_FACE('',(#44),#652,.T.);
#683=ADVANCED_FACE('',(#45),#653,.T.);
#684=ADVANCED_FACE('',(#46),#654,.T.);
#685=ADVANCED_FACE('',(#47),#655,.T.);
#686=ADVANCED_FACE('',(#48),#656,.T.);
#687=ADVANCED_FACE('',(#49),#657,.T.);
#688=ADVANCED_FACE('',(#50),#658,.T.);
#689=ADVANCED_FACE('',(#51),#659,.T.);
#690=ADVANCED_FACE('',(#52),#35,.F.);
#691=ADVANCED_FACE('',(#53),#660,.T.);
#692=ADVANCED_FACE('',(#54),#36,.F.);
#693=ADVANCED_FACE('',(#55),#661,.T.);
#694=ADVANCED_FACE('',(#56),#37,.F.);
#695=ADVANCED_FACE('',(#57),#662,.T.);
#696=ADVANCED_FACE('',(#58),#38,.F.);
#697=ADVANCED_FACE('',(#59),#663,.T.);
#698=ADVANCED_FACE('',(#60),#664,.T.);
#699=ADVANCED_FACE('',(#61),#665,.T.);
#700=ADVANCED_FACE('',(#62),#666,.T.);
#701=ADVANCED_FACE('',(#63),#667,.T.);
#702=ADVANCED_FACE('',(#64),#668,.T.);
#703=ADVANCED_FACE('',(#65),#669,.T.);
#704=ADVANCED_FACE('',(#66),#670,.T.);
#705=ADVANCED_FACE('',(#67),#671,.T.);
#706=ADVANCED_FACE('',(#68),#672,.T.);
#707=ADVANCED_FACE('',(#69),#673,.T.);
#708=ADVANCED_FACE('',(#70),#674,.T.);
#709=ADVANCED_FACE('',(#71,#15,#16,#17,#18,#19,#20),#675,.T.);
#710=ADVANCED_FACE('',(#72,#21,#22,#23,#24,#25,#26),#676,.F.);
#711=CLOSED_SHELL('',(#677,#678,#679,#680,#681,#682,#683,#684,#685,#686,
#687,#688,#689,#690,#691,#692,#693,#694,#695,#696,#697,#698,#699,#700,#701,
#702,#703,#704,#705,#706,#707,#708,#709,#710));
#712=AXIS2_PLACEMENT_3D('',#929,#755,#756);
#713=AXIS2_PLACEMENT_3D('',#930,#757,#758);
#714=AXIS2_PLACEMENT_3D('',#939,#763,#764);
#715=AXIS2_PLACEMENT_3D('',#945,#768,#769);
#716=AXIS2_PLACEMENT_3D('',#951,#773,#774);
#717=AXIS2_PLACEMENT_3D('',#954,#777,#778);
#718=AXIS2_PLACEMENT_3D('',#963,#783,#784);
#719=AXIS2_PLACEMENT_3D('',#969,#788,#789);
#720=AXIS2_PLACEMENT_3D('',#975,#793,#794);
#721=AXIS2_PLACEMENT_3D('',#978,#797,#798);
#722=AXIS2_PLACEMENT_3D('',#987,#803,#804);
#723=AXIS2_PLACEMENT_3D('',#993,#808,#809);
#724=AXIS2_PLACEMENT_3D('',#999,#813,#814);
#725=AXIS2_PLACEMENT_3D('',#1002,#817,#818);
#726=AXIS2_PLACEMENT_3D('',#1011,#823,#824);
#727=AXIS2_PLACEMENT_3D('',#1013,#825,#826);
#728=AXIS2_PLACEMENT_3D('',#1015,#827,#828);
#729=AXIS2_PLACEMENT_3D('',#1017,#830,#831);
#730=AXIS2_PLACEMENT_3D('',#1023,#835,#836);
#731=AXIS2_PLACEMENT_3D('',#1025,#837,#838);
#732=AXIS2_PLACEMENT_3D('',#1027,#839,#840);
#733=AXIS2_PLACEMENT_3D('',#1029,#842,#843);
#734=AXIS2_PLACEMENT_3D('',#1035,#847,#848);
#735=AXIS2_PLACEMENT_3D('',#1037,#849,#850);
#736=AXIS2_PLACEMENT_3D('',#1039,#851,#852);
#737=AXIS2_PLACEMENT_3D('',#1041,#854,#855);
#738=AXIS2_PLACEMENT_3D('',#1047,#859,#860);
#739=AXIS2_PLACEMENT_3D('',#1048,#861,#862);
#740=AXIS2_PLACEMENT_3D('',#1049,#863,#864);
#741=AXIS2_PLACEMENT_3D('',#1050,#865,#866);
#742=AXIS2_PLACEMENT_3D('',#1059,#871,#872);
#743=AXIS2_PLACEMENT_3D('',#1065,#876,#877);
#744=AXIS2_PLACEMENT_3D('',#1071,#881,#882);
#745=AXIS2_PLACEMENT_3D('',#1074,#885,#886);
#746=AXIS2_PLACEMENT_3D('',#1083,#891,#892);
#747=AXIS2_PLACEMENT_3D('',#1089,#896,#897);
#748=AXIS2_PLACEMENT_3D('',#1095,#901,#902);
#749=AXIS2_PLACEMENT_3D('',#1098,#905,#906);
#750=AXIS2_PLACEMENT_3D('',#1107,#911,#912);
#751=AXIS2_PLACEMENT_3D('',#1113,#916,#917);
#752=AXIS2_PLACEMENT_3D('',#1119,#921,#922);
#753=AXIS2_PLACEMENT_3D('',#1122,#925,#926);
#754=AXIS2_PLACEMENT_3D('',#1123,#927,#928);
#755=DIRECTION('axis',(0.,0.,1.));
#756=DIRECTION('refdir',(1.,0.,0.));
#757=DIRECTION('center_axis',(0.,0.,-1.));
#758=DIRECTION('ref_axis',(-1.,0.,0.));
#759=DIRECTION('',(-1.,0.,0.));
#760=DIRECTION('',(0.,1.,0.));
#761=DIRECTION('',(-1.,0.,0.));
#762=DIRECTION('',(0.,1.,0.));
#763=DIRECTION('center_axis',(-1.,0.,0.));
#764=DIRECTION('ref_axis',(0.,0.,1.));
#765=DIRECTION('',(0.,0.,1.));
#766=DIRECTION('',(0.,0.,1.));
#767=DIRECTION('',(0.,1.,0.));
#768=DIRECTION('center_axis',(0.,0.,1.));
#769=DIRECTION('ref_axis',(1.,0.,0.));
#770=DIRECTION('',(1.,0.,0.));
#771=DIRECTION('',(1.,0.,0.));
#772=DIRECTION('',(0.,1.,0.));
#773=DIRECTION('center_axis',(1.,0.,0.));
#774=DIRECTION('ref_axis',(0.,0.,-1.));
#775=DIRECTION('',(0.,0.,-1.));
#776=DIRECTION('',(0.,0.,-1.));
#777=DIRECTION('center_axis',(0.,0.,-1.));
#778=DIRECTION('ref_axis',(-1.,0.,0.));
#779=DIRECTION('',(-1.,0.,0.));
#780=DIRECTION('',(0.,1.,0.));
#781=DIRECTION('',(-1.,0.,0.));
#782=DIRECTION('',(0.,1.,0.));
#783=DIRECTION('center_axis',(-1.,0.,0.));
#784=DIRECTION('ref_axis',(0.,0.,1.));
#785=DIRECTION('',(0.,0.,1.));
#786=DIRECTION('',(0.,0.,1.));
#787=DIRECTION('',(0.,1.,0.));
#788=DIRECTION('center_axis',(0.,0.,1.));
#789=DIRECTION('ref_axis',(1.,0.,0.));
#790=DIRECTION('',(1.,0.,0.));
#791=DIRECTION('',(1.,0.,0.));
#792=DIRECTION('',(0.,1.,0.));
#793=DIRECTION('center_axis',(1.,0.,0.));
#794=DIRECTION('ref_axis',(0.,0.,-1.));
#795=DIRECTION('',(0.,0.,-1.));
#796=DIRECTION('',(0.,0.,-1.));
#797=DIRECTION('center_axis',(0.,0.,-1.));
#798=DIRECTION('ref_axis',(-1.,0.,0.));
#799=DIRECTION('',(-1.,0.,0.));
#800=DIRECTION('',(0.,1.,0.));
#801=DIRECTION('',(-1.,0.,0.));
#802=DIRECTION('',(0.,1.,0.));
#803=DIRECTION('center_axis',(-1.,0.,0.));
#804=DIRECTION('ref_axis',(0.,0.,1.));
#805=DIRECTION('',(0.,0.,1.));
#806=DIRECTION('',(0.,0.,1.));
#807=DIRECTION('',(0.,1.,0.));
#808=DIRECTION('center_axis',(0.,0.,1.));
#809=DIRECTION('ref_axis',(1.,0.,0.));
#810=DIRECTION('',(1.,0.,0.));
#811=DIRECTION('',(1.,0.,0.));
#812=DIRECTION('',(0.,1.,0.));
#813=DIRECTION('center_axis',(1.,0.,0.));
#814=DIRECTION('ref_axis',(0.,0.,-1.));
#815=DIRECTION('',(0.,0.,-1.));
#816=DIRECTION('',(0.,0.,-1.));
#817=DIRECTION('center_axis',(0.,0.,-1.));
#818=DIRECTION('ref_axis',(-1.,0.,0.));
#819=DIRECTION('',(-1.,0.,0.));
#820=DIRECTION('',(0.,1.,0.));
#821=DIRECTION('',(-1.,0.,0.));
#822=DIRECTION('',(0.,1.,0.));
#823=DIRECTION('center_axis',(0.,1.,0.));
#824=DIRECTION('ref_axis',(3.33066907387545E-15,0.,1.));
#825=DIRECTION('center_axis',(0.,-1.,0.));
#826=DIRECTION('ref_axis',(3.33066907387545E-15,0.,1.));
#827=DIRECTION('center_axis',(0.,-1.,0.));
#828=DIRECTION('ref_axis',(3.33066907387545E-15,0.,1.));
#829=DIRECTION('',(0.,1.,0.));
#830=DIRECTION('center_axis',(-1.,0.,3.26389629912106E-16));
#831=DIRECTION('ref_axis',(3.26389629912106E-16,0.,1.));
#832=DIRECTION('',(3.26389629912106E-16,0.,1.));
#833=DIRECTION('',(3.26389629912106E-16,0.,1.));
#834=DIRECTION('',(0.,1.,0.));
#835=DIRECTION('center_axis',(0.,1.,0.));
#836=DIRECTION('ref_axis',(1.,0.,-4.4408920985006E-15));
#837=DIRECTION('center_axis',(0.,-1.,0.));
#838=DIRECTION('ref_axis',(1.,0.,-4.4408920985006E-15));
#839=DIRECTION('center_axis',(0.,-1.,0.));
#840=DIRECTION('ref_axis',(1.,0.,-4.4408920985006E-15));
#841=DIRECTION('',(0.,1.,0.));
#842=DIRECTION('center_axis',(0.,0.,1.));
#843=DIRECTION('ref_axis',(1.,0.,0.));
#844=DIRECTION('',(1.,0.,0.));
#845=DIRECTION('',(1.,0.,0.));
#846=DIRECTION('',(0.,1.,0.));
#847=DIRECTION('center_axis',(0.,1.,0.));
#848=DIRECTION('ref_axis',(-5.27355936696947E-15,0.,-1.));
#849=DIRECTION('center_axis',(0.,-1.,0.));
#850=DIRECTION('ref_axis',(-5.27355936696947E-15,0.,-1.));
#851=DIRECTION('center_axis',(0.,-1.,0.));
#852=DIRECTION('ref_axis',(-5.27355936696947E-15,0.,-1.));
#853=DIRECTION('',(0.,1.,0.));
#854=DIRECTION('center_axis',(1.,0.,3.059902780426E-16));
#855=DIRECTION('ref_axis',(3.059902780426E-16,0.,-1.));
#856=DIRECTION('',(3.059902780426E-16,0.,-1.));
#857=DIRECTION('',(3.059902780426E-16,0.,-1.));
#858=DIRECTION('',(0.,1.,0.));
#859=DIRECTION('center_axis',(0.,1.,0.));
#860=DIRECTION('ref_axis',(-1.,0.,4.4408920985006E-15));
#861=DIRECTION('center_axis',(0.,-1.,0.));
#862=DIRECTION('ref_axis',(-1.,0.,4.4408920985006E-15));
#863=DIRECTION('center_axis',(0.,-1.,0.));
#864=DIRECTION('ref_axis',(-1.,0.,4.4408920985006E-15));
#865=DIRECTION('center_axis',(0.,0.,-1.));
#866=DIRECTION('ref_axis',(-1.,0.,0.));
#867=DIRECTION('',(-1.,0.,0.));
#868=DIRECTION('',(0.,1.,0.));
#869=DIRECTION('',(-1.,0.,0.));
#870=DIRECTION('',(0.,1.,0.));
#871=DIRECTION('center_axis',(-1.,0.,0.));
#872=DIRECTION('ref_axis',(0.,0.,1.));
#873=DIRECTION('',(0.,0.,1.));
#874=DIRECTION('',(0.,0.,1.));
#875=DIRECTION('',(0.,1.,0.));
#876=DIRECTION('center_axis',(0.,0.,1.));
#877=DIRECTION('ref_axis',(1.,0.,0.));
#878=DIRECTION('',(1.,0.,0.));
#879=DIRECTION('',(1.,0.,0.));
#880=DIRECTION('',(0.,1.,0.));
#881=DIRECTION('center_axis',(1.,0.,0.));
#882=DIRECTION('ref_axis',(0.,0.,-1.));
#883=DIRECTION('',(0.,0.,-1.));
#884=DIRECTION('',(0.,0.,-1.));
#885=DIRECTION('center_axis',(0.,0.,-1.));
#886=DIRECTION('ref_axis',(-1.,0.,0.));
#887=DIRECTION('',(-1.,0.,0.));
#888=DIRECTION('',(0.,1.,0.));
#889=DIRECTION('',(-1.,0.,0.));
#890=DIRECTION('',(0.,1.,0.));
#891=DIRECTION('center_axis',(-1.,0.,0.));
#892=DIRECTION('ref_axis',(0.,0.,1.));
#893=DIRECTION('',(0.,0.,1.));
#894=DIRECTION('',(0.,0.,1.));
#895=DIRECTION('',(0.,1.,0.));
#896=DIRECTION('center_axis',(0.,0.,1.));
#897=DIRECTION('ref_axis',(1.,0.,0.));
#898=DIRECTION('',(1.,0.,0.));
#899=DIRECTION('',(1.,0.,0.));
#900=DIRECTION('',(0.,1.,0.));
#901=DIRECTION('center_axis',(1.,0.,0.));
#902=DIRECTION('ref_axis',(0.,0.,-1.));
#903=DIRECTION('',(0.,0.,-1.));
#904=DIRECTION('',(0.,0.,-1.));
#905=DIRECTION('center_axis',(0.,0.,-1.));
#906=DIRECTION('ref_axis',(-1.,0.,0.));
#907=DIRECTION('',(-1.,0.,0.));
#908=DIRECTION('',(0.,1.,0.));
#909=DIRECTION('',(-1.,0.,0.));
#910=DIRECTION('',(0.,1.,0.));
#911=DIRECTION('center_axis',(1.,0.,0.));
#912=DIRECTION('ref_axis',(0.,0.,-1.));
#913=DIRECTION('',(0.,0.,-1.));
#914=DIRECTION('',(0.,0.,-1.));
#915=DIRECTION('',(0.,1.,0.));
#916=DIRECTION('center_axis',(0.,0.,1.));
#917=DIRECTION('ref_axis',(1.,0.,0.));
#918=DIRECTION('',(1.,0.,0.));
#919=DIRECTION('',(1.,0.,0.));
#920=DIRECTION('',(0.,1.,0.));
#921=DIRECTION('center_axis',(-1.,0.,0.));
#922=DIRECTION('ref_axis',(0.,0.,1.));
#923=DIRECTION('',(0.,0.,1.));
#924=DIRECTION('',(0.,0.,1.));
#925=DIRECTION('center_axis',(0.,1.,0.));
#926=DIRECTION('ref_axis',(1.,0.,0.));
#927=DIRECTION('center_axis',(0.,1.,0.));
#928=DIRECTION('ref_axis',(1.,0.,0.));
#929=CARTESIAN_POINT('',(0.,0.,0.));
#930=CARTESIAN_POINT('Origin',(-4.69223524447598,15.,39.2269155614354));
#931=CARTESIAN_POINT('',(-4.69223524447598,15.,39.2269155614354));
#932=CARTESIAN_POINT('',(-5.71318040183487,15.,39.2269155614354));
#933=CARTESIAN_POINT('',(-5.71318040183487,15.,39.2269155614354));
#934=CARTESIAN_POINT('',(-5.71318040183487,17.,39.2269155614354));
#935=CARTESIAN_POINT('',(-5.71318040183487,15.,39.2269155614354));
#936=CARTESIAN_POINT('',(-4.69223524447598,17.,39.2269155614354));
#937=CARTESIAN_POINT('',(-5.71318040183487,17.,39.2269155614354));
#938=CARTESIAN_POINT('',(-4.69223524447598,15.,39.2269155614354));
#939=CARTESIAN_POINT('Origin',(-4.69223524447598,15.,38.4876104474859));
#940=CARTESIAN_POINT('',(-4.69223524447598,15.,38.4876104474859));
#941=CARTESIAN_POINT('',(-4.69223524447598,15.,39.2269155614354));
#942=CARTESIAN_POINT('',(-4.69223524447598,17.,38.4876104474859));
#943=CARTESIAN_POINT('',(-4.69223524447598,17.,39.2269155614354));
#944=CARTESIAN_POINT('',(-4.69223524447598,15.,38.4876104474859));
#945=CARTESIAN_POINT('Origin',(-5.71318040183487,15.,38.4876104474859));
#946=CARTESIAN_POINT('',(-5.71318040183487,15.,38.4876104474859));
#947=CARTESIAN_POINT('',(-4.69223524447598,15.,38.4876104474859));
#948=CARTESIAN_POINT('',(-5.71318040183487,17.,38.4876104474859));
#949=CARTESIAN_POINT('',(-4.69223524447598,17.,38.4876104474859));
#950=CARTESIAN_POINT('',(-5.71318040183487,15.,38.4876104474859));
#951=CARTESIAN_POINT('Origin',(-5.71318040183487,15.,39.2269155614354));
#952=CARTESIAN_POINT('',(-5.71318040183487,15.,38.4876104474859));
#953=CARTESIAN_POINT('',(-5.71318040183487,17.,38.4876104474859));
#954=CARTESIAN_POINT('Origin',(-4.69999989494681,15.,34.2628555000251));
#955=CARTESIAN_POINT('',(-4.69999989494681,15.,34.2628555000251));
#956=CARTESIAN_POINT('',(-5.66061741755708,15.,34.2628555000251));
#957=CARTESIAN_POINT('',(-5.66061741755708,15.,34.2628555000251));
#958=CARTESIAN_POINT('',(-5.66061741755708,17.,34.2628555000251));
#959=CARTESIAN_POINT('',(-5.66061741755708,15.,34.2628555000251));
#960=CARTESIAN_POINT('',(-4.69999989494681,17.,34.2628555000251));
#961=CARTESIAN_POINT('',(-5.66061741755708,17.,34.2628555000251));
#962=CARTESIAN_POINT('',(-4.69999989494681,15.,34.2628555000251));
#963=CARTESIAN_POINT('Origin',(-4.69999989494681,15.,33.4999992512167));
#964=CARTESIAN_POINT('',(-4.69999989494681,15.,33.4999992512167));
#965=CARTESIAN_POINT('',(-4.69999989494681,15.,34.2628555000251));
#966=CARTESIAN_POINT('',(-4.69999989494681,17.,33.4999992512167));
#967=CARTESIAN_POINT('',(-4.69999989494681,17.,34.2628555000251));
#968=CARTESIAN_POINT('',(-4.69999989494681,15.,33.4999992512167));
#969=CARTESIAN_POINT('Origin',(-5.66061741755708,15.,33.4999992512167));
#970=CARTESIAN_POINT('',(-5.66061741755708,15.,33.4999992512167));
#971=CARTESIAN_POINT('',(-4.69999989494681,15.,33.4999992512167));
#972=CARTESIAN_POINT('',(-5.66061741755708,17.,33.4999992512167));
#973=CARTESIAN_POINT('',(-4.69999989494681,17.,33.4999992512167));
#974=CARTESIAN_POINT('',(-5.66061741755708,15.,33.4999992512167));
#975=CARTESIAN_POINT('Origin',(-5.66061741755708,15.,34.2628555000251));
#976=CARTESIAN_POINT('',(-5.66061741755708,15.,33.4999992512167));
#977=CARTESIAN_POINT('',(-5.66061741755708,17.,33.4999992512167));
#978=CARTESIAN_POINT('Origin',(-4.69999989494681,15.,31.6707567909063));
#979=CARTESIAN_POINT('',(-4.69999989494681,15.,31.6707567909063));
#980=CARTESIAN_POINT('',(-5.66333700893532,15.,31.6707567909063));
#981=CARTESIAN_POINT('',(-5.66333700893532,15.,31.6707567909063));
#982=CARTESIAN_POINT('',(-5.66333700893532,17.,31.6707567909063));
#983=CARTESIAN_POINT('',(-5.66333700893532,15.,31.6707567909063));
#984=CARTESIAN_POINT('',(-4.69999989494681,17.,31.6707567909063));
#985=CARTESIAN_POINT('',(-5.66333700893532,17.,31.6707567909063));
#986=CARTESIAN_POINT('',(-4.69999989494681,15.,31.6707567909063));
#987=CARTESIAN_POINT('Origin',(-4.69999989494681,15.,30.8999993093312));
#988=CARTESIAN_POINT('',(-4.69999989494681,15.,30.8999993093312));
#989=CARTESIAN_POINT('',(-4.69999989494681,15.,31.6707567909063));
#990=CARTESIAN_POINT('',(-4.69999989494681,17.,30.8999993093312));
#991=CARTESIAN_POINT('',(-4.69999989494681,17.,31.6707567909063));
#992=CARTESIAN_POINT('',(-4.69999989494681,15.,30.8999993093312));
#993=CARTESIAN_POINT('Origin',(-5.66333700893532,15.,30.8999993093312));
#994=CARTESIAN_POINT('',(-5.66333700893532,15.,30.8999993093312));
#995=CARTESIAN_POINT('',(-4.69999989494681,15.,30.8999993093312));
#996=CARTESIAN_POINT('',(-5.66333700893532,17.,30.8999993093312));
#997=CARTESIAN_POINT('',(-4.69999989494681,17.,30.8999993093312));
#998=CARTESIAN_POINT('',(-5.66333700893532,15.,30.8999993093312));
#999=CARTESIAN_POINT('Origin',(-5.66333700893532,15.,31.6707567909063));
#1000=CARTESIAN_POINT('',(-5.66333700893532,15.,30.8999993093312));
#1001=CARTESIAN_POINT('',(-5.66333700893532,17.,30.8999993093312));
#1002=CARTESIAN_POINT('Origin',(2.50000005215406,15.,38.6305643677987));
#1003=CARTESIAN_POINT('',(2.50000005215406,15.,38.6305643677987));
#1004=CARTESIAN_POINT('',(0.670469853876448,15.,38.6305643677987));
#1005=CARTESIAN_POINT('',(0.670469853876448,15.,38.6305643677987));
#1006=CARTESIAN_POINT('',(0.670469853876448,17.,38.6305643677987));
#1007=CARTESIAN_POINT('',(0.670469853876448,15.,38.6305643677987));
#1008=CARTESIAN_POINT('',(2.50000005215406,17.,38.6305643677987));
#1009=CARTESIAN_POINT('',(0.670469853876448,17.,38.6305643677987));
#1010=CARTESIAN_POINT('',(2.50000005215406,15.,38.6305643677987));
#1011=CARTESIAN_POINT('Origin',(2.50000005215406,15.,37.6305643677987));
#1012=CARTESIAN_POINT('',(3.50000005215407,15.,37.6305643677987));
#1013=CARTESIAN_POINT('Origin',(2.50000005215406,15.,37.6305643677987));
#1014=CARTESIAN_POINT('',(3.50000005215407,17.,37.6305643677987));
#1015=CARTESIAN_POINT('Origin',(2.50000005215406,17.,37.6305643677987));
#1016=CARTESIAN_POINT('',(3.50000005215407,15.,37.6305643677987));
#1017=CARTESIAN_POINT('Origin',(3.50000005215406,15.,30.8275110666008));
#1018=CARTESIAN_POINT('',(3.50000005215406,15.,30.8275110666008));
#1019=CARTESIAN_POINT('',(3.50000005215407,15.,37.6305643677987));
#1020=CARTESIAN_POINT('',(3.50000005215406,17.,30.8275110666008));
#1021=CARTESIAN_POINT('',(3.50000005215407,17.,37.6305643677987));
#1022=CARTESIAN_POINT('',(3.50000005215406,15.,30.8275110666008));
#1023=CARTESIAN_POINT('Origin',(2.50000005215406,15.,30.8275110666008));
#1024=CARTESIAN_POINT('',(2.50000005215406,15.,29.8275110666008));
#1025=CARTESIAN_POINT('Origin',(2.50000005215406,15.,30.8275110666008));
#1026=CARTESIAN_POINT('',(2.50000005215406,17.,29.8275110666008));
#1027=CARTESIAN_POINT('Origin',(2.50000005215406,17.,30.8275110666008));
#1028=CARTESIAN_POINT('',(2.50000005215406,15.,29.8275110666008));
#1029=CARTESIAN_POINT('Origin',(0.670469853876448,15.,29.8275110666008));
#1030=CARTESIAN_POINT('',(0.670469853876448,15.,29.8275110666008));
#1031=CARTESIAN_POINT('',(3.50000005215406,15.,29.8275110666008));
#1032=CARTESIAN_POINT('',(0.670469853876448,17.,29.8275110666008));
#1033=CARTESIAN_POINT('',(3.50000005215406,17.,29.8275110666008));
#1034=CARTESIAN_POINT('',(0.670469853876448,15.,29.8275110666008));
#1035=CARTESIAN_POINT('Origin',(0.670469853876453,15.,30.8275110666008));
#1036=CARTESIAN_POINT('',(-0.329530146123553,15.,30.8275110666008));
#1037=CARTESIAN_POINT('Origin',(0.670469853876453,15.,30.8275110666008));
#1038=CARTESIAN_POINT('',(-0.329530146123552,17.,30.8275110666008));
#1039=CARTESIAN_POINT('Origin',(0.670469853876453,17.,30.8275110666008));
#1040=CARTESIAN_POINT('',(-0.329530146123553,15.,30.8275110666008));
#1041=CARTESIAN_POINT('Origin',(-0.329530146123555,15.,37.6305643677987));
#1042=CARTESIAN_POINT('',(-0.329530146123555,15.,37.6305643677987));
#1043=CARTESIAN_POINT('',(-0.329530146123553,15.,30.8275110666008));
#1044=CARTESIAN_POINT('',(-0.329530146123554,17.,37.6305643677987));
#1045=CARTESIAN_POINT('',(-0.329530146123553,17.,30.8275110666008));
#1046=CARTESIAN_POINT('',(-0.329530146123555,15.,37.6305643677987));
#1047=CARTESIAN_POINT('Origin',(0.670469853876451,15.,37.6305643677987));
#1048=CARTESIAN_POINT('Origin',(0.670469853876451,15.,37.6305643677987));
#1049=CARTESIAN_POINT('Origin',(0.670469853876451,17.,37.6305643677987));
#1050=CARTESIAN_POINT('Origin',(-4.69999989494681,15.,29.2481432249622));
#1051=CARTESIAN_POINT('',(-4.69999989494681,15.,29.2481432249622));
#1052=CARTESIAN_POINT('',(-5.66333700893532,15.,29.2481432249622));
#1053=CARTESIAN_POINT('',(-5.66333700893532,15.,29.2481432249622));
#1054=CARTESIAN_POINT('',(-5.66333700893532,17.,29.2481432249622));
#1055=CARTESIAN_POINT('',(-5.66333700893532,15.,29.2481432249622));
#1056=CARTESIAN_POINT('',(-4.69999989494681,17.,29.2481432249622));
#1057=CARTESIAN_POINT('',(-5.66333700893532,17.,29.2481432249622));
#1058=CARTESIAN_POINT('',(-4.69999989494681,15.,29.2481432249622));
#1059=CARTESIAN_POINT('Origin',(-4.69999989494681,15.,28.4999993629754));
#1060=CARTESIAN_POINT('',(-4.69999989494681,15.,28.4999993629754));
#1061=CARTESIAN_POINT('',(-4.69999989494681,15.,29.2481432249622));
#1062=CARTESIAN_POINT('',(-4.69999989494681,17.,28.4999993629754));
#1063=CARTESIAN_POINT('',(-4.69999989494681,17.,29.2481432249622));
#1064=CARTESIAN_POINT('',(-4.69999989494681,15.,28.4999993629754));
#1065=CARTESIAN_POINT('Origin',(-5.66333700893532,15.,28.4999993629754));
#1066=CARTESIAN_POINT('',(-5.66333700893532,15.,28.4999993629754));
#1067=CARTESIAN_POINT('',(-4.69999989494681,15.,28.4999993629754));
#1068=CARTESIAN_POINT('',(-5.66333700893532,17.,28.4999993629754));
#1069=CARTESIAN_POINT('',(-4.69999989494681,17.,28.4999993629754));
#1070=CARTESIAN_POINT('',(-5.66333700893532,15.,28.4999993629754));
#1071=CARTESIAN_POINT('Origin',(-5.66333700893532,15.,29.2481432249622));
#1072=CARTESIAN_POINT('',(-5.66333700893532,15.,28.4999993629754));
#1073=CARTESIAN_POINT('',(-5.66333700893532,17.,28.4999993629754));
#1074=CARTESIAN_POINT('Origin',(-4.70983774718906,15.,36.6569501653251));
#1075=CARTESIAN_POINT('',(-4.70983774718906,15.,36.6569501653251));
#1076=CARTESIAN_POINT('',(-5.64277039098253,15.,36.6569501653251));
#1077=CARTESIAN_POINT('',(-5.64277039098253,15.,36.6569501653251));
#1078=CARTESIAN_POINT('',(-5.64277039098253,17.,36.6569501653251));
#1079=CARTESIAN_POINT('',(-5.64277039098253,15.,36.6569501653251));
#1080=CARTESIAN_POINT('',(-4.70983774718906,17.,36.6569501653251));
#1081=CARTESIAN_POINT('',(-5.64277039098253,17.,36.6569501653251));
#1082=CARTESIAN_POINT('',(-4.70983774718906,15.,36.6569501653251));
#1083=CARTESIAN_POINT('Origin',(-4.70983774718906,15.,35.9000425486625));
#1084=CARTESIAN_POINT('',(-4.70983774718906,15.,35.9000425486625));
#1085=CARTESIAN_POINT('',(-4.70983774718906,15.,36.6569501653251));
#1086=CARTESIAN_POINT('',(-4.70983774718906,17.,35.9000425486625));
#1087=CARTESIAN_POINT('',(-4.70983774718906,17.,36.6569501653251));
#1088=CARTESIAN_POINT('',(-4.70983774718906,15.,35.9000425486625));
#1089=CARTESIAN_POINT('Origin',(-5.64277039098253,15.,35.9000425486625));
#1090=CARTESIAN_POINT('',(-5.64277039098253,15.,35.9000425486625));
#1091=CARTESIAN_POINT('',(-4.70983774718906,15.,35.9000425486625));
#1092=CARTESIAN_POINT('',(-5.64277039098253,17.,35.9000425486625));
#1093=CARTESIAN_POINT('',(-4.70983774718906,17.,35.9000425486625));
#1094=CARTESIAN_POINT('',(-5.64277039098253,15.,35.9000425486625));
#1095=CARTESIAN_POINT('Origin',(-5.64277039098253,15.,36.6569501653251));
#1096=CARTESIAN_POINT('',(-5.64277039098253,15.,35.9000425486625));
#1097=CARTESIAN_POINT('',(-5.64277039098253,17.,35.9000425486625));
#1098=CARTESIAN_POINT('Origin',(66.6014531969422,15.,-1.12218518410602));
#1099=CARTESIAN_POINT('',(66.6014531969422,15.,-1.12218518410602));
#1100=CARTESIAN_POINT('',(-10.0000001490116,15.,-1.12218518410602));
#1101=CARTESIAN_POINT('',(66.6014531969422,15.,-1.12218518410602));
#1102=CARTESIAN_POINT('',(-10.0000001490116,17.,-1.12218518410602));
#1103=CARTESIAN_POINT('',(-10.0000001490116,15.,-1.12218518410602));
#1104=CARTESIAN_POINT('',(66.6014531969422,17.,-1.12218518410602));
#1105=CARTESIAN_POINT('',(66.6014531969422,17.,-1.12218518410602));
#1106=CARTESIAN_POINT('',(66.6014531969422,15.,-1.12218518410602));
#1107=CARTESIAN_POINT('Origin',(66.6014531969422,15.,66.0000009834766));
#1108=CARTESIAN_POINT('',(66.6014531969422,15.,66.0000009834766));
#1109=CARTESIAN_POINT('',(66.6014531969422,15.,66.0000009834766));
#1110=CARTESIAN_POINT('',(66.6014531969422,17.,66.0000009834766));
#1111=CARTESIAN_POINT('',(66.6014531969422,17.,66.0000009834766));
#1112=CARTESIAN_POINT('',(66.6014531969422,15.,66.0000009834766));
#1113=CARTESIAN_POINT('Origin',(-10.0000001490116,15.,66.0000009834766));
#1114=CARTESIAN_POINT('',(-10.0000001490116,15.,66.0000009834766));
#1115=CARTESIAN_POINT('',(-10.0000001490116,15.,66.0000009834766));
#1116=CARTESIAN_POINT('',(-10.0000001490116,17.,66.0000009834766));
#1117=CARTESIAN_POINT('',(-10.0000001490116,17.,66.0000009834766));
#1118=CARTESIAN_POINT('',(-10.0000001490116,15.,66.0000009834766));
#1119=CARTESIAN_POINT('Origin',(-10.0000001490116,15.,-1.12218518410602));
#1120=CARTESIAN_POINT('',(-10.0000001490116,15.,-1.12218518410602));
#1121=CARTESIAN_POINT('',(-10.0000001490116,17.,-1.12218518410602));
#1122=CARTESIAN_POINT('Origin',(28.3007265239653,17.,32.4389078996853));
#1123=CARTESIAN_POINT('Origin',(28.3007265239653,15.,32.4389078996853));
#1124=UNCERTAINTY_MEASURE_WITH_UNIT(LENGTH_MEASURE(0.01),#1128,
'DISTANCE_ACCURACY_VALUE',
'Maximum model space distance between geometric entities at asserted c
onnectivities');
#1125=UNCERTAINTY_MEASURE_WITH_UNIT(LENGTH_MEASURE(0.01),#1128,
'DISTANCE_ACCURACY_VALUE',
'Maximum model space distance between geometric entities at asserted c
onnectivities');
#1126=(
GEOMETRIC_REPRESENTATION_CONTEXT(3)
GLOBAL_UNCERTAINTY_ASSIGNED_CONTEXT((#1124))
GLOBAL_UNIT_ASSIGNED_CONTEXT((#1128,#1129,#1130))
REPRESENTATION_CONTEXT('','3D')
);
#1127=(
GEOMETRIC_REPRESENTATION_CONTEXT(3)
GLOBAL_UNCERTAINTY_ASSIGNED_CONTEXT((#1125))
GLOBAL_UNIT_ASSIGNED_CONTEXT((#1128,#1129,#1130))
REPRESENTATION_CONTEXT('','3D')
);
#1128=(
LENGTH_UNIT()
NAMED_UNIT(*)
SI_UNIT(.MILLI.,.METRE.)
);
#1129=(
NAMED_UNIT(*)
PLANE_ANGLE_UNIT()
SI_UNIT($,.RADIAN.)
);
#1130=(
NAMED_UNIT(*)
SI_UNIT($,.STERADIAN.)
SOLID_ANGLE_UNIT()
);
#1131=SHAPE_DEFINITION_REPRESENTATION(#1132,#1133);
#1132=PRODUCT_DEFINITION_SHAPE('',$,#1135);
#1133=SHAPE_REPRESENTATION('',(#712),#1126);
#1134=PRODUCT_DEFINITION_CONTEXT('part definition',#1139,'design');
#1135=PRODUCT_DEFINITION('findmycharger casing',
'findmycharger casing v3',#1136,#1134);
#1136=PRODUCT_DEFINITION_FORMATION('',$,#1141);
#1137=PRODUCT_RELATED_PRODUCT_CATEGORY('findmycharger casing v3',
'findmycharger casing v3',(#1141));
#1138=APPLICATION_PROTOCOL_DEFINITION('international standard',
'automotive_design',2009,#1139);
#1139=APPLICATION_CONTEXT(
'Core Data for Automotive Mechanical Design Process');
#1140=PRODUCT_CONTEXT('part definition',#1139,'mechanical');
#1141=PRODUCT('findmycharger casing','findmycharger casing v3',$,(#1140));
#1142=PRESENTATION_STYLE_ASSIGNMENT((#1143));
#1143=SURFACE_STYLE_USAGE(.BOTH.,#1144);
#1144=SURFACE_SIDE_STYLE('',(#1145));
#1145=SURFACE_STYLE_FILL_AREA(#1146);
#1146=FILL_AREA_STYLE('Steel - Satin',(#1147));
#1147=FILL_AREA_STYLE_COLOUR('Steel - Satin',#1148);
#1148=COLOUR_RGB('Steel - Satin',0.627450980392157,0.627450980392157,0.627450980392157);
ENDSEC;
END-ISO-10303-21;
