#VRML V2.0 utf8
# 3D model generated by Easy ECAD Downloader

Shape{
    appearance Appearance {
        material  Material {
            diffuseColor 0.0 0.592156862745098 0.050980392156862744
            specularColor 0.0 0.29411764705882354 0.023529411764705882
            ambientIntensity 0.2
            transparency 0
            shininess 0.5
        }
    }
    geometry IndexedFaceSet {
        ccw TRUE
        solid FALSE
        coord DEF co Coordinate {
            point [
                -0.6496 0.0067 0.0039, -1.1319 0.0067 0.0039, -1.1319 0.2165 0.0039, -1.7323 -1.7717 0.0039, -1.7717 -1.7717 0.0039, -1.7717 -1.1713 0.0039, 1.6929 -0.1772 0.0039, 1.6929 0.0067 0.0039, 1.7717 0.0067 0.0039, -1.2205 -0.1772 0.0039, -1.2205 0.0067 0.0039, -1.2205 0.1772 0.0039, -1.7323 0.2165 0.0039, -1.6929 0.1772 0.0039, -1.7323 0.0067 0.0039, -1.6929 0.0067 0.0039, -1.6929 -0.1772 0.0039, -1.6929 -0.2559 0.0039, -1.6929 -0.6102 0.0039, -1.7323 -0.6496 0.0039, -1.1319 -0.6496 0.0039, -1.2205 -0.6102 0.0039, -1.2205 -0.2559 0.0039, 1.2205 -1.1220 0.0039, 1.2205 -1.1713 0.0039, 1.1319 -1.1713 0.0039, 1.2205 -1.4764 0.0039, 1.1319 -1.7717 0.0039, 1.6929 -1.1220 0.0039, 1.7717 -0.6496 0.0039, 1.7717 -1.1713 0.0039, 1.7717 -1.7717 0.0039, 1.6929 -1.4764 0.0039, 1.6929 -1.1713 0.0039, 1.1319 -0.6496 0.0039, 1.2205 -0.6890 0.0039, 1.2205 -1.0433 0.0039, 1.7717 0.2165 0.0039, 1.2205 0.1772 0.0039, 1.2205 0.0067 0.0039, 1.1319 0.0067 0.0039, 1.2205 -0.1772 0.0039, 1.2205 -0.2559 0.0039, 1.2205 -0.6102 0.0039, 1.6929 -0.6102 0.0039, 1.6929 -0.2559 0.0039, -1.6929 -0.6890 0.0039, -1.6929 -1.0433 0.0039, -1.1319 -1.1713 0.0039, -1.2205 -1.1713 0.0039, -1.2205 -1.1220 0.0039, -1.2205 -0.6890 0.0039, -1.2205 -1.0433 0.0039, -1.6929 -1.1220 0.0039, -1.6929 -1.1713 0.0039, -1.7323 -1.1713 0.0039, -1.6929 -1.4764 0.0039, -1.2205 -1.4764 0.0039, -1.1319 -1.7717 0.0039, -0.0503 -1.2205 0.0039, -0.1772 -1.2205 0.0039, -0.2351 -1.1713 0.0039, -0.2351 -1.7717 0.0039, -0.1772 -1.6929 0.0039, -0.0503 -1.7717 0.0039, -0.0503 -1.6929 0.0039, 0.0938 -1.7717 0.0039, 0.0938 -1.6929 0.0039, 0.2165 -1.7717 0.0039, 0.1772 -1.6929 0.0039, 0.2165 -1.1713 0.0039, 0.1772 -1.2205 0.0039, 0.0938 -1.1713 0.0039, 0.0938 -1.2205 0.0039, -0.0503 -1.1713 0.0039, 0.0938 -0.6496 0.0039, 0.0938 0.0067 0.0039, 0.1130 -0.1811 0.0039, 0.1130 -0.1595 0.0039, 0.1419 0.0067 0.0039, 0.1357 0.0063 0.0039, 0.1819 -0.1701 0.0039, 0.1635 -0.1721 0.0039, 0.1785 -0.0158 0.0039, 0.1130 0.0001 0.0039, 0.1130 -0.0263 0.0039, 0.1352 -0.0168 0.0039, 0.1165 -0.1615 0.0039, 0.1591 -0.0137 0.0039, 0.1374 -0.1692 0.0039, 0.2165 -0.0410 0.0039, 0.2165 -0.1479 0.0039, 0.2068 -0.0303 0.0039, 0.2083 -0.1566 0.0039, 0.1932 -0.0212 0.0039, 0.1962 -0.1648 0.0039, 0.1340 -0.1897 0.0039, 0.1618 -0.1936 0.0039, 0.2165 -0.6496 0.0039, 0.1671 -0.1937 0.0039, 0.1914 -0.1912 0.0039, 0.2330 -0.0950 0.0039, 0.2310 -0.1163 0.0039, 0.2321 -0.0797 0.0039, 0.2187 -0.0434 0.0039, 0.2268 -0.0586 0.0039, 0.2257 -0.1332 0.0039, 0.2175 -0.1469 0.0039, 0.2165 0.0067 0.0039, 0.2010 -0.0001 0.0039, 0.1791 0.0063 0.0039, 0.6496 -0.6496 0.0039, 0.2762 -0.1913 0.0039, 0.2105 -0.1846 0.0039, 0.2165 -0.1808 0.0039, 0.3506 0.0055 0.0039, 0.3771 0.0055 0.0039, 0.6496 0.0067 0.0039, 0.3771 -0.1913 0.0039, 0.2490 -0.0463 0.0039, 0.2375 -0.0279 0.0039, 0.2197 -0.0108 0.0039, 0.2165 -0.0090 0.0039, 0.2263 -0.1745 0.0039, 0.2411 -0.1590 0.0039, 0.2762 -0.1697 0.0039, 0.2516 -0.1402 0.0039, 0.3506 -0.1697 0.0039, 0.2575 -0.1194 0.0039, 0.2594 -0.0966 0.0039, 0.2566 -0.0686 0.0039, 1.0433 -1.2205 0.0039, 1.0433 -1.6929 0.0039, 0.6890 -1.6929 0.0039, 0.6496 -1.7717 0.0039, 0.6890 -1.2205 0.0039, 0.6496 -1.1713 0.0039, 0.6102 -1.6929 0.0039, 0.2559 -1.6929 0.0039, 0.2559 -1.2205 0.0039, 0.6102 -1.2205 0.0039, -0.2559 -1.6929 0.0039, -0.6102 -1.6929 0.0039, -0.6496 -1.7717 0.0039, -0.6102 -1.2205 0.0039, -0.6496 -1.1713 0.0039, -0.2559 -1.2205 0.0039, -0.6890 -1.6929 0.0039, -1.0433 -1.6929 0.0039, -1.0433 -1.2205 0.0039, -0.6890 -1.2205 0.0039, 1.6929 -0.6890 0.0039, 1.6929 -1.0433 0.0039, -0.0503 -0.6496 0.0039, -0.2351 -0.6496 0.0039, -0.6496 -0.6496 0.0039, -0.0503 0.0067 0.0039, -0.0311 -0.1913 0.0039, -0.0311 -0.1697 0.0039, 0.0746 -0.1913 0.0039, 0.0746 0.0055 0.0039, -0.0263 0.0055 0.0039, -0.0263 -0.0161 0.0039, 0.0482 -0.1025 0.0039, 0.0482 -0.1697 0.0039, -0.0215 -0.1025 0.0039, -0.0215 -0.0809 0.0039, 0.0482 -0.0809 0.0039, 0.0482 -0.0161 0.0039, -0.2251 -0.1168 0.0039, -0.2181 -0.1374 0.0039, -0.2279 -0.0904 0.0039, -0.2068 -0.1550 0.0039, -0.1906 -0.1705 0.0039, -0.1700 -0.1824 0.0039, -0.1250 0.0055 0.0039, -0.2351 0.0067 0.0039, -0.1535 0.0025 0.0039, -0.1765 -0.0056 0.0039, -0.1979 -0.0200 0.0039, -0.1981 -0.0201 0.0039, -0.2120 -0.0356 0.0039, -0.2212 -0.0525 0.0039, -0.2265 -0.0719 0.0039, -0.1473 -0.1892 0.0039, -0.1230 -0.1913 0.0039, -0.0695 -0.1913 0.0039, -0.0695 0.0055 0.0039, -0.2711 -0.1913 0.0039, -0.2423 -0.1913 0.0039, -0.3167 0.0055 0.0039, -0.3431 0.0055 0.0039, -0.4200 -0.1913 0.0039, -0.3911 -0.1913 0.0039, -0.3712 -0.1361 0.0039, -0.2899 -0.1361 0.0039, 0.1740 0.0067 0.0039, 0.2165 0.2165 0.0039, 0.6496 0.2165 0.0039, 1.1319 0.2165 0.0039, 1.6929 0.1772 0.0039, 0.1593 0.0079 0.0039, 0.0938 0.2165 0.0039, -0.0503 0.2165 0.0039, -0.2351 0.2165 0.0039, -0.6496 0.2165 0.0039, 1.2205 0.6102 0.0039, 1.2205 0.2559 0.0039, 1.6929 0.2559 0.0039, 1.6929 0.6102 0.0039, 1.7717 1.7717 0.0039, 1.1319 1.7717 0.0039, 0.6496 1.7717 0.0039, 0.2165 1.7717 0.0039, 0.0938 1.7717 0.0039, -0.0503 1.7717 0.0039, -0.2351 1.7717 0.0039, -0.6496 1.7717 0.0039, -1.1319 1.7717 0.0039, -1.2205 0.6102 0.0039, -1.7323 1.7717 0.0039, -1.6929 0.6102 0.0039, -1.6929 0.2559 0.0039, -1.2205 0.2559 0.0039, -1.7717 -0.6496 0.0039, -1.7717 0.0067 0.0039, -1.7717 0.2165 0.0039, -1.7717 1.7717 0.0039, 1.7717 -1.7717 0.3189, 1.7717 1.7717 0.3189, -1.7717 1.7717 0.3189, -1.7717 -1.7717 0.3189, -1.6339 1.6627 0.3189, -1.6149 1.6705 0.3189, 1.6705 -1.6149 0.3189, 1.6627 -1.6339 0.3189, 1.6502 -1.6502 0.3189, 1.6339 -1.6627 0.3189, -1.6149 -1.6705 0.3189, -1.6339 -1.6627 0.3189, -1.6502 -1.6502 0.3189, -1.6627 -1.6339 0.3189, -1.6705 1.6149 0.3189, -1.6627 1.6339 0.3189, -1.6502 1.6502 0.3189, 1.6627 0.6668 0.3189, 1.6705 0.6479 0.3189, 1.6732 0.6275 0.3189, 1.6732 -1.5945 0.3189, -1.5945 1.6732 0.3189, -0.2771 1.6732 0.3189, -0.2568 1.6705 0.3189, -0.2378 1.6627 0.3189, -0.2215 1.6502 0.3189, -0.2089 1.6339 0.3189, 1.6149 -1.6705 0.3189, 1.5945 -1.6732 0.3189, -1.5945 -1.6732 0.3189, -1.6705 -1.6149 0.3189, -1.6732 -1.5945 0.3189, -1.6732 1.5945 0.3189, 1.5945 0.7062 0.3189, 1.6149 0.7035 0.3189, 1.6339 0.6957 0.3189, 1.6502 0.6831 0.3189, -0.2011 1.6149 0.3189, -0.1984 1.5945 0.3189, -0.1984 0.7850 0.3189, -0.1197 0.7062 0.3189, -0.1753 0.7293 0.3189, -0.1879 0.7456 0.3189, -0.1957 0.7646 0.3189, -0.1590 0.7168 0.3189, -0.1400 0.7089 0.3189, -0.1400 0.7089 0.3189
            ]
        }
        coordIndex [
            0 1 2 -1,3 4 5 -1,6 7 8 -1,9 10 1 -1,1 10 2 -1,2 10 11 -1,2 11 12 -1,12 11 13 -1,12 13 14 -1,14 13 15 -1,14 15 16 -1,17 18 19 -1,19 18 20 -1,20 18 21 -1,20 21 22 -1,23 24 25 -1,25 24 26 -1,25 26 27 -1,28 29 30 -1,27 26 31 -1,31 26 32 -1,31 32 30 -1,30 32 33 -1,30 33 28 -1,34 35 36 -1,8 7 37 -1,38 39 40 -1,40 39 41 -1,42 43 34 -1,34 43 29 -1,29 43 44 -1,29 44 45 -1,19 46 47 -1,48 49 50 -1,46 19 51 -1,51 19 20 -1,51 20 52 -1,53 54 55 -1,55 54 56 -1,49 48 57 -1,57 48 58 -1,57 58 56 -1,56 58 3 -1,56 3 55 -1,59 60 61 -1,61 60 62 -1,62 60 63 -1,62 63 64 -1,64 63 65 -1,64 65 66 -1,66 65 67 -1,66 67 68 -1,68 67 69 -1,68 69 70 -1,70 69 71 -1,70 71 72 -1,72 71 73 -1,72 73 74 -1,75 76 77 -1,77 76 78 -1,76 79 80 -1,81 82 83 -1,80 84 76 -1,76 84 85 -1,76 85 78 -1,78 85 86 -1,78 86 87 -1,86 88 87 -1,87 88 83 -1,87 83 89 -1,89 83 82 -1,90 91 92 -1,92 91 93 -1,92 93 94 -1,94 93 83 -1,83 93 95 -1,83 95 81 -1,77 96 75 -1,75 96 97 -1,75 97 98 -1,98 97 99 -1,98 99 100 -1,90 101 102 -1,101 90 103 -1,103 90 104 -1,103 104 105 -1,102 106 90 -1,90 106 107 -1,90 107 91 -1,108 109 110 -1,111 98 112 -1,100 113 98 -1,98 113 114 -1,98 114 112 -1,115 108 116 -1,116 108 117 -1,116 117 118 -1,119 120 115 -1,115 120 121 -1,115 121 108 -1,108 121 122 -1,108 122 109 -1,114 123 112 -1,112 123 124 -1,112 124 125 -1,125 124 126 -1,125 126 127 -1,126 128 127 -1,127 128 129 -1,127 129 115 -1,115 129 130 -1,115 130 119 -1,131 25 132 -1,132 25 27 -1,132 27 133 -1,133 27 134 -1,133 134 135 -1,135 134 136 -1,135 136 131 -1,131 136 25 -1,137 134 138 -1,138 134 68 -1,138 68 139 -1,139 68 70 -1,139 70 140 -1,140 70 136 -1,140 136 137 -1,137 136 134 -1,141 62 142 -1,142 62 143 -1,142 143 144 -1,144 143 145 -1,144 145 146 -1,146 145 61 -1,146 61 141 -1,141 61 62 -1,147 143 148 -1,148 143 58 -1,148 58 149 -1,149 58 48 -1,149 48 150 -1,150 48 145 -1,150 145 147 -1,147 145 143 -1,35 34 151 -1,151 34 29 -1,151 29 152 -1,152 29 28 -1,152 28 36 -1,36 28 23 -1,36 23 34 -1,34 23 25 -1,34 25 111 -1,111 25 136 -1,111 136 98 -1,98 136 70 -1,98 70 75 -1,75 70 72 -1,75 72 153 -1,153 72 74 -1,153 74 154 -1,55 19 53 -1,53 19 47 -1,53 47 50 -1,50 47 52 -1,50 52 48 -1,48 52 20 -1,48 20 145 -1,145 20 155 -1,145 155 61 -1,112 118 111 -1,111 118 117 -1,111 117 34 -1,34 117 40 -1,34 40 42 -1,42 40 41 -1,42 41 45 -1,45 41 6 -1,45 6 29 -1,29 6 8 -1,153 156 157 -1,157 156 158 -1,153 157 75 -1,75 157 159 -1,75 159 76 -1,159 160 76 -1,76 160 161 -1,76 161 156 -1,156 161 162 -1,156 162 158 -1,163 164 165 -1,165 164 158 -1,165 158 166 -1,166 158 162 -1,166 162 167 -1,167 162 168 -1,169 170 154 -1,169 154 171 -1,170 172 154 -1,154 172 173 -1,154 173 174 -1,156 175 176 -1,176 175 177 -1,176 177 178 -1,178 179 176 -1,176 179 180 -1,176 180 181 -1,181 182 176 -1,176 182 183 -1,176 183 171 -1,174 184 154 -1,154 184 185 -1,154 185 153 -1,153 185 186 -1,153 186 156 -1,156 186 187 -1,156 187 175 -1,188 189 154 -1,171 154 176 -1,176 154 189 -1,176 189 190 -1,191 192 155 -1,155 192 193 -1,194 195 193 -1,193 195 188 -1,193 188 155 -1,155 188 154 -1,155 154 61 -1,61 154 74 -1,61 74 59 -1,59 74 73 -1,19 14 17 -1,17 14 16 -1,17 16 22 -1,22 16 9 -1,22 9 20 -1,20 9 1 -1,20 1 155 -1,155 1 0 -1,155 0 191 -1,110 196 108 -1,108 196 197 -1,108 197 117 -1,117 197 198 -1,117 198 40 -1,40 198 199 -1,40 199 38 -1,38 199 200 -1,196 201 197 -1,197 201 79 -1,197 79 202 -1,202 79 76 -1,202 76 203 -1,203 76 156 -1,203 156 204 -1,204 156 176 -1,204 176 205 -1,206 207 199 -1,199 207 37 -1,199 37 200 -1,200 37 7 -1,207 208 37 -1,37 208 209 -1,37 209 210 -1,210 209 211 -1,209 206 211 -1,211 206 199 -1,211 199 212 -1,212 199 198 -1,212 198 213 -1,213 198 197 -1,213 197 214 -1,214 197 202 -1,214 202 215 -1,215 202 203 -1,215 203 216 -1,216 203 204 -1,216 204 217 -1,217 204 205 -1,217 205 218 -1,190 191 176 -1,176 191 0 -1,176 0 205 -1,205 0 2 -1,205 2 218 -1,218 2 219 -1,218 219 220 -1,220 219 221 -1,220 221 12 -1,12 221 222 -1,12 222 2 -1,2 222 223 -1,2 223 219 -1,3 5 55 -1,55 5 224 -1,55 224 19 -1,19 224 225 -1,19 225 14 -1,14 225 226 -1,14 226 12 -1,12 226 227 -1,12 227 220 -1,228 31 30 -1,30 29 228 -1,228 29 8 -1,228 8 229 -1,229 8 37 -1,229 37 210 -1,210 211 229 -1,229 211 212 -1,229 212 213 -1,213 214 229 -1,229 214 215 -1,229 215 230 -1,230 215 216 -1,230 216 217 -1,217 218 230 -1,230 218 220 -1,230 220 227 -1,5 4 231 -1,227 226 230 -1,230 226 225 -1,230 225 231 -1,231 225 224 -1,231 224 5 -1,4 3 231 -1,231 3 58 -1,231 58 143 -1,143 62 231 -1,231 62 64 -1,231 64 228 -1,228 64 66 -1,228 66 68 -1,68 134 228 -1,228 134 27 -1,228 27 31 -1,232 233 230 -1,234 235 228 -1,228 235 236 -1,228 236 237 -1,238 239 231 -1,231 239 240 -1,231 240 241 -1,242 243 230 -1,230 243 244 -1,230 244 232 -1,245 246 229 -1,229 246 247 -1,229 247 228 -1,228 247 248 -1,228 248 234 -1,233 249 230 -1,230 249 250 -1,230 250 229 -1,229 250 251 -1,251 252 229 -1,229 252 253 -1,229 253 254 -1,237 255 228 -1,228 255 256 -1,228 256 231 -1,231 256 257 -1,231 257 238 -1,241 258 231 -1,231 258 259 -1,231 259 230 -1,230 259 260 -1,230 260 242 -1,261 262 229 -1,262 263 229 -1,229 263 264 -1,229 264 245 -1,254 265 229 -1,229 265 266 -1,229 266 261 -1,261 266 267 -1,261 267 268 -1,269 267 270 -1,270 267 271 -1,269 272 267 -1,267 272 273 -1,267 273 268 -1,
        ]
    }
}
Shape{
    appearance Appearance {
        material  Material {
            diffuseColor 0.8509803921568627 0.8509803921568627 0.8509803921568627
            specularColor 0.4235294117647059 0.4235294117647059 0.4235294117647059
            ambientIntensity 0.2
            transparency 0
            shininess 0.5
        }
    }
    geometry IndexedFaceSet {
        ccw TRUE
        solid FALSE
        coord DEF co Coordinate {
            point [
                -0.2771 1.6732 0.3189, -1.5945 1.6732 0.3189, -0.2771 1.6732 0.8701, -1.5945 1.6732 0.8701, -1.6732 -1.5945 0.8701, -1.6732 1.5945 0.8701, -1.6732 -1.5945 0.3189, -1.6732 1.5945 0.3189, -1.5945 -1.6732 0.3189, 1.5945 -1.6732 0.3189, -1.5945 -1.6732 0.8701, 1.5945 -1.6732 0.8701, 1.6732 -1.5945 0.3189, 1.6732 0.6275 0.3189, 1.6732 -1.5945 0.8701, 1.6732 0.6275 0.8701, 1.5945 0.7062 0.3189, -0.1197 0.7062 0.3189, 1.5945 0.7062 0.8701, -0.1197 0.7062 0.8701, -0.1984 0.7850 0.3189, -0.1984 1.5945 0.3189, -0.1984 0.7850 0.8701, -0.1984 1.5945 0.8701, -0.1604 0.6328 0.9488, -0.1984 0.6486 0.9488, -1.5945 -1.5945 0.9488, -0.2310 0.6736 0.9488, 1.5945 -1.5945 0.9488, 1.5945 0.6275 0.9488, -0.1197 0.6275 0.9488, -0.2560 0.7062 0.9488, -0.2718 0.7442 0.9488, -1.5945 1.5945 0.9488, -0.2771 0.7850 0.9488, -0.2771 1.5945 0.9488, -0.2771 1.5945 0.9488
            ]
        }
        coordIndex [
            0 1 2 -1,2 1 3 -1,4 5 6 -1,6 5 7 -1,8 9 10 -1,10 9 11 -1,12 13 14 -1,14 13 15 -1,16 17 18 -1,18 17 19 -1,20 21 22 -1,22 21 23 -1,24 25 26 -1,26 25 27 -1,28 29 26 -1,26 29 30 -1,26 30 24 -1,27 31 26 -1,26 31 32 -1,26 32 33 -1,33 32 34 -1,33 34 35 -1,
        ]
    }
}
Shape{
    appearance Appearance {
        material  Material {
            diffuseColor 0.9686274509803922 0.8784313725490196 0.6
            specularColor 0.6784313725490196 0.615686274509804 0.4196078431372549
            ambientIntensity 0.2
            transparency 0
            shininess 0.5
        }
    }
    geometry IndexedFaceSet {
        ccw TRUE
        solid FALSE
        coord DEF co Coordinate {
            point [
                1.6929 -1.4764 0.0039, 1.6929 -1.4764 0.0000, 1.6929 -1.1713 0.0039, 1.6929 -1.1220 0.0000, 1.6929 -1.1220 0.0039, 1.2205 -1.4764 0.0000, 1.2205 -1.4764 0.0039, 1.2205 -1.1220 0.0039, 1.2205 -1.1220 0.0000, 1.2205 -1.1713 0.0039, 1.0433 -1.6929 0.0000, 1.0433 -1.2205 0.0000, 1.0433 -1.6929 0.0039, 1.0433 -1.2205 0.0039, 0.6890 -1.6929 0.0000, 0.6890 -1.6929 0.0039, 0.6890 -1.2205 0.0000, 0.6890 -1.2205 0.0039, 1.6929 -0.6890 0.0000, 1.2205 -0.6890 0.0000, 1.6929 -0.6890 0.0039, 1.2205 -0.6890 0.0039, 1.6929 -1.0433 0.0000, 1.6929 -1.0433 0.0039, 1.2205 -1.0433 0.0000, 1.2205 -1.0433 0.0039, 1.6929 -0.2559 0.0000, 1.2205 -0.2559 0.0000, 1.6929 -0.2559 0.0039, 1.2205 -0.2559 0.0039, 1.6929 -0.6102 0.0000, 1.6929 -0.6102 0.0039, 1.2205 -0.6102 0.0000, 1.2205 -0.6102 0.0039, 1.6929 0.1772 0.0000, 1.2205 0.1772 0.0000, 1.6929 0.1772 0.0039, 1.2205 0.1772 0.0039, 1.6929 -0.1772 0.0039, 1.6929 -0.1772 0.0000, 1.6929 0.0067 0.0039, 1.2205 -0.1772 0.0000, 1.2205 -0.1772 0.0039, 1.2205 0.0067 0.0039, 1.6929 0.6102 0.0000, 1.2205 0.6102 0.0000, 1.6929 0.6102 0.0039, 1.2205 0.6102 0.0039, 1.6929 0.2559 0.0000, 1.6929 0.2559 0.0039, 1.2205 0.2559 0.0000, 1.2205 0.2559 0.0039, -1.6929 -1.1220 0.0039, -1.6929 -1.1220 0.0000, -1.6929 -1.1713 0.0039, -1.6929 -1.4764 0.0000, -1.6929 -1.4764 0.0039, -1.2205 -1.1220 0.0000, -1.2205 -1.1220 0.0039, -1.2205 -1.4764 0.0039, -1.2205 -1.4764 0.0000, -1.2205 -1.1713 0.0039, -1.6929 -0.6890 0.0000, -1.6929 -1.0433 0.0000, -1.6929 -0.6890 0.0039, -1.6929 -1.0433 0.0039, -1.2205 -0.6890 0.0000, -1.2205 -0.6890 0.0039, -1.2205 -1.0433 0.0000, -1.2205 -1.0433 0.0039, -1.6929 -0.2559 0.0000, -1.6929 -0.6102 0.0000, -1.6929 -0.2559 0.0039, -1.6929 -0.6102 0.0039, -1.2205 -0.2559 0.0000, -1.2205 -0.2559 0.0039, -1.2205 -0.6102 0.0000, -1.2205 -0.6102 0.0039, -1.6929 0.1772 0.0039, -1.6929 0.1772 0.0000, -1.6929 0.0067 0.0039, -1.6929 -0.1772 0.0000, -1.6929 -0.1772 0.0039, -1.2205 0.1772 0.0000, -1.2205 0.1772 0.0039, -1.2205 -0.1772 0.0039, -1.2205 -0.1772 0.0000, -1.2205 0.0067 0.0039, -1.6929 0.6102 0.0000, -1.6929 0.2559 0.0000, -1.6929 0.6102 0.0039, -1.6929 0.2559 0.0039, -1.2205 0.6102 0.0000, -1.2205 0.6102 0.0039, -1.2205 0.2559 0.0000, -1.2205 0.2559 0.0039, 0.6102 -1.2205 0.0000, 0.2559 -1.2205 0.0000, 0.6102 -1.2205 0.0039, 0.2559 -1.2205 0.0039, 0.6102 -1.6929 0.0000, 0.6102 -1.6929 0.0039, 0.2559 -1.6929 0.0000, 0.2559 -1.6929 0.0039, 0.0938 -1.2205 0.0039, 0.1772 -1.2205 0.0039, 0.1772 -1.2205 0.0000, -0.0503 -1.2205 0.0039, -0.1772 -1.2205 0.0000, -0.1772 -1.2205 0.0039, 0.1772 -1.6929 0.0000, 0.1772 -1.6929 0.0039, 0.0938 -1.6929 0.0039, -0.0503 -1.6929 0.0039, -0.1772 -1.6929 0.0000, -0.1772 -1.6929 0.0039, -0.2559 -1.2205 0.0000, -0.6102 -1.2205 0.0000, -0.2559 -1.2205 0.0039, -0.6102 -1.2205 0.0039, -0.2559 -1.6929 0.0000, -0.2559 -1.6929 0.0039, -0.6102 -1.6929 0.0000, -0.6102 -1.6929 0.0039, -0.6890 -1.2205 0.0000, -1.0433 -1.2205 0.0000, -0.6890 -1.2205 0.0039, -1.0433 -1.2205 0.0039, -0.6890 -1.6929 0.0000, -0.6890 -1.6929 0.0039, -1.0433 -1.6929 0.0000, -1.0433 -1.6929 0.0039, -1.0433 -1.6929 0.0039
            ]
        }
        coordIndex [
            0 1 2 -1,2 1 3 -1,2 3 4 -1,5 1 6 -1,6 1 0 -1,7 8 9 -1,9 8 5 -1,9 5 6 -1,3 8 4 -1,4 8 7 -1,5 8 1 -1,1 8 3 -1,10 11 12 -1,12 11 13 -1,14 10 15 -1,15 10 12 -1,16 14 17 -1,17 14 15 -1,11 16 13 -1,13 16 17 -1,14 16 10 -1,10 16 11 -1,18 19 20 -1,20 19 21 -1,22 18 23 -1,23 18 20 -1,24 22 25 -1,25 22 23 -1,19 24 21 -1,21 24 25 -1,22 24 18 -1,18 24 19 -1,26 27 28 -1,28 27 29 -1,30 26 31 -1,31 26 28 -1,32 30 33 -1,33 30 31 -1,27 32 29 -1,29 32 33 -1,30 32 26 -1,26 32 27 -1,34 35 36 -1,36 35 37 -1,38 39 40 -1,40 39 34 -1,40 34 36 -1,41 39 42 -1,42 39 38 -1,37 35 43 -1,43 35 41 -1,43 41 42 -1,39 41 34 -1,34 41 35 -1,44 45 46 -1,46 45 47 -1,48 44 49 -1,49 44 46 -1,50 48 51 -1,51 48 49 -1,45 50 47 -1,47 50 51 -1,48 50 44 -1,44 50 45 -1,52 53 54 -1,54 53 55 -1,54 55 56 -1,57 53 58 -1,58 53 52 -1,59 60 61 -1,61 60 57 -1,61 57 58 -1,55 60 56 -1,56 60 59 -1,57 60 53 -1,53 60 55 -1,62 63 64 -1,64 63 65 -1,66 62 67 -1,67 62 64 -1,68 66 69 -1,69 66 67 -1,63 68 65 -1,65 68 69 -1,66 68 62 -1,62 68 63 -1,70 71 72 -1,72 71 73 -1,74 70 75 -1,75 70 72 -1,76 74 77 -1,77 74 75 -1,71 76 73 -1,73 76 77 -1,74 76 70 -1,70 76 71 -1,78 79 80 -1,80 79 81 -1,80 81 82 -1,83 79 84 -1,84 79 78 -1,85 86 87 -1,87 86 83 -1,87 83 84 -1,81 86 82 -1,82 86 85 -1,83 86 79 -1,79 86 81 -1,88 89 90 -1,90 89 91 -1,92 88 93 -1,93 88 90 -1,94 92 95 -1,95 92 93 -1,89 94 91 -1,91 94 95 -1,92 94 88 -1,88 94 89 -1,96 97 98 -1,98 97 99 -1,100 96 101 -1,101 96 98 -1,102 100 103 -1,103 100 101 -1,97 102 99 -1,99 102 103 -1,100 102 96 -1,96 102 97 -1,104 105 106 -1,104 106 107 -1,107 106 108 -1,107 108 109 -1,110 106 111 -1,111 106 105 -1,111 112 110 -1,110 112 113 -1,110 113 114 -1,114 113 115 -1,108 114 109 -1,109 114 115 -1,110 114 106 -1,106 114 108 -1,116 117 118 -1,118 117 119 -1,120 116 121 -1,121 116 118 -1,122 120 123 -1,123 120 121 -1,117 122 119 -1,119 122 123 -1,120 122 116 -1,116 122 117 -1,124 125 126 -1,126 125 127 -1,128 124 129 -1,129 124 126 -1,130 128 131 -1,131 128 129 -1,125 130 127 -1,127 130 131 -1,128 130 124 -1,124 130 125 -1,
        ]
    }
}
Shape{
    appearance Appearance {
        material  Material {
            diffuseColor 1.0 1.0 1.0
            specularColor 0.8784313725490196 0.8784313725490196 0.8784313725490196
            ambientIntensity 0.2
            transparency 0
            shininess 0.5
        }
    }
    geometry IndexedFaceSet {
        ccw TRUE
        solid FALSE
        coord DEF co Coordinate {
            point [
                -0.3431 0.0055 0.0079, -0.4200 -0.1913 0.0079, -0.3431 0.0055 0.0039, -0.4200 -0.1913 0.0039, -0.3911 -0.1913 0.0079, -0.3911 -0.1913 0.0039, -0.3712 -0.1361 0.0079, -0.3712 -0.1361 0.0039, -0.2899 -0.1361 0.0079, -0.2899 -0.1361 0.0039, -0.2711 -0.1913 0.0079, -0.2711 -0.1913 0.0039, -0.2423 -0.1913 0.0079, -0.2423 -0.1913 0.0039, -0.3167 0.0055 0.0079, -0.3167 0.0055 0.0039, -0.2965 -0.1145 0.0079, -0.3624 -0.1145 0.0079, -0.3259 -0.0323 0.0079, -0.3278 -0.0254 0.0079, -0.3291 -0.0185 0.0079, -0.3297 -0.0185 0.0079, -0.3310 -0.0254 0.0079, -0.3327 -0.0323 0.0079, -0.2965 -0.1145 0.0039, -0.3624 -0.1145 0.0039, -0.3259 -0.0323 0.0039, -0.3278 -0.0254 0.0039, -0.3291 -0.0185 0.0039, -0.3297 -0.0185 0.0039, -0.3310 -0.0254 0.0039, -0.3327 -0.0323 0.0039, -0.1230 -0.1913 0.0079, -0.0695 -0.1913 0.0079, -0.1230 -0.1913 0.0039, -0.0695 -0.1913 0.0039, -0.0695 0.0055 0.0079, -0.0695 0.0055 0.0039, -0.1250 0.0055 0.0079, -0.1250 0.0055 0.0039, -0.2279 -0.0904 0.0079, -0.2279 -0.0904 0.0039, -0.2265 -0.0719 0.0039, -0.2265 -0.0719 0.0079, -0.2212 -0.0525 0.0039, -0.2212 -0.0525 0.0079, -0.2120 -0.0356 0.0039, -0.2120 -0.0356 0.0079, -0.1981 -0.0201 0.0039, -0.1981 -0.0201 0.0079, -0.1979 -0.0200 0.0039, -0.1979 -0.0200 0.0079, -0.1765 -0.0056 0.0039, -0.1765 -0.0056 0.0079, -0.1535 0.0025 0.0039, -0.1535 0.0025 0.0079, -0.1473 -0.1892 0.0039, -0.1473 -0.1892 0.0079, -0.1700 -0.1824 0.0039, -0.1700 -0.1824 0.0079, -0.1906 -0.1705 0.0039, -0.1906 -0.1705 0.0079, -0.2068 -0.1550 0.0039, -0.2068 -0.1550 0.0079, -0.2181 -0.1374 0.0039, -0.2181 -0.1374 0.0079, -0.2251 -0.1168 0.0039, -0.2251 -0.1168 0.0079, -0.1884 -0.0437 0.0079, -0.1788 -0.0335 0.0079, -0.1644 -0.0242 0.0079, -0.1482 -0.0185 0.0079, -0.1249 -0.0161 0.0079, -0.0959 -0.0161 0.0079, -0.0959 -0.1697 0.0079, -0.1238 -0.1697 0.0079, -0.1446 -0.1678 0.0079, -0.1611 -0.1626 0.0079, -0.1746 -0.1546 0.0079, -0.1856 -0.1437 0.0079, -0.1939 -0.1302 0.0079, -0.1997 -0.1117 0.0079, -0.2015 -0.0910 0.0079, -0.1998 -0.0714 0.0079, -0.1952 -0.0558 0.0079, -0.1249 -0.0161 0.0039, -0.0959 -0.0161 0.0039, -0.1482 -0.0185 0.0039, -0.1644 -0.0242 0.0039, -0.1788 -0.0335 0.0039, -0.1884 -0.0437 0.0039, -0.1952 -0.0558 0.0039, -0.1998 -0.0714 0.0039, -0.2015 -0.0910 0.0039, -0.1997 -0.1117 0.0039, -0.1939 -0.1302 0.0039, -0.1856 -0.1437 0.0039, -0.1746 -0.1546 0.0039, -0.1611 -0.1626 0.0039, -0.1446 -0.1678 0.0039, -0.1238 -0.1697 0.0039, -0.0959 -0.1697 0.0039, -0.0311 -0.1697 0.0079, -0.0311 -0.1913 0.0079, -0.0311 -0.1697 0.0039, -0.0311 -0.1913 0.0039, 0.0746 -0.1913 0.0079, 0.0746 -0.1913 0.0039, 0.0746 0.0055 0.0079, 0.0746 0.0055 0.0039, -0.0263 0.0055 0.0079, -0.0263 0.0055 0.0039, -0.0263 -0.0161 0.0079, -0.0263 -0.0161 0.0039, 0.0482 -0.0161 0.0079, 0.0482 -0.0161 0.0039, 0.0482 -0.0809 0.0079, 0.0482 -0.0809 0.0039, -0.0215 -0.0809 0.0079, -0.0215 -0.0809 0.0039, -0.0215 -0.1025 0.0079, -0.0215 -0.1025 0.0039, 0.0482 -0.1025 0.0079, 0.0482 -0.1025 0.0039, 0.0482 -0.1697 0.0079, 0.0482 -0.1697 0.0039, 0.1130 -0.1595 0.0079, 0.1130 -0.1811 0.0079, 0.1130 -0.1595 0.0039, 0.1130 -0.1811 0.0039, 0.1671 -0.1937 0.0079, 0.1671 -0.1937 0.0039, 0.1618 -0.1936 0.0039, 0.1618 -0.1936 0.0079, 0.1340 -0.1897 0.0039, 0.1340 -0.1897 0.0079, 0.2263 -0.1745 0.0039, 0.2411 -0.1590 0.0079, 0.2411 -0.1590 0.0039, 0.2516 -0.1402 0.0079, 0.2516 -0.1402 0.0039, 0.2575 -0.1194 0.0079, 0.2575 -0.1194 0.0039, 0.2594 -0.0966 0.0079, 0.2594 -0.0966 0.0039, 0.2165 -0.1808 0.0039, 0.2105 -0.1846 0.0079, 0.2263 -0.1745 0.0079, 0.2105 -0.1846 0.0039, 0.1914 -0.1912 0.0039, 0.1914 -0.1912 0.0079, 0.1791 0.0063 0.0079, 0.1593 0.0079 0.0079, 0.1593 0.0079 0.0039, 0.1740 0.0067 0.0039, 0.1791 0.0063 0.0039, 0.2010 -0.0001 0.0039, 0.2165 -0.0090 0.0039, 0.2197 -0.0108 0.0079, 0.2010 -0.0001 0.0079, 0.2197 -0.0108 0.0039, 0.2375 -0.0279 0.0039, 0.2375 -0.0279 0.0079, 0.2490 -0.0463 0.0039, 0.2490 -0.0463 0.0079, 0.2566 -0.0686 0.0039, 0.2566 -0.0686 0.0079, 0.1419 0.0067 0.0039, 0.1357 0.0063 0.0079, 0.1357 0.0063 0.0039, 0.1130 0.0001 0.0079, 0.1130 0.0001 0.0039, 0.1130 -0.0263 0.0079, 0.1130 -0.0263 0.0039, 0.1591 -0.0137 0.0079, 0.1591 -0.0137 0.0039, 0.1352 -0.0168 0.0039, 0.1352 -0.0168 0.0079, 0.2330 -0.0950 0.0079, 0.2330 -0.0950 0.0039, 0.2321 -0.0797 0.0039, 0.2321 -0.0797 0.0079, 0.2268 -0.0586 0.0039, 0.2268 -0.0586 0.0079, 0.2187 -0.0434 0.0039, 0.2187 -0.0434 0.0079, 0.2165 -0.0410 0.0039, 0.2068 -0.0303 0.0079, 0.2068 -0.0303 0.0039, 0.1932 -0.0212 0.0039, 0.1932 -0.0212 0.0079, 0.1785 -0.0158 0.0039, 0.1785 -0.0158 0.0079, 0.1635 -0.1721 0.0079, 0.1635 -0.1721 0.0039, 0.1819 -0.1701 0.0039, 0.1819 -0.1701 0.0079, 0.1962 -0.1648 0.0039, 0.1962 -0.1648 0.0079, 0.2083 -0.1566 0.0039, 0.2083 -0.1566 0.0079, 0.2165 -0.1479 0.0039, 0.2175 -0.1469 0.0079, 0.2175 -0.1469 0.0039, 0.2257 -0.1332 0.0039, 0.2257 -0.1332 0.0079, 0.2310 -0.1163 0.0039, 0.2310 -0.1163 0.0079, 0.1165 -0.1615 0.0039, 0.1165 -0.1615 0.0079, 0.1374 -0.1692 0.0039, 0.1374 -0.1692 0.0079, 0.2762 -0.1697 0.0079, 0.2762 -0.1913 0.0079, 0.2762 -0.1697 0.0039, 0.2762 -0.1913 0.0039, 0.3771 -0.1913 0.0079, 0.3771 -0.1913 0.0039, 0.3771 0.0055 0.0079, 0.3771 0.0055 0.0039, 0.3506 0.0055 0.0079, 0.3506 0.0055 0.0039, 0.3506 -0.1697 0.0079, 0.3506 -0.1697 0.0039, 0.3506 -0.1697 0.0039
            ]
        }
        coordIndex [
            0 1 2 -1,2 1 3 -1,1 4 3 -1,3 4 5 -1,4 6 5 -1,5 6 7 -1,6 8 7 -1,7 8 9 -1,8 10 9 -1,9 10 11 -1,10 12 11 -1,11 12 13 -1,12 14 13 -1,13 14 15 -1,14 0 15 -1,15 0 2 -1,16 8 17 -1,17 8 6 -1,18 14 16 -1,16 14 12 -1,16 12 8 -1,8 12 10 -1,18 19 14 -1,14 19 20 -1,14 20 0 -1,0 20 21 -1,0 21 22 -1,22 23 0 -1,0 23 17 -1,0 17 1 -1,1 17 6 -1,1 6 4 -1,16 17 24 -1,24 17 25 -1,18 16 26 -1,26 16 24 -1,18 26 27 -1,18 27 19 -1,19 27 28 -1,19 28 20 -1,21 20 29 -1,29 20 28 -1,21 29 30 -1,21 30 22 -1,22 30 31 -1,22 31 23 -1,17 23 25 -1,25 23 31 -1,32 33 34 -1,34 33 35 -1,33 36 35 -1,35 36 37 -1,36 38 37 -1,37 38 39 -1,40 41 42 -1,40 42 43 -1,43 42 44 -1,43 44 45 -1,45 44 46 -1,45 46 47 -1,47 46 48 -1,47 48 49 -1,49 48 50 -1,49 50 51 -1,51 50 52 -1,51 52 53 -1,53 52 54 -1,53 54 55 -1,55 54 39 -1,55 39 38 -1,32 34 56 -1,32 56 57 -1,57 56 58 -1,57 58 59 -1,59 58 60 -1,59 60 61 -1,61 60 62 -1,61 62 63 -1,63 62 64 -1,63 64 65 -1,65 64 66 -1,65 66 67 -1,67 66 41 -1,67 41 40 -1,45 47 68 -1,68 47 49 -1,68 49 69 -1,69 49 51 -1,69 51 70 -1,70 51 53 -1,70 53 71 -1,71 53 55 -1,71 55 72 -1,72 55 38 -1,72 38 73 -1,73 38 36 -1,73 36 74 -1,74 36 33 -1,74 33 75 -1,75 33 32 -1,75 32 76 -1,76 32 57 -1,76 57 77 -1,77 57 59 -1,77 59 78 -1,78 59 61 -1,78 61 79 -1,79 61 63 -1,79 63 80 -1,80 63 65 -1,80 65 81 -1,81 65 67 -1,81 67 82 -1,82 67 40 -1,82 40 83 -1,83 40 43 -1,83 43 84 -1,84 43 45 -1,84 45 68 -1,72 73 85 -1,85 73 86 -1,72 85 87 -1,72 87 71 -1,71 87 88 -1,71 88 70 -1,70 88 89 -1,70 89 69 -1,69 89 90 -1,69 90 68 -1,68 90 91 -1,68 91 84 -1,84 91 92 -1,84 92 83 -1,83 92 93 -1,83 93 82 -1,82 93 94 -1,82 94 81 -1,81 94 95 -1,81 95 80 -1,80 95 96 -1,80 96 79 -1,79 96 97 -1,79 97 78 -1,78 97 98 -1,78 98 77 -1,77 98 99 -1,77 99 76 -1,76 99 100 -1,76 100 75 -1,74 75 101 -1,101 75 100 -1,73 74 86 -1,86 74 101 -1,102 103 104 -1,104 103 105 -1,103 106 105 -1,105 106 107 -1,106 108 107 -1,107 108 109 -1,108 110 109 -1,109 110 111 -1,110 112 111 -1,111 112 113 -1,112 114 113 -1,113 114 115 -1,114 116 115 -1,115 116 117 -1,116 118 117 -1,117 118 119 -1,118 120 119 -1,119 120 121 -1,120 122 121 -1,121 122 123 -1,122 124 123 -1,123 124 125 -1,124 102 125 -1,125 102 104 -1,106 103 102 -1,102 124 106 -1,106 124 122 -1,106 122 108 -1,112 110 114 -1,114 110 108 -1,114 108 116 -1,116 108 122 -1,116 122 118 -1,118 122 120 -1,126 127 128 -1,128 127 129 -1,130 131 132 -1,130 132 133 -1,133 132 134 -1,133 134 135 -1,135 134 129 -1,135 129 127 -1,136 137 138 -1,138 137 139 -1,138 139 140 -1,140 139 141 -1,140 141 142 -1,142 141 143 -1,142 143 144 -1,145 146 136 -1,136 146 147 -1,136 147 137 -1,145 148 146 -1,146 148 149 -1,146 149 150 -1,150 149 131 -1,150 131 130 -1,151 152 153 -1,153 154 151 -1,151 154 155 -1,151 155 156 -1,157 158 156 -1,156 158 159 -1,156 159 151 -1,157 160 158 -1,158 160 161 -1,158 161 162 -1,162 161 163 -1,162 163 164 -1,164 163 165 -1,164 165 166 -1,166 165 144 -1,166 144 143 -1,153 152 167 -1,167 152 168 -1,167 168 169 -1,169 168 170 -1,169 170 171 -1,170 172 171 -1,171 172 173 -1,174 175 176 -1,174 176 177 -1,177 176 173 -1,177 173 172 -1,178 179 180 -1,178 180 181 -1,181 180 182 -1,181 182 183 -1,183 182 184 -1,183 184 185 -1,185 184 186 -1,185 186 187 -1,186 188 187 -1,187 188 189 -1,187 189 190 -1,190 189 191 -1,190 191 192 -1,192 191 175 -1,192 175 174 -1,193 194 195 -1,193 195 196 -1,196 195 197 -1,196 197 198 -1,198 197 199 -1,198 199 200 -1,200 199 201 -1,200 201 202 -1,201 203 202 -1,202 203 204 -1,202 204 205 -1,205 204 206 -1,205 206 207 -1,207 206 179 -1,207 179 178 -1,126 128 208 -1,126 208 209 -1,209 208 210 -1,209 210 211 -1,211 210 194 -1,211 194 193 -1,196 130 193 -1,193 130 133 -1,193 133 211 -1,211 133 135 -1,211 135 209 -1,209 135 127 -1,209 127 126 -1,172 170 177 -1,177 170 168 -1,177 168 174 -1,174 168 152 -1,174 152 192 -1,192 152 151 -1,192 151 190 -1,190 151 159 -1,190 159 187 -1,187 159 158 -1,187 158 185 -1,185 158 162 -1,185 162 183 -1,183 162 164 -1,183 164 181 -1,181 164 166 -1,181 166 178 -1,178 166 143 -1,178 143 207 -1,207 143 141 -1,207 141 205 -1,205 141 139 -1,205 139 202 -1,202 139 137 -1,202 137 200 -1,200 137 147 -1,200 147 198 -1,198 147 146 -1,198 146 196 -1,196 146 150 -1,196 150 130 -1,212 213 214 -1,214 213 215 -1,213 216 215 -1,215 216 217 -1,216 218 217 -1,217 218 219 -1,218 220 219 -1,219 220 221 -1,220 222 221 -1,221 222 223 -1,222 212 223 -1,223 212 214 -1,220 218 222 -1,222 218 216 -1,222 216 212 -1,212 216 213 -1,
        ]
    }
}
Shape{
    appearance Appearance {
        material  Material {
            diffuseColor 0.0 0.592156862745098 0.050980392156862744
            specularColor 0.0 0.29411764705882354 0.023529411764705882
            ambientIntensity 0.2
            transparency 0
            shininess 0.5
        }
    }
    geometry IndexedFaceSet {
        ccw TRUE
        solid FALSE
        coord DEF co Coordinate {
            point [
                -0.2965 -0.1145 0.0039, -0.3624 -0.1145 0.0039, -0.3259 -0.0323 0.0039, -0.3327 -0.0323 0.0039, -0.3278 -0.0254 0.0039, -0.3310 -0.0254 0.0039, -0.3291 -0.0185 0.0039, -0.3297 -0.0185 0.0039, -0.0959 -0.0161 0.0039, -0.0959 -0.1697 0.0039, -0.1249 -0.0161 0.0039, -0.1238 -0.1697 0.0039, -0.1446 -0.1678 0.0039, -0.2015 -0.0910 0.0039, -0.1998 -0.0714 0.0039, -0.1952 -0.0558 0.0039, -0.1482 -0.0185 0.0039, -0.1611 -0.1626 0.0039, -0.1746 -0.1546 0.0039, -0.1856 -0.1437 0.0039, -0.1939 -0.1302 0.0039, -0.1997 -0.1117 0.0039, -0.1884 -0.0437 0.0039, -0.1788 -0.0335 0.0039, -0.1644 -0.0242 0.0039, -0.1644 -0.0242 0.0039
            ]
        }
        coordIndex [
            0 1 2 -1,2 1 3 -1,2 3 4 -1,4 3 5 -1,4 5 6 -1,6 5 7 -1,8 9 10 -1,10 9 11 -1,10 11 12 -1,13 14 10 -1,10 14 15 -1,10 15 16 -1,12 17 10 -1,10 17 18 -1,10 18 19 -1,19 20 10 -1,10 20 21 -1,10 21 13 -1,22 23 15 -1,15 23 24 -1,15 24 16 -1,
        ]
    }
}
Shape{
    appearance Appearance {
        material  Material {
            diffuseColor 0.8509803921568627 0.8509803921568627 0.8509803921568627
            specularColor 0.4235294117647059 0.4235294117647059 0.4235294117647059
            ambientIntensity 0.2
            transparency 0
            shininess 0.5
        }
    }
    geometry IndexedFaceSet {
        ccw TRUE
        solid FALSE
        coord DEF co Coordinate {
            point [
                -1.6732 -1.5945 0.8701, -1.6732 -1.5945 0.3189, -1.6705 -1.6149 0.3189, -1.6705 -1.6149 0.8701, -1.6627 -1.6339 0.3189, -1.6627 -1.6339 0.8701, -1.6502 -1.6502 0.3189, -1.6502 -1.6502 0.8701, -1.6339 -1.6627 0.3189, -1.6339 -1.6627 0.8701, -1.6149 -1.6705 0.3189, -1.6149 -1.6705 0.8701, -1.5945 -1.6732 0.3189, -1.5945 -1.6732 0.8701, -1.5945 -1.5945 0.9488, -1.5945 1.5945 0.9488, -1.6149 1.5945 0.9461, -1.6149 -1.5945 0.9461, -1.6339 1.5945 0.9383, -1.6339 -1.5945 0.9383, -1.6502 1.5945 0.9258, -1.6502 -1.5945 0.9258, -1.6627 1.5945 0.9094, -1.6627 -1.5945 0.9094, -1.6705 1.5945 0.8905, -1.6705 -1.5945 0.8905, -1.6732 1.5945 0.8701, -1.5945 1.6732 0.8701, -1.5945 1.6732 0.3189, -1.6149 1.6705 0.3189, -1.6149 1.6705 0.8701, -1.6339 1.6627 0.3189, -1.6339 1.6627 0.8701, -1.6502 1.6502 0.3189, -1.6502 1.6502 0.8701, -1.6627 1.6339 0.3189, -1.6627 1.6339 0.8701, -1.6705 1.6149 0.3189, -1.6705 1.6149 0.8701, -1.6732 1.5945 0.3189, -1.5945 -1.6705 0.8905, -1.6142 -1.6680 0.8905, -1.6142 -1.6286 0.9383, -1.6047 -1.6121 0.9461, -1.6089 -1.6089 0.9461, -1.6142 -1.5998 0.9461, -1.5998 -1.6142 0.9461, -1.6047 -1.6325 0.9383, -1.6089 -1.6483 0.9258, -1.5945 -1.6149 0.9461, -1.6223 -1.6223 0.9383, -1.6121 -1.6047 0.9461, -1.6286 -1.6142 0.9383, -1.6325 -1.6047 0.9383, -1.5945 -1.6339 0.9383, -1.5945 -1.6502 0.9258, -1.5945 -1.6627 0.9094, -1.6223 -1.6427 0.9258, -1.6339 -1.6339 0.9258, -1.6427 -1.6223 0.9258, -1.6483 -1.6089 0.9258, -1.6121 -1.6604 0.9094, -1.6286 -1.6535 0.9094, -1.6427 -1.6427 0.9094, -1.6535 -1.6286 0.9094, -1.6604 -1.6121 0.9094, -1.6325 -1.6604 0.8905, -1.6483 -1.6483 0.8905, -1.6604 -1.6325 0.8905, -1.6680 -1.6142 0.8905, -1.6680 1.6142 0.8905, -1.6286 1.6142 0.9383, -1.6121 1.6047 0.9461, -1.6089 1.6089 0.9461, -1.5945 1.6149 0.9461, -1.5998 1.6142 0.9461, -1.6142 1.5998 0.9461, -1.6325 1.6047 0.9383, -1.6483 1.6089 0.9258, -1.6223 1.6223 0.9383, -1.6047 1.6121 0.9461, -1.6142 1.6286 0.9383, -1.6047 1.6325 0.9383, -1.5945 1.6339 0.9383, -1.6427 1.6223 0.9258, -1.6339 1.6339 0.9258, -1.6223 1.6427 0.9258, -1.6089 1.6483 0.9258, -1.5945 1.6502 0.9258, -1.6604 1.6121 0.9094, -1.6535 1.6286 0.9094, -1.6427 1.6427 0.9094, -1.6286 1.6535 0.9094, -1.6121 1.6604 0.9094, -1.5945 1.6627 0.9094, -1.6604 1.6325 0.8905, -1.6483 1.6483 0.8905, -1.6325 1.6604 0.8905, -1.6142 1.6680 0.8905, -1.5945 1.6705 0.8905, 1.5945 -1.6732 0.8701, 1.5945 -1.6732 0.3189, 1.6149 -1.6705 0.3189, 1.6149 -1.6705 0.8701, 1.6339 -1.6627 0.3189, 1.6339 -1.6627 0.8701, 1.6502 -1.6502 0.3189, 1.6502 -1.6502 0.8701, 1.6627 -1.6339 0.3189, 1.6627 -1.6339 0.8701, 1.6705 -1.6149 0.3189, 1.6705 -1.6149 0.8701, 1.6732 -1.5945 0.3189, 1.6732 -1.5945 0.8701, 1.5945 -1.5945 0.9488, 1.5945 -1.6149 0.9461, 1.5945 -1.6339 0.9383, 1.5945 -1.6502 0.9258, 1.5945 -1.6627 0.9094, 1.5945 -1.6705 0.8905, -0.2771 1.5945 0.9488, -0.2771 1.6149 0.9461, -0.2771 1.6339 0.9383, -0.2771 1.6502 0.9258, -0.2771 1.6627 0.9094, -0.2771 1.6705 0.8905, -0.2771 1.6732 0.8701, -0.1984 1.5945 0.8701, -0.1984 1.5945 0.3189, -0.2011 1.6149 0.3189, -0.2011 1.6149 0.8701, -0.2089 1.6339 0.3189, -0.2089 1.6339 0.8701, -0.2215 1.6502 0.3189, -0.2215 1.6502 0.8701, -0.2378 1.6627 0.3189, -0.2378 1.6627 0.8701, -0.2568 1.6705 0.3189, -0.2568 1.6705 0.8701, -0.2771 1.6732 0.3189, 1.6705 -1.5945 0.8905, 1.6680 -1.6142 0.8905, 1.6286 -1.6142 0.9383, 1.6121 -1.6047 0.9461, 1.6089 -1.6089 0.9461, 1.5998 -1.6142 0.9461, 1.6142 -1.5998 0.9461, 1.6325 -1.6047 0.9383, 1.6483 -1.6089 0.9258, 1.6149 -1.5945 0.9461, 1.6223 -1.6223 0.9383, 1.6047 -1.6121 0.9461, 1.6142 -1.6286 0.9383, 1.6047 -1.6325 0.9383, 1.6339 -1.5945 0.9383, 1.6502 -1.5945 0.9258, 1.6627 -1.5945 0.9094, 1.6427 -1.6223 0.9258, 1.6339 -1.6339 0.9258, 1.6223 -1.6427 0.9258, 1.6089 -1.6483 0.9258, 1.6604 -1.6121 0.9094, 1.6535 -1.6286 0.9094, 1.6427 -1.6427 0.9094, 1.6286 -1.6535 0.9094, 1.6121 -1.6604 0.9094, 1.6604 -1.6325 0.8905, 1.6483 -1.6483 0.8905, 1.6325 -1.6604 0.8905, 1.6142 -1.6680 0.8905, -0.2575 1.6680 0.8905, -0.2575 1.6286 0.9383, -0.2670 1.6121 0.9461, -0.2627 1.6089 0.9461, -0.2568 1.5945 0.9461, -0.2575 1.5998 0.9461, -0.2719 1.6142 0.9461, -0.2670 1.6325 0.9383, -0.2627 1.6483 0.9258, -0.2493 1.6223 0.9383, -0.2595 1.6047 0.9461, -0.2430 1.6142 0.9383, -0.2391 1.6047 0.9383, -0.2378 1.5945 0.9383, -0.2493 1.6427 0.9258, -0.2378 1.6339 0.9258, -0.2289 1.6223 0.9258, -0.2234 1.6089 0.9258, -0.2215 1.5945 0.9258, -0.2595 1.6604 0.9094, -0.2430 1.6535 0.9094, -0.2289 1.6427 0.9094, -0.2181 1.6286 0.9094, -0.2113 1.6121 0.9094, -0.2089 1.5945 0.9094, -0.2391 1.6604 0.8905, -0.2234 1.6483 0.8905, -0.2113 1.6325 0.8905, -0.2037 1.6142 0.8905, -0.2011 1.5945 0.8905, 1.6732 0.6275 0.8701, 1.6732 0.6275 0.3189, 1.6705 0.6479 0.3189, 1.6705 0.6479 0.8701, 1.6627 0.6668 0.3189, 1.6627 0.6668 0.8701, 1.6502 0.6831 0.3189, 1.6502 0.6831 0.8701, 1.6339 0.6957 0.3189, 1.6339 0.6957 0.8701, 1.6149 0.7035 0.3189, 1.6149 0.7035 0.8701, 1.5945 0.7062 0.3189, 1.5945 0.7062 0.8701, 1.5945 0.6275 0.9488, 1.6149 0.6275 0.9461, 1.6339 0.6275 0.9383, 1.6502 0.6275 0.9258, 1.6627 0.6275 0.9094, 1.6705 0.6275 0.8905, -0.2771 0.7850 0.9488, -0.2568 0.7850 0.9461, -0.2378 0.7850 0.9383, -0.2215 0.7850 0.9258, -0.2089 0.7850 0.9094, -0.2011 0.7850 0.8905, -0.1984 0.7850 0.8701, -0.1984 0.7850 0.3189, -0.1957 0.7646 0.3189, -0.1957 0.7646 0.8701, -0.1879 0.7456 0.3189, -0.1879 0.7456 0.8701, -0.1753 0.7293 0.3189, -0.1753 0.7293 0.8701, -0.1590 0.7168 0.3189, -0.1590 0.7168 0.8701, -0.1400 0.7089 0.3189, -0.1400 0.7089 0.8701, -0.1197 0.7062 0.3189, -0.1197 0.7062 0.8701, 1.5945 0.7035 0.8905, 1.6142 0.7009 0.8905, 1.6142 0.6616 0.9383, 1.6047 0.6451 0.9461, 1.6089 0.6419 0.9461, 1.6142 0.6327 0.9461, 1.5998 0.6472 0.9461, 1.6047 0.6655 0.9383, 1.6089 0.6813 0.9258, 1.5945 0.6479 0.9461, 1.6223 0.6553 0.9383, 1.6121 0.6377 0.9461, 1.6286 0.6472 0.9383, 1.6325 0.6377 0.9383, 1.5945 0.6668 0.9383, 1.5945 0.6831 0.9258, 1.5945 0.6957 0.9094, 1.6223 0.6757 0.9258, 1.6339 0.6668 0.9258, 1.6427 0.6553 0.9258, 1.6483 0.6419 0.9258, 1.6121 0.6933 0.9094, 1.6286 0.6865 0.9094, 1.6427 0.6757 0.9094, 1.6535 0.6616 0.9094, 1.6604 0.6451 0.9094, 1.6325 0.6933 0.8905, 1.6483 0.6813 0.8905, 1.6604 0.6655 0.8905, 1.6680 0.6472 0.8905, -0.1197 0.7035 0.8905, -0.1407 0.7063 0.8905, -0.1197 0.6957 0.9094, -0.1428 0.6987 0.9094, -0.1197 0.6831 0.9258, -0.1460 0.6866 0.9258, -0.1197 0.6668 0.9383, -0.1502 0.6709 0.9383, -0.1197 0.6479 0.9461, -0.1551 0.6525 0.9461, -0.1197 0.6275 0.9488, -0.1604 0.6328 0.9488, -0.1604 0.7144 0.8905, -0.1643 0.7076 0.9094, -0.1706 0.6968 0.9258, -0.1787 0.6827 0.9383, -0.1882 0.6662 0.9461, -0.1984 0.6486 0.9488, -0.1772 0.7274 0.8905, -0.1828 0.7218 0.9094, -0.1916 0.7130 0.9258, -0.2032 0.7014 0.9383, -0.2166 0.6880 0.9461, -0.2310 0.6736 0.9488, -0.1902 0.7442 0.8905, -0.1970 0.7403 0.9094, -0.2078 0.7340 0.9258, -0.2219 0.7259 0.9383, -0.2384 0.7164 0.9461, -0.2560 0.7062 0.9488, -0.1983 0.7639 0.8905, -0.2059 0.7618 0.9094, -0.2180 0.7586 0.9258, -0.2337 0.7544 0.9383, -0.2521 0.7495 0.9461, -0.2718 0.7442 0.9488, -0.2718 0.7442 0.9488
            ]
        }
        coordIndex [
            0 1 2 -1,0 2 3 -1,3 2 4 -1,3 4 5 -1,5 4 6 -1,5 6 7 -1,7 6 8 -1,7 8 9 -1,9 8 10 -1,9 10 11 -1,11 10 12 -1,11 12 13 -1,14 15 16 -1,14 16 17 -1,17 16 18 -1,17 18 19 -1,19 18 20 -1,19 20 21 -1,21 20 22 -1,21 22 23 -1,23 22 24 -1,23 24 25 -1,25 24 26 -1,25 26 0 -1,27 28 29 -1,27 29 30 -1,30 29 31 -1,30 31 32 -1,32 31 33 -1,32 33 34 -1,34 33 35 -1,34 35 36 -1,36 35 37 -1,36 37 38 -1,38 37 39 -1,38 39 26 -1,13 40 41 -1,42 43 44 -1,14 17 45 -1,44 43 14 -1,46 14 43 -1,46 43 47 -1,47 43 42 -1,47 42 48 -1,49 14 46 -1,50 51 52 -1,52 51 45 -1,52 45 53 -1,53 45 17 -1,53 17 19 -1,49 46 54 -1,54 46 47 -1,54 47 55 -1,55 47 48 -1,55 48 56 -1,57 50 58 -1,58 50 52 -1,58 52 59 -1,59 52 53 -1,59 53 60 -1,60 53 19 -1,60 19 21 -1,61 57 62 -1,62 57 58 -1,62 58 63 -1,63 58 59 -1,63 59 64 -1,64 59 60 -1,64 60 65 -1,65 60 21 -1,65 21 23 -1,40 61 41 -1,41 61 62 -1,41 62 66 -1,66 62 63 -1,66 63 67 -1,67 63 64 -1,67 64 68 -1,68 64 65 -1,68 65 69 -1,69 65 23 -1,69 23 25 -1,13 41 11 -1,11 41 66 -1,11 66 9 -1,9 66 67 -1,9 67 7 -1,7 67 68 -1,7 68 5 -1,5 68 69 -1,5 69 3 -1,3 69 25 -1,3 25 0 -1,51 14 45 -1,40 56 61 -1,61 56 48 -1,61 48 57 -1,57 48 42 -1,57 42 50 -1,50 42 44 -1,50 44 51 -1,51 44 14 -1,26 24 70 -1,71 72 73 -1,15 74 75 -1,73 72 15 -1,76 15 72 -1,76 72 77 -1,77 72 71 -1,77 71 78 -1,16 15 76 -1,79 80 81 -1,81 80 75 -1,81 75 82 -1,82 75 74 -1,82 74 83 -1,16 76 18 -1,18 76 77 -1,18 77 20 -1,20 77 78 -1,20 78 22 -1,84 79 85 -1,85 79 81 -1,85 81 86 -1,86 81 82 -1,86 82 87 -1,87 82 83 -1,87 83 88 -1,89 84 90 -1,90 84 85 -1,90 85 91 -1,91 85 86 -1,91 86 92 -1,92 86 87 -1,92 87 93 -1,93 87 88 -1,93 88 94 -1,24 89 70 -1,70 89 90 -1,70 90 95 -1,95 90 91 -1,95 91 96 -1,96 91 92 -1,96 92 97 -1,97 92 93 -1,97 93 98 -1,98 93 94 -1,98 94 99 -1,26 70 38 -1,38 70 95 -1,38 95 36 -1,36 95 96 -1,36 96 34 -1,34 96 97 -1,34 97 32 -1,32 97 98 -1,32 98 30 -1,30 98 99 -1,30 99 27 -1,80 15 75 -1,24 22 89 -1,89 22 78 -1,89 78 84 -1,84 78 71 -1,84 71 79 -1,79 71 73 -1,79 73 80 -1,80 73 15 -1,100 101 102 -1,100 102 103 -1,103 102 104 -1,103 104 105 -1,105 104 106 -1,105 106 107 -1,107 106 108 -1,107 108 109 -1,109 108 110 -1,109 110 111 -1,111 110 112 -1,111 112 113 -1,114 14 49 -1,114 49 115 -1,115 49 54 -1,115 54 116 -1,116 54 55 -1,116 55 117 -1,117 55 56 -1,117 56 118 -1,118 56 40 -1,118 40 119 -1,119 40 13 -1,119 13 100 -1,15 120 121 -1,15 121 74 -1,74 121 122 -1,74 122 83 -1,83 122 123 -1,83 123 88 -1,88 123 124 -1,88 124 94 -1,94 124 125 -1,94 125 99 -1,99 125 126 -1,99 126 27 -1,127 128 129 -1,127 129 130 -1,130 129 131 -1,130 131 132 -1,132 131 133 -1,132 133 134 -1,134 133 135 -1,134 135 136 -1,136 135 137 -1,136 137 138 -1,138 137 139 -1,138 139 126 -1,113 140 141 -1,142 143 144 -1,114 115 145 -1,144 143 114 -1,146 114 143 -1,146 143 147 -1,147 143 142 -1,147 142 148 -1,149 114 146 -1,150 151 152 -1,152 151 145 -1,152 145 153 -1,153 145 115 -1,153 115 116 -1,149 146 154 -1,154 146 147 -1,154 147 155 -1,155 147 148 -1,155 148 156 -1,157 150 158 -1,158 150 152 -1,158 152 159 -1,159 152 153 -1,159 153 160 -1,160 153 116 -1,160 116 117 -1,161 157 162 -1,162 157 158 -1,162 158 163 -1,163 158 159 -1,163 159 164 -1,164 159 160 -1,164 160 165 -1,165 160 117 -1,165 117 118 -1,140 161 141 -1,141 161 162 -1,141 162 166 -1,166 162 163 -1,166 163 167 -1,167 163 164 -1,167 164 168 -1,168 164 165 -1,168 165 169 -1,169 165 118 -1,169 118 119 -1,113 141 111 -1,111 141 166 -1,111 166 109 -1,109 166 167 -1,109 167 107 -1,107 167 168 -1,107 168 105 -1,105 168 169 -1,105 169 103 -1,103 169 119 -1,103 119 100 -1,151 114 145 -1,140 156 161 -1,161 156 148 -1,161 148 157 -1,157 148 142 -1,157 142 150 -1,150 142 144 -1,150 144 151 -1,151 144 114 -1,126 125 170 -1,171 172 173 -1,120 174 175 -1,173 172 120 -1,176 120 172 -1,176 172 177 -1,177 172 171 -1,177 171 178 -1,121 120 176 -1,179 180 181 -1,181 180 175 -1,181 175 182 -1,182 175 174 -1,182 174 183 -1,121 176 122 -1,122 176 177 -1,122 177 123 -1,123 177 178 -1,123 178 124 -1,184 179 185 -1,185 179 181 -1,185 181 186 -1,186 181 182 -1,186 182 187 -1,187 182 183 -1,187 183 188 -1,189 184 190 -1,190 184 185 -1,190 185 191 -1,191 185 186 -1,191 186 192 -1,192 186 187 -1,192 187 193 -1,193 187 188 -1,193 188 194 -1,125 189 170 -1,170 189 190 -1,170 190 195 -1,195 190 191 -1,195 191 196 -1,196 191 192 -1,196 192 197 -1,197 192 193 -1,197 193 198 -1,198 193 194 -1,198 194 199 -1,126 170 138 -1,138 170 195 -1,138 195 136 -1,136 195 196 -1,136 196 134 -1,134 196 197 -1,134 197 132 -1,132 197 198 -1,132 198 130 -1,130 198 199 -1,130 199 127 -1,180 120 175 -1,125 124 189 -1,189 124 178 -1,189 178 184 -1,184 178 171 -1,184 171 179 -1,179 171 173 -1,179 173 180 -1,180 173 120 -1,200 201 202 -1,200 202 203 -1,203 202 204 -1,203 204 205 -1,205 204 206 -1,205 206 207 -1,207 206 208 -1,207 208 209 -1,209 208 210 -1,209 210 211 -1,211 210 212 -1,211 212 213 -1,214 114 149 -1,214 149 215 -1,215 149 154 -1,215 154 216 -1,216 154 155 -1,216 155 217 -1,217 155 156 -1,217 156 218 -1,218 156 140 -1,218 140 219 -1,219 140 113 -1,219 113 200 -1,120 220 221 -1,120 221 174 -1,174 221 222 -1,174 222 183 -1,183 222 223 -1,183 223 188 -1,188 223 224 -1,188 224 194 -1,194 224 225 -1,194 225 199 -1,199 225 226 -1,199 226 127 -1,227 226 228 -1,228 226 229 -1,228 229 230 -1,230 229 231 -1,230 231 232 -1,232 231 233 -1,232 233 234 -1,234 233 235 -1,234 235 236 -1,236 235 237 -1,236 237 238 -1,238 237 239 -1,213 240 241 -1,242 243 244 -1,214 215 245 -1,244 243 214 -1,246 214 243 -1,246 243 247 -1,247 243 242 -1,247 242 248 -1,249 214 246 -1,250 251 252 -1,252 251 245 -1,252 245 253 -1,253 245 215 -1,253 215 216 -1,249 246 254 -1,254 246 247 -1,254 247 255 -1,255 247 248 -1,255 248 256 -1,257 250 258 -1,258 250 252 -1,258 252 259 -1,259 252 253 -1,259 253 260 -1,260 253 216 -1,260 216 217 -1,261 257 262 -1,262 257 258 -1,262 258 263 -1,263 258 259 -1,263 259 264 -1,264 259 260 -1,264 260 265 -1,265 260 217 -1,265 217 218 -1,240 261 241 -1,241 261 262 -1,241 262 266 -1,266 262 263 -1,266 263 267 -1,267 263 264 -1,267 264 268 -1,268 264 265 -1,268 265 269 -1,269 265 218 -1,269 218 219 -1,213 241 211 -1,211 241 266 -1,211 266 209 -1,209 266 267 -1,209 267 207 -1,207 267 268 -1,207 268 205 -1,205 268 269 -1,205 269 203 -1,203 269 219 -1,203 219 200 -1,251 214 245 -1,240 256 261 -1,261 256 248 -1,261 248 257 -1,257 248 242 -1,257 242 250 -1,250 242 244 -1,250 244 251 -1,251 244 214 -1,239 237 270 -1,270 237 271 -1,270 271 272 -1,272 271 273 -1,272 273 274 -1,274 273 275 -1,274 275 276 -1,276 275 277 -1,276 277 278 -1,278 277 279 -1,278 279 280 -1,280 279 281 -1,237 235 271 -1,271 235 282 -1,271 282 273 -1,273 282 283 -1,273 283 275 -1,275 283 284 -1,275 284 277 -1,277 284 285 -1,277 285 279 -1,279 285 286 -1,279 286 281 -1,281 286 287 -1,235 233 282 -1,282 233 288 -1,282 288 283 -1,283 288 289 -1,283 289 284 -1,284 289 290 -1,284 290 285 -1,285 290 291 -1,285 291 286 -1,286 291 292 -1,286 292 287 -1,287 292 293 -1,233 231 288 -1,288 231 294 -1,288 294 289 -1,289 294 295 -1,289 295 290 -1,290 295 296 -1,290 296 291 -1,291 296 297 -1,291 297 292 -1,292 297 298 -1,292 298 293 -1,293 298 299 -1,231 229 294 -1,294 229 300 -1,294 300 295 -1,295 300 301 -1,295 301 296 -1,296 301 302 -1,296 302 297 -1,297 302 303 -1,297 303 298 -1,298 303 304 -1,298 304 299 -1,299 304 305 -1,229 226 300 -1,300 226 225 -1,300 225 301 -1,301 225 224 -1,301 224 302 -1,302 224 223 -1,302 223 303 -1,303 223 222 -1,303 222 304 -1,304 222 221 -1,304 221 305 -1,305 221 220 -1,280 214 249 -1,280 249 278 -1,278 249 254 -1,278 254 276 -1,276 254 255 -1,276 255 274 -1,274 255 256 -1,274 256 272 -1,272 256 240 -1,272 240 270 -1,270 240 213 -1,270 213 239 -1,
        ]
    }
}
Shape{
    appearance Appearance {
        material  Material {
            diffuseColor 0.0 0.4666666666666667 1.0
            specularColor 0.0 0.23137254901960785 0.5019607843137255
            ambientIntensity 0.2
            transparency 0
            shininess 0.5
        }
    }
    geometry IndexedFaceSet {
        ccw TRUE
        solid FALSE
        coord DEF co Coordinate {
            point [
                1.2550 0.9401 0.4173, 1.2550 0.9401 0.8504, 0.3889 0.9401 0.4173, 0.3889 0.9401 0.8504, 0.3889 1.5306 0.4173, 0.3889 1.5306 0.8504, 1.2550 1.5306 0.4173, 1.2550 1.5306 0.8504, 1.2550 1.0188 0.9291, 1.2550 1.4519 0.9291, 0.3889 1.0188 0.9291, 0.3889 1.4519 0.9291, 0.3889 1.0188 0.3386, 0.3889 1.4519 0.3386, 1.2550 1.0188 0.3386, 1.2550 1.4519 0.3386, 1.2550 0.9985 0.3413, 0.3889 0.9985 0.3413, 1.2550 0.9795 0.3491, 0.3889 0.9795 0.3491, 1.2550 0.9632 0.3616, 0.3889 0.9632 0.3616, 1.2550 0.9506 0.3780, 0.3889 0.9506 0.3780, 1.2550 0.9428 0.3969, 0.3889 0.9428 0.3969, 0.3889 0.9985 0.9265, 1.2550 0.9985 0.9265, 0.3889 0.9795 0.9186, 1.2550 0.9795 0.9186, 0.3889 0.9632 0.9061, 1.2550 0.9632 0.9061, 0.3889 0.9506 0.8898, 1.2550 0.9506 0.8898, 0.3889 0.9428 0.8708, 1.2550 0.9428 0.8708, 0.3889 1.4723 0.3413, 1.2550 1.4723 0.3413, 0.3889 1.4913 0.3491, 1.2550 1.4913 0.3491, 0.3889 1.5076 0.3616, 1.2550 1.5076 0.3616, 0.3889 1.5201 0.3780, 1.2550 1.5201 0.3780, 0.3889 1.5280 0.3969, 1.2550 1.5280 0.3969, 1.2550 1.4723 0.9265, 0.3889 1.4723 0.9265, 1.2550 1.4913 0.9186, 0.3889 1.4913 0.9186, 1.2550 1.5076 0.9061, 0.3889 1.5076 0.9061, 1.2550 1.5201 0.8898, 0.3889 1.5201 0.8898, 1.2550 1.5280 0.8708, 0.3889 1.5280 0.8708, 0.3889 1.5280 0.8708
            ]
        }
        coordIndex [
            0 1 2 -1,2 1 3 -1,4 5 6 -1,6 5 7 -1,8 9 10 -1,10 9 11 -1,12 13 14 -1,14 13 15 -1,12 14 16 -1,12 16 17 -1,17 16 18 -1,17 18 19 -1,19 18 20 -1,19 20 21 -1,21 20 22 -1,21 22 23 -1,23 22 24 -1,23 24 25 -1,25 24 0 -1,25 0 2 -1,8 10 26 -1,8 26 27 -1,27 26 28 -1,27 28 29 -1,29 28 30 -1,29 30 31 -1,31 30 32 -1,31 32 33 -1,33 32 34 -1,33 34 35 -1,35 34 3 -1,35 3 1 -1,15 13 36 -1,15 36 37 -1,37 36 38 -1,37 38 39 -1,39 38 40 -1,39 40 41 -1,41 40 42 -1,41 42 43 -1,43 42 44 -1,43 44 45 -1,45 44 4 -1,45 4 6 -1,11 9 46 -1,11 46 47 -1,47 46 48 -1,47 48 49 -1,49 48 50 -1,49 50 51 -1,51 50 52 -1,51 52 53 -1,53 52 54 -1,53 54 55 -1,55 54 7 -1,55 7 5 -1,
        ]
    }
}
Shape{
    appearance Appearance {
        material  Material {
            diffuseColor 0.8509803921568627 0.8509803921568627 0.8509803921568627
            specularColor 0.4235294117647059 0.4235294117647059 0.4235294117647059
            ambientIntensity 0.2
            transparency 0
            shininess 0.5
        }
    }
    geometry IndexedFaceSet {
        ccw TRUE
        solid FALSE
        coord DEF co Coordinate {
            point [
                0.3889 1.0188 0.3386, 0.3889 0.9985 0.3413, 0.3889 0.9992 0.3189, 0.3889 0.9788 0.3216, 0.3889 0.9795 0.3491, 0.3889 0.9598 0.3294, 0.3889 0.9435 0.3420, 0.3889 0.9632 0.3616, 0.3889 0.9310 0.3583, 0.3889 0.9506 0.3780, 0.3889 0.9231 0.3773, 0.3889 0.9428 0.3969, 0.3889 0.9204 0.3976, 0.3889 0.9401 0.4173, 0.3889 0.9204 0.8701, 0.3889 0.9401 0.8504, 0.3889 0.9428 0.8708, 0.3889 0.9231 0.8905, 0.3889 0.9506 0.8898, 0.3889 0.9310 0.9094, 0.3889 1.4716 0.9488, 0.3889 1.4723 0.9265, 0.3889 1.4920 0.9461, 0.3889 1.4913 0.9186, 0.3889 1.5110 0.9383, 0.3889 1.5273 0.9258, 0.3889 1.5076 0.9061, 0.3889 1.5398 0.9094, 0.3889 1.5201 0.8898, 0.3889 1.5477 0.8905, 0.3889 1.5280 0.8708, 0.3889 1.5503 0.8701, 0.3889 1.5306 0.8504, 0.3889 1.5503 0.3976, 0.3889 0.9435 0.9258, 0.3889 0.9632 0.9061, 0.3889 0.9598 0.9383, 0.3889 0.9795 0.9186, 0.3889 0.9788 0.9461, 0.3889 0.9985 0.9265, 0.3889 0.9992 0.9488, 0.3889 1.0188 0.9291, 0.3889 1.4519 0.9291, 0.3889 1.5306 0.4173, 0.3889 1.5280 0.3969, 0.3889 1.5477 0.3773, 0.3889 1.5201 0.3780, 0.3889 1.4519 0.3386, 0.3889 1.4716 0.3189, 0.3889 1.4723 0.3413, 0.3889 1.4920 0.3216, 0.3889 1.4913 0.3491, 0.3889 1.5110 0.3294, 0.3889 1.5076 0.3616, 0.3889 1.5273 0.3420, 0.3889 1.5398 0.3583, 0.1920 1.5503 0.3976, 0.1920 1.5503 0.8701, 0.1133 1.4716 0.3976, 0.1133 0.9992 0.3976, 0.1133 1.4716 0.8701, 0.1133 0.9992 0.8701, 0.1920 0.9204 0.3976, 0.1920 0.9204 0.8701, 0.1920 0.9992 0.9488, 0.1920 1.4716 0.9488, 0.1920 0.9992 0.3189, 0.1920 1.4716 0.3189, 1.2550 1.5201 0.8898, 1.2550 1.5076 0.9061, 1.2550 1.5273 0.9258, 1.2550 0.9992 0.9488, 1.2550 0.9985 0.9265, 1.2550 0.9788 0.9461, 1.2550 0.9795 0.9186, 1.2550 0.9598 0.9383, 1.2550 1.5110 0.9383, 1.2550 1.4913 0.9186, 1.2550 1.4920 0.9461, 1.2550 1.4723 0.9265, 1.2550 1.4716 0.9488, 1.2550 1.4519 0.9291, 1.2550 1.0188 0.9291, 1.2550 1.4913 0.3491, 1.2550 1.5076 0.3616, 1.2550 1.5273 0.3420, 1.2550 1.5398 0.3583, 1.2550 1.5201 0.3780, 1.2550 1.5477 0.3773, 1.2550 1.5280 0.3969, 1.2550 1.5503 0.3976, 1.2550 1.5306 0.4173, 1.2550 1.5503 0.8701, 1.2550 0.9435 0.9258, 1.2550 0.9632 0.9061, 1.2550 0.9310 0.9094, 1.2550 0.9506 0.8898, 1.2550 0.9231 0.8905, 1.2550 0.9428 0.8708, 1.2550 0.9204 0.8701, 1.2550 0.9401 0.8504, 1.2550 0.9204 0.3976, 1.2550 1.4716 0.3189, 1.2550 1.4723 0.3413, 1.2550 1.4920 0.3216, 1.2550 1.5110 0.3294, 1.2550 1.5306 0.8504, 1.2550 1.5280 0.8708, 1.2550 1.5477 0.8905, 1.2550 1.5398 0.9094, 1.2550 0.9401 0.4173, 1.2550 0.9428 0.3969, 1.2550 0.9231 0.3773, 1.2550 0.9506 0.3780, 1.2550 0.9310 0.3583, 1.2550 0.9435 0.3420, 1.2550 0.9632 0.3616, 1.2550 0.9598 0.3294, 1.2550 0.9795 0.3491, 1.2550 0.9788 0.3216, 1.2550 0.9985 0.3413, 1.2550 0.9992 0.3189, 1.2550 1.0188 0.3386, 1.2550 1.4519 0.3386, 1.4519 0.9204 0.8701, 1.4519 0.9204 0.3976, 1.5306 0.9992 0.3976, 1.5306 1.4716 0.3976, 1.5306 0.9992 0.8701, 1.5306 1.4716 0.8701, 1.4519 1.5503 0.3976, 1.4519 1.5503 0.8701, 1.4519 0.9992 0.9488, 1.4519 1.4716 0.9488, 1.4519 1.4716 0.3189, 1.4519 0.9992 0.3189, 0.1920 0.9224 0.8876, 0.1920 0.9234 0.8904, 0.1920 0.9282 0.9042, 0.1920 0.9313 0.9092, 0.1920 0.9376 0.9192, 0.1920 0.9438 0.9254, 0.1920 0.9501 0.9316, 0.1920 0.9600 0.9379, 0.1920 0.9650 0.9410, 0.1920 0.9789 0.9459, 0.1920 0.9816 0.9468, 0.1152 0.9816 0.8701, 0.1152 0.9816 0.3976, 0.1162 0.9789 0.8701, 0.1162 0.9789 0.3976, 0.1211 0.9650 0.8701, 0.1211 0.9650 0.3976, 0.1242 0.9600 0.8701, 0.1242 0.9600 0.3976, 0.1305 0.9501 0.8701, 0.1305 0.9501 0.3976, 0.1367 0.9438 0.8701, 0.1367 0.9438 0.3976, 0.1429 0.9376 0.8701, 0.1429 0.9376 0.3976, 0.1529 0.9313 0.8701, 0.1529 0.9313 0.3976, 0.1578 0.9282 0.8701, 0.1578 0.9282 0.3976, 0.1717 0.9234 0.8701, 0.1717 0.9234 0.3976, 0.1745 0.9224 0.8701, 0.1745 0.9224 0.3976, 0.1920 0.9224 0.3801, 0.1920 0.9234 0.3773, 0.1920 0.9282 0.3635, 0.1920 0.9313 0.3585, 0.1920 0.9376 0.3485, 0.1920 0.9438 0.3423, 0.1920 0.9501 0.3361, 0.1920 0.9600 0.3298, 0.1920 0.9650 0.3267, 0.1920 0.9816 0.3209, 0.1920 0.9789 0.3218, 0.1228 0.9658 0.8876, 0.1320 0.9513 0.8876, 0.1441 0.9391 0.8876, 0.1587 0.9300 0.8876, 0.1749 0.9243 0.8876, 0.1881 0.9821 0.9468, 0.1844 0.9658 0.9410, 0.1745 0.9992 0.9468, 0.1749 0.9953 0.9468, 0.1717 0.9992 0.9459, 0.1587 0.9916 0.9410, 0.1578 0.9992 0.9410, 0.1529 0.9992 0.9379, 0.1441 0.9882 0.9316, 0.1783 0.9391 0.9192, 0.1811 0.9513 0.9316, 0.1429 0.9992 0.9316, 0.1367 0.9992 0.9254, 0.1320 0.9855 0.9192, 0.1762 0.9300 0.9042, 0.1305 0.9992 0.9192, 0.1242 0.9992 0.9092, 0.1228 0.9834 0.9042, 0.1612 0.9352 0.9042, 0.1653 0.9437 0.9192, 0.1707 0.9549 0.9316, 0.1772 0.9684 0.9410, 0.1844 0.9834 0.9468, 0.1478 0.9437 0.9042, 0.1536 0.9510 0.9192, 0.1614 0.9608 0.9316, 0.1707 0.9724 0.9410, 0.1811 0.9855 0.9468, 0.1365 0.9549 0.9042, 0.1439 0.9608 0.9192, 0.1536 0.9685 0.9316, 0.1653 0.9779 0.9410, 0.1783 0.9882 0.9468, 0.1281 0.9684 0.9042, 0.1365 0.9724 0.9192, 0.1478 0.9779 0.9316, 0.1612 0.9843 0.9410, 0.1762 0.9916 0.9468, 0.1172 0.9821 0.8876, 0.1211 0.9992 0.9042, 0.1162 0.9992 0.8904, 0.1152 0.9992 0.8876, 0.1762 0.9916 0.3209, 0.1749 0.9953 0.3209, 0.1811 0.9855 0.3209, 0.1783 0.9882 0.3209, 0.1844 0.9834 0.3209, 0.1717 0.9992 0.3218, 0.1745 0.9992 0.3209, 0.1529 0.9992 0.3298, 0.1578 0.9992 0.3267, 0.1587 0.9916 0.3267, 0.1749 0.9243 0.3801, 0.1587 0.9300 0.3801, 0.1441 0.9391 0.3801, 0.1320 0.9513 0.3801, 0.1228 0.9658 0.3801, 0.1172 0.9821 0.3801, 0.1762 0.9300 0.3635, 0.1152 0.9992 0.3801, 0.1162 0.9992 0.3773, 0.1228 0.9834 0.3635, 0.1281 0.9684 0.3635, 0.1365 0.9549 0.3635, 0.1478 0.9437 0.3635, 0.1612 0.9352 0.3635, 0.1783 0.9391 0.3485, 0.1653 0.9437 0.3485, 0.1536 0.9510 0.3485, 0.1439 0.9608 0.3485, 0.1365 0.9724 0.3485, 0.1320 0.9855 0.3485, 0.1811 0.9513 0.3361, 0.1211 0.9992 0.3635, 0.1242 0.9992 0.3585, 0.1305 0.9992 0.3485, 0.1367 0.9992 0.3423, 0.1707 0.9549 0.3361, 0.1614 0.9608 0.3361, 0.1536 0.9685 0.3361, 0.1478 0.9779 0.3361, 0.1441 0.9882 0.3361, 0.1429 0.9992 0.3361, 0.1844 0.9658 0.3267, 0.1772 0.9684 0.3267, 0.1707 0.9724 0.3267, 0.1653 0.9779 0.3267, 0.1612 0.9843 0.3267, 0.1881 0.9821 0.3209, 0.1920 1.5484 0.8876, 0.1920 1.5474 0.8904, 0.1920 1.5425 0.9042, 0.1920 1.5394 0.9092, 0.1920 1.5332 0.9192, 0.1920 1.5269 0.9254, 0.1920 1.5207 0.9316, 0.1920 1.5107 0.9379, 0.1920 1.5058 0.9410, 0.1920 1.4891 0.9468, 0.1920 1.4919 0.9459, 0.1152 1.4716 0.8876, 0.1162 1.4716 0.8904, 0.1211 1.4716 0.9042, 0.1242 1.4716 0.9092, 0.1305 1.4716 0.9192, 0.1367 1.4716 0.9254, 0.1429 1.4716 0.9316, 0.1529 1.4716 0.9379, 0.1578 1.4716 0.9410, 0.1717 1.4716 0.9459, 0.1745 1.4716 0.9468, 0.1152 1.4716 0.3801, 0.1162 1.4716 0.3773, 0.1211 1.4716 0.3635, 0.1242 1.4716 0.3585, 0.1305 1.4716 0.3485, 0.1367 1.4716 0.3423, 0.1429 1.4716 0.3361, 0.1529 1.4716 0.3298, 0.1578 1.4716 0.3267, 0.1717 1.4716 0.3218, 0.1745 1.4716 0.3209, 0.1920 1.5484 0.3801, 0.1920 1.5474 0.3773, 0.1920 1.5425 0.3635, 0.1920 1.5394 0.3585, 0.1920 1.5332 0.3485, 0.1920 1.5269 0.3423, 0.1920 1.5207 0.3361, 0.1920 1.5107 0.3298, 0.1920 1.5058 0.3267, 0.1920 1.4919 0.3218, 0.1920 1.4891 0.3209, 0.1717 1.5474 0.8701, 0.1578 1.5425 0.8701, 0.1587 1.5408 0.8876, 0.1529 1.5394 0.8701, 0.1429 1.5332 0.8701, 0.1441 1.5316 0.8876, 0.1367 1.5269 0.8701, 0.1305 1.5207 0.8701, 0.1320 1.5195 0.8876, 0.1242 1.5107 0.8701, 0.1211 1.5058 0.8701, 0.1228 1.5049 0.8876, 0.1162 1.4919 0.8701, 0.1152 1.4891 0.8701, 0.1172 1.4887 0.8876, 0.1749 1.4755 0.9468, 0.1587 1.4792 0.9410, 0.1881 1.4887 0.9468, 0.1844 1.5049 0.9410, 0.1811 1.5195 0.9316, 0.1320 1.4853 0.9192, 0.1441 1.4825 0.9316, 0.1783 1.5316 0.9192, 0.1228 1.4874 0.9042, 0.1762 1.5408 0.9042, 0.1281 1.5024 0.9042, 0.1365 1.4983 0.9192, 0.1478 1.4929 0.9316, 0.1612 1.4864 0.9410, 0.1762 1.4792 0.9468, 0.1365 1.5158 0.9042, 0.1439 1.5100 0.9192, 0.1536 1.5022 0.9316, 0.1653 1.4929 0.9410, 0.1783 1.4825 0.9468, 0.1478 1.5271 0.9042, 0.1536 1.5197 0.9192, 0.1614 1.5100 0.9316, 0.1707 1.4983 0.9410, 0.1811 1.4853 0.9468, 0.1612 1.5355 0.9042, 0.1653 1.5271 0.9192, 0.1707 1.5158 0.9316, 0.1772 1.5024 0.9410, 0.1844 1.4874 0.9468, 0.1745 1.5484 0.8701, 0.1749 1.5464 0.8876, 0.1844 1.4874 0.3209, 0.1881 1.4887 0.3209, 0.1783 1.4825 0.3209, 0.1811 1.4853 0.3209, 0.1762 1.4792 0.3209, 0.1844 1.5049 0.3267, 0.1152 1.4891 0.3976, 0.1172 1.4887 0.3801, 0.1162 1.4919 0.3976, 0.1228 1.5049 0.3801, 0.1211 1.5058 0.3976, 0.1242 1.5107 0.3976, 0.1320 1.5195 0.3801, 0.1305 1.5207 0.3976, 0.1367 1.5269 0.3976, 0.1441 1.5316 0.3801, 0.1429 1.5332 0.3976, 0.1529 1.5394 0.3976, 0.1587 1.5408 0.3801, 0.1745 1.5484 0.3976, 0.1749 1.5464 0.3801, 0.1717 1.5474 0.3976, 0.1578 1.5425 0.3976, 0.1228 1.4874 0.3635, 0.1762 1.5408 0.3635, 0.1612 1.5355 0.3635, 0.1478 1.5271 0.3635, 0.1365 1.5158 0.3635, 0.1281 1.5024 0.3635, 0.1320 1.4853 0.3485, 0.1365 1.4983 0.3485, 0.1439 1.5100 0.3485, 0.1536 1.5197 0.3485, 0.1653 1.5271 0.3485, 0.1783 1.5316 0.3485, 0.1441 1.4825 0.3361, 0.1478 1.4929 0.3361, 0.1536 1.5022 0.3361, 0.1614 1.5100 0.3361, 0.1707 1.5158 0.3361, 0.1811 1.5195 0.3361, 0.1587 1.4792 0.3267, 0.1612 1.4864 0.3267, 0.1653 1.4929 0.3267, 0.1707 1.4983 0.3267, 0.1772 1.5024 0.3267, 0.1749 1.4755 0.3209, 1.4519 1.5484 0.8876, 1.4519 1.5474 0.8904, 1.4519 1.5425 0.9042, 1.4519 1.5394 0.9092, 1.4519 1.5332 0.9192, 1.4519 1.5269 0.9254, 1.4519 1.5207 0.9316, 1.4519 1.5107 0.9379, 1.4519 1.5058 0.9410, 1.4519 1.4919 0.9459, 1.4519 1.4891 0.9468, 1.5286 1.4891 0.8701, 1.5286 1.4891 0.3976, 1.5277 1.4919 0.8701, 1.5277 1.4919 0.3976, 1.5228 1.5058 0.8701, 1.5228 1.5058 0.3976, 1.5197 1.5107 0.8701, 1.5197 1.5107 0.3976, 1.5134 1.5207 0.8701, 1.5134 1.5207 0.3976, 1.5072 1.5269 0.8701, 1.5072 1.5269 0.3976, 1.5009 1.5332 0.8701, 1.5009 1.5332 0.3976, 1.4910 1.5394 0.8701, 1.4910 1.5394 0.3976, 1.4860 1.5425 0.8701, 1.4860 1.5425 0.3976, 1.4721 1.5474 0.8701, 1.4721 1.5474 0.3976, 1.4694 1.5484 0.8701, 1.4694 1.5484 0.3976, 1.4519 1.5484 0.3801, 1.4519 1.5474 0.3773, 1.4519 1.5425 0.3635, 1.4519 1.5394 0.3585, 1.4519 1.5332 0.3485, 1.4519 1.5269 0.3423, 1.4519 1.5207 0.3361, 1.4519 1.5107 0.3298, 1.4519 1.5058 0.3267, 1.4519 1.4891 0.3209, 1.4519 1.4919 0.3218, 1.5210 1.5049 0.8876, 1.5119 1.5195 0.8876, 1.4997 1.5316 0.8876, 1.4852 1.5408 0.8876, 1.4689 1.5464 0.8876, 1.4558 1.4887 0.9468, 1.4595 1.5049 0.9410, 1.4694 1.4716 0.9468, 1.4689 1.4755 0.9468, 1.4721 1.4716 0.9459, 1.4852 1.4792 0.9410, 1.4860 1.4716 0.9410, 1.4910 1.4716 0.9379, 1.4997 1.4825 0.9316, 1.4656 1.5316 0.9192, 1.4628 1.5195 0.9316, 1.5009 1.4716 0.9316, 1.5072 1.4716 0.9254, 1.5119 1.4853 0.9192, 1.4676 1.5408 0.9042, 1.5134 1.4716 0.9192, 1.5197 1.4716 0.9092, 1.5210 1.4874 0.9042, 1.4826 1.5355 0.9042, 1.4786 1.5271 0.9192, 1.4732 1.5158 0.9316, 1.4667 1.5024 0.9410, 1.4595 1.4874 0.9468, 1.4961 1.5271 0.9042, 1.4902 1.5197 0.9192, 1.4825 1.5100 0.9316, 1.4732 1.4983 0.9410, 1.4628 1.4853 0.9468, 1.5073 1.5158 0.9042, 1.5000 1.5100 0.9192, 1.4902 1.5022 0.9316, 1.4786 1.4929 0.9410, 1.4656 1.4825 0.9468, 1.5158 1.5024 0.9042, 1.5073 1.4983 0.9192, 1.4961 1.4929 0.9316, 1.4826 1.4864 0.9410, 1.4676 1.4792 0.9468, 1.5267 1.4887 0.8876, 1.5228 1.4716 0.9042, 1.5277 1.4716 0.8904, 1.5286 1.4716 0.8876, 1.4676 1.4792 0.3209, 1.4689 1.4755 0.3209, 1.4628 1.4853 0.3209, 1.4656 1.4825 0.3209, 1.4595 1.4874 0.3209, 1.4721 1.4716 0.3218, 1.4694 1.4716 0.3209, 1.4910 1.4716 0.3298, 1.4860 1.4716 0.3267, 1.4852 1.4792 0.3267, 1.4689 1.5464 0.3801, 1.4852 1.5408 0.3801, 1.4997 1.5316 0.3801, 1.5119 1.5195 0.3801, 1.5210 1.5049 0.3801, 1.5267 1.4887 0.3801, 1.4676 1.5408 0.3635, 1.5286 1.4716 0.3801, 1.5277 1.4716 0.3773, 1.5210 1.4874 0.3635, 1.5158 1.5024 0.3635, 1.5073 1.5158 0.3635, 1.4961 1.5271 0.3635, 1.4826 1.5355 0.3635, 1.4656 1.5316 0.3485, 1.4786 1.5271 0.3485, 1.4902 1.5197 0.3485, 1.5000 1.5100 0.3485, 1.5073 1.4983 0.3485, 1.5119 1.4853 0.3485, 1.4628 1.5195 0.3361, 1.5228 1.4716 0.3635, 1.5197 1.4716 0.3585, 1.5134 1.4716 0.3485, 1.5072 1.4716 0.3423, 1.4732 1.5158 0.3361, 1.4825 1.5100 0.3361, 1.4902 1.5022 0.3361, 1.4961 1.4929 0.3361, 1.4997 1.4825 0.3361, 1.5009 1.4716 0.3361, 1.4595 1.5049 0.3267, 1.4667 1.5024 0.3267, 1.4732 1.4983 0.3267, 1.4786 1.4929 0.3267, 1.4826 1.4864 0.3267, 1.4558 1.4887 0.3209, 1.4519 0.9224 0.8876, 1.4519 0.9234 0.8904, 1.4519 0.9282 0.9042, 1.4519 0.9313 0.9092, 1.4519 0.9376 0.9192, 1.4519 0.9438 0.9254, 1.4519 0.9501 0.9316, 1.4519 0.9600 0.9379, 1.4519 0.9650 0.9410, 1.4519 0.9816 0.9468, 1.4519 0.9789 0.9459, 1.5286 0.9992 0.8876, 1.5277 0.9992 0.8904, 1.5228 0.9992 0.9042, 1.5197 0.9992 0.9092, 1.5134 0.9992 0.9192, 1.5072 0.9992 0.9254, 1.5009 0.9992 0.9316, 1.4910 0.9992 0.9379, 1.4860 0.9992 0.9410, 1.4721 0.9992 0.9459, 1.4694 0.9992 0.9468, 1.5286 0.9992 0.3801, 1.5277 0.9992 0.3773, 1.5228 0.9992 0.3635, 1.5197 0.9992 0.3585, 1.5134 0.9992 0.3485, 1.5072 0.9992 0.3423, 1.5009 0.9992 0.3361, 1.4910 0.9992 0.3298, 1.4860 0.9992 0.3267, 1.4721 0.9992 0.3218, 1.4694 0.9992 0.3209, 1.4519 0.9224 0.3801, 1.4519 0.9234 0.3773, 1.4519 0.9282 0.3635, 1.4519 0.9313 0.3585, 1.4519 0.9376 0.3485, 1.4519 0.9438 0.3423, 1.4519 0.9501 0.3361, 1.4519 0.9600 0.3298, 1.4519 0.9650 0.3267, 1.4519 0.9789 0.3218, 1.4519 0.9816 0.3209, 1.4721 0.9234 0.8701, 1.4860 0.9282 0.8701, 1.4852 0.9300 0.8876, 1.4910 0.9313 0.8701, 1.5009 0.9376 0.8701, 1.4997 0.9391 0.8876, 1.5072 0.9438 0.8701, 1.5134 0.9501 0.8701, 1.5119 0.9513 0.8876, 1.5197 0.9600 0.8701, 1.5228 0.9650 0.8701, 1.5210 0.9658 0.8876, 1.5277 0.9789 0.8701, 1.5286 0.9816 0.8701, 1.5267 0.9821 0.8876, 1.4689 0.9953 0.9468, 1.4852 0.9916 0.9410, 1.4558 0.9821 0.9468, 1.4595 0.9658 0.9410, 1.4628 0.9513 0.9316, 1.5119 0.9855 0.9192, 1.4997 0.9882 0.9316, 1.4656 0.9391 0.9192, 1.5210 0.9834 0.9042, 1.4676 0.9300 0.9042, 1.5158 0.9684 0.9042, 1.5073 0.9724 0.9192, 1.4961 0.9779 0.9316, 1.4826 0.9843 0.9410, 1.4676 0.9916 0.9468, 1.5073 0.9549 0.9042, 1.5000 0.9608 0.9192, 1.4902 0.9685 0.9316, 1.4786 0.9779 0.9410, 1.4656 0.9882 0.9468, 1.4961 0.9437 0.9042, 1.4902 0.9510 0.9192, 1.4825 0.9608 0.9316, 1.4732 0.9724 0.9410, 1.4628 0.9855 0.9468, 1.4826 0.9352 0.9042, 1.4786 0.9437 0.9192, 1.4732 0.9549 0.9316, 1.4667 0.9684 0.9410, 1.4595 0.9834 0.9468, 1.4694 0.9224 0.8701, 1.4689 0.9243 0.8876, 1.4595 0.9834 0.3209, 1.4558 0.9821 0.3209, 1.4656 0.9882 0.3209, 1.4628 0.9855 0.3209, 1.4676 0.9916 0.3209, 1.4595 0.9658 0.3267, 1.5286 0.9816 0.3976, 1.5267 0.9821 0.3801, 1.5277 0.9789 0.3976, 1.5210 0.9658 0.3801, 1.5228 0.9650 0.3976, 1.5197 0.9600 0.3976, 1.5119 0.9513 0.3801, 1.5134 0.9501 0.3976, 1.5072 0.9438 0.3976, 1.4997 0.9391 0.3801, 1.5009 0.9376 0.3976, 1.4910 0.9313 0.3976, 1.4852 0.9300 0.3801, 1.4694 0.9224 0.3976, 1.4689 0.9243 0.3801, 1.4721 0.9234 0.3976, 1.4860 0.9282 0.3976, 1.5210 0.9834 0.3635, 1.4676 0.9300 0.3635, 1.4826 0.9352 0.3635, 1.4961 0.9437 0.3635, 1.5073 0.9549 0.3635, 1.5158 0.9684 0.3635, 1.5119 0.9855 0.3485, 1.5073 0.9724 0.3485, 1.5000 0.9608 0.3485, 1.4902 0.9510 0.3485, 1.4786 0.9437 0.3485, 1.4656 0.9391 0.3485, 1.4997 0.9882 0.3361, 1.4961 0.9779 0.3361, 1.4902 0.9685 0.3361, 1.4825 0.9608 0.3361, 1.4732 0.9549 0.3361, 1.4628 0.9513 0.3361, 1.4852 0.9916 0.3267, 1.4826 0.9843 0.3267, 1.4786 0.9779 0.3267, 1.4732 0.9724 0.3267, 1.4667 0.9684 0.3267, 1.4689 0.9953 0.3209, 1.4689 0.9953 0.3209
            ]
        }
        coordIndex [
            0 1 2 -1,2 1 3 -1,3 1 4 -1,3 4 5 -1,5 4 6 -1,6 4 7 -1,6 7 8 -1,8 7 9 -1,8 9 10 -1,10 9 11 -1,10 11 12 -1,12 11 13 -1,12 13 14 -1,13 15 14 -1,14 15 16 -1,14 16 17 -1,17 16 18 -1,17 18 19 -1,20 21 22 -1,22 21 23 -1,22 23 24 -1,24 23 25 -1,25 23 26 -1,25 26 27 -1,27 26 28 -1,27 28 29 -1,29 28 30 -1,29 30 31 -1,31 30 32 -1,31 32 33 -1,19 18 34 -1,34 18 35 -1,34 35 36 -1,36 35 37 -1,36 37 38 -1,38 37 39 -1,38 39 40 -1,40 39 41 -1,40 41 20 -1,20 41 42 -1,20 42 21 -1,32 43 33 -1,33 43 44 -1,33 44 45 -1,45 44 46 -1,0 2 47 -1,47 2 48 -1,47 48 49 -1,49 48 50 -1,49 50 51 -1,51 50 52 -1,51 52 53 -1,53 52 54 -1,53 54 46 -1,46 54 55 -1,46 55 45 -1,56 57 33 -1,33 57 31 -1,58 59 60 -1,60 59 61 -1,12 14 62 -1,62 14 63 -1,40 20 64 -1,64 20 65 -1,66 67 2 -1,2 67 48 -1,68 69 70 -1,71 72 73 -1,73 72 74 -1,73 74 75 -1,70 69 76 -1,76 69 77 -1,76 77 78 -1,78 77 79 -1,78 79 80 -1,80 79 81 -1,80 81 71 -1,71 81 82 -1,71 82 72 -1,83 84 85 -1,85 84 86 -1,86 84 87 -1,86 87 88 -1,88 87 89 -1,88 89 90 -1,90 89 91 -1,90 91 92 -1,75 74 93 -1,93 74 94 -1,93 94 95 -1,95 94 96 -1,95 96 97 -1,97 96 98 -1,97 98 99 -1,99 98 100 -1,99 100 101 -1,102 103 104 -1,104 103 83 -1,104 83 105 -1,105 83 85 -1,91 106 92 -1,92 106 107 -1,92 107 108 -1,108 107 68 -1,108 68 109 -1,109 68 70 -1,100 110 101 -1,101 110 111 -1,101 111 112 -1,112 111 113 -1,112 113 114 -1,114 113 115 -1,115 113 116 -1,115 116 117 -1,117 116 118 -1,117 118 119 -1,119 118 120 -1,119 120 121 -1,121 120 122 -1,121 122 102 -1,102 122 123 -1,102 123 103 -1,99 101 124 -1,124 101 125 -1,126 127 128 -1,128 127 129 -1,90 92 130 -1,130 92 131 -1,132 133 71 -1,71 133 80 -1,134 135 102 -1,102 135 121 -1,63 14 136 -1,136 14 17 -1,136 17 137 -1,137 17 138 -1,138 17 19 -1,138 19 139 -1,139 19 140 -1,140 19 34 -1,140 34 141 -1,141 34 142 -1,142 34 36 -1,142 36 143 -1,143 36 144 -1,144 36 38 -1,144 38 145 -1,145 38 146 -1,146 38 40 -1,146 40 64 -1,61 59 147 -1,147 59 148 -1,147 148 149 -1,149 148 150 -1,149 150 151 -1,151 150 152 -1,151 152 153 -1,153 152 154 -1,153 154 155 -1,155 154 156 -1,155 156 157 -1,157 156 158 -1,157 158 159 -1,159 158 160 -1,159 160 161 -1,161 160 162 -1,161 162 163 -1,163 162 164 -1,163 164 165 -1,165 164 166 -1,165 166 167 -1,167 166 168 -1,167 168 63 -1,63 168 62 -1,62 169 12 -1,12 169 10 -1,169 170 10 -1,10 170 171 -1,10 171 8 -1,171 172 8 -1,8 172 173 -1,8 173 6 -1,173 174 6 -1,6 174 175 -1,6 175 5 -1,175 176 5 -1,5 176 177 -1,5 177 3 -1,66 2 178 -1,178 2 3 -1,178 3 179 -1,179 3 177 -1,149 151 180 -1,153 155 181 -1,157 159 182 -1,161 163 183 -1,165 167 184 -1,64 185 146 -1,186 144 185 -1,185 144 145 -1,185 145 146 -1,64 187 188 -1,188 187 189 -1,188 189 190 -1,189 191 190 -1,190 191 192 -1,190 192 193 -1,194 141 195 -1,195 141 142 -1,195 142 186 -1,186 142 143 -1,186 143 144 -1,192 196 193 -1,193 196 197 -1,193 197 198 -1,199 139 194 -1,194 139 140 -1,194 140 141 -1,197 200 198 -1,198 200 201 -1,198 201 202 -1,184 137 199 -1,199 137 138 -1,199 138 139 -1,167 63 184 -1,184 63 136 -1,184 136 137 -1,163 165 183 -1,183 165 184 -1,183 184 203 -1,203 184 199 -1,203 199 204 -1,204 199 194 -1,204 194 205 -1,205 194 195 -1,205 195 206 -1,206 195 186 -1,206 186 207 -1,207 186 185 -1,207 185 64 -1,159 161 182 -1,182 161 183 -1,182 183 208 -1,208 183 203 -1,208 203 209 -1,209 203 204 -1,209 204 210 -1,210 204 205 -1,210 205 211 -1,211 205 206 -1,211 206 212 -1,212 206 207 -1,212 207 64 -1,155 157 181 -1,181 157 182 -1,181 182 213 -1,213 182 208 -1,213 208 214 -1,214 208 209 -1,214 209 215 -1,215 209 210 -1,215 210 216 -1,216 210 211 -1,216 211 217 -1,217 211 212 -1,217 212 64 -1,151 153 180 -1,180 153 181 -1,180 181 218 -1,218 181 213 -1,218 213 219 -1,219 213 214 -1,219 214 220 -1,220 214 215 -1,220 215 221 -1,221 215 216 -1,221 216 222 -1,222 216 217 -1,222 217 64 -1,147 149 223 -1,223 149 180 -1,223 180 202 -1,202 180 218 -1,202 218 198 -1,198 218 219 -1,198 219 193 -1,193 219 220 -1,193 220 190 -1,190 220 221 -1,190 221 188 -1,188 221 222 -1,188 222 64 -1,201 224 202 -1,202 224 225 -1,202 225 223 -1,223 225 226 -1,223 226 147 -1,147 226 61 -1,227 228 66 -1,229 230 66 -1,229 66 231 -1,232 233 228 -1,228 233 66 -1,230 227 66 -1,234 235 236 -1,169 62 168 -1,169 168 237 -1,237 168 166 -1,237 166 238 -1,166 164 238 -1,238 164 162 -1,238 162 239 -1,162 160 239 -1,239 160 158 -1,239 158 240 -1,158 156 240 -1,240 156 154 -1,240 154 241 -1,148 242 150 -1,150 242 241 -1,150 241 152 -1,152 241 154 -1,172 171 243 -1,243 171 170 -1,148 59 242 -1,242 59 244 -1,242 244 245 -1,245 246 242 -1,242 246 247 -1,242 247 241 -1,241 247 248 -1,241 248 240 -1,240 248 249 -1,240 249 239 -1,239 249 250 -1,239 250 238 -1,238 250 243 -1,238 243 237 -1,237 243 170 -1,237 170 169 -1,174 173 251 -1,251 173 172 -1,172 243 251 -1,251 243 250 -1,251 250 252 -1,252 250 249 -1,252 249 253 -1,253 249 248 -1,253 248 254 -1,254 248 247 -1,254 247 255 -1,255 247 246 -1,255 246 256 -1,176 175 257 -1,257 175 174 -1,245 258 246 -1,246 258 259 -1,246 259 256 -1,256 259 260 -1,256 260 261 -1,174 251 257 -1,257 251 252 -1,257 252 262 -1,262 252 253 -1,262 253 263 -1,263 253 254 -1,263 254 264 -1,264 254 255 -1,264 255 265 -1,265 255 256 -1,265 256 266 -1,266 256 261 -1,266 261 267 -1,179 177 268 -1,268 177 176 -1,176 257 268 -1,268 257 262 -1,268 262 269 -1,269 262 263 -1,269 263 270 -1,270 263 264 -1,270 264 271 -1,271 264 265 -1,271 265 272 -1,272 265 266 -1,272 266 236 -1,236 266 267 -1,236 267 234 -1,66 178 273 -1,273 178 179 -1,231 66 273 -1,179 268 273 -1,273 268 269 -1,273 269 231 -1,231 269 270 -1,231 270 229 -1,229 270 271 -1,229 271 230 -1,230 271 272 -1,230 272 227 -1,227 272 236 -1,227 236 228 -1,228 236 235 -1,228 235 232 -1,57 274 31 -1,31 274 29 -1,274 275 29 -1,29 275 276 -1,29 276 27 -1,276 277 27 -1,27 277 278 -1,27 278 25 -1,278 279 25 -1,25 279 280 -1,25 280 24 -1,280 281 24 -1,24 281 282 -1,24 282 22 -1,65 20 283 -1,283 20 22 -1,283 22 284 -1,284 22 282 -1,60 61 285 -1,285 61 226 -1,285 226 286 -1,286 226 225 -1,286 225 287 -1,287 225 224 -1,287 224 288 -1,288 224 201 -1,288 201 289 -1,289 201 200 -1,289 200 290 -1,290 200 197 -1,290 197 291 -1,291 197 196 -1,291 196 292 -1,292 196 192 -1,292 192 293 -1,293 192 191 -1,293 191 294 -1,294 191 189 -1,294 189 295 -1,295 189 187 -1,295 187 65 -1,65 187 64 -1,59 58 244 -1,244 58 296 -1,244 296 245 -1,245 296 297 -1,245 297 258 -1,258 297 298 -1,258 298 259 -1,259 298 299 -1,259 299 260 -1,260 299 300 -1,260 300 261 -1,261 300 301 -1,261 301 267 -1,267 301 302 -1,267 302 234 -1,234 302 303 -1,234 303 235 -1,235 303 304 -1,235 304 232 -1,232 304 305 -1,232 305 233 -1,233 305 306 -1,233 306 66 -1,66 306 67 -1,56 33 307 -1,307 33 45 -1,307 45 308 -1,308 45 309 -1,309 45 55 -1,309 55 310 -1,310 55 311 -1,311 55 54 -1,311 54 312 -1,312 54 313 -1,313 54 52 -1,313 52 314 -1,314 52 315 -1,315 52 50 -1,315 50 316 -1,316 50 317 -1,317 50 48 -1,317 48 67 -1,318 319 320 -1,321 322 323 -1,324 325 326 -1,327 328 329 -1,330 331 332 -1,65 333 295 -1,334 293 333 -1,333 293 294 -1,333 294 295 -1,65 283 335 -1,335 283 284 -1,335 284 336 -1,284 282 336 -1,336 282 281 -1,336 281 337 -1,338 290 339 -1,339 290 291 -1,339 291 334 -1,334 291 292 -1,334 292 293 -1,281 280 337 -1,337 280 279 -1,337 279 340 -1,341 288 338 -1,338 288 289 -1,338 289 290 -1,279 278 340 -1,340 278 277 -1,340 277 342 -1,332 286 341 -1,341 286 287 -1,341 287 288 -1,331 60 332 -1,332 60 285 -1,332 285 286 -1,328 330 329 -1,329 330 332 -1,329 332 343 -1,343 332 341 -1,343 341 344 -1,344 341 338 -1,344 338 345 -1,345 338 339 -1,345 339 346 -1,346 339 334 -1,346 334 347 -1,347 334 333 -1,347 333 65 -1,325 327 326 -1,326 327 329 -1,326 329 348 -1,348 329 343 -1,348 343 349 -1,349 343 344 -1,349 344 350 -1,350 344 345 -1,350 345 351 -1,351 345 346 -1,351 346 352 -1,352 346 347 -1,352 347 65 -1,322 324 323 -1,323 324 326 -1,323 326 353 -1,353 326 348 -1,353 348 354 -1,354 348 349 -1,354 349 355 -1,355 349 350 -1,355 350 356 -1,356 350 351 -1,356 351 357 -1,357 351 352 -1,357 352 65 -1,319 321 320 -1,320 321 323 -1,320 323 358 -1,358 323 353 -1,358 353 359 -1,359 353 354 -1,359 354 360 -1,360 354 355 -1,360 355 361 -1,361 355 356 -1,361 356 362 -1,362 356 357 -1,362 357 65 -1,363 318 364 -1,364 318 320 -1,364 320 342 -1,342 320 358 -1,342 358 340 -1,340 358 359 -1,340 359 337 -1,337 359 360 -1,337 360 336 -1,336 360 361 -1,336 361 335 -1,335 361 362 -1,335 362 65 -1,277 276 342 -1,342 276 275 -1,342 275 364 -1,364 275 274 -1,364 274 363 -1,363 274 57 -1,365 366 67 -1,367 368 67 -1,367 67 369 -1,316 317 366 -1,366 317 67 -1,368 365 67 -1,314 315 370 -1,296 58 371 -1,296 371 372 -1,372 371 373 -1,372 373 374 -1,373 375 374 -1,374 375 376 -1,374 376 377 -1,376 378 377 -1,377 378 379 -1,377 379 380 -1,379 381 380 -1,380 381 382 -1,380 382 383 -1,384 385 386 -1,386 385 383 -1,386 383 387 -1,387 383 382 -1,299 298 388 -1,388 298 297 -1,384 56 385 -1,385 56 307 -1,385 307 308 -1,308 389 385 -1,385 389 390 -1,385 390 383 -1,383 390 391 -1,383 391 380 -1,380 391 392 -1,380 392 377 -1,377 392 393 -1,377 393 374 -1,374 393 388 -1,374 388 372 -1,372 388 297 -1,372 297 296 -1,301 300 394 -1,394 300 299 -1,299 388 394 -1,394 388 393 -1,394 393 395 -1,395 393 392 -1,395 392 396 -1,396 392 391 -1,396 391 397 -1,397 391 390 -1,397 390 398 -1,398 390 389 -1,398 389 399 -1,303 302 400 -1,400 302 301 -1,308 309 389 -1,389 309 310 -1,389 310 399 -1,399 310 311 -1,399 311 312 -1,301 394 400 -1,400 394 395 -1,400 395 401 -1,401 395 396 -1,401 396 402 -1,402 396 397 -1,402 397 403 -1,403 397 398 -1,403 398 404 -1,404 398 399 -1,404 399 405 -1,405 399 312 -1,405 312 313 -1,305 304 406 -1,406 304 303 -1,303 400 406 -1,406 400 401 -1,406 401 407 -1,407 401 402 -1,407 402 408 -1,408 402 403 -1,408 403 409 -1,409 403 404 -1,409 404 410 -1,410 404 405 -1,410 405 370 -1,370 405 313 -1,370 313 314 -1,67 306 411 -1,411 306 305 -1,369 67 411 -1,305 406 411 -1,411 406 407 -1,411 407 369 -1,369 407 408 -1,369 408 367 -1,367 408 409 -1,367 409 368 -1,368 409 410 -1,368 410 365 -1,365 410 370 -1,365 370 366 -1,366 370 315 -1,366 315 316 -1,57 56 363 -1,363 56 384 -1,363 384 318 -1,318 384 386 -1,318 386 319 -1,319 386 387 -1,319 387 321 -1,321 387 382 -1,321 382 322 -1,322 382 381 -1,322 381 324 -1,324 381 379 -1,324 379 325 -1,325 379 378 -1,325 378 327 -1,327 378 376 -1,327 376 328 -1,328 376 375 -1,328 375 330 -1,330 375 373 -1,330 373 331 -1,331 373 371 -1,331 371 60 -1,60 371 58 -1,131 92 412 -1,412 92 108 -1,412 108 413 -1,413 108 414 -1,414 108 109 -1,414 109 415 -1,415 109 416 -1,416 109 70 -1,416 70 417 -1,417 70 418 -1,418 70 76 -1,418 76 419 -1,419 76 420 -1,420 76 78 -1,420 78 421 -1,421 78 422 -1,422 78 80 -1,422 80 133 -1,129 127 423 -1,423 127 424 -1,423 424 425 -1,425 424 426 -1,425 426 427 -1,427 426 428 -1,427 428 429 -1,429 428 430 -1,429 430 431 -1,431 430 432 -1,431 432 433 -1,433 432 434 -1,433 434 435 -1,435 434 436 -1,435 436 437 -1,437 436 438 -1,437 438 439 -1,439 438 440 -1,439 440 441 -1,441 440 442 -1,441 442 443 -1,443 442 444 -1,443 444 131 -1,131 444 130 -1,130 445 90 -1,90 445 88 -1,445 446 88 -1,88 446 447 -1,88 447 86 -1,447 448 86 -1,86 448 449 -1,86 449 85 -1,449 450 85 -1,85 450 451 -1,85 451 105 -1,451 452 105 -1,105 452 453 -1,105 453 104 -1,134 102 454 -1,454 102 104 -1,454 104 455 -1,455 104 453 -1,425 427 456 -1,429 431 457 -1,433 435 458 -1,437 439 459 -1,441 443 460 -1,133 461 422 -1,462 420 461 -1,461 420 421 -1,461 421 422 -1,133 463 464 -1,464 463 465 -1,464 465 466 -1,465 467 466 -1,466 467 468 -1,466 468 469 -1,470 417 471 -1,471 417 418 -1,471 418 462 -1,462 418 419 -1,462 419 420 -1,468 472 469 -1,469 472 473 -1,469 473 474 -1,475 415 470 -1,470 415 416 -1,470 416 417 -1,473 476 474 -1,474 476 477 -1,474 477 478 -1,460 413 475 -1,475 413 414 -1,475 414 415 -1,443 131 460 -1,460 131 412 -1,460 412 413 -1,439 441 459 -1,459 441 460 -1,459 460 479 -1,479 460 475 -1,479 475 480 -1,480 475 470 -1,480 470 481 -1,481 470 471 -1,481 471 482 -1,482 471 462 -1,482 462 483 -1,483 462 461 -1,483 461 133 -1,435 437 458 -1,458 437 459 -1,458 459 484 -1,484 459 479 -1,484 479 485 -1,485 479 480 -1,485 480 486 -1,486 480 481 -1,486 481 487 -1,487 481 482 -1,487 482 488 -1,488 482 483 -1,488 483 133 -1,431 433 457 -1,457 433 458 -1,457 458 489 -1,489 458 484 -1,489 484 490 -1,490 484 485 -1,490 485 491 -1,491 485 486 -1,491 486 492 -1,492 486 487 -1,492 487 493 -1,493 487 488 -1,493 488 133 -1,427 429 456 -1,456 429 457 -1,456 457 494 -1,494 457 489 -1,494 489 495 -1,495 489 490 -1,495 490 496 -1,496 490 491 -1,496 491 497 -1,497 491 492 -1,497 492 498 -1,498 492 493 -1,498 493 133 -1,423 425 499 -1,499 425 456 -1,499 456 478 -1,478 456 494 -1,478 494 474 -1,474 494 495 -1,474 495 469 -1,469 495 496 -1,469 496 466 -1,466 496 497 -1,466 497 464 -1,464 497 498 -1,464 498 133 -1,477 500 478 -1,478 500 501 -1,478 501 499 -1,499 501 502 -1,499 502 423 -1,423 502 129 -1,503 504 134 -1,505 506 134 -1,505 134 507 -1,508 509 504 -1,504 509 134 -1,506 503 134 -1,510 511 512 -1,445 130 444 -1,445 444 513 -1,513 444 442 -1,513 442 514 -1,442 440 514 -1,514 440 438 -1,514 438 515 -1,438 436 515 -1,515 436 434 -1,515 434 516 -1,434 432 516 -1,516 432 430 -1,516 430 517 -1,424 518 426 -1,426 518 517 -1,426 517 428 -1,428 517 430 -1,448 447 519 -1,519 447 446 -1,424 127 518 -1,518 127 520 -1,518 520 521 -1,521 522 518 -1,518 522 523 -1,518 523 517 -1,517 523 524 -1,517 524 516 -1,516 524 525 -1,516 525 515 -1,515 525 526 -1,515 526 514 -1,514 526 519 -1,514 519 513 -1,513 519 446 -1,513 446 445 -1,450 449 527 -1,527 449 448 -1,448 519 527 -1,527 519 526 -1,527 526 528 -1,528 526 525 -1,528 525 529 -1,529 525 524 -1,529 524 530 -1,530 524 523 -1,530 523 531 -1,531 523 522 -1,531 522 532 -1,452 451 533 -1,533 451 450 -1,521 534 522 -1,522 534 535 -1,522 535 532 -1,532 535 536 -1,532 536 537 -1,450 527 533 -1,533 527 528 -1,533 528 538 -1,538 528 529 -1,538 529 539 -1,539 529 530 -1,539 530 540 -1,540 530 531 -1,540 531 541 -1,541 531 532 -1,541 532 542 -1,542 532 537 -1,542 537 543 -1,455 453 544 -1,544 453 452 -1,452 533 544 -1,544 533 538 -1,544 538 545 -1,545 538 539 -1,545 539 546 -1,546 539 540 -1,546 540 547 -1,547 540 541 -1,547 541 548 -1,548 541 542 -1,548 542 512 -1,512 542 543 -1,512 543 510 -1,134 454 549 -1,549 454 455 -1,507 134 549 -1,455 544 549 -1,549 544 545 -1,549 545 507 -1,507 545 546 -1,507 546 505 -1,505 546 547 -1,505 547 506 -1,506 547 548 -1,506 548 503 -1,503 548 512 -1,503 512 504 -1,504 512 511 -1,504 511 508 -1,124 550 99 -1,99 550 97 -1,550 551 97 -1,97 551 552 -1,97 552 95 -1,552 553 95 -1,95 553 554 -1,95 554 93 -1,554 555 93 -1,93 555 556 -1,93 556 75 -1,556 557 75 -1,75 557 558 -1,75 558 73 -1,132 71 559 -1,559 71 73 -1,559 73 560 -1,560 73 558 -1,128 129 561 -1,561 129 502 -1,561 502 562 -1,562 502 501 -1,562 501 563 -1,563 501 500 -1,563 500 564 -1,564 500 477 -1,564 477 565 -1,565 477 476 -1,565 476 566 -1,566 476 473 -1,566 473 567 -1,567 473 472 -1,567 472 568 -1,568 472 468 -1,568 468 569 -1,569 468 467 -1,569 467 570 -1,570 467 465 -1,570 465 571 -1,571 465 463 -1,571 463 132 -1,132 463 133 -1,127 126 520 -1,520 126 572 -1,520 572 521 -1,521 572 573 -1,521 573 534 -1,534 573 574 -1,534 574 535 -1,535 574 575 -1,535 575 536 -1,536 575 576 -1,536 576 537 -1,537 576 577 -1,537 577 543 -1,543 577 578 -1,543 578 510 -1,510 578 579 -1,510 579 511 -1,511 579 580 -1,511 580 508 -1,508 580 581 -1,508 581 509 -1,509 581 582 -1,509 582 134 -1,134 582 135 -1,125 101 583 -1,583 101 112 -1,583 112 584 -1,584 112 585 -1,585 112 114 -1,585 114 586 -1,586 114 587 -1,587 114 115 -1,587 115 588 -1,588 115 589 -1,589 115 117 -1,589 117 590 -1,590 117 591 -1,591 117 119 -1,591 119 592 -1,592 119 593 -1,593 119 121 -1,593 121 135 -1,594 595 596 -1,597 598 599 -1,600 601 602 -1,603 604 605 -1,606 607 608 -1,132 609 571 -1,610 569 609 -1,609 569 570 -1,609 570 571 -1,132 559 611 -1,611 559 560 -1,611 560 612 -1,560 558 612 -1,612 558 557 -1,612 557 613 -1,614 566 615 -1,615 566 567 -1,615 567 610 -1,610 567 568 -1,610 568 569 -1,557 556 613 -1,613 556 555 -1,613 555 616 -1,617 564 614 -1,614 564 565 -1,614 565 566 -1,555 554 616 -1,616 554 553 -1,616 553 618 -1,608 562 617 -1,617 562 563 -1,617 563 564 -1,607 128 608 -1,608 128 561 -1,608 561 562 -1,604 606 605 -1,605 606 608 -1,605 608 619 -1,619 608 617 -1,619 617 620 -1,620 617 614 -1,620 614 621 -1,621 614 615 -1,621 615 622 -1,622 615 610 -1,622 610 623 -1,623 610 609 -1,623 609 132 -1,601 603 602 -1,602 603 605 -1,602 605 624 -1,624 605 619 -1,624 619 625 -1,625 619 620 -1,625 620 626 -1,626 620 621 -1,626 621 627 -1,627 621 622 -1,627 622 628 -1,628 622 623 -1,628 623 132 -1,598 600 599 -1,599 600 602 -1,599 602 629 -1,629 602 624 -1,629 624 630 -1,630 624 625 -1,630 625 631 -1,631 625 626 -1,631 626 632 -1,632 626 627 -1,632 627 633 -1,633 627 628 -1,633 628 132 -1,595 597 596 -1,596 597 599 -1,596 599 634 -1,634 599 629 -1,634 629 635 -1,635 629 630 -1,635 630 636 -1,636 630 631 -1,636 631 637 -1,637 631 632 -1,637 632 638 -1,638 632 633 -1,638 633 132 -1,639 594 640 -1,640 594 596 -1,640 596 618 -1,618 596 634 -1,618 634 616 -1,616 634 635 -1,616 635 613 -1,613 635 636 -1,613 636 612 -1,612 636 637 -1,612 637 611 -1,611 637 638 -1,611 638 132 -1,553 552 618 -1,618 552 551 -1,618 551 640 -1,640 551 550 -1,640 550 639 -1,639 550 124 -1,641 642 135 -1,643 644 135 -1,643 135 645 -1,592 593 642 -1,642 593 135 -1,644 641 135 -1,590 591 646 -1,572 126 647 -1,572 647 648 -1,648 647 649 -1,648 649 650 -1,649 651 650 -1,650 651 652 -1,650 652 653 -1,652 654 653 -1,653 654 655 -1,653 655 656 -1,655 657 656 -1,656 657 658 -1,656 658 659 -1,660 661 662 -1,662 661 659 -1,662 659 663 -1,663 659 658 -1,575 574 664 -1,664 574 573 -1,660 125 661 -1,661 125 583 -1,661 583 584 -1,584 665 661 -1,661 665 666 -1,661 666 659 -1,659 666 667 -1,659 667 656 -1,656 667 668 -1,656 668 653 -1,653 668 669 -1,653 669 650 -1,650 669 664 -1,650 664 648 -1,648 664 573 -1,648 573 572 -1,577 576 670 -1,670 576 575 -1,575 664 670 -1,670 664 669 -1,670 669 671 -1,671 669 668 -1,671 668 672 -1,672 668 667 -1,672 667 673 -1,673 667 666 -1,673 666 674 -1,674 666 665 -1,674 665 675 -1,579 578 676 -1,676 578 577 -1,584 585 665 -1,665 585 586 -1,665 586 675 -1,675 586 587 -1,675 587 588 -1,577 670 676 -1,676 670 671 -1,676 671 677 -1,677 671 672 -1,677 672 678 -1,678 672 673 -1,678 673 679 -1,679 673 674 -1,679 674 680 -1,680 674 675 -1,680 675 681 -1,681 675 588 -1,681 588 589 -1,581 580 682 -1,682 580 579 -1,579 676 682 -1,682 676 677 -1,682 677 683 -1,683 677 678 -1,683 678 684 -1,684 678 679 -1,684 679 685 -1,685 679 680 -1,685 680 686 -1,686 680 681 -1,686 681 646 -1,646 681 589 -1,646 589 590 -1,135 582 687 -1,687 582 581 -1,645 135 687 -1,581 682 687 -1,687 682 683 -1,687 683 645 -1,645 683 684 -1,645 684 643 -1,643 684 685 -1,643 685 644 -1,644 685 686 -1,644 686 641 -1,641 686 646 -1,641 646 642 -1,642 646 591 -1,642 591 592 -1,124 125 639 -1,639 125 660 -1,639 660 594 -1,594 660 662 -1,594 662 595 -1,595 662 663 -1,595 663 597 -1,597 663 658 -1,597 658 598 -1,598 658 657 -1,598 657 600 -1,600 657 655 -1,600 655 601 -1,601 655 654 -1,601 654 603 -1,603 654 652 -1,603 652 604 -1,604 652 651 -1,604 651 606 -1,606 651 649 -1,606 649 607 -1,607 649 647 -1,607 647 128 -1,128 647 126 -1,
        ]
    }
}