ISO-10303-21;
HEADER;
/* Generated by software containing ST-Developer
 * from STEP Tools, Inc. (www.steptools.com) 
 */

FILE_DESCRIPTION(
/* description */ (''),
/* implementation_level */ '2;1');

FILE_NAME(
/* name */ 'button.step',
/* time_stamp */ '2026-06-21T06:14:12+07:00',
/* author */ (''),
/* organization */ (''),
/* preprocessor_version */ 'ST-DEVELOPER v20.1',
/* originating_system */ 'Autodesk Translation Framework v15.8.0.0',
/* authorisation */ '');

FILE_SCHEMA (('AUTOMOTIVE_DESIGN { 1 0 10303 214 3 1 1 }'));
ENDSEC;

DATA;
#10=MECHANICAL_DESIGN_GEOMETRIC_PRESENTATION_REPRESENTATION('',(#13),#311);
#11=SHAPE_REPRESENTATION_RELATIONSHIP('SRR','None',#317,#12);
#12=ADVANCED_BREP_SHAPE_REPRESENTATION('',(#14),#310);
#13=STYLED_ITEM('',(#326),#14);
#14=MANIFOLD_SOLID_BREP('Button',#183);
#15=CYLINDRICAL_SURFACE('',#191,1.00000000000001);
#16=CYLINDRICAL_SURFACE('',#194,1.00000000000001);
#17=CYLINDRICAL_SURFACE('',#197,1.00000000000001);
#18=CYLINDRICAL_SURFACE('',#200,1.00000000000001);
#19=FACE_OUTER_BOUND('',#29,.T.);
#20=FACE_OUTER_BOUND('',#30,.T.);
#21=FACE_OUTER_BOUND('',#31,.T.);
#22=FACE_OUTER_BOUND('',#32,.T.);
#23=FACE_OUTER_BOUND('',#33,.T.);
#24=FACE_OUTER_BOUND('',#34,.T.);
#25=FACE_OUTER_BOUND('',#35,.T.);
#26=FACE_OUTER_BOUND('',#36,.T.);
#27=FACE_OUTER_BOUND('',#37,.T.);
#28=FACE_OUTER_BOUND('',#38,.T.);
#29=EDGE_LOOP('',(#119,#120,#121,#122,#123,#124,#125,#126));
#30=EDGE_LOOP('',(#127,#128,#129,#130));
#31=EDGE_LOOP('',(#131,#132,#133,#134));
#32=EDGE_LOOP('',(#135,#136,#137,#138));
#33=EDGE_LOOP('',(#139,#140,#141,#142));
#34=EDGE_LOOP('',(#143,#144,#145,#146));
#35=EDGE_LOOP('',(#147,#148,#149,#150));
#36=EDGE_LOOP('',(#151,#152,#153,#154));
#37=EDGE_LOOP('',(#155,#156,#157,#158));
#38=EDGE_LOOP('',(#159,#160,#161,#162,#163,#164,#165,#166));
#39=CIRCLE('',#186,1.00000000000001);
#40=CIRCLE('',#187,1.00000000000001);
#41=CIRCLE('',#188,1.00000000000001);
#42=CIRCLE('',#189,1.00000000000001);
#43=CIRCLE('',#192,1.00000000000001);
#44=CIRCLE('',#195,1.00000000000001);
#45=CIRCLE('',#198,1.00000000000001);
#46=CIRCLE('',#201,1.00000000000001);
#47=LINE('',#261,#63);
#48=LINE('',#265,#64);
#49=LINE('',#269,#65);
#50=LINE('',#273,#66);
#51=LINE('',#277,#67);
#52=LINE('',#279,#68);
#53=LINE('',#280,#69);
#54=LINE('',#283,#70);
#55=LINE('',#287,#71);
#56=LINE('',#288,#72);
#57=LINE('',#291,#73);
#58=LINE('',#295,#74);
#59=LINE('',#296,#75);
#60=LINE('',#299,#76);
#61=LINE('',#303,#77);
#62=LINE('',#304,#78);
#63=VECTOR('',#207,10.);
#64=VECTOR('',#210,10.);
#65=VECTOR('',#213,10.);
#66=VECTOR('',#216,10.);
#67=VECTOR('',#221,10.);
#68=VECTOR('',#222,10.);
#69=VECTOR('',#223,10.);
#70=VECTOR('',#226,10.);
#71=VECTOR('',#231,10.);
#72=VECTOR('',#232,10.);
#73=VECTOR('',#235,10.);
#74=VECTOR('',#240,10.);
#75=VECTOR('',#241,10.);
#76=VECTOR('',#244,10.);
#77=VECTOR('',#249,10.);
#78=VECTOR('',#250,10.);
#79=VERTEX_POINT('',#259);
#80=VERTEX_POINT('',#260);
#81=VERTEX_POINT('',#262);
#82=VERTEX_POINT('',#264);
#83=VERTEX_POINT('',#266);
#84=VERTEX_POINT('',#268);
#85=VERTEX_POINT('',#270);
#86=VERTEX_POINT('',#272);
#87=VERTEX_POINT('',#276);
#88=VERTEX_POINT('',#278);
#89=VERTEX_POINT('',#282);
#90=VERTEX_POINT('',#286);
#91=VERTEX_POINT('',#290);
#92=VERTEX_POINT('',#294);
#93=VERTEX_POINT('',#298);
#94=VERTEX_POINT('',#302);
#95=EDGE_CURVE('',#79,#80,#47,.T.);
#96=EDGE_CURVE('',#81,#79,#39,.T.);
#97=EDGE_CURVE('',#82,#81,#48,.T.);
#98=EDGE_CURVE('',#83,#82,#40,.T.);
#99=EDGE_CURVE('',#84,#83,#49,.T.);
#100=EDGE_CURVE('',#85,#84,#41,.T.);
#101=EDGE_CURVE('',#86,#85,#50,.T.);
#102=EDGE_CURVE('',#80,#86,#42,.T.);
#103=EDGE_CURVE('',#87,#83,#51,.T.);
#104=EDGE_CURVE('',#87,#88,#52,.T.);
#105=EDGE_CURVE('',#88,#84,#53,.T.);
#106=EDGE_CURVE('',#89,#82,#54,.T.);
#107=EDGE_CURVE('',#89,#87,#43,.T.);
#108=EDGE_CURVE('',#90,#81,#55,.T.);
#109=EDGE_CURVE('',#90,#89,#56,.T.);
#110=EDGE_CURVE('',#91,#79,#57,.T.);
#111=EDGE_CURVE('',#91,#90,#44,.T.);
#112=EDGE_CURVE('',#92,#80,#58,.T.);
#113=EDGE_CURVE('',#92,#91,#59,.T.);
#114=EDGE_CURVE('',#93,#86,#60,.T.);
#115=EDGE_CURVE('',#93,#92,#45,.T.);
#116=EDGE_CURVE('',#94,#85,#61,.T.);
#117=EDGE_CURVE('',#94,#93,#62,.T.);
#118=EDGE_CURVE('',#88,#94,#46,.T.);
#119=ORIENTED_EDGE('',*,*,#95,.F.);
#120=ORIENTED_EDGE('',*,*,#96,.F.);
#121=ORIENTED_EDGE('',*,*,#97,.F.);
#122=ORIENTED_EDGE('',*,*,#98,.F.);
#123=ORIENTED_EDGE('',*,*,#99,.F.);
#124=ORIENTED_EDGE('',*,*,#100,.F.);
#125=ORIENTED_EDGE('',*,*,#101,.F.);
#126=ORIENTED_EDGE('',*,*,#102,.F.);
#127=ORIENTED_EDGE('',*,*,#99,.T.);
#128=ORIENTED_EDGE('',*,*,#103,.F.);
#129=ORIENTED_EDGE('',*,*,#104,.T.);
#130=ORIENTED_EDGE('',*,*,#105,.T.);
#131=ORIENTED_EDGE('',*,*,#98,.T.);
#132=ORIENTED_EDGE('',*,*,#106,.F.);
#133=ORIENTED_EDGE('',*,*,#107,.T.);
#134=ORIENTED_EDGE('',*,*,#103,.T.);
#135=ORIENTED_EDGE('',*,*,#97,.T.);
#136=ORIENTED_EDGE('',*,*,#108,.F.);
#137=ORIENTED_EDGE('',*,*,#109,.T.);
#138=ORIENTED_EDGE('',*,*,#106,.T.);
#139=ORIENTED_EDGE('',*,*,#96,.T.);
#140=ORIENTED_EDGE('',*,*,#110,.F.);
#141=ORIENTED_EDGE('',*,*,#111,.T.);
#142=ORIENTED_EDGE('',*,*,#108,.T.);
#143=ORIENTED_EDGE('',*,*,#95,.T.);
#144=ORIENTED_EDGE('',*,*,#112,.F.);
#145=ORIENTED_EDGE('',*,*,#113,.T.);
#146=ORIENTED_EDGE('',*,*,#110,.T.);
#147=ORIENTED_EDGE('',*,*,#102,.T.);
#148=ORIENTED_EDGE('',*,*,#114,.F.);
#149=ORIENTED_EDGE('',*,*,#115,.T.);
#150=ORIENTED_EDGE('',*,*,#112,.T.);
#151=ORIENTED_EDGE('',*,*,#101,.T.);
#152=ORIENTED_EDGE('',*,*,#116,.F.);
#153=ORIENTED_EDGE('',*,*,#117,.T.);
#154=ORIENTED_EDGE('',*,*,#114,.T.);
#155=ORIENTED_EDGE('',*,*,#100,.T.);
#156=ORIENTED_EDGE('',*,*,#105,.F.);
#157=ORIENTED_EDGE('',*,*,#118,.T.);
#158=ORIENTED_EDGE('',*,*,#116,.T.);
#159=ORIENTED_EDGE('',*,*,#111,.F.);
#160=ORIENTED_EDGE('',*,*,#113,.F.);
#161=ORIENTED_EDGE('',*,*,#115,.F.);
#162=ORIENTED_EDGE('',*,*,#117,.F.);
#163=ORIENTED_EDGE('',*,*,#118,.F.);
#164=ORIENTED_EDGE('',*,*,#104,.F.);
#165=ORIENTED_EDGE('',*,*,#107,.F.);
#166=ORIENTED_EDGE('',*,*,#109,.F.);
#167=PLANE('',#185);
#168=PLANE('',#190);
#169=PLANE('',#193);
#170=PLANE('',#196);
#171=PLANE('',#199);
#172=PLANE('',#202);
#173=ADVANCED_FACE('',(#19),#167,.T.);
#174=ADVANCED_FACE('',(#20),#168,.T.);
#175=ADVANCED_FACE('',(#21),#15,.T.);
#176=ADVANCED_FACE('',(#22),#169,.T.);
#177=ADVANCED_FACE('',(#23),#16,.T.);
#178=ADVANCED_FACE('',(#24),#170,.T.);
#179=ADVANCED_FACE('',(#25),#17,.T.);
#180=ADVANCED_FACE('',(#26),#171,.T.);
#181=ADVANCED_FACE('',(#27),#18,.T.);
#182=ADVANCED_FACE('',(#28),#172,.F.);
#183=CLOSED_SHELL('',(#173,#174,#175,#176,#177,#178,#179,#180,#181,#182));
#184=AXIS2_PLACEMENT_3D('',#257,#203,#204);
#185=AXIS2_PLACEMENT_3D('',#258,#205,#206);
#186=AXIS2_PLACEMENT_3D('',#263,#208,#209);
#187=AXIS2_PLACEMENT_3D('',#267,#211,#212);
#188=AXIS2_PLACEMENT_3D('',#271,#214,#215);
#189=AXIS2_PLACEMENT_3D('',#274,#217,#218);
#190=AXIS2_PLACEMENT_3D('',#275,#219,#220);
#191=AXIS2_PLACEMENT_3D('',#281,#224,#225);
#192=AXIS2_PLACEMENT_3D('',#284,#227,#228);
#193=AXIS2_PLACEMENT_3D('',#285,#229,#230);
#194=AXIS2_PLACEMENT_3D('',#289,#233,#234);
#195=AXIS2_PLACEMENT_3D('',#292,#236,#237);
#196=AXIS2_PLACEMENT_3D('',#293,#238,#239);
#197=AXIS2_PLACEMENT_3D('',#297,#242,#243);
#198=AXIS2_PLACEMENT_3D('',#300,#245,#246);
#199=AXIS2_PLACEMENT_3D('',#301,#247,#248);
#200=AXIS2_PLACEMENT_3D('',#305,#251,#252);
#201=AXIS2_PLACEMENT_3D('',#306,#253,#254);
#202=AXIS2_PLACEMENT_3D('',#307,#255,#256);
#203=DIRECTION('axis',(0.,0.,1.));
#204=DIRECTION('refdir',(1.,0.,0.));
#205=DIRECTION('center_axis',(0.,1.,0.));
#206=DIRECTION('ref_axis',(0.,0.,-1.));
#207=DIRECTION('',(3.059902780426E-16,0.,-1.));
#208=DIRECTION('center_axis',(0.,-1.,0.));
#209=DIRECTION('ref_axis',(-1.,0.,4.4408920985006E-15));
#210=DIRECTION('',(-1.,0.,0.));
#211=DIRECTION('center_axis',(0.,-1.,0.));
#212=DIRECTION('ref_axis',(3.33066907387545E-15,0.,1.));
#213=DIRECTION('',(3.26389629912106E-16,0.,1.));
#214=DIRECTION('center_axis',(0.,-1.,0.));
#215=DIRECTION('ref_axis',(1.,0.,-4.4408920985006E-15));
#216=DIRECTION('',(1.,0.,0.));
#217=DIRECTION('center_axis',(0.,-1.,0.));
#218=DIRECTION('ref_axis',(-5.27355936696947E-15,0.,-1.));
#219=DIRECTION('center_axis',(1.,0.,-3.26389629912106E-16));
#220=DIRECTION('ref_axis',(-3.26389629912106E-16,0.,-1.));
#221=DIRECTION('',(0.,1.,0.));
#222=DIRECTION('',(-3.26389629912106E-16,0.,-1.));
#223=DIRECTION('',(0.,1.,0.));
#224=DIRECTION('center_axis',(0.,1.,0.));
#225=DIRECTION('ref_axis',(3.33066907387545E-15,0.,1.));
#226=DIRECTION('',(0.,1.,0.));
#227=DIRECTION('center_axis',(0.,1.,0.));
#228=DIRECTION('ref_axis',(3.33066907387545E-15,0.,1.));
#229=DIRECTION('center_axis',(0.,0.,1.));
#230=DIRECTION('ref_axis',(1.,0.,0.));
#231=DIRECTION('',(0.,1.,0.));
#232=DIRECTION('',(1.,0.,0.));
#233=DIRECTION('center_axis',(0.,1.,0.));
#234=DIRECTION('ref_axis',(-1.,0.,4.4408920985006E-15));
#235=DIRECTION('',(0.,1.,0.));
#236=DIRECTION('center_axis',(0.,1.,0.));
#237=DIRECTION('ref_axis',(-1.,0.,4.4408920985006E-15));
#238=DIRECTION('center_axis',(-1.,0.,-3.059902780426E-16));
#239=DIRECTION('ref_axis',(-3.059902780426E-16,0.,1.));
#240=DIRECTION('',(0.,1.,0.));
#241=DIRECTION('',(-3.059902780426E-16,0.,1.));
#242=DIRECTION('center_axis',(0.,1.,0.));
#243=DIRECTION('ref_axis',(-5.27355936696947E-15,0.,-1.));
#244=DIRECTION('',(0.,1.,0.));
#245=DIRECTION('center_axis',(0.,1.,0.));
#246=DIRECTION('ref_axis',(-5.27355936696947E-15,0.,-1.));
#247=DIRECTION('center_axis',(0.,0.,-1.));
#248=DIRECTION('ref_axis',(-1.,0.,0.));
#249=DIRECTION('',(0.,1.,0.));
#250=DIRECTION('',(-1.,0.,0.));
#251=DIRECTION('center_axis',(0.,1.,0.));
#252=DIRECTION('ref_axis',(1.,0.,-4.4408920985006E-15));
#253=DIRECTION('center_axis',(0.,1.,0.));
#254=DIRECTION('ref_axis',(1.,0.,-4.4408920985006E-15));
#255=DIRECTION('center_axis',(0.,1.,0.));
#256=DIRECTION('ref_axis',(1.,0.,0.));
#257=CARTESIAN_POINT('',(0.,0.,0.));
#258=CARTESIAN_POINT('Origin',(0.500000074505806,18.0000002682209,23.5));
#259=CARTESIAN_POINT('',(-0.329530146123555,18.0000002682209,37.6305643677987));
#260=CARTESIAN_POINT('',(-0.329530146123553,18.0000002682209,30.8275110666008));
#261=CARTESIAN_POINT('',(-0.329530146123551,18.0000002682209,27.1637555333004));
#262=CARTESIAN_POINT('',(0.670469853876448,18.0000002682209,38.6305643677987));
#263=CARTESIAN_POINT('Origin',(0.670469853876451,18.0000002682209,37.6305643677987));
#264=CARTESIAN_POINT('',(2.50000005215406,18.0000002682209,38.6305643677987));
#265=CARTESIAN_POINT('',(0.585234964191127,18.0000002682209,38.6305643677987));
#266=CARTESIAN_POINT('',(3.50000005215407,18.0000002682209,37.6305643677987));
#267=CARTESIAN_POINT('Origin',(2.50000005215406,18.0000002682209,37.6305643677987));
#268=CARTESIAN_POINT('',(3.50000005215406,18.0000002682209,30.8275110666008));
#269=CARTESIAN_POINT('',(3.50000005215406,18.0000002682209,30.5652821838994));
#270=CARTESIAN_POINT('',(2.50000005215406,18.0000002682209,29.8275110666008));
#271=CARTESIAN_POINT('Origin',(2.50000005215406,18.0000002682209,30.8275110666008));
#272=CARTESIAN_POINT('',(0.670469853876448,18.0000002682209,29.8275110666008));
#273=CARTESIAN_POINT('',(1.50000006332994,18.0000002682209,29.8275110666008));
#274=CARTESIAN_POINT('Origin',(0.670469853876453,18.0000002682209,30.8275110666008));
#275=CARTESIAN_POINT('Origin',(3.50000005215407,15.,37.6305643677987));
#276=CARTESIAN_POINT('',(3.50000005215407,15.,37.6305643677987));
#277=CARTESIAN_POINT('',(3.50000005215407,15.,37.6305643677987));
#278=CARTESIAN_POINT('',(3.50000005215406,15.,30.8275110666008));
#279=CARTESIAN_POINT('',(3.50000005215407,15.,37.6305643677987));
#280=CARTESIAN_POINT('',(3.50000005215406,15.,30.8275110666008));
#281=CARTESIAN_POINT('Origin',(2.50000005215406,15.,37.6305643677987));
#282=CARTESIAN_POINT('',(2.50000005215406,15.,38.6305643677987));
#283=CARTESIAN_POINT('',(2.50000005215406,15.,38.6305643677987));
#284=CARTESIAN_POINT('Origin',(2.50000005215406,15.,37.6305643677987));
#285=CARTESIAN_POINT('Origin',(0.670469853876448,15.,38.6305643677987));
#286=CARTESIAN_POINT('',(0.670469853876448,15.,38.6305643677987));
#287=CARTESIAN_POINT('',(0.670469853876448,15.,38.6305643677987));
#288=CARTESIAN_POINT('',(0.670469853876448,15.,38.6305643677987));
#289=CARTESIAN_POINT('Origin',(0.670469853876451,15.,37.6305643677987));
#290=CARTESIAN_POINT('',(-0.329530146123555,15.,37.6305643677987));
#291=CARTESIAN_POINT('',(-0.329530146123555,15.,37.6305643677987));
#292=CARTESIAN_POINT('Origin',(0.670469853876451,15.,37.6305643677987));
#293=CARTESIAN_POINT('Origin',(-0.329530146123553,15.,30.8275110666008));
#294=CARTESIAN_POINT('',(-0.329530146123553,15.,30.8275110666008));
#295=CARTESIAN_POINT('',(-0.329530146123553,15.,30.8275110666008));
#296=CARTESIAN_POINT('',(-0.329530146123553,15.,30.8275110666008));
#297=CARTESIAN_POINT('Origin',(0.670469853876453,15.,30.8275110666008));
#298=CARTESIAN_POINT('',(0.670469853876448,15.,29.8275110666008));
#299=CARTESIAN_POINT('',(0.670469853876448,15.,29.8275110666008));
#300=CARTESIAN_POINT('Origin',(0.670469853876453,15.,30.8275110666008));
#301=CARTESIAN_POINT('Origin',(2.50000005215406,15.,29.8275110666008));
#302=CARTESIAN_POINT('',(2.50000005215406,15.,29.8275110666008));
#303=CARTESIAN_POINT('',(2.50000005215406,15.,29.8275110666008));
#304=CARTESIAN_POINT('',(3.50000005215406,15.,29.8275110666008));
#305=CARTESIAN_POINT('Origin',(2.50000005215406,15.,30.8275110666008));
#306=CARTESIAN_POINT('Origin',(2.50000005215406,15.,30.8275110666008));
#307=CARTESIAN_POINT('Origin',(1.58523495301526,15.,34.2290377171998));
#308=UNCERTAINTY_MEASURE_WITH_UNIT(LENGTH_MEASURE(0.01),#312,
'DISTANCE_ACCURACY_VALUE',
'Maximum model space distance between geometric entities at asserted c
onnectivities');
#309=UNCERTAINTY_MEASURE_WITH_UNIT(LENGTH_MEASURE(0.01),#312,
'DISTANCE_ACCURACY_VALUE',
'Maximum model space distance between geometric entities at asserted c
onnectivities');
#310=(
GEOMETRIC_REPRESENTATION_CONTEXT(3)
GLOBAL_UNCERTAINTY_ASSIGNED_CONTEXT((#308))
GLOBAL_UNIT_ASSIGNED_CONTEXT((#312,#313,#314))
REPRESENTATION_CONTEXT('','3D')
);
#311=(
GEOMETRIC_REPRESENTATION_CONTEXT(3)
GLOBAL_UNCERTAINTY_ASSIGNED_CONTEXT((#309))
GLOBAL_UNIT_ASSIGNED_CONTEXT((#312,#313,#314))
REPRESENTATION_CONTEXT('','3D')
);
#312=(
LENGTH_UNIT()
NAMED_UNIT(*)
SI_UNIT(.MILLI.,.METRE.)
);
#313=(
NAMED_UNIT(*)
PLANE_ANGLE_UNIT()
SI_UNIT($,.RADIAN.)
);
#314=(
NAMED_UNIT(*)
SI_UNIT($,.STERADIAN.)
SOLID_ANGLE_UNIT()
);
#315=SHAPE_DEFINITION_REPRESENTATION(#316,#317);
#316=PRODUCT_DEFINITION_SHAPE('',$,#319);
#317=SHAPE_REPRESENTATION('',(#184),#310);
#318=PRODUCT_DEFINITION_CONTEXT('part definition',#323,'design');
#319=PRODUCT_DEFINITION('findmycharger casing',
'findmycharger casing v3',#320,#318);
#320=PRODUCT_DEFINITION_FORMATION('',$,#325);
#321=PRODUCT_RELATED_PRODUCT_CATEGORY('findmycharger casing v3',
'findmycharger casing v3',(#325));
#322=APPLICATION_PROTOCOL_DEFINITION('international standard',
'automotive_design',2009,#323);
#323=APPLICATION_CONTEXT(
'Core Data for Automotive Mechanical Design Process');
#324=PRODUCT_CONTEXT('part definition',#323,'mechanical');
#325=PRODUCT('findmycharger casing','findmycharger casing v3',$,(#324));
#326=PRESENTATION_STYLE_ASSIGNMENT((#327));
#327=SURFACE_STYLE_USAGE(.BOTH.,#328);
#328=SURFACE_SIDE_STYLE('',(#329));
#329=SURFACE_STYLE_FILL_AREA(#330);
#330=FILL_AREA_STYLE('Steel - Satin',(#331));
#331=FILL_AREA_STYLE_COLOUR('Steel - Satin',#332);
#332=COLOUR_RGB('Steel - Satin',0.627450980392157,0.627450980392157,0.627450980392157);
ENDSEC;
END-ISO-10303-21;
